<?xml version="1.0" encoding="UTF-8"?>
<svg xmlns="http://www.w3.org/2000/svg" width="225" height="81" viewBox="0 0 225 81" fill="none">
  <g id="Group 270">
    <g id="Group 262">
      <path id="Vector" d="M24.9637 42.3514C24.8917 41.9197 24.8198 41.416 24.8198 40.9124V40.6965L0.782607 42.6392H0.638672L0.782607 44.438L25.0357 42.4953L24.9637 42.3514Z" fill="#7B6961"></path>
      <path id="Vector_2" d="M28.1304 30.6954C28.2744 30.4796 28.4183 30.3357 28.5622 30.1198C28.7062 29.904 28.8501 29.7601 29.066 29.5442L29.2099 29.4003L11.0021 13.4271L10.8582 13.2832L9.63477 14.6503L27.9865 30.8393L28.1304 30.6954Z" fill="#7B6961"></path>
      <path id="Vector_3" d="M25.828 45.6612C25.6841 45.2295 25.5401 44.7258 25.3962 44.2941L25.3242 44.0782L2.36659 51.2734L2.22266 51.3453L2.7984 53.0722L25.9 45.8051L25.828 45.6612Z" fill="#7B6961"></path>
      <path id="Vector_4" d="M25.3949 36.0915L25.4668 35.8757C25.6108 35.444 25.7547 34.9403 25.8986 34.5086L25.9706 34.3647L2.94097 26.1622L2.36523 27.8171L25.2509 36.0196L25.3949 36.0915Z" fill="#7B6961"></path>
      <path id="Vector_5" d="M24.8923 39.1133V38.8974C24.9643 38.3938 24.9643 37.9621 25.1082 37.4584V37.2425L1.21501 33.8608H1.07107L0.783203 35.6596L24.6764 39.1133H24.8923Z" fill="#7B6961"></path>
      <path id="Vector_6" d="M45.1152 25.5147L45.2592 25.5866C45.691 25.7305 46.1228 25.9464 46.5546 26.0903L46.6985 26.1622L55.6945 3.78536L55.7664 3.64146L54.1112 2.9939L45.1872 25.2988L45.1152 25.5147Z" fill="#7B6961"></path>
      <path id="Vector_7" d="M43.3877 25.0831L43.6036 25.155L47.4179 1.19526V1.05136L45.6187 0.76355L41.7324 24.6514V24.8672H41.9483C42.4521 24.8672 42.8839 24.9392 43.3877 25.0831Z" fill="#7B6961"></path>
      <path id="Vector_8" d="M47.9922 26.8094L48.1361 26.8814C48.5679 27.0972 48.9278 27.385 49.3596 27.6728L49.5035 27.8167L62.8175 7.38256L61.3062 6.37524L48.0642 26.5936L47.9922 26.8094Z" fill="#7B6961"></path>
      <path id="Vector_9" d="M38.3498 24.8671H38.5657C39.0695 24.7951 39.5013 24.7951 40.0051 24.7951H40.221L38.8536 0.619489L38.7816 0.475586L36.9824 0.547537L38.3498 24.6512V24.8671Z" fill="#7B6961"></path>
      <path id="Vector_10" d="M30.0738 28.6085C30.4337 28.3207 30.7935 27.961 31.1533 27.7451L31.2973 27.6012L16.472 8.60606L16.328 8.46216L14.8887 9.54143L29.8579 28.6805L30.0738 28.6085Z" fill="#7B6961"></path>
      <path id="Vector_11" d="M32.304 26.9539L32.4479 26.8819C32.8797 26.6661 33.3116 26.4502 33.7434 26.2344L33.8873 26.1624L22.8763 4.43311L21.293 5.22457L32.232 26.738L32.304 26.9539Z" fill="#7B6961"></path>
      <path id="Vector_12" d="M35.3261 25.5869C35.7579 25.443 36.2617 25.2991 36.6935 25.1552L36.9094 25.0833L30.4323 1.6991L28.7051 2.20276L35.1822 25.6589L35.3261 25.5869Z" fill="#7B6961"></path>
      <path id="Vector_13" d="M26.4747 33.2137L26.5467 33.0698C26.7626 32.6381 26.9785 32.2064 27.2663 31.8467L27.3383 31.7028L6.68362 19.1832L5.74805 20.6942L26.3308 33.1418L26.4747 33.2137Z" fill="#7B6961"></path>
      <path id="Vector_14" d="M27.4104 48.6829L27.2665 48.539C26.9786 48.1072 26.7627 47.7475 26.5468 47.3158L26.4749 47.1719L5.46034 59.1158L5.31641 59.1877L6.18002 60.7707L27.2665 48.8268L27.4104 48.6829Z" fill="#7B6961"></path>
      <path id="Vector_15" d="M66.9209 10.9084L66.7769 10.7645L65.5535 12.1316L65.6974 12.2755C73.1101 18.895 77.5721 27.9609 78.2918 37.8902C79.0114 47.8195 75.8449 57.4609 69.3678 65.0158C62.8187 72.7146 53.6789 77.3914 43.6034 78.1829C34.5355 78.9024 25.4676 76.3122 18.1988 70.9158C18.7746 70.2683 20.142 68.4695 20.5738 67.8939C26.4032 72.139 33.312 74.4414 40.5808 74.4414C50.5842 74.4414 59.94 70.1244 66.4171 62.5695C72.3184 55.6621 75.1252 46.8841 74.4055 37.8902C73.6858 29.1121 69.7276 21.0536 63.1066 15.2255L62.9627 15.0816L57.9969 20.5499L58.1408 20.6938C68.936 30.1914 70.0875 46.8121 60.8036 57.7487C56.1977 63.1451 49.7926 66.3829 42.7398 66.9585C36.4786 67.4622 30.2174 65.7353 25.1797 62.0658C25.3236 61.9219 25.4676 61.7061 25.6835 61.4182C26.2592 60.6268 27.2668 59.4036 27.5546 59.0439C31.8727 62.1378 37.1263 63.5768 42.4519 63.1451C48.4972 62.6414 53.9667 59.9073 57.853 55.3024C65.8414 45.9487 64.7619 31.7743 55.55 23.6438L55.3341 23.356L50.3683 28.8243L50.5123 28.9682C53.5349 31.5585 55.4061 35.228 55.7659 39.2572C56.0538 43.2865 54.8303 47.2438 52.1675 50.2658C49.5047 53.3597 45.8344 55.2304 41.8042 55.5182C37.846 55.806 33.9597 54.5829 30.9371 52.0646L30.7932 51.9207L29.7137 53.3597L29.8576 53.5036C36.9824 59.3317 47.5616 58.3963 53.5349 51.417C56.4856 47.9634 57.9249 43.5743 57.5651 39.0414C57.2772 35.0841 55.55 31.3426 52.8152 28.5365C53.247 28.0328 54.9023 26.2341 55.4061 25.7304C62.9627 33.3572 63.4664 45.6609 56.4856 53.8634C52.8872 58.1085 47.8495 60.6268 42.308 61.0585C36.9104 61.4902 31.7288 59.8353 27.5546 56.4536L27.4107 56.3097L22.7328 62.3536L22.8767 62.4975C28.5622 67.0304 35.615 69.2609 42.8837 68.6853C50.4403 68.1097 57.2772 64.5841 62.171 58.828C71.8147 47.5316 71.023 30.6231 60.4438 20.2621C60.7317 19.9743 61.3794 19.1828 62.0271 18.5353C62.6028 17.9597 62.8907 17.5999 63.0346 17.456C75.1252 29.1841 76.0608 48.467 65.0497 61.3463C59.5802 67.75 51.9516 71.7073 43.6034 72.4987C35.2552 73.2902 27.0509 70.8439 20.5018 65.5914L20.3579 65.4475L15.8239 71.2036L15.752 71.2756L15.8959 71.4195C22.9487 77.1036 31.5128 80.0536 40.5088 80.0536C41.5883 80.0536 42.6678 79.9817 43.6754 79.9097C54.2546 79.0463 63.8263 74.1536 70.6632 66.0951C77.4281 58.1804 80.7387 48.1073 80.019 37.6743C79.3713 27.3133 74.6934 17.8158 66.9209 10.9084Z" fill="#7B6961"></path>
      <path id="Vector_16" d="M29.4966 51.2012L29.3527 51.0573C28.9928 50.6975 28.7049 50.3378 28.4171 49.978L28.2731 49.8341L10.4252 65.9512L10.2812 66.0951L11.5047 67.4622L29.3527 51.417L29.4966 51.2012Z" fill="#7B6961"></path>
    </g>
    <g id="Group">
      <g id="Group_2">
        <path id="Vector_17" d="M103.819 23.6628H105.215V22.9106C105.215 18.29 102.853 16.7856 99.5245 16.7856C95.9812 16.7856 93.6189 18.7198 93.6189 18.7198L92.6526 17.3229C92.6526 17.3229 95.1222 15.0663 99.6318 15.0663C104.356 15.0663 106.933 17.7527 106.933 22.9106V36.2353H105.215V33.5489C105.215 32.4743 105.43 31.7221 105.43 31.7221H105.323C105.323 31.7221 103.497 36.7726 98.1286 36.7726C94.8001 36.7726 91.1494 34.9458 91.1494 30.755C91.042 23.7703 100.169 23.6628 103.819 23.6628ZM98.1286 35.1607C102.638 35.1607 105.215 30.5401 105.215 26.4567V25.3821H103.927C100.383 25.3821 92.9747 25.3821 92.9747 30.755C92.8673 32.9041 94.6927 35.1607 98.1286 35.1607Z" fill="#7B6961" stroke="#7B6961" stroke-width="0.365185" stroke-miterlimit="10"></path>
        <path id="Vector_18" d="M124.542 23.6628H125.938V22.9106C125.938 18.29 123.576 16.7856 120.247 16.7856C116.704 16.7856 114.342 18.7198 114.342 18.7198L113.375 17.3229C113.375 17.3229 115.845 15.0663 120.354 15.0663C125.079 15.0663 127.656 17.7527 127.656 22.9106V36.2353H125.938V33.5489C125.938 32.4743 126.153 31.7221 126.153 31.7221H126.045C126.045 31.7221 124.22 36.7726 118.851 36.7726C115.523 36.7726 111.872 34.9458 111.872 30.755C111.765 23.7703 120.891 23.6628 124.542 23.6628ZM118.851 35.1607C123.361 35.1607 125.938 30.5401 125.938 26.4567V25.3821H124.649C121.106 25.3821 113.697 25.3821 113.697 30.755C113.59 32.9041 115.415 35.1607 118.851 35.1607Z" fill="#7B6961" stroke="#7B6961" stroke-width="0.365185" stroke-miterlimit="10"></path>
        <path id="Vector_19" d="M133.56 32.474C133.56 32.474 135.815 35.053 139.895 35.053C142.365 35.053 144.619 33.7635 144.619 31.1845C144.619 25.9191 133.238 27.4235 133.238 20.7612C133.238 17.1077 136.352 15.1735 139.788 15.1735C143.975 15.1735 145.908 17.4301 145.908 17.4301L144.834 18.827C144.834 18.827 143.116 16.8928 139.68 16.8928C137.318 16.8928 135.063 17.9673 135.063 20.6538C135.063 26.0266 146.445 24.4147 146.445 31.292C146.445 34.6231 143.653 36.8797 139.895 36.8797C134.956 36.8797 132.486 33.8709 132.486 33.8709L133.56 32.474Z" fill="#7B6961" stroke="#7B6961" stroke-width="0.365185" stroke-miterlimit="10"></path>
        <path id="Vector_20" d="M152.458 17.3226H149.773V15.7107H152.458V9.90808H154.176V15.7107H159.544V17.3226H154.176V28.713C154.176 34.1933 157.397 34.8381 159.115 34.8381C159.652 34.8381 160.081 34.7306 160.081 34.7306V36.3424C160.081 36.3424 159.652 36.4499 159.008 36.4499C156.86 36.4499 152.458 35.6977 152.458 28.8205V17.3226Z" fill="#7B6961" stroke="#7B6961" stroke-width="0.365185" stroke-miterlimit="10"></path>
        <g id="Group 263">
          <path id="Vector_21" d="M99.8087 14.7379C98.3694 14.7379 97.074 14.9538 95.8505 15.3855C94.6271 15.8172 93.8354 16.1769 93.4036 16.3928C93.0438 16.6086 92.8279 16.8245 92.612 16.9684L92.3241 17.1843L93.6195 19.055L94.4831 18.4074C95.4907 17.6879 97.6497 16.9684 99.5928 16.9684C103.263 16.9684 105.062 18.9111 105.062 22.9404V23.3721H104.055C102.544 23.3721 101.824 23.3721 99.8807 23.5879C97.9376 23.7318 96.7141 24.0196 94.9869 24.7391C92.2521 25.8904 90.8848 27.977 90.8848 30.7831C90.8848 32.7977 91.6044 34.3806 93.1158 35.5318C94.5551 36.6111 96.2823 37.1148 98.2255 37.1148C101.032 37.1148 102.975 35.7477 104.055 34.5245C104.559 33.9489 104.918 33.4453 105.206 32.9416L105.134 33.5892V36.6111H107.437V22.8684C107.437 17.544 104.846 14.7379 99.8087 14.7379ZM105.206 25.5306V26.394C105.206 28.5526 104.559 30.5672 103.263 32.366C102.04 34.0928 100.384 34.9562 98.2974 34.9562C94.9869 34.9562 93.2597 32.7977 93.2597 30.6392C93.0438 27.6891 96.2104 26.466 97.2179 26.1782C97.8656 25.9623 98.6573 25.7465 99.6648 25.6745C100.6 25.5306 101.32 25.5306 101.968 25.5306C102.472 25.4587 103.191 25.4587 104.055 25.4587H105.206V25.5306Z" fill="#7B6961"></path>
          <path id="Vector_22" d="M120.607 14.7379C119.168 14.7379 117.873 14.9538 116.649 15.3855C115.426 15.8172 114.634 16.1769 114.202 16.3928C113.842 16.6086 113.626 16.8245 113.411 16.9684L113.123 17.1843L114.418 19.055L115.282 18.4074C116.289 17.6879 118.448 16.9684 120.391 16.9684C124.062 16.9684 125.861 18.9111 125.861 22.9404V23.3721H124.781C123.27 23.3721 122.55 23.3721 120.607 23.5879C118.664 23.7318 117.441 24.0196 115.713 24.7391C112.979 25.8904 111.611 27.977 111.611 30.7831C111.611 32.7977 112.331 34.3806 113.842 35.5318C115.282 36.6111 117.009 37.1148 118.952 37.1148C121.759 37.1148 123.702 35.7477 124.781 34.5245C125.285 33.9489 125.645 33.4453 125.933 32.9416L125.861 33.5892V36.6111H128.164V22.8684C128.236 17.544 125.645 14.7379 120.607 14.7379ZM126.005 25.5306V26.394C126.005 28.5526 125.357 30.5672 124.062 32.366C122.838 34.0928 121.183 34.9562 119.096 34.9562C115.785 34.9562 114.058 32.7977 114.058 30.6392C113.842 27.6891 117.009 26.466 118.016 26.1782C118.664 25.9623 119.456 25.7465 120.463 25.6745C121.399 25.5306 122.119 25.5306 122.766 25.5306C123.27 25.4587 123.99 25.4587 124.853 25.4587H126.005V25.5306Z" fill="#7B6961"></path>
          <path id="Vector_23" d="M140.112 24.5952L139.536 24.3794C136.945 23.3721 135.65 22.0769 135.65 20.494C135.65 17.9038 137.953 16.9684 140.112 16.9684C142.199 16.9684 144.214 17.9038 144.574 18.3355L145.366 19.055L146.733 17.1843L145.941 16.4647C145.15 15.7452 142.847 14.7379 140.184 14.7379C138.241 14.7379 136.586 15.2416 135.29 16.3208C133.923 17.3282 133.275 18.7672 133.275 20.6379C133.275 24.5952 137.233 26.0343 140.4 27.1855L140.904 27.3294C143.495 28.2648 144.79 29.5599 144.79 31.1428C144.79 33.3013 142.991 34.8123 140.256 34.8123C139.105 34.8123 137.953 34.5965 136.802 34.0928C135.65 33.5892 135.002 33.2294 134.714 32.9416C134.427 32.6538 134.139 32.4379 133.995 32.2221L133.779 31.9343L132.268 33.7331L133.203 34.6684C134.355 35.8196 137.233 36.9709 140.112 36.9709C144.214 36.9709 147.021 34.5245 147.021 31.0709C147.165 27.1855 143.279 25.7465 140.112 24.5952Z" fill="#7B6961"></path>
          <path id="Vector_24" d="M156.519 33.6609C155.367 32.7975 154.719 30.9987 154.719 28.6963V17.4719H160.189V15.3133H154.719V9.41333H152.416V15.3133H149.682V17.4719H152.416V28.7682C152.416 35.9634 157.238 36.7548 159.325 36.7548C159.757 36.7548 160.117 36.6829 160.405 36.6829H160.621V34.5243L159.397 34.6682C158.462 34.5963 157.598 34.4524 156.519 33.6609Z" fill="#7B6961"></path>
          <path id="Vector_25" d="M167.242 19.6303V15.2413H164.939V36.6108H167.242V27.3291C167.242 25.7462 167.458 24.3071 167.89 23.012C168.97 19.4864 171.129 17.3998 173.863 17.3998C174.151 17.3998 174.439 17.4718 174.799 17.4718L175.087 17.5437V15.2413L173.576 15.0974C170.985 15.0254 168.682 16.7523 167.242 19.6303Z" fill="#7B6961"></path>
          <path id="Vector_26" d="M181.651 6.88538H179.061V10.4829H181.651V6.88538Z" fill="#7B6961"></path>
          <path id="Vector_27" d="M181.565 15.2413H179.262V36.6109H181.565V15.2413Z" fill="#7B6961"></path>
          <path id="Vector_28" d="M203.802 15.2416H200.779L194.014 23.4441H190.704V6.89526H188.473V36.6112H190.704V25.6026H194.014L201.571 36.6112H204.449L195.957 24.5233L203.802 15.2416Z" fill="#7B6961"></path>
          <path id="Vector_29" d="M215.1 14.7379C213.66 14.7379 212.365 14.9538 211.142 15.3855C209.918 15.8172 209.126 16.1769 208.695 16.3928C208.335 16.6086 208.119 16.8245 207.903 16.9684L207.615 17.1843L208.911 19.055L209.846 18.4074C210.854 17.6879 213.013 16.9684 214.956 16.9684C218.626 16.9684 220.425 18.9111 220.425 22.9404V23.3721H219.346C217.835 23.3721 217.115 23.3721 215.172 23.5879C213.229 23.7318 212.005 24.0196 210.278 24.7391C207.543 25.8904 206.176 27.977 206.176 30.7831C206.176 32.7977 206.895 34.3806 208.407 35.5318C209.846 36.6111 211.573 37.1148 213.516 37.1148C216.323 37.1148 218.266 35.7477 219.346 34.5245C219.85 33.9489 220.209 33.4453 220.497 32.9416L220.425 33.5892V36.6111H222.728V22.8684C222.728 17.544 220.137 14.7379 215.1 14.7379ZM220.425 25.5306V26.394C220.425 28.5526 219.778 30.5672 218.482 32.366C217.259 34.0928 215.604 34.9562 213.516 34.9562C210.206 34.9562 208.479 32.7977 208.479 30.6392C208.263 27.6891 211.429 26.466 212.509 26.1782C213.157 25.9623 213.948 25.7465 214.956 25.6745C215.891 25.5306 216.611 25.5306 217.259 25.5306C217.763 25.4587 218.482 25.4587 219.346 25.4587H220.425V25.5306Z" fill="#7B6961"></path>
        </g>
      </g>
      <g id="Group_3">
        <path id="Vector_30" d="M91.2559 55.4237H99.6315V57.6589H93.9547V61.7569H98.7939V63.9921H93.9547V69.8596H91.3489V55.4237H91.2559Z" fill="#7B6961" stroke="#7B6961" stroke-width="0.130006" stroke-miterlimit="10"></path>
        <path id="Vector_31" d="M108.472 55.1443C112.753 55.1443 116.01 58.404 116.01 62.5951C116.01 66.8793 112.753 70.2322 108.472 70.2322C104.191 70.2322 100.934 66.8793 100.934 62.5951C101.027 58.404 104.191 55.1443 108.472 55.1443ZM108.472 67.8107C111.17 67.8107 113.218 65.5754 113.218 62.5951C113.218 59.7079 111.077 57.5658 108.472 57.5658C105.866 57.5658 103.725 59.7079 103.725 62.5951C103.725 65.5754 105.866 67.8107 108.472 67.8107Z" fill="#7B6961" stroke="#7B6961" stroke-width="0.130006" stroke-miterlimit="10"></path>
        <path id="Vector_32" d="M118.43 55.4235H121.035V64.737C121.035 66.6928 122.338 67.8104 124.293 67.8104C126.247 67.8104 127.55 66.6928 127.55 64.737V55.4235H130.156V64.737C130.156 67.9967 127.829 70.2319 124.293 70.2319C120.756 70.2319 118.43 67.9967 118.43 64.737V55.4235Z" fill="#7B6961" stroke="#7B6961" stroke-width="0.130006" stroke-miterlimit="10"></path>
        <path id="Vector_33" d="M133.506 55.4235H136.112L141.602 63.8056C142.161 64.6438 142.812 66.0409 142.812 66.0409C142.812 66.0409 142.626 64.6438 142.626 63.8056V55.4235H145.232V69.9525H142.626L137.135 61.5704C136.577 60.7322 135.925 59.3351 135.925 59.3351C135.925 59.3351 136.112 60.7322 136.112 61.5704V69.9525H133.506V55.4235Z" fill="#7B6961" stroke="#7B6961" stroke-width="0.130006" stroke-miterlimit="10"></path>
        <path id="Vector_34" d="M148.955 55.4235H153.887C158.354 55.4235 161.332 58.1244 161.332 62.688C161.332 67.2516 158.447 69.9525 153.887 69.9525H148.955V55.4235ZM153.794 67.7173C156.772 67.7173 158.634 65.9477 158.634 62.688C158.634 59.4283 156.679 57.7518 153.794 57.7518H151.654V67.7173H153.794Z" fill="#7B6961" stroke="#7B6961" stroke-width="0.130006" stroke-miterlimit="10"></path>
        <path id="Vector_35" d="M171.103 66.2271H165.985L164.775 69.9525H162.076L167.195 55.4235H169.986L175.105 69.9525H172.313L171.103 66.2271ZM168.591 57.9381C168.591 57.9381 168.218 59.3351 167.939 60.1734L166.636 64.085H170.452L169.149 60.1734C168.963 59.3351 168.591 57.9381 168.591 57.9381Z" fill="#7B6961" stroke="#7B6961" stroke-width="0.130006" stroke-miterlimit="10"></path>
        <path id="Vector_36" d="M179.014 57.6587H174.268V55.4235H186.459V57.6587H181.619V69.9525H179.014V57.6587Z" fill="#7B6961" stroke="#7B6961" stroke-width="0.130006" stroke-miterlimit="10"></path>
        <path id="Vector_37" d="M188.227 55.4235H190.832V69.9525H188.227V55.4235Z" fill="#7B6961" stroke="#7B6961" stroke-width="0.130006" stroke-miterlimit="10"></path>
        <path id="Vector_38" d="M200.976 55.1443C205.256 55.1443 208.514 58.404 208.514 62.5951C208.514 66.8793 205.256 70.2322 200.976 70.2322C196.695 70.2322 193.438 66.8793 193.438 62.5951C193.437 58.404 196.695 55.1443 200.976 55.1443ZM200.976 67.8107C203.674 67.8107 205.722 65.5754 205.722 62.5951C205.722 59.7079 203.581 57.5658 200.976 57.5658C198.277 57.5658 196.229 59.7079 196.229 62.5951C196.229 65.5754 198.277 67.8107 200.976 67.8107Z" fill="#7B6961" stroke="#7B6961" stroke-width="0.130006" stroke-miterlimit="10"></path>
        <path id="Vector_39" d="M211.027 55.4235H213.633L219.124 63.8056C219.682 64.6438 220.334 66.0409 220.334 66.0409C220.334 66.0409 220.147 64.6438 220.147 63.8056V55.4235H222.753V69.9525H220.147L214.657 61.5704C214.098 60.7322 213.447 59.3351 213.447 59.3351C213.447 59.3351 213.633 60.7322 213.633 61.5704V69.9525H211.027V55.4235Z" fill="#7B6961" stroke="#7B6961" stroke-width="0.130006" stroke-miterlimit="10"></path>
      </g>
      <g id="Vector_40">
        <path d="M222.892 44.0795H90.3396C89.7006 44.0795 89.2747 44.6168 89.2747 45.1541C89.2747 45.7988 89.8071 46.2287 90.3396 46.2287H222.892C223.531 46.2287 223.957 45.6914 223.957 45.1541C223.957 44.5093 223.531 44.0795 222.892 44.0795Z" fill="#EFB84A"></path>
        <path fill-rule="evenodd" clip-rule="evenodd" d="M89.0332 45.1541C89.0332 44.4986 89.5517 43.8361 90.3396 43.8361L222.892 43.8361C223.266 43.8361 223.597 43.9631 223.834 44.2029C224.072 44.4428 224.198 44.7764 224.198 45.1541C224.198 45.8095 223.679 46.4721 222.892 46.4721H90.3396C89.6895 46.4721 89.0332 45.9487 89.0332 45.1541ZM90.3396 44.323C89.8496 44.323 89.5161 44.735 89.5161 45.1541C89.5161 45.649 89.9247 45.9852 90.3396 45.9852H222.892C223.382 45.9852 223.715 45.5732 223.715 45.1541C223.715 44.887 223.628 44.6833 223.493 44.5471C223.358 44.4109 223.156 44.323 222.892 44.323H90.3396Z" fill="#EFB84A"></path>
      </g>
    </g>
  </g>
</svg>
