<svg width="20" height="20" viewBox="0 0 20 20" fill="none" xmlns="http://www.w3.org/2000/svg">
<g id="Account" clip-path="url(#clip0_9862_8552)">
<g id="Group">
<path id="Vector" d="M19.3 9.9C19.3 12.4 18.3 14.6 16.8 16.3C15.1 18.1 12.6 19.3 9.9 19.3C7.2 19.3 4.7 18.1 3 16.3C1.4 14.6 0.5 12.4 0.5 9.9C0.5 4.7 4.7 0.5 9.9 0.5C15.1 0.5 19.3 4.7 19.3 9.9Z" fill="white" stroke="#808080" stroke-miterlimit="10"/>
<path id="Vector_2" d="M9.9 11.1C11.5016 11.1 12.8 9.80161 12.8 8.19999C12.8 6.59836 11.5016 5.29999 9.9 5.29999C8.29837 5.29999 7 6.59836 7 8.19999C7 9.80161 8.29837 11.1 9.9 11.1Z" fill="white" stroke="#808080" stroke-miterlimit="10"/>
<path id="Vector_3" d="M16.8 16.3C15.1 18.1 12.6 19.3 9.9 19.3C7.2 19.3 4.7 18.1 3 16.3C4.7 14.4 7.2 13.3 9.9 13.3C12.6 13.3 15.1 14.5 16.8 16.3Z" fill="white" stroke="#808080" stroke-miterlimit="10"/>
</g>
</g>
<defs>
<clipPath id="clip0_9862_8552">
<rect width="19.8" height="19.8" fill="white"/>
</clipPath>
</defs>
</svg>
