<svg width="16" height="17" viewBox="0 0 16 17" fill="none" xmlns="http://www.w3.org/2000/svg">
<circle cx="7.5" cy="8.5" r="6.5" transform="rotate(-90 7.5 8.5)" fill="#2E6491"/>
<path d="M6.00297 4.99431L6.00509 4.99221L6.00511 4.99224C6.08508 4.91684 6.19105 4.875 6.30099 4.875C6.41094 4.875 6.51691 4.91684 6.59688 4.99224L9.99126 8.19096C9.99126 8.19096 9.99126 8.19096 9.99126 8.19096C10.0334 8.23069 10.0671 8.27855 10.0901 8.33169C10.1131 8.38483 10.125 8.4421 10.125 8.5C10.125 8.5579 10.1131 8.61517 10.0901 8.66831C10.0671 8.72145 10.0334 8.76931 9.99126 8.80904C9.99126 8.80904 9.99126 8.80904 9.99126 8.80904M6.00297 4.99431L9.90553 8.71807L9.99126 8.80904M6.00297 4.99431L6.00034 4.9969L6.00297 4.99431ZM9.99126 8.80904L6.59688 12.0078L9.99126 8.80904ZM6.00034 12.0031L6.00296 12.0057L6.00294 12.0057L6.00511 12.0078C6.08508 12.0832 6.19105 12.125 6.30099 12.125C6.41092 12.125 6.51689 12.0832 6.59685 12.0078L6.08721 11.9132M6.00034 12.0031C6.00076 12.0035 6.00119 12.0039 6.00161 12.0043L6.08721 11.9132M6.00034 12.0031L5.99931 12.0021L6.08721 11.9132M6.00034 12.0031C5.96103 11.9658 5.92962 11.9211 5.90806 11.8714C5.88626 11.8212 5.875 11.767 5.875 11.7123C5.875 11.6576 5.88626 11.6034 5.90806 11.5532C5.92984 11.503 5.96165 11.4579 6.0015 11.4204M6.08721 11.9132C6.05965 11.8873 6.03771 11.8561 6.02272 11.8216C6.00773 11.7871 6 11.7499 6 11.7123C6 11.6747 6.00773 11.6375 6.02272 11.603C6.03771 11.5684 6.05965 11.5373 6.08721 11.5114L6.0015 11.4204M6.0015 11.4204L6.00161 11.4203M6.0015 11.4204L6.00161 11.4203M6.00161 11.4203L9.10137 8.50058L6.00161 5.5797L6.00148 5.57958L6.08721 5.4886C6.05965 5.46272 6.03772 5.43156 6.02272 5.39702C6.00773 5.36248 6 5.32529 6 5.2877C6 5.25012 6.00773 5.21292 6.02272 5.17839L6.00161 11.4203Z" fill="white" stroke="white" stroke-width="0.25"/>
</svg>
