<svg width="26" height="36" viewBox="0 0 26 36" fill="none" xmlns="http://www.w3.org/2000/svg">
<g clip-path="url(#clip0_7028_294)">
<path d="M0.088501 18.009C0.088501 12.8507 0.088501 7.71043 0.088501 2.55217C0.088501 1.50973 0.477964 0.718915 1.43392 0.287562C1.71716 0.161751 2.05352 0.089859 2.37217 0.089859C7.73613 0.089859 13.1001 0.089859 18.4641 0.089859C18.6942 0.089859 18.9774 0.21567 19.1368 0.377428C21.2611 2.51622 23.3677 4.65501 25.4921 6.7938C25.7399 7.02745 25.7753 7.31502 25.7753 7.62056C25.7753 14.4323 25.7753 21.2621 25.7753 28.0739C25.7753 29.8532 25.7753 31.6325 25.7753 33.3939C25.7753 34.9755 24.8725 35.8922 23.3146 35.8922C16.4105 35.8922 9.48871 35.8922 2.5846 35.8922C1.02675 35.8922 0.123907 34.9755 0.123907 33.3939C0.123907 28.2536 0.123907 23.1133 0.123907 17.973L0.088501 18.009ZM18.0746 1.20419C17.8976 1.20419 17.7913 1.20419 17.6851 1.20419C12.6398 1.20419 7.59451 1.20419 2.53149 1.20419C1.61095 1.20419 1.18608 1.63554 1.18608 2.55217C1.18608 12.8327 1.18608 23.1313 1.18608 33.4119C1.18608 34.3465 1.61095 34.7778 2.51379 34.7778C9.4356 34.7778 16.3574 34.7778 23.2792 34.7778C24.2352 34.7778 24.6246 34.3644 24.6246 33.4119C24.6246 25.0364 24.6246 16.661 24.6246 8.30354V7.89016C24.4476 7.89016 24.3237 7.89016 24.1998 7.89016C22.9429 7.89016 21.6683 7.89016 20.4114 7.89016C18.9597 7.89016 18.0392 6.93759 18.0392 5.48177C18.0392 4.90663 18.0392 4.3315 18.0392 3.75636C18.0392 2.9296 18.0392 2.08487 18.0392 1.22216L18.0746 1.20419ZM23.6864 6.75786C22.1817 5.23015 20.6592 3.70244 19.1899 2.1927C19.1899 3.28906 19.1899 4.47528 19.1899 5.6615C19.1899 6.25461 19.6501 6.73988 20.252 6.73988C21.4204 6.75786 22.5888 6.73988 23.6864 6.73988V6.75786Z" fill="#A1A1A1"/>
<path d="M23.2792 36H2.54921C0.955954 36 0 35.0295 0 33.4119C0 28.2716 0 23.1313 0 17.991V13.5696C0 9.90315 0 6.23664 0 2.55217C0 1.41987 0.460274 0.629056 1.39852 0.215676C1.68177 0.0898652 2.03583 0 2.37218 0C8.01939 0 13.2771 0 18.4641 0C18.7119 0 19.0129 0.125811 19.1899 0.305542C20.5176 1.63555 21.863 3.0015 23.1553 4.31353C23.9519 5.12232 24.7486 5.91313 25.5275 6.72192C25.7753 6.97354 25.8284 7.26111 25.8284 7.62057C25.8284 12.7429 25.8284 17.8472 25.8284 22.9695V28.0919C25.8284 29.8712 25.8284 31.6505 25.8284 33.4119C25.8284 35.0295 24.8725 36 23.2792 36ZM9.87819 0.17973C7.43519 0.17973 4.93909 0.17973 2.37218 0.17973C2.05353 0.17973 1.73488 0.251623 1.46934 0.359461C0.601897 0.772841 0.177028 1.47379 0.177028 2.55217C0.177028 6.23664 0.177028 9.90314 0.177028 13.5876V18.009C0.177028 23.1493 0.177028 28.2896 0.177028 33.4299C0.177028 34.9576 1.04447 35.8382 2.54921 35.8382H23.2792C24.784 35.8382 25.6514 34.9576 25.6514 33.4299C25.6514 31.6505 25.6514 29.8712 25.6514 28.1098V22.9875C25.6514 17.8652 25.6514 12.7609 25.6514 7.63854C25.6514 7.31503 25.616 7.08138 25.4036 6.8657C24.607 6.05691 23.8103 5.2661 23.0314 4.45731C21.7391 3.14528 20.3937 1.77933 19.066 0.449326C18.9243 0.305542 18.6588 0.197703 18.4641 0.197703C15.6493 0.197703 12.8169 0.197703 9.89589 0.197703L9.87819 0.17973ZM23.2969 34.8857H2.53151C1.55785 34.8857 1.11528 34.4184 1.11528 33.4299V2.57014C1.11528 1.58163 1.57555 1.1323 2.54921 1.1323H18.1808V5.49975C18.1808 6.91962 19.066 7.81827 20.4645 7.81827C21.3319 7.81827 22.1994 7.81827 23.0668 7.81827H24.7663V33.4299C24.7663 34.4363 24.3237 34.8857 23.3146 34.8857H23.2969ZM2.53151 1.29406C1.64636 1.29406 1.2746 1.67149 1.2746 2.55217V33.4119C1.2746 34.3105 1.64636 34.688 2.5138 34.688H23.2792C24.1821 34.688 24.5538 34.3105 24.5538 33.4119V7.98003H23.0314C22.164 7.98003 21.2965 7.98003 20.4291 7.98003C18.942 7.98003 17.9684 6.99151 17.9684 5.48178C17.9684 5.10434 17.9684 4.70894 17.9684 4.3315V1.29406H2.53151ZM21.7214 6.84773C21.2434 6.84773 20.7477 6.84773 20.2521 6.84773C19.597 6.84773 19.1014 6.32651 19.1014 5.67948C19.1014 4.83475 19.1014 3.97204 19.1014 3.14528C19.1014 2.82177 19.1014 2.49825 19.1014 2.19271V1.97703L20.3406 3.23515C21.4735 4.38542 22.6242 5.55367 23.7572 6.70394L23.9165 6.84773H23.7041C23.0668 6.84773 22.4118 6.84773 21.7391 6.84773H21.7214ZM19.2784 2.40839C19.2784 2.64204 19.2784 2.89366 19.2784 3.14528C19.2784 3.97204 19.2784 4.81677 19.2784 5.67948C19.2784 6.23665 19.7033 6.668 20.2521 6.668C21.0841 6.668 21.9161 6.668 22.7305 6.668C22.9783 6.668 23.2261 6.668 23.474 6.668C22.3941 5.57164 21.2965 4.45731 20.1989 3.34299L19.2607 2.39041L19.2784 2.40839Z" fill="#A1A1A1"/>
<path d="M15.4006 19.3251C15.4006 21.2842 15.4006 23.2432 15.4006 25.2203C15.4006 26.1369 14.7633 26.748 13.9136 26.6222C13.6481 26.5862 13.3825 26.4424 13.1701 26.2807C11.6122 25.1843 10.0544 24.088 8.49652 22.9916C8.3549 22.8838 8.14247 22.8299 7.96544 22.8299C7.23962 22.8119 6.5138 22.8299 5.77028 22.8299C4.72582 22.8299 4 22.075 4 21.0326C4 19.9003 4 18.75 4 17.6177C4 16.5573 4.72582 15.8204 5.77028 15.8024C6.5138 15.8024 7.25732 15.8024 8.00084 15.8024C8.17787 15.8024 8.3726 15.7305 8.51423 15.6406C10.0721 14.5443 11.6299 13.4479 13.1878 12.3516C13.6658 12.0101 14.1614 11.8663 14.7102 12.1539C15.2767 12.4414 15.436 12.9447 15.436 13.5558C15.436 15.4969 15.436 17.438 15.436 19.379L15.4006 19.3251ZM14.3031 19.3251C14.3031 17.384 14.3031 15.4429 14.3031 13.5019C14.3031 13.3581 14.2145 13.2323 14.1791 13.0885C14.0552 13.1244 13.9136 13.1424 13.8074 13.2143C12.2672 14.2927 10.7448 15.3711 9.20464 16.4494C9.02761 16.5752 8.9745 16.7011 8.9745 16.9167C8.9745 18.4984 8.9745 20.062 8.9745 21.6436C8.9745 21.8773 9.06301 22.0211 9.24004 22.1649C10.7448 23.2253 12.2495 24.2857 13.7543 25.3281C13.8782 25.418 14.0375 25.436 14.1791 25.4899C14.2145 25.3461 14.3031 25.1843 14.3031 25.0405C14.3031 23.1354 14.3031 21.2303 14.3031 19.3251ZM7.84152 21.6976V16.8988C7.1157 16.8988 6.40759 16.8988 5.69947 16.8988C5.34542 16.8988 5.09758 17.1504 5.09758 17.5098C5.09758 18.714 5.09758 19.9003 5.09758 21.1045C5.09758 21.4459 5.34542 21.6796 5.66407 21.6976C6.37218 21.6976 7.098 21.6976 7.82381 21.6976H7.84152Z" fill="#A1A1A1"/>
<path d="M21.7737 19.3072C21.7383 20.5473 21.3488 21.6257 20.5168 22.5243C20.1981 22.8658 19.8795 22.9197 19.6139 22.6861C19.3661 22.4524 19.3838 22.1289 19.6847 21.7874C20.977 20.3137 20.977 18.3007 19.6847 16.8269C19.4723 16.5753 19.3307 16.3236 19.5254 16.0181C19.7201 15.6946 20.1273 15.6946 20.4105 16.0001C21.2957 16.9347 21.7206 18.049 21.7383 19.3251L21.7737 19.3072Z" fill="#A1A1A1"/>
<path d="M18.9943 19.2892C18.9766 19.7924 18.8173 20.2418 18.4809 20.6192C18.2331 20.8888 17.9321 20.9247 17.6843 20.7091C17.4541 20.5114 17.4187 20.2058 17.6312 19.9182C17.9852 19.397 17.9852 19.2173 17.6312 18.6961C17.4364 18.4085 17.4541 18.1209 17.702 17.9053C17.9321 17.7076 18.2331 17.7255 18.4809 17.9772C18.835 18.3546 18.9943 18.8039 19.012 19.3072L18.9943 19.2892Z" fill="#A1A1A1"/>
</g>
<defs>
<clipPath id="clip0_7028_294">
<rect width="26" height="36" fill="white"/>
</clipPath>
</defs>
</svg>
