<svg width="44" height="44" viewBox="0 0 44 44" fill="none" xmlns="http://www.w3.org/2000/svg">
<g id="carbon:course">
<path id="Vector" d="M33 41.25H11C10.2709 41.2493 9.57183 40.9593 9.05626 40.4437C8.54069 39.9282 8.25073 39.2291 8.25 38.5V5.5C8.25073 4.77088 8.54069 4.07183 9.05626 3.55626C9.57183 3.04069 10.2709 2.75073 11 2.75H33C33.7291 2.75073 34.4282 3.04069 34.9437 3.55626C35.4593 4.07183 35.7493 4.77088 35.75 5.5V28.3498L28.875 24.9123L22 28.3498V5.5H11V38.5H33V33H35.75V38.5C35.7489 39.229 35.4588 39.9278 34.9433 40.4433C34.4279 40.9588 33.729 41.2489 33 41.25ZM28.875 21.8377L33 23.9002V5.5H24.75V23.9002L28.875 21.8377Z" fill="#14446C"/>
</g>
</svg>
