<svg width="16" height="16" viewBox="0 0 16 16" fill="none" xmlns="http://www.w3.org/2000/svg">
<g id="carbon:share" clip-path="url(#clip0_10248_8760)">
<path id="Vector" d="M10.3815 8.98742C10.0336 8.98917 9.69059 9.06901 9.37769 9.22103C9.0648 9.37306 8.79002 9.59339 8.57365 9.86579L5.17638 7.74191C5.30019 7.34231 5.30019 6.91459 5.17638 6.51499L8.57365 4.39111C8.91846 4.81808 9.40327 5.10922 9.94219 5.21297C10.4811 5.31671 11.0394 5.22636 11.518 4.95792C11.9967 4.68948 12.365 4.26028 12.5575 3.74635C12.75 3.23241 12.7544 2.66692 12.57 2.15004C12.3855 1.63316 12.024 1.19826 11.5496 0.922371C11.0751 0.646486 10.5184 0.547425 9.9779 0.642738C9.43742 0.73805 8.94812 1.02158 8.59668 1.44311C8.24524 1.86464 8.05433 2.39695 8.05778 2.94576C8.05998 3.15358 8.09127 3.36007 8.15073 3.55922L4.75346 5.6831C4.45353 5.30553 4.04358 5.03062 3.58042 4.89647C3.11727 4.76232 2.62385 4.77558 2.16856 4.9344C1.71327 5.09323 1.31867 5.38975 1.03945 5.78288C0.760235 6.17601 0.610229 6.64626 0.610229 7.12845C0.610229 7.61064 0.760235 8.0809 1.03945 8.47402C1.31867 8.86715 1.71327 9.16367 2.16856 9.3225C2.62385 9.48132 3.11727 9.49458 3.58042 9.36043C4.04358 9.22628 4.45353 8.95137 4.75346 8.5738L8.15073 10.6977C8.09127 10.8968 8.05998 11.1033 8.05778 11.3111C8.05778 11.7707 8.19407 12.22 8.4494 12.6021C8.70473 12.9843 9.06765 13.2821 9.49225 13.458C9.91686 13.6339 10.3841 13.6799 10.8348 13.5902C11.2856 13.5006 11.6996 13.2792 12.0246 12.9543C12.3496 12.6293 12.5709 12.2152 12.6606 11.7645C12.7502 11.3137 12.7042 10.8465 12.5283 10.4219C12.3525 9.99729 12.0546 9.63438 11.6725 9.37904C11.2904 9.12371 10.8411 8.98742 10.3815 8.98742ZM10.3815 1.55153C10.6573 1.55153 10.9268 1.6333 11.1561 1.7865C11.3854 1.9397 11.5641 2.15745 11.6696 2.41221C11.7751 2.66697 11.8027 2.9473 11.7489 3.21776C11.6951 3.48821 11.5624 3.73664 11.3674 3.93163C11.1724 4.12662 10.924 4.2594 10.6535 4.3132C10.383 4.367 10.1027 4.33939 9.84795 4.23386C9.59319 4.12833 9.37544 3.94963 9.22224 3.72035C9.06904 3.49107 8.98727 3.22151 8.98727 2.94576C8.98727 2.57599 9.13416 2.22136 9.39563 1.95989C9.6571 1.69842 10.0117 1.55153 10.3815 1.55153ZM2.94561 8.52268C2.66985 8.52268 2.40029 8.44091 2.17101 8.28771C1.94173 8.13451 1.76303 7.91676 1.6575 7.662C1.55198 7.40724 1.52437 7.1269 1.57817 6.85645C1.63196 6.586 1.76475 6.33757 1.95974 6.14258C2.15472 5.94759 2.40315 5.81481 2.67361 5.76101C2.94406 5.70721 3.22439 5.73482 3.47916 5.84035C3.73392 5.94588 3.95167 6.12458 4.10487 6.35386C4.25807 6.58314 4.33984 6.8527 4.33984 7.12845C4.33984 7.49822 4.19295 7.85285 3.93148 8.11432C3.67001 8.37579 3.31538 8.52268 2.94561 8.52268ZM10.3815 12.7054C10.1058 12.7054 9.83619 12.6236 9.60691 12.4704C9.37763 12.3172 9.19893 12.0995 9.0934 11.8447C8.98787 11.5899 8.96027 11.3096 9.01406 11.0391C9.06786 10.7687 9.20065 10.5203 9.39563 10.3253C9.59062 10.1303 9.83905 9.9975 10.1095 9.9437C10.38 9.8899 10.6603 9.91752 10.9151 10.023C11.1698 10.1286 11.3876 10.3073 11.5408 10.5366C11.694 10.7658 11.7757 11.0354 11.7757 11.3111C11.7757 11.6809 11.6288 12.0355 11.3674 12.297C11.1059 12.5585 10.7513 12.7054 10.3815 12.7054Z" fill="#2E6491"/>
</g>
<defs>
<clipPath id="clip0_10248_8760">
<rect width="14.8718" height="14.8718" fill="white" transform="translate(0.435913 0.436035)"/>
</clipPath>
</defs>
</svg>
