<svg width="12" height="11" viewBox="0 0 12 11" fill="none" xmlns="http://www.w3.org/2000/svg">
<path d="M5.28495 1.20071C5.51002 0.508018 6.48998 0.508019 6.71505 1.20071L7.4028 3.31736C7.50345 3.62714 7.79213 3.83688 8.11785 3.83688H10.3434C11.0718 3.83688 11.3746 4.76889 10.7854 5.19699L8.98483 6.50516C8.72131 6.69661 8.61105 7.03597 8.7117 7.34575L9.39944 9.46241C9.62451 10.1551 8.8317 10.7311 8.24246 10.303L6.44193 8.99484C6.17841 8.80339 5.82159 8.80339 5.55807 8.99484L3.75754 10.303C3.1683 10.7311 2.37549 10.1551 2.60056 9.46241L3.2883 7.34575C3.38895 7.03597 3.27869 6.69661 3.01517 6.50516L1.21464 5.19699C0.625401 4.76889 0.92823 3.83688 1.65657 3.83688H3.88215C4.20787 3.83688 4.49655 3.62714 4.5972 3.31736L5.28495 1.20071Z" fill="#F7F7F7"/>
</svg>
