<svg width="25" height="25" viewBox="0 0 25 25" fill="none" xmlns="http://www.w3.org/2000/svg">
<g clip-path="url(#clip0_9614_15062)">
<path d="M21.6872 17.1742L21.6247 17.2451V17.3396V21.7062V21.7063C21.6247 21.859 21.5857 22.0092 21.5113 22.1426C21.437 22.276 21.3297 22.3881 21.1998 22.4684C21.0699 22.5487 20.9217 22.5945 20.7691 22.6013C20.6165 22.6082 20.4648 22.576 20.3282 22.5077L20.3281 22.5076L18.8615 21.7743L18.7497 21.7184L18.6379 21.7743L17.1712 22.5076L17.1712 22.5077C17.0346 22.576 16.8828 22.6082 16.7303 22.6013C16.5777 22.5945 16.4294 22.5487 16.2995 22.4684C16.1696 22.3881 16.0624 22.276 15.988 22.1426C15.9137 22.0092 15.8747 21.859 15.8747 21.7063V21.7062V17.3396V17.2451L15.8122 17.1742C15.3135 16.6089 14.9886 15.9117 14.8764 15.1663C14.7642 14.4209 14.8695 13.659 15.1796 12.9719C15.4898 12.2849 15.9916 11.7019 16.6248 11.293C17.2581 10.8841 17.9959 10.6666 18.7497 10.6667C19.5035 10.6666 20.2413 10.8841 20.8745 11.293C21.5078 11.7019 22.0096 12.2849 22.3197 12.9719C22.6299 13.659 22.7351 14.4209 22.6229 15.1663C22.5107 15.9117 22.1858 16.6089 21.6872 17.1742ZM21.083 6.25V6H20.833H4.16634H3.91634V6.25V18.75V19H4.16634H12.4997C12.7096 19 12.911 19.0834 13.0595 19.2319C13.2079 19.3803 13.2913 19.5817 13.2913 19.7917C13.2913 20.0016 13.2079 20.203 13.0595 20.3515C12.911 20.4999 12.7096 20.5833 12.4997 20.5833H4.16634C3.68011 20.5833 3.2138 20.3902 2.86998 20.0464C2.52616 19.7025 2.33301 19.2362 2.33301 18.75V6.25C2.33301 5.76377 2.52616 5.29746 2.86998 4.95364C3.2138 4.60982 3.68011 4.41667 4.16634 4.41667H20.833C21.3192 4.41667 21.7856 4.60982 22.1294 4.95364C22.4732 5.29746 22.6663 5.76377 22.6663 6.25V8.33333C22.6663 8.5433 22.5829 8.74466 22.4345 8.89313C22.286 9.04159 22.0846 9.125 21.8747 9.125C21.6647 9.125 21.4633 9.04159 21.3149 8.89313C21.1664 8.74466 21.083 8.5433 21.083 8.33333V6.25ZM20.0413 18.6188V18.2962L19.729 18.3766C19.0866 18.5421 18.4128 18.5421 17.7704 18.3766L17.458 18.2962V18.6188V20.1896V20.5938L17.8197 20.4133L18.3957 20.1258L18.3958 20.1257C18.5057 20.0708 18.6268 20.0422 18.7497 20.0422C18.8725 20.0422 18.9937 20.0708 19.1036 20.1257L19.1037 20.1258L19.6797 20.4133L20.0413 20.5938V20.1896V18.6188ZM18.7497 12.25C18.1308 12.25 17.5373 12.4958 17.0998 12.9334C16.6622 13.371 16.4163 13.9645 16.4163 14.5833C16.4163 15.2022 16.6622 15.7957 17.0998 16.2332C17.5373 16.6708 18.1308 16.9167 18.7497 16.9167C19.3685 16.9167 19.962 16.6708 20.3996 16.2332C20.8372 15.7957 21.083 15.2022 21.083 14.5833C21.083 13.9645 20.8372 13.371 20.3996 12.9334C19.962 12.4958 19.3685 12.25 18.7497 12.25ZM9.3744 13.7917C9.57618 13.7919 9.77026 13.8692 9.91698 14.0077C10.0637 14.1462 10.152 14.3355 10.1638 14.5369C10.1757 14.7384 10.1101 14.9367 9.98061 15.0915C9.85256 15.2444 9.67153 15.3434 9.4738 15.3686L9.3672 15.375H7.29162C7.08984 15.3748 6.89576 15.2975 6.74904 15.159C6.60231 15.0205 6.51402 14.8312 6.50219 14.6297C6.49037 14.4283 6.5559 14.23 6.68541 14.0752C6.81346 13.9222 6.99449 13.8233 7.19222 13.798L7.29881 13.7917H9.3744ZM13.5413 9.625C13.7513 9.625 13.9527 9.70841 14.1011 9.85687C14.2496 10.0053 14.333 10.2067 14.333 10.4167C14.333 10.6266 14.2496 10.828 14.1011 10.9765C13.9527 11.1249 13.7513 11.2083 13.5413 11.2083H7.29134C7.08138 11.2083 6.88002 11.1249 6.73155 10.9765C6.58308 10.828 6.49967 10.6266 6.49967 10.4167C6.49967 10.2067 6.58308 10.0053 6.73155 9.85688C6.88002 9.70841 7.08138 9.625 7.29134 9.625H13.5413Z" fill="black" stroke="white" stroke-width="0.5"/>
</g>
<defs>
<clipPath id="clip0_9614_15062">
<rect width="25" height="25" fill="white"/>
</clipPath>
</defs>
</svg>
