<svg id="Layer_1" data-name="Layer 1" xmlns="http://www.w3.org/2000/svg" viewBox="0 0 27.38 25.33"><defs><style>.cls-1{fill:#14446c;}</style></defs><title>certificates-issued</title><path class="cls-1" d="M.8,3.5a3,3,0,0,1,.87-2.12A3,3,0,0,1,3.8.5h18a3,3,0,0,1,2.12.88A3,3,0,0,1,24.8,3.5V8.22a6.85,6.85,0,0,0-1.5-1V3.5a1.5,1.5,0,0,0-.44-1.06A1.52,1.52,0,0,0,21.8,2H3.8a1.5,1.5,0,0,0-1.06.44A1.46,1.46,0,0,0,2.3,3.5v12a1.46,1.46,0,0,0,.44,1.06A1.5,1.5,0,0,0,3.8,17h9.91c.12.17.95,1.5.95,1.5H3.8a3,3,0,0,1-2.13-.88A3,3,0,0,1,.8,15.5ZM5.3,5.75A.75.75,0,0,1,6.05,5h11.5a.77.77,0,0,1,.53.22.75.75,0,0,1,0,1.06.77.77,0,0,1-.53.22H6.05a.75.75,0,0,1-.75-.75Zm.75,6.75a.75.75,0,0,0,0,1.5h6a.77.77,0,0,0,.53-.22.75.75,0,0,0,0-1.06.77.77,0,0,0-.53-.22Z"/><path class="cls-1" d="M19.05,16.25H19a.7.7,0,0,1-.51-.3l-1.25-1.71a.75.75,0,0,1,1.21-.89l.79,1.09,3.14-2.52a.75.75,0,0,1,.93,1.18l-3.75,3A.76.76,0,0,1,19.05,16.25Z"/><path class="cls-1" d="M26.56,13.88A6.14,6.14,0,1,0,17,19v5a.77.77,0,0,0,1.27.58l2.35-2.05,2.52,2.09a.81.81,0,0,0,.49.17.78.78,0,0,0,.33-.07.77.77,0,0,0,.44-.69V18.52A6.14,6.14,0,0,0,26.56,13.88Zm-10.75,0a4.61,4.61,0,1,1,4.61,4.6A4.61,4.61,0,0,1,15.81,13.88Zm7.08,8.45-1.76-1.46a.76.76,0,0,0-1,0l-1.58,1.37V19.73a6.06,6.06,0,0,0,4.33-.24Z"/></svg>