<svg width="18" height="18" viewBox="0 0 18 18" fill="none" xmlns="http://www.w3.org/2000/svg">
<path d="M8.99984 15.6666C12.6665 15.6666 15.6665 12.6666 15.6665 8.99996C15.6665 5.33329 12.6665 2.33329 8.99984 2.33329C5.33317 2.33329 2.33317 5.33329 2.33317 8.99996C2.33317 12.6666 5.33317 15.6666 8.99984 15.6666ZM8.99984 0.666626C13.5832 0.666626 17.3332 4.41663 17.3332 8.99996C17.3332 13.5833 13.5832 17.3333 8.99984 17.3333C4.4165 17.3333 0.666504 13.5833 0.666504 8.99996C0.666504 4.41663 4.4165 0.666626 8.99984 0.666626ZM13.1665 10.5833L12.5832 11.6666L8.1665 9.24996V4.83329H9.4165V8.49996L13.1665 10.5833Z" fill="black"/>
</svg>
