<svg width="18" height="17" viewBox="0 0 18 17" fill="none" xmlns="http://www.w3.org/2000/svg">
<mask id="path-1-inside-1_8470_10150" fill="white">
<path d="M12.875 16.375L10.4688 13.75L11.4837 12.735L12.875 14.1263L16.0163 10.985L17.0312 12.2188M9.2 16.375H2.375C1.40375 16.375 0.625 15.5962 0.625 14.625V2.375C0.625 1.40375 1.40375 0.625 2.375 0.625H14.625C15.5962 0.625 16.375 1.40375 16.375 2.375V9.2C15.8413 8.89375 15.255 8.675 14.625 8.57V2.375H2.375V14.625H8.57C8.675 15.255 8.89375 15.8413 9.2 16.375ZM8.5 12.875H4.125V11.125H8.5M10.845 9.375H4.125V7.625H12.875V8.57C12.1313 8.6925 11.4488 8.9725 10.845 9.375ZM12.875 5.875H4.125V4.125H12.875"/>
</mask>
<path d="M12.875 16.375L10.4688 13.75L11.4837 12.735L12.875 14.1263L16.0163 10.985L17.0312 12.2188M9.2 16.375H2.375C1.40375 16.375 0.625 15.5962 0.625 14.625V2.375C0.625 1.40375 1.40375 0.625 2.375 0.625H14.625C15.5962 0.625 16.375 1.40375 16.375 2.375V9.2C15.8413 8.89375 15.255 8.675 14.625 8.57V2.375H2.375V14.625H8.57C8.675 15.255 8.89375 15.8413 9.2 16.375ZM8.5 12.875H4.125V11.125H8.5M10.845 9.375H4.125V7.625H12.875V8.57C12.1313 8.6925 11.4488 8.9725 10.845 9.375ZM12.875 5.875H4.125V4.125H12.875" fill="#1C5D95"/>
<path d="M10.4688 13.75L10.2 13.4813L9.94278 13.7386L10.1886 14.0068L10.4688 13.75ZM11.4837 12.735L11.7524 12.4663L11.4837 12.1976L11.215 12.4663L11.4837 12.735ZM12.875 14.1263L12.6063 14.395L12.875 14.6637L13.1437 14.395L12.875 14.1263ZM16.0163 10.985L16.3097 10.7436L16.0437 10.4202L15.7476 10.7163L16.0163 10.985ZM9.2 16.375V16.755H9.85614L9.5296 16.1859L9.2 16.375ZM16.375 9.2L16.1859 9.5296L16.755 9.85614V9.2H16.375ZM14.625 8.57H14.245V8.89191L14.5625 8.94483L14.625 8.57ZM14.625 2.375H15.005V1.995H14.625V2.375ZM2.375 2.375V1.995H1.995V2.375H2.375ZM2.375 14.625H1.995V15.005H2.375V14.625ZM8.57 14.625L8.94483 14.5625L8.89191 14.245H8.57V14.625ZM4.125 12.875H3.745V13.255H4.125V12.875ZM4.125 11.125V10.745H3.745V11.125H4.125ZM10.845 9.375V9.755H10.9601L11.0558 9.69118L10.845 9.375ZM4.125 9.375H3.745V9.755H4.125V9.375ZM4.125 7.625V7.245H3.745V7.625H4.125ZM12.875 7.625H13.255V7.245H12.875V7.625ZM12.875 8.57L12.9368 8.94495L13.255 8.89253V8.57H12.875ZM4.125 5.875H3.745V6.255H4.125V5.875ZM4.125 4.125V3.745H3.745V4.125H4.125ZM13.1551 16.1182L10.7489 13.4932L10.1886 14.0068L12.5949 16.6318L13.1551 16.1182ZM10.7375 14.0187L11.7524 13.0037L11.215 12.4663L10.2 13.4813L10.7375 14.0187ZM11.215 13.0037L12.6063 14.395L13.1437 13.8575L11.7524 12.4663L11.215 13.0037ZM13.1437 14.395L16.285 11.2537L15.7476 10.7163L12.6063 13.8575L13.1437 14.395ZM15.7228 11.2264L16.7378 12.4602L17.3247 11.9773L16.3097 10.7436L15.7228 11.2264ZM9.2 15.995H2.375V16.755H9.2V15.995ZM2.375 15.995C1.61362 15.995 1.005 15.3864 1.005 14.625H0.245C0.245 15.8061 1.19388 16.755 2.375 16.755V15.995ZM1.005 14.625V2.375H0.245V14.625H1.005ZM1.005 2.375C1.005 1.61362 1.61362 1.005 2.375 1.005V0.245C1.19388 0.245 0.245 1.19388 0.245 2.375H1.005ZM2.375 1.005H14.625V0.245H2.375V1.005ZM14.625 1.005C15.3864 1.005 15.995 1.61362 15.995 2.375H16.755C16.755 1.19388 15.8061 0.245 14.625 0.245V1.005ZM15.995 2.375V9.2H16.755V2.375H15.995ZM16.5641 8.8704C15.9936 8.54308 15.3648 8.30805 14.6875 8.19517L14.5625 8.94483C15.1452 9.04195 15.6889 9.24442 16.1859 9.5296L16.5641 8.8704ZM15.005 8.57V2.375H14.245V8.57H15.005ZM14.625 1.995H2.375V2.755H14.625V1.995ZM1.995 2.375V14.625H2.755V2.375H1.995ZM2.375 15.005H8.57V14.245H2.375V15.005ZM8.19517 14.6875C8.30805 15.3648 8.54308 15.9936 8.8704 16.5641L9.5296 16.1859C9.24442 15.6889 9.04195 15.1452 8.94483 14.5625L8.19517 14.6875ZM8.5 12.495H4.125V13.255H8.5V12.495ZM4.505 12.875V11.125H3.745V12.875H4.505ZM4.125 11.505H8.5V10.745H4.125V11.505ZM10.845 8.995H4.125V9.755H10.845V8.995ZM4.505 9.375V7.625H3.745V9.375H4.505ZM4.125 8.005H12.875V7.245H4.125V8.005ZM12.495 7.625V8.57H13.255V7.625H12.495ZM12.8132 8.19505C12.0137 8.32674 11.2808 8.62778 10.6342 9.05882L11.0558 9.69118C11.6167 9.31722 12.2488 9.05826 12.9368 8.94495L12.8132 8.19505ZM12.875 5.495H4.125V6.255H12.875V5.495ZM4.505 5.875V4.125H3.745V5.875H4.505ZM4.125 4.505H12.875V3.745H4.125V4.505Z" fill="white" mask="url(#path-1-inside-1_8470_10150)"/>
</svg>
