<svg width="15" height="20" viewBox="0 0 15 20" fill="none" xmlns="http://www.w3.org/2000/svg">
<g id="Competency" clip-path="url(#clip0_9862_8542)">
<path id="Vector" d="M14.2999 7.4C14.2999 6.2 13.9999 5.1 13.3999 4.1C12.7999 3.1 11.9999 2.2 11.0999 1.6C10.1999 0.999995 8.99995 0.599995 7.79995 0.499995C6.69995 0.399995 5.49995 0.699995 4.49995 1.2C3.39995 1.7 2.49995 2.4 1.89995 3.4C1.29995 4.4 0.799945 5.4 0.599945 6.6C0.399945 7.7 0.599945 8.89999 0.999945 9.89999C1.39995 11 2.09995 11.9 2.99995 12.7V18.7C2.99995 18.8 2.99995 18.9 3.09995 19C3.19995 19.1 3.19995 19.2 3.29995 19.2C3.39995 19.3 3.49995 19.3 3.59995 19.3C3.69995 19.3 3.79995 19.3 3.89995 19.2L7.39995 17.5L10.8999 19.2C10.9999 19.2 11.0999 19.3 11.1999 19.3C11.3999 19.3 11.4999 19.2 11.5999 19.1C11.6999 19 11.7999 18.8 11.7999 18.7V12.7C12.5999 12.1 13.1999 11.2 13.5999 10.3C14.0999 9.4 14.2999 8.4 14.2999 7.4ZM7.39995 11.8C8.29995 11.8 9.09995 11.5 9.79995 11.1C10.4999 10.6 11.0999 9.9 11.3999 9.1C11.6999 8.3 11.7999 7.4 11.5999 6.6C11.3999 5.7 10.9999 5 10.3999 4.4C9.79995 3.8 8.99994 3.4 8.19994 3.2C7.39994 2.9 6.49994 3 5.69994 3.3C4.89994 3.7 4.19995 4.2 3.69995 5C3.29995 5.7 2.99995 6.5 2.99995 7.4C2.99995 8.6 3.49995 9.7 4.29995 10.5C5.09995 11.3 6.19995 11.8 7.39995 11.8Z" fill="white" stroke="#808080" stroke-linecap="round" stroke-linejoin="round"/>
</g>
<defs>
<clipPath id="clip0_9862_8542">
<rect width="14.8" height="19.8" fill="white"/>
</clipPath>
</defs>
</svg>
