<svg width="16" height="20" viewBox="0 0 16 20" fill="none" xmlns="http://www.w3.org/2000/svg">
<g id="Courses" clip-path="url(#clip0_9862_8539)">
<path id="Vector" d="M0.5 17.5V2.3C0.5 1.8 0.7 1.4 1 1C1.4 0.6 1.8 0.5 2.3 0.5H13.7C14.2 0.5 14.6 0.7 15 1C15.4 1.3 15.5 1.8 15.5 2.3V17.5C15.5 18 15.3 18.4 15 18.8C14.6 19.2 14.2 19.3 13.7 19.3H2.3C1.8 19.3 1.4 19.1 1 18.8C0.7 18.4 0.5 18 0.5 17.5Z" fill="white" stroke="#808080" stroke-linecap="round" stroke-linejoin="round"/>
<path id="Vector_2" d="M11.7001 0.5V0.6V8.8L9.5001 7.4H9.4001L7.1001 8.8V0.6V0.5H11.7001Z" fill="white" stroke="#808080" stroke-linecap="round" stroke-linejoin="round"/>
</g>
<defs>
<clipPath id="clip0_9862_8539">
<rect width="16" height="19.8" fill="white"/>
</clipPath>
</defs>
</svg>
