<svg width="218" height="173" viewBox="0 0 218 173" fill="none" xmlns="http://www.w3.org/2000/svg">
<path d="M135.258 89.4281C159.456 82.7091 177.117 65.2398 187.713 51.8766C199.211 37.3189 204.998 24.1796 205.073 24.0303L206.125 24.4035C206.05 24.5529 200.188 37.7668 188.615 52.4738C177.944 66.0611 160.057 83.605 135.558 90.4733L135.258 89.4281Z" fill="#D7AC5C"/>
<path d="M204.472 19.1025C202.067 22.6113 201.466 26.568 202.443 30.1515C206.276 29.4796 209.883 27.2399 212.288 23.8058C214.693 20.3717 215.294 16.3403 214.317 12.7568C210.484 13.4287 206.877 15.6684 204.472 19.1025Z" fill="#D7AC5C"/>
<path d="M205.976 32.7661C201.767 34.0352 198.536 36.7974 196.882 40.0822C200.339 41.7993 204.698 42.2472 208.907 40.9781C213.115 39.709 216.347 36.9467 218 33.6619C214.543 31.9448 210.184 31.4969 205.976 32.7661Z" fill="#D7AC5C"/>
<path d="M203.119 45.0821C198.761 44.4103 194.552 45.4554 191.471 47.6951C193.725 50.6813 197.333 52.9209 201.767 53.5928C206.125 54.2647 210.334 53.2195 213.415 50.9799C211.161 47.9937 207.478 45.754 203.119 45.0821Z" fill="#D7AC5C"/>
<path d="M194.026 56.6529C189.667 55.9811 185.459 57.0262 182.378 59.2659C184.632 62.2521 188.239 64.4917 192.673 65.1636C197.032 65.8355 201.241 64.7904 204.322 62.5507C202.067 59.5645 198.385 57.3248 194.026 56.6529Z" fill="#D7AC5C"/>
<path d="M195.83 38.2145C195.83 34.4818 194.251 31.0477 191.771 28.6587C189.291 30.8237 187.713 34.1085 187.713 37.8413C187.713 41.574 189.291 45.0082 191.771 47.3971C194.251 45.2321 195.83 41.9473 195.83 38.2145Z" fill="#D7AC5C"/>
<path d="M186.285 50.2355C186.36 46.5027 184.782 42.9939 182.377 40.605C179.822 42.6953 178.244 45.9801 178.169 49.7129C178.094 53.4456 179.672 56.9544 182.077 59.3434C184.632 57.2531 186.285 53.9682 186.285 50.2355Z" fill="#D7AC5C"/>
<path d="M115.322 98.3578C91.1232 91.6388 73.4626 74.1695 62.8662 60.8063C51.368 46.2486 45.5814 33.1093 45.5062 32.96L44.4541 33.3332C44.5292 33.4825 50.3911 46.6965 61.9644 61.4035C72.6359 74.9907 90.5219 92.5347 115.021 99.4029L115.322 98.3578Z" fill="#D7AC5C"/>
<path d="M46.1071 28.0322C48.5119 31.541 49.1131 35.4977 48.1362 39.0811C44.3035 38.4093 40.6962 36.1696 38.2913 32.7355C35.8865 29.3013 35.2853 25.27 36.2622 21.6865C40.095 22.3584 43.7022 24.5981 46.1071 28.0322Z" fill="#D7AC5C"/>
<path d="M44.6032 41.6957C48.8117 42.9649 52.0432 45.7271 53.6965 49.0119C50.2396 50.729 45.8808 51.1769 41.6723 49.9078C37.4638 48.6387 34.2323 45.8764 32.579 42.5916C36.0359 40.8745 40.3947 40.4266 44.6032 41.6957Z" fill="#D7AC5C"/>
<path d="M47.4592 54.0118C51.818 53.3399 56.0264 54.3851 59.1077 56.6248C56.8531 59.611 53.2458 61.8506 48.8119 62.5225C44.4531 63.1944 40.2446 62.1492 37.1634 59.9096C39.4179 56.9234 43.1004 54.6837 47.4592 54.0118Z" fill="#D7AC5C"/>
<path d="M56.5534 65.5826C60.9122 64.9107 65.1207 65.9559 68.2019 68.1956C65.9473 71.1818 62.34 73.4214 57.9061 74.0933C53.5473 74.7652 49.3389 73.72 46.2577 71.4804C48.5122 68.4942 52.1946 66.2545 56.5534 65.5826Z" fill="#D7AC5C"/>
<path d="M54.7499 47.1442C54.7499 43.4115 56.3281 39.9773 58.8081 37.5884C61.2881 39.7534 62.8663 43.0382 62.8663 46.771C62.8663 50.5037 61.2881 53.9378 58.8081 56.3268C56.3281 54.1618 54.7499 50.877 54.7499 47.1442Z" fill="#D7AC5C"/>
<path d="M64.2944 59.1652C64.2193 55.4324 65.7975 51.9236 68.2023 49.5347C70.7574 51.625 72.3356 54.9098 72.4107 58.6426C72.4859 62.3753 70.9077 65.8841 68.5029 68.2731C65.9478 66.1827 64.2944 62.8979 64.2944 59.1652Z" fill="#D7AC5C"/>
<path d="M178.995 74.8272C177.342 74.006 175.538 73.9313 173.885 74.4539C174.261 76.0217 175.388 77.4401 176.966 78.2613C178.619 79.0825 180.423 79.1572 182.076 78.6346C181.701 77.0669 180.648 75.6484 178.995 74.8272Z" fill="#BDBAAC"/>
<path d="M105.639 121.598C105.639 121.598 120.744 28.8764 135.775 28.8764C149.527 28.8764 132.994 63.2177 134.647 70.6086C136.301 77.9994 149.678 47.9881 163.28 34.0276C176.882 20.0671 185.224 27.7566 177.333 44.7033C169.668 61.0527 142.012 80.2391 148.175 81.8815C154.337 83.5239 189.132 60.7541 194.318 69.1155C200.705 79.4179 147.198 97.6337 152.609 99.6494C157.944 101.665 183.496 92.0346 183.496 100.247C183.496 108.459 148.25 110.474 149.152 114.058C150.655 119.806 183.12 107.712 184.848 115.7C186.652 123.838 144.492 121.822 145.619 128.242C146.221 131.9 186.352 127.272 187.779 132.274C191.086 143.771 100.604 149.892 100.604 149.892L105.639 121.598Z" fill="#BDBAAC"/>
<path d="M71.7315 132.479C71.7315 132.479 36.2204 115.04 32.9511 117.92C29.6818 120.8 1.15433 115.413 0.673064 122.575C0.0918974 131.386 40.1992 128.356 37.6415 131.278C35.0113 134.22 14.7341 134.906 17.325 140.476C19.9885 146.027 42.1353 137.269 42.69 139.904C43.6192 144.217 19.9782 145.412 21.4802 151.272C23.0212 157.277 48.0964 143.797 49.4132 148.393C50.2051 151.042 33.8967 155.772 34.6173 159.599C36.3305 168.262 89.5033 151.937 89.5033 151.937L71.7315 132.479Z" fill="#C2E3DD"/>
<path d="M105.35 160.147C105.35 160.147 76.8675 93.4804 73.4105 78.3255C69.9536 63.1705 83.9318 72.7263 83.9318 72.7263C83.9318 72.7263 67.9245 42.5657 74.0869 34.5776C80.2493 26.5895 89.1924 34.5029 89.1924 34.5029C89.1924 34.5029 89.4178 1.2068 96.8578 0.0869749C110.686 -2.00337 112.715 34.279 112.715 34.279C112.715 34.279 114.518 18.6014 122.409 21.6623C134.283 26.2909 121.808 59.0645 121.808 59.0645C121.808 59.0645 136.012 56.9741 141.874 63.4691C152.169 75.1153 105.35 160.147 105.35 160.147Z" fill="#C2E3DD"/>
<path d="M114.444 154.847C114.444 154.847 59.6584 145.739 47.7845 136.109C35.9106 126.478 47.6342 122.148 47.6342 122.148C47.6342 122.148 20.1288 108.113 20.4294 98.6319C20.73 89.0761 34.4075 93.9286 34.4075 93.9286C34.4075 93.9286 11.2609 67.6501 16.7469 62.7228C26.9675 53.4656 53.7966 80.7147 53.7966 80.7147C53.7966 80.7147 45.8306 67.7247 54.1724 65.709C66.7978 62.6482 76.1166 94.6005 76.1166 94.6005C76.1166 94.6005 73.7118 81.9838 82.4293 83.6262C98.136 86.6124 114.444 154.847 114.444 154.847Z" fill="#DFDCCF"/>
<path d="M112.204 163.13C140.675 163.13 163.755 140.19 163.755 111.892C163.755 83.5935 140.675 60.6533 112.204 60.6533C83.7335 60.6533 60.6533 83.5935 60.6533 111.892C60.6533 140.19 83.7335 163.13 112.204 163.13Z" fill="#F1E2C6"/>
<path d="M75.5967 94.4492C76.0454 93.2309 76.7531 92.1842 78.1338 91.9783C79.1003 91.8239 80.1186 91.8582 81.1024 91.9097C81.6202 91.9268 81.8791 92.3558 81.8618 92.8706C81.8446 93.4197 81.4994 93.7457 80.9643 93.78C80.343 93.8315 79.7217 93.7972 79.0831 93.7972C78.0648 93.8143 77.547 94.2948 77.547 95.29C77.547 100.472 77.547 105.671 77.547 110.853C77.547 111.849 78.0648 112.346 79.0658 112.346C81.6375 112.346 84.1918 112.363 86.7635 112.346C87.5919 112.346 88.3168 112.569 88.99 113.067C90.8194 114.405 92.6662 115.709 94.6338 117.116C94.6338 116.43 94.6338 115.847 94.6338 115.263C94.6338 113.359 95.6348 112.38 97.5506 112.363C98.0511 112.363 98.5516 112.38 99.0349 112.363C99.8116 112.329 100.312 111.849 100.347 111.059C100.364 110.527 100.364 109.995 100.364 109.446C100.364 104.882 100.364 100.318 100.364 95.7362C100.364 94.1232 100.019 93.7972 98.3791 93.7972C94.2368 93.7972 90.0946 93.7972 85.9523 93.7972C85.7452 93.7972 85.5208 93.8143 85.3137 93.7629C84.7787 93.6427 84.468 93.3167 84.5025 92.7676C84.537 92.2185 84.865 91.8925 85.4173 91.8754C86.401 91.8582 87.4021 91.8925 88.3859 91.841C88.6793 91.8239 89.0245 91.7038 89.2143 91.4979C94.1332 86.7448 99.9842 83.8621 106.784 82.9183C108.303 82.7124 109.822 82.6609 111.444 82.5408C111.444 82.3521 111.444 82.129 111.444 81.9059C111.444 79.5037 112.739 78.2339 115.172 78.2339C120.523 78.2339 125.873 78.2339 131.224 78.2339C132.38 78.2339 133.554 78.2339 134.71 78.2339C136.729 78.251 138.11 79.6238 138.127 81.6485C138.127 86.8649 138.179 92.0813 138.093 97.2805C138.076 98.2585 138.335 99.0307 138.714 99.8715C143.599 110.544 142.891 120.823 136.505 130.706C136.384 130.895 136.229 131.187 136.039 131.221C135.677 131.307 135.211 131.358 134.9 131.204C134.486 130.998 134.382 130.535 134.606 130.089C134.762 129.797 134.952 129.54 135.124 129.282C140.889 120.085 141.493 110.562 136.954 100.729C136.867 100.558 136.781 100.386 136.747 100.335C135.694 100.506 134.727 100.661 133.778 100.798C134.123 101.742 134.589 102.72 134.831 103.749C135.573 106.907 134.917 109.841 133.07 112.483C132.725 112.981 132.57 113.444 132.587 114.062C132.639 116.55 132.604 119.038 132.604 121.526C132.604 124.1 132.604 126.674 132.604 129.248C132.604 131.753 131.31 133.04 128.773 133.04C126.322 133.04 123.854 133.04 121.403 133.04C121.11 133.04 120.799 133.126 120.281 133.212C121.817 135.168 123.25 136.969 124.665 138.771C127.116 137.45 129.291 135.837 131.241 133.932C131.448 133.726 131.655 133.503 131.879 133.297C132.328 132.92 132.915 132.937 133.278 133.332C133.657 133.744 133.657 134.275 133.191 134.704C132.018 135.785 130.878 136.901 129.619 137.862C124.82 141.499 119.401 143.559 113.36 144.039C113.188 144.056 113.032 144.108 112.86 144.142C111.565 144.142 110.271 144.142 108.976 144.142C108.804 144.108 108.648 144.056 108.476 144.039C107.043 143.833 105.611 143.696 104.195 143.387C92.0449 140.727 82.6212 130.929 80.4983 118.678C80.2567 117.254 80.1359 115.795 79.9633 114.319C79.3937 114.285 78.8069 114.337 78.2374 114.234C76.8221 113.959 76.0627 112.981 75.5967 111.694C75.5967 105.946 75.5967 100.198 75.5967 94.4492ZM122.887 139.612C121.524 137.879 120.178 136.18 118.814 134.464C117.399 135.477 115.984 136.489 114.568 137.501C113.947 137.947 113.291 138.102 112.566 137.724C111.876 137.364 111.634 136.764 111.634 136.009C111.634 135.254 111.634 134.516 111.634 133.761C111.634 133.263 111.427 133.006 110.892 133.006C110.461 133.023 110.029 133.006 109.598 133.006C107.199 132.989 105.887 131.667 105.887 129.282C105.887 125.25 105.887 121.217 105.887 117.185C105.887 116.962 105.887 116.739 105.887 116.396C104.782 117.065 104.178 117.957 103.816 119.038C103.626 119.587 103.488 120.154 103.281 120.685C103.074 121.217 102.556 121.44 102.073 121.303C101.589 121.149 101.33 120.685 101.468 120.119C101.589 119.604 101.779 119.09 101.934 118.592C102.521 116.687 103.712 115.298 105.507 114.388C105.68 114.302 105.87 114.028 105.887 113.839C106.077 111.746 107.371 110.544 109.511 110.544C112.808 110.544 116.104 110.544 119.418 110.544C119.643 110.544 119.867 110.544 120.109 110.544C120.212 109.103 120.782 107.988 121.748 107.044C122.059 106.752 122.318 106.409 122.577 106.066C123.319 105.019 123.785 103.87 123.871 102.497C123.647 102.634 123.509 102.72 123.371 102.806C122.232 103.612 121.11 104.436 119.953 105.242C119.366 105.654 118.711 105.74 118.055 105.38C117.433 105.036 117.14 104.487 117.14 103.801C117.14 103.286 117.14 102.771 117.14 102.257C117.14 100.644 117.14 100.661 115.483 100.661C115.034 100.661 114.844 100.764 114.793 101.244C114.102 106.272 109.011 109.395 104.161 107.748C103.54 107.542 102.936 107.267 102.262 106.993C102.262 108.434 102.297 109.807 102.262 111.162C102.211 112.895 100.83 114.234 99.1039 114.268C98.5862 114.285 98.0684 114.268 97.5506 114.268C96.7049 114.268 96.5668 114.422 96.5668 115.229C96.5668 115.864 96.5496 116.516 96.5668 117.151C96.6013 117.94 96.377 118.609 95.6348 118.987C94.8754 119.381 94.185 119.175 93.5292 118.695C91.855 117.477 90.1463 116.31 88.5067 115.074C87.73 114.474 86.9533 114.199 85.9523 114.251C84.6406 114.319 83.3289 114.268 82.0344 114.268C81.7238 116.79 83.4324 123.757 84.7787 125.559C85.1411 125.284 85.4863 124.975 85.866 124.769C86.7635 124.272 87.6437 123.688 88.6102 123.362C90.3017 122.779 91.9068 123.191 92.9596 124.615C94.2713 126.399 97.5851 126.691 99.3801 124.581C99.5699 124.358 99.7253 124.031 99.9669 123.911C100.26 123.757 100.675 123.654 100.968 123.757C101.227 123.843 101.468 124.22 101.538 124.512C101.589 124.735 101.434 125.061 101.296 125.267C98.6379 129.008 93.5464 128.596 91.5443 125.885C90.8885 124.992 90.0255 124.838 88.9382 125.25C87.6955 125.713 86.6772 126.537 85.6762 127.36C93.1495 140.916 109.908 145.652 122.887 139.612ZM119.09 103.492C121.041 102.102 122.87 100.815 124.665 99.4768C125.373 98.9449 126.132 98.7218 127.012 98.7218C129.498 98.739 131.966 98.739 134.451 98.7218C135.746 98.7218 136.177 98.2929 136.177 97.0402C136.177 91.9783 136.177 86.9164 136.177 81.8545C136.177 80.6018 135.728 80.1557 134.468 80.1557C128.013 80.1557 121.576 80.1557 115.121 80.1557C113.809 80.1557 113.377 80.5847 113.377 81.8888C113.377 83.9822 113.377 86.0927 113.377 88.1862C113.377 89.7476 113.153 90.2109 112.411 90.2281C111.634 90.2452 111.427 89.7991 111.427 88.169C111.427 87.1395 111.427 86.1099 111.427 85.0804C111.427 84.9259 111.393 84.7543 111.375 84.5999C108.976 84.3082 102.901 85.3206 101.33 86.23C101.831 87.1738 102.418 88.0832 102.797 89.0784C103.66 91.3091 103.781 93.5398 102.418 95.6847C102.314 95.8391 102.297 96.045 102.297 96.2338C102.297 98.8763 102.28 101.502 102.297 104.144C102.297 104.35 102.4 104.625 102.556 104.745C104.006 105.843 105.628 106.426 107.44 106.203C110.409 105.86 112.463 103.784 112.911 100.798C112.98 100.369 112.894 100.112 112.549 99.82C111.79 99.2023 111.427 98.3615 111.427 97.3834C111.427 96.2681 111.427 95.1527 111.427 94.0374C111.427 93.2481 111.755 92.8363 112.359 92.8363C112.98 92.8191 113.36 93.2652 113.36 94.0546C113.36 95.1013 113.36 96.148 113.36 97.2118C113.36 98.2242 113.843 98.6875 114.879 98.7218C115.431 98.739 116.001 98.7047 116.553 98.739C118.089 98.8248 119.056 99.8372 119.073 101.364C119.108 102.034 119.09 102.686 119.09 103.492ZM113.602 135.785C113.895 135.597 114.068 135.477 114.24 135.356C115.811 134.224 117.416 133.126 118.952 131.959C119.781 131.324 120.661 131.05 121.696 131.067C124.113 131.118 126.529 131.084 128.945 131.084C130.223 131.084 130.689 130.603 130.706 129.334C130.706 126.262 130.706 123.208 130.706 120.136C130.706 118.129 130.706 116.104 130.706 114.096C130.706 113.067 130.205 112.501 129.256 112.501C122.611 112.483 115.966 112.483 109.321 112.501C108.407 112.501 107.872 113.033 107.854 113.942C107.837 119.175 107.837 124.409 107.854 129.643C107.854 130.535 108.372 131.032 109.252 131.084C109.753 131.118 110.236 131.101 110.737 131.101C112.601 131.101 113.567 132.062 113.567 133.915C113.602 134.481 113.602 135.082 113.602 135.785ZM131.5 111.351C133.726 108.348 133.761 104.11 131.638 101.227C131.448 100.987 131.12 100.695 130.861 100.678C129.48 100.626 128.1 100.644 126.719 100.661C126.201 100.661 125.96 100.884 125.942 101.45C125.908 104.247 124.976 106.684 122.922 108.657C122.404 109.155 122.128 109.755 122.093 110.544C122.352 110.544 122.577 110.544 122.818 110.544C124.734 110.544 126.65 110.562 128.566 110.544C129.619 110.527 130.62 110.63 131.5 111.351ZM101.468 92.9392C101.538 90.5026 100.778 88.6151 99.242 87.0022C96.4978 88.2376 94.0297 89.7648 91.7169 91.8582C94.0469 91.8582 96.1871 91.8754 98.31 91.841C99.4319 91.841 100.502 91.9612 101.468 92.9392Z" fill="#918F8F"/>
<path d="M94.3933 108.383C94.5486 108.777 94.4278 109.241 94.1171 109.532C94.0136 109.618 93.91 109.704 93.8065 109.755C93.3405 109.961 92.8917 109.738 92.6846 109.275C92.4257 108.692 92.2013 108.091 91.977 107.473C91.8216 107.027 91.6145 106.89 90.9241 107.01C89.6124 107.233 88.2662 107.216 86.9545 107.01C86.3159 106.907 86.0743 106.993 85.9362 107.439C85.7463 108.005 85.522 108.571 85.2976 109.121C85.056 109.721 84.5382 109.961 84.0031 109.755C83.4854 109.567 83.261 109.035 83.4854 108.417C84.9006 104.676 86.3332 100.936 87.7484 97.1778C87.9555 96.6458 88.3352 96.337 88.9048 96.3198C89.5089 96.3198 89.9058 96.6458 90.113 97.1949C91.5455 100.936 92.978 104.659 94.3933 108.383ZM89.0084 99.7345C88.9566 99.7345 88.9048 99.7345 88.853 99.7345C88.1972 101.485 87.5241 103.218 86.8682 104.985C88.2835 104.985 89.6297 104.985 91.0277 104.985C90.3373 103.201 89.6815 101.468 89.0084 99.7345Z" fill="#918F8F"/>
<path d="M119.692 120.875C120.986 120.875 122.212 120.875 123.454 120.875C123.454 119.879 123.454 118.919 123.454 117.872C123.058 117.872 122.643 117.889 122.246 117.872C121.642 117.838 121.245 117.46 121.228 116.928C121.228 116.379 121.608 115.967 122.212 115.95C123.696 115.933 125.18 115.933 126.682 115.95C127.286 115.95 127.666 116.379 127.666 116.928C127.649 117.477 127.269 117.838 126.647 117.872C126.268 117.889 125.888 117.872 125.422 117.872C125.422 118.146 125.422 118.387 125.422 118.61C125.422 121.166 125.422 123.706 125.422 126.263C125.422 126.417 125.422 126.571 125.422 126.709C125.388 127.361 125.008 127.773 124.456 127.773C123.903 127.773 123.489 127.361 123.489 126.709C123.472 125.662 123.489 124.615 123.489 123.551C123.489 123.346 123.489 123.123 123.489 122.865C122.212 122.865 120.986 122.865 119.916 122.865C119.916 123.586 120.003 124.272 119.899 124.924C119.64 126.434 118.691 127.447 117.189 127.653C115.066 127.961 113.064 127.584 111.39 126.125C111.338 126.091 111.287 126.04 111.252 125.988C110.821 125.559 110.786 125.01 111.131 124.598C111.494 124.186 112.063 124.118 112.512 124.547C113.634 125.593 115.015 125.834 116.464 125.816C117.362 125.816 118.018 125.182 118.052 124.358C118.087 123.517 117.431 122.848 116.499 122.814C115.653 122.779 114.825 122.814 113.979 122.796C113.772 122.796 113.548 122.796 113.341 122.762C112.771 122.676 112.426 122.299 112.478 121.75C112.529 121.201 112.857 120.892 113.41 120.875C114.531 120.84 115.653 120.875 116.775 120.806C117.535 120.755 118.07 120.103 118.07 119.365C118.087 118.627 117.5 117.958 116.741 117.855C116.568 117.838 116.395 117.838 116.223 117.838C115.446 117.838 114.669 117.838 113.893 117.838C113.185 117.82 112.771 117.443 112.771 116.859C112.771 116.276 113.202 115.916 113.91 115.916C114.756 115.899 115.584 115.899 116.43 115.916C118.915 115.933 120.503 118.061 119.813 120.446C119.761 120.583 119.726 120.686 119.692 120.875Z" fill="#918F8F"/>
<path d="M132.551 86.8987C132.361 86.3496 132.12 85.8692 131.792 85.4917C131.464 85.097 131.084 84.8053 130.653 84.5994C130.221 84.3935 129.755 84.2905 129.272 84.2905C128.892 84.2905 128.53 84.342 128.219 84.4621C127.908 84.5651 127.632 84.7367 127.408 84.9426C127.183 85.1485 127.011 85.3887 126.89 85.6633C126.769 85.9378 126.717 86.2295 126.717 86.5555C126.717 86.6756 126.735 86.8129 126.769 86.9502C126.804 87.1046 126.855 87.259 126.907 87.4135C126.976 87.5679 127.063 87.7223 127.166 87.8939C127.166 87.8939 127.183 87.9111 127.166 87.9283C127.149 87.9454 127.149 87.9454 127.132 87.9454H125.216C124.767 87.9454 124.422 88.3058 124.422 88.7347C124.422 89.1809 124.784 89.524 125.216 89.524H129.721C129.997 89.524 130.204 89.301 130.204 89.0436V88.4259C130.204 88.1513 129.979 87.9454 129.721 87.9454H129.496C129.393 87.9111 129.272 87.8596 129.134 87.7738C128.996 87.688 128.858 87.5679 128.754 87.4478C128.633 87.3277 128.547 87.1733 128.461 87.036C128.392 86.8987 128.357 86.7614 128.357 86.6242C128.357 86.3668 128.426 86.1952 128.581 86.0751C128.754 85.955 128.961 85.8863 129.255 85.8863C129.565 85.8863 129.824 85.955 130.066 86.0922C130.307 86.2467 130.514 86.4354 130.67 86.6928C130.842 86.9502 130.963 87.2419 131.067 87.5851C131.153 87.9283 131.205 88.2714 131.205 88.6318C131.205 89.4039 131.049 90.1246 130.756 90.7767C130.445 91.4287 130.014 91.995 129.462 92.4754C128.909 92.9559 128.236 93.3334 127.46 93.5908C126.683 93.8653 125.803 94.0026 124.853 94.0026C124.025 94.0026 123.231 93.8825 122.489 93.6594C121.747 93.4363 121.091 93.0931 120.539 92.6642C119.986 92.2352 119.555 91.7033 119.227 91.0855C118.916 90.4678 118.744 89.7643 118.744 88.975C118.744 88.8034 118.744 88.6489 118.744 88.5117C118.744 88.3744 118.761 88.2371 118.778 88.0998C118.778 88.0655 118.795 88.0312 118.795 87.9969C118.813 88.0484 118.847 88.117 118.864 88.1685C119.002 88.4602 119.192 88.7176 119.417 88.9235C119.641 89.1294 119.883 89.301 120.176 89.4039C120.452 89.524 120.763 89.5755 121.108 89.5755C121.54 89.5755 121.919 89.4897 122.247 89.3353C122.575 89.1809 122.851 88.975 123.076 88.7347C123.3 88.4945 123.473 88.2028 123.576 87.8939C123.697 87.5851 123.749 87.2762 123.749 86.9673C123.749 86.6242 123.697 86.2981 123.576 85.9721C123.455 85.6461 123.283 85.3544 123.041 85.1142C122.8 84.8568 122.506 84.668 122.178 84.5136C121.833 84.3592 121.436 84.2905 121.005 84.2905C120.366 84.2905 119.779 84.445 119.296 84.7195C118.813 85.0112 118.416 85.3715 118.088 85.8348C117.76 86.281 117.518 86.7958 117.363 87.362C117.207 87.9283 117.121 88.4945 117.121 89.0436C117.121 89.7814 117.225 90.4678 117.415 91.0855C117.604 91.7033 117.881 92.2523 118.226 92.75C118.571 93.2476 118.985 93.6765 119.468 94.0369C119.952 94.3972 120.469 94.7061 121.039 94.9463C121.609 95.1865 122.213 95.3753 122.869 95.4782C123.507 95.5984 124.163 95.6498 124.853 95.6498C126.131 95.6498 127.287 95.4611 128.271 95.1008C129.255 94.7233 130.1 94.2256 130.773 93.5908C131.446 92.9559 131.964 92.218 132.309 91.3772C132.655 90.5536 132.827 89.6613 132.827 88.7347C132.827 88.0655 132.741 87.4306 132.551 86.8987ZM120.038 86.3153C120.038 86.2638 120.055 86.2295 120.055 86.178C120.055 86.1609 120.055 86.1609 120.073 86.1609C120.193 86.0579 120.331 85.9893 120.47 85.9378C120.642 85.8692 120.815 85.852 121.005 85.852C121.16 85.852 121.315 85.8692 121.453 85.9206C121.591 85.9721 121.712 86.0408 121.816 86.1265C121.919 86.2123 121.988 86.3153 122.057 86.4526C122.109 86.5898 122.144 86.7443 122.144 86.9159C122.144 87.0875 122.109 87.2247 122.057 87.362C122.006 87.4821 121.937 87.6022 121.833 87.688C121.729 87.7738 121.626 87.8425 121.505 87.8939C121.263 87.9969 120.987 87.9969 120.728 87.8939C120.608 87.8425 120.504 87.7567 120.4 87.6537C120.297 87.5336 120.211 87.3963 120.142 87.2076C120.073 87.0188 120.038 86.7958 120.038 86.5212C120.038 86.4697 120.038 86.4011 120.038 86.3153Z" fill="#918F8F"/>
<path d="M145.59 94.7988C145.59 94.7988 143.704 92.9181 145.082 88.4132C145.082 88.4132 142.752 87.9955 142.325 91.1671L140.376 90.2939C140.376 90.2939 137.427 92.4603 139.331 95.4808C139.331 95.4808 140.047 96.7646 142.374 96.8495L144.941 98.5604L146.645 95.2213L145.59 94.7988Z" fill="#B18A67"/>
<path d="M162.853 71.4526C162.853 71.4526 160.026 71.6111 159.749 74.7535C159.471 77.8959 162.909 81.1381 159.825 84.7471C156.861 88.2129 164.331 93.1457 168.027 89.1873C171.72 85.2289 173.918 84.5301 173.918 84.5301L167.949 77.3989L162.855 71.4548L162.853 71.4526Z" fill="#52453F"/>
<path d="M161.508 74.653C161.235 77.0199 161.415 80.6207 164.444 82.6549C164.444 82.6549 169.032 83.4394 170.855 80.4432C172.678 77.4469 170.775 71.7422 170.775 71.7422C170.775 71.7422 168.43 69.0809 164.127 71.0476C162.692 71.704 161.693 73.0683 161.508 74.653Z" fill="#B18A67"/>
<path d="M164.827 82.4273L165.096 86.1363L170.509 84.8499L169.74 79.3594L164.827 82.4273Z" fill="#B18A67"/>
<path d="M164.259 160.682C164.259 160.682 157.562 165.831 159.444 166.251C162.293 166.887 166.71 163.48 167.004 162.652C167.328 161.738 166.801 160.924 166.801 160.924L164.268 160.682H164.259Z" fill="#513433"/>
<path d="M162.641 141.82L164.22 160.65C164.22 160.65 160.636 163.177 161.575 163.999C162.179 164.53 165.333 161.961 166.04 161.301C166.121 161.224 166.17 161.12 166.172 161.007L167.1 140.352L162.643 141.82H162.641Z" fill="#B18A67"/>
<path d="M169.101 160.682C169.101 160.682 162.345 166.677 163.932 167.292C166.69 168.359 170.166 164.004 170.419 163.02C170.697 161.935 170.244 160.969 170.244 160.969L169.103 160.682H169.101Z" fill="#513433"/>
<path d="M172.78 141.398L170.71 162.126C170.668 162.379 170.537 162.608 170.339 162.772C169.364 163.577 167.193 165.762 166.078 165.065C165.315 164.588 168.626 162.021 168.626 162.021L168.423 139.222L172.782 141.398H172.78Z" fill="#B18A67"/>
<path d="M160.971 110.156C160.971 110.156 158.952 124.958 158.009 143.74H177.327C177.327 143.74 175.297 113.5 174.278 109.855L160.969 110.156H160.971Z" fill="#74BEB1"/>
<path d="M177.327 88.4733L174.5 110.985L161.245 110.348L160.521 97.1179L160.644 95.6354L156.67 101.08C155.079 102.608 144.372 97.6034 144.372 97.6034L146.14 94.127L146.16 94.1335L154.16 96.7683C154.16 96.7683 158.472 89.0883 159.316 87.8734C159.33 87.8561 159.345 87.8346 159.36 87.8173C159.385 87.7849 159.411 87.7526 159.444 87.7223C160.594 86.4751 165.566 84.3258 165.566 84.3258C165.642 85.3724 170.152 83.877 170.152 83.877L177.327 88.4711V88.4733Z" fill="#74BEB1"/>
<path d="M160.284 105.234C160.449 105.128 167.136 100.819 167.136 100.819L178.464 115.393L171.169 120.021L160.282 105.236L160.284 105.234Z" fill="#52453F"/>
<path d="M160.079 96.1085L156.243 101.66C154.708 103.183 144.372 98.1934 144.372 98.1934L146.098 94.7336L153.82 97.3607C153.82 97.3607 157.982 89.7032 158.797 88.4918C158.81 88.4746 158.825 88.4531 158.84 88.4359L158.937 88.395C159.124 88.9394 160.867 91.8591 160.077 96.1085H160.079Z" fill="#74BEB1"/>
<path d="M176.975 88.4098C176.975 88.4098 179.415 92.2824 178.048 105.325L171.267 112.114L169.373 108.478L174.631 101.422L173.264 92.9219C173.264 92.9219 171.75 88.1177 176.975 88.4076V88.4098Z" fill="#74BEB1"/>
<path d="M170.089 108.726L168.395 109.557C168.395 109.557 164.334 109.955 164.877 111.517C165.417 113.078 167.235 114.373 167.235 114.373C167.235 114.373 170.252 114.406 171.645 111.418L170.089 108.728V108.726Z" fill="#B18A67"/>
<path d="M161.437 72.1928C161.437 72.1928 160.818 76.3997 166.604 77.9018C166.604 77.9018 169.438 77.6315 168.194 81.9264C167.259 85.1611 176.954 85.5739 174.66 91.7836C174.66 91.7836 179.911 88.5006 179.585 84.9914C179.189 80.7217 175.43 81.8007 174.034 79.3222C172.637 76.8438 174.187 72.4861 170.266 70.389C163.721 66.8881 161.442 72.1928 161.442 72.1928H161.437Z" fill="#52453F"/>
</svg>
