<svg width="2" height="11" viewBox="0 0 2 11" fill="none" xmlns="http://www.w3.org/2000/svg">
<path d="M1.645 10.7059C1.47756 10.826 1.24638 10.8975 1 10.9C0.753625 10.8975 0.522445 10.826 0.355003 10.7059C0.188059 10.5861 0.10306 10.4324 0.1 10.2816L0.1 3.58696C0.1 3.43596 0.18353 3.28121 0.351185 3.16094C0.519278 3.04035 0.752464 2.96957 1 2.96957C1.24754 2.96957 1.48072 3.04035 1.64882 3.16094C1.81647 3.28121 1.9 3.43596 1.9 3.58696V10.2816C1.89694 10.4324 1.81194 10.5861 1.645 10.7059ZM1.645 1.61893C1.47756 1.73905 1.24638 1.81055 1 1.81304C0.753625 1.81055 0.522445 1.73905 0.355003 1.61893C0.18806 1.49917 0.10306 1.34548 0.1 1.19469L0.1 0.717391C0.1 0.566392 0.18353 0.411647 0.351185 0.291373C0.519278 0.170784 0.752463 0.1 1 0.1C1.24754 0.1 1.48072 0.170784 1.64882 0.291373C1.81647 0.411647 1.9 0.566392 1.9 0.717391V1.19469C1.89694 1.34548 1.81194 1.49917 1.645 1.61893Z" fill="#1C5D95" stroke="#F7F7F7" stroke-width="0.2"/>
</svg>
