<svg width="16" height="16" viewBox="0 0 16 16" fill="none" xmlns="http://www.w3.org/2000/svg">
<path d="M7.70968 11.2768L7.70849 11.2764C7.6316 11.2491 7.55421 11.2007 7.47678 11.1232L3.87678 7.52322C3.74491 7.39136 3.675 7.2238 3.675 7C3.675 6.7762 3.74491 6.60864 3.87678 6.47678C4.00929 6.34427 4.18312 6.26897 4.41917 6.2619C4.65192 6.25559 4.81989 6.32345 4.94822 6.45178L6.82322 8.32678L7.25 8.75355V8.15V1C7.25 0.779758 7.32189 0.606669 7.46478 0.463777C7.60682 0.321731 7.77949 0.25 8 0.25C8.22034 0.25 8.39343 0.321637 8.53619 0.463747C8.67834 0.606524 8.75 0.779625 8.75 1V8.15V8.75355L9.17678 8.32678L11.0518 6.45178C11.1801 6.32345 11.3481 6.25559 11.5808 6.2619C11.8169 6.26897 11.9907 6.34427 12.1232 6.47678C12.2551 6.60865 12.325 6.7762 12.325 7C12.325 7.2238 12.2551 7.39135 12.1232 7.52322L8.52322 11.1232C8.44579 11.2007 8.3684 11.2491 8.29151 11.2763L8.29032 11.2768C8.2028 11.3083 8.10665 11.325 8 11.325C7.89335 11.325 7.79721 11.3083 7.70968 11.2768ZM15.75 14C15.75 14.4832 15.581 14.8908 15.2362 15.2362C14.8908 15.581 14.4832 15.75 14 15.75H2C1.51677 15.75 1.10955 15.581 0.764777 15.2362C0.419241 14.8907 0.25 14.4831 0.25 14V12C0.25 11.7797 0.321637 11.6066 0.463747 11.4638C0.606524 11.3217 0.779625 11.25 1 11.25C1.22037 11.25 1.39347 11.3217 1.53625 11.4638C1.67836 11.6066 1.75 11.7797 1.75 12V14V14.25H2H14H14.25V14V12C14.25 11.7798 14.3219 11.6067 14.4648 11.4638C14.6068 11.3217 14.7795 11.25 15 11.25C15.2205 11.25 15.3932 11.3217 15.5352 11.4638C15.6781 11.6067 15.75 11.7798 15.75 12V14Z" fill="#1C5D95" stroke="white" stroke-width="0.5"/>
</svg>
