<svg width="218" height="66" viewBox="0 0 218 66" fill="none" xmlns="http://www.w3.org/2000/svg">
<g opacity="0.5" clip-path="url(#clip0_5903_4284)">
<path d="M49.3047 106.477C49.1266 106.566 49.0375 106.566 48.8593 106.655C48.503 106.745 48.1467 106.745 47.7903 106.655C46.2759 106.477 44.3161 105.137 42.5345 103.707C40.7528 102.278 38.9712 100.759 37.9022 99.8656C33.9825 96.7387 30.2411 93.5224 26.3215 90.3955C25.6088 89.7701 24.8961 89.2341 24.1835 88.5194C23.4708 87.894 22.8472 87.1793 22.3127 86.3752C21.3328 84.7671 20.7093 82.6229 21.3328 80.9255C21.7782 79.7641 22.6691 78.96 22.9363 77.7092C23.2926 75.8331 21.8673 73.6889 20.1748 72.7062C18.4822 71.7235 16.7005 71.5448 15.008 71.1874C13.4936 70.9194 11.9792 70.4727 10.5538 69.758C9.12853 69.0432 7.79229 68.0605 6.7233 66.8098C5.65431 65.4697 5.03073 63.7722 4.85257 62.1641C4.6744 60.5559 5.11981 58.9478 6.18881 58.0544C7.52504 56.893 9.93027 56.8037 10.3757 54.8382C10.6429 53.7661 10.1975 52.694 9.48486 51.7113C8.7722 50.7285 7.79229 49.6565 6.90147 48.8524C5.74339 47.8697 4.6744 46.7082 3.78358 45.5468C2.80367 44.3854 1.91284 43.1346 1.28927 41.7052C-0.0469706 39.025 -0.492383 35.8981 0.66569 33.6646C0.932937 33.2179 1.20018 32.8605 1.55651 32.5032L1.6456 32.4138C3.16 30.8951 5.74339 30.5377 8.32679 31.1631C9.93027 31.6098 11.4447 32.4138 12.9591 33.4859C14.4735 34.558 15.7206 35.8981 16.9678 37.3275C18.4822 39.1143 19.7293 41.1692 21.4219 42.7773C23.1145 44.3854 25.3415 45.6362 26.945 45.1001C28.014 44.6534 28.6376 43.5813 29.6175 42.956C30.3302 42.5093 31.1319 42.4199 31.9337 42.5986C32.8245 42.7773 33.7153 43.1346 34.6061 43.76C35.497 44.3854 36.3878 45.1001 37.1895 45.9935C37.9913 46.8869 38.6148 47.8697 39.1493 48.9417C40.2183 50.9966 40.7528 53.2301 41.0201 55.2849C41.3764 57.429 41.3764 59.5732 41.5546 61.628C41.7327 64.3082 42.4454 68.0605 44.6725 69.0433C46.365 69.8473 47.7013 68.4179 49.3938 68.5966C51.1755 68.7752 53.0462 70.9194 54.0261 73.3316C54.9169 75.6544 55.1842 78.0666 55.1842 80.4788C55.2733 84.3204 55.5405 87.8047 54.9169 91.4676C54.5606 93.6118 54.0261 95.7559 53.4916 97.7214C52.9571 99.6869 52.2445 101.652 51.4427 103.529C50.9082 104.69 50.2846 105.941 49.3047 106.477Z" fill="#C2E3DD"/>
<path d="M100.601 15.9484C100.027 16.8579 99.5512 17.9163 99.1497 18.9259C96.915 24.7626 97.4383 31.5587 98.7795 37.8177C98.8752 38.2877 98.9963 38.6344 99.0919 39.1044C99.2131 39.4511 99.211 39.7722 99.3321 40.1189C99.7168 41.6778 100.15 43.3112 100.535 44.8702C97.9517 47.4193 96.0313 50.4921 94.7504 53.8908C96.6879 51.979 99.0674 50.4163 101.543 49.3236C102.238 52.4903 102.809 55.6314 102.788 58.842C102.786 59.1631 102.735 59.4097 102.808 59.682C102.857 59.7564 102.831 59.8797 102.757 59.9286C102.699 61.1384 102.642 62.3482 102.462 63.5323C102.385 63.9023 102.358 64.3466 102.281 64.7165C100.824 72.3868 96.2377 79.3418 90.0617 84.0372C88.003 85.6023 85.0754 87.9512 82.4833 88.055C82.1624 88.0526 81.8416 88.0502 81.4719 87.9733C80.6836 87.745 79.9952 87.3446 79.4087 86.451C78.1614 84.7126 77.836 81.6228 76.9605 79.6403C75.8427 76.9643 74.3042 74.4581 73.2607 71.7333C69.5969 62.0978 71.7419 51.0984 76.7129 41.9728C76.8382 41.6773 77.0868 41.4075 77.2121 41.1121C77.4118 40.7678 77.6859 40.3747 77.8856 40.0304C79.806 36.9577 81.9219 34.1827 84.2843 31.4591C85.2597 33.2695 86.5814 34.959 88.1028 36.3043C87.0573 33.9006 86.5811 31.2295 86.7955 28.6377C90.5728 24.6652 94.7433 20.9673 98.9626 17.3438C99.5086 16.8787 100.055 16.4135 100.601 15.9484Z" fill="#C2E3DD"/>
<path d="M217.985 31.3048C217.141 31.971 216.34 32.8102 215.625 33.6281C211.573 38.3857 209.801 44.9675 208.979 51.3156C208.913 51.7907 208.912 52.1579 208.845 52.6329C208.844 53.0002 208.735 53.3022 208.734 53.6695C208.577 55.2675 208.441 56.9521 208.284 58.5501C204.999 60.0918 202.164 62.3484 199.824 65.1255C202.288 63.9692 205.052 63.2895 207.75 63.0847C207.35 66.3021 206.842 69.4541 205.752 72.4741C205.643 72.7761 205.513 72.9916 205.49 73.2724C205.511 73.3589 205.446 73.4666 205.36 73.4879C204.903 74.6094 204.446 75.7309 203.881 76.7871C203.685 77.1104 203.511 77.5201 203.316 77.8434C199.386 84.589 192.744 89.6165 185.356 91.9836C182.894 92.7726 179.351 94.0108 176.872 93.2443C176.571 93.135 176.269 93.0257 175.946 92.8299C175.279 92.3518 174.763 91.7447 174.508 90.7067C173.912 88.6518 174.635 85.6302 174.47 83.4691C174.308 80.5735 173.693 77.6976 173.617 74.7807C173.374 64.4745 179.062 54.8197 186.79 47.874C187.007 47.6373 187.331 47.4658 187.548 47.2291C187.851 46.9711 188.24 46.6919 188.543 46.4339C191.378 44.1773 194.298 42.2668 197.433 40.4868C197.749 42.5189 198.432 44.5526 199.418 46.3282C199.233 43.7134 199.675 41.0363 200.741 38.6643C205.626 36.1787 210.79 34.0832 215.976 32.0741C216.646 31.8177 217.315 31.5612 217.985 31.3048Z" fill="#C2E3DD"/>
<path d="M154.419 98.7059C156.782 97.9616 159.245 97.0989 161.09 95.4063C162.934 93.7137 163.932 91.0997 162.995 89.0849C162.068 87.1794 159.653 85.9464 159.364 83.7683C159.021 80.9341 162.744 79.3075 165.773 78.6186C170.425 77.5763 175.323 76.8441 179.066 74.115C182.809 71.3859 184.658 65.7296 181.316 62.5911C180.123 61.478 178.528 60.8383 177.545 59.5979C176.07 57.7373 176.612 54.9406 177.992 52.9558C179.371 50.9711 181.334 49.3788 183.179 47.6862C185.927 44.9286 188.066 41.4504 188.308 37.6874C188.56 34.0338 186.805 30.1045 183.351 28.2962C180.244 26.6797 176.203 27.1214 173.019 28.5937C169.843 30.1754 167.304 32.8057 165.331 35.6098C163.759 37.9406 161.685 40.863 158.786 40.4404C156.214 39.9909 155.206 37.1012 153.202 35.5042C150.014 32.9035 144.623 34.3367 142.019 37.5228C139.416 40.7089 139.218 45.0186 139.87 48.9284C140.277 51.2068 141.012 53.4583 140.644 55.6903C140.277 57.9223 138.486 60.271 136.069 60.3593C134.428 60.494 132.915 59.5172 131.247 59.3239C128.912 59.0751 126.612 60.5849 125.224 62.4603C123.944 64.3267 123.358 66.5766 122.99 68.8086C121.326 78.0826 119.089 93.7889 123.764 102.433C127.029 108.66 148.297 100.639 154.419 98.7059Z" fill="#BDBAAC"/>
<path d="M154.174 1.36389C152.115 3.18544 150.246 5.0611 148.638 7.10364C147.846 8.08207 147.029 9.14617 146.332 10.1517C145.611 11.2428 145.009 12.2754 144.382 13.3936C145.505 12.6948 146.558 11.8832 147.61 11.0716C148.663 10.2601 149.691 9.53418 150.744 8.72261C152.754 7.0724 154.788 5.33654 156.728 3.5736C158.74 1.55364 156.401 -0.687613 154.174 1.36389Z" fill="#D7AC5C"/>
<path d="M147.102 11.2206C139.003 19.4717 132.976 27.2947 128.069 34.7886C123.258 42.3095 119.353 49.5329 116.112 56.9457C109.726 71.7985 104.881 87.3683 100.773 109.725C100.649 110.523 99.6746 110.338 99.7993 109.54C104.002 87.2104 108.776 71.5279 115.187 56.5894C118.452 49.0909 122.238 41.9261 127.169 34.3466C132.099 26.767 138.126 18.9441 146.25 10.6072C146.92 10.0572 147.678 10.6434 147.102 11.2206Z" fill="#D7AC5C"/>
<path d="M106.459 82.9079C105.788 80.2158 105.069 77.6952 104.04 75.1789C102.987 72.7484 101.789 70.4622 100.449 68.3202C99.3196 66.5164 97.5317 67.0258 96.2134 68.41C94.9901 69.8213 94.3313 72.1345 95.4848 73.8526C98.2614 78.1636 102.093 81.2932 106.459 82.9079Z" fill="#D7AC5C"/>
<path d="M110.456 72.8397C110.456 72.8397 109.386 69.3855 107.942 65.0836C106.497 60.7818 104.773 55.6592 103.012 52.4711C102.143 50.8342 100.428 51.0865 99.1587 52.2994C97.8892 53.5123 97.1137 55.5143 97.9335 57.3225C99.3859 60.5152 102.569 64.479 105.283 67.568C108.117 70.5984 110.456 72.8397 110.456 72.8397Z" fill="#D7AC5C"/>
<path d="M105.644 43.5882C106.551 46.5328 107.935 49.2429 109.558 51.8358C111.182 54.4287 112.973 56.7917 115.168 59.1772C114.552 55.5743 113.981 52.1699 113.267 48.9097C112.647 45.6765 111.955 42.7004 111.048 39.7558C109.907 36.189 104.623 39.9628 105.644 43.5882Z" fill="#D7AC5C"/>
<path d="M112.144 29.4168C113.285 36.2258 116.336 42.097 120.339 47.8691C119.779 39.7435 119.544 32.637 118.473 25.9408C117.788 21.8554 111.579 25.2728 112.144 29.4168Z" fill="#D7AC5C"/>
<path d="M122.653 20.2772C122.8 23.0053 123.211 25.5305 124.05 27.9926C124.864 30.5403 125.893 33.0565 127.087 35.7125C127.445 32.2946 127.704 29.2194 127.915 26.3155C128.126 23.4116 128.264 20.7647 128.188 18.1494C128.141 14.7088 122.536 16.724 122.653 20.2772Z" fill="#D7AC5C"/>
<path d="M133 27.2086C133.772 22.3343 135.233 17.5637 135.908 13.032C136.382 9.9252 131.713 10.8176 131.024 13.956C130.458 16.666 131.004 20.1561 131.604 22.7354C132.204 25.3147 133 27.2086 133 27.2086Z" fill="#D7AC5C"/>
<path d="M140.701 18.1961C141.487 14.7151 142.818 11.4821 143.436 8.23104C143.856 6.03511 140.546 6.48126 140.007 8.73581C139.565 10.6477 139.62 12.9789 139.987 14.9359C140.283 16.7802 140.701 18.1961 140.701 18.1961Z" fill="#D7AC5C"/>
<path d="M110.005 72.6191C110.005 72.6191 112.995 70.4143 116.747 68.0563C120.593 65.7254 125.368 63.381 128.776 62.5921C130.634 62.1955 131.625 63.404 131.709 64.9101C131.889 66.4432 131.211 68.1026 129.398 68.6976C126.132 69.7119 121.343 70.663 117.342 71.3751C113.22 72.1459 110.005 72.6191 110.005 72.6191Z" fill="#D7AC5C"/>
<path d="M133.153 55.8735C130.34 56.739 127.551 57.5189 124.526 58.0462C121.596 58.6006 118.43 58.9025 115.239 59.29C118.228 57.0853 121.215 55.2503 124.034 53.6452C126.923 52.1529 129.81 51.0303 132.623 50.1648C135.984 49.1776 136.539 54.8006 133.153 55.8735Z" fill="#D7AC5C"/>
<path d="M140.392 44.8761C134.147 46.6162 127.386 47.283 120.34 47.8686C127.225 43.1616 133.812 40.2221 140.174 38.7932C143.891 37.9999 144.158 43.9115 140.392 44.8761Z" fill="#D7AC5C"/>
<path d="M143.469 33.7113C141.014 34.401 138.442 34.7795 135.704 35.0183C133.062 35.2841 130.229 35.4959 127.158 35.8248C128.663 34.8644 130.145 33.9898 131.506 33.1737C132.963 32.3847 134.371 31.7671 135.684 31.1224C138.286 29.9186 140.885 29.0846 143.481 28.6204C146.84 28.0029 146.757 32.981 143.469 33.7113Z" fill="#D7AC5C"/>
<path d="M132.905 27.1828C137.49 24.7842 141.98 22.3587 146.462 21.0423C149.37 20.2039 149.721 24.3794 146.764 25.3892C144.165 26.2232 140.735 26.728 137.903 26.9397C135.07 27.1514 132.905 27.1828 132.905 27.1828Z" fill="#D7AC5C"/>
<path d="M140.014 17.7222C143.427 16.1938 146.84 14.6655 150.057 13.8225C152.25 13.3357 152.204 16.3794 150.083 16.979C148.175 17.547 145.581 17.6414 143.606 17.727C141.631 17.8125 140.014 17.7222 140.014 17.7222Z" fill="#D7AC5C"/>
<path d="M71.937 45.3299C75.7599 51.5399 77.449 58.9032 75.8488 66.1778C75.4932 67.8633 74.9597 69.5489 74.2485 71.1458C73.5373 72.7426 72.7371 74.3395 71.7592 75.7589C69.7144 78.7752 67.314 81.4367 68.7365 85.3401C69.3588 86.937 70.3367 88.3564 71.1369 89.7758C73.7151 94.3003 74.9597 99.6231 74.5152 104.857C72.915 101.486 72.4704 97.6714 71.4925 94.1228C70.4256 89.8645 68.6476 85.4288 64.2024 83.9207C63.3133 83.6545 62.5132 83.2997 61.6242 83.0335C59.935 82.4125 58.2458 81.7915 56.6456 81.0818C55.8454 80.7269 55.1342 80.3721 54.5119 80.0172C53.8006 79.6624 53.1783 79.2188 52.4671 78.7752C51.2224 77.8881 50.0667 77.0009 48.9998 76.0251C44.4657 71.6781 41.9764 66.5326 41.3541 60.4113C41.3541 60.3226 41.5319 60.1452 41.7097 60.1452C43.2211 60.5001 44.5547 61.0323 45.8882 61.5646C47.2218 62.1856 48.4664 62.8953 49.7111 63.6938C50.3334 64.0486 50.9557 64.4922 51.4891 64.8471C52.1115 65.2906 52.6449 65.6455 53.2672 66.0891C54.423 66.9762 55.5787 67.8634 56.6456 68.7505C57.8013 69.8151 58.8682 70.9683 59.8461 72.1216C60.824 73.3636 61.7131 74.6057 62.6021 75.8477C62.8688 76.2912 63.2244 76.6461 63.5801 77.0897C63.9357 77.5332 64.2024 77.8881 64.558 78.3316C64.0246 77.0896 63.4022 75.9364 62.7799 74.7831C62.1576 73.6298 61.5353 72.4765 60.824 71.3232C60.0239 69.9925 59.2238 68.5731 58.4236 67.2423C57.5346 65.9116 56.7345 64.5809 56.0232 63.1615C55.4898 62.2743 54.9564 61.2985 54.423 60.4113C51.8448 60.5888 49.5333 59.879 47.4885 59.0806C45.2659 58.2822 43.2211 57.2176 41.443 55.9756C39.2204 54.4675 37.1756 52.7819 35.6643 50.7415C33.8862 48.6123 32.9972 45.9509 31.2191 43.8217C31.1302 43.733 31.308 43.4669 31.4858 43.4669C40.7318 43.9992 48.3775 49.322 52.556 56.5966C51.9337 55.532 51.4002 54.29 50.8668 53.1367C50.3334 51.9835 49.8 50.7415 49.2665 49.5882C48.822 48.6123 48.3775 47.6365 47.8441 46.7493C47.3107 45.8622 46.6883 44.975 45.8882 44.2653C45.3548 43.733 44.5547 43.4669 44.0212 43.112C43.3989 42.7572 42.7766 42.3136 42.1542 41.87C41.2652 41.3377 40.3762 40.7167 39.3982 40.4506C38.5981 40.1844 37.798 40.007 37.0867 39.6522C36.2866 39.2973 35.5754 38.765 34.953 38.144C34.3307 37.6117 33.7084 36.9907 33.0861 36.3697C32.4637 35.7487 31.9303 35.1277 31.2191 34.5067C30.5968 34.0631 29.8855 33.6196 29.0854 33.176C28.8187 33.0873 29.1743 32.7324 29.3521 32.8211C31.0413 33.4421 33.175 33.176 34.953 33.7083C36.6422 34.2406 38.4203 34.9503 39.8428 35.9261C41.443 37.0794 42.8655 38.3214 44.1101 39.9183C43.3989 38.6763 42.5988 37.523 41.7986 36.3697L40.554 34.6841C40.1095 34.1519 39.6649 33.6196 39.2204 32.9986C39.1315 32.9986 39.1315 32.9986 39.0426 32.9098C38.3314 32.1114 37.5313 31.313 36.7311 30.6033C35.8421 29.9823 34.8641 29.45 33.7973 29.0064C31.6636 28.208 29.0854 28.208 26.8628 27.587C22.6843 26.4337 19.5727 23.861 16.8167 21.0221C16.7278 20.9334 16.8167 20.6673 16.9945 20.5785C20.4617 19.514 24.2846 19.6027 27.3073 20.9334C28.1075 21.2883 28.8187 21.7318 29.5299 22.1754C30.1522 22.7077 30.7746 23.24 31.308 23.9497C32.0192 24.8368 32.8194 25.724 33.6195 26.6111L34.3307 27.1434C33.7973 26.0788 33.4417 25.0143 33.175 23.861C32.9083 22.7077 32.7305 21.4657 32.5526 20.135C32.3748 18.3607 32.0192 16.6751 31.6636 14.9895C31.4858 14.2798 31.2191 13.5701 31.0413 12.8604C30.8635 12.1507 30.6857 11.4409 30.6857 10.6425C30.6857 10.4651 30.8635 10.2877 31.0413 10.3764C34.5974 12.5942 36.9978 16.1428 38.4203 20.135C39.8428 24.1271 40.2873 28.5628 40.2873 32.6437C40.2873 32.7324 40.2873 32.7324 40.1984 32.8211C41.1763 33.9744 41.9764 35.1277 42.8655 36.3697C44.199 38.2327 45.177 40.2732 46.4216 42.1362L46.5994 42.4023C46.5994 42.2249 46.5994 42.0474 46.6883 41.7813C46.4216 40.5393 46.3327 39.2086 46.2438 37.7891C46.1549 36.4584 46.066 35.039 46.1549 33.6196C46.1549 32.2889 46.2438 30.9581 46.2438 29.6274C46.2438 28.2967 46.2438 26.966 46.1549 25.6353C46.1549 22.8851 45.8882 20.2237 45.6215 17.4735C45.6215 17.2074 45.8882 17.1187 46.066 17.2074C47.1329 18.272 48.2886 19.3365 49.3555 20.4898C50.3334 21.6431 51.3113 22.8851 52.1115 24.2158C53.1783 26.1676 52.9116 28.4741 52.0226 30.6033C50.6001 34.0631 47.8441 38.0553 47.3107 41.6039C47.4885 42.4023 47.6663 43.2894 47.7552 44.0879C48.3775 45.1525 48.9998 46.217 49.6222 47.2816C50.6001 49.0559 51.3113 50.9189 52.1115 52.6932C52.7338 54.1126 53.3561 55.532 53.9785 56.9515C54.6008 58.3709 55.2231 59.7903 56.0232 61.1211C56.0232 60.7662 56.0232 60.5001 56.0232 60.1452C56.1121 58.8145 56.201 57.4838 56.2899 56.153C56.4678 53.048 56.9123 49.8543 57.3568 46.6606C57.5346 45.2412 57.8902 43.733 58.2458 42.2249C58.6014 40.7167 59.046 39.2973 59.4905 37.7891C60.4684 34.7729 61.4464 31.7566 62.3354 28.7403C62.4243 28.5628 62.6021 28.4741 62.7799 28.5628C64.0246 29.45 65.0025 30.6033 65.6248 32.0227C66.2472 33.4421 66.6028 34.9503 66.8695 36.3697C67.1362 37.8779 67.2251 39.4747 67.2251 40.9829C67.1362 42.5797 66.9584 44.0879 66.6028 45.596C65.6248 49.1446 64.1135 52.427 62.1576 55.6208C61.2686 57.0402 60.2017 58.4596 59.4905 59.9678C59.1349 60.6775 58.6014 61.2985 58.4236 62.0082C58.2458 62.7179 58.2458 63.5163 58.4236 64.1373C58.7793 65.2906 59.5794 66.2665 60.2906 67.2423C60.9129 68.2182 61.5353 69.1941 62.1576 70.1699L63.0466 71.6781C63.3133 72.2104 63.5801 72.6539 63.9357 73.1862C64.8247 74.7831 65.447 76.3799 66.0694 78.0655C66.3361 78.6865 66.6028 79.3075 66.7806 79.9285C66.6028 78.5091 66.6028 77.0009 66.5139 75.5815C66.425 73.8959 66.5139 72.2104 66.6028 70.4361C66.6917 68.7505 66.9584 66.9762 67.314 65.2019C67.7585 63.4276 68.2031 61.7421 68.7365 59.9678C69.2699 58.1935 69.8922 56.4192 70.1589 54.5562C70.4256 53.048 70.5145 51.5399 70.6924 49.943C70.8702 48.3462 71.048 46.838 71.6703 45.3299C71.5814 45.2412 71.8481 45.2412 71.937 45.3299Z" fill="#519DB2"/>
</g>
<defs>
<clipPath id="clip0_5903_4284">
<rect width="218" height="66" fill="white"/>
</clipPath>
</defs>
</svg>
