<svg width="84" height="45" viewBox="0 0 84 45" fill="none" xmlns="http://www.w3.org/2000/svg">
<g opacity="0.5">
<path d="M99.0959 13.678C99.5344 14.3815 99.8981 15.2001 100.205 15.981C101.913 20.4953 101.513 25.7517 100.488 30.5926C100.415 30.9561 100.322 31.2243 100.249 31.5878C100.157 31.8559 100.158 32.1043 100.066 32.3724C99.7715 33.5782 99.44 34.8415 99.146 36.0472C101.121 38.0188 102.589 40.3954 103.568 43.0241C102.087 41.5454 100.268 40.3368 98.3758 39.4917C97.8444 41.9409 97.4073 44.3703 97.4234 46.8536C97.425 47.1019 97.4639 47.2927 97.4087 47.5032C97.3713 47.5608 97.3908 47.6562 97.4477 47.694C97.4914 48.6297 97.5352 49.5654 97.6732 50.4813C97.7316 50.7674 97.7527 51.111 97.8112 51.3971C98.9249 57.3296 102.431 62.7089 107.152 66.3404C108.726 67.551 110.964 69.3677 112.946 69.448C113.191 69.4461 113.436 69.4443 113.719 69.3848C114.321 69.2082 114.848 68.8985 115.296 68.2074C116.25 66.8629 116.498 64.4731 117.168 62.9397C118.022 60.8701 119.198 58.9317 119.996 56.8242C122.797 49.3717 121.157 40.8643 117.357 33.8063C117.261 33.5778 117.071 33.3691 116.975 33.1406C116.823 32.8743 116.613 32.5703 116.46 32.304C114.992 29.9274 113.375 27.7812 111.569 25.6746C110.823 27.0748 109.813 28.3816 108.65 29.422C109.449 27.5629 109.813 25.497 109.649 23.4925C106.762 20.4199 103.574 17.5598 100.348 14.7573C99.9307 14.3976 99.5133 14.0378 99.0959 13.678Z" fill="#C2E3DD"/>
<path d="M9.3619 25.5547C10.007 26.07 10.6196 26.719 11.1662 27.3517C14.2638 31.0313 15.6182 36.1219 16.2462 41.0319C16.297 41.3992 16.2981 41.6833 16.3489 42.0507C16.3499 42.3348 16.4332 42.5683 16.4342 42.8524C16.5542 44.0884 16.6578 45.3913 16.7778 46.6273C19.2891 47.8197 21.4561 49.565 23.2452 51.7129C21.3617 50.8186 19.2486 50.2929 17.1863 50.1345C17.4922 52.6229 17.8803 55.0608 18.7135 57.3966C18.7968 57.6302 18.8963 57.7969 18.9136 58.014C18.8974 58.0809 18.9472 58.1643 19.0132 58.1807C19.3627 59.0481 19.7122 59.9155 20.144 60.7324C20.2933 60.9825 20.4264 61.2994 20.5758 61.5494C23.58 66.7667 28.6576 70.6552 34.305 72.486C36.1875 73.0962 38.896 74.0539 40.7906 73.461C41.0212 73.3765 41.2518 73.292 41.4987 73.1405C42.0086 72.7708 42.4028 72.3012 42.5978 71.4983C43.0539 69.909 42.5011 67.572 42.627 65.9006C42.7509 63.661 43.2212 61.4366 43.279 59.1806C43.4646 51.2094 39.1163 43.7421 33.2086 38.37C33.043 38.1869 32.7951 38.0542 32.6295 37.8711C32.3979 37.6716 32.1002 37.4556 31.8686 37.2561C29.7016 35.5108 27.4696 34.0331 25.0731 32.6564C24.8313 34.2281 24.3092 35.801 23.5555 37.1744C23.6966 35.152 23.3592 33.0814 22.5444 31.2468C18.8099 29.3244 14.8621 27.7036 10.898 26.1497C10.3859 25.9514 9.87393 25.7531 9.3619 25.5547Z" fill="#C2E3DD"/>
<path d="M57.9546 77.6854C56.1483 77.1096 54.2651 76.4424 52.8552 75.1333C51.4452 73.8241 50.6826 71.8024 51.3985 70.2441C52.1075 68.7703 53.9536 67.8166 54.1744 66.132C54.4363 63.9399 51.5903 62.6819 49.2751 62.1491C45.7187 61.3429 41.9744 60.7766 39.1133 58.6658C36.2522 56.555 34.8381 52.1802 37.3932 49.7528C38.3053 48.8919 39.5245 48.3971 40.2761 47.4377C41.4035 45.9986 40.9892 43.8356 39.9345 42.3005C38.8798 40.7654 37.3793 39.5339 35.9693 38.2248C33.868 36.0919 32.2331 33.4017 32.0479 30.4913C31.8558 27.6655 33.1971 24.6264 35.8373 23.2278C38.2127 21.9776 41.3015 22.3192 43.736 23.4579C46.1636 24.6812 48.1044 26.7156 49.6132 28.8844C50.8147 30.6871 52.4002 32.9475 54.6166 32.6206C56.582 32.2729 57.3528 30.0379 58.8848 28.8027C61.3219 26.7913 65.4435 27.8998 67.4336 30.364C69.4238 32.8282 69.5747 36.1615 69.0769 39.1855C68.7656 40.9477 68.2033 42.6892 68.4846 44.4155C68.7658 46.1418 70.1346 47.9584 71.9821 48.0266C73.237 48.1308 74.3932 47.3753 75.6687 47.2258C77.4531 47.0333 79.2115 48.2011 80.2731 49.6516C81.251 51.0952 81.6995 52.8353 81.9807 54.5616C83.2523 61.7345 84.9629 73.8823 81.3888 80.5677C78.8927 85.3841 62.6343 79.1808 57.9546 77.6854Z" fill="#BDBAAC"/>
<path d="M58.1838 2.39744C59.7577 3.80629 61.1864 5.257 62.416 6.83677C63.0215 7.59353 63.6456 8.41654 64.1784 9.19423C64.73 10.0382 65.1902 10.8368 65.6691 11.7017C64.8106 11.1612 64.006 10.5335 63.2014 9.90578C62.3968 9.27808 61.6108 8.71664 60.8062 8.08894C59.2696 6.81262 57.7143 5.47003 56.2317 4.10651C54.693 2.5442 56.4813 0.810729 58.1838 2.39744Z" fill="#D7AC5C"/>
<path d="M63.5476 10.0214C69.7394 16.4032 74.3467 22.4537 78.0974 28.2498C81.7755 34.0668 84.7609 39.6536 87.2381 45.387C92.12 56.8746 95.8236 68.9169 98.9639 86.208C99.0592 86.8253 99.8038 86.6823 99.7086 86.065C96.4956 68.7948 92.846 56.6653 87.9455 45.1114C85.4496 39.3118 82.5554 33.7702 78.7861 27.9079C75.0167 22.0456 70.4095 15.9951 64.199 9.54705C63.6868 9.12161 63.108 9.57505 63.5476 10.0214Z" fill="#D7AC5C"/>
<path d="M95.2404 35.0558C94.5471 37.3332 93.4888 39.4293 92.248 41.4348C91.0073 43.4402 89.6379 45.2678 87.9595 47.1129C88.431 44.3263 88.8672 41.6931 89.4133 39.1716C89.8867 36.671 90.4162 34.3691 91.1094 32.0917C91.9812 29.3329 96.0209 32.2517 95.2404 35.0558Z" fill="#D7AC5C"/>
<path d="M90.2716 24.0946C89.3992 29.361 87.0669 33.902 84.0066 38.3663C84.4353 32.0817 84.6149 26.5852 85.4333 21.4061C85.9567 18.2463 90.7037 20.8895 90.2716 24.0946Z" fill="#D7AC5C"/>
<path d="M82.2381 17.0261C82.1256 19.1361 81.812 21.0891 81.1706 22.9934C80.5479 24.9639 79.7614 26.91 78.8483 28.9643C78.5752 26.3207 78.3766 23.9422 78.2153 21.6963C78.0541 19.4503 77.9488 17.4031 78.0073 15.3803C78.0432 12.7193 82.3279 14.2779 82.2381 17.0261Z" fill="#D7AC5C"/>
<path d="M74.3285 22.3863C73.7383 18.6163 72.6212 14.9265 72.1056 11.4216C71.7432 9.01866 75.3125 9.70891 75.8388 12.1362C76.2718 14.2322 75.8543 16.9316 75.3954 18.9266C74.9366 20.9215 74.3285 22.3863 74.3285 22.3863Z" fill="#D7AC5C"/>
<path d="M68.4414 15.4162C67.8405 12.7238 66.8227 10.2233 66.3504 7.70881C66.0293 6.01039 68.5596 6.35546 68.972 8.09921C69.3097 9.57792 69.2678 11.381 68.9875 12.8946C68.7611 14.3211 68.4414 15.4162 68.4414 15.4162Z" fill="#D7AC5C"/>
<path d="M74.2106 44.5573C76.3613 45.2268 78.4933 45.8299 80.8058 46.2378C83.0458 46.6666 85.4662 46.9001 87.9053 47.1998C85.62 45.4946 83.3367 44.0753 81.182 42.8339C78.9734 41.6797 76.7667 40.8115 74.616 40.142C72.0464 39.3784 71.6223 43.7275 74.2106 44.5573Z" fill="#D7AC5C"/>
<path d="M68.6766 36.052C73.4509 37.3978 78.6194 37.9135 84.0058 38.3665C78.7425 34.7259 73.7071 32.4524 68.8436 31.3472C66.0022 30.7336 65.7979 35.3059 68.6766 36.052Z" fill="#D7AC5C"/>
<path d="M66.3251 27.4161C68.2021 27.9496 70.1683 28.2424 72.261 28.427C74.2811 28.6326 76.4464 28.7964 78.7943 29.0508C77.6433 28.308 76.511 27.6315 75.47 27.0004C74.3563 26.3901 73.28 25.9124 72.2762 25.4138C70.2874 24.4828 68.3005 23.8377 66.3157 23.4786C63.7481 23.0011 63.8115 26.8513 66.3251 27.4161Z" fill="#D7AC5C"/>
<path d="M74.401 22.3668C70.8962 20.5117 67.464 18.6357 64.0378 17.6176C61.8145 16.9691 61.5462 20.1986 63.8068 20.9796C65.7936 21.6247 68.4152 22.0151 70.5805 22.1788C72.7458 22.3426 74.401 22.3668 74.401 22.3668Z" fill="#D7AC5C"/>
<path d="M68.9661 15.0501C66.3571 13.868 63.7482 12.6859 61.2884 12.034C59.6127 11.6574 59.6474 14.0115 61.2692 14.4753C62.7272 14.9146 64.71 14.9877 66.22 15.0538C67.7299 15.1199 68.9661 15.0501 68.9661 15.0501Z" fill="#D7AC5C"/>
</g>
</svg>
