<svg width="96" height="45" viewBox="0 0 96 45" fill="none" xmlns="http://www.w3.org/2000/svg">
<g opacity="0.5">
<path d="M-3.0959 13.678C-3.53438 14.3815 -3.89812 15.2001 -4.20503 15.981C-5.91331 20.4953 -5.51331 25.7517 -4.48801 30.5926C-4.41489 30.9561 -4.32229 31.2243 -4.24917 31.5878C-4.15656 31.8559 -4.15818 32.1043 -4.06558 32.3724C-3.77149 33.5782 -3.44004 34.8415 -3.14595 36.0472C-5.12083 38.0188 -6.58891 40.3954 -7.56809 43.0241C-6.08693 41.5454 -4.26791 40.3368 -2.37577 39.4917C-1.84445 41.9409 -1.40733 44.3703 -1.42336 46.8536C-1.42496 47.1019 -1.46393 47.2927 -1.40869 47.5032C-1.37133 47.5608 -1.39082 47.6562 -1.44766 47.694C-1.49143 48.6297 -1.53521 49.5654 -1.67318 50.4813C-1.73163 50.7674 -1.75271 51.111 -1.81116 51.3971C-2.92486 57.3296 -6.43108 62.7089 -11.1524 66.3404C-12.7261 67.551 -14.9641 69.3677 -16.9457 69.448C-17.1909 69.4461 -17.4362 69.4443 -17.7188 69.3848C-18.3214 69.2082 -18.8477 68.8985 -19.296 68.2074C-20.2495 66.8629 -20.4982 64.4731 -21.1676 62.9397C-22.0221 60.8701 -23.1982 58.9317 -23.9958 56.8242C-26.7966 49.3717 -25.1569 40.8643 -21.3568 33.8063C-21.261 33.5778 -21.071 33.3691 -20.9752 33.1406C-20.8225 32.8743 -20.613 32.5703 -20.4604 32.304C-18.9923 29.9274 -17.3748 27.7812 -15.5688 25.6746C-14.8232 27.0748 -13.8128 28.3816 -12.6498 29.422C-13.4491 27.5629 -13.8131 25.497 -13.6492 23.4925C-10.7616 20.4199 -7.57352 17.5598 -4.34807 14.7573C-3.93068 14.3976 -3.51329 14.0378 -3.0959 13.678Z" fill="#C2E3DD"/>
<path d="M86.6381 25.5547C85.993 26.07 85.3804 26.719 84.8338 27.3517C81.7362 31.0313 80.3818 36.1219 79.7538 41.0319C79.703 41.3992 79.7019 41.6833 79.6511 42.0507C79.6501 42.3348 79.5668 42.5683 79.5658 42.8524C79.4458 44.0884 79.3422 45.3913 79.2222 46.6273C76.7109 47.8197 74.5439 49.565 72.7548 51.7129C74.6383 50.8186 76.7514 50.2929 78.8137 50.1345C78.5078 52.6229 78.1197 55.0608 77.2865 57.3966C77.2032 57.6302 77.1037 57.7969 77.0864 58.014C77.1026 58.0809 77.0528 58.1643 76.9868 58.1807C76.6373 59.0481 76.2878 59.9155 75.856 60.7324C75.7067 60.9825 75.5736 61.2994 75.4242 61.5494C72.42 66.7667 67.3424 70.6552 61.695 72.486C59.8125 73.0962 57.104 74.0539 55.2094 73.461C54.9788 73.3765 54.7482 73.292 54.5013 73.1405C53.9914 72.7708 53.5972 72.3012 53.4022 71.4983C52.9461 69.909 53.4989 67.572 53.373 65.9006C53.2491 63.661 52.7788 61.4366 52.721 59.1806C52.5354 51.2094 56.8837 43.7421 62.7914 38.37C62.957 38.1869 63.2049 38.0542 63.3705 37.8711C63.6021 37.6716 63.8998 37.4556 64.1314 37.2561C66.2984 35.5108 68.5304 34.0331 70.9269 32.6564C71.1687 34.2281 71.6908 35.801 72.4445 37.1744C72.3034 35.152 72.6408 33.0814 73.4556 31.2468C77.1901 29.3244 81.1379 27.7036 85.102 26.1497C85.6141 25.9514 86.1261 25.7531 86.6381 25.5547Z" fill="#C2E3DD"/>
<path d="M38.0454 77.6854C39.8517 77.1096 41.7349 76.4424 43.1448 75.1333C44.5548 73.8241 45.3174 71.8024 44.6015 70.2441C43.8925 68.7703 42.0464 67.8166 41.8256 66.132C41.5637 63.9399 44.4097 62.6819 46.7249 62.1491C50.2813 61.3429 54.0256 60.7766 56.8867 58.6658C59.7478 56.555 61.1619 52.1802 58.6068 49.7528C57.6947 48.8919 56.4755 48.3971 55.7239 47.4377C54.5965 45.9986 55.0108 43.8356 56.0655 42.3005C57.1202 40.7654 58.6207 39.5339 60.0307 38.2248C62.132 36.0919 63.7669 33.4017 63.9521 30.4913C64.1442 27.6655 62.8029 24.6264 60.1627 23.2278C57.7873 21.9776 54.6985 22.3192 52.264 23.4579C49.8364 24.6812 47.8956 26.7156 46.3868 28.8844C45.1853 30.6871 43.5998 32.9475 41.3834 32.6206C39.418 32.2729 38.6472 30.0379 37.1152 28.8027C34.6781 26.7913 30.5565 27.8998 28.5664 30.364C26.5762 32.8282 26.4253 36.1615 26.9231 39.1855C27.2344 40.9477 27.7967 42.6892 27.5154 44.4155C27.2342 46.1418 25.8654 47.9584 24.0179 48.0266C22.763 48.1308 21.6068 47.3753 20.3313 47.2258C18.5469 47.0333 16.7885 48.2011 15.7269 49.6516C14.749 51.0952 14.3005 52.8353 14.0193 54.5616C12.7477 61.7345 11.0371 73.8823 14.6112 80.5677C17.1073 85.3841 33.3657 79.1808 38.0454 77.6854Z" fill="#BDBAAC"/>
<path d="M37.8162 2.39744C36.2423 3.80629 34.8136 5.257 33.584 6.83677C32.9785 7.59353 32.3544 8.41654 31.8216 9.19423C31.27 10.0382 30.8098 10.8368 30.3309 11.7017C31.1894 11.1612 31.994 10.5335 32.7986 9.90578C33.6032 9.27808 34.3892 8.71664 35.1938 8.08894C36.7304 6.81262 38.2857 5.47003 39.7683 4.10651C41.307 2.5442 39.5187 0.810729 37.8162 2.39744Z" fill="#D7AC5C"/>
<path d="M32.4524 10.0214C26.2606 16.4032 21.6533 22.4537 17.9026 28.2498C14.2245 34.0668 11.2391 39.6536 8.76187 45.387C3.88002 56.8746 0.176398 68.9169 -2.96392 86.208C-3.05919 86.8253 -3.80383 86.6823 -3.70856 86.065C-0.495641 68.7948 3.15404 56.6653 8.05453 45.1114C10.5504 39.3118 13.4446 33.7702 17.2139 27.9079C20.9833 22.0456 25.5905 15.9951 31.801 9.54705C32.3132 9.12161 32.892 9.57505 32.4524 10.0214Z" fill="#D7AC5C"/>
<path d="M4.43781 57.6795C4.43781 57.6795 3.62 55.008 2.5158 51.6807C1.4116 48.3535 0.0936268 44.3915 -1.25304 41.9257C-1.91705 40.6596 -3.22784 40.8548 -4.1983 41.7929C-5.16876 42.731 -5.76159 44.2794 -5.13489 45.678C-4.02467 48.1473 -1.59103 51.2131 0.483625 53.6022C2.64953 55.946 4.43781 57.6795 4.43781 57.6795Z" fill="#D7AC5C"/>
<path d="M0.759623 35.0558C1.4529 37.3332 2.51118 39.4293 3.75196 41.4348C4.99274 43.4402 6.36208 45.2678 8.04046 47.1129C7.56899 44.3263 7.13282 41.6931 6.58674 39.1716C6.11326 36.671 5.58383 34.3691 4.89055 32.0917C4.01879 29.3329 -0.0208915 32.2517 0.759623 35.0558Z" fill="#D7AC5C"/>
<path d="M5.72841 24.0946C6.60076 29.361 8.9331 33.902 11.9934 38.3663C11.5647 32.0817 11.3851 26.5852 10.5667 21.4061C10.0433 18.2463 5.29625 20.8895 5.72841 24.0946Z" fill="#D7AC5C"/>
<path d="M13.7619 17.0261C13.8744 19.1361 14.188 21.0891 14.8294 22.9934C15.4521 24.9639 16.2386 26.91 17.1517 28.9643C17.4248 26.3207 17.6234 23.9422 17.7847 21.6963C17.9459 19.4503 18.0512 17.4031 17.9927 15.3803C17.9568 12.7193 13.6721 14.2779 13.7619 17.0261Z" fill="#D7AC5C"/>
<path d="M21.6715 22.3863C22.2617 18.6163 23.3788 14.9265 23.8944 11.4216C24.2568 9.01866 20.6875 9.70891 20.1612 12.1362C19.7282 14.2322 20.1457 16.9316 20.6046 18.9266C21.0634 20.9215 21.6715 22.3863 21.6715 22.3863Z" fill="#D7AC5C"/>
<path d="M27.5586 15.4162C28.1595 12.7238 29.1773 10.2233 29.6496 7.70881C29.9707 6.01039 27.4404 6.35546 27.028 8.09921C26.6903 9.57792 26.7322 11.381 27.0125 12.8946C27.2389 14.3211 27.5586 15.4162 27.5586 15.4162Z" fill="#D7AC5C"/>
<path d="M21.7894 44.5573C19.6387 45.2268 17.5067 45.8299 15.1942 46.2378C12.9542 46.6666 10.5338 46.9001 8.09475 47.1998C10.38 45.4946 12.6633 44.0753 14.818 42.8339C17.0266 41.6797 19.2333 40.8115 21.384 40.142C23.9536 39.3784 24.3777 43.7275 21.7894 44.5573Z" fill="#D7AC5C"/>
<path d="M27.3234 36.052C22.5491 37.3978 17.3806 37.9135 11.9942 38.3665C17.2575 34.7259 22.2929 32.4524 27.1564 31.3472C29.9978 30.7336 30.2021 35.3059 27.3234 36.052Z" fill="#D7AC5C"/>
<path d="M29.6749 27.4161C27.7979 27.9496 25.8317 28.2424 23.739 28.427C21.7189 28.6326 19.5536 28.7964 17.2057 29.0508C18.3567 28.308 19.489 27.6315 20.53 27.0004C21.6437 26.3901 22.72 25.9124 23.7238 25.4138C25.7126 24.4828 27.6995 23.8377 29.6843 23.4786C32.2519 23.0011 32.1885 26.8513 29.6749 27.4161Z" fill="#D7AC5C"/>
<path d="M21.599 22.3668C25.1038 20.5117 28.536 18.6357 31.9622 17.6176C34.1855 16.9691 34.4538 20.1986 32.1932 20.9796C30.2064 21.6247 27.5848 22.0151 25.4195 22.1788C23.2542 22.3426 21.599 22.3668 21.599 22.3668Z" fill="#D7AC5C"/>
<path d="M27.0339 15.0501C29.6429 13.868 32.2518 12.6859 34.7116 12.034C36.3873 11.6574 36.3526 14.0115 34.7308 14.4753C33.2728 14.9146 31.29 14.9877 29.78 15.0538C28.2701 15.1199 27.0339 15.0501 27.0339 15.0501Z" fill="#D7AC5C"/>
</g>
</svg>
