<svg width="218" height="66" viewBox="0 0 218 66" fill="none" xmlns="http://www.w3.org/2000/svg">
<g opacity="0.5" clip-path="url(#clip0_5903_1890)">
<path d="M49.3047 106.477C49.1266 106.566 49.0375 106.566 48.8593 106.655C48.503 106.745 48.1467 106.745 47.7903 106.655C46.2759 106.477 44.3161 105.137 42.5345 103.707C40.7528 102.278 38.9712 100.759 37.9022 99.8656C33.9825 96.7387 30.2411 93.5224 26.3215 90.3955C25.6088 89.7701 24.8961 89.2341 24.1835 88.5194C23.4708 87.894 22.8472 87.1793 22.3127 86.3752C21.3328 84.7671 20.7093 82.6229 21.3328 80.9255C21.7782 79.7641 22.6691 78.96 22.9363 77.7092C23.2926 75.8331 21.8673 73.6889 20.1748 72.7062C18.4822 71.7235 16.7005 71.5448 15.008 71.1874C13.4936 70.9194 11.9792 70.4727 10.5538 69.758C9.12853 69.0432 7.79229 68.0605 6.7233 66.8098C5.65431 65.4697 5.03073 63.7722 4.85257 62.1641C4.6744 60.5559 5.11981 58.9478 6.18881 58.0544C7.52504 56.893 9.93027 56.8037 10.3757 54.8382C10.6429 53.7661 10.1975 52.694 9.48486 51.7113C8.7722 50.7285 7.79229 49.6565 6.90147 48.8524C5.74339 47.8697 4.6744 46.7082 3.78358 45.5468C2.80367 44.3854 1.91284 43.1346 1.28927 41.7052C-0.0469706 39.025 -0.492383 35.8981 0.66569 33.6646C0.932937 33.2179 1.20018 32.8605 1.55651 32.5032L1.6456 32.4138C3.16 30.8951 5.74339 30.5377 8.32679 31.1631C9.93027 31.6098 11.4447 32.4138 12.9591 33.4859C14.4735 34.558 15.7206 35.8981 16.9678 37.3275C18.4822 39.1143 19.7293 41.1692 21.4219 42.7773C23.1145 44.3854 25.3415 45.6362 26.945 45.1001C28.014 44.6534 28.6376 43.5813 29.6175 42.956C30.3302 42.5093 31.1319 42.4199 31.9337 42.5986C32.8245 42.7773 33.7153 43.1346 34.6061 43.76C35.497 44.3854 36.3878 45.1001 37.1895 45.9935C37.9913 46.8869 38.6148 47.8697 39.1493 48.9417C40.2183 50.9966 40.7528 53.2301 41.0201 55.2849C41.3764 57.429 41.3764 59.5732 41.5546 61.628C41.7327 64.3082 42.4454 68.0605 44.6725 69.0433C46.365 69.8473 47.7013 68.4179 49.3938 68.5966C51.1755 68.7752 53.0462 70.9194 54.0261 73.3316C54.9169 75.6544 55.1842 78.0666 55.1842 80.4788C55.2733 84.3204 55.5405 87.8047 54.9169 91.4676C54.5606 93.6118 54.0261 95.7559 53.4916 97.7214C52.9571 99.6869 52.2445 101.652 51.4427 103.529C50.9082 104.69 50.2846 105.941 49.3047 106.477Z" fill="#C2E3DD"/>
<path d="M100.601 15.9482C100.027 16.8577 99.5511 17.9161 99.1497 18.9257C96.915 24.7624 97.4383 31.5585 98.7795 37.8175C98.8751 38.2875 98.9963 38.6342 99.0919 39.1042C99.2131 39.4509 99.2109 39.7719 99.3321 40.1186C99.7168 41.6776 100.15 43.311 100.535 44.8699C97.9517 47.419 96.0312 50.4918 94.7503 53.8905C96.6879 51.9787 99.0674 50.416 101.543 49.3233C102.238 52.49 102.809 55.6311 102.788 58.8418C102.786 59.1629 102.735 59.4095 102.808 59.6817C102.857 59.7562 102.831 59.8795 102.757 59.9283C102.699 61.1381 102.642 62.3479 102.462 63.5321C102.385 63.902 102.358 64.3464 102.281 64.7163C100.824 72.3866 96.2377 79.3415 90.0617 84.0369C88.003 85.602 85.0754 87.9509 82.4833 88.0548C82.1624 88.0523 81.8416 88.0499 81.4719 87.973C80.6836 87.7448 79.9952 87.3444 79.4087 86.4508C78.1614 84.7124 77.836 81.6226 76.9605 79.64C75.8427 76.9641 74.3042 74.4579 73.2607 71.7331C69.5969 62.0975 71.7419 51.0981 76.7129 41.9725C76.8382 41.6771 77.0868 41.4073 77.2121 41.1119C77.4118 40.7676 77.6858 40.3745 77.8855 40.0302C79.806 36.9574 81.9219 34.1825 84.2843 31.4588C85.2597 33.2692 86.5814 34.9588 88.1028 36.304C87.0573 33.9003 86.5811 31.2292 86.7955 28.6375C90.5728 24.6649 94.7432 20.967 98.9626 17.3436C99.5086 16.8784 100.055 16.4133 100.601 15.9482Z" fill="#C2E3DD"/>
<path d="M217.985 31.3045C217.141 31.9707 216.34 32.8099 215.625 33.6279C211.573 38.3854 209.801 44.9672 208.979 51.3154C208.913 51.7904 208.912 52.1577 208.845 52.6327C208.844 53 208.735 53.302 208.734 53.6692C208.577 55.2673 208.441 56.9518 208.284 58.5499C204.999 60.0916 202.164 62.3481 199.824 65.1253C202.288 63.969 205.052 63.2892 207.75 63.0845C207.35 66.3018 206.842 69.4539 205.752 72.4739C205.643 72.7759 205.513 72.9914 205.49 73.2721C205.511 73.3587 205.446 73.4664 205.36 73.4876C204.903 74.6091 204.446 75.7306 203.881 76.7869C203.685 77.1101 203.511 77.5199 203.316 77.8431C199.386 84.5887 192.744 89.6162 185.356 91.9833C182.894 92.7724 179.351 94.0105 176.872 93.244C176.571 93.1347 176.269 93.0254 175.946 92.8297C175.279 92.3516 174.763 91.7445 174.508 90.7064C173.912 88.6515 174.635 85.63 174.47 83.4689C174.308 80.5733 173.693 77.6973 173.617 74.7805C173.374 64.4743 179.062 54.8195 186.79 47.8738C187.007 47.637 187.331 47.4656 187.548 47.2288C187.851 46.9708 188.24 46.6916 188.543 46.4336C191.378 44.1771 194.298 42.2666 197.433 40.4866C197.749 42.5187 198.432 44.5523 199.418 46.328C199.233 43.7131 199.675 41.0361 200.741 38.6641C205.626 36.1785 210.79 34.0829 215.976 32.0739C216.646 31.8174 217.315 31.561 217.985 31.3045Z" fill="#C2E3DD"/>
<path d="M154.419 98.7059C156.782 97.9616 159.245 97.0989 161.09 95.4063C162.934 93.7137 163.932 91.0997 162.995 89.0849C162.068 87.1794 159.653 85.9464 159.364 83.7683C159.021 80.9341 162.744 79.3075 165.773 78.6186C170.425 77.5763 175.323 76.8441 179.066 74.115C182.809 71.3859 184.658 65.7296 181.316 62.5911C180.123 61.478 178.528 60.8383 177.545 59.5979C176.07 57.7373 176.612 54.9406 177.992 52.9558C179.371 50.9711 181.334 49.3788 183.179 47.6862C185.927 44.9286 188.066 41.4504 188.308 37.6874C188.56 34.0338 186.805 30.1045 183.351 28.2962C180.244 26.6797 176.203 27.1214 173.019 28.5937C169.843 30.1754 167.304 32.8057 165.331 35.6098C163.759 37.9406 161.685 40.863 158.786 40.4404C156.214 39.9909 155.206 37.1012 153.202 35.5042C150.014 32.9035 144.623 34.3367 142.019 37.5228C139.416 40.7089 139.218 45.0186 139.87 48.9284C140.277 51.2068 141.012 53.4583 140.644 55.6903C140.277 57.9223 138.486 60.271 136.069 60.3593C134.428 60.494 132.915 59.5172 131.247 59.3239C128.912 59.0751 126.612 60.5849 125.224 62.4603C123.944 64.3267 123.358 66.5766 122.99 68.8086C121.326 78.0826 119.089 93.7889 123.764 102.433C127.029 108.66 148.297 100.639 154.419 98.7059Z" fill="#BDBAAC"/>
<path d="M154.174 1.36365C152.115 3.18519 150.246 5.06086 148.638 7.10339C147.846 8.08182 147.029 9.14593 146.332 10.1514C145.611 11.2426 145.009 12.2751 144.382 13.3934C145.505 12.6945 146.558 11.883 147.61 11.0714C148.663 10.2598 149.691 9.53393 150.744 8.72236C152.754 7.07216 154.788 5.33629 156.728 3.57335C158.74 1.5534 156.401 -0.687857 154.174 1.36365Z" fill="#D7AC5C"/>
<path d="M147.102 11.2206C139.003 19.4717 132.976 27.2947 128.069 34.7886C123.258 42.3095 119.353 49.5329 116.112 56.9457C109.726 71.7985 104.881 87.3683 100.773 109.725C100.649 110.523 99.6746 110.338 99.7993 109.54C104.002 87.2104 108.776 71.5279 115.187 56.5894C118.452 49.0909 122.238 41.9261 127.169 34.3466C132.099 26.767 138.126 18.9441 146.25 10.6072C146.92 10.0572 147.678 10.6434 147.102 11.2206Z" fill="#D7AC5C"/>
<path d="M106.459 82.9079C105.788 80.2158 105.069 77.6952 104.04 75.1789C102.987 72.7484 101.789 70.4622 100.449 68.3202C99.3196 66.5164 97.5317 67.0258 96.2134 68.41C94.9901 69.8213 94.3313 72.1345 95.4848 73.8526C98.2614 78.1636 102.093 81.2932 106.459 82.9079Z" fill="#D7AC5C"/>
<path d="M110.456 72.8392C110.456 72.8392 109.386 69.385 107.942 65.0832C106.497 60.7813 104.773 55.6587 103.012 52.4706C102.143 50.8337 100.428 51.0861 99.1588 52.2989C97.8893 53.5118 97.1138 55.5138 97.9336 57.3221C99.3859 60.5147 102.569 64.4785 105.283 67.5675C108.117 70.5979 110.456 72.8392 110.456 72.8392Z" fill="#D7AC5C"/>
<path d="M105.644 43.588C106.551 46.5325 107.935 49.2427 109.558 51.8356C111.181 54.4285 112.973 56.7914 115.168 59.177C114.552 55.5741 113.981 52.1696 113.267 48.9094C112.647 45.6763 111.955 42.7002 111.048 39.7556C109.907 36.1887 104.623 39.9625 105.644 43.588Z" fill="#D7AC5C"/>
<path d="M112.144 29.4163C113.285 36.2253 116.336 42.0965 120.339 47.8686C119.779 39.743 119.544 32.6365 118.473 25.9403C117.788 21.8549 111.579 25.2724 112.144 29.4163Z" fill="#D7AC5C"/>
<path d="M122.653 20.2768C122.8 23.0048 123.211 25.53 124.05 27.9921C124.864 30.5398 125.893 33.056 127.087 35.712C127.445 32.2941 127.705 29.2189 127.915 26.315C128.126 23.4111 128.264 20.7642 128.188 18.1489C128.141 14.7084 122.536 16.7235 122.653 20.2768Z" fill="#D7AC5C"/>
<path d="M133 27.2081C133.772 22.3338 135.233 17.5632 135.908 13.0315C136.382 9.92471 131.713 10.8172 131.024 13.9555C130.458 16.6655 131.004 20.1556 131.604 22.7349C132.204 25.3142 133 27.2081 133 27.2081Z" fill="#D7AC5C"/>
<path d="M140.701 18.1959C141.487 14.7149 142.818 11.4819 143.436 8.2308C143.856 6.03486 140.546 6.48101 140.007 8.73556C139.565 10.6474 139.62 12.9787 139.987 14.9357C140.283 16.78 140.701 18.1959 140.701 18.1959Z" fill="#D7AC5C"/>
<path d="M110.005 72.6188C110.005 72.6188 112.995 70.4141 116.747 68.0561C120.593 65.7251 125.368 63.3807 128.776 62.5919C130.634 62.1952 131.625 63.4038 131.709 64.9099C131.889 66.443 131.211 68.1023 129.398 68.6974C126.132 69.7117 121.343 70.6627 117.342 71.3749C113.22 72.1456 110.005 72.6188 110.005 72.6188Z" fill="#D7AC5C"/>
<path d="M133.153 55.8732C130.34 56.7388 127.551 57.5186 124.526 58.046C121.596 58.6004 118.43 58.9022 115.239 59.2898C118.228 57.085 121.215 55.25 124.034 53.645C126.923 52.1527 129.81 51.0301 132.623 50.1646C135.984 49.1773 136.539 54.8003 133.153 55.8732Z" fill="#D7AC5C"/>
<path d="M140.392 44.8761C134.147 46.6162 127.386 47.283 120.34 47.8686C127.225 43.1616 133.812 40.2221 140.174 38.7932C143.891 37.9999 144.158 43.9115 140.392 44.8761Z" fill="#D7AC5C"/>
<path d="M143.469 33.711C141.014 34.4007 138.442 34.7793 135.704 35.0181C133.062 35.2839 130.229 35.4956 127.158 35.8245C128.663 34.8642 130.145 33.9895 131.506 33.1735C132.963 32.3845 134.371 31.7668 135.684 31.1221C138.286 29.9184 140.885 29.0844 143.481 28.6202C146.84 28.0027 146.757 32.9808 143.469 33.711Z" fill="#D7AC5C"/>
<path d="M132.905 27.1828C137.49 24.7842 141.98 22.3587 146.462 21.0423C149.37 20.2039 149.721 24.3794 146.764 25.3892C144.165 26.2232 140.735 26.728 137.903 26.9397C135.07 27.1514 132.905 27.1828 132.905 27.1828Z" fill="#D7AC5C"/>
<path d="M140.014 17.7222C143.427 16.1938 146.84 14.6655 150.057 13.8225C152.25 13.3357 152.204 16.3794 150.083 16.979C148.175 17.547 145.581 17.6414 143.606 17.727C141.631 17.8125 140.014 17.7222 140.014 17.7222Z" fill="#D7AC5C"/>
<path d="M71.937 45.3296C75.7599 51.5396 77.4491 58.9029 75.8488 66.1775C75.4932 67.8631 74.9598 69.5487 74.2485 71.1455C73.5373 72.7424 72.7372 74.3393 71.7592 75.7587C69.7144 78.775 67.314 81.4364 68.7365 85.3399C69.3588 86.9367 70.3368 88.3561 71.1369 89.7756C73.7151 94.3 74.9598 99.6229 74.5152 104.857C72.915 101.486 72.4705 97.6712 71.4925 94.1226C70.4257 89.8643 68.6476 85.4286 64.2024 83.9204C63.3134 83.6543 62.5132 83.2994 61.6242 83.0333C59.935 82.4123 58.2458 81.7913 56.6456 81.0816C55.8454 80.7267 55.1342 80.3718 54.5119 80.017C53.8007 79.6621 53.1783 79.2186 52.4671 78.775C51.2224 77.8878 50.0667 77.0007 48.9999 76.0248C44.4658 71.6778 41.9765 66.5324 41.3541 60.4111C41.3541 60.3224 41.5319 60.145 41.7097 60.145C43.2211 60.4998 44.5547 61.0321 45.8882 61.5644C47.2218 62.1854 48.4664 62.8951 49.7111 63.6935C50.3334 64.0484 50.9557 64.492 51.4892 64.8468C52.1115 65.2904 52.6449 65.6453 53.2672 66.0888C54.423 66.976 55.5787 67.8631 56.6456 68.7503C57.8013 69.8148 58.8682 70.9681 59.8461 72.1214C60.8241 73.3634 61.7131 74.6054 62.6021 75.8474C62.8688 76.291 63.2245 76.6458 63.5801 77.0894C63.9357 77.533 64.2024 77.8878 64.558 78.3314C64.0246 77.0894 63.4023 75.9361 62.7799 74.7828C62.1576 73.6295 61.5353 72.4763 60.8241 71.323C60.0239 69.9923 59.2238 68.5728 58.4237 67.2421C57.5346 65.9114 56.7345 64.5807 56.0233 63.1612C55.4898 62.2741 54.9564 61.2982 54.423 60.4111C51.8448 60.5885 49.5333 59.8788 47.4885 59.0804C45.2659 58.2819 43.2211 57.2174 41.443 55.9754C39.2204 54.4672 37.1757 52.7817 35.6643 50.7412C33.8862 48.6121 32.9972 45.9506 31.2191 43.8215C31.1302 43.7328 31.308 43.4666 31.4858 43.4666C40.7318 43.9989 48.3775 49.3218 52.556 56.5964C51.9337 55.5318 51.4003 54.2898 50.8668 53.1365C50.3334 51.9832 49.8 50.7412 49.2666 49.5879C48.822 48.6121 48.3775 47.6362 47.8441 46.7491C47.3107 45.8619 46.6884 44.9748 45.8882 44.2651C45.3548 43.7328 44.5547 43.4666 44.0212 43.1118C43.3989 42.7569 42.7766 42.3133 42.1543 41.8698C41.2652 41.3375 40.3762 40.7165 39.3983 40.4503C38.5981 40.1842 37.798 40.0068 37.0868 39.6519C36.2866 39.2971 35.5754 38.7648 34.9531 38.1438C34.3307 37.6115 33.7084 36.9905 33.0861 36.3695C32.4638 35.7485 31.9303 35.1275 31.2191 34.5065C30.5968 34.0629 29.8855 33.6193 29.0854 33.1758C28.8187 33.087 29.1743 32.7322 29.3521 32.8209C31.0413 33.4419 33.175 33.1758 34.9531 33.708C36.6422 34.2403 38.4203 34.95 39.8428 35.9259C41.443 37.0792 42.8655 38.3212 44.1101 39.9181C43.3989 38.676 42.5988 37.5228 41.7986 36.3695L40.554 34.6839C40.1095 34.1516 39.665 33.6193 39.2204 32.9983C39.1315 32.9983 39.1315 32.9983 39.0426 32.9096C38.3314 32.1112 37.5313 31.3127 36.7311 30.603C35.8421 29.982 34.8642 29.4497 33.7973 29.0062C31.6636 28.2077 29.0854 28.2077 26.8628 27.5867C22.6843 26.4334 19.5727 23.8607 16.8167 21.0219C16.7278 20.9332 16.8167 20.667 16.9945 20.5783C20.4617 19.5137 24.2846 19.6024 27.3073 20.9332C28.1075 21.288 28.8187 21.7316 29.5299 22.1752C30.1523 22.7074 30.7746 23.2397 31.308 23.9494C32.0192 24.8366 32.8194 25.7237 33.6195 26.6109L34.3307 27.1432C33.7973 26.0786 33.4417 25.014 33.175 23.8607C32.9083 22.7074 32.7305 21.4654 32.5527 20.1347C32.3749 18.3604 32.0192 16.6749 31.6636 14.9893C31.4858 14.2796 31.2191 13.5699 31.0413 12.8601C30.8635 12.1504 30.6857 11.4407 30.6857 10.6423C30.6857 10.4648 30.8635 10.2874 31.0413 10.3761C34.5974 12.594 36.9978 16.1426 38.4203 20.1347C39.8428 24.1269 40.2873 28.5626 40.2873 32.6435C40.2873 32.7322 40.2873 32.7322 40.1984 32.8209C41.1763 33.9742 41.9765 35.1275 42.8655 36.3695C44.199 38.2325 45.177 40.2729 46.4216 42.1359L46.5995 42.4021C46.5995 42.2246 46.5995 42.0472 46.6884 41.7811C46.4216 40.5391 46.3327 39.2083 46.2438 37.7889C46.1549 36.4582 46.066 35.0388 46.1549 33.6193C46.1549 32.2886 46.2438 30.9579 46.2438 29.6272C46.2438 28.2965 46.2438 26.9657 46.1549 25.635C46.1549 22.8849 45.8882 20.2234 45.6215 17.4733C45.6215 17.2072 45.8882 17.1184 46.066 17.2071C47.1329 18.2717 48.2886 19.3363 49.3555 20.4896C50.3334 21.6429 51.3113 22.8849 52.1115 24.2156C53.1783 26.1673 52.9116 28.4739 52.0226 30.603C50.6001 34.0629 47.8441 38.055 47.3107 41.6036C47.4885 42.4021 47.6663 43.2892 47.7552 44.0876C48.3775 45.1522 48.9999 46.2168 49.6222 47.2814C50.6001 49.0556 51.3113 50.9186 52.1115 52.6929C52.7338 54.1124 53.3561 55.5318 53.9785 56.9512C54.6008 58.3707 55.2231 59.7901 56.0233 61.1208C56.0233 60.766 56.0233 60.4998 56.0233 60.145C56.1122 58.8142 56.2011 57.4835 56.29 56.1528C56.4678 53.0478 56.9123 49.8541 57.3568 46.6603C57.5346 45.2409 57.8902 43.7328 58.2458 42.2246C58.6015 40.7165 59.046 39.297 59.4905 37.7889C60.4684 34.7726 61.4464 31.7563 62.3354 28.74C62.4243 28.5626 62.6021 28.4739 62.7799 28.5626C64.0246 29.4497 65.0025 30.603 65.6249 32.0225C66.2472 33.4419 66.6028 34.95 66.8695 36.3695C67.1362 37.8776 67.2251 39.4745 67.2251 40.9826C67.1362 42.5795 66.9584 44.0876 66.6028 45.5958C65.6249 49.1444 64.1135 52.4268 62.1576 55.6205C61.2686 57.0399 60.2017 58.4594 59.4905 59.9675C59.1349 60.6772 58.6015 61.2982 58.4237 62.008C58.2458 62.7177 58.2458 63.5161 58.4237 64.1371C58.7793 65.2904 59.5794 66.2662 60.2906 67.2421C60.913 68.218 61.5353 69.1938 62.1576 70.1697L63.0466 71.6778C63.3134 72.2101 63.5801 72.6537 63.9357 73.186C64.8247 74.7828 65.4471 76.3797 66.0694 78.0653C66.3361 78.6863 66.6028 79.3073 66.7806 79.9283C66.6028 78.5088 66.6028 77.0007 66.5139 75.5813C66.425 73.8957 66.5139 72.2101 66.6028 70.4358C66.6917 68.7502 66.9584 66.976 67.314 65.2017C67.7586 63.4274 68.2031 61.7418 68.7365 59.9675C69.2699 58.1932 69.8922 56.4189 70.159 54.5559C70.4257 53.0478 70.5146 51.5396 70.6924 49.9428C70.8702 48.3459 71.048 46.8378 71.6703 45.3296C71.5814 45.2409 71.8481 45.2409 71.937 45.3296Z" fill="#519DB2"/>
</g>
<defs>
<clipPath id="clip0_5903_1890">
<rect width="218" height="66" fill="white"/>
</clipPath>
</defs>
</svg>
