<svg width="19" height="19" viewBox="0 0 19 19" fill="none" xmlns="http://www.w3.org/2000/svg">
<path d="M6.33337 5.54163V8.70829L1.58337 4.74996L6.33337 0.791626V3.95829H10.2917C11.9714 3.95829 13.5823 4.62555 14.7701 5.81328C15.9578 7.00101 16.625 8.61192 16.625 10.2916C16.625 11.9713 15.9578 13.5822 14.7701 14.77C13.5823 15.9577 11.9714 16.625 10.2917 16.625H3.16671V15.0416H10.2917C11.5515 15.0416 12.7597 14.5412 13.6505 13.6504C14.5413 12.7596 15.0417 11.5514 15.0417 10.2916C15.0417 9.03185 14.5413 7.82367 13.6505 6.93287C12.7597 6.04207 11.5515 5.54163 10.2917 5.54163H6.33337Z" fill="black"/>
</svg>
