<svg width="16" height="17" viewBox="0 0 16 17" fill="none" xmlns="http://www.w3.org/2000/svg">
<path d="M10.6667 5.54163L10.6667 8.70829L15.4167 4.74996L10.6667 0.791626V3.95829L6.70835 3.95829C5.02865 3.95829 3.41774 4.62555 2.23001 5.81328C1.04228 7.00101 0.375021 8.61192 0.375021 10.2916C0.375021 11.9713 1.04228 13.5822 2.23001 14.77C3.41774 15.9577 5.02865 16.625 6.70835 16.625H13.8334V15.0416L6.70835 15.0416C5.44858 15.0416 4.24039 14.5412 3.3496 13.6504C2.4588 12.7596 1.95835 11.5514 1.95835 10.2916C1.95835 9.03185 2.4588 7.82367 3.3496 6.93287C4.24039 6.04207 5.44858 5.54163 6.70835 5.54163L10.6667 5.54163Z" fill="black"/>
</svg>
