<svg width="18" height="18" viewBox="0 0 18 18" fill="none" xmlns="http://www.w3.org/2000/svg">
<path d="M8.31475 2.20077C8.53982 1.50808 9.51979 1.50808 9.74486 2.20077L10.8655 5.64981C10.9662 5.95959 11.2548 6.16932 11.5806 6.16932H15.2071C15.9354 6.16932 16.2383 7.10133 15.649 7.52944L12.7151 9.66106C12.4516 9.85251 12.3413 10.1919 12.442 10.5017L13.5626 13.9507C13.7877 14.6434 12.9949 15.2194 12.4057 14.7913L9.47173 12.6597C9.20822 12.4682 8.85139 12.4682 8.58788 12.6597L5.65395 14.7913C5.06472 15.2194 4.2719 14.6434 4.49697 13.9507L5.61763 10.5017C5.71828 10.1919 5.60802 9.85251 5.3445 9.66106L2.41058 7.52944C1.82134 7.10133 2.12417 6.16932 2.8525 6.16932H6.47904C6.80476 6.16932 7.09344 5.95959 7.19409 5.64981L8.31475 2.20077Z" fill="#D9D9D9"/>
<path d="M6.68065 6.10889C8.34563 1.06658 8.49228 1.85473 9.03019 1.64844V12.4967L5.27093 15.507C4.67787 15.493 4.40678 15.4391 4.33111 15.0371V14.5672L5.74084 10.3381L1.98158 7.51861C1.36691 6.92961 1.41807 6.62136 1.98158 6.10889H6.68065Z" fill="#D68480"/>
</svg>
