<svg width="18" height="18" viewBox="0 0 18 18" fill="none" xmlns="http://www.w3.org/2000/svg">
<g clip-path="url(#clip0_4803_11364)">
<path d="M16.1111 13.5C16.3377 13.5002 16.5556 13.5734 16.7203 13.7046C16.8851 13.8359 16.9842 14.0152 16.9975 14.206C17.0108 14.3969 16.9372 14.5848 16.7918 14.7314C16.6464 14.878 16.4401 14.9722 16.2151 14.9948L16.1111 15H1.88889C1.66233 14.9998 1.44442 14.9266 1.27967 14.7954C1.11493 14.6641 1.01579 14.4848 1.00251 14.294C0.989236 14.1031 1.06282 13.9152 1.20824 13.7686C1.35365 13.622 1.55991 13.5278 1.78489 13.5052L1.88889 13.5H16.1111ZM16.1111 8.25C16.3469 8.25 16.573 8.32902 16.7397 8.46967C16.9064 8.61032 17 8.80109 17 9C17 9.19891 16.9064 9.38968 16.7397 9.53033C16.573 9.67098 16.3469 9.75 16.1111 9.75H1.88889C1.65314 9.75 1.42705 9.67098 1.26035 9.53033C1.09365 9.38968 1 9.19891 1 9C1 8.80109 1.09365 8.61032 1.26035 8.46967C1.42705 8.32902 1.65314 8.25 1.88889 8.25H16.1111ZM16.1111 3C16.3469 3 16.573 3.07902 16.7397 3.21967C16.9064 3.36032 17 3.55109 17 3.75C17 3.94891 16.9064 4.13968 16.7397 4.28033C16.573 4.42098 16.3469 4.5 16.1111 4.5H1.88889C1.65314 4.5 1.42705 4.42098 1.26035 4.28033C1.09365 4.13968 1 3.94891 1 3.75C1 3.55109 1.09365 3.36032 1.26035 3.21967C1.42705 3.07902 1.65314 3 1.88889 3H16.1111Z" fill="black"/>
</g>
<defs>
<clipPath id="clip0_4803_11364">
<rect width="18" height="18" fill="white"/>
</clipPath>
</defs>
</svg>
