<svg width="20" height="20" viewBox="0 0 20 20" fill="none" xmlns="http://www.w3.org/2000/svg">
<g id="Home" clip-path="url(#clip0_9862_8537)">
<path id="Vector" d="M10.4 0.700024L18.2 6.80002C18.5 7.10002 18.8 7.40002 19 7.80002C19.2 8.20002 19.3 8.60002 19.3 9.00002V17.6C19.3 18.1 19.1 18.5 18.8 18.9C18.5 19.2 18 19.4 17.5 19.4H13.7C13.2 19.4 12.8 19.2 12.4 18.9C12.1 18.6 11.9 18.1 11.9 17.6V11.9V11.8H11.8H8H7.9V11.9V17.6C7.9 18.1 7.7 18.5 7.4 18.9C7.1 19.2 6.6 19.4 6.1 19.4H2.3C1.8 19.4 1.4 19.2 1 18.9C0.7 18.6 0.5 18.1 0.5 17.6V8.90002C0.5 8.00002 0.9 7.30002 1.6 6.70002L9.4 0.600024C9.5 0.500024 9.7 0.400024 9.9 0.400024C10.1 0.400024 10.3 0.600024 10.4 0.700024Z" fill="white" stroke="#808080" stroke-linecap="round" stroke-linejoin="round"/>
</g>
<defs>
<clipPath id="clip0_9862_8537">
<rect width="19.8" height="19.8" fill="white"/>
</clipPath>
</defs>
</svg>
