<svg width="30" height="30" viewBox="0 0 30 30" fill="none" xmlns="http://www.w3.org/2000/svg">
<path d="M9.60005 1.80005C5.29805 1.80005 1.80005 5.29805 1.80005 9.60005V20.4C1.80005 24.702 5.29805 28.2 9.60005 28.2H20.4C24.702 28.2 28.2 24.702 28.2 20.4V9.60005C28.2 5.29805 24.702 1.80005 20.4 1.80005H9.60005ZM22.2 6.60005C22.86 6.60005 23.4 7.14005 23.4 7.80005C23.4 8.46005 22.86 9.00005 22.2 9.00005C21.54 9.00005 21 8.46005 21 7.80005C21 7.14005 21.54 6.60005 22.2 6.60005ZM15 8.40005C18.642 8.40005 21.6 11.358 21.6 15C21.6 18.642 18.642 21.6 15 21.6C11.358 21.6 8.40005 18.642 8.40005 15C8.40005 11.358 11.358 8.40005 15 8.40005ZM15 9.60005C12.024 9.60005 9.60005 12.024 9.60005 15C9.60005 17.976 12.024 20.4 15 20.4C17.976 20.4 20.4 17.976 20.4 15C20.4 12.024 17.976 9.60005 15 9.60005Z" fill="#7B6961"/>
</svg>
