<svg width="30" height="30" viewBox="0 0 30 30" fill="none" xmlns="http://www.w3.org/2000/svg">
<path d="M24.5999 2.3999H5.3999C3.7439 2.3999 2.3999 3.7439 2.3999 5.3999V24.5999C2.3999 26.2559 3.7439 27.5999 5.3999 27.5999H24.5999C26.2559 27.5999 27.5999 26.2559 27.5999 24.5999V5.3999C27.5999 3.7439 26.2559 2.3999 24.5999 2.3999ZM10.1999 11.9999V23.3999H6.5999V11.9999H10.1999ZM6.5999 8.6819C6.5999 7.8419 7.3199 7.1999 8.3999 7.1999C9.4799 7.1999 10.1579 7.8419 10.1999 8.6819C10.1999 9.5219 9.5279 10.1999 8.3999 10.1999C7.3199 10.1999 6.5999 9.5219 6.5999 8.6819ZM23.3999 23.3999H19.7999C19.7999 23.3999 19.7999 17.8439 19.7999 17.3999C19.7999 16.1999 19.1999 14.9999 17.6999 14.9759H17.6519C16.1999 14.9759 15.5999 16.2119 15.5999 17.3999C15.5999 17.9459 15.5999 23.3999 15.5999 23.3999H11.9999V11.9999H15.5999V13.5359C15.5999 13.5359 16.7579 11.9999 19.0859 11.9999C21.4679 11.9999 23.3999 13.6379 23.3999 16.9559V23.3999Z" fill="#7B6961"/>
</svg>
