<svg width="32" height="30" viewBox="0 0 32 30" fill="none" xmlns="http://www.w3.org/2000/svg">
<path d="M31.0375 6.26255C29.9289 6.75473 28.7406 7.0852 27.4914 7.2352C28.7664 6.47114 29.7461 5.26177 30.2055 3.8227C29.0148 4.52817 27.6906 5.04145 26.2867 5.31802C25.1617 4.11802 23.5586 3.37036 21.7844 3.37036C18.3766 3.37036 15.6133 6.1313 15.6133 9.53911C15.6133 10.0219 15.6695 10.493 15.775 10.9454C10.6469 10.6875 6.10234 8.2313 3.05781 4.49771C2.52578 5.41177 2.22344 6.47114 2.22344 7.60083C2.22344 9.74067 3.31094 11.6297 4.96797 12.7383C3.95547 12.7055 3.00391 12.4266 2.17188 11.9649C2.17188 11.9907 2.17188 12.0165 2.17188 12.0422C2.17188 15.0329 4.3 17.5243 7.11953 18.0938C6.60391 18.2344 6.05781 18.3094 5.49531 18.3094C5.09688 18.3094 4.71016 18.2719 4.33281 18.1969C5.12031 20.6461 7.39844 22.4344 10.0961 22.4836C7.98672 24.1383 5.32656 25.1227 2.43438 25.1227C1.93516 25.1227 1.44531 25.0946 0.964844 25.036C3.69297 26.7891 6.93672 27.8086 10.4219 27.8086C21.7703 27.8086 27.9766 18.4079 27.9766 10.2563C27.9766 9.98912 27.9695 9.71959 27.9602 9.45709C29.1648 8.58755 30.2102 7.50005 31.0375 6.26255Z" fill="#7B6961"/>
</svg>
