<svg width="19" height="19" viewBox="0 0 19 19" fill="none" xmlns="http://www.w3.org/2000/svg">
<g id="ion:people-sharp" clip-path="url(#clip0_10248_8767)">
<path id="Vector" d="M5.73254 9.01428C7.1327 9.01428 8.26776 7.87922 8.26776 6.47906C8.26776 5.0789 7.1327 3.94385 5.73254 3.94385C4.33238 3.94385 3.19733 5.0789 3.19733 6.47906C3.19733 7.87922 4.33238 9.01428 5.73254 9.01428Z" fill="#1C5D95"/>
<path id="Vector_2" d="M8.61987 10.423C7.62832 9.91945 6.53395 9.71875 5.73254 9.71875C4.16282 9.71875 0.943802 10.6814 0.943802 12.6061V14.085H6.2255V13.5191C6.2255 12.8501 6.50719 12.1793 7.00015 11.6202C7.39346 11.1737 7.94416 10.7592 8.61987 10.423Z" fill="#1C5D95"/>
<path id="Vector_3" d="M12.3522 10.1406C10.5188 10.1406 6.85925 11.273 6.85925 13.5209V15.2111H17.8452V13.5209C17.8452 11.273 14.1857 10.1406 12.3522 10.1406Z" fill="#1C5D95"/>
<path id="Vector_4" d="M12.3521 9.01408C14.0634 9.01408 15.4507 7.6268 15.4507 5.91549C15.4507 4.20418 14.0634 2.81689 12.3521 2.81689C10.6408 2.81689 9.25346 4.20418 9.25346 5.91549C9.25346 7.6268 10.6408 9.01408 12.3521 9.01408Z" fill="#1C5D95"/>
</g>
<defs>
<clipPath id="clip0_10248_8767">
<rect width="18.0282" height="18.0282" fill="white" transform="translate(0.379883)"/>
</clipPath>
</defs>
</svg>
