<svg width="27" height="18" viewBox="0 0 27 18" fill="none" xmlns="http://www.w3.org/2000/svg">
<g clip-path="url(#clip0_9614_15053)">
<mask id="path-1-inside-1_9614_15053" fill="white">
<path d="M17.752 8.625H16.5645C16.407 8.625 16.256 8.68755 16.1447 8.7989C16.0333 8.91025 15.9708 9.06128 15.9708 9.21875C15.9708 9.37622 16.0333 9.52724 16.1447 9.63859C16.256 9.74994 16.407 9.8125 16.5645 9.8125V11H15.8603C15.9309 10.8099 15.968 10.609 15.9702 10.4062C15.9701 10.0141 15.8408 9.63301 15.6021 9.32194C15.3634 9.01087 15.0287 8.78726 14.6499 8.68577C14.2712 8.58429 13.8696 8.61061 13.5073 8.76065C13.145 8.91069 12.8424 9.17607 12.6464 9.51562C12.6067 9.58318 12.5809 9.65789 12.5703 9.73548C12.5597 9.81306 12.5645 9.89197 12.5845 9.96767C12.6046 10.0434 12.6393 10.1144 12.6869 10.1766C12.7345 10.2388 12.7939 10.291 12.8617 10.3301C12.9295 10.3693 13.0044 10.3946 13.082 10.4047C13.1597 10.4148 13.2386 10.4094 13.3141 10.3889C13.3897 10.3684 13.4605 10.3331 13.5224 10.2852C13.5842 10.2372 13.636 10.1774 13.6747 10.1094C13.7268 10.0191 13.8018 9.94416 13.892 9.89205C13.9823 9.83994 14.0847 9.8125 14.1889 9.8125C14.3464 9.8125 14.4974 9.87505 14.6088 9.9864C14.7201 10.0978 14.7827 10.2488 14.7827 10.4062C14.7827 10.5637 14.7201 10.7147 14.6088 10.8261C14.4974 10.9374 14.3464 11 14.1889 11C14.0314 11 13.8804 11.0626 13.7691 11.1739C13.6577 11.2853 13.5952 11.4363 13.5952 11.5938C13.5952 11.7512 13.6577 11.9022 13.7691 12.0136C13.8804 12.1249 14.0314 12.1875 14.1889 12.1875C14.3464 12.1875 14.4974 12.2501 14.6088 12.3614C14.7201 12.4728 14.7827 12.6238 14.7827 12.7812C14.7827 12.9387 14.7201 13.0897 14.6088 13.2011C14.4974 13.3124 14.3464 13.375 14.1889 13.375C14.0847 13.375 13.9823 13.3476 13.892 13.2954C13.8018 13.2433 13.7268 13.1684 13.6747 13.0781C13.636 13.0101 13.5842 12.9503 13.5224 12.9023C13.4605 12.8544 13.3897 12.8191 13.3141 12.7986C13.2386 12.7781 13.1597 12.7727 13.082 12.7828C13.0044 12.7929 12.9295 12.8182 12.8617 12.8574C12.7939 12.8965 12.7345 12.9487 12.6869 13.0109C12.6393 13.0731 12.6046 13.1441 12.5845 13.2198C12.5645 13.2955 12.5597 13.3744 12.5703 13.452C12.5809 13.5296 12.6067 13.6043 12.6464 13.6719C12.8424 14.0114 13.145 14.2768 13.5073 14.4269C13.8696 14.5769 14.2712 14.6032 14.6499 14.5017C15.0287 14.4002 15.3634 14.1766 15.6021 13.8656C15.8408 13.5545 15.9701 13.1733 15.9702 12.7812C15.968 12.5785 15.9309 12.3776 15.8603 12.1875H16.5639V13.9688C16.5639 14.1262 16.6265 14.2772 16.7378 14.3886C16.8492 14.4999 17.0002 14.5625 17.1577 14.5625C17.3151 14.5625 17.4662 14.4999 17.5775 14.3886C17.6889 14.2772 17.7514 14.1262 17.7514 13.9688V9.8125C17.9089 9.8125 18.0599 9.74994 18.1713 9.63859C18.2826 9.52724 18.3452 9.37622 18.3452 9.21875C18.3452 9.06128 18.2826 8.91025 18.1713 8.7989C18.0599 8.68755 17.9095 8.625 17.752 8.625ZM10.6448 8.17553C10.6633 8.25165 10.6967 8.32335 10.743 8.38651C10.7893 8.44968 10.8477 8.50305 10.9147 8.54355C10.9818 8.58406 11.0562 8.6109 11.1336 8.62253C11.2111 8.63416 11.2901 8.63035 11.3661 8.61132C11.4421 8.59228 11.5135 8.5584 11.5763 8.51163C11.6392 8.46485 11.6921 8.40611 11.7322 8.33878C11.7722 8.27145 11.7985 8.19686 11.8096 8.11932C11.8206 8.04178 11.8163 7.96281 11.7967 7.88697L10.7535 3.71291C10.6805 3.4197 10.5115 3.15934 10.2735 2.97327C10.0354 2.7872 9.74195 2.68612 9.4398 2.68612C9.13766 2.68612 8.84419 2.7872 8.60613 2.97327C8.36808 3.15934 8.19911 3.4197 8.12613 3.71291L7.08232 7.88697C7.06274 7.96281 7.05837 8.04178 7.06944 8.11932C7.08052 8.19686 7.10683 8.27145 7.14686 8.33878C7.18688 8.40611 7.23984 8.46485 7.30267 8.51163C7.3655 8.5584 7.43696 8.59228 7.51294 8.61132C7.58892 8.63035 7.66792 8.63416 7.74538 8.62253C7.82284 8.6109 7.89724 8.58406 7.96428 8.54355C8.03132 8.50305 8.08968 8.44968 8.13601 8.38651C8.18233 8.32335 8.2157 8.25165 8.23419 8.17553L8.5661 6.84375H10.3117L10.6448 8.17553ZM8.86357 5.65625L9.27741 4.00147C9.28989 3.96858 9.31208 3.94027 9.34104 3.92029C9.36999 3.90031 9.40433 3.88961 9.43951 3.88961C9.47468 3.88961 9.50903 3.90031 9.53798 3.92029C9.56693 3.94027 9.58912 3.96858 9.6016 4.00147L10.0154 5.65625H8.86357ZM13.5958 5.65625H14.1895C14.3469 5.65641 14.4979 5.71901 14.6092 5.83033C14.7205 5.94164 14.7831 6.09258 14.7833 6.25V6.84375C14.7833 7.00122 14.8458 7.15224 14.9572 7.26359C15.0685 7.37494 15.2195 7.4375 15.377 7.4375C15.5345 7.4375 15.6855 7.37494 15.7969 7.26359C15.9082 7.15224 15.9708 7.00122 15.9708 6.84375V6.25C15.9703 5.77773 15.7825 5.32493 15.4485 4.99099C15.1146 4.65704 14.6618 4.46922 14.1895 4.46875H13.5958C13.4383 4.46875 13.2873 4.5313 13.1759 4.64265C13.0646 4.754 13.002 4.90503 13.002 5.0625C13.002 5.21997 13.0646 5.37099 13.1759 5.48234C13.2873 5.59369 13.4383 5.65625 13.5958 5.65625ZM11.2208 11H10.627C10.4696 10.9998 10.3187 10.9372 10.2073 10.8259C10.096 10.7146 10.0334 10.5637 10.0333 10.4062V9.8125C10.0333 9.65503 9.9707 9.504 9.85935 9.39265C9.748 9.2813 9.59698 9.21875 9.43951 9.21875C9.28203 9.21875 9.13101 9.2813 9.01966 9.39265C8.90831 9.504 8.84576 9.65503 8.84576 9.8125V10.4062C8.84623 10.8785 9.03405 11.3313 9.36799 11.6653C9.70194 11.9992 10.1547 12.187 10.627 12.1875H11.2208C11.3782 12.1875 11.5293 12.1249 11.6406 12.0136C11.752 11.9022 11.8145 11.7512 11.8145 11.5938C11.8145 11.4363 11.752 11.2853 11.6406 11.1739C11.5293 11.0626 11.3782 11 11.2208 11Z"/>
</mask>
<path d="M17.752 8.625H16.5645C16.407 8.625 16.256 8.68755 16.1447 8.7989C16.0333 8.91025 15.9708 9.06128 15.9708 9.21875C15.9708 9.37622 16.0333 9.52724 16.1447 9.63859C16.256 9.74994 16.407 9.8125 16.5645 9.8125V11H15.8603C15.9309 10.8099 15.968 10.609 15.9702 10.4062C15.9701 10.0141 15.8408 9.63301 15.6021 9.32194C15.3634 9.01087 15.0287 8.78726 14.6499 8.68577C14.2712 8.58429 13.8696 8.61061 13.5073 8.76065C13.145 8.91069 12.8424 9.17607 12.6464 9.51562C12.6067 9.58318 12.5809 9.65789 12.5703 9.73548C12.5597 9.81306 12.5645 9.89197 12.5845 9.96767C12.6046 10.0434 12.6393 10.1144 12.6869 10.1766C12.7345 10.2388 12.7939 10.291 12.8617 10.3301C12.9295 10.3693 13.0044 10.3946 13.082 10.4047C13.1597 10.4148 13.2386 10.4094 13.3141 10.3889C13.3897 10.3684 13.4605 10.3331 13.5224 10.2852C13.5842 10.2372 13.636 10.1774 13.6747 10.1094C13.7268 10.0191 13.8018 9.94416 13.892 9.89205C13.9823 9.83994 14.0847 9.8125 14.1889 9.8125C14.3464 9.8125 14.4974 9.87505 14.6088 9.9864C14.7201 10.0978 14.7827 10.2488 14.7827 10.4062C14.7827 10.5637 14.7201 10.7147 14.6088 10.8261C14.4974 10.9374 14.3464 11 14.1889 11C14.0314 11 13.8804 11.0626 13.7691 11.1739C13.6577 11.2853 13.5952 11.4363 13.5952 11.5938C13.5952 11.7512 13.6577 11.9022 13.7691 12.0136C13.8804 12.1249 14.0314 12.1875 14.1889 12.1875C14.3464 12.1875 14.4974 12.2501 14.6088 12.3614C14.7201 12.4728 14.7827 12.6238 14.7827 12.7812C14.7827 12.9387 14.7201 13.0897 14.6088 13.2011C14.4974 13.3124 14.3464 13.375 14.1889 13.375C14.0847 13.375 13.9823 13.3476 13.892 13.2954C13.8018 13.2433 13.7268 13.1684 13.6747 13.0781C13.636 13.0101 13.5842 12.9503 13.5224 12.9023C13.4605 12.8544 13.3897 12.8191 13.3141 12.7986C13.2386 12.7781 13.1597 12.7727 13.082 12.7828C13.0044 12.7929 12.9295 12.8182 12.8617 12.8574C12.7939 12.8965 12.7345 12.9487 12.6869 13.0109C12.6393 13.0731 12.6046 13.1441 12.5845 13.2198C12.5645 13.2955 12.5597 13.3744 12.5703 13.452C12.5809 13.5296 12.6067 13.6043 12.6464 13.6719C12.8424 14.0114 13.145 14.2768 13.5073 14.4269C13.8696 14.5769 14.2712 14.6032 14.6499 14.5017C15.0287 14.4002 15.3634 14.1766 15.6021 13.8656C15.8408 13.5545 15.9701 13.1733 15.9702 12.7812C15.968 12.5785 15.9309 12.3776 15.8603 12.1875H16.5639V13.9688C16.5639 14.1262 16.6265 14.2772 16.7378 14.3886C16.8492 14.4999 17.0002 14.5625 17.1577 14.5625C17.3151 14.5625 17.4662 14.4999 17.5775 14.3886C17.6889 14.2772 17.7514 14.1262 17.7514 13.9688V9.8125C17.9089 9.8125 18.0599 9.74994 18.1713 9.63859C18.2826 9.52724 18.3452 9.37622 18.3452 9.21875C18.3452 9.06128 18.2826 8.91025 18.1713 8.7989C18.0599 8.68755 17.9095 8.625 17.752 8.625ZM10.6448 8.17553C10.6633 8.25165 10.6967 8.32335 10.743 8.38651C10.7893 8.44968 10.8477 8.50305 10.9147 8.54355C10.9818 8.58406 11.0562 8.6109 11.1336 8.62253C11.2111 8.63416 11.2901 8.63035 11.3661 8.61132C11.4421 8.59228 11.5135 8.5584 11.5763 8.51163C11.6392 8.46485 11.6921 8.40611 11.7322 8.33878C11.7722 8.27145 11.7985 8.19686 11.8096 8.11932C11.8206 8.04178 11.8163 7.96281 11.7967 7.88697L10.7535 3.71291C10.6805 3.4197 10.5115 3.15934 10.2735 2.97327C10.0354 2.7872 9.74195 2.68612 9.4398 2.68612C9.13766 2.68612 8.84419 2.7872 8.60613 2.97327C8.36808 3.15934 8.19911 3.4197 8.12613 3.71291L7.08232 7.88697C7.06274 7.96281 7.05837 8.04178 7.06944 8.11932C7.08052 8.19686 7.10683 8.27145 7.14686 8.33878C7.18688 8.40611 7.23984 8.46485 7.30267 8.51163C7.3655 8.5584 7.43696 8.59228 7.51294 8.61132C7.58892 8.63035 7.66792 8.63416 7.74538 8.62253C7.82284 8.6109 7.89724 8.58406 7.96428 8.54355C8.03132 8.50305 8.08968 8.44968 8.13601 8.38651C8.18233 8.32335 8.2157 8.25165 8.23419 8.17553L8.5661 6.84375H10.3117L10.6448 8.17553ZM8.86357 5.65625L9.27741 4.00147C9.28989 3.96858 9.31208 3.94027 9.34104 3.92029C9.36999 3.90031 9.40433 3.88961 9.43951 3.88961C9.47468 3.88961 9.50903 3.90031 9.53798 3.92029C9.56693 3.94027 9.58912 3.96858 9.6016 4.00147L10.0154 5.65625H8.86357ZM13.5958 5.65625H14.1895C14.3469 5.65641 14.4979 5.71901 14.6092 5.83033C14.7205 5.94164 14.7831 6.09258 14.7833 6.25V6.84375C14.7833 7.00122 14.8458 7.15224 14.9572 7.26359C15.0685 7.37494 15.2195 7.4375 15.377 7.4375C15.5345 7.4375 15.6855 7.37494 15.7969 7.26359C15.9082 7.15224 15.9708 7.00122 15.9708 6.84375V6.25C15.9703 5.77773 15.7825 5.32493 15.4485 4.99099C15.1146 4.65704 14.6618 4.46922 14.1895 4.46875H13.5958C13.4383 4.46875 13.2873 4.5313 13.1759 4.64265C13.0646 4.754 13.002 4.90503 13.002 5.0625C13.002 5.21997 13.0646 5.37099 13.1759 5.48234C13.2873 5.59369 13.4383 5.65625 13.5958 5.65625ZM11.2208 11H10.627C10.4696 10.9998 10.3187 10.9372 10.2073 10.8259C10.096 10.7146 10.0334 10.5637 10.0333 10.4062V9.8125C10.0333 9.65503 9.9707 9.504 9.85935 9.39265C9.748 9.2813 9.59698 9.21875 9.43951 9.21875C9.28203 9.21875 9.13101 9.2813 9.01966 9.39265C8.90831 9.504 8.84576 9.65503 8.84576 9.8125V10.4062C8.84623 10.8785 9.03405 11.3313 9.36799 11.6653C9.70194 11.9992 10.1547 12.187 10.627 12.1875H11.2208C11.3782 12.1875 11.5293 12.1249 11.6406 12.0136C11.752 11.9022 11.8145 11.7512 11.8145 11.5938C11.8145 11.4363 11.752 11.2853 11.6406 11.1739C11.5293 11.0626 11.3782 11 11.2208 11Z" fill="black" stroke="white" stroke-width="0.4" mask="url(#path-1-inside-1_9614_15053)"/>
<path d="M-4737.78 744.5V745.5H-4736.78V744.5H-4737.78ZM-4737.78 -1113.5V-1114.5H-4738.78V-1113.5H-4737.78ZM2482.25 -1113.5H2483.25V-1114.5H2482.25V-1113.5ZM2482.25 -244.761L2488.02 -254.761H2476.48L2482.25 -244.761ZM-5635.75 745.5H-4737.78V743.5H-5635.75V745.5ZM-4736.78 744.5V-1113.5H-4738.78V744.5H-4736.78ZM-4737.78 -1112.5H2482.25V-1114.5H-4737.78V-1112.5ZM2481.25 -1113.5V-253.761H2483.25V-1113.5H2481.25Z" fill="black"/>
</g>
<rect x="0.5" y="0.5" width="25.25" height="17" rx="8.5" stroke="black"/>
<defs>
<clipPath id="clip0_9614_15053">
<rect width="14.25" height="14.25" fill="white" transform="translate(5.25 1.5)"/>
</clipPath>
</defs>
</svg>
