<svg width="26" height="36" viewBox="0 0 26 36" fill="none" xmlns="http://www.w3.org/2000/svg">
<g clip-path="url(#clip0_7028_307)">
<g clip-path="url(#clip1_7028_307)">
<path d="M0 17.9191C0 12.7608 0 7.62055 0 2.46229C0 1.41985 0.389463 0.629041 1.34542 0.197688C1.62866 0.0718769 1.96502 -1.52588e-05 2.28367 -1.52588e-05C7.64763 -1.52588e-05 13.0116 -1.52588e-05 18.3756 -1.52588e-05C18.6057 -1.52588e-05 18.8889 0.125796 19.0483 0.287553C21.1726 2.42635 23.2792 4.56514 25.4036 6.70393C25.6514 6.93758 25.6868 7.22515 25.6868 7.53069C25.6868 14.3425 25.6868 21.1722 25.6868 27.984C25.6868 29.7633 25.6868 31.5427 25.6868 33.304C25.6868 34.8857 24.784 35.8023 23.2261 35.8023C16.322 35.8023 9.40021 35.8023 2.4961 35.8023C0.938251 35.8023 0.0354057 34.8857 0.0354057 33.304C0.0354057 28.1637 0.0354057 23.0234 0.0354057 17.8832L0 17.9191ZM17.9861 1.11431C17.8091 1.11431 17.7028 1.11431 17.5966 1.11431C12.5513 1.11431 7.50601 1.11431 2.44299 1.11431C1.52244 1.11431 1.09758 1.54567 1.09758 2.46229C1.09758 12.7429 1.09758 23.0414 1.09758 33.322C1.09758 34.2566 1.52244 34.688 2.42529 34.688C9.3471 34.688 16.2689 34.688 23.1907 34.688C24.1467 34.688 24.5361 34.2746 24.5361 33.322C24.5361 24.9466 24.5361 16.5711 24.5361 8.21366V7.80028C24.3591 7.80028 24.2352 7.80028 24.1113 7.80028C22.8544 7.80028 21.5798 7.80028 20.3229 7.80028C18.8712 7.80028 17.9507 6.84771 17.9507 5.3919C17.9507 4.81676 17.9507 4.24162 17.9507 3.66648C17.9507 2.83973 17.9507 1.99499 17.9507 1.13229L17.9861 1.11431ZM23.5979 6.66798C22.0931 5.14027 20.5707 3.61257 19.1014 2.10283C19.1014 3.19919 19.1014 4.38541 19.1014 5.57163C19.1014 6.16474 19.5616 6.65001 20.1635 6.65001C21.3319 6.66798 22.5003 6.65001 23.5979 6.65001V6.66798Z" fill="#A1A1A1"/>
<path d="M23.2792 36H2.54921C0.955954 36 0 35.0295 0 33.4119C0 28.2716 0 23.1313 0 17.991V13.5696C0 9.90315 0 6.23664 0 2.55217C0 1.41987 0.460274 0.629056 1.39852 0.215676C1.68177 0.0898652 2.03583 0 2.37218 0C8.01939 0 13.2771 0 18.4641 0C18.7119 0 19.0129 0.125811 19.1899 0.305542C20.5176 1.63555 21.863 3.0015 23.1553 4.31353C23.9519 5.12232 24.7486 5.91313 25.5275 6.72192C25.7753 6.97354 25.8284 7.26111 25.8284 7.62057C25.8284 12.7429 25.8284 17.8472 25.8284 22.9695V28.0919C25.8284 29.8712 25.8284 31.6505 25.8284 33.4119C25.8284 35.0295 24.8725 36 23.2792 36ZM9.87819 0.17973C7.43519 0.17973 4.93909 0.17973 2.37218 0.17973C2.05353 0.17973 1.73488 0.251623 1.46934 0.359461C0.601897 0.772841 0.177028 1.47379 0.177028 2.55217C0.177028 6.23664 0.177028 9.90314 0.177028 13.5876V18.009C0.177028 23.1493 0.177028 28.2896 0.177028 33.4299C0.177028 34.9576 1.04447 35.8382 2.54921 35.8382H23.2792C24.784 35.8382 25.6514 34.9576 25.6514 33.4299C25.6514 31.6505 25.6514 29.8712 25.6514 28.1098V22.9875C25.6514 17.8652 25.6514 12.7609 25.6514 7.63854C25.6514 7.31503 25.616 7.08138 25.4036 6.8657C24.607 6.05691 23.8103 5.2661 23.0314 4.45731C21.7391 3.14528 20.3937 1.77933 19.066 0.449326C18.9243 0.305542 18.6588 0.197703 18.4641 0.197703C15.6493 0.197703 12.8169 0.197703 9.89589 0.197703L9.87819 0.17973ZM23.2969 34.8857H2.53151C1.55785 34.8857 1.11528 34.4184 1.11528 33.4299V2.57014C1.11528 1.58163 1.57555 1.1323 2.54921 1.1323H18.1808V5.49975C18.1808 6.91962 19.066 7.81827 20.4645 7.81827C21.3319 7.81827 22.1994 7.81827 23.0668 7.81827H24.7663V33.4299C24.7663 34.4363 24.3237 34.8857 23.3146 34.8857H23.2969ZM2.53151 1.29406C1.64636 1.29406 1.2746 1.67149 1.2746 2.55217V33.4119C1.2746 34.3105 1.64636 34.688 2.5138 34.688H23.2792C24.1821 34.688 24.5538 34.3105 24.5538 33.4119V7.98003H23.0314C22.164 7.98003 21.2965 7.98003 20.4291 7.98003C18.942 7.98003 17.9684 6.99151 17.9684 5.48178C17.9684 5.10434 17.9684 4.70894 17.9684 4.3315V1.29406H2.53151ZM21.7214 6.84773C21.2434 6.84773 20.7477 6.84773 20.2521 6.84773C19.597 6.84773 19.1014 6.32651 19.1014 5.67948C19.1014 4.83475 19.1014 3.97204 19.1014 3.14528C19.1014 2.82177 19.1014 2.49825 19.1014 2.19271V1.97703L20.3406 3.23515C21.4735 4.38542 22.6242 5.55367 23.7572 6.70394L23.9165 6.84773H23.7041C23.0668 6.84773 22.4118 6.84773 21.7391 6.84773H21.7214ZM19.2784 2.40839C19.2784 2.64204 19.2784 2.89366 19.2784 3.14528C19.2784 3.97204 19.2784 4.81677 19.2784 5.67948C19.2784 6.23665 19.7033 6.668 20.2521 6.668C21.0841 6.668 21.9161 6.668 22.7305 6.668C22.9783 6.668 23.2261 6.668 23.474 6.668C22.3941 5.57164 21.2965 4.45731 20.1989 3.34299L19.2607 2.39041L19.2784 2.40839Z" fill="#A1A1A1"/>
<path d="M11.616 23.999H8.077C6.949 23.999 5.98767 23.6093 5.193 22.8298C4.39833 22.0504 4.00067 21.1071 4 20C3.99933 18.8929 4.397 17.9496 5.193 17.1702C5.989 16.3907 6.95033 16.0007 8.077 16H11.616V16.9809H8.077C7.23033 16.9809 6.506 17.2764 5.904 17.8676C5.30133 18.4594 5 19.1702 5 20C5 20.8298 5.30133 21.5403 5.904 22.1314C6.50667 22.7226 7.231 23.0181 8.077 23.0181H11.616V23.999ZM9.5 20.4904V19.5096H16.5V20.4904H9.5ZM14.385 23.999V23.0181H17.923C18.7697 23.0181 19.494 22.7226 20.096 22.1314C20.6987 21.5403 21 20.8298 21 20C21 19.1702 20.6987 18.4597 20.096 17.8686C19.4933 17.2774 18.769 16.9819 17.923 16.9819H14.385V16.001H17.923C19.051 16.001 20.0127 16.3907 20.808 17.1702C21.6033 17.9496 22.0007 18.8929 22 20C21.9993 21.1071 21.6017 22.0504 20.807 22.8298C20.0123 23.6093 19.051 23.9993 17.923 24L14.385 23.999Z" fill="#A1A1A1"/>
</g>
</g>
<defs>
<clipPath id="clip0_7028_307">
<rect width="26" height="36" fill="white"/>
</clipPath>
<clipPath id="clip1_7028_307">
<rect width="25.8462" height="36" fill="white"/>
</clipPath>
</defs>
</svg>
