<svg width="21" height="21" viewBox="0 0 21 21" fill="none" xmlns="http://www.w3.org/2000/svg">
<g id="material-symbols:book-outline">
<path id="Vector" d="M3.484 17.0703V17.0702V3.54903C3.484 3.11206 3.6385 2.7404 3.95045 2.42845C4.2624 2.11651 4.63373 1.96231 5.07006 1.96284H5.07019H15.211C15.648 1.96284 16.0197 2.11735 16.3316 2.4293C16.6436 2.74124 16.7978 3.11258 16.7972 3.54891V3.54903V17.0702C16.7972 17.5071 16.6427 17.8788 16.3308 18.1908C16.0188 18.5027 15.6475 18.6569 15.2112 18.6564H15.211H5.07019C4.63321 18.6564 4.26155 18.5019 3.94961 18.1899C3.63766 17.878 3.48347 17.5066 3.484 17.0703ZM4.96623 17.0702V17.1741H5.07019H15.211H15.315V17.0702V3.54903V3.44508H15.211H13.5209H13.417V3.54903V9.28093L11.4617 8.10779L11.4082 8.0757L11.3547 8.10779L9.3995 9.28093V3.54903V3.44508H9.29555H5.07019H4.96623V3.54903V17.0702Z" fill="#1C5D95" stroke="white" stroke-width="0.207906"/>
</g>
</svg>
