<svg width="22" height="22" viewBox="0 0 22 22" fill="none" xmlns="http://www.w3.org/2000/svg">
<path d="M3.62839 17.683V17.6829V3.53662C3.62839 3.07503 3.79181 2.682 4.12124 2.35257C4.45068 2.02314 4.84337 1.86004 5.3043 1.8606H5.30441H15.9141C16.3757 1.8606 16.7687 2.02402 17.0981 2.35345C17.4276 2.68289 17.5907 3.07558 17.5901 3.53651V3.53662V17.6829C17.5901 18.1444 17.4267 18.5375 17.0973 18.8669C16.7678 19.1963 16.3751 19.3594 15.9142 19.3589H15.9141H5.30441C4.84282 19.3589 4.4498 19.1955 4.12036 18.866C3.79093 18.5366 3.62783 18.1439 3.62839 17.683ZM5.21216 17.6829V17.7751H5.30441H15.9141H16.0063V17.6829V3.53662V3.44436H15.9141H14.1458H14.0536V3.53662V9.56266L11.9829 8.32028L11.9355 8.2918L11.888 8.32028L9.81737 9.56266V3.53662V3.44436H9.72511H5.30441H5.21216V3.53662V17.6829Z" fill="#808080" stroke="white" stroke-width="0.184516"/>
</svg>
