<svg width="17" height="20" viewBox="0 0 17 20" fill="none" xmlns="http://www.w3.org/2000/svg">
<path d="M1.91502 14.1686L1.9504 14.1322V14.0814V8.44877C1.9504 5.5915 3.74184 3.10659 6.42575 2.27841L6.51389 2.25121V2.15897V1.87734C6.51389 0.910377 7.28265 0.124786 8.21429 0.124786C9.14592 0.124786 9.91468 0.910377 9.91468 1.87734V2.15897V2.25121L10.0028 2.27841C12.6867 3.10659 14.4782 5.5915 14.4782 8.44877V14.0814V14.1322L14.5136 14.1686L16.3036 16.0097V16.7727H0.125V16.0097L1.91502 14.1686ZM3.52579 15.0202V15.1452H3.65079H12.7778H12.9028V15.0202V8.44877C12.9028 5.7545 10.8422 3.62989 8.21429 3.62989C5.5864 3.62989 3.52579 5.7545 3.52579 8.44877V15.0202ZM9.91038 17.9615C9.84755 18.8703 9.10543 19.5891 8.21429 19.5891C7.32314 19.5891 6.58102 18.8703 6.5182 17.9615H9.91038Z" fill="#808080" stroke="white" stroke-width="0.25"/>
</svg>
