<svg width="27" height="36" viewBox="0 0 27 36" fill="none" xmlns="http://www.w3.org/2000/svg">
<g clip-path="url(#clip0_7028_267)">
<path d="M0.0924683 18.009C0.0924683 12.8507 0.0924683 7.71041 0.0924683 2.55215C0.0924683 1.50971 0.499318 0.7189 1.49795 0.287547C1.79384 0.161736 2.14521 0.0898438 2.47808 0.0898438C8.08151 0.0898438 13.6849 0.0898438 19.2884 0.0898438C19.5288 0.0898438 19.8247 0.215655 19.9911 0.377412C22.2103 2.5162 24.411 4.655 26.6301 6.79379C26.889 7.02744 26.926 7.31501 26.926 7.62055C26.926 14.4323 26.926 21.2621 26.926 28.0739C26.926 29.8532 26.926 31.6325 26.926 33.3939C26.926 34.9755 25.9829 35.8921 24.3555 35.8921C17.1432 35.8921 9.91233 35.8921 2.7 35.8921C1.07261 35.8921 0.129455 34.9755 0.129455 33.3939C0.129455 28.2536 0.129455 23.1133 0.129455 17.973L0.0924683 18.009ZM18.8815 1.20417C18.6966 1.20417 18.5856 1.20417 18.4747 1.20417C13.2041 1.20417 7.93356 1.20417 2.64452 1.20417C1.68288 1.20417 1.23904 1.63553 1.23904 2.55215C1.23904 12.8327 1.23904 23.1313 1.23904 33.4119C1.23904 34.3465 1.68288 34.7778 2.62603 34.7778C9.85685 34.7778 17.0877 34.7778 24.3185 34.7778C25.3171 34.7778 25.724 34.3644 25.724 33.4119C25.724 25.0364 25.724 16.661 25.724 8.30352V7.89014C25.539 7.89014 25.4096 7.89014 25.2801 7.89014C23.9671 7.89014 22.6356 7.89014 21.3226 7.89014C19.8062 7.89014 18.8445 6.93757 18.8445 5.48176C18.8445 4.90662 18.8445 4.33148 18.8445 3.75634C18.8445 2.92958 18.8445 2.08485 18.8445 1.22215L18.8815 1.20417ZM24.7438 6.75784C23.1719 5.23013 21.5815 3.70243 20.0466 2.19269C20.0466 3.28905 20.0466 4.47527 20.0466 5.66149C20.0466 6.2546 20.5274 6.73987 21.1562 6.73987C22.3767 6.75784 23.5973 6.73987 24.7438 6.73987V6.75784Z" fill="#A1A1A1"/>
<path d="M24.3185 36H2.66301C0.99863 36 0 35.0295 0 33.4119C0 28.2716 0 23.1313 0 17.991V13.5696C0 9.90315 0 6.23664 0 2.55217C0 1.41987 0.480822 0.629056 1.46096 0.215676C1.75685 0.0898652 2.12671 0 2.47808 0C8.3774 0 13.8699 0 19.2884 0C19.5473 0 19.8616 0.125811 20.0466 0.305542C21.4336 1.63555 22.839 3.0015 24.189 4.31353C25.0212 5.12232 25.8534 5.91313 26.6671 6.72192C26.926 6.97354 26.9815 7.26111 26.9815 7.62057C26.9815 12.7429 26.9815 17.8472 26.9815 22.9695V28.0919C26.9815 29.8712 26.9815 31.6505 26.9815 33.4119C26.9815 35.0295 25.9829 36 24.3185 36ZM10.3192 0.17973C7.76712 0.17973 5.15959 0.17973 2.47808 0.17973C2.14521 0.17973 1.81233 0.251623 1.53493 0.359461C0.628767 0.772841 0.184932 1.47379 0.184932 2.55217C0.184932 6.23664 0.184932 9.90314 0.184932 13.5876V18.009C0.184932 23.1493 0.184932 28.2896 0.184932 33.4299C0.184932 34.9576 1.0911 35.8382 2.66301 35.8382H24.3185C25.8904 35.8382 26.7966 34.9576 26.7966 33.4299C26.7966 31.6505 26.7966 29.8712 26.7966 28.1098V22.9875C26.7966 17.8652 26.7966 12.7609 26.7966 7.63854C26.7966 7.31503 26.7596 7.08138 26.5377 6.8657C25.7055 6.05691 24.8733 5.2661 24.0596 4.45731C22.7096 3.14528 21.3041 1.77933 19.9171 0.449326C19.7692 0.305542 19.4918 0.197703 19.2884 0.197703C16.3479 0.197703 13.389 0.197703 10.3377 0.197703L10.3192 0.17973ZM24.337 34.8857H2.64452C1.6274 34.8857 1.16507 34.4184 1.16507 33.4299V2.57014C1.16507 1.58163 1.64589 1.1323 2.66301 1.1323H18.9925V5.49975C18.9925 6.91962 19.9171 7.81827 21.3781 7.81827C22.2842 7.81827 23.1904 7.81827 24.0966 7.81827H25.8719V33.4299C25.8719 34.4363 25.4096 34.8857 24.3555 34.8857H24.337ZM2.64452 1.29406C1.71986 1.29406 1.33151 1.67149 1.33151 2.55217V33.4119C1.33151 34.3105 1.71986 34.688 2.62603 34.688H24.3185C25.2616 34.688 25.65 34.3105 25.65 33.4119V7.98003H24.0596C23.1534 7.98003 22.2473 7.98003 21.3411 7.98003C19.7877 7.98003 18.7705 6.99151 18.7705 5.48178C18.7705 5.10434 18.7705 4.70894 18.7705 4.3315V1.29406H2.64452ZM22.6911 6.84773C22.1918 6.84773 21.674 6.84773 21.1562 6.84773C20.4719 6.84773 19.9541 6.32651 19.9541 5.67948C19.9541 4.83475 19.9541 3.97204 19.9541 3.14528C19.9541 2.82177 19.9541 2.49825 19.9541 2.19271V1.97703L21.2486 3.23515C22.4322 4.38542 23.6342 5.55367 24.8178 6.70394L24.9842 6.84773H24.7623C24.0966 6.84773 23.4123 6.84773 22.7096 6.84773H22.6911ZM20.139 2.40839C20.139 2.64204 20.139 2.89366 20.139 3.14528C20.139 3.97204 20.139 4.81677 20.139 5.67948C20.139 6.23665 20.5829 6.668 21.1562 6.668C22.0253 6.668 22.8945 6.668 23.7452 6.668C24.0041 6.668 24.263 6.668 24.5219 6.668C23.3938 5.57164 22.2473 4.45731 21.1007 3.34299L20.1205 2.39041L20.139 2.40839Z" fill="#A1A1A1"/>
<path d="M13.1429 24.4035C15.599 24.4035 18.055 24.4035 20.5111 24.4035C21.1397 24.4035 21.3005 24.231 21.3005 23.6127C21.3005 21.0102 21.3005 18.4077 21.3005 15.8052C21.3005 15.1725 21.1397 15 20.4964 15C15.599 15 10.7015 15 5.80406 15C5.16081 15 5 15.1582 5 15.8052C5 18.4077 5 21.0102 5 23.6127C5 24.231 5.17543 24.4035 5.78944 24.4035C8.24548 24.4035 10.7015 24.4035 13.1576 24.4035H13.1429Z" fill="white" stroke="#A1A1A1" stroke-width="0.5" stroke-miterlimit="10"/>
<path d="M11.681 22.1461V17.4012C12.5874 17.4443 13.4646 17.4299 14.3417 17.5593C14.985 17.6456 15.3651 18.1489 15.5551 18.7528C15.8037 19.5579 15.8183 20.3775 15.4528 21.1683C15.2043 21.7291 14.7511 22.1029 14.1517 22.1461C13.3476 22.2036 12.5289 22.1604 11.681 22.1604V22.1461ZM12.6605 21.384C13.0406 21.384 13.4207 21.4128 13.7862 21.384C14.2686 21.3409 14.5464 21.1252 14.6195 20.6507C14.678 20.1906 14.7072 19.7161 14.6634 19.256C14.6195 18.6952 14.3125 18.3645 13.8154 18.307C13.4353 18.2639 13.0552 18.307 12.6605 18.307V21.3984V21.384Z" fill="#A1A1A1"/>
<path d="M7.1929 17.4156C8.08468 17.4443 8.96184 17.4587 9.82437 17.5306C10.029 17.545 10.263 17.6888 10.4238 17.8326C10.9208 18.2783 10.9501 18.8534 10.7746 19.4429C10.6138 20.0037 10.1899 20.32 9.59047 20.3775C9.12265 20.4207 8.66945 20.4207 8.15777 20.4494V22.2036H7.1929V17.43V17.4156ZM8.15777 19.6155C8.56711 19.5867 8.9326 19.5867 9.29808 19.5436C9.63432 19.5005 9.85361 19.2416 9.85361 18.9253C9.85361 18.609 9.63432 18.3071 9.29808 18.2783C8.91798 18.2495 8.5525 18.2783 8.15777 18.2783V19.6155Z" fill="#A1A1A1"/>
<path d="M17.5433 19.3854C17.8796 19.3854 18.2012 19.3854 18.5228 19.3854C18.8445 19.3854 19.1661 19.3854 19.5023 19.3854V20.1762H17.5287V22.1748H16.5638V17.4587H19.8239V18.2495H17.5287V19.3854H17.5433Z" fill="#A1A1A1"/>
</g>
<defs>
<clipPath id="clip0_7028_267">
<rect width="27" height="36" fill="white"/>
</clipPath>
</defs>
</svg>
