<svg width="23" height="23" viewBox="0 0 23 23" fill="none" xmlns="http://www.w3.org/2000/svg">
<path d="M9.58317 11.3804C8.529 11.3804 7.6665 11.045 6.99567 10.3741C6.32484 9.70329 5.98942 8.84079 5.98942 7.78662C5.98942 6.73245 6.32484 5.86995 6.99567 5.19912C7.6665 4.52829 8.529 4.19287 9.58317 4.19287C10.6373 4.19287 11.4998 4.52829 12.1707 5.19912C12.8415 5.86995 13.1769 6.73245 13.1769 7.78662C13.1769 8.84079 12.8415 9.70329 12.1707 10.3741C11.4998 11.045 10.6373 11.3804 9.58317 11.3804ZM1.9165 19.071V16.8189C1.9165 16.2599 2.05626 15.7568 2.33577 15.3095C2.61529 14.8623 3.01859 14.5189 3.54567 14.2793C4.69567 13.7682 5.76182 13.4009 6.74411 13.1772C7.7264 12.9536 8.67275 12.8418 9.58317 12.8418H10.1342C10.0384 13.0654 9.9665 13.2851 9.91859 13.5007C9.87067 13.7163 9.83074 13.9759 9.7988 14.2793H9.58317C8.65678 14.2793 7.75036 14.3792 6.8639 14.5788C5.97744 14.7785 5.06303 15.1099 4.12067 15.5731C3.86511 15.7009 3.67345 15.8805 3.54567 16.1121C3.41789 16.3437 3.354 16.5793 3.354 16.8189V17.6335H9.7988C9.87866 17.921 9.97449 18.1805 10.0863 18.4121C10.1981 18.6437 10.3339 18.8634 10.4936 19.071H1.9165ZM15.98 20.1252L15.7405 18.5439C15.4689 18.4641 15.1934 18.3483 14.9139 18.1965C14.6344 18.0448 14.3988 17.8731 14.2071 17.6814L12.8894 17.9689L12.2905 16.9627L13.4165 15.9085C13.3846 15.7647 13.3686 15.5651 13.3686 15.3095C13.3686 15.054 13.3846 14.8543 13.4165 14.7106L12.2905 13.6564L12.8894 12.6502L14.2071 12.9377C14.3988 12.746 14.6344 12.5743 14.9139 12.4226C15.1934 12.2708 15.4689 12.155 15.7405 12.0752L15.98 10.4939H17.2738L17.5134 12.0752C17.7849 12.155 18.0604 12.2708 18.3399 12.4226C18.6195 12.5743 18.855 12.746 19.0467 12.9377L20.3644 12.6502L20.9634 13.6564L19.8373 14.7106C19.8693 14.8543 19.8853 15.054 19.8853 15.3095C19.8853 15.5651 19.8693 15.7647 19.8373 15.9085L20.9634 16.9627L20.3644 17.9689L19.0467 17.6814C18.855 17.8731 18.6195 18.0448 18.3399 18.1965C18.0604 18.3483 17.7849 18.4641 17.5134 18.5439L17.2738 20.1252H15.98ZM16.6269 17.2262C17.2019 17.2262 17.6651 17.0505 18.0165 16.6991C18.3679 16.3477 18.5436 15.8845 18.5436 15.3095C18.5436 14.7345 18.3679 14.2713 18.0165 13.92C17.6651 13.5686 17.2019 13.3929 16.6269 13.3929C16.0519 13.3929 15.5887 13.5686 15.2373 13.92C14.8859 14.2713 14.7103 14.7345 14.7103 15.3095C14.7103 15.8845 14.8859 16.3477 15.2373 16.6991C15.5887 17.0505 16.0519 17.2262 16.6269 17.2262ZM9.58317 9.94287C10.2061 9.94287 10.7212 9.73923 11.1285 9.33193C11.5358 8.92464 11.7394 8.40954 11.7394 7.78662C11.7394 7.1637 11.5358 6.6486 11.1285 6.24131C10.7212 5.83402 10.2061 5.63037 9.58317 5.63037C8.96025 5.63037 8.44515 5.83402 8.03786 6.24131C7.63057 6.6486 7.42692 7.1637 7.42692 7.78662C7.42692 8.40954 7.63057 8.92464 8.03786 9.33193C8.44515 9.73923 8.96025 9.94287 9.58317 9.94287Z" fill="black"/>
</svg>
