<svg width="22" height="22" viewBox="0 0 22 22" fill="none" xmlns="http://www.w3.org/2000/svg">
<g id="ph:medal">
<path id="Vector" d="M18.0635 8.61995C18.0646 7.37966 17.7523 6.15919 17.1555 5.07193C16.5586 3.98467 15.6967 3.06589 14.6497 2.40093C13.6028 1.73598 12.4047 1.34642 11.1669 1.26846C9.92904 1.1905 8.69158 1.42665 7.56944 1.95499C6.44731 2.48333 5.47691 3.28671 4.7484 4.29049C4.01989 5.29428 3.55689 6.46591 3.40242 7.69655C3.24795 8.92718 3.40702 10.1769 3.86486 11.3296C4.32269 12.4823 5.06444 13.5006 6.02118 14.2899V20.6622C6.0205 20.7764 6.04942 20.8888 6.10511 20.9884C6.1608 21.0881 6.24137 21.1716 6.33896 21.2309C6.43577 21.2917 6.54656 21.3268 6.66075 21.3326C6.77494 21.3385 6.88873 21.315 6.99125 21.2643L10.7043 19.3995L14.4173 21.2643C14.5123 21.3063 14.6146 21.329 14.7184 21.3312C14.8958 21.3312 15.066 21.2607 15.1914 21.1353C15.3169 21.0098 15.3874 20.8397 15.3874 20.6622V14.2899C16.2243 13.6009 16.8983 12.7352 17.361 11.7549C17.8237 10.7746 18.0636 9.70397 18.0635 8.61995ZM4.68315 8.61995C4.68315 7.42908 5.03629 6.26496 5.6979 5.27479C6.35951 4.28461 7.29988 3.51287 8.4001 3.05715C9.50032 2.60142 10.711 2.48218 11.879 2.71451C13.0469 2.94683 14.1198 3.52029 14.9619 4.36236C15.8039 5.20443 16.3774 6.2773 16.6097 7.44528C16.8421 8.61327 16.7228 9.82392 16.2671 10.9241C15.8114 12.0244 15.0396 12.9647 14.0494 13.6263C13.0593 14.288 11.8952 14.6411 10.7043 14.6411C9.10806 14.6389 7.57785 14.0038 6.44914 12.8751C5.32044 11.7464 4.68536 10.2162 4.68315 8.61995ZM14.0494 19.5834L11.0053 18.0531C10.9114 18.0078 10.8085 17.9844 10.7043 17.9844C10.6 17.9844 10.4972 18.0078 10.4032 18.0531L7.35921 19.5834V15.1763C8.39523 15.7042 9.5415 15.9795 10.7043 15.9795C11.8671 15.9795 13.0133 15.7042 14.0494 15.1763V19.5834ZM10.7043 13.3031C11.6305 13.3031 12.5359 13.0284 13.3061 12.5138C14.0762 11.9992 14.6765 11.2678 15.0309 10.4121C15.3854 9.55637 15.4781 8.61475 15.2974 7.70632C15.1167 6.79789 14.6707 5.96344 14.0157 5.30849C13.3608 4.65355 12.5263 4.20753 11.6179 4.02683C10.7095 3.84613 9.76787 3.93887 8.91214 4.29332C8.05641 4.64778 7.32501 5.24802 6.81043 6.01816C6.29584 6.78829 6.02118 7.69372 6.02118 8.61995C6.02118 9.86199 6.51458 11.0532 7.39283 11.9314C8.27108 12.8097 9.46225 13.3031 10.7043 13.3031ZM10.7043 5.27487C11.3659 5.27487 12.0126 5.47106 12.5627 5.83862C13.1128 6.20618 13.5416 6.72861 13.7947 7.33984C14.0479 7.95108 14.1142 8.62366 13.9851 9.27254C13.856 9.92142 13.5374 10.5175 13.0696 10.9853C12.6018 11.4531 12.0058 11.7717 11.3569 11.9007C10.708 12.0298 10.0354 11.9636 9.42418 11.7104C8.81295 11.4572 8.29052 11.0285 7.92296 10.4784C7.5554 9.92828 7.35921 9.28154 7.35921 8.61995C7.36142 7.73346 7.71456 6.88391 8.3414 6.25706C8.96825 5.63022 9.8178 5.27708 10.7043 5.27487Z" fill="#1C5D95"/>
</g>
</svg>
