<svg width="20" height="20" viewBox="0 0 20 20" fill="none" xmlns="http://www.w3.org/2000/svg">
<g id="Search" clip-path="url(#clip0_9862_8548)">
<g id="Group">
<path id="Vector" d="M12.8001 12L12.7001 12.1L12.8001 12.2L13.1001 12.5H13.2001H14.0001L19.3001 17.8L17.9001 19.2L12.5001 14V13.2V13.1L12.2001 12.8L12.1001 12.7L12.0001 12.8C10.7001 13.9 9.1001 14.5 7.5001 14.5C5.7001 14.5 3.9001 13.8 2.6001 12.5C1.3001 11.2 0.600098 9.40001 0.600098 7.60001C0.600098 5.80001 1.3001 4.00001 2.6001 2.70001C3.9001 1.40001 5.7001 0.700012 7.5001 0.700012C9.3001 0.700012 11.1001 1.40001 12.4001 2.70001C13.7001 4.00001 14.4001 5.80001 14.4001 7.60001C14.4001 9.20001 13.8001 10.8 12.8001 12Z" fill="white" stroke="#808080" stroke-linecap="round" stroke-linejoin="round"/>
<path id="Vector_2" d="M7.4 11.9C8.3 11.9 9.1 11.6 9.9 11.2C10.7 10.8 11.2 10 11.5 9.2C11.8 8.4 11.9 7.5 11.8 6.6C11.6 5.7 11.2 5 10.6 4.3C10 3.7 9.2 3.3 8.3 3.1C7.4 3 6.6 3.1 5.7 3.4C4.9 3.7 4.2 4.3 3.7 5C3.3 5.8 3 6.6 3 7.5C3 8.7 3.5 9.8 4.3 10.6C5.1 11.5 6.3 11.9 7.4 11.9Z" fill="white" stroke="#808080" stroke-linecap="round" stroke-linejoin="round"/>
</g>
</g>
<defs>
<clipPath id="clip0_9862_8548">
<rect width="19.8" height="19.8" fill="white"/>
</clipPath>
</defs>
</svg>
