<svg width="14" height="15" viewBox="0 0 14 15" fill="none" xmlns="http://www.w3.org/2000/svg">
<path d="M11.2189 9.62499C10.8212 9.62699 10.4291 9.71824 10.0714 9.89202C9.71376 10.0658 9.39967 10.3177 9.15233 10.629L5.26889 8.20124C5.41043 7.74445 5.41043 7.25553 5.26889 6.79874L9.15233 4.37092C9.54649 4.85899 10.1007 5.1918 10.7167 5.31039C11.3328 5.42898 11.9709 5.3257 12.5181 5.01885C13.0653 4.712 13.4862 4.22137 13.7063 3.63389C13.9264 3.04641 13.9314 2.4 13.7205 1.80915C13.5096 1.2183 13.0964 0.721162 12.5541 0.405796C12.0118 0.0904306 11.3753 -0.0228058 10.7575 0.0861462C10.1397 0.195098 9.58039 0.519206 9.17866 1.00106C8.77692 1.48291 8.5587 2.0914 8.56264 2.71874C8.56515 2.9563 8.60091 3.19234 8.66889 3.41999L4.78546 5.8478C4.44261 5.4162 3.97399 5.10195 3.44456 4.9486C2.91512 4.79526 2.35109 4.81041 1.83065 4.99196C1.31021 5.17352 0.859141 5.51248 0.539965 5.96186C0.220789 6.41124 0.0493164 6.94879 0.0493164 7.49999C0.0493164 8.05118 0.220789 8.58873 0.539965 9.03811C0.859141 9.4875 1.31021 9.82646 1.83065 10.008C2.35109 10.1896 2.91512 10.2047 3.44456 10.0514C3.97399 9.89802 4.44261 9.58377 4.78546 9.15217L8.66889 11.58C8.60091 11.8076 8.56515 12.0437 8.56264 12.2812C8.56264 12.8066 8.71843 13.3202 9.0103 13.757C9.30217 14.1938 9.71702 14.5342 10.2024 14.7353C10.6878 14.9363 11.2218 14.9889 11.7371 14.8864C12.2524 14.784 12.7257 14.531 13.0971 14.1595C13.4686 13.788 13.7216 13.3147 13.8241 12.7994C13.9266 12.2842 13.874 11.7501 13.6729 11.2647C13.4719 10.7794 13.1314 10.3645 12.6946 10.0726C12.2578 9.78077 11.7442 9.62499 11.2189 9.62499ZM11.2189 1.12499C11.5341 1.12499 11.8422 1.21846 12.1043 1.39358C12.3664 1.56871 12.5707 1.81762 12.6913 2.10883C12.812 2.40005 12.8435 2.7205 12.782 3.02966C12.7205 3.33882 12.5687 3.6228 12.3458 3.84569C12.123 4.06858 11.839 4.22037 11.5298 4.28186C11.2207 4.34336 10.9002 4.3118 10.609 4.19117C10.3178 4.07054 10.0689 3.86627 9.89374 3.60418C9.71861 3.34209 9.62514 3.03395 9.62514 2.71874C9.62514 2.29605 9.79306 1.89067 10.0919 1.59179C10.3908 1.2929 10.7962 1.12499 11.2189 1.12499ZM2.71889 9.09374C2.40368 9.09374 2.09554 9.00027 1.83345 8.82514C1.57136 8.65002 1.36709 8.40111 1.24646 8.10989C1.12583 7.81867 1.09427 7.49822 1.15577 7.18906C1.21726 6.8799 1.36905 6.59593 1.59194 6.37304C1.81483 6.15015 2.09881 5.99836 2.40797 5.93686C2.71713 5.87537 3.03758 5.90693 3.3288 6.02755C3.62001 6.14818 3.86892 6.35246 4.04405 6.61455C4.21917 6.87664 4.31264 7.18477 4.31264 7.49999C4.31264 7.92268 4.14473 8.32805 3.84585 8.62694C3.54696 8.92583 3.14158 9.09374 2.71889 9.09374ZM11.2189 13.875C10.9037 13.875 10.5955 13.7815 10.3335 13.6064C10.0714 13.4313 9.86709 13.1824 9.74646 12.8911C9.62583 12.5999 9.59427 12.2795 9.65577 11.9703C9.71726 11.6612 9.86905 11.3772 10.0919 11.1543C10.3148 10.9314 10.5988 10.7796 10.908 10.7181C11.2171 10.6566 11.5376 10.6882 11.8288 10.8088C12.12 10.9294 12.3689 11.1337 12.544 11.3958C12.7192 11.6579 12.8126 11.966 12.8126 12.2812C12.8126 12.7039 12.6447 13.1093 12.3458 13.4082C12.047 13.7071 11.6416 13.875 11.2189 13.875Z" fill="#1C5D95"/>
</svg>
