<svg width="46" height="46" viewBox="0 0 46 46" fill="none" xmlns="http://www.w3.org/2000/svg">
<path d="M23 0.25C29.0337 0.25 34.8202 2.64687 39.0867 6.91332C43.3531 11.1798 45.75 16.9663 45.75 23C45.75 29.0337 43.3531 34.8202 39.0867 39.0867C34.8202 43.3531 29.0337 45.75 23 45.75C16.9663 45.75 11.1798 43.3531 6.91332 39.0867C2.64687 34.8202 0.25 29.0337 0.25 23C0.25 16.9663 2.64687 11.1798 6.91332 6.91332C11.1798 2.64687 16.9663 0.25 23 0.25ZM20.166 27.4882L15.1122 22.4312C14.9311 22.2501 14.716 22.1064 14.4793 22.0083C14.2426 21.9103 13.9888 21.8598 13.7326 21.8598C13.4764 21.8598 13.2227 21.9103 12.986 22.0083C12.7493 22.1064 12.5342 22.2501 12.353 22.4312C11.9871 22.7971 11.7815 23.2934 11.7815 23.8109C11.7815 24.3283 11.9871 24.8246 12.353 25.1905L18.788 31.6255C18.9687 31.8076 19.1836 31.9521 19.4204 32.0507C19.6572 32.1493 19.9111 32.2001 20.1676 32.2001C20.4241 32.2001 20.6781 32.1493 20.9149 32.0507C21.1517 31.9521 21.3666 31.8076 21.5473 31.6255L34.8722 18.2973C35.0558 18.1168 35.2019 17.9018 35.302 17.6647C35.4021 17.4275 35.4542 17.1729 35.4554 16.9155C35.4566 16.6581 35.4069 16.403 35.309 16.1649C35.2111 15.9268 35.067 15.7105 34.8851 15.5284C34.7032 15.3463 34.487 15.202 34.2491 15.1038C34.0111 15.0056 33.7561 14.9556 33.4987 14.9564C33.2413 14.9573 32.9866 15.0092 32.7493 15.109C32.5121 15.2088 32.2969 15.3546 32.1163 15.538L20.166 27.4882Z" fill="#87B461"/>
</svg>
