<svg width="27" height="36" viewBox="0 0 27 36" fill="none" xmlns="http://www.w3.org/2000/svg">
<g clip-path="url(#clip0_7028_280)">
<g clip-path="url(#clip1_7028_280)">
<path d="M5.12259 18.5841C5.15958 18.4583 5.17807 18.3505 5.21505 18.2247C5.51095 17.2541 6.41711 16.5532 7.47122 16.5532C10.4671 16.5532 13.4815 16.5532 16.4774 16.5532C17.7534 16.5532 18.789 17.5776 18.826 18.8357C18.826 19.0334 18.826 19.2311 18.826 19.4648C18.9 19.4288 18.9555 19.3929 19.0109 19.3749C19.8431 18.9076 20.6938 18.4224 21.526 17.9551C21.9514 17.7214 22.4322 17.7933 22.7466 18.1348C22.913 18.3325 22.987 18.5482 22.987 18.7998C22.987 20.3455 22.987 21.8912 22.987 23.4189C22.987 24.0839 22.987 24.7489 22.987 25.3959C22.987 26.2047 22.2288 26.636 21.5075 26.2406C20.6753 25.7733 19.8431 25.306 19.0109 24.8387C18.9555 24.8028 18.9185 24.7848 18.826 24.7489C18.826 24.9645 18.826 25.1443 18.826 25.324C18.826 26.4563 18.0308 27.3729 16.9027 27.6066C16.7363 27.6425 16.5514 27.6605 16.3664 27.6605C13.4445 27.6605 10.5226 27.6605 7.60067 27.6605C6.34314 27.6605 5.39999 26.8877 5.15958 25.6835C5.15958 25.6655 5.14108 25.6475 5.12259 25.6295C5.12259 23.2751 5.12259 20.9386 5.12259 18.5841ZM11.9651 26.5821C13.426 26.5821 14.887 26.5821 16.3479 26.5821C17.1801 26.5821 17.7164 26.0609 17.7164 25.2521C17.7164 23.1493 17.7164 21.0644 17.7164 18.9615C17.7164 18.1528 17.1801 17.6315 16.3479 17.6315C13.4445 17.6315 10.5226 17.6315 7.61916 17.6315C6.78697 17.6315 6.25067 18.1528 6.25067 18.9615C6.25067 21.0464 6.25067 23.1313 6.25067 25.2162C6.25067 26.0609 6.76848 26.5641 7.63766 26.5641C9.08012 26.5641 10.5226 26.5641 11.9835 26.5641L11.9651 26.5821ZM21.8404 19.0334C21.8404 19.0334 21.7664 19.0694 21.7294 19.0874C20.7863 19.6086 19.8431 20.1478 18.9 20.669C18.8075 20.7229 18.789 20.7768 18.789 20.8667C18.789 21.6935 18.789 22.5202 18.789 23.347C18.789 23.4728 18.826 23.5447 18.937 23.5986C19.8431 24.1018 20.7493 24.6231 21.674 25.1263C21.7294 25.1443 21.7664 25.1802 21.8219 25.1982V19.0334H21.8404Z" fill="#A1A1A1"/>
<path d="M11.4103 21.5676C11.4103 21.0285 11.4103 20.5252 11.4103 20.004C11.4103 19.9321 11.4103 19.8422 11.4103 19.7703C11.4473 19.4828 11.6877 19.2851 11.9836 19.2851C12.2795 19.2851 12.5014 19.5187 12.5199 19.8063C12.5199 20.3275 12.5199 20.8487 12.5199 21.3699C12.5199 21.4239 12.5199 21.4778 12.5199 21.5497C12.5938 21.5497 12.6493 21.5497 12.7233 21.5497C13.2411 21.5497 13.7404 21.5497 14.2582 21.5497C14.6096 21.5497 14.8685 21.7653 14.8685 22.0889C14.8685 22.4124 14.6096 22.646 14.2582 22.646C13.6849 22.646 13.1301 22.646 12.5199 22.646C12.5199 22.7179 12.5199 22.7718 12.5199 22.8437C12.5199 23.3649 12.5199 23.8862 12.5199 24.4074C12.5199 24.677 12.3164 24.8927 12.0575 24.9286C11.7986 24.9645 11.5397 24.8387 11.4473 24.6051C11.4103 24.5152 11.4103 24.4074 11.3918 24.2995C11.3918 23.8143 11.3918 23.347 11.3918 22.8617C11.3918 22.8078 11.3918 22.7359 11.3918 22.664C11.3178 22.664 11.2438 22.664 11.1884 22.664C10.6705 22.664 10.1712 22.664 9.65343 22.664C9.30206 22.664 9.04315 22.4303 9.04315 22.1248C9.04315 21.8193 9.30206 21.5856 9.65343 21.5856C10.2267 21.5856 10.7815 21.5856 11.3918 21.5856L11.4103 21.5676Z" fill="#A1A1A1"/>
<path d="M0.0924683 18.009C0.0924683 12.8507 0.0924683 7.71044 0.0924683 2.55218C0.0924683 1.50974 0.499318 0.718931 1.49795 0.287578C1.79384 0.161766 2.14521 0.0898743 2.47808 0.0898743C8.08151 0.0898743 13.6849 0.0898743 19.2884 0.0898743C19.5288 0.0898743 19.8247 0.215686 19.9911 0.377443C22.2103 2.51623 24.411 4.65503 26.6301 6.79382C26.889 7.02747 26.926 7.31504 26.926 7.62058C26.926 14.4324 26.926 21.2621 26.926 28.0739C26.926 29.8532 26.926 31.6326 26.926 33.3939C26.926 34.9755 25.9829 35.8922 24.3555 35.8922C17.1432 35.8922 9.91233 35.8922 2.7 35.8922C1.07261 35.8922 0.129455 34.9755 0.129455 33.3939C0.129455 28.2536 0.129455 23.1133 0.129455 17.973L0.0924683 18.009ZM18.8815 1.2042C18.6966 1.2042 18.5856 1.2042 18.4747 1.2042C13.2041 1.2042 7.93356 1.2042 2.64452 1.2042C1.68288 1.2042 1.23904 1.63556 1.23904 2.55218C1.23904 12.8328 1.23904 23.1313 1.23904 33.4119C1.23904 34.3465 1.68288 34.7778 2.62603 34.7778C9.85685 34.7778 17.0877 34.7778 24.3185 34.7778C25.3171 34.7778 25.724 34.3645 25.724 33.4119C25.724 25.0365 25.724 16.661 25.724 8.30355V7.89017C25.539 7.89017 25.4096 7.89017 25.2801 7.89017C23.9671 7.89017 22.6356 7.89017 21.3226 7.89017C19.8062 7.89017 18.8445 6.9376 18.8445 5.48179C18.8445 4.90665 18.8445 4.33151 18.8445 3.75637C18.8445 2.92961 18.8445 2.08488 18.8445 1.22218L18.8815 1.2042ZM24.7438 6.75787C23.1719 5.23016 21.5815 3.70246 20.0466 2.19272C20.0466 3.28908 20.0466 4.4753 20.0466 5.66152C20.0466 6.25463 20.5274 6.7399 21.1562 6.7399C22.3767 6.75787 23.5973 6.7399 24.7438 6.7399V6.75787Z" fill="#A1A1A1"/>
<path d="M24.3185 36H2.66301C0.99863 36 0 35.0295 0 33.4119C0 28.2716 0 23.1313 0 17.991V13.5696C0 9.90315 0 6.23664 0 2.55217C0 1.41987 0.480822 0.629056 1.46096 0.215676C1.75685 0.0898652 2.12671 0 2.47808 0C8.3774 0 13.8699 0 19.2884 0C19.5473 0 19.8616 0.125811 20.0466 0.305542C21.4336 1.63555 22.839 3.0015 24.189 4.31353C25.0212 5.12232 25.8534 5.91313 26.6671 6.72192C26.926 6.97354 26.9815 7.26111 26.9815 7.62057C26.9815 12.7429 26.9815 17.8472 26.9815 22.9695V28.0919C26.9815 29.8712 26.9815 31.6505 26.9815 33.4119C26.9815 35.0295 25.9829 36 24.3185 36ZM10.3192 0.17973C7.76712 0.17973 5.15959 0.17973 2.47808 0.17973C2.14521 0.17973 1.81233 0.251623 1.53493 0.359461C0.628767 0.772841 0.184932 1.47379 0.184932 2.55217C0.184932 6.23664 0.184932 9.90314 0.184932 13.5876V18.009C0.184932 23.1493 0.184932 28.2896 0.184932 33.4299C0.184932 34.9576 1.0911 35.8382 2.66301 35.8382H24.3185C25.8904 35.8382 26.7966 34.9576 26.7966 33.4299C26.7966 31.6505 26.7966 29.8712 26.7966 28.1098V22.9875C26.7966 17.8652 26.7966 12.7609 26.7966 7.63854C26.7966 7.31503 26.7596 7.08138 26.5377 6.8657C25.7055 6.05691 24.8733 5.2661 24.0596 4.45731C22.7096 3.14528 21.3041 1.77933 19.9171 0.449326C19.7692 0.305542 19.4918 0.197703 19.2884 0.197703C16.3479 0.197703 13.389 0.197703 10.3377 0.197703L10.3192 0.17973ZM24.337 34.8857H2.64452C1.6274 34.8857 1.16507 34.4184 1.16507 33.4299V2.57014C1.16507 1.58163 1.64589 1.1323 2.66301 1.1323H18.9925V5.49975C18.9925 6.91962 19.9171 7.81827 21.3781 7.81827C22.2842 7.81827 23.1904 7.81827 24.0966 7.81827H25.8719V33.4299C25.8719 34.4363 25.4096 34.8857 24.3555 34.8857H24.337ZM2.64452 1.29406C1.71986 1.29406 1.33151 1.67149 1.33151 2.55217V33.4119C1.33151 34.3105 1.71986 34.688 2.62603 34.688H24.3185C25.2616 34.688 25.65 34.3105 25.65 33.4119V7.98003H24.0596C23.1534 7.98003 22.2473 7.98003 21.3411 7.98003C19.7877 7.98003 18.7705 6.99151 18.7705 5.48178C18.7705 5.10434 18.7705 4.70894 18.7705 4.3315V1.29406H2.64452ZM22.6911 6.84773C22.1918 6.84773 21.674 6.84773 21.1562 6.84773C20.4719 6.84773 19.9541 6.32651 19.9541 5.67948C19.9541 4.83475 19.9541 3.97204 19.9541 3.14528C19.9541 2.82177 19.9541 2.49825 19.9541 2.19271V1.97703L21.2486 3.23515C22.4322 4.38542 23.6342 5.55367 24.8178 6.70394L24.9842 6.84773H24.7623C24.0966 6.84773 23.4123 6.84773 22.7096 6.84773H22.6911ZM20.139 2.40839C20.139 2.64204 20.139 2.89366 20.139 3.14528C20.139 3.97204 20.139 4.81677 20.139 5.67948C20.139 6.23665 20.5829 6.668 21.1562 6.668C22.0253 6.668 22.8945 6.668 23.7452 6.668C24.0041 6.668 24.263 6.668 24.5219 6.668C23.3938 5.57164 22.2473 4.45731 21.1007 3.34299L20.1205 2.39041L20.139 2.40839Z" fill="#A1A1A1"/>
</g>
</g>
<defs>
<clipPath id="clip0_7028_280">
<rect width="27" height="36" fill="white"/>
</clipPath>
<clipPath id="clip1_7028_280">
<rect width="27" height="36" fill="white"/>
</clipPath>
</defs>
</svg>
