<?xml version="1.0" encoding="UTF-8"?>
<svg width="24px" height="24px" viewBox="0 0 24 24" version="1.1" xmlns="http://www.w3.org/2000/svg" xmlns:xlink="http://www.w3.org/1999/xlink">
    <title>Icons/Hubs/Karmayogi</title>
    <g id="Icons/Hubs/Karmayogi" stroke="none" stroke-width="1" fill="none" fill-rule="evenodd">
        <rect id="Size" fill="#D8D8D8" opacity="0" x="0" y="0" width="24" height="24"></rect>
        <path d="M17.48449,11.7529468 C18.5931635,11.7529468 19.4919208,12.6821294 19.4919208,13.8283342 C19.4919208,14.4535368 19.2245219,15.0141708 18.8015121,15.394664 L18.7397389,15.4467612 L19.359503,17.5659067 C19.8855465,19.3842203 18.8925023,21.3004125 17.1368176,21.8548322 L17.1368176,21.8548322 L16.9312283,21.9112186 C15.830426,22.1746805 14.6688613,21.8440381 13.8523706,21.0221768 C14.3408774,20.8020669 14.761501,20.4474299 15.0683173,19.9969854 C15.6761605,20.4973852 16.5280837,20.5311361 17.1711849,20.0802954 C17.8142862,19.6294547 18.0992114,18.7987259 17.8744879,18.0297433 L17.8744879,18.0297433 L17.2486774,15.8893438 C17.2573504,15.8904162 17.2660242,15.8914291 17.2746983,15.8923828 C16.2644445,15.7838832 15.4770593,14.9011733 15.4770593,13.8283342 C15.4770593,12.6821294 16.3758166,11.7529468 17.48449,11.7529468 Z M12.6666562,16.2719152 C13.7753296,16.2719152 14.674087,17.2010978 14.674087,18.3473026 C14.674087,19.4935073 13.7753296,20.4226899 12.6666562,20.4226899 C12.2635022,20.4226899 11.8881057,20.2998228 11.5735891,20.0883322 L11.5583367,20.0770004 L9.79518367,21.3328598 C8.28025264,22.4049206 6.21226649,22.0108373 5.16660458,20.4508201 L5.16660458,20.4508201 L5.05199721,20.2655918 C4.47376966,19.2620876 4.42433271,18.0176492 4.93260587,16.9632943 C5.28415609,17.3770295 5.73885964,17.683003 6.24711024,17.8478343 C5.9708792,18.5989921 6.19926525,19.4485836 6.81077834,19.9446683 C7.42229144,20.4407531 8.27480188,20.4680297 8.91481644,20.0119882 L8.91481644,20.0119882 L10.6961089,18.7436265 L10.6961089,18.7436265 L10.6809911,18.6539881 C10.6666532,18.5539099 10.6592254,18.451503 10.6592254,18.3473026 C10.6592254,17.2010978 11.5579828,16.2719152 12.6666562,16.2719152 Z M2.76924311,8.23309877 C3.49453454,7.33762856 4.61429504,6.87858414 5.7446479,7.02643969 C5.48292382,7.50625948 5.35366715,8.05116802 5.37097554,8.6017337 C4.59384407,8.58007078 3.89342295,9.0835127 3.64239113,9.8441889 C3.39135931,10.6048651 3.64808027,11.4459226 4.27595833,11.919853 L4.27595833,11.919853 L6.02218125,13.2394743 L6.02218125,13.2394743 L6.06263207,13.2149411 C6.35069874,13.0497414 6.68220663,12.9556713 7.03496635,12.9556713 C8.14363976,12.9556713 9.04239713,13.8848539 9.04239713,15.0310586 C9.04239713,16.1772634 8.14363976,17.106446 7.03496635,17.106446 C5.92629295,17.106446 5.02753558,16.1772634 5.02753558,15.0310586 C5.02753558,14.874758 5.04424801,14.7224929 5.07592618,14.5760691 L5.0898143,14.5209634 L3.36112617,13.2150947 C1.88151347,12.0907 1.55837257,9.9418056 2.63796738,8.40607218 L2.63796738,8.40607218 Z M14.672273,5.68806491 C15.51591,5.68806491 16.2379985,6.2260931 16.535027,6.98836333 L18.6750416,6.98893269 C20.5098841,6.99614246 21.9950272,8.53323672 22,10.4302 L22,10.4302 L21.9927504,10.6499528 C21.9183298,11.8154714 21.2762475,12.869293 20.2791723,13.4395116 C20.2166513,12.8923061 20.01001,12.3733507 19.6817802,11.9392316 C20.3215418,11.4826265 20.5996718,10.6488939 20.368187,9.8816332 C20.1367022,9.11437256 19.4494198,8.59196172 18.6720184,8.59235695 L18.6720184,8.59235695 L16.5122163,8.59235695 L16.5122163,8.59235695 L16.4931281,8.63838318 C16.1738589,9.34737112 15.4785809,9.83883958 14.672273,9.83883958 C13.5635996,9.83883958 12.6648422,8.90965702 12.6648422,7.76345225 C12.6648422,6.61724747 13.5635996,5.68806491 14.672273,5.68806491 Z M8.83560757,4.38532177 C9.40261995,2.58101183 11.2721693,1.58834498 13.0209798,2.16303201 L13.0209798,2.16303201 L13.2211127,2.23735473 C14.2715767,2.6669431 15.0456788,3.62101237 15.2660372,4.7766448 C14.743201,4.6709713 14.2023372,4.71573112 13.7024179,4.90604395 C13.4774604,4.13679559 12.7947376,3.60820519 12.0174418,3.60147023 C11.240146,3.59473527 10.5489497,4.11142122 10.3115529,4.87666347 L10.3115529,4.87666347 L9.65058119,7.00350524 C10.0688007,7.38384604 10.3327156,7.94123503 10.3327156,8.56235135 C10.3327156,9.70855613 9.43395821,10.6377387 8.32528481,10.6377387 C7.21661141,10.6377387 6.31785403,9.70855613 6.31785403,8.56235135 C6.31785403,7.41614657 7.21661141,6.48696401 8.32528481,6.48696401 L8.181,6.492 Z" id="Combined-Shape" fill="#0074B6"></path>
    </g>
</svg>