<?xml version="1.0" encoding="UTF-8"?>
<svg width="24px" height="24px" viewBox="0 0 24 24" version="1.1" xmlns="http://www.w3.org/2000/svg" xmlns:xlink="http://www.w3.org/1999/xlink">
    <title>Icons/File types/pdf</title>
    <g id="Icons/File-types/pdf" stroke="none" stroke-width="1" fill="none" fill-rule="evenodd">
        <rect id="Size" fill="#D8D8D8" opacity="0" x="0" y="0" width="24" height="24"></rect>
        <g id="Group">
            <rect id="Rectangle" x="0" y="0" width="24" height="24"></rect>
            <polygon id="Path" fill="#EFEEEE" fill-rule="nonzero" points="5 2 5 22 16.9 22 22 17 22 2"></polygon>
            <polygon id="Path" fill="#ABABAB" fill-rule="nonzero" points="17 17 17 22 22 17"></polygon>
            <polygon id="Path" fill="#DEDEDD" fill-rule="nonzero" points="12 22 17 22 17 17"></polygon>
            <polygon id="Path" fill="#CB5641" fill-rule="nonzero" points="2 6 2 15 18 15 18 6"></polygon>
            <path d="M4.81005859,12.9013672 L4.81005859,11.1240234 L5.46289062,11.1240234 C6.01432292,11.1240234 6.45182292,10.9724935 6.77539062,10.6694336 C7.09895833,10.3663737 7.26074219,9.97672526 7.26074219,9.50048828 C7.26074219,9.0242513 7.10579427,8.65511068 6.79589844,8.39306641 C6.4860026,8.13102214 6.04964193,8 5.48681641,8 L5.48681641,8 L4,8 L4,12.9013672 L4.81005859,12.9013672 Z M5.33642578,10.4609375 L4.81005859,10.4609375 L4.81005859,8.66992188 L5.40136719,8.66992188 C6.07128906,8.66992188 6.40625,8.95817057 6.40625,9.53466797 C6.40625,9.82861328 6.31510417,10.0564779 6.1328125,10.2182617 C5.95052083,10.3800456 5.68505859,10.4609375 5.33642578,10.4609375 L5.33642578,10.4609375 Z M9.34824219,12.9013672 C10.1913411,12.9013672 10.8635417,12.6717936 11.3648437,12.2126465 C11.8661458,11.7534993 12.1167969,11.1456706 12.1167969,10.3891602 C12.1167969,8.79638672 11.2133138,8 9.40634765,8 L9.40634765,8 L7.99130859,8 L7.99130859,12.9013672 L9.34824219,12.9013672 Z M9.45078125,12.2143555 L8.80136719,12.2143555 L8.80136719,8.69042969 L9.48154297,8.69042969 C10.6687174,8.69042969 11.2623047,9.26350911 11.2623047,10.409668 C11.2623047,10.9838867 11.1033691,11.4282227 10.785498,11.7426758 C10.467627,12.0571289 10.0227214,12.2143555 9.45078125,12.2143555 L9.45078125,12.2143555 Z M13.7257812,12.9013672 L13.7257812,10.8505859 L15.4142578,10.8505859 L15.4142578,10.1635742 L13.7257812,10.1635742 L13.7257812,8.69042969 L15.5578125,8.69042969 L15.5578125,8 L12.9123047,8 L12.9123047,12.9013672 L13.7257812,12.9013672 Z" id="PDF" fill="#FFFFFF" fill-rule="nonzero"></path>
        </g>
    </g>
</svg>