<svg xmlns="http://www.w3.org/2000/svg" xmlns:xlink="http://www.w3.org/1999/xlink" width="282" height="207" viewBox="0 0 282 207">
  <defs>
    <linearGradient id="linear-gradient" x1="0.5" y1="1" x2="0.5" gradientUnits="objectBoundingBox">
      <stop offset="0" stop-color="gray" stop-opacity="0.251"/>
      <stop offset="0.54" stop-color="gray" stop-opacity="0.122"/>
      <stop offset="1" stop-color="gray" stop-opacity="0.102"/>
    </linearGradient>
    <linearGradient id="linear-gradient-2" x1="0.5" y1="1" x2="0.5" y2="0" xlink:href="#linear-gradient"/>
    <linearGradient id="linear-gradient-3" x1="3.499" y1="1.031" x2="3.499" y2="0.019" xlink:href="#linear-gradient"/>
    <clipPath id="clip-BannerImage">
      <rect width="282" height="207"/>
    </clipPath>
  </defs>
  <g id="BannerImage" clip-path="url(#clip-BannerImage)">
    <rect width="282" height="207" fill="rgba(255,255,255,0)"/>
    <g id="Group_18" data-name="Group 18" transform="translate(8.776 -0.321)">
      <ellipse id="Ellipse_17" data-name="Ellipse 17" cx="23.247" cy="5.743" rx="23.247" ry="5.743" transform="translate(214.48 187.879)" fill="#5e5e5e" opacity="0.1"/>
      <ellipse id="Ellipse_18" data-name="Ellipse 18" cx="23.247" cy="5.743" rx="23.247" ry="5.743" transform="translate(9.272 188.835)" fill="#5e5e5e" opacity="0.1"/>
      <path id="Path_184" data-name="Path 184" d="M508.593,80.216s-3.267-1.326-13.656,3.441-11.694,4.159-14.378,3.43-4.18-.9-7.073-4.876c0,0-2.034-11.025-4-12.734s-10.333.973-10.333.973-10.029,2.3-11.94-11.1c0,0,1.356-10.1-.49-13.2,0,0,3.715,1.609,9.878-.987s11.074,2.787,11.074,2.787,1.551,4.017,1.393,6.411.82,3.293,3.755,2.136c0,0,1.44-2.05-.6-5.438s-3.5-5.914-2.926-8.545,2.206-6.27,7.468-8.1S489.171,32.225,492.6,30.8s4.261-2.357,4.261-2.357-2.115,2.122,2.866,11.088,1.8,12.86,1.8,12.86-2.647,6.307-14.328,5.805c0,0-11.255.411-5.109,5.185,0,0,3.931-.8,9.806-2.668s10.117,5.84,11.169,11.2A14.058,14.058,0,0,0,508.593,80.216Z" transform="translate(-349.588 -26.2)" fill="#5e5e5e"/>
      <path id="Path_185" data-name="Path 185" d="M618.678,57.7l.063-.016c.451,1.711-4.582,8.592-8.88,14.056l-.051-.039C615.878,63.985,619.029,59.013,618.678,57.7Z" transform="translate(-474.807 -48.65)" fill="#444053"/>
      <path id="Path_186" data-name="Path 186" d="M569.676,117.55l.026.07c-3.434,4.368-7.753,9.579-11.211,13.438-.33.369-.657.755-.973,1.149l-.1-.081c.316-.395.646-.783.975-1.161C561.851,127.117,566.244,121.916,569.676,117.55Z" transform="translate(-434.583 -94.618)" fill="#444053"/>
      <path id="Path_187" data-name="Path 187" d="M531.345,179.88l.067.116c-6.293,7.856-6.709,20.054-6.734,20.161l-1.328-1.533C523.378,198.517,525.008,187.789,531.345,179.88Z" transform="translate(-408.424 -142.474)" fill="#444053"/>
      <path id="Path_188" data-name="Path 188" d="M519.813,147.928s-7.431-3.857-13.2-2.473-18.809-4.89-18.809-4.89-5.529-2.248-6.639-4.807c0,0-3.792-4.008-4.008-6.084s-3.908-7.291-6.316-7.493" transform="translate(-368.107 -98.173)" fill="none" stroke="#444053" stroke-miterlimit="10" stroke-width="1"/>
      <path id="Path_189" data-name="Path 189" d="M666.083,231.03s-3.743-2.517-3.3-5.45" transform="translate(-515.449 -177.562)" fill="none" stroke="#444053" stroke-miterlimit="10" stroke-width="1"/>
      <path id="Path_190" data-name="Path 190" d="M632.99,231.5s-5.341-1.941-5.88-9.546" transform="translate(-488.09 -174.775)" fill="none" stroke="#444053" stroke-miterlimit="10" stroke-width="1"/>
      <path id="Path_191" data-name="Path 191" d="M602.879,233.051a11.956,11.956,0,0,1-3.411-11.641" transform="translate(-466.601 -174.361)" fill="none" stroke="#444053" stroke-miterlimit="10" stroke-width="1"/>
      <path id="Path_192" data-name="Path 192" d="M565.291,223.7s-3.4-7.131-.376-11.771" transform="translate(-439.374 -167.082)" fill="none" stroke="#444053" stroke-miterlimit="10" stroke-width="1"/>
      <path id="Path_193" data-name="Path 193" d="M671.692,212.82s-3.866,1.226-3.037,3.251" transform="translate(-519.898 -167.765)" fill="none" stroke="#444053" stroke-miterlimit="10" stroke-width="1"/>
      <path id="Path_194" data-name="Path 194" d="M644.494,182.61s-5.171,1.642-5.294,8.956" transform="translate(-497.372 -144.57)" fill="none" stroke="#444053" stroke-miterlimit="10" stroke-width="1"/>
      <path id="Path_195" data-name="Path 195" d="M616.528,175.34s-4.7,5.805-4.359,11.088" transform="translate(-476.605 -138.988)" fill="none" stroke="#444053" stroke-miterlimit="10" stroke-width="1"/>
      <path id="Path_196" data-name="Path 196" d="M581.824,185.15s-4.674,4.468-4.078,6.955" transform="translate(-450.148 -146.52)" fill="none" stroke="#444053" stroke-miterlimit="10" stroke-width="1"/>
      <path id="Path_197" data-name="Path 197" d="M566.817,176.193s-4.384.787-5-.653" transform="translate(-437.961 -139.142)" fill="none" stroke="#444053" stroke-miterlimit="10" stroke-width="1"/>
      <path id="Path_198" data-name="Path 198" d="M558.81,155.56s2.215,2.933,2.787,2.276" transform="translate(-435.65 -123.802)" fill="none" stroke="#444053" stroke-miterlimit="10" stroke-width="1"/>
      <path id="Path_199" data-name="Path 199" d="M608.552,139.209s-11.049.8-13.552-2.529" transform="translate(-463.436 -109.306)" fill="none" stroke="#444053" stroke-miterlimit="10" stroke-width="1"/>
      <path id="Path_200" data-name="Path 200" d="M548.8,91.91s5.185,11.13,8.949,12.539" transform="translate(-427.964 -74.932)" fill="none" stroke="#444053" stroke-miterlimit="10" stroke-width="1"/>
      <path id="Path_201" data-name="Path 201" d="M572.22,69.08s3.186,10.238,7.131,13.433" transform="translate(-445.946 -57.403)" fill="none" stroke="#444053" stroke-miterlimit="10" stroke-width="1"/>
      <path id="Path_202" data-name="Path 202" d="M628.92,111.052s-8.4,3.606-13.45-.042" transform="translate(-479.153 -89.597)" fill="none" stroke="#444053" stroke-miterlimit="10" stroke-width="0.75"/>
      <path id="Path_203" data-name="Path 203" d="M604.46,59.68s1.92,7.526,4.507,9.344" transform="translate(-470.699 -50.186)" fill="none" stroke="#444053" stroke-miterlimit="10" stroke-width="0.75"/>
      <path id="Path_204" data-name="Path 204" d="M646.476,74.89s-4.721,1.788-6.486.418" transform="translate(-497.979 -61.864)" fill="none" stroke="#444053" stroke-miterlimit="10" stroke-width="0.75"/>
      <path id="Path_205" data-name="Path 205" d="M535.486,166.15s0,6.56-1.786,7.027" transform="translate(-416.371 -131.932)" fill="none" stroke="#444053" stroke-miterlimit="10" stroke-width="1"/>
      <path id="Path_206" data-name="Path 206" d="M478.52,192.661s7.092.608,10.364-3.051" transform="translate(-374.004 -149.945)" fill="none" stroke="#444053" stroke-miterlimit="10" stroke-width="1"/>
      <path id="Path_207" data-name="Path 207" d="M512.181,132.78s-1.716,6.653-6.451,8.446" transform="translate(-394.896 -106.311)" fill="none" stroke="#444053" stroke-miterlimit="10" stroke-width="1"/>
      <path id="Path_208" data-name="Path 208" d="M460.2,163.648a9.282,9.282,0,0,0,9.337-2.7" transform="translate(-359.938 -127.94)" fill="none" stroke="#444053" stroke-miterlimit="10" stroke-width="1"/>
      <path id="Path_209" data-name="Path 209" d="M497.746,108.15s-.464,5.65-3.546,8.295" transform="translate(-386.043 -87.401)" fill="none" stroke="#444053" stroke-miterlimit="10" stroke-width="1"/>
      <path id="Path_210" data-name="Path 210" d="M461,131.1s4.166.03,5.141-1.328" transform="translate(-360.552 -104)" fill="none" stroke="#444053" stroke-miterlimit="10" stroke-width="1"/>
      <path id="Path_211" data-name="Path 211" d="M171.595,50.4c-16.58,2.766-33.185,1.277-49.171-.785s-31.934-4.7-48.548-4.18c-10.682.334-22.564,2.434-29.955,8.875-7.11,6.2-8.127,14.671-8.06,22.334.051,5.763.592,11.734,4.5,16.369,2.71,3.216,6.853,5.552,9.985,8.527,10.914,10.352,7.819,26.389.908,39.968-3.251,6.372-7.224,12.625-9.4,19.157s-2.4,13.568,1.709,18.976c4.073,5.362,11.864,8.45,19.97,10.106,16.461,3.36,34.732,1.625,52.4-.787,39.114-5.366,77.791-14.046,116.357-22.71,14.274-3.2,28.611-6.428,42.344-11.146,7.626-2.615,15.384-5.905,20.267-11.109,6.2-6.606,6.253-15.725.13-21.257-10.273-9.288-33.255-7.542-41.241-18.112-4.4-5.805-2.608-13.612.752-20.474,7.2-14.722,21.305-29.177,19.274-43.972-1.393-10.162-11.234-18.67-24.308-21.022-13.7-2.464-31.212,1.651-38.96,11.755C202.562,41.344,186.233,47.962,171.595,50.4Z" transform="translate(-34.132 -18.54)" fill="#5e5e5e" opacity="0.1"/>
      <rect id="Rectangle_71" data-name="Rectangle 71" width="220.677" height="125.006" rx="12.49" transform="translate(17.715 34.798)" fill="url(#linear-gradient)"/>
      <rect id="Rectangle_72" data-name="Rectangle 72" width="220.002" height="122.833" rx="12.49" transform="translate(18.066 36.556)" fill="#fff"/>
      <rect id="Rectangle_73" data-name="Rectangle 73" width="220.002" height="122.833" rx="12.49" transform="translate(18.066 36.556)" fill="#fff"/>
      <rect id="Rectangle_74" data-name="Rectangle 74" width="220.002" height="122.833" rx="12.49" transform="translate(18.066 36.556)" fill="#5a5773" opacity="0.04"/>
      <path id="Path_212" data-name="Path 212" d="M325.084,170.15H107.307a1.117,1.117,0,0,0-1.117,1.117v4.723h220v-4.714A1.117,1.117,0,0,0,325.084,170.15Z" transform="translate(-88.133 -135.004)" fill="#5a5773"/>
      <g id="buttons" transform="translate(20.95 36.556)">
        <circle id="Ellipse_19" data-name="Ellipse 19" cx="1.509" cy="1.509" r="1.509" fill="#fff"/>
        <circle id="Ellipse_20" data-name="Ellipse 20" cx="1.509" cy="1.509" r="1.509" transform="translate(4.064)" fill="#fff"/>
        <circle id="Ellipse_21" data-name="Ellipse 21" cx="1.509" cy="1.509" r="1.509" transform="translate(8.127)" fill="#fff"/>
      </g>
      <rect id="Rectangle_75" data-name="Rectangle 75" width="183.447" height="91.208" rx="10.19" transform="translate(32.793 68.178)" fill="#fff"/>
      <rect id="Rectangle_76" data-name="Rectangle 76" width="52.768" height="5.538" rx="2.769" transform="translate(25.014 47.184)" fill="#5a5773" opacity="0.2"/>
      <rect id="Rectangle_77" data-name="Rectangle 77" width="52.768" height="5.538" rx="2.769" transform="translate(124.516 78.765)" fill="#5e5e5e" opacity="0.2"/>
      <rect id="Rectangle_78" data-name="Rectangle 78" width="82.396" height="5.538" rx="2.769" transform="translate(124.516 94.272)" fill="#5e5e5e" opacity="0.2"/>
      <rect id="Rectangle_79" data-name="Rectangle 79" width="82.396" height="5.538" rx="2.769" transform="translate(124.516 103.328)" fill="#5e5e5e" opacity="0.2"/>
      <rect id="Rectangle_80" data-name="Rectangle 80" width="82.396" height="5.538" rx="2.769" transform="translate(124.516 112.384)" fill="#5e5e5e" opacity="0.2"/>
      <rect id="Rectangle_81" data-name="Rectangle 81" width="82.396" height="5.538" rx="2.769" transform="translate(124.516 121.441)" fill="#5e5e5e" opacity="0.2"/>
      <rect id="Rectangle_82" data-name="Rectangle 82" width="164.173" height="5.538" rx="2.769" transform="translate(42.738 131.426)" fill="#5e5e5e" opacity="0.2"/>
      <rect id="Rectangle_83" data-name="Rectangle 83" width="164.173" height="5.538" rx="2.769" transform="translate(42.738 140.482)" fill="#5e5e5e" opacity="0.2"/>
      <rect id="Rectangle_84" data-name="Rectangle 84" width="164.173" height="5.538" rx="2.769" transform="translate(42.738 149.538)" fill="#5e5e5e" opacity="0.2"/>
      <path id="Path_213" data-name="Path 213" d="M745.205,678.54s1.377,1.8-.636,4.519-3.671,5.013-3,6.709c0,0,3.035-5.048,5.508-5.109S747.925,681.575,745.205,678.54Z" transform="translate(-575.854 -525.34)" fill="#5e5e5e"/>
      <path id="Path_214" data-name="Path 214" d="M745.461,678.54a2.228,2.228,0,0,1,.281.564c2.413,2.833,3.7,5.478,1.379,5.543-2.16.063-4.751,3.924-5.371,4.9a1.781,1.781,0,0,0,.074.232s3.035-5.048,5.508-5.109S748.18,681.575,745.461,678.54Z" transform="translate(-576.109 -525.34)" opacity="0.1"/>
      <path id="Path_215" data-name="Path 215" d="M767.706,687.081c0,.634-.07,1.147-.158,1.147s-.158-.513-.158-1.147.088-.334.177-.334S767.706,686.447,767.706,687.081Z" transform="translate(-595.795 -531.586)" fill="#ffd037"/>
      <path id="Path_216" data-name="Path 216" d="M768.945,690.2c-.557.3-1.043.485-1.084.409s.376-.385.929-.7.337-.084.378,0S769.5,689.9,768.945,690.2Z" transform="translate(-596.154 -533.951)" fill="#ffd037"/>
      <path id="Path_217" data-name="Path 217" d="M716.193,678.54s-1.377,1.8.634,4.519,3.674,5.013,3,6.709c0,0-3.037-5.048-5.508-5.109S713.474,681.575,716.193,678.54Z" transform="translate(-554.114 -525.34)" fill="#5e5e5e"/>
      <path id="Path_218" data-name="Path 218" d="M716.193,678.54a2.181,2.181,0,0,0-.283.564c-2.41,2.833-3.694,5.478-1.377,5.543,2.16.063,4.749,3.924,5.369,4.9a1.792,1.792,0,0,1-.072.232s-3.037-5.048-5.508-5.109S713.474,681.575,716.193,678.54Z" transform="translate(-554.114 -525.34)" opacity="0.1"/>
      <path id="Path_219" data-name="Path 219" d="M715.38,687.089c0,.634.072,1.147.16,1.147s.158-.513.158-1.147-.088-.33-.174-.33S715.38,686.455,715.38,687.089Z" transform="translate(-555.862 -531.594)" fill="#ffd037"/>
      <path id="Path_220" data-name="Path 220" d="M710.486,690.2c.557.3,1.043.485,1.084.409s-.376-.385-.929-.7-.337-.084-.378,0S709.929,689.9,710.486,690.2Z" transform="translate(-551.846 -533.951)" fill="#ffd037"/>
      <ellipse id="Ellipse_22" data-name="Ellipse 22" cx="14.397" cy="2.208" rx="14.397" ry="2.208" transform="translate(151.318 173.784)" fill="#5e5e5e" opacity="0.1"/>
      <path id="Path_221" data-name="Path 221" d="M724.967,713.683l-.07.562-.1.794-.042.332-.1.794-.042.332-.1.792-1.1,9.033c-.1.806-1.416,1.435-3.019,1.435H714.69c-1.591,0-2.9-.629-3-1.435l-1.105-9.026-.1-.792-.042-.332-.1-.794-.039-.332-.1-.794-.07-.562c-.053-.464.66-.841,1.558-.841h11.708C724.306,712.843,725.019,713.226,724.967,713.683Z" transform="translate(-551.838 -551.682)" fill="#65617d"/>
      <path id="Path_222" data-name="Path 222" d="M696.7,700.32l-.1.794h-14.49l-.1-.794Z" transform="translate(-523.647 -537.757)" fill="#9d9cb5"/>
      <path id="Path_223" data-name="Path 223" d="M697.019,705.16l-.1.794H682.708l-.1-.794Z" transform="translate(-524.1 -541.473)" fill="#9d9cb5"/>
      <path id="Path_224" data-name="Path 224" d="M697.342,710.01l-.1.794h-13.94l-.1-.794Z" transform="translate(-524.561 -545.197)" fill="#9d9cb5"/>
      <rect id="Rectangle_85" data-name="Rectangle 85" width="70.128" height="51.444" rx="8.5" transform="translate(42.738 75.693)" fill="#5e5e5e" opacity="0.2"/>
      <path id="Path_225" data-name="Path 225" d="M1007.37,497.395c.088-.232-.567-1.56-.567-1.625s-.676-.8-.676-1.212-.894-1.3-.894-1.3a2.255,2.255,0,0,1-1.331-1.581c-.13-1.084-1.437-1.1-1.44-1.1h0v-.248a3.416,3.416,0,0,0-.16-1.266,1.275,1.275,0,0,0-.741-.629,2.8,2.8,0,0,0-.392-1.105,1.243,1.243,0,0,1-.307-1.161c.132-.409-.174-1.449-.806-1.6s-1.354-.39-1.354-.39l-.174.03-.086-.03a3.61,3.61,0,0,1-.464.058.573.573,0,0,1-.369-.121,7.685,7.685,0,0,0-2.322-.7,5.31,5.31,0,0,1-1.266-.434s-.655-.5-.929-.715a6.09,6.09,0,0,1-.822-1.131v-.016h0a4,4,0,0,1-.2-.569h0a5.123,5.123,0,0,0,.81-1.117c.023-.042.044-.084.065-.128a.487.487,0,0,0,.142-.021l.058-.023a.942.942,0,0,0,.464-.553h0a1.436,1.436,0,0,0,.042-.144v-.049l.021-.1a.424.424,0,0,1,0-.056l.014-.1V478.2a.324.324,0,0,1,.016-.123h0a4.318,4.318,0,0,1,.067-.464h0a8.379,8.379,0,0,1,.734-1.625h0c.035-.077.07-.156.1-.232s.06-.174.086-.262l.021-.081c.016-.065.03-.13.044-.2s0-.058.016-.088q.021-.132.035-.272a3.357,3.357,0,0,0-.232-1.521c-.162-.406-.406-.773-.571-1.18-.251-.615-.318-1.314-.622-1.9a2.264,2.264,0,0,0-2.717-1.105c-.464.177-.887.518-1.368.671a4.558,4.558,0,0,1-2-.039,2.5,2.5,0,0,0-1.941.334c-.618.5-.785,1.444-1.365,1.995-.232.232-.546.379-.8.592a1.312,1.312,0,0,0-.4.553l-.014.044a.412.412,0,0,0-.014.058.511.511,0,0,0-.012.065.266.266,0,0,0,0,.044.486.486,0,0,0,0,.116h0a.889.889,0,0,0,.016.109v.03a.272.272,0,0,0,.028.091c.012.03,0,.012,0,.016s.026.067.039.1l.021.049a.039.039,0,0,0,.019.039,2.871,2.871,0,0,1,.2.5.559.559,0,0,1-.021.332.98.98,0,0,1-.232.318,4.494,4.494,0,0,0-.984,1.577q-.04.1-.07.2h.03a1.31,1.31,0,0,0,.19.039.93.93,0,0,0,.109,0,1.7,1.7,0,0,0,.446-.033l.111-.028a2.527,2.527,0,0,0,.441-.16v.207a5.15,5.15,0,0,0,2.863,4.607.954.954,0,0,0,.019.139l.014.118-.058-.056s-.392-.2-.764.367a2.466,2.466,0,0,1-1.068.824s-3.971.627-4.124,1.147l-1.858.109s-.655.086-.72,1.451-.413,1.493-.413,1.493a5.167,5.167,0,0,0-.7,2.036,1.136,1.136,0,0,1-.59,1.04l-.086,1.235a.852.852,0,0,0-.929.736,2.937,2.937,0,0,1-.543,1.233s-1.2,1-1.266,1.841l-.743.464s-1.723-.39-2.115-1.082c0,0-.047-.046-.121-.114v-.016h0a6.987,6.987,0,0,0-.72-.634.523.523,0,0,1,.035.348l-.128-.142-.344-.381s-2.786-2.61-4.412-2.817h0c-.021-.042-.128-.464-.406-.2a2.276,2.276,0,0,0-.016,3.337l2.61,2.436.067.049.56.72a6.549,6.549,0,0,0-.232.646v.021l-.042.125a.262.262,0,0,0-.012.042c-.014.042-.026.081-.037.121l-.021.07v.042c-.063.218-.1.385-.121.478l-.146-.046.142.063v.067l.135.058c.764.332,4.577,2.006,4.772,2.259a2.807,2.807,0,0,0,2.968.411,3.125,3.125,0,0,0,1.591-1.753,18.3,18.3,0,0,0,1.31-2.016c.044-.26,1.024-.562,1.024-.562a13.114,13.114,0,0,1-.413,3.964,50.314,50.314,0,0,0-1.44,5.761.662.662,0,0,1,.186,0l-.056.272a.632.632,0,0,1,.232,0c-.07.534-.464,3.019-.464,3.019a6.185,6.185,0,0,1-.348,1.516,10.857,10.857,0,0,0-.232,2.427l-.351,1.472s.047.1.132.253h0a3.768,3.768,0,0,0,1,1.3,2.566,2.566,0,0,1-.176.673,2.367,2.367,0,0,0-.174,1.04,13.5,13.5,0,0,0-.327,2.143,8.19,8.19,0,0,1-.232,1.646l-.392,3.769a35.684,35.684,0,0,0-.13,4.159,7.977,7.977,0,0,1-.088,2.09s.262,2.578.2,2.858a5.332,5.332,0,0,0-.2,2.167,11.825,11.825,0,0,1,.088,2.513s.13,2.427.283,3.207a5.488,5.488,0,0,1-.044,1.776,14.649,14.649,0,0,1-.218,1.667,1.811,1.811,0,0,0,.522,2.273c1.154,1.126.439.952.439.952s-.929-.464-.808.478c.1.885.246.655.26.629l-.218.713.153.021-.125.151a3.271,3.271,0,0,1-.441.464.945.945,0,0,0-.283.627,17.009,17.009,0,0,1-3.119,2.643,9.011,9.011,0,0,0-1.772,1.191c-.269.293-.232.529.332.715a8.5,8.5,0,0,0,4.732.086,5.536,5.536,0,0,0,2.322-1.493,3.286,3.286,0,0,1,1.858-.3c.929.174,2.749-1.017,2.749-1.017l-.035-.307-.1-.887a.7.7,0,0,1-.153-.539,2.789,2.789,0,0,0-.077-.78c-.016-.086-.033-.172-.049-.251l.167-.033s-.216-1.1.176-1.321.281-3.054.281-3.054a3.425,3.425,0,0,0-.762-.757c-.262-.107-.023-1.454.023-1.626s.392-3.532.392-3.532a4.52,4.52,0,0,1,.042-1.514,7.423,7.423,0,0,0-.218-2.211.4.4,0,0,1,.109-.476,10.249,10.249,0,0,0,.153-2.577s-.021-1.161-.021-1.475a5.229,5.229,0,0,1,.5-1.774,3.411,3.411,0,0,0,.086-1.516h0l.014-.086a.323.323,0,0,1,.019-.123l.019-.116a16.865,16.865,0,0,1,.427-1.881c.283-.908.611-2.51.611-2.51l2.027-5.29.023-.063a8.354,8.354,0,0,1,.929,3.337,21.081,21.081,0,0,1,.177,2.447c-.056.52.151,2.965.151,2.965s.283,3.509.283,3.66a21.549,21.549,0,0,0,.569,3.272,2.861,2.861,0,0,1-.351,1.8,27.287,27.287,0,0,0,.044,3.314s-.328,2.513-.392,3.033a12.419,12.419,0,0,0-.109,3.293c.218.78.13.887.13.887s.787.8.327.868a1.2,1.2,0,0,0-.873,1.579,20.792,20.792,0,0,0,.961,2.322l.362-.077v.258l.026,1.291a7.537,7.537,0,0,1,.065,1.516c-.063.2-.151,1.175-.193,1.684-.016.186-.025.309-.025.309s0,1.147,2.422.8,2.856-1.3,2.856-1.3l.019-.118c.035-.218.114-.683.179-.943a6.84,6.84,0,0,0-.7-1.906,3.956,3.956,0,0,0-.348-1.3,1.159,1.159,0,0,1-.177-.464c-.019-.088-.037-.179-.051-.267a1.574,1.574,0,0,1,.162.028s-.132-.757.372-1a.713.713,0,0,0,.3-.952,7.353,7.353,0,0,1,.2-1.43.7.7,0,0,1,.174-.7,8.815,8.815,0,0,0,.546-2.427l.044-8.188a7.871,7.871,0,0,0-.021-2.036c-.174-.585-.348-1.711-.109-2.016s.021-1.709.021-1.709a17.422,17.422,0,0,1,.327-3.715c.327-.748.218-5.394.218-5.394l.086-3.054s.713-.673.546-4.18a5.681,5.681,0,0,1,1.746.03c.232.2,1.788,1.191,2.705.562a12.147,12.147,0,0,0,1.089-.843l-.385-6.5.385.6c0-.908,2.575-3.855,2.575-3.855a41.61,41.61,0,0,1,2.921-3.465,11,11,0,0,0,1.549-2.322,9.429,9.429,0,0,1,.525-1.082C1008.068,498.672,1007.284,497.632,1007.37,497.395Zm-5.626,2.273a4.26,4.26,0,0,0-2.05,1.886,1.339,1.339,0,0,1-.29.581c0-.13-.021-.262-.032-.4a40.025,40.025,0,0,1-.232-4.472,13.215,13.215,0,0,0,.086-2.146h0l.026-.035a11.035,11.035,0,0,0,1.8,2.963s.232.7.525.713S1001.743,499.668,1001.743,499.668Z" transform="translate(-746.12 -364.487)" fill="url(#linear-gradient-2)"/>
      <path id="Path_226" data-name="Path 226" d="M978.65,584.99s.8-4.18,3.353-4.18l1.872,3.848-1.247.859A11.8,11.8,0,0,1,978.65,584.99Z" transform="translate(-757.998 -450.304)" fill="#65617d"/>
      <path id="Path_227" data-name="Path 227" d="M983.875,584.623l-1.247.859a14.765,14.765,0,0,1-3.27-.274,3.773,3.773,0,0,1-.708-.232l.014-.067v-.014a9.293,9.293,0,0,1,.483-1.533c.079-.188.167-.381.265-.574a3.888,3.888,0,0,1,1.625-1.776,2.2,2.2,0,0,1,.852-.232H982l.042.086.632,1.3Z" transform="translate(-757.998 -450.281)" opacity="0.1"/>
      <path id="Path_228" data-name="Path 228" d="M1086.138,632.5a14.231,14.231,0,0,1,2.923-.063c.237.2,1.763,1.182,2.664.557s.3-2.787.3-2.879-.086-3.16-.086-3.16l-1.611-2.171-2.02-3.8-4.129-.409.107,6.037-.021,3.1Z" transform="translate(-839.023 -480.831)" fill="#65617d"/>
      <path id="Path_229" data-name="Path 229" d="M1086.138,632.5a14.231,14.231,0,0,1,2.923-.063c.237.2,1.763,1.182,2.664.557s.3-2.787.3-2.879-.086-3.16-.086-3.16l-1.611-2.171-2.02-3.8-4.129-.409.107,6.037-.021,3.1Z" transform="translate(-839.023 -480.831)" opacity="0.1"/>
      <path id="Path_230" data-name="Path 230" d="M970.491,567.215s-.216,2.622-1.858,2.666c0,0-.464-.279-1.087-.745-1.435-1.075-3.715-3.139-3.084-5.06.9-2.752,5.287,2.322,5.287,2.322l.339.378Z" transform="translate(-747.022 -436.827)" fill="#fbbebe"/>
      <path id="Path_231" data-name="Path 231" d="M980.584,578.818s-.216,2.622-1.858,2.666c0,0-.464-.279-1.087-.745l-.139-.179a2.14,2.14,0,0,0,.9.232,1.21,1.21,0,0,0,1.161-.736,9.27,9.27,0,0,0,.464-1.043,3.24,3.24,0,0,0,.165-.643Z" transform="translate(-757.115 -448.43)" opacity="0.1"/>
      <path id="Path_232" data-name="Path 232" d="M980.334,582.871l-.367-.464-1.238-1.593L978.1,580a2.12,2.12,0,0,0,.894.232,1.2,1.2,0,0,0,1.161-.736,9.114,9.114,0,0,0,.453-1.04c.2-.581.2-.878.128-.98a5.732,5.732,0,0,1,.711.632h0l.118.111.044.088.648,1.254a.325.325,0,0,1,0,.053C982.3,580.008,982.512,582.514,980.334,582.871Z" transform="translate(-757.576 -447.732)" fill="#e7effd"/>
      <path id="Path_233" data-name="Path 233" d="M1003.618,827.591s-1.807,1.184-2.71,1.01a3.251,3.251,0,0,0-1.827.3,5.425,5.425,0,0,1-2.278,1.484,8.345,8.345,0,0,1-4.665-.086c-.548-.183-.592-.42-.327-.711a9.91,9.91,0,0,1,1.746-1.182,16.88,16.88,0,0,0,3.074-2.622.929.929,0,0,1,.279-.625,3.209,3.209,0,0,0,.434-.464c.232-.272.448-.557.448-.557l5.32.2s.09.383.163.776a2.807,2.807,0,0,1,.074.773.7.7,0,0,0,.151.536l.1.878Z" transform="translate(-767.981 -637.13)" fill="#65617d"/>
      <path id="Path_234" data-name="Path 234" d="M1073.164,830.471c-.063.258-.142.718-.177.929a.393.393,0,0,1-.016.118s-.429.945-2.817,1.289-2.385-.794-2.385-.794l.023-.309c.042-.5.128-1.465.191-1.67a7.65,7.65,0,0,0-.063-1.5l-.026-1.282-.019-.889,3.948-.409a7.611,7.611,0,0,0,.128.88,1.131,1.131,0,0,0,.174.464,3.975,3.975,0,0,1,.344,1.289A6.516,6.516,0,0,1,1073.164,830.471Z" transform="translate(-826.423 -638.519)" fill="#65617d"/>
      <path id="Path_235" data-name="Path 235" d="M1021.859,824.424s.091.383.162.776c-.574.1-3.081.539-3.715.232a9.834,9.834,0,0,0-2.236-.536l.026-.088c.232-.272.448-.557.448-.557Z" transform="translate(-786.729 -637.214)" opacity="0.1"/>
      <path id="Path_236" data-name="Path 236" d="M1072.342,826.86a15.2,15.2,0,0,0-4.064.418l-.019-.889,3.948-.409a7.644,7.644,0,0,0,.135.88Z" transform="translate(-826.8 -638.542)" opacity="0.1"/>
      <path id="Path_237" data-name="Path 237" d="M1033.2,646.306l-.084,3.019s.107,4.621-.216,5.341a17.2,17.2,0,0,0-.323,3.676s.216,1.393-.021,1.7-.065,1.419.107,2a7.852,7.852,0,0,1,.021,2.02l-.042,8.127a8.644,8.644,0,0,1-.539,2.408.708.708,0,0,0-.172.7,7.231,7.231,0,0,0-.193,1.419.713.713,0,0,1-.3.945c-.492.237-.367.989-.367.989-1.182-.281-4.535.464-4.535.464a20.525,20.525,0,0,1-.947-2.3,1.191,1.191,0,0,1,.861-1.57c.45-.063-.323-.859-.323-.859s.086-.107-.13-.882a12.312,12.312,0,0,1,.109-3.267c.065-.515.385-3.019.385-3.019a27.364,27.364,0,0,1-.042-3.288,2.872,2.872,0,0,0,.344-1.783,21.535,21.535,0,0,1-.56-3.251c0-.156-.279-3.634-.279-3.634a28.966,28.966,0,0,1-.193-2.944,18.987,18.987,0,0,0-.174-2.429,8.255,8.255,0,0,0-.929-3.311l-.023.063-2,5.285s-.323,1.591-.6,2.494a16.42,16.42,0,0,0-.42,1.858l-.018.116-.019.121-.014.086h0a3.441,3.441,0,0,1-.088,1.5,5.366,5.366,0,0,0-.492,1.762c0,.3.021,1.463.021,1.463a9.836,9.836,0,0,1-.151,2.554.4.4,0,0,0-.107.464,7.408,7.408,0,0,1,.214,2.192,4.531,4.531,0,0,0-.042,1.5s-.344,3.332-.388,3.5-.279,1.5-.021,1.612a3.437,3.437,0,0,1,.752.752s.107,2.817-.279,3.03-.174,1.312-.174,1.312-3.116.6-3.825.258a9.806,9.806,0,0,0-2.236-.536l.214-.7c-.014.026-.156.255-.255-.625-.109-.929.794-.464.794-.464s.711.172-.43-.945a1.8,1.8,0,0,1-.516-2.257,14.409,14.409,0,0,0,.214-1.656,5.478,5.478,0,0,0,.044-1.763c-.151-.773-.279-3.181-.279-3.181a11.652,11.652,0,0,0-.088-2.494,5.285,5.285,0,0,1,.2-2.15c.065-.293-.2-2.838-.2-2.838a7.956,7.956,0,0,0,.088-2.09,35.287,35.287,0,0,1,.128-4.129l.388-3.739a7.723,7.723,0,0,0,.232-1.625,13.045,13.045,0,0,1,.323-2.127,2.36,2.36,0,0,1,.172-1.033,7.941,7.941,0,0,0,.3-1.858l2.064-4.728,1.01-4.18,13.649-.13s.049.362.132,1.019.2,1.625.33,2.831c.119,1.091.248,2.376.376,3.8C1034.059,645.488,1033.2,646.306,1033.2,646.306Z" transform="translate(-785.418 -490.574)" fill="#3f3d56"/>
      <path id="Path_238" data-name="Path 238" d="M1066.022,515.772l-3.179,3.4s-4.082-1.626-3.653-2.194a3.18,3.18,0,0,0,.044-1.651c-.151-1.191-.464-2.554-.464-2.554s7.136-1.161,6.532.042a1.979,1.979,0,0,0-.044,1.428A5.407,5.407,0,0,0,1066.022,515.772Z" transform="translate(-819.513 -397.68)" fill="#fbbebe"/>
      <path id="Path_239" data-name="Path 239" d="M1065.293,512.766c-.218.441-.323.483-.186.957-.929,1-2.12,2.09-3.6,2.09a5.09,5.09,0,0,1-2.276-.534c-.151-1.191-.464-2.554-.464-2.554S1065.9,511.563,1065.293,512.766Z" transform="translate(-819.513 -397.641)" opacity="0.1"/>
      <path id="Path_240" data-name="Path 240" d="M1058.774,488.092a5.117,5.117,0,1,1-10.234,0v-.074a5.116,5.116,0,0,1,10.231.074Z" transform="translate(-811.659 -375.16)" fill="#fbbebe"/>
      <path id="Path_241" data-name="Path 241" d="M1048.215,641.136c-.678,0-2.935.023-5.457.065h-.03l-.834.014h-.025c-2.991.046-5.938-.536-7.122-.427-2.515.232.9-2.322.9-2.322a21.093,21.093,0,0,0,5.729.578l.725-.037a31.675,31.675,0,0,0,5.782-.7C1047.969,638.969,1048.085,639.935,1048.215,641.136Z" transform="translate(-800.359 -494.452)" opacity="0.1"/>
      <path id="Path_242" data-name="Path 242" d="M1048.215,640.584c-.678,0-2.935.026-5.457.065h-.03l-.834.014h-.025c-2.991.049-5.938-.536-7.122-.425-2.515.232.9-2.322.9-2.322a20.986,20.986,0,0,0,5.729.578l.725-.037a31.469,31.469,0,0,0,5.782-.7C1047.969,638.417,1048.085,639.383,1048.215,640.584Z" transform="translate(-800.359 -494.029)" fill="#5f5d7e"/>
      <path id="Path_243" data-name="Path 243" d="M1041.5,530.949l-3.948,1.858-3.054,23.6s1.807-.817,2.838-.3,4.212.044,4.212.044a9.72,9.72,0,0,1,2.666.13c.344.26,4.386-1.075,4.386-1.075s.732-1.625.172-1.892.172-2.787.172-2.787L1048.6,533.5l-.7-2.192-1.858-1.119-1.89,1.5-.9.13Z" transform="translate(-800.879 -411.438)" opacity="0.1"/>
      <path id="Path_244" data-name="Path 244" d="M1041.478,529.847l-3.948,1.858-3.061,23.6s1.807-.817,2.838-.3,4.212.044,4.212.044a9.8,9.8,0,0,1,2.666.128c.344.258,4.387-1.073,4.387-1.073s.731-1.625.172-1.893.172-2.787.172-2.787l-.344-17.026-.7-2.192-1.858-1.119-1.89,1.5-.9.13Z" transform="translate(-800.856 -410.594)" fill="#e7effd"/>
      <path id="Path_245" data-name="Path 245" d="M1054.174,535.957s1.14,1.354,1.119,1.625-.065.947-.065.947l-.859,1.739s-.464,2.171-.464,2.624-.752,4.363-.752,4.363l-.922,6.026-1.14,7.9,1.161,2,1.377-1.161,1.828-14.058.385-2.773s.409-4.988.409-5.5a17.493,17.493,0,0,0-.232-1.869,2.2,2.2,0,0,1,1.442-1.591c1.161-.3-.088-.065-.088-.065l-.664-.536-.58.232S1054.518,535.355,1054.174,535.957Z" transform="translate(-813.617 -415.607)" opacity="0.1"/>
      <path id="Path_246" data-name="Path 246" d="M1053.685,535.358s1.138,1.354,1.117,1.625-.065.945-.065.945l-.859,1.742s-.464,2.171-.464,2.622-.752,4.363-.752,4.363l-.9,6.019-1.14,7.9,1.161,2,1.375-1.161,1.828-14.058.388-2.773s.409-4.988.409-5.5a17.573,17.573,0,0,0-.232-1.872,2.2,2.2,0,0,1,1.44-1.591c1.161-.3-.086-.063-.086-.063l-.666-.539-.58.232S1054.029,534.757,1053.685,535.358Z" transform="translate(-813.256 -415.139)" fill="#5e5e5e"/>
      <path id="Path_247" data-name="Path 247" d="M1057.731,526.79s-.172.13-.216.989a17.213,17.213,0,0,1-.646,2.787s2.236-1.547,3.353-1.375Z" transform="translate(-818.054 -408.828)" opacity="0.1"/>
      <path id="Path_248" data-name="Path 248" d="M1057.731,525.68s-.172.13-.216.989a17.214,17.214,0,0,1-.646,2.786s2.236-1.546,3.353-1.375Z" transform="translate(-818.054 -407.976)" fill="#e7effd"/>
      <path id="Path_249" data-name="Path 249" d="M1075.215,523.83l-3.525,3.1a35.908,35.908,0,0,1,3.353,2.192c.388.43.773-4.212.773-4.212Z" transform="translate(-829.433 -406.555)" opacity="0.1"/>
      <path id="Path_250" data-name="Path 250" d="M1075.765,522.72l-3.525,3.1a35.623,35.623,0,0,1,3.353,2.192c.385.43.773-4.212.773-4.212Z" transform="translate(-829.855 -405.703)" fill="#e7effd"/>
      <path id="Path_251" data-name="Path 251" d="M1027.278,526.684s-.385-.193-.752.367a2.427,2.427,0,0,1-1.052.815s-3.913.625-4.064,1.14l-1.828.107s-.646.086-.7,1.442-.409,1.482-.409,1.482a5.286,5.286,0,0,0-.7,2.02,1.131,1.131,0,0,1-.581,1.033l2.687,6.985a13.1,13.1,0,0,1-.409,3.934,49.985,49.985,0,0,0-1.419,5.719s.388-.086.365.172-.464,3.074-.464,3.074a6.262,6.262,0,0,1-.344,1.5,10.96,10.96,0,0,0-.232,2.406l-.344,1.463s.815,1.828,2.062,1.57,3.5-5.139,3.5-5.139l1.44-5.267,1.119-5.2.323-3.525.516-7.8.752-5.157S1027.58,527.051,1027.278,526.684Z" transform="translate(-787.474 -408.722)" opacity="0.1"/>
      <path id="Path_252" data-name="Path 252" d="M1026.721,525.574s-.388-.193-.752.367a2.441,2.441,0,0,1-1.054.815s-3.913.625-4.064,1.14l-1.825.107s-.646.086-.71,1.44-.409,1.484-.409,1.484a5.286,5.286,0,0,0-.7,2.02,1.126,1.126,0,0,1-.581,1.033l2.7,6.994a13.09,13.09,0,0,1-.409,3.934,50,50,0,0,0-1.419,5.719s.388-.086.367.172-.464,3.072-.464,3.072a6.124,6.124,0,0,1-.344,1.5,10.819,10.819,0,0,0-.232,2.408l-.344,1.463s.817,1.827,2.064,1.567,3.5-5.137,3.5-5.137l1.44-5.267,1.117-5.2.309-3.539.516-7.8.752-5.158S1027.02,525.941,1026.721,525.574Z" transform="translate(-787.044 -407.87)" fill="#65617d"/>
      <path id="Path_253" data-name="Path 253" d="M983.453,584.209l-1.247.859a14.767,14.767,0,0,1-3.27-.274l-.7-.309-.139-.06.144.046a2.847,2.847,0,0,0,1.721.06c1.765-.594,1.57-3.506,1.5-4.166a.611.611,0,0,0-.014-.125h0v.016a1.146,1.146,0,0,0,.081.114l.079.084h0l.646,1.24a.324.324,0,0,1,0,.053Z" transform="translate(-757.576 -449.866)" opacity="0.1"/>
      <path id="Path_254" data-name="Path 254" d="M988.179,561.14l-.6.172-.086,1.224a.832.832,0,0,0-.9.732,2.951,2.951,0,0,1-.536,1.226s-1.182.989-1.247,1.828l-.731.451s-1.7-.388-2.09-1.075c0,0,.776,5.545-3.353,4.18,0,0,4.621,2.02,4.837,2.3a2.7,2.7,0,0,0,2.923.409,3.066,3.066,0,0,0,1.57-1.742,17.952,17.952,0,0,0,1.289-2c.042-.258,1.01-.56,1.01-.56l1.858-4.47Z" transform="translate(-757.983 -435.201)" fill="#65617d"/>
      <path id="Path_255" data-name="Path 255" d="M1083.335,525.558l.622-2.838a3.34,3.34,0,0,0,.56,1.14l.929.7a5.454,5.454,0,0,0,1.247.43,7.533,7.533,0,0,1,2.278.7c.214.232,1.075.065,1.075.065s.708.232,1.333.388.929,1.182.794,1.591a1.242,1.242,0,0,0,.3,1.161,2.771,2.771,0,0,1,.388,1.1,1.258,1.258,0,0,1,.729.622,4.3,4.3,0,0,1,.151,1.5l-3.2,4.514a13.285,13.285,0,0,1-.086,2.129c-.128.388.45,6.966.45,6.966l.666,11.306a11.738,11.738,0,0,1-1.075.838c-.193.086-.385-4-.385-4.147s-4.967-7.431-4.967-7.431a6.672,6.672,0,0,1-.667-1.312c0-.237-.622-2.408-.622-2.408l-.945-4.18Z" transform="translate(-838.048 -405.703)" opacity="0.1"/>
      <path id="Path_256" data-name="Path 256" d="M1094.85,531.875v.246l-3.2,4.51h0a13.016,13.016,0,0,1-.086,2.129c-.074.232.088,2.538.232,4.438.109,1.37.209,2.526.209,2.526l.283,4.8.383,6.5a11.714,11.714,0,0,1-1.075.838c-.193.086-.385-4-.385-4.15s-4.967-7.431-4.967-7.431a6.67,6.67,0,0,1-.666-1.312c0-.237-.622-2.408-.622-2.408l-.945-4.18.429-12.811.365-2.838a6.093,6.093,0,0,0,.817,1.138l.929.711a5.453,5.453,0,0,0,1.247.43,7.533,7.533,0,0,1,2.278.7c.214.232,1.075.065,1.075.065s.711.232,1.333.388.929,1.182.794,1.591a1.244,1.244,0,0,0,.3,1.161,2.772,2.772,0,0,1,.388,1.1,1.259,1.259,0,0,1,.729.622A3.488,3.488,0,0,1,1094.85,531.875Z" transform="translate(-838.892 -405.711)" fill="#65617d"/>
      <path id="Path_257" data-name="Path 257" d="M1017.53,808.76c.107,0,4.621.172,4.535.9S1017.53,808.76,1017.53,808.76Z" transform="translate(-787.85 -625.321)" opacity="0.1"/>
      <path id="Path_258" data-name="Path 258" d="M1021.88,814s3.03.495,2.236.945S1021.88,814,1021.88,814Z" transform="translate(-791.19 -629.344)" opacity="0.1"/>
      <path id="Path_259" data-name="Path 259" d="M1070.39,806.73s5.03.43,4.277.987a6.611,6.611,0,0,1-2.622.666C1071.96,808.4,1070.39,806.73,1070.39,806.73Z" transform="translate(-828.435 -623.763)" opacity="0.1"/>
      <path id="Path_260" data-name="Path 260" d="M1067.8,816.26s2.786.464,2.88,1.01S1067.8,816.26,1067.8,816.26Z" transform="translate(-826.447 -631.08)" opacity="0.1"/>
      <path id="Path_261" data-name="Path 261" d="M1074.46,760.53s2.554.6,2.71,1.01Z" transform="translate(-831.56 -588.291)" opacity="0.1"/>
      <path id="Path_262" data-name="Path 262" d="M1030,768.49s-1.333.388-.042,1.161S1030,768.49,1030,768.49Z" transform="translate(-796.959 -594.402)" opacity="0.1"/>
      <path id="Path_263" data-name="Path 263" d="M1057.43,677.819c.151,0,2.494-.773,3.311-.43a5.444,5.444,0,0,0,1.825.344Z" transform="translate(-818.485 -524.388)" opacity="0.1"/>
      <path id="Path_264" data-name="Path 264" d="M1048.649,686.157l-.023.214-2,5.248s-.323,1.591-.6,2.494a16.393,16.393,0,0,0-.42,1.858l1.774-11Z" transform="translate(-809.402 -530.277)" opacity="0.1"/>
      <path id="Path_265" data-name="Path 265" d="M1067.709,642.952l-.834.014h-.026l-.49-2.167.724-.039Z" transform="translate(-825.341 -496.333)" fill="#3f3d56"/>
      <path id="Path_266" data-name="Path 266" d="M1087.228,632.074l-.534.441-1.788,1.47s-4.835,2.58-6.167.13c-1.175-2.16,4.307-3.7,5.629-4.038l.281-.067Z" transform="translate(-834.719 -488.079)" fill="#fbbebe"/>
      <path id="Path_267" data-name="Path 267" d="M1026.88,547.9s.945.43,1.161,1.031S1026.88,547.9,1026.88,547.9Z" transform="translate(-795.029 -425.036)" opacity="0.1"/>
      <path id="Path_268" data-name="Path 268" d="M1011.148,575.67s-1.375,1.677-.817,2.322S1011.148,575.67,1011.148,575.67Z" transform="translate(-782.22 -446.357)" opacity="0.1"/>
      <path id="Path_269" data-name="Path 269" d="M1115.783,552s-1.289.13-1.333,1.247Z" transform="translate(-862.264 -428.184)" opacity="0.1"/>
      <path id="Path_270" data-name="Path 270" d="M1068.72,614.156c.13-.13,3.1-4.514,3.785-4.126Z" transform="translate(-827.153 -472.72)" opacity="0.1"/>
      <path id="Path_271" data-name="Path 271" d="M1058.812,488.131a5.108,5.108,0,0,1-.606,2.415h-.037c-.325-.07-.495-.446-.741-.683a1.006,1.006,0,0,0-1.161-.163,1.179,1.179,0,0,0-.571,1.1c-.162-.7-.112-1.421-.272-2.111s-.641-1.393-1.3-1.393c-.283,0-.615.1-.82-.109a2.037,2.037,0,0,1-.232-.485c-.464-.764-1.9-.378-2.489.014a15.146,15.146,0,0,1-1.992,1.349,5.116,5.116,0,1,1,10.231.074Z" transform="translate(-811.697 -375.198)" opacity="0.1"/>
      <path id="Path_272" data-name="Path 272" d="M1048.709,477.436a3.262,3.262,0,0,0,.232.488c.2.211.536.1.82.107.659.012,1.142.711,1.3,1.393s.109,1.421.274,2.109a1.161,1.161,0,0,1,.569-1.1,1.01,1.01,0,0,1,1.161.16c.246.232.416.615.741.683s.636-.244.753-.585a8.977,8.977,0,0,0,.186-1.07,13.9,13.9,0,0,1,.827-1.858,3.368,3.368,0,0,0-.021-2.4c-.162-.4-.4-.766-.564-1.161-.248-.611-.313-1.3-.615-1.886a2.229,2.229,0,0,0-2.677-1.1c-.464.176-.873.515-1.347.669a4.423,4.423,0,0,1-1.971-.042,2.427,2.427,0,0,0-1.914.332c-.608.5-.776,1.435-1.347,1.981-.232.232-.539.376-.792.588a1.091,1.091,0,0,0-.444.873c.04.446.464.85.314,1.263a.984.984,0,0,1-.232.313,4.5,4.5,0,0,0-1.04,1.772c1.161.358,2.4-.91,3.3-1.509C1046.8,477.06,1048.238,476.674,1048.709,477.436Z" transform="translate(-807.344 -366.071)" fill="#7c5c5c"/>
      <path id="Path_273" data-name="Path 273" d="M1106.1,632.074l-.534.441a15.347,15.347,0,0,0-2.41-2.357l.084-.081.281-.067Z" transform="translate(-853.595 -488.079)" opacity="0.1"/>
      <path id="Path_274" data-name="Path 274" d="M1107.05,629s-.19.478-.39.892-.416.79-.425.485c-.023-.6-2.515-2.624-2.515-2.624l.337-.33.392-.381Z" transform="translate(-854.026 -485.799)" fill="#e7effd"/>
      <path id="Path_275" data-name="Path 275" d="M1107.205,613.417l.283,4.8c-.669-1.038-2.5-3.7-3.678-3.613l2.859-3.288a3.843,3.843,0,0,0,.327-.42C1107.105,612.26,1107.205,613.417,1107.205,613.417Z" transform="translate(-854.095 -473.399)" opacity="0.1"/>
      <path id="Path_276" data-name="Path 276" d="M1108.163,629s-.19.478-.39.892c-.75-1.026-1.779-2.241-2.6-2.468l.392-.381Z" transform="translate(-855.139 -485.799)" opacity="0.1"/>
      <path id="Path_277" data-name="Path 277" d="M1109.692,560.58l.773.6s1.291.023,1.419,1.1a2.241,2.241,0,0,0,1.312,1.57s.88.882.88,1.291.666,1.138.666,1.2.646,1.375.56,1.612.7,1.268.45,1.656a9.924,9.924,0,0,0-.516,1.075,10.9,10.9,0,0,1-1.526,2.3,41.145,41.145,0,0,0-2.88,3.441s-2.538,2.921-2.538,3.825c0,0-2.471-4.126-3.934-4.02l2.859-3.288a2.229,2.229,0,0,0,.518-.859,4.233,4.233,0,0,1,2.02-1.872s.107-.88-.172-.9-.516-.7-.516-.7-1.892-2.236-1.913-3.655S1109.692,560.58,1109.692,560.58Z" transform="translate(-854.517 -434.771)" fill="#65617d"/>
      <path id="Path_278" data-name="Path 278" d="M1127.359,569.37s-1.807,1.333-1.419,1.765S1127.359,569.37,1127.359,569.37Z" transform="translate(-871.044 -441.52)" opacity="0.1"/>
      <path id="Path_279" data-name="Path 279" d="M1132.6,591.49s3.353-1.075,3.7,0Z" transform="translate(-876.199 -458.137)" opacity="0.1"/>
      <path id="Path_280" data-name="Path 280" d="M1003.618,837.994s-1.807,1.184-2.71,1.01a3.251,3.251,0,0,0-1.827.3,5.425,5.425,0,0,1-2.278,1.484,8.345,8.345,0,0,1-4.665-.086c-.548-.183-.592-.42-.327-.711,1.261.251,4.082.75,4.842.388a20.145,20.145,0,0,0,2.408-1.5s1.858-.258,2.106-.258a23.005,23.005,0,0,0,2.417-.929Z" transform="translate(-767.981 -647.533)" opacity="0.1"/>
      <path id="Path_281" data-name="Path 281" d="M1073.018,849.45a.4.4,0,0,1-.016.118s-.43.945-2.817,1.289-2.385-.794-2.385-.794l.023-.309C1068.578,850.042,1070.227,850.36,1073.018,849.45Z" transform="translate(-826.447 -656.563)" opacity="0.1"/>
      <path id="Path_282" data-name="Path 282" d="M1028.951,568.26s0,4.9-.418,5.385S1028.951,568.26,1028.951,568.26Z" transform="translate(-796.208 -440.668)" opacity="0.1"/>
      <path id="Path_283" data-name="Path 283" d="M1114.17,575.07l.625,1.751S1115.041,575.1,1114.17,575.07Z" transform="translate(-862.049 -445.897)" opacity="0.1"/>
      <g id="Group_15" data-name="Group 15" transform="translate(235.588 109.152)" opacity="0.1">
        <path id="Path_284" data-name="Path 284" d="M1047.461,490.081c.158-.4-.255-.8-.309-1.231a.791.791,0,0,0-.07.388,7.586,7.586,0,0,0,.332.929A.526.526,0,0,0,1047.461,490.081Z" transform="translate(-1046.126 -488.85)"/>
        <path id="Path_285" data-name="Path 285" d="M1051.439,499.211c-.153-.678-.107-1.393-.265-2.074s-.641-1.393-1.3-1.393c-.283,0-.615.1-.82-.109-.125-.128-.149-.33-.232-.488-.464-.762-1.9-.374-2.492.016-.878.583-2.09,1.807-3.214,1.528-.053.13-.1.262-.146.4,1.161.358,2.4-.91,3.3-1.509.588-.39,2.02-.776,2.492-.014a3.287,3.287,0,0,0,.232.488c.2.211.536.1.82.107.66.012,1.142.711,1.3,1.393s.109,1.421.274,2.108A1.16,1.16,0,0,1,1051.439,499.211Z" transform="translate(-1042.97 -493.35)"/>
        <path id="Path_286" data-name="Path 286" d="M1082.694,509.384c-.116.341-.423.655-.755.585s-.492-.446-.738-.683a1.013,1.013,0,0,0-1.161-.163,1.175,1.175,0,0,0-.571,1.043,1.121,1.121,0,0,1,.506-.622,1.01,1.01,0,0,1,1.161.16c.246.232.416.615.741.683s.636-.244.752-.585a2.75,2.75,0,0,0,.119-.618A1.5,1.5,0,0,1,1082.694,509.384Z" transform="translate(-1070.993 -504.329)"/>
        <path id="Path_287" data-name="Path 287" d="M1094.779,496.418a14.927,14.927,0,0,0-.827,1.858c-.028.135-.046.274-.062.413a14.293,14.293,0,0,1,.824-1.858,3.234,3.234,0,0,0,.2-.892,3.263,3.263,0,0,1-.133.478Z" transform="translate(-1082.066 -494.294)"/>
      </g>
      <circle id="Ellipse_23" data-name="Ellipse 23" cx="0.053" cy="0.053" r="0.053" transform="translate(217.183 126.735)" fill="#e6e8ec"/>
      <rect id="Rectangle_86" data-name="Rectangle 86" width="42.072" height="48.351" rx="6.61" transform="translate(197.175 127.987)" fill="#fff"/>
      <rect id="Rectangle_87" data-name="Rectangle 87" width="42.072" height="48.351" rx="6.61" transform="translate(197.175 127.987)" fill="#5a5773" opacity="0.1"/>
      <rect id="Rectangle_88" data-name="Rectangle 88" width="37.781" height="43.419" rx="6.61" transform="translate(199.321 130.453)" fill="#fff"/>
      <rect id="Rectangle_89" data-name="Rectangle 89" width="25.919" height="8.945" rx="4.472" transform="translate(204.817 139.161)" fill="#5e5e5e"/>
      <rect id="Rectangle_90" data-name="Rectangle 90" width="24.018" height="1.825" transform="translate(205.769 151.377)" fill="#5e5e5e"/>
      <rect id="Rectangle_91" data-name="Rectangle 91" width="33.048" height="1.825" transform="translate(201.687 155.23)" fill="#5e5e5e"/>
      <rect id="Rectangle_92" data-name="Rectangle 92" width="33.048" height="1.825" transform="translate(201.687 159.284)" fill="#5e5e5e"/>
      <rect id="Rectangle_93" data-name="Rectangle 93" width="33.048" height="1.825" transform="translate(201.687 163.339)" fill="#5e5e5e"/>
      <rect id="Rectangle_94" data-name="Rectangle 94" width="99.064" height="48.351" rx="6.61" transform="translate(0 112.004)" fill="#fff"/>
      <rect id="Rectangle_95" data-name="Rectangle 95" width="99.064" height="48.351" rx="6.61" transform="translate(0 112.004)" fill="#5a5773" opacity="0.1"/>
      <rect id="Rectangle_96" data-name="Rectangle 96" width="88.956" height="43.419" rx="6.61" transform="translate(5.053 114.47)" fill="#fff"/>
      <rect id="Rectangle_97" data-name="Rectangle 97" width="61.027" height="8.945" rx="4.472" transform="translate(17.999 123.18)" fill="#5e5e5e"/>
      <rect id="Rectangle_98" data-name="Rectangle 98" width="56.55" height="1.825" transform="translate(20.237 135.394)" fill="#5e5e5e"/>
      <rect id="Rectangle_99" data-name="Rectangle 99" width="77.814" height="1.825" transform="translate(10.624 139.247)" fill="#5e5e5e"/>
      <rect id="Rectangle_100" data-name="Rectangle 100" width="77.814" height="1.825" transform="translate(10.624 143.301)" fill="#5e5e5e"/>
      <rect id="Rectangle_101" data-name="Rectangle 101" width="77.814" height="1.825" transform="translate(10.624 147.356)" fill="#5e5e5e"/>
      <path id="Path_288" data-name="Path 288" d="M132.659,575.342c.276-1.008.464-1.895.464-1.895a3.947,3.947,0,0,1,.516-1.92v-.279h0l.079-2.046a6.812,6.812,0,0,0-.464-1.091c-.344-.657.116-3,.116-3s1.493-3.267,1.242-5.387,3.163-9.249,3.163-9.249a9.168,9.168,0,0,0-.214-2.09,1.6,1.6,0,0,1-.023-.434.411.411,0,0,1,0-.053v.016a15.972,15.972,0,0,1,1.3-3.948L138.88,539a14.64,14.64,0,0,1,.7-6.839c.453-1.356.75-2.443.945-3.283.023-.1.044-.186.063-.274-2.341-.45-4.129-.817-4.129-.817s1.586-5.661,2.554-6.625,1.818-4.08,1.818-4.08.636-4.017-.093-5.225a7.874,7.874,0,0,1-.762-3.251s-1.723-1.354-1.923-1.932a9.473,9.473,0,0,1-.492-2.554c.026-.673.272-1.277.211-1.637s.583-1.693.311-2.348a1.8,1.8,0,0,1-.093-.625v-.019h0a8.689,8.689,0,0,1,.221-1.67A4.738,4.738,0,0,1,140,496.95l.044-.153.116-.4a1.926,1.926,0,0,1,.176-.1l.012-.146.037-.578-.223-1.319c-.464-2.29,2.582-2.51,2.582-2.51a1.6,1.6,0,0,1,.885-.72c.618-.19-.028,3.416-.323,3.636a12.324,12.324,0,0,0-1.266,1.823h0l-.056.091a1.251,1.251,0,0,1,.135.151l-.146.783-.023.118a3.25,3.25,0,0,1,.453.843,1.751,1.751,0,0,0-.492,1.268,4.084,4.084,0,0,1-.232,1.563c.033-.035.439-.441.824-.325s1.458.485,1.458.485.806.174.724.351.518.985.518.985l2.259-1.981c.026-.063.049-.123.072-.186a5.188,5.188,0,0,0,.232-.9,4.859,4.859,0,0,1-.7-.248,1.517,1.517,0,0,1-.59-.409,2.438,2.438,0,0,1-.313-.954,13.376,13.376,0,0,0-.741-1.837,5.873,5.873,0,0,1-.311-3.251,2.164,2.164,0,0,1,.372-.929c.376-.476,1.029-.65,1.514-1.022s.81-.959,1.368-1.231a2.636,2.636,0,0,1,1.663-.079,8.886,8.886,0,0,1,3.03,1.233,1.574,1.574,0,0,0,1.022.381,1.41,1.41,0,0,0,.766-.518.172.172,0,0,1,0-.033l.026-.026a3.829,3.829,0,0,1,.274,1.644,1.227,1.227,0,0,1-.019.26v.091a.423.423,0,0,0,0,.077h0a.383.383,0,0,0,.014.114.815.815,0,0,0,.193.3,1.661,1.661,0,0,1,.167.248.334.334,0,0,0-.026-.091,1.3,1.3,0,0,1,.2.7.68.68,0,0,1-.183.485,2.163,2.163,0,0,1-.367.274,4.168,4.168,0,0,1-2.155,4.247c-.028.06-.056.123-.081.186a5.192,5.192,0,0,0-.488,2.362.557.557,0,0,0,.019.174c.019.058.053.063.077.1h0s3.6.174,4.477-.562,2.067,1.958,2.067,1.958,1.282.3,1.549.06,1.774.032,1.774.032a3.251,3.251,0,0,1,2.28-.736,6.662,6.662,0,0,1,1.688-.855h0l.042-.014h0a1.82,1.82,0,0,1,.815-.072,16.368,16.368,0,0,0,2.373-2.162c.546-.769,3.107-3.585,3.107-3.6l.016-.139.044-.423a1.413,1.413,0,0,0,.218.028l.056-.146a7.975,7.975,0,0,1,.569-1.18s.021-.536-.13-.676a9.138,9.138,0,0,1,.146-2.09s1.739-3.669,3.061-.829c0,0,2.633,1.906.283,3.917,0,0-.929.4-1.061.745-.093.232-.425.841-.648,1.252l-.1.183.026.023-.046.348-.019.137c.416.258.7.509.62.7a3.948,3.948,0,0,0-.295.954s-3.283,3.785-3.753,5.455c0,0-8.606,4.677-11.378,4.927l.383,2.517a20.066,20.066,0,0,1,.033,2.041c-.058.534.218,2.975.218,2.975s.341,3.59.729,4.106.232,2.656.232,2.656a18.089,18.089,0,0,0,.437,3.056,7.808,7.808,0,0,1,0,3.04s1.279,3.267-1.995.959c0,0-1.644-.165-3.539-.3v.188c0,.246-.012.511-.019.789-.046,1.841-.132,4.377-.29,6.293-.279,3.388-1.57,10.062-1.57,10.062l-.13,3.372a4.467,4.467,0,0,1,.06.968,6.27,6.27,0,0,1-1.038,3.342l-.346,2.241a8.83,8.83,0,0,0-.708,2.343,1.056,1.056,0,0,0,.019.216,1.722,1.722,0,0,1,.016.346,18.947,18.947,0,0,1-.715,3.441s-.132,2.464-.506,2.592c-.32.111.367,1.437.571,1.818a.376.376,0,0,0,.016-.07l.044.074a1.751,1.751,0,0,1,.091.629.9.9,0,0,1-.444.85c-.718.4-1.108.743-.518.91a6.52,6.52,0,0,1,.646.16l.035-.081a.4.4,0,0,1,.232.441,1.8,1.8,0,0,1-.253.827A9,9,0,0,1,150.9,573.8l-.283-.042a1.417,1.417,0,0,0,.153.309,1.18,1.18,0,0,0,.4.388,1.292,1.292,0,0,0,.5.19,1.433,1.433,0,0,1,1.026.55,1.087,1.087,0,0,1-.2,1.688l-2.673.808s-4.561.416-4.282-.592.464-1.895.464-1.895a4.029,4.029,0,0,1,.437-1.793,2.4,2.4,0,0,1,.172-.26l-.16-.023a8.212,8.212,0,0,0-.7-2.7c-.1-.1-.118-.181-.093-.232-.039-.123.077-.19.232-.232a.363.363,0,0,0,.03.088,2.235,2.235,0,0,1,.441-.03s.193-1.173-.269-1.625a.441.441,0,0,1-.079-.353,1.809,1.809,0,0,1,.067-.478.171.171,0,0,0,.016.028,17.578,17.578,0,0,1,1.161-2.726,3.412,3.412,0,0,0-.2-1.512c-.279-.441.262-5.819.262-5.819a17.635,17.635,0,0,1,.367-3.811,4.292,4.292,0,0,0-.3-2.659.369.369,0,0,1,.012-.077.1.1,0,0,0,0-.021s.023-.16.06-.409v.025c.1-.7.29-1.93.416-2.505.179-.815.146-4.751.146-4.751l-.6-1.7-1.293,2.847-1.393,3.808a3.277,3.277,0,0,0-.7,1.625v.123a1.936,1.936,0,0,1,0,.258,2.3,2.3,0,0,1-.437,1.358,6.062,6.062,0,0,1-.929,2.252,2.1,2.1,0,0,0-.569,1.338,22.864,22.864,0,0,1-1.043,3.072,4.621,4.621,0,0,0-.327,1.786h0v.1s-.123.943-.151,1.737v.281a.053.053,0,0,1,0-.019,2.689,2.689,0,0,0,.051.643s0,.026,0,.04v-.135a6.755,6.755,0,0,1,.128,1.653,4.242,4.242,0,0,1-.81,2.708c-1.04,1.105-1.66.929-1.66.929s.425,1.447,1,1.755a.362.362,0,0,1,.063.042.143.143,0,0,1,.016-.081.7.7,0,0,1,.153.539,3.85,3.85,0,0,1-.813,2.09,1.162,1.162,0,0,1-.509.274.87.87,0,0,0,.091.06,1.805,1.805,0,0,0,.2.1.988.988,0,0,0,.3.091,1.411,1.411,0,0,1,1.026.55,1.085,1.085,0,0,1-.2,1.686l-2.673.808S132.378,576.35,132.659,575.342Z" transform="translate(-108.446 -380.195)" fill="url(#linear-gradient-3)"/>
      <path id="Path_289" data-name="Path 289" d="M193.328,852.514l2.589-.81a1.112,1.112,0,0,0,.19-1.69,1.356,1.356,0,0,0-.992-.546,1.213,1.213,0,0,1-.483-.193,1.16,1.16,0,0,1-.388-.385,1.9,1.9,0,0,1-.253-1s-2.773-.929-3.571-.137a2.085,2.085,0,0,0-.355.485,4.18,4.18,0,0,0-.427,1.793s-.176.885-.448,1.895S193.328,852.514,193.328,852.514Z" transform="translate(-151.851 -655.014)" fill="#2d293d"/>
      <path id="Path_290" data-name="Path 290" d="M139.7,844.993l2.589-.81a1.109,1.109,0,0,0,.19-1.688,1.356,1.356,0,0,0-.994-.548.913.913,0,0,1-.288-.088,1.81,1.81,0,0,1-.193-.1,1.639,1.639,0,0,1-.643-1.393s-2.773-.929-3.571-.137a2.054,2.054,0,0,0-.283.353,4.052,4.052,0,0,0-.5,1.925s-.179.887-.448,1.895S139.7,844.993,139.7,844.993Z" transform="translate(-110.675 -649.233)" fill="#2d293d"/>
      <path id="Path_291" data-name="Path 291" d="M193.353,847.752a2.091,2.091,0,0,0-.353.485h0l4.18.648a1.9,1.9,0,0,1-.253-1S194.161,846.96,193.353,847.752Z" transform="translate(-154.785 -655.013)" opacity="0.1"/>
      <path id="Path_292" data-name="Path 292" d="M139.59,840.586l-.03.787c.613,1.1,3.783.989,4.721.485a1.808,1.808,0,0,1-.193-.1,1.639,1.639,0,0,1-.643-1.393s-2.773-.929-3.571-.137A2.054,2.054,0,0,0,139.59,840.586Z" transform="translate(-113.754 -649.233)" opacity="0.1"/>
      <path id="Path_293" data-name="Path 293" d="M137.695,690.879a7.218,7.218,0,0,1,.464,1.091l-.114,2.819c.669,1.207,4.4.957,4.923.334s1.124-2.283.564-2.589-.971-1.755-.971-1.755.6.167,1.612-.929.82-3.653.662-4.266a12.467,12.467,0,0,1,.1-2.643,5.287,5.287,0,0,1,.323-1.883,23.368,23.368,0,0,0,1.012-3.072,2.1,2.1,0,0,1,.55-1.338,6.117,6.117,0,0,0,.91-2.255,2.336,2.336,0,0,0,.416-1.521,3.127,3.127,0,0,1,.678-1.835l1.363-3.808,1.254-2.849.578,1.7s.028,3.936-.146,4.751-.464,2.986-.464,2.986a4.416,4.416,0,0,1,.293,2.659,18.346,18.346,0,0,0-.362,3.811s-.529,5.38-.26,5.819a3.5,3.5,0,0,1,.193,1.509s-1.584,3.086-1.138,3.534.26,1.625.26,1.625-1-.039-.587.406a8.423,8.423,0,0,1,.632,2.691l4.3.666a9.092,9.092,0,0,0,1.036-1.786c.622-1.3-.06-1.182-.629-1.347s-.193-.509.5-.91.339-1.382.339-1.382-.968-1.79-.6-1.918.492-2.591.492-2.591a15.958,15.958,0,0,0,.678-3.694,7.157,7.157,0,0,1,.676-2.657l.334-2.238a6.184,6.184,0,0,0,.95-4.219l.135-3.465s1.263-6.662,1.547-10.062c.176-2.169.265-5.134.3-6.985.023-1.04.033-1.728.033-1.728l-15.365-2.2a12.679,12.679,0,0,1-.369,2.28,33.9,33.9,0,0,1-.929,3.286,15.1,15.1,0,0,0-.7,6.839l-.049,4.969s-1.486,3.27-1.242,4.424a9.437,9.437,0,0,1,.2,2.09s-3.307,7.124-3.065,9.235-1.21,5.39-1.21,5.39S137.363,690.222,137.695,690.879Z" transform="translate(-112.228 -502.936)" fill="#575988"/>
      <path id="Path_294" data-name="Path 294" d="M163.722,746.813,159.05,746S161.607,748.824,163.722,746.813Z" transform="translate(-128.719 -577.135)" opacity="0.05"/>
      <path id="Path_295" data-name="Path 295" d="M161.66,726.39s-.232,1.653.769,2.322C162.419,728.708,160.62,728.352,161.66,726.39Z" transform="translate(-130.474 -562.078)" opacity="0.1"/>
      <path id="Path_296" data-name="Path 296" d="M164.85,703.67s3.8,3.383,5.239,3.172S164.85,703.67,164.85,703.67Z" transform="translate(-133.172 -544.634)" opacity="0.1"/>
      <path id="Path_297" data-name="Path 297" d="M204,757s2.956.794,3,1.992S204,757,204,757Z" transform="translate(-163.231 -585.58)" opacity="0.1"/>
      <path id="Path_298" data-name="Path 298" d="M196.138,821s4.18.947,2.968,1.437a20.243,20.243,0,0,1-3.2.843S194.547,823.3,196.138,821Z" transform="translate(-156.601 -634.719)" opacity="0.05"/>
      <g id="Group_16" data-name="Group 16" transform="translate(25.347 148.51)" opacity="0.05">
        <path id="Path_299" data-name="Path 299" d="M212.41,829.035a.836.836,0,0,0,.409-.594l.039.077s.358.978-.339,1.393c-.079.044-.153.091-.232.135-.123-.028-.258-.051-.385-.088C211.335,829.782,211.713,829.439,212.41,829.035Z" transform="translate(-194.433 -788.941)"/>
        <path id="Path_300" data-name="Path 300" d="M191.4,826.446c-.111-.111-.1-.385,0-.736a2,2,0,0,1,.2,1.045.812.812,0,0,0-.2-.309Z" transform="translate(-178.846 -786.845)"/>
        <path id="Path_301" data-name="Path 301" d="M197.2,752.48a4.859,4.859,0,0,1,.232,1.326,5.062,5.062,0,0,0-.293-.915S197.166,752.731,197.2,752.48Z" transform="translate(-183.31 -730.62)"/>
        <path id="Path_302" data-name="Path 302" d="M156.078,741.513a1.705,1.705,0,0,1-.026-.392c.044.269.072.518.088.736C156.122,741.745,156.1,741.631,156.078,741.513Z" transform="translate(-151.762 -721.898)"/>
        <path id="Path_303" data-name="Path 303" d="M195.461,804.537a2.366,2.366,0,0,1-.074-.8,2.687,2.687,0,0,1,.167,1.008A.982.982,0,0,0,195.461,804.537Z" transform="translate(-181.959 -769.977)"/>
        <path id="Path_304" data-name="Path 304" d="M190.047,836a14.026,14.026,0,0,1,.406,2.213l4.3.667a9,9,0,0,0,1.038-1.786c.056-.114.1-.216.135-.309.253.128.346.4-.026,1.173a9.109,9.109,0,0,1-1.036,1.783l-4.308-.662a8.457,8.457,0,0,0-.648-2.705C189.715,836.153,189.859,836.053,190.047,836Z" transform="translate(-177.688 -794.745)"/>
        <path id="Path_305" data-name="Path 305" d="M214.184,693.406s-.13,2.464-.492,2.591h0c-.165-.416-.272-.806-.109-.864.362-.13.495-2.591.495-2.591a15.931,15.931,0,0,0,.678-3.694,7.137,7.137,0,0,1,.673-2.654l.337-2.241a6.184,6.184,0,0,0,.95-4.219l.132-3.465s1.259-6.674,1.533-10.062c.174-2.169.262-5.134.3-6.985,0-.334.014-.632.019-.882l.123.019s0,.7-.033,1.725c-.039,1.858-.128,4.818-.3,6.987-.274,3.386-1.53,10.062-1.53,10.062l-.135,3.462a6.191,6.191,0,0,1-.947,4.219l-.339,2.241a7.116,7.116,0,0,0-.676,2.656A15.881,15.881,0,0,1,214.184,693.406Z" transform="translate(-195.873 -658.34)"/>
        <path id="Path_306" data-name="Path 306" d="M144.434,836.79a4.181,4.181,0,0,0,.748-1.67c.425.413-.139,1.939-.639,2.531s-4.254.873-4.923-.332l.026-.68C140.574,837.633,143.937,837.38,144.434,836.79Z" transform="translate(-139.147 -794.07)"/>
        <path id="Path_307" data-name="Path 307" d="M137.6,823.908a7.208,7.208,0,0,1,.464,1.091l-.021.5a7.8,7.8,0,0,0-.33-.729,2.153,2.153,0,0,1-.121-.889Z" transform="translate(-137.584 -785.44)"/>
        <path id="Path_308" data-name="Path 308" d="M158.94,810.106a6.984,6.984,0,0,1-.32-.861s.6.165,1.609-.941a5.082,5.082,0,0,0,.773-3.4c.158.615.346,3.16-.662,4.266A2.575,2.575,0,0,1,158.94,810.106Z" transform="translate(-153.735 -770.867)"/>
        <path id="Path_309" data-name="Path 309" d="M168.439,729.3a19.1,19.1,0,0,0-.153,2.115,3.015,3.015,0,0,0-.06-.334,12.652,12.652,0,0,1,.1-2.643,5.34,5.34,0,0,1,.323-1.883,23.728,23.728,0,0,0,1.012-3.072,2.108,2.108,0,0,1,.553-1.338,6.133,6.133,0,0,0,.91-2.255,2.35,2.35,0,0,0,.416-1.521,3.127,3.127,0,0,1,.678-1.835l1.363-3.808,1.254-2.849.578,1.7v.543l-.464-1.393-1.254,2.847-1.363,3.811a3.1,3.1,0,0,0-.678,1.834,2.336,2.336,0,0,1-.416,1.521,6.112,6.112,0,0,1-.91,2.252,2.1,2.1,0,0,0-.55,1.338,23.858,23.858,0,0,1-1.012,3.075A5.412,5.412,0,0,0,168.439,729.3Z" transform="translate(-161.071 -697.912)"/>
      </g>
      <path id="Path_310" data-name="Path 310" d="M167.132,499.4l.218,1.314-.037.581-.028.427,1.484.211.179-.3h0a13.588,13.588,0,0,1,1.228-1.825c.283-.221.915-3.827.316-3.636a1.567,1.567,0,0,0-.859.72S166.693,497.109,167.132,499.4Z" transform="translate(-134.89 -385.309)" fill="#ffcdd3"/>
      <path id="Path_311" data-name="Path 311" d="M167.94,518.2l1.484.211.179-.3h0a1.317,1.317,0,0,0-1.625-.334Z" transform="translate(-135.544 -401.796)" opacity="0.1"/>
      <path id="Path_312" data-name="Path 312" d="M166.2,519.365l1.948.532.051-.293.142-.782a1.354,1.354,0,0,0-1.893-.332l-.111.4Z" transform="translate(-134.208 -402.264)" fill="#dce6f2"/>
      <path id="Path_313" data-name="Path 313" d="M303.74,495.584l2.053,1.208s.086-.165.207-.39c.216-.411.536-1.029.627-1.252.137-.341,1.029-.748,1.029-.748,2.278-2.013-.269-3.915-.269-3.915-1.277-2.84-2.963.831-2.963.831a9.445,9.445,0,0,0-.144,2.09c.146.132.125.676.125.676a7.9,7.9,0,0,0-.553,1.18C303.779,495.456,303.74,495.584,303.74,495.584Z" transform="translate(-239.81 -380.127)" fill="#ffcdd3"/>
      <path id="Path_314" data-name="Path 314" d="M303.74,514.983l2.053,1.208s.086-.165.207-.39c-.288-.258-1.305-1.161-1.651-1.124a2.5,2.5,0,0,1-.5,0C303.779,514.855,303.74,514.983,303.74,514.983Z" transform="translate(-239.81 -399.526)" opacity="0.1"/>
      <path id="Path_315" data-name="Path 315" d="M302.71,515.952l2.322,1.252.065-.506.046-.348s-1.319-1.221-1.723-1.194a2.19,2.19,0,0,1-.618-.026l-.042.423Z" transform="translate(-239.019 -399.875)" fill="#dce6f2"/>
      <path id="Path_316" data-name="Path 316" d="M190.45,522.261s10.234,1.556,8.336.859a2.577,2.577,0,0,1-1.895-2.306,5.392,5.392,0,0,1,.464-2.364,10.36,10.36,0,0,1,.992-1.82s-7.691-4.623-6.27-.634a6.3,6.3,0,0,1,.374,1.879,5.3,5.3,0,0,1-.274,1.876,5.62,5.62,0,0,1-1.728,2.51Z" transform="translate(-152.827 -399.294)" fill="#ffcdd3"/>
      <path id="Path_317" data-name="Path 317" d="M196.92,516a6.3,6.3,0,0,1,.374,1.879,3.626,3.626,0,0,0,2.571.678,4.554,4.554,0,0,0,2.322-.1,10.362,10.362,0,0,1,.992-1.82S195.5,512.006,196.92,516Z" transform="translate(-157.66 -399.294)" opacity="0.1"/>
      <circle id="Ellipse_24" data-name="Ellipse 24" cx="4.252" cy="4.252" r="4.252" transform="translate(38.245 111.035)" fill="#ffcdd3"/>
      <path id="Path_318" data-name="Path 318" d="M190.45,538.762s10.234,1.556,8.336.859a2.577,2.577,0,0,1-1.895-2.306,5.653,5.653,0,0,0-2.155-1.252,3.1,3.1,0,0,0-1.858-.1,2.552,2.552,0,0,0-.7.29,5.62,5.62,0,0,1-1.732,2.51Z" transform="translate(-152.827 -415.795)" opacity="0.1"/>
      <path id="Path_319" data-name="Path 319" d="M166.2,521.33l1.948.532.051-.293a1.734,1.734,0,0,0-1.858-.718Z" transform="translate(-134.208 -404.229)" opacity="0.1"/>
      <path id="Path_320" data-name="Path 320" d="M302.71,517.388l2.322,1.252.065-.506A17.591,17.591,0,0,0,302.752,517Z" transform="translate(-239.019 -401.311)" opacity="0.1"/>
      <path id="Path_321" data-name="Path 321" d="M168.65,651.64c3.948.783,9.59,1.818,10.5,1.579a26.379,26.379,0,0,1,5.2.07c.023-1.04.033-1.728.033-1.728l-15.365-2.2A12.677,12.677,0,0,1,168.65,651.64Z" transform="translate(-136.089 -502.936)" opacity="0.1"/>
      <path id="Path_322" data-name="Path 322" d="M151.72,549.359s13.018,2.754,14.441,2.38,8.627.367,8.627.367c3.165,2.3,1.932-.961,1.932-.961a7.859,7.859,0,0,0,0-3.04,18.578,18.578,0,0,1-.42-3.056s.156-2.141-.218-2.654-.7-4.105-.7-4.105-.262-2.441-.207-2.975-.028-2.041-.028-2.041l-.369-2.517c2.691-.253,11.025-4.939,11.025-4.939.464-1.663,3.643-5.476,3.643-5.476a4.125,4.125,0,0,1,.288-.954c.232-.562-2.933-1.828-2.933-1.828s-2.51,2.835-3.03,3.6a15.764,15.764,0,0,1-2.3,2.164,1.745,1.745,0,0,0-.79.072h-.042a6.379,6.379,0,0,0-1.625.857,3.112,3.112,0,0,0-2.211.736s-1.456-.269-1.714-.03-1.5-.058-1.5-.058-1.161-2.689-2-1.953-4.335.567-4.335.567a5.135,5.135,0,0,0-2.25-1.377,3.077,3.077,0,0,0-1.858-.1,2.417,2.417,0,0,0-.75.327l-2.192,1.988s-.578-.808-.5-.985-.7-.348-.7-.348-1.024-.362-1.412-.483-.766.288-.8.325a4.129,4.129,0,0,0,.232-1.563,1.8,1.8,0,0,1,.476-1.27c-1.131-3.119-4.05-.655-4.05-.655a5.861,5.861,0,0,0-.125,2.322c.262.657-.362,1.988-.307,2.348s-.179.959-.2,1.637a10.072,10.072,0,0,0,.464,2.554c.183.576,1.858,1.932,1.858,1.932a8.121,8.121,0,0,0,.734,3.251c.7,1.212.086,5.225.086,5.225s-.836,3.114-1.767,4.08S151.72,549.359,151.72,549.359Z" transform="translate(-123.091 -401.741)" fill="#656691"/>
      <path id="Path_323" data-name="Path 323" d="M237.674,549.439s.439-1.161.8-1.256a8.213,8.213,0,0,0,1.054-.425l-.214-.448s-1.356.318-1.584.7A3.133,3.133,0,0,0,237.674,549.439Z" transform="translate(-189.038 -424.583)" opacity="0.1"/>
      <path id="Path_324" data-name="Path 324" d="M269.22,543.571c.058.36,3.223.8,3.223.8L270.9,542.7h-.039A6.379,6.379,0,0,0,269.22,543.571Z" transform="translate(-213.306 -421.043)" opacity="0.1"/>
      <circle id="Ellipse_25" data-name="Ellipse 25" cx="0.286" cy="0.286" r="0.286" transform="translate(65.012 117.693)" fill="#575988"/>
      <circle id="Ellipse_26" data-name="Ellipse 26" cx="0.286" cy="0.286" r="0.286" transform="translate(64.624 118.25)" fill="#575988"/>
      <circle id="Ellipse_27" data-name="Ellipse 27" cx="0.286" cy="0.286" r="0.286" transform="translate(64.246 118.763)" fill="#575988"/>
      <circle id="Ellipse_28" data-name="Ellipse 28" cx="0.286" cy="0.286" r="0.286" transform="translate(63.851 119.321)" fill="#575988"/>
      <circle id="Ellipse_29" data-name="Ellipse 29" cx="0.232" cy="0.232" r="0.232" transform="translate(30.246 118.048)" fill="#575988"/>
      <circle id="Ellipse_30" data-name="Ellipse 30" cx="0.232" cy="0.232" r="0.232" transform="translate(30.19 118.573)" fill="#575988"/>
      <circle id="Ellipse_31" data-name="Ellipse 31" cx="0.232" cy="0.232" r="0.232" transform="translate(30.136 119.098)" fill="#575988"/>
      <path id="Path_325" data-name="Path 325" d="M188.49,598.15c.035-.04-8.406,9.816-14.43,3.7C174.06,601.851,183.883,603.57,188.49,598.15Z" transform="translate(-140.243 -463.617)" opacity="0.1"/>
      <path id="Path_326" data-name="Path 326" d="M237.266,621.679s-4.823-.053-5.38,1.312l-.056,1.442a.929.929,0,0,0,.9.035c.5-.244,3.465-1.612,4.465-.859Z" transform="translate(-184.598 -481.682)" opacity="0.1"/>
      <path id="Path_327" data-name="Path 327" d="M237.667,621.659s-4.609-.051-5.143,1.252l-.053,1.375a.882.882,0,0,0,.857.033c.464-.232,3.314-1.535,4.27-.82Z" transform="translate(-185.09 -481.667)" fill="#656691"/>
      <path id="Path_328" data-name="Path 328" d="M229.027,576.2a15.648,15.648,0,0,1-1.99,3.133A12.557,12.557,0,0,1,224,582.045S228.921,576.85,229.027,576.2Z" transform="translate(-178.586 -446.764)" opacity="0.1"/>
      <path id="Path_329" data-name="Path 329" d="M243.264,552.36s-.929,3.439-3.054,4.537Z" transform="translate(-191.032 -428.46)" opacity="0.1"/>
      <path id="Path_330" data-name="Path 330" d="M249.235,554.067c.023-.063.608,2.773-2.835,4.2C246.4,558.263,247.856,557.828,249.235,554.067Z" transform="translate(-195.785 -429.77)" opacity="0.1"/>
      <path id="Path_331" data-name="Path 331" d="M161.149,540.552a24.178,24.178,0,0,0-2.2,1.523C158.962,542.075,160.134,540.44,161.149,540.552Z" transform="translate(-128.642 -419.39)" opacity="0.1"/>
      <path id="Path_332" data-name="Path 332" d="M194.025,500.032a.913.913,0,0,1-.355.562.875.875,0,0,1-.4.072,8.542,8.542,0,0,1-3.827-.509,1.443,1.443,0,0,1-.569-.409,2.342,2.342,0,0,1-.3-.954,13.812,13.812,0,0,0-.715-1.834,6.038,6.038,0,0,1-.295-3.251,2.176,2.176,0,0,1,.36-.929c.362-.476,1-.65,1.465-1.024s.785-.959,1.328-1.233a2.451,2.451,0,0,1,1.607-.079,8.432,8.432,0,0,1,2.949,1.238,1.484,1.484,0,0,0,.987.378,1.375,1.375,0,0,0,.757-.534,3.947,3.947,0,0,1,.246,1.858.8.8,0,0,0,0,.279.849.849,0,0,0,.186.3,1.082,1.082,0,0,1,.153,1.34c-.144.158-.36.232-.5.4-.251.288-.188.72-.2,1.1a.581.581,0,0,1-.107.374.555.555,0,0,1-.529.1,1.446,1.446,0,0,0-.557-.074.929.929,0,0,0-.5.353A6.583,6.583,0,0,0,194.025,500.032Z" transform="translate(-150.527 -380.848)" fill="#2d293d"/>
      <g id="Group_17" data-name="Group 17" transform="translate(38.176 110.61)" opacity="0.1">
        <path id="Path_333" data-name="Path 333" d="M192.87,511.869a1.426,1.426,0,0,0,.569.411,8.577,8.577,0,0,0,3.827.509.849.849,0,0,0,.4-.074.9.9,0,0,0,.355-.56,6.6,6.6,0,0,1,1.18-2.473.929.929,0,0,1,.5-.355,1.492,1.492,0,0,1,.557.074.548.548,0,0,0,.529-.1.572.572,0,0,0,.107-.372,1.645,1.645,0,0,1,.2-1.105c.139-.16.355-.232.5-.4a.841.841,0,0,0,.114-.85.973.973,0,0,1,.016,1.14c-.144.158-.358.232-.5.4-.251.288-.186.72-.2,1.1a.569.569,0,0,1-.109.374.553.553,0,0,1-.529.1,1.432,1.432,0,0,0-.555-.074.929.929,0,0,0-.5.355,6.664,6.664,0,0,0-1.18,2.471.671.671,0,0,1-.757.636,8.591,8.591,0,0,1-3.829-.511,1.453,1.453,0,0,1-.569-.409,1.114,1.114,0,0,1-.17-.351A.434.434,0,0,0,192.87,511.869Z" transform="translate(-192.83 -503.914)"/>
        <path id="Path_334" data-name="Path 334" d="M228.76,497.213a.573.573,0,0,1-.121-.232.8.8,0,0,1,0-.279,3.959,3.959,0,0,0-.139-1.547l.023-.026a3.917,3.917,0,0,1,.248,1.858A1.263,1.263,0,0,0,228.76,497.213Z" transform="translate(-220.217 -495.13)"/>
      </g>
      <path id="Path_335" data-name="Path 335" d="M199.462,542.218s-5.341.5-5.782-.318" transform="translate(-155.307 -420.429)" opacity="0.1"/>
      <path id="Path_336" data-name="Path 336" d="M162.471,532.09s-2.951-.109-3.641.971" transform="translate(-128.55 -412.895)" opacity="0.1"/>
    </g>
  </g>
</svg>
