<svg xmlns="http://www.w3.org/2000/svg" width="50.556" height="65" viewBox="0 0 50.556 65"><defs><style>.a{fill:#49be55;}.b{fill:#ebf0f3;}.c{fill:#d5d6db;}</style></defs><path class="a" d="M54.5,2.106H95.774A1.039,1.039,0,0,0,96.8,1.054h0A1.039,1.039,0,0,0,95.774,0H54.566A8.317,8.317,0,0,0,46.26,7.714a8.175,8.175,0,0,0,8.03,8.814H95.774a1.053,1.053,0,0,0,0-2.105H54.29a6.111,6.111,0,0,1-5.945-6.969A6.186,6.186,0,0,1,54.5,2.106Z" transform="translate(-46.243)"/><path class="b" d="M106.126,12.866H65.3a6.178,6.178,0,0,0-6.141,5.348,6.107,6.107,0,0,0,5.933,6.969h41.035C105.082,22.884,105.082,15.167,106.126,12.866Z" transform="translate(-57.001 -10.76)"/><path class="c" d="M59.634,19.756a6.178,6.178,0,0,1,6.141-5.348H105.7a7.019,7.019,0,0,1,.429-1.543H65.3a6.178,6.178,0,0,0-6.141,5.348,6.313,6.313,0,0,0,.519,3.417A6.417,6.417,0,0,1,59.634,19.756Z" transform="translate(-57.004 -10.759)"/><path class="a" d="M134.5,95.578H93.208c-.224,0-.444-.016-.662-.035V146.07c.256.025.514.04.776.04h39.687a2.553,2.553,0,0,0,2.512-2.592V94.525A1.037,1.037,0,0,1,134.5,95.578Z" transform="translate(-84.965 -81.111)"/><path class="a" d="M46.255,50.48h-.011V99.127a8.2,8.2,0,0,0,7.581,8.048V58.421A8.084,8.084,0,0,1,46.255,50.48Z" transform="translate(-46.244 -42.215)"/></svg>