<svg xmlns="http://www.w3.org/2000/svg" width="20" height="20.001" viewBox="0 0 20 20.001"><defs><style>.a{fill:#ededed;}</style></defs><path class="a" d="M19.664,7.3l-.978-.978a1.173,1.173,0,0,0-1.657,0l-2.06,2.06V1.758A1.76,1.76,0,0,0,13.211,0H1.765A1.76,1.76,0,0,0,.007,1.758V18.243A1.76,1.76,0,0,0,1.765,20H13.211a1.76,1.76,0,0,0,1.758-1.758v-4.65l4.7-4.637a1.173,1.173,0,0,0,0-1.657Zm-7.008,6.931-1.763.823.822-1.761L16.09,8.916l.967.967Zm1.14,4.014a.587.587,0,0,1-.586.586H1.765a.587.587,0,0,1-.586-.586V1.758a.587.587,0,0,1,.586-.586H13.211a.587.587,0,0,1,.586.586V9.552c-3.249,3.249-3.037,3.016-3.1,3.149L9.15,16.016a.586.586,0,0,0,.779.779l3.315-1.547c.122-.057.142-.092.553-.5ZM17.891,9.06l-.972-.972.939-.939.978.979Z" transform="translate(-0.007)"/><path class="a" d="M65.663,98.312h9.8a.656.656,0,1,0,0-1.312h-9.8a.656.656,0,1,0,0,1.312Z" transform="translate(-62.165 -93.239)"/><path class="a" d="M65.663,178.312h7.7a.656.656,0,1,0,0-1.312h-7.7a.656.656,0,1,0,0,1.312Z" transform="translate(-62.165 -170.137)"/><path class="a" d="M71.26,257h-5.6a.656.656,0,0,0,0,1.312h5.6a.656.656,0,1,0,0-1.312Z" transform="translate(-62.165 -247.035)"/></svg>