<svg xmlns="http://www.w3.org/2000/svg" width="14.783" height="19.219" viewBox="0 0 14.783 19.219"><defs><style>.a{fill:#ededed;}</style></defs><g transform="translate(0 0)"><path class="a" d="M75.617,3.919,71.826.165a.571.571,0,0,0-.4-.165H63.085A2.077,2.077,0,0,0,61,2.065v15.09a2.077,2.077,0,0,0,2.085,2.065H73.7a2.077,2.077,0,0,0,2.085-2.065V4.317A.56.56,0,0,0,75.617,3.919Zm-3.624-2,1.849,1.831H71.993ZM73.7,18.093H63.085a.944.944,0,0,1-.948-.938V2.065a.944.944,0,0,1,.948-.938h7.771V4.317a.566.566,0,0,0,.569.563h3.222V17.154A.944.944,0,0,1,73.7,18.093Z" transform="translate(-61 0)"/></g><path class="a" d="M.837,3.834,2.811,1.7V6.956a.479.479,0,1,0,.958,0V1.7L5.743,3.834a.479.479,0,1,0,.7-.654L3.635.154a.474.474,0,0,0-.7,0L.129,3.18a.481.481,0,0,0,.024.678A.487.487,0,0,0,.837,3.834Zm0,0" transform="translate(3.664 13.051) rotate(-90)"/></svg>