<?xml version="1.0" encoding="UTF-8"?>
<svg width="40px" height="40px" viewBox="0 0 40 40" version="1.1" xmlns="http://www.w3.org/2000/svg" xmlns:xlink="http://www.w3.org/1999/xlink">
    <title>announcement</title>
    <defs>
        <polygon id="path-1" points="0.0002 0.0002 40 0.0002 40 40 0.0002 40"></polygon>
    </defs>
    <g id="Page-1" stroke="none" stroke-width="1" fill="none" fill-rule="evenodd">
        <g id="announcement">
            <g id="Group-3">
                <mask id="mask-2" fill="white">
                    <use xlink:href="#path-1"></use>
                </mask>
                <g id="Clip-2"></g>
                <path d="M40.0002,20.0002 C40.0002,31.0452 31.0452,40.0002 20.0002,40.0002 C8.9542,40.0002 0.0002,31.0452 0.0002,20.0002 C0.0002,8.9542 8.9542,0.0002 20.0002,0.0002 C31.0452,0.0002 40.0002,8.9542 40.0002,20.0002" id="Fill-1" fill="#E4D7F7" mask="url(#mask-2)"></path>
            </g>
            <path d="M14.7492,21.4045 L10.2492,21.4045 L10.2492,28.1545 C10.2492,28.7585024 10.4907287,29.3266889 10.9088699,29.7448301 C11.3270111,30.1629713 11.8951976,30.4045 12.4992,30.4045 C13.7434136,30.4045 14.7492,29.3987136 14.7492,28.1545 L14.7492,21.4045 Z M11.749,22.904 L13.249,22.904 L13.2492,28.1545 C13.2492,28.5702864 12.9149864,28.9045 12.4992,28.9045 C12.2981205,28.9045 12.1098132,28.824453 11.9695301,28.6841699 L11.8927471,28.5945192 C11.8004301,28.468053 11.7492,28.3153636 11.7492,28.1545 L11.749,22.904 Z" id="Stroke-4" fill="#7653AB" fill-rule="nonzero"></path>
            <path d="M24.7395,9.4045 L22.2395,9.4045 C21.2725157,9.4045 20.4895,10.1880568 20.4895,11.1545 L20.4895,11.7715 C20.4895,13.6503585 19.0926088,15.2492586 17.3038919,15.3918725 C17.2011535,15.4003601 17.1007615,15.4045 16.9995,15.4045 L10.4995,15.4045 C9.53528644,15.4045 8.7495,16.1902864 8.7495,17.1545 L8.7495,21.1545 C8.7495,22.1187136 9.53528644,22.9045 10.4995,22.9045 L16.9995,22.9045 C17.1007615,22.9045 17.2011535,22.9086399 17.3017271,22.9169517 C19.0926088,23.0597414 20.4895,24.6586415 20.4895,26.5375 L20.4895,27.1545 C20.4895,28.1209432 21.2725157,28.9045 22.2395,28.9045 L24.7395,28.9045 C25.7057136,28.9045 26.4895,28.1207136 26.4895,27.1545 L26.4895,11.1545 C26.4895,10.1882864 25.7057136,9.4045 24.7395,9.4045 Z M22.2395,10.9045 L24.7395,10.9045 C24.8772864,10.9045 24.9895,11.0167136 24.9895,11.1545 L24.9895,27.1545 C24.9895,27.2922864 24.8772864,27.4045 24.7395,27.4045 L22.2395,27.4045 C22.1011749,27.4045 21.9895,27.2927479 21.9895,27.1545 L21.9895,26.5375 C21.9895,23.8938379 20.0100456,21.6281283 17.4231081,21.4218725 C17.2835975,21.4103395 17.1419885,21.4045 16.9995,21.4045 L10.4995,21.4045 C10.3637136,21.4045 10.2495,21.2902864 10.2495,21.1545 L10.2495,17.1545 C10.2495,17.0187136 10.3637136,16.9045 10.4995,16.9045 L16.9995,16.9045 C17.1419885,16.9045 17.2835975,16.8986605 17.4252729,16.8869517 C20.0100456,16.6808717 21.9895,14.4151621 21.9895,11.7715 L21.9895,11.1545 C21.9895,11.0162521 22.1011749,10.9045 22.2395,10.9045 Z" id="Stroke-6" fill="#7653AB" fill-rule="nonzero"></path>
            <path d="M10.2492,21.4045 L10.2492,16.9045 L9.4992,16.9045 C8.01753333,16.9045 6.7492,17.85575 6.7492,19.1545 C6.7492,20.45325 8.01753333,21.4045 9.4992,21.4045 L10.2492,21.4045 Z M8.749,18.561 L8.749,19.747 C8.4358,19.5979 8.2492,19.37125 8.2492,19.1545 C8.2492,18.93775 8.4358,18.7111 8.749,18.561 Z" id="Stroke-8" fill="#7653AB" fill-rule="nonzero"></path>
            <path d="M16.9992,15.4045 C17.3788958,15.4045 17.692691,15.6866539 17.7423534,16.0527294 L17.7492,16.1545 L17.7492,22.1545 C17.7492,22.5687136 17.4134136,22.9045 16.9992,22.9045 C16.6195042,22.9045 16.305709,22.6223461 16.2560466,22.2562706 L16.2492,22.1545 L16.2492,16.1545 C16.2492,15.7402864 16.5849864,15.4045 16.9992,15.4045 Z" id="Stroke-10" fill="#7653AB" fill-rule="nonzero"></path>
            <path d="M30.4992,18.4045 C30.9134136,18.4045 31.2492,18.7402864 31.2492,19.1545 C31.2492,19.5341958 30.9670461,19.847991 30.6009706,19.8976534 L30.4992,19.9045 L27.4992,19.9045 C27.0849864,19.9045 26.7492,19.5687136 26.7492,19.1545 C26.7492,18.7748042 27.0313539,18.461009 27.3974294,18.4113466 L27.4992,18.4045 L30.4992,18.4045 Z" id="Stroke-12" fill="#7653AB" fill-rule="nonzero"></path>
            <path d="M30.1637898,13.9836796 C30.5342737,13.7984377 30.9847785,13.9486059 31.1700204,14.3190898 C31.3398255,14.6587 31.2277929,15.06555 30.9225747,15.2736834 L30.8346102,15.3253204 L27.8346102,16.8253204 C27.4641263,17.0105623 27.0136215,16.8603941 26.8283796,16.4899102 C26.6585745,16.1503 26.7706071,15.74345 27.0758253,15.5353166 L27.1637898,15.4836796 L30.1637898,13.9836796 Z" id="Stroke-14" fill="#7653AB" fill-rule="nonzero"></path>
            <path d="M26.8283796,21.8190898 C26.9981847,21.4794796 27.3908843,21.3249957 27.7405219,21.4442902 L27.8346102,21.4836796 L30.8346102,22.9836796 C31.2050941,23.1689215 31.3552623,23.6194263 31.1700204,23.9899102 C31.0002153,24.3295204 30.6075157,24.4840043 30.2578781,24.3647098 L30.1637898,24.3253204 L27.1637898,22.8253204 C26.7933059,22.6400785 26.6431377,22.1895737 26.8283796,21.8190898 Z" id="Stroke-16" fill="#7653AB" fill-rule="nonzero"></path>
        </g>
    </g>
</svg>