<?xml version="1.0" encoding="UTF-8"?>
<svg width="24px" height="24px" viewBox="0 0 24 24" version="1.1" xmlns="http://www.w3.org/2000/svg" xmlns:xlink="http://www.w3.org/1999/xlink">
    <title>Icons/File types/jpg</title>
    <g id="Icons/File-types/jpg" stroke="none" stroke-width="1" fill="none" fill-rule="evenodd">
        <rect id="Size" fill="#D8D8D8" opacity="0" x="0" y="0" width="24" height="24"></rect>
        <g id="Group">
            <rect id="Rectangle" x="0" y="0" width="24" height="24"></rect>
            <polygon id="Path" fill="#EFEEEE" fill-rule="nonzero" points="5 2 5 22 16.9 22 22 17 22 2"></polygon>
            <polygon id="Path" fill="#71A742" fill-rule="nonzero" points="2 6 2 15 18 15 18 6"></polygon>
            <path d="M4.55029297,13.0654297 C5.02880859,13.0654297 5.41162109,12.9042155 5.69873047,12.5817871 C5.98583984,12.2593587 6.12939453,11.8076172 6.12939453,11.2265625 L6.12939453,11.2265625 L6.12939453,8.08203125 L5.31591797,8.08203125 L5.31591797,11.0966797 C5.31591797,11.9352214 5.04475911,12.3544922 4.50244141,12.3544922 C4.29736328,12.3544922 4.12988281,12.3100586 4,12.2211914 L4,12.2211914 L4,12.9868164 C4.14355469,13.0392253 4.32698568,13.0654297 4.55029297,13.0654297 Z M8.00498047,12.9833984 L8.00498047,11.2060547 L8.6578125,11.2060547 C9.20924479,11.2060547 9.64674479,11.0545247 9.9703125,10.7514648 C10.2938802,10.4484049 10.4556641,10.0587565 10.4556641,9.58251953 C10.4556641,9.10628255 10.3007161,8.73714193 9.99082031,8.47509766 C9.68092448,8.21305339 9.2445638,8.08203125 8.68173828,8.08203125 L8.68173828,8.08203125 L7.19492187,8.08203125 L7.19492187,12.9833984 L8.00498047,12.9833984 Z M8.53134765,10.5429688 L8.00498047,10.5429688 L8.00498047,8.75195312 L8.59628906,8.75195312 C9.26621094,8.75195312 9.60117187,9.04020182 9.60117187,9.61669922 C9.60117187,9.91064453 9.51002604,10.1385091 9.32773437,10.300293 C9.14544271,10.4620768 8.87998047,10.5429688 8.53134765,10.5429688 L8.53134765,10.5429688 Z M13.3019531,13.0654297 C13.9285807,13.0654297 14.4971029,12.9264323 15.0075195,12.6484375 L15.0075195,12.6484375 L15.0075195,10.3208008 L13.1652344,10.3208008 L13.1652344,11.0043945 L14.1974609,11.0043945 L14.1974609,12.1699219 C13.9513672,12.2998047 13.6597005,12.3647461 13.3224609,12.3647461 C12.8302734,12.3647461 12.440625,12.2035319 12.1535156,11.8811035 C11.8664062,11.5586751 11.7228516,11.1160482 11.7228516,10.5532227 C11.7228516,10.0063477 11.8897624,9.5608724 12.223584,9.21679688 C12.5574056,8.87272135 12.9852214,8.70068359 13.5070312,8.70068359 C14.0265625,8.70068359 14.4743164,8.82600911 14.850293,9.07666016 L14.850293,9.07666016 L14.850293,8.23925781 C14.4788737,8.0797526 14.0208659,8 13.4762695,8 C12.7197591,8 12.0959798,8.24324544 11.6049316,8.72973633 C11.1138835,9.21622721 10.8683594,9.83886719 10.8683594,10.5976562 C10.8683594,11.3404948 11.092806,11.9375 11.5416992,12.3886719 C11.9905924,12.8398438 12.5773437,13.0654297 13.3019531,13.0654297 Z" id="JPG" fill="#FFFFFF" fill-rule="nonzero"></path>
        </g>
        <polygon id="Path" fill="#ABABAB" fill-rule="nonzero" points="17 17 17 22 22 17"></polygon>
        <polygon id="Path" fill="#DEDEDD" fill-rule="nonzero" points="12 22 17 22 17 17"></polygon>
    </g>
</svg>