<?xml version="1.0" encoding="UTF-8"?>
<svg width="14px" height="14px" viewBox="0 0 14 14" version="1.1" xmlns="http://www.w3.org/2000/svg" xmlns:xlink="http://www.w3.org/1999/xlink">
    <title>Icons/Av/play</title>
    <g id="Symbols" stroke="none" stroke-width="1" fill="none" fill-rule="evenodd">
        <g id="Web/Learn/Module-search-card" transform="translate(-192.000000, -17.000000)" fill="#0074B6">
            <g id="Icons/Av/play" transform="translate(189.000000, 14.000000)">
                <path d="M15,3.33333333 L5,3.33333333 C4.08333333,3.33333333 3.33333333,4.08333333 3.33333333,5 L3.33333333,15 C3.33333333,15.9166667 4.08333333,16.6666667 5,16.6666667 L15,16.6666667 C15.9166667,16.6666667 16.6666667,15.9166667 16.6666667,15 L16.6666667,5 C16.6666667,4.08333333 15.9166667,3.33333333 15,3.33333333 Z M13.3333333,7.5 L10.8333333,7.5 L10.8333333,12.0833333 C10.8333333,13.25 9.91666667,14.1666667 8.75,14.1666667 C7.58333333,14.1666667 6.66666667,13.25 6.66666667,12.0833333 C6.66666667,10.9166667 7.58333333,10 8.75,10 C9.25,10 9.66666667,10.1666667 10,10.4166667 L10,5.83333333 L13.3333333,5.83333333 L13.3333333,7.5 Z" id="Shape"></path>
            </g>
        </g>
    </g>
</svg>