<?xml version="1.0" encoding="UTF-8"?>
<svg width="24px" height="24px" viewBox="0 0 24 24" version="1.1" xmlns="http://www.w3.org/2000/svg" xmlns:xlink="http://www.w3.org/1999/xlink">
    <title>library_books_black_24dp</title>
    <defs>
        <filter color-interpolation-filters="auto" id="filter-1">
            <feColorMatrix in="SourceGraphic" type="matrix" values="0 0 0 0 0.000000 0 0 0 0 0.454902 0 0 0 0 0.713725 0 0 0 1.000000 0"></feColorMatrix>
        </filter>
    </defs>
    <g id="Ideate---Upload" stroke="none" stroke-width="1" fill="none" fill-rule="evenodd">
        <g filter="url(#filter-1)" id="library_books_black_24dp">
            <g>
                <polygon id="Path" points="0 0 24 0 24 24 0 24"></polygon>
                <path d="M4,6 L2,6 L2,20 C2,21.1 2.9,22 4,22 L18,22 L18,20 L4,20 L4,6 Z M20,2 L8,2 C6.9,2 6,2.9 6,4 L6,16 C6,17.1 6.9,18 8,18 L20,18 C21.1,18 22,17.1 22,16 L22,4 C22,2.9 21.1,2 20,2 Z M20,16 L8,16 L8,4 L20,4 L20,16 Z M10,9 L18,9 L18,11 L10,11 L10,9 Z M10,12 L14,12 L14,14 L10,14 L10,12 Z M10,6 L18,6 L18,8 L10,8 L10,6 Z" id="Shape" fill="#000000" fill-rule="nonzero"></path>
            </g>
        </g>
    </g>
</svg>