<?xml version="1.0" encoding="UTF-8"?>
<svg width="18px" height="18px" viewBox="0 0 18 18" version="1.1" xmlns="http://www.w3.org/2000/svg" xmlns:xlink="http://www.w3.org/1999/xlink">
    <title>Icons/Av/play</title>
    <g id="Symbols" stroke="none" stroke-width="1" fill="none" fill-rule="evenodd">
        <g id="Web/Learn/Module-search-card" transform="translate(-190.000000, -15.000000)">
            <g id="Icons/Av/play" transform="translate(189.000000, 14.000000)">
                <rect id="Size" fill="#D8D8D8" opacity="0" x="0" y="0" width="20" height="20"></rect>
                <path d="M2.5,5 C2.04166667,5 1.66666667,5.375 1.66666667,5.83333333 L1.66666667,16.6666667 C1.66666667,17.5833333 2.41666667,18.3333333 3.33333333,18.3333333 L14.1666667,18.3333333 C14.625,18.3333333 15,17.9583333 15,17.5 C15,17.0416667 14.625,16.6666667 14.1666667,16.6666667 L4.16666667,16.6666667 C3.70833333,16.6666667 3.33333333,16.2916667 3.33333333,15.8333333 L3.33333333,5.83333333 C3.33333333,5.375 2.95833333,5 2.5,5 Z M16.6666667,1.66666667 L6.66666667,1.66666667 C5.75,1.66666667 5,2.41666667 5,3.33333333 L5,13.3333333 C5,14.25 5.75,15 6.66666667,15 L16.6666667,15 C17.5833333,15 18.3333333,14.25 18.3333333,13.3333333 L18.3333333,3.33333333 C18.3333333,2.41666667 17.5833333,1.66666667 16.6666667,1.66666667 Z M10,12.0833333 L10,4.58333333 L14.5583333,8 C14.7833333,8.16666667 14.7833333,8.5 14.5583333,8.66666667 L10,12.0833333 Z" id="Shape" fill="#0074B6"></path>
            </g>
        </g>
    </g>
</svg>