<?xml version="1.0" encoding="UTF-8"?>
<svg width="18px" height="18px" viewBox="0 0 18 18" version="1.1" xmlns="http://www.w3.org/2000/svg" xmlns:xlink="http://www.w3.org/1999/xlink">
    <title>Icons/hardware/desktop Copy 2</title>
    <g id="Ideate---Upload" stroke="none" stroke-width="1" fill="none" fill-rule="evenodd">
        <g id="Group-3-Copy" transform="translate(-51.000000, -36.000000)">
            <g id="Icons/hardware/desktop-Copy-2" transform="translate(48.000000, 33.000000)">
                <rect id="Size" fill="#D8D8D8" opacity="0" x="0" y="0" width="24" height="24"></rect>
                <path d="M19,3 L5,3 C3.9,3 3,3.9 3,5 L3,19 C3,20.1 3.9,21 5,21 L19,21 C20.1,21 21,20.1 21,19 L21,5 C21,3.9 20.1,3 19,3 Z M19,19 L5,19 L5,5 L19,5 L19,19 Z M13.96,12.29 L11.21,15.83 L9.25,13.47 L6.5,17 L17.5,17 L13.96,12.29 Z" id="Shape" fill="#0074B6"></path>
            </g>
        </g>
    </g>
</svg>