<?xml version="1.0" encoding="UTF-8"?>
<svg width="18px" height="12px" viewBox="0 0 18 12" version="1.1" xmlns="http://www.w3.org/2000/svg" xmlns:xlink="http://www.w3.org/1999/xlink">
    <title>Icons/Av/play Copy 2</title>
    <g id="Symbols" stroke="none" stroke-width="1" fill="none" fill-rule="evenodd">
        <g id="Web/Learn/Resource-search-card_v2" transform="translate(-325.000000, -19.000000)">
            <g id="Icons/Av/play-Copy-2" transform="translate(324.000000, 15.000000)">
                <rect id="Size" fill="#D8D8D8" opacity="0" x="0" y="0" width="20" height="20"></rect>
                <path d="M16.6666667,5 L16.6666667,15 C16.6666667,15.4583333 17.0416667,15.8333333 17.5,15.8333333 C17.9583333,15.8333333 18.3333333,15.4583333 18.3333333,15 L18.3333333,5 C18.3333333,4.54166667 17.9583333,4.16666667 17.5,4.16666667 C17.0416667,4.16666667 16.6666667,4.54166667 16.6666667,5 Z M14.1666667,15.8333333 C14.625,15.8333333 15,15.4583333 15,15 L15,5 C15,4.54166667 14.625,4.16666667 14.1666667,4.16666667 C13.7083333,4.16666667 13.3333333,4.54166667 13.3333333,5 L13.3333333,15 C13.3333333,15.4583333 13.7083333,15.8333333 14.1666667,15.8333333 Z M10.952381,4.16666667 L2.38095238,4.16666667 C1.98809524,4.16666667 1.66666667,4.54166667 1.66666667,5 L1.66666667,15 C1.66666667,15.4583333 1.98809524,15.8333333 2.38095238,15.8333333 L10.952381,15.8333333 C11.3452381,15.8333333 11.6666667,15.4583333 11.6666667,15 L11.6666667,5 C11.6666667,4.54166667 11.3452381,4.16666667 10.952381,4.16666667 Z" id="Shape" fill="#0074B6"></path>
            </g>
        </g>
    </g>
</svg>