<?xml version="1.0" encoding="UTF-8"?>
<svg width="14px" height="14px" viewBox="0 0 14 14" version="1.1" xmlns="http://www.w3.org/2000/svg" xmlns:xlink="http://www.w3.org/1999/xlink">
    <title>Icons/File types/PDF_alternate</title>
    <g id="Symbols" stroke="none" stroke-width="1" fill="none" fill-rule="evenodd">
        <g id="Web/Learn/Resource-card" transform="translate(-192.000000, -13.000000)">
            <g id="Icons/File-types/PDF_alternate" transform="translate(189.000000, 10.000000)">
                <rect id="Size" fill="#D8D8D8" opacity="0" x="0" y="0" width="20" height="20"></rect>
                <path d="M15,3.33333333 L5,3.33333333 C4.08333333,3.33333333 3.33333333,4.08333333 3.33333333,5 L3.33333333,15 C3.33333333,15.9166667 4.08333333,16.6666667 5,16.6666667 L15,16.6666667 C15.9166667,16.6666667 16.6666667,15.9166667 16.6666667,15 L16.6666667,5 C16.6666667,4.08333333 15.9166667,3.33333333 15,3.33333333 Z M7.91666667,9.58333333 C7.91666667,10.275 7.35833333,10.8333333 6.66666667,10.8333333 L5.83333333,10.8333333 L5.83333333,11.875 C5.83333333,12.2166667 5.55,12.5 5.20833333,12.5 C4.86666667,12.5 4.58333333,12.2166667 4.58333333,11.875 L4.58333333,8.33333333 C4.58333333,7.875 4.95833333,7.5 5.41666667,7.5 L6.66666667,7.5 C7.35833333,7.5 7.91666667,8.05833333 7.91666667,8.75 L7.91666667,9.58333333 Z M12.0833333,11.25 C12.0833333,11.9416667 11.525,12.5 10.8333333,12.5 L9.16666667,12.5 C8.93333333,12.5 8.75,12.3166667 8.75,12.0833333 L8.75,7.91666667 C8.75,7.68333333 8.93333333,7.5 9.16666667,7.5 L10.8333333,7.5 C11.525,7.5 12.0833333,8.05833333 12.0833333,8.75 L12.0833333,11.25 Z M15.4166667,8.125 C15.4166667,8.46666667 15.1333333,8.75 14.7916667,8.75 L14.1666667,8.75 L14.1666667,9.58333333 L14.7916667,9.58333333 C15.1333333,9.58333333 15.4166667,9.86666667 15.4166667,10.2083333 C15.4166667,10.55 15.1333333,10.8333333 14.7916667,10.8333333 L14.1666667,10.8333333 L14.1666667,11.875 C14.1666667,12.2166667 13.8833333,12.5 13.5416667,12.5 C13.2,12.5 12.9166667,12.2166667 12.9166667,11.875 L12.9166667,8.33333333 C12.9166667,7.875 13.2916667,7.5 13.75,7.5 L14.7916667,7.5 C15.1333333,7.5 15.4166667,7.78333333 15.4166667,8.125 Z M5.83333333,9.58333333 L6.66666667,9.58333333 L6.66666667,8.75 L5.83333333,8.75 L5.83333333,9.58333333 Z M10,11.25 L10.8333333,11.25 L10.8333333,8.75 L10,8.75 L10,11.25 Z" id="Shape" fill="#0074B6"></path>
            </g>
        </g>
    </g>
</svg>