<svg width="26" height="71" viewBox="0 0 26 71" fill="none" xmlns="http://www.w3.org/2000/svg">
<path d="M24.9273 70.1138C24.494 70.2521 12.1394 70.0934 11.6735 69.7883C11.4945 69.6743 11.4131 67.8739 11.3765 65.6931V65.626C11.3765 65.1764 11.3623 64.7126 11.3603 64.2447C11.3603 64.1796 11.3603 64.1145 11.3603 64.0514C11.344 60.9063 11.3928 57.6412 11.3928 57.6412L19.6584 57.7246L19.4081 64.0656L19.398 64.3179L19.3471 65.6321V65.7664C19.3471 65.7664 24.0444 67.9513 24.5225 68.3378C25.0006 68.7243 25.3607 69.9754 24.9273 70.1138Z" fill="#AD6359"/>
<path d="M24.9284 70.1138C24.4951 70.2521 12.1405 70.0934 11.6746 69.7883C11.4956 69.6744 11.4142 67.874 11.3776 65.6931V65.626C11.3776 65.1764 11.3634 64.7126 11.3613 64.2447C11.3613 64.1796 11.3613 64.1145 11.3613 64.0514L19.4112 64.0738L19.4011 64.3261L19.3502 65.6402V65.7745C19.3502 65.7745 24.0455 67.9513 24.5236 68.3378C25.0016 68.7243 25.3617 69.9755 24.9284 70.1138Z" fill="#EBEBEB"/>
<path d="M24.9267 70.1137C24.6602 70.1991 19.8734 70.1706 16.1261 70.0648C13.7866 70.0018 11.854 69.9041 11.6729 69.7882C11.4919 69.6722 11.4145 67.9247 11.3779 65.7846C11.3779 65.754 11.3779 65.7235 11.3779 65.693C11.3779 65.6625 11.3779 65.6462 11.3779 65.6238L19.3505 65.6401V65.7744C19.3505 65.7744 24.054 67.9511 24.53 68.3397C25.006 68.7283 25.36 69.9753 24.9267 70.1137Z" fill="#F7C06E"/>
<path d="M24.7912 69.6316C22.708 69.5543 14.3041 69.4282 12.2393 69.5157C12.223 69.5157 12.223 69.5279 12.2393 69.5299C14.3021 69.652 22.706 69.7028 24.7892 69.6662C24.8339 69.6662 24.8339 69.6337 24.7912 69.6316Z" fill="#263238"/>
<path d="M20.2339 65.6727C19.4201 65.51 18.4131 65.6219 17.7784 66.1976C17.754 66.22 17.7784 66.2545 17.813 66.2464C18.5997 66.0046 19.4098 65.8471 20.2298 65.7765C20.2419 65.7746 20.253 65.7686 20.2612 65.7594C20.2694 65.7502 20.2741 65.7385 20.2746 65.7263C20.2751 65.714 20.2713 65.702 20.2638 65.6922C20.2564 65.6824 20.2458 65.6755 20.2339 65.6727Z" fill="#263238"/>
<path d="M20.8184 66.0369C20.0046 65.8742 18.9976 65.9861 18.3629 66.5618C18.3385 66.5841 18.3629 66.6187 18.3975 66.6106C19.1815 66.3692 19.9889 66.2117 20.8062 66.1407C20.8187 66.1402 20.8307 66.1352 20.8399 66.1266C20.8492 66.1181 20.855 66.1065 20.8565 66.094C20.858 66.0815 20.855 66.0689 20.848 66.0584C20.841 66.048 20.8305 66.0403 20.8184 66.0369Z" fill="#263238"/>
<path d="M21.4072 66.4011C20.5935 66.2384 19.5865 66.3502 18.9518 66.926C18.9274 66.9483 18.9518 66.9829 18.9863 66.9748C19.7731 66.7337 20.5833 66.5769 21.4032 66.5069C21.4172 66.5074 21.4309 66.5024 21.4412 66.4928C21.4515 66.4833 21.4575 66.4701 21.4581 66.456C21.4586 66.442 21.4536 66.4283 21.444 66.418C21.4345 66.4077 21.4213 66.4016 21.4072 66.4011Z" fill="#263238"/>
<path d="M21.3223 63.8989C21.0049 63.4514 20.4028 63.6446 20.0569 63.9274C19.4722 64.4241 19.0287 65.0661 18.7712 65.7888C18.7699 65.7919 18.7693 65.7953 18.7696 65.7986C18.7699 65.8019 18.771 65.8052 18.7728 65.808C18.7746 65.8108 18.7771 65.8131 18.78 65.8148C18.7829 65.8164 18.7862 65.8173 18.7895 65.8173C18.7895 65.8804 18.8465 65.9475 18.9177 65.9211C19.5972 65.679 20.354 65.5142 20.9398 65.0626C21.2816 64.8042 21.6214 64.3241 21.3223 63.8989ZM19.8718 65.3433C19.5402 65.4715 19.2045 65.5813 18.8791 65.7197C19.1313 65.3576 19.3653 64.9873 19.6541 64.6496C19.7911 64.4862 19.9378 64.3313 20.0936 64.1858C20.3418 63.9681 21.3142 63.5083 21.1555 64.4055C21.07 64.8998 20.2685 65.1928 19.8718 65.3433Z" fill="#263238"/>
<path d="M16.6879 65.5467C17.3593 65.8437 18.1364 65.8396 18.8545 65.919C18.9278 65.919 18.9664 65.8478 18.9542 65.7867C18.9574 65.7857 18.9603 65.7839 18.9627 65.7816C18.9651 65.7793 18.9669 65.7765 18.9681 65.7734C18.9692 65.7702 18.9697 65.7669 18.9694 65.7636C18.9691 65.7603 18.9681 65.757 18.9664 65.7542C18.5481 65.1111 17.9688 64.5886 17.286 64.2386C16.8792 64.0352 16.2526 63.9945 16.0492 64.503C15.8457 65.0116 16.2953 65.3738 16.6879 65.5467ZM16.3258 64.9567C15.9678 64.1206 17.0195 64.3464 17.3084 64.501C17.495 64.6045 17.6738 64.7214 17.8435 64.8509C18.1919 65.1208 18.526 65.4087 18.8444 65.7135C18.4945 65.6525 18.1425 65.624 17.7906 65.5752C17.3715 65.5202 16.5333 65.4185 16.3299 64.9567H16.3258Z" fill="#263238"/>
<path d="M16.1305 70.0649C13.791 70.0019 11.8584 69.9042 11.6773 69.7883C11.4962 69.6723 11.4189 67.9248 11.3823 65.7847C12.3385 66.6411 14.7227 68.767 16.1305 70.0649Z" fill="#263238"/>
<path d="M8.85107 22.0522C8.85107 22.0522 10.7064 42.9287 11.0075 44.5216C11.0787 44.8857 11.1214 46.859 11.1499 49.3938C11.213 54.9293 11.1763 64.9098 11.1763 64.9098H19.8854C19.8854 64.9098 19.627 47.6179 19.2405 44.4341C18.854 41.2503 16.3924 22.0563 16.3924 22.0563L8.85107 22.0522Z" fill="#37474F"/>
<path d="M19.4908 63.3923C18.1318 63.3638 18.5224 63.3536 17.1635 63.3394C16.4982 63.3394 12.1285 63.2967 11.5059 63.3984C11.5022 63.3984 11.4985 63.3999 11.4959 63.4026C11.4932 63.4052 11.4917 63.4089 11.4917 63.4126C11.4917 63.4164 11.4932 63.42 11.4959 63.4227C11.4985 63.4254 11.5022 63.4269 11.5059 63.4269C12.1285 63.5286 16.4982 63.492 17.1635 63.4839C18.5224 63.4716 18.1318 63.4615 19.4908 63.433C19.4962 63.433 19.5013 63.4308 19.5051 63.427C19.509 63.4232 19.5111 63.418 19.5111 63.4126C19.5111 63.4073 19.509 63.4021 19.5051 63.3983C19.5013 63.3944 19.4962 63.3923 19.4908 63.3923Z" fill="#263238"/>
<path d="M12.8357 53.5073C12.8249 52.2433 12.8154 50.98 12.8072 49.7173C12.8072 48.4967 12.8072 47.2761 12.7421 46.0555C12.6242 43.5797 12.1318 41.1466 11.7657 38.6993C11.3995 36.2519 11.1106 33.7945 10.84 31.3349C10.5369 28.5763 10.2704 25.8117 9.98764 23.0511C9.98764 23.0327 9.95509 23.0327 9.95712 23.0511C10.364 27.9823 10.8258 32.9116 11.5073 37.8123C11.6782 39.0329 11.864 40.2495 12.0647 41.4619C12.2681 42.6825 12.4716 43.9194 12.5672 45.1624C12.6628 46.4054 12.677 47.6036 12.6893 48.8242C12.7042 50.0882 12.7171 51.3509 12.7279 52.6122C12.7544 55.4155 12.7808 59.7324 12.8093 62.5358C12.8114 62.5452 12.8167 62.5537 12.8243 62.5598C12.8318 62.5659 12.8413 62.5692 12.851 62.5692C12.8607 62.5692 12.8701 62.5659 12.8777 62.5598C12.8853 62.5537 12.8906 62.5452 12.8927 62.5358C12.8764 60.0213 12.854 56.0075 12.8357 53.5073Z" fill="#263238"/>
<path d="M7.01367 22.0522C7.01367 22.0522 10.706 42.9287 11.0071 44.5216C11.0783 44.8857 11.121 46.859 11.1495 49.3938L15.3118 22.0522H7.01367Z" fill="#263238"/>
<path d="M14.8077 70.8502C14.3663 70.958 2.05235 69.9225 1.60886 69.5869C1.43798 69.4607 1.48477 67.6583 1.60886 65.4815C1.60886 65.4592 1.60886 65.4348 1.60886 65.4124C1.63328 64.9648 1.65972 64.503 1.69227 64.0351L1.70448 63.8317C1.90791 60.6927 2.19069 57.4398 2.19069 57.4398L10.4278 58.1192L9.72999 64.4257L9.70354 64.6759L9.56114 65.984L9.5469 66.1183C9.5469 66.1183 14.0815 68.6226 14.5311 69.0437C14.9806 69.4648 15.2492 70.7424 14.8077 70.8502Z" fill="#AD6359"/>
<path d="M14.8077 70.8501C14.3663 70.9579 2.05235 69.9224 1.60886 69.5868C1.43798 69.4607 1.48477 67.6582 1.60886 65.4815C1.60886 65.4591 1.60886 65.4347 1.60886 65.4123C1.63328 64.9647 1.65972 64.5029 1.69227 64.035L1.70448 63.8316L9.72999 64.4236L9.70354 64.6738L9.56114 65.9819L9.5469 66.1162C9.5469 66.1162 14.0815 68.6205 14.5311 69.0416C14.9806 69.4627 15.2492 70.7423 14.8077 70.8501Z" fill="#EBEBEB"/>
<path d="M14.8077 70.8503C14.3663 70.9581 2.05235 69.9226 1.60886 69.5869C1.43798 69.4608 1.48477 67.6584 1.60886 65.4816C1.60886 65.4592 1.60886 65.4348 1.60886 65.4124L9.56114 65.9922L9.5469 66.1265C9.5469 66.1265 14.0815 68.6308 14.5311 69.0519C14.9806 69.473 15.2492 70.7424 14.8077 70.8503Z" fill="#F7C06E"/>
<path d="M14.7029 70.3599C12.632 70.1341 4.25656 69.4221 2.19169 69.355C2.17542 69.355 2.17338 69.3672 2.19169 69.3692C4.23825 69.6378 12.6198 70.2826 14.7009 70.3864C14.7518 70.3966 14.7558 70.3722 14.7029 70.3599Z" fill="#263238"/>
<path d="M10.4441 66.0877C9.63036 65.868 8.63149 65.9087 7.95812 66.4376C7.93167 66.458 7.95812 66.4966 7.98864 66.4905C8.78933 66.3038 9.60776 66.2035 10.4299 66.1915C10.4426 66.1914 10.4549 66.1868 10.4644 66.1784C10.474 66.17 10.4802 66.1584 10.482 66.1458C10.4837 66.1332 10.4808 66.1204 10.4739 66.1097C10.4669 66.099 10.4563 66.0912 10.4441 66.0877Z" fill="#263238"/>
<path d="M11.0043 66.4926C10.1906 66.2728 9.18968 66.3135 8.51631 66.8425C8.4919 66.8628 8.51631 66.9015 8.54683 66.8954C9.34754 66.7087 10.166 66.6085 10.988 66.5963C11.001 66.5968 11.0136 66.5925 11.0236 66.5842C11.0335 66.576 11.0402 66.5644 11.0422 66.5516C11.0442 66.5389 11.0414 66.5258 11.0345 66.5149C11.0275 66.504 11.0168 66.4961 11.0043 66.4926Z" fill="#263238"/>
<path d="M11.5634 66.8975C10.7496 66.6778 9.74872 66.7184 9.07535 67.2474C9.05093 67.2677 9.07535 67.3064 9.1079 67.3003C9.90856 67.1134 10.727 67.0131 11.5491 67.0012C11.5618 67.0011 11.5741 66.9965 11.5837 66.9881C11.5933 66.9797 11.5995 66.9681 11.6012 66.9555C11.603 66.9429 11.6001 66.9301 11.5931 66.9194C11.5862 66.9088 11.5756 66.901 11.5634 66.8975Z" fill="#263238"/>
<path d="M11.6522 64.3973C11.3694 63.9274 10.7551 64.0759 10.3889 64.3342C9.7667 64.7869 9.27539 65.3961 8.96484 66.1001C8.96484 66.1163 8.96484 66.1265 8.98112 66.1306C8.97924 66.1464 8.98112 66.1625 8.98662 66.1775C8.99212 66.1925 9.00108 66.206 9.01277 66.2169C9.02446 66.2278 9.03855 66.2358 9.05391 66.2403C9.06926 66.2447 9.08545 66.2455 9.10114 66.2425C9.79486 66.0492 10.5638 65.9292 11.1782 65.5284C11.5525 65.2863 11.9248 64.8408 11.6522 64.3973ZM10.1041 65.7339C9.76434 65.8376 9.42257 65.9231 9.0869 66.039C9.35217 65.6857 9.63531 65.3462 9.93523 65.0219C10.0826 64.8676 10.2403 64.7235 10.4072 64.5906C10.6696 64.3871 11.6705 63.9986 11.4508 64.8835C11.3349 65.3758 10.513 65.6118 10.1081 65.7339H10.1041Z" fill="#263238"/>
<path d="M6.91769 65.7114C7.56665 66.0552 8.34174 66.106 9.05173 66.2342C9.12496 66.2484 9.16972 66.1732 9.16158 66.1121C9.16474 66.1111 9.16762 66.1093 9.17002 66.107C9.17242 66.1047 9.17427 66.1019 9.17544 66.0988C9.17661 66.0957 9.17707 66.0923 9.17678 66.089C9.1765 66.0857 9.17547 66.0825 9.17379 66.0796C8.80336 65.4085 8.2623 64.8471 7.6053 64.4521C7.21878 64.2263 6.58813 64.1348 6.35418 64.6271C6.12023 65.1194 6.5393 65.51 6.91769 65.7114ZM6.5983 65.1011C6.29925 64.2405 7.3327 64.5396 7.61547 64.7145C7.79358 64.8324 7.9635 64.9623 8.12406 65.1031C8.45268 65.3971 8.76572 65.7081 9.0619 66.0348C8.71606 65.9494 8.36818 65.8945 8.02031 65.8314C7.60123 65.7317 6.76715 65.573 6.5983 65.097V65.1011Z" fill="#263238"/>
<path d="M9.91673 65.3798L1.21582 65.0116C1.21582 65.0116 3.59194 45.9172 3.63466 44.7393C3.74859 41.6878 5.77276 22.038 5.77276 22.038H16.4002C16.4002 22.038 15.7289 26.5766 14.5835 29.4532C13.8126 29.723 13.0682 30.0635 12.36 30.4704C12.36 30.4704 11.3632 43.4678 11.3265 45.0892C11.2452 48.2994 9.91673 65.3798 9.91673 65.3798Z" fill="#37474F"/>
<path d="M9.68268 63.7849C8.3278 63.6995 8.7184 63.7056 7.35945 63.6344C6.69625 63.5998 2.33054 63.3781 1.70599 63.4533C1.69175 63.4533 1.69175 63.4777 1.70599 63.4818C2.3163 63.61 6.69218 63.7585 7.35538 63.7788C8.71433 63.8236 8.32577 63.7971 9.68471 63.8256C9.69011 63.8253 9.69518 63.8229 9.6988 63.8189C9.70243 63.8149 9.70431 63.8096 9.70404 63.8042C9.70377 63.7989 9.70137 63.7938 9.69736 63.7902C9.69336 63.7865 9.68807 63.7847 9.68268 63.7849Z" fill="#263238"/>
<path d="M6.55389 23.2098C6.15922 28.1594 5.75439 33.111 5.30073 38.0606C4.84707 43.0102 4.3161 47.9801 3.67325 52.9215C3.31317 55.678 2.9063 59.5657 2.47705 62.3161C2.47705 62.3344 2.50146 62.3426 2.50553 62.3161C3.38234 57.4337 4.02722 51.3632 4.57446 46.4299C5.12171 41.4966 5.5713 36.5491 5.97206 31.6015C6.19788 28.8023 6.40131 26.001 6.61695 23.2017C6.61899 23.1752 6.56813 23.1752 6.55389 23.2098Z" fill="#263238"/>
<path d="M14.9641 29.262C14.0628 29.5921 13.1921 30.0005 12.3621 30.4826C12.3551 30.4859 12.3497 30.4918 12.347 30.499C12.3443 30.5063 12.3447 30.5143 12.3479 30.5213C12.3511 30.5283 12.357 30.5337 12.3643 30.5364C12.3715 30.5391 12.3795 30.5388 12.3865 30.5355C13.2634 30.1592 14.1564 29.7991 15.0109 29.3739C15.0257 29.3677 15.0375 29.3559 15.0436 29.341C15.0497 29.3261 15.0496 29.3094 15.0434 29.2946C15.0372 29.2797 15.0254 29.268 15.0105 29.2619C14.9956 29.2558 14.9789 29.2558 14.9641 29.262Z" fill="#263238"/>
<path d="M15.2414 23.2464C15.2414 23.2159 15.1864 23.2098 15.1864 23.2464C15.1864 24.2859 15.1274 25.2014 15.04 26.1758C14.9993 26.6275 14.6331 29.1216 13.8519 28.9405C13.7217 28.91 13.6485 28.7798 13.6342 28.5825C13.6357 28.3241 13.6706 28.067 13.738 27.8176C13.8234 27.2947 13.8946 26.7719 13.9414 26.243C14.0323 25.2605 14.0214 24.2713 13.9089 23.2911C13.9073 23.2856 13.9039 23.2808 13.8994 23.2773C13.8948 23.2738 13.8892 23.272 13.8834 23.272C13.8777 23.272 13.8721 23.2738 13.8675 23.2773C13.8629 23.2808 13.8596 23.2856 13.858 23.2911C13.8812 24.6514 13.8016 26.0115 13.62 27.3598C13.5223 28.0088 13.1948 28.9873 13.8743 29.085C14.5538 29.1826 15.0135 27.5511 15.0949 27.1035C15.3108 25.8296 15.36 24.533 15.2414 23.2464Z" fill="#263238"/>
<path d="M13.8715 29.0037C13.8011 29.1716 13.7426 29.3443 13.6965 29.5204C13.6452 29.6562 13.6203 29.8005 13.6233 29.9456C13.6233 29.9741 13.6619 29.9761 13.6762 29.9578C13.7571 29.832 13.8188 29.6949 13.8593 29.5509C13.9183 29.3902 13.9813 29.2315 14.0363 29.0688C14.0449 29.0469 14.0445 29.0226 14.0351 29.001C14.0258 28.9795 14.0083 28.9625 13.9864 28.9539C13.9646 28.9452 13.9402 28.9456 13.9186 28.955C13.8971 28.9643 13.8801 28.9818 13.8715 29.0037Z" fill="#263238"/>
<path d="M10.3286 24.0622C10.3311 23.9535 10.3202 23.8448 10.2961 23.7387C10.2945 23.7358 10.2922 23.7332 10.2893 23.7315C10.2865 23.7297 10.2832 23.7288 10.2798 23.7288C10.2764 23.7288 10.2731 23.7297 10.2703 23.7315C10.2674 23.7332 10.2651 23.7358 10.2635 23.7387C10.242 23.8309 10.2297 23.9249 10.2269 24.0195C10.2269 24.1273 10.2025 24.2229 10.1903 24.3409C10.1677 24.561 10.1296 24.7792 10.0764 24.9939C9.97735 25.3993 9.77071 25.7704 9.47826 26.0681C9.18661 26.355 8.84086 26.5811 8.46108 26.7333C8.04076 26.8821 7.61215 27.0065 7.17741 27.1056C7.17309 27.1056 7.16895 27.1073 7.1659 27.1104C7.16285 27.1134 7.16113 27.1175 7.16113 27.1219C7.16113 27.1262 7.16285 27.1303 7.1659 27.1334C7.16895 27.1364 7.17309 27.1381 7.17741 27.1381C7.65876 27.1372 8.13539 27.0432 8.58111 26.8615C8.97622 26.7132 9.33589 26.4838 9.63694 26.1881C9.93747 25.8826 10.1485 25.5005 10.2472 25.0834C10.297 24.8684 10.3257 24.649 10.3327 24.4284C10.3384 24.3063 10.3371 24.1841 10.3286 24.0622Z" fill="#263238"/>
<path d="M20.7277 4.1703C21.3827 4.96166 22.0948 7.09976 22.0683 7.68362C22.0419 8.26748 18.4431 9.59387 17.9345 9.27651C17.4259 8.95915 15.4241 6.13141 15.4058 5.08372C15.3875 4.03603 20.0482 3.35249 20.7277 4.1703Z" fill="#AD6359"/>
<path d="M15.3114 2.71786C14.9818 2.37405 13.9158 1.3467 13.4418 1.81054C13.1448 2.09941 13.8609 2.89078 14.1619 3.20406C14.7824 3.84692 15.2625 4.98412 15.4863 5.5395C15.7101 6.09487 16.7578 4.99836 16.7578 4.99836C16.7578 4.99836 16.1719 3.61093 15.3114 2.71786Z" fill="#AD6359"/>
<path d="M16.1887 6.15985C16.1887 6.15985 16.5569 7.14855 17.1571 7.12617C17.7572 7.10379 17.6046 6.25343 17.5965 6.1924C17.6148 6.2453 17.9769 7.14448 18.5791 7.06107C19.1812 6.97766 18.9249 6.14154 18.9066 6.08865C18.9391 6.13137 19.403 6.69895 19.8444 6.5301C20.6053 6.24122 19.464 4.76225 19.5739 4.1133C19.5739 4.1133 20.6968 4.17636 20.7294 4.17026C20.7294 4.17026 19.6715 2.74621 18.7866 2.64043C18.6578 2.62259 18.5268 2.64966 18.4156 2.7171C18.3045 2.78454 18.2199 2.88821 18.1763 3.01068C18.1763 3.01068 17.8854 2.51226 17.4093 2.56312C17.1652 2.58957 16.9902 3.00458 16.9902 3.00458C16.9189 2.89503 16.8185 2.80739 16.7004 2.75138C16.5823 2.69536 16.4509 2.67315 16.3209 2.68722C15.9853 2.74215 15.8185 3.16122 15.8001 3.32397C15.6577 4.56899 16.1887 6.15985 16.1887 6.15985Z" fill="#AD6359"/>
<path d="M15.8354 3.21008C15.8354 3.21008 15.8212 3.21008 15.8192 3.21008C15.6357 4.22119 15.7641 5.26417 16.1874 6.20058C16.2016 6.22906 16.2545 6.21888 16.2443 6.1843C15.9652 5.21783 15.8274 4.21603 15.8354 3.21008Z" fill="#263238"/>
<path d="M16.9896 2.99039C16.9896 2.97818 16.9713 2.97818 16.9693 2.99039C16.7796 4.10688 16.9961 5.25438 17.5796 6.225C17.602 6.25959 17.6549 6.26772 17.6325 6.225C17.2602 5.5496 16.9693 3.93229 16.9896 2.99039Z" fill="#263238"/>
<path d="M18.9771 6.14149C18.4197 5.18535 18.2224 4.14783 18.1756 3.05131C18.1756 3.03707 18.1552 3.03911 18.1512 3.05131C18.0291 3.59449 18.1329 4.2882 18.259 4.82323C18.367 5.32093 18.6034 5.78171 18.9446 6.1598C18.9547 6.17607 18.9771 6.16184 18.9771 6.14149Z" fill="#263238"/>
<path d="M16.188 6.15986C16.2765 6.34255 16.3814 6.51685 16.5013 6.68065C16.6114 6.8447 16.763 6.97666 16.9407 7.06311C17.0252 7.09553 17.1187 7.09553 17.2031 7.06311C17.2895 7.0322 17.3666 6.97967 17.4269 6.91053C17.4803 6.83644 17.5176 6.75204 17.5365 6.66273C17.5554 6.57341 17.5555 6.48113 17.5368 6.39177L17.4615 5.95235L17.6853 6.33888C17.7831 6.51169 17.9081 6.66762 18.0555 6.80068C18.1199 6.86602 18.1975 6.91688 18.2831 6.94986C18.3687 6.98283 18.4603 6.99717 18.5519 6.99191C18.6372 6.98675 18.7182 6.95239 18.7811 6.8946C18.8441 6.83681 18.8853 6.75911 18.8977 6.67455C18.9214 6.48438 18.8969 6.29132 18.8265 6.11307L18.6455 5.61669L18.9771 6.02356C19.0693 6.13716 19.1752 6.23896 19.2924 6.32667C19.4011 6.41273 19.5327 6.46506 19.6708 6.47722C19.7331 6.48006 19.795 6.4656 19.8495 6.43544C19.9041 6.40527 19.9493 6.36059 19.98 6.30633C20.028 6.17622 20.0386 6.03527 20.0105 5.89946C19.9522 5.59926 19.8706 5.30407 19.7664 5.01655C19.7176 4.87008 19.6688 4.72157 19.6281 4.57103C19.5782 4.42323 19.5601 4.26654 19.5752 4.11127C19.5779 4.26502 19.6097 4.41686 19.6688 4.55882C19.7217 4.70326 19.7806 4.84567 19.8396 4.99011C19.9659 5.27785 20.0646 5.57687 20.1346 5.88319C20.1765 6.04777 20.1694 6.22098 20.1143 6.3816C20.0745 6.46584 20.0109 6.53657 19.9314 6.58503C19.8518 6.63349 19.7598 6.65754 19.6667 6.6542C19.4948 6.64451 19.3297 6.58357 19.1927 6.47925C19.0603 6.38445 18.9407 6.273 18.8367 6.14765L18.9873 6.05814C19.075 6.26675 19.1065 6.4947 19.0788 6.7193C19.0602 6.8443 18.9983 6.95878 18.9038 7.04276C18.8097 7.12111 18.6942 7.16931 18.5722 7.1811C18.4559 7.18826 18.3394 7.17035 18.2306 7.12859C18.1218 7.08682 18.0232 7.02217 17.9416 6.93901C17.778 6.79234 17.6404 6.619 17.5347 6.42636L17.6832 6.37346C17.7023 6.48501 17.6969 6.59935 17.6673 6.70859C17.6378 6.81783 17.585 6.91936 17.5123 7.00615C17.434 7.0879 17.3359 7.14814 17.2275 7.1811C17.1172 7.21515 16.9981 7.20643 16.8939 7.15669C16.7068 7.05439 16.5524 6.90137 16.4484 6.71523C16.3408 6.54056 16.2535 6.35424 16.188 6.15986Z" fill="#263238"/>
<path d="M17.5092 8.85534C17.5092 8.85534 13.6297 6.87185 15.1493 5.73668C15.5989 5.39898 17.855 4.55065 18.034 5.00024C18.266 5.58003 17.3892 6.111 16.787 6.35512C16.787 6.35512 18.2009 6.8454 18.1541 7.92971C18.1423 8.12844 18.0759 8.32005 17.9621 8.48339C17.8483 8.64673 17.6915 8.77545 17.5092 8.85534Z" fill="#AD6359"/>
<path d="M15.0317 5.83846C15.1918 5.68447 15.3743 5.55553 15.5729 5.456C15.7702 5.35085 15.974 5.25844 16.1832 5.17933C16.5986 5.01617 17.0274 4.88956 17.4648 4.80094C17.5811 4.77655 17.7005 4.7697 17.8188 4.7806C17.8904 4.78501 17.96 4.80589 18.0222 4.84163C18.0545 4.86035 18.0834 4.88443 18.1077 4.91283C18.1316 4.9411 18.1503 4.9735 18.1626 5.00845C18.2094 5.13374 18.2094 5.27171 18.1626 5.39701C18.1197 5.5113 18.0563 5.61679 17.9754 5.70826C17.8222 5.8817 17.6397 6.02698 17.4363 6.13751C17.2407 6.24948 17.0366 6.34606 16.826 6.42639V6.28195C16.9854 6.34418 17.1387 6.42114 17.2838 6.51183C17.4297 6.59981 17.5661 6.70276 17.6906 6.81902C17.8134 6.9385 17.9176 7.07563 17.9999 7.22589C18.0831 7.37222 18.1377 7.5331 18.1606 7.69989C18.1175 7.54129 18.0488 7.39079 17.9571 7.25437C17.8635 7.12222 17.7527 7.00317 17.6276 6.90039C17.5019 6.79542 17.3656 6.70404 17.2207 6.62779C17.0799 6.55023 16.9321 6.4862 16.7792 6.43656L16.5901 6.37756L16.7731 6.29212C16.9715 6.20618 17.1639 6.10696 17.3489 5.99511C17.5316 5.88963 17.6964 5.75572 17.8371 5.59841C17.9045 5.53325 17.9541 5.45193 17.9811 5.3622C18.0082 5.27246 18.0118 5.1773 17.9917 5.08575C17.947 4.94335 17.7049 4.94945 17.4994 4.97996C17.2939 5.01048 17.0763 5.06541 16.8627 5.1183C16.649 5.17119 16.4395 5.23019 16.23 5.29732C15.8049 5.41452 15.4007 5.59707 15.0317 5.83846Z" fill="#263238"/>
<path d="M13.0487 11.6628C16.4786 15.8963 21.4648 18.6386 22.6955 17.7456C23.9263 16.8525 19.7783 12.1775 19.7071 12.1084C19.465 11.8765 17.63 10.9223 14.2978 9.51864C11.0286 8.14139 11.5168 9.77294 13.0487 11.6628Z" fill="#AD6359"/>
<path d="M18.1589 11.1726L15.5753 14.57C15.5753 14.57 13.4067 12.3322 12.2593 10.8512C11.1119 9.37017 11.2259 8.21873 13.7932 9.17487C15.2961 9.73126 16.7554 10.399 18.1589 11.1726Z" fill="#F7C06E"/>
<path d="M15.3317 13.7908C15.647 13.327 15.9766 12.8713 16.3143 12.4258C16.4831 12.206 16.6459 11.9823 16.8188 11.7646C16.9917 11.5469 17.189 11.3292 17.366 11.1055C17.3782 11.0892 17.4027 11.1055 17.3904 11.1217C17.2277 11.3455 17.0812 11.5795 16.9185 11.8032C16.7557 12.027 16.5767 12.2589 16.4038 12.4868C16.0634 12.9343 15.7128 13.3738 15.352 13.805C15.3419 13.8173 15.3134 13.805 15.3317 13.7908Z" fill="#263238"/>
<path d="M16.814 12.9383L15.5771 14.5658C15.5771 14.5658 13.4085 12.328 12.2611 10.847L12.1512 10.7026L12.1045 10.6354L12.0332 10.5317C11.9722 10.4422 11.9173 10.3547 11.8685 10.2693C11.8502 10.2387 11.8339 10.2082 11.8176 10.1777C11.7328 10.0233 11.6646 9.86032 11.6142 9.6915C11.5992 9.63942 11.5876 9.58641 11.5796 9.53282C11.5796 9.50637 11.5796 9.48196 11.5796 9.45755C12.7066 10.2387 15.3513 11.9496 16.814 12.9383Z" fill="#263238"/>
<path d="M16.9193 24.1375C16.9193 24.1375 5.14648 24.3409 5.07732 24.2677C4.89422 24.0643 7.27238 11.9416 9.73191 9.44341C10.6006 8.5605 12.3928 8.92058 12.6919 9.06502C13.3815 9.39865 14.0305 10.1188 14.5737 11.4533C15.66 14.1224 17.0678 23.9463 16.9193 24.1375Z" fill="#F7C06E"/>
<path opacity="0.1" d="M13.2801 9.4638H9.71386L9.73217 9.44345C9.81515 9.35952 9.90727 9.28514 10.0068 9.22171H12.9668C13.0776 9.29379 13.1824 9.37475 13.2801 9.4638ZM13.6727 9.87067H9.3782C9.32123 9.94594 9.26631 10.0273 9.21138 10.1128H13.8599C13.8009 10.0273 13.7398 9.95204 13.6869 9.87067H13.6727ZM14.1162 10.5196H8.96522C8.92047 10.599 8.87571 10.6803 8.83299 10.7637H14.2545C14.2118 10.6803 14.1671 10.5969 14.1203 10.5196H14.1162ZM14.4478 11.1706H8.62752L8.51156 11.4127H14.5556C14.5231 11.3293 14.4885 11.2479 14.4519 11.1727L14.4478 11.1706ZM14.7062 11.8196H8.33254L8.22879 12.0617H14.7896C14.7631 11.9864 14.7367 11.8969 14.7041 11.8196H14.7062ZM14.9096 12.4685H8.06401C8.03349 12.5499 8.00094 12.6292 7.96839 12.7127H14.9808L14.9096 12.4685ZM15.0845 13.1175H7.81785C7.78937 13.1989 7.75885 13.2782 7.73037 13.3616H15.1496C15.1239 13.2789 15.1035 13.1975 15.0886 13.1175H15.0845ZM15.2432 13.7685H7.5839C7.55542 13.8478 7.52897 13.9292 7.50253 14.0106H15.2982L15.2432 13.7685ZM15.3897 14.4174H7.38046C7.35402 14.4968 7.32961 14.5782 7.30316 14.6595H15.4568C15.4284 14.5782 15.4121 14.4968 15.3938 14.4276L15.3897 14.4174ZM15.528 15.0664H7.17703C7.15058 15.1457 7.12617 15.2271 7.10176 15.3105H15.5931C15.5667 15.2291 15.5504 15.1478 15.5321 15.0664H15.528ZM15.6603 15.7154H6.97359C6.94918 15.7967 6.92477 15.8781 6.90239 15.9595H15.7213L15.6603 15.7154ZM15.7864 16.3663H6.78237C6.75795 16.4477 6.73558 16.5271 6.7132 16.6084H15.8352C15.821 16.5271 15.8067 16.4457 15.7905 16.3663H15.7864ZM15.9064 17.0153H6.60131C6.57893 17.0967 6.55655 17.1781 6.53621 17.2574H15.9552C15.941 17.176 15.9247 17.0967 15.9105 17.0153H15.9064ZM16.0224 17.6643H6.42839C6.40601 17.7456 6.38567 17.827 6.36532 17.9084H16.0692C16.057 17.827 16.0427 17.7456 16.0265 17.6643H16.0224ZM16.1383 18.3153H6.25954C6.24123 18.3966 6.22088 18.476 6.20054 18.5573H16.1811C16.1689 18.478 16.1546 18.3966 16.1424 18.3153H16.1383ZM16.2441 18.9642H6.09882C6.08051 19.0456 6.06017 19.127 6.04186 19.2063H16.2889C16.2767 19.127 16.2624 19.0456 16.2482 18.9642H16.2441ZM16.3499 19.6132H5.94421C5.9259 19.6966 5.9076 19.778 5.88725 19.8573H16.3926C16.3804 19.7759 16.3682 19.6966 16.354 19.6132H16.3499ZM16.4537 20.2621H5.79571C5.7774 20.3435 5.75909 20.4269 5.74078 20.5062H16.4923C16.4801 20.4269 16.4679 20.3455 16.4577 20.2621H16.4537ZM16.5493 20.9131H5.65127C5.63499 20.9945 5.61668 21.0759 5.60041 21.1552H16.5859L16.5493 20.9131ZM16.6429 21.5621H5.51293C5.49666 21.6455 5.48038 21.7248 5.46411 21.8042H16.6815C16.6693 21.7248 16.6591 21.6435 16.6469 21.5621H16.6429ZM16.7324 22.211H5.38477C5.36578 22.2951 5.3495 22.3765 5.33594 22.4552H16.769C16.7588 22.3758 16.7385 22.2944 16.7385 22.211H16.7324ZM16.8137 22.86H5.26067C5.2444 22.9454 5.23016 23.0268 5.21592 23.1041H16.8483C16.8402 23.0268 16.83 22.9454 16.8178 22.86H16.8137ZM16.889 23.511H5.14268C5.12844 23.5985 5.11827 23.6798 5.10606 23.7531H16.9053C16.9094 23.6819 16.9012 23.6005 16.8931 23.511H16.889ZM5.06538 24.1599C5.05633 24.1953 5.05633 24.2324 5.06538 24.2678C5.1203 24.3227 12.4216 24.2108 15.5321 24.1599H5.06538Z" fill="#030402"/>
<path d="M10.4029 10.9121C9.60947 12.0005 5.54077 16.4984 5.39023 16.9154C5.23969 17.3325 6.18159 18.254 6.16532 18.427C6.10429 19.1309 4.58463 23.8139 3.97636 23.3379C3.17482 22.7113 -0.21847 18.2235 0.261636 16.2807C0.741743 14.3379 8.66554 9.67316 9.92276 9.26832C11.18 8.86349 11.1861 9.83794 10.4029 10.9121Z" fill="#AD6359"/>
<path d="M7.20604 15.0073L4.89502 11.7625C4.89502 11.7625 7.48068 10.0659 9.20988 9.34164C10.9391 8.61742 11.7915 9.02022 10.2108 11.256C9.28677 12.5666 8.28331 13.8194 7.20604 15.0073Z" fill="#F7C06E"/>
<path d="M5.58118 11.5509C5.94736 11.9754 6.30337 12.4094 6.64921 12.8529C6.8201 13.0706 6.99302 13.2862 7.1578 13.508C7.32258 13.7297 7.48533 13.9779 7.65825 14.2058C7.67045 14.222 7.64604 14.2424 7.63383 14.2261C7.45888 14.0227 7.27172 13.8192 7.09677 13.5954C6.92181 13.3717 6.74279 13.1479 6.56784 12.9241C6.222 12.4806 5.88633 12.027 5.56287 11.5672C5.55066 11.555 5.571 11.5387 5.58118 11.5509Z" fill="#263238"/>
<path d="M7.20226 15.0236C7.55624 14.5537 7.97328 14.1346 8.35574 13.6891C8.7382 13.2435 9.11862 12.7838 9.48277 12.3199C9.48277 12.3199 9.50922 12.3199 9.50108 12.3322C9.33223 12.5742 9.16744 12.8184 8.99046 13.0543C8.90298 13.1703 8.81143 13.2842 8.71785 13.3982L8.85416 13.2863C8.9936 13.1814 9.13822 13.0837 9.28747 12.9933C9.28747 12.9933 9.30375 12.9933 9.28747 13.0055C9.15801 13.1253 9.02219 13.238 8.8806 13.3432C8.77888 13.4205 8.67717 13.4917 8.56935 13.5629L8.4066 13.7664C8.05151 14.2248 7.65593 14.6503 7.22464 15.0378C7.21243 15.0561 7.19006 15.0378 7.20226 15.0236Z" fill="#263238"/>
<path d="M5.96504 25.116C6.50821 24.7478 5.76161 24.3165 5.76161 24.3165C5.76161 24.3165 6.98222 24.6786 7.38909 24.0826C7.79596 23.4865 6.86829 23.0186 6.80319 22.982C6.86829 23.0023 7.99939 23.3034 8.35337 22.6626C8.70735 22.0218 7.71458 21.6637 7.64949 21.6454C7.71662 21.6454 8.59749 21.6067 8.75617 21.0575C9.02674 20.1156 6.49601 20.0057 5.9508 19.43C5.9508 19.43 6.19492 18.185 6.21527 18.1504C6.05158 18.4298 5.79757 18.6451 5.49511 18.7607C4.94787 18.9153 4.45556 19.0048 4.23381 19.2672C4.13035 19.3821 4.06659 19.5271 4.05193 19.681C4.03728 19.8349 4.07252 19.9894 4.15244 20.1217C4.15244 20.1217 3.46076 20.0423 3.16578 20.5387C3.01524 20.793 3.28987 21.2629 3.28987 21.2629C3.13335 21.2518 2.97676 21.2838 2.83721 21.3555C2.69765 21.4273 2.58049 21.536 2.49851 21.6698C2.30932 22.036 2.61447 22.449 2.61447 22.449C2.61447 22.449 2.06113 22.6524 1.98992 23.0918C1.85362 23.9727 4.8014 25.9013 5.96504 25.116Z" fill="#AD6359"/>
<path d="M2.66592 22.5243C2.66592 22.5243 2.64355 22.5243 2.65168 22.5385C3.49494 23.4469 4.59479 24.077 5.80493 24.345C5.84358 24.345 5.87206 24.2921 5.83137 24.2758C4.69694 23.8484 3.63064 23.2584 2.66592 22.5243Z" fill="#263238"/>
<path d="M3.28484 21.2548C3.2835 21.2537 3.28197 21.2529 3.28032 21.2524C3.27868 21.252 3.27696 21.2518 3.27526 21.252C3.27356 21.2522 3.27191 21.2527 3.27041 21.2535C3.26892 21.2544 3.26759 21.2555 3.26653 21.2568C3.26546 21.2581 3.26466 21.2597 3.26419 21.2613C3.26371 21.263 3.26356 21.2647 3.26375 21.2664C3.26394 21.2681 3.26446 21.2697 3.26529 21.2712C3.26611 21.2727 3.26722 21.2741 3.26856 21.2751C4.20863 22.2663 5.47197 22.889 6.83071 23.0308C6.8775 23.0308 6.92429 22.9901 6.86936 22.9819C5.95797 22.8436 4.17995 21.9546 3.28484 21.2548Z" fill="#263238"/>
<path d="M7.76088 21.6149C6.43449 21.4643 5.28915 20.9028 4.1967 20.1583C4.18246 20.1583 4.17026 20.1684 4.17839 20.1806C4.61374 20.6913 5.36035 21.0941 5.96862 21.3585C6.52718 21.6143 7.14312 21.7188 7.75478 21.6616C7.78733 21.6596 7.78733 21.6189 7.76088 21.6149Z" fill="#263238"/>
<path d="M2.58924 22.4489C2.47874 22.3377 2.40124 22.198 2.36532 22.0454C2.32941 21.8928 2.3365 21.7332 2.3858 21.5843C2.44953 21.4442 2.56141 21.3316 2.70113 21.267C2.86766 21.2094 3.04574 21.1933 3.21989 21.2202C3.12278 21.0833 3.06944 20.9202 3.0669 20.7525C3.06436 20.5847 3.11274 20.4201 3.20565 20.2803C3.30983 20.1608 3.45498 20.0846 3.61252 20.0667C3.79232 20.0493 3.97365 20.0561 4.15162 20.0871C4.07748 19.9998 4.02472 19.8964 3.99753 19.7852C3.97034 19.6739 3.96946 19.5579 3.99498 19.4462C4.02865 19.325 4.09039 19.2134 4.17521 19.1204C4.26004 19.0275 4.36555 18.9558 4.48322 18.9112C4.76003 18.811 5.04738 18.7427 5.33968 18.7078C5.48973 18.6853 5.63656 18.645 5.77707 18.5877C5.92849 18.5184 6.05542 18.405 6.14122 18.2622C6.15749 18.2378 6.15749 18.2622 6.14122 18.2846C6.08424 18.3816 6.01134 18.4682 5.92557 18.5409C5.83651 18.6185 5.73727 18.6835 5.63059 18.7342C5.36578 18.8341 5.09375 18.9137 4.81685 18.9722C4.57413 19.0369 4.35957 19.1799 4.20655 19.3791C4.13662 19.4845 4.09731 19.6073 4.093 19.7337C4.08869 19.8601 4.11954 19.9853 4.18214 20.0952C4.18214 20.0952 4.18214 20.1216 4.16383 20.1196C4.00139 20.1189 3.83948 20.138 3.68169 20.1766C3.5508 20.2078 3.43282 20.2789 3.34398 20.38C3.26168 20.5089 3.21461 20.6571 3.20747 20.8099C3.20033 20.9627 3.23337 21.1147 3.3033 21.2507C3.12786 21.2624 2.95611 21.3066 2.79674 21.3809C2.69328 21.4445 2.61003 21.5362 2.55669 21.6454C2.49575 21.7711 2.47091 21.9112 2.48491 22.0502C2.49892 22.1892 2.55124 22.3216 2.63603 22.4327C2.63681 22.436 2.63681 22.4395 2.63603 22.4428C2.63603 22.4428 2.45904 22.5161 2.4509 22.5161C2.44277 22.5161 2.4509 22.5161 2.4509 22.5161C2.49559 22.4909 2.54179 22.4684 2.58924 22.4489Z" fill="#263238"/>
<path d="M12.6894 10.8695C12.0425 11.1075 10.7771 10.2266 10.2258 9.45765C10.1892 9.40476 10.1525 7.11612 10.0996 6.66449C10.0874 6.57091 13.023 7.0144 13.023 7.0144C12.9292 7.59949 12.9073 8.19387 12.9579 8.78428C12.966 8.84938 13.3139 10.6416 12.6894 10.8695Z" fill="#AD6359"/>
<path d="M13.023 7.01432C13.023 7.01432 12.9905 7.20352 12.964 7.48426C12.1503 8.48312 10.8442 8.58891 10.181 8.56653C10.1586 7.85654 10.1322 6.93905 10.0996 6.66441C10.0874 6.57287 13.023 7.01432 13.023 7.01432Z" fill="#263238"/>
<path d="M10.1108 1.78809C10.1108 1.78809 9.17497 2.1502 8.98375 3.086C8.79252 4.0218 8.98375 5.01456 9.06105 5.06542C9.13836 5.11628 10.1108 1.78809 10.1108 1.78809Z" fill="#263238"/>
<path d="M13.892 2.9965C14.132 4.02792 13.4037 6.91466 12.6388 7.51683C11.5321 8.3916 9.81513 8.36719 9.09497 7.0591C8.39923 5.7917 9.4164 2.0485 10.2607 1.50939C11.5016 0.718031 13.5319 1.47074 13.892 2.9965Z" fill="#AD6359"/>
<path d="M10.9854 4.61792C10.9854 4.61792 10.9997 4.63013 10.9977 4.63826C10.957 4.8417 10.9427 5.07158 11.1136 5.16923C11.1136 5.16923 11.1136 5.18144 11.1136 5.1794C10.8939 5.11023 10.9142 4.79898 10.9854 4.61792Z" fill="#263238"/>
<path d="M11.1985 4.43883C11.526 4.46935 11.4386 5.12034 11.1375 5.09186C10.8364 5.06338 10.9259 4.41239 11.1985 4.43883Z" fill="#263238"/>
<path d="M9.84869 4.4165C9.84869 4.4165 9.83242 4.4165 9.83038 4.43278C9.81207 4.63621 9.75715 4.86203 9.56592 4.90678V4.91899C9.79377 4.91492 9.86293 4.60977 9.84869 4.4165Z" fill="#263238"/>
<path d="M9.69533 4.18264C9.37391 4.11754 9.26609 4.76446 9.56514 4.82549C9.86419 4.88652 9.96387 4.23756 9.69533 4.18264Z" fill="#263238"/>
<path d="M9.99768 5.37267C9.99768 5.37267 9.91224 5.66561 9.89189 5.80802C10.1685 5.84845 10.4377 5.92862 10.6914 6.04604C10.7504 6.07452 10.7585 6.02366 10.6914 5.97076C10.5021 5.81701 10.2711 5.72349 10.0282 5.70223C10.0282 5.66154 10.1686 5.25264 10.1462 5.24654C10.0363 5.24022 9.92609 5.24912 9.81866 5.27298C9.97734 4.66268 10.2255 4.06865 10.3842 3.44207C10.3842 3.41969 10.3578 3.40748 10.3476 3.42579C10.054 4.0471 9.82237 4.6958 9.65591 5.36249C9.62946 5.45201 9.93665 5.38894 9.99768 5.37267Z" fill="#263238"/>
<path d="M11.4462 4.21709C11.3689 4.16827 11.3079 4.10927 11.2428 4.05434C11.1777 3.99942 11.0923 3.94856 11.0617 3.85091C11.0552 3.82151 11.0589 3.79077 11.0722 3.76377C11.0855 3.73677 11.1077 3.71512 11.135 3.7024C11.1922 3.68367 11.2534 3.68078 11.3122 3.69403C11.3709 3.70728 11.425 3.73619 11.4686 3.77767C11.5714 3.84666 11.6441 3.95209 11.672 4.07265C11.6774 4.10098 11.6742 4.13026 11.6627 4.15674C11.6513 4.18321 11.6322 4.20565 11.6079 4.22119C11.5837 4.23672 11.5553 4.24464 11.5265 4.24391C11.4976 4.24317 11.4697 4.23384 11.4462 4.21709Z" fill="#263238"/>
<path d="M9.55288 3.46634C9.6424 3.4521 9.72377 3.42769 9.81125 3.40531C9.90547 3.39725 9.99429 3.35786 10.0635 3.29342C10.0817 3.2694 10.0915 3.24012 10.0915 3.21001C10.0915 3.17991 10.0817 3.15062 10.0635 3.1266C10.0189 3.08601 9.96431 3.05802 9.90532 3.04551C9.84633 3.033 9.78507 3.03641 9.72784 3.0554C9.60558 3.07586 9.49534 3.14113 9.41862 3.23849C9.40314 3.26143 9.39447 3.28829 9.39362 3.31595C9.39278 3.34362 9.39979 3.37095 9.41384 3.3948C9.42789 3.41864 9.4484 3.43802 9.47301 3.45068C9.49762 3.46334 9.52532 3.46877 9.55288 3.46634Z" fill="#263238"/>
<path d="M13.4107 5.46213C12.8126 5.40313 13.1381 2.76458 13.1381 2.76458C12.7689 2.89033 12.3827 2.95894 11.9928 2.96801C11.5988 2.95416 11.2078 2.89546 10.8271 2.79306C10.7457 2.76254 11.826 2.45739 11.826 2.45739C11.826 2.45739 9.16911 2.68931 9.0796 2.18886C9.04705 2.01594 9.5414 0.441352 11.7466 0.541035C13.3741 0.614272 14.1329 2.31499 14.1329 2.31499C14.1329 2.31499 14.9243 3.19586 14.788 3.59459C14.5561 4.29441 14.0454 5.52519 13.4107 5.46213Z" fill="#263238"/>
<path d="M13.0456 5.47628C13.0456 5.47628 13.7882 4.5893 14.1971 4.86597C14.606 5.14265 13.9936 6.46294 13.4688 6.60738C13.4034 6.6301 13.3341 6.6394 13.265 6.63473C13.196 6.63005 13.1285 6.61148 13.0668 6.58015C13.0051 6.54881 12.9503 6.50534 12.9058 6.45234C12.8612 6.39935 12.8279 6.33791 12.8076 6.27171L13.0456 5.47628Z" fill="#AD6359"/>
<path d="M22.957 17.5929C24.6089 16.3173 23.0302 9.842 22.07 7.45774C21.7872 6.75589 17.3015 8.06804 17.511 8.85534C18.7093 13.3085 21.1484 18.9905 22.957 17.5929Z" fill="#AD6359"/>
<path d="M18.252 11.2987L18.7463 12.5193C18.9152 12.9262 19.0799 13.333 19.263 13.7399C19.4461 14.1468 19.6231 14.5394 19.8103 14.9361C19.9974 15.3328 20.2049 15.7214 20.4084 16.1119C20.151 15.7535 19.9166 15.3791 19.7065 14.991C19.5031 14.6025 19.2996 14.2037 19.1227 13.8009C18.9457 13.3981 18.7829 12.9872 18.6364 12.5681C18.49 12.149 18.3638 11.7279 18.252 11.2987Z" fill="#263238"/>
</svg>
