<?xml version="1.0" encoding="utf-8"?>
<!-- Generator: Adobe Illustrator 22.0.0, SVG Export Plug-In . SVG Version: 6.00 Build 0)  -->
<svg version="1.1" id="Layer_1" xmlns="http://www.w3.org/2000/svg" xmlns:xlink="http://www.w3.org/1999/xlink" x="0px" y="0px"
	 viewBox="0 0 507.2 507.2" style="enable-background:new 0 0 507.2 507.2;" xml:space="preserve">
<style type="text/css">
	.st0{fill:#D22B2B;}
	.st1{fill:#C41E3A;}
	.st2{fill:#FFFFFF;}
</style>
<g>
	<circle class="st0" cx="253.6" cy="253.6" r="240.9"/>
	<path class="st1" d="M192,362.3l123.9,123.9c102.6-27.4,178.6-120.8,178.6-232.6c0-2.3,0-4.6,0-6.8l-97.3-89.7L192,362.3z"/>
	<g>
		<path class="st2" d="M259.7,307.6c10.6,10.6,10.6,28.9,0,39.5l-22,22c-10.6,10.6-28.9,10.6-39.5,0l-96.5-97.3
			c-10.6-10.6-10.6-28.9,0-39.5l22-22c10.6-10.6,28.9-10.6,39.5,0L259.7,307.6z"/>
		<path class="st2" d="M344,139.6c10.6-10.6,28.9-10.6,39.5,0l22,22c10.6,10.6,10.6,28.9,0,39.5L238.4,367.6
			c-10.6,10.6-28.9,10.6-39.5,0l-22-22c-10.6-10.6-10.6-28.9,0-39.5L344,139.6z"/>
	</g>
</g>
</svg>
