<?xml version="1.0" encoding="UTF-8"?>
<svg width="24px" height="24px" viewBox="0 0 24 24" version="1.1" xmlns="http://www.w3.org/2000/svg" xmlns:xlink="http://www.w3.org/1999/xlink">
    <title>Icons/Hubs/MDO portal</title>
    <g id="Icons/Hubs/MDO-portal" stroke="none" stroke-width="1" fill="none" fill-rule="evenodd">
        <path d="M9.7,3.35 C10.21,3.13 10.79,3.13 11.3,3.35 L11.3,3.35 L16.8,5.75 C17.53,6.06 18,6.78 18,7.58 L18,7.58 L18.0010101,10.0710334 C17.6740854,10.0242218 17.3398714,10 17,10 C13.1340068,10 10,13.1340068 10,17 C10,18.4103335 10.417082,19.7232523 11.1346297,20.8221403 L10.82768,20.91496 L10.82768,20.91496 L10.5,21 C6.2,19.97 3,15.72 3,11.18 L3,11.18 L3,7.58 C3,6.79 3.47,6.07 4.2,5.75 L4.2,5.75 Z" id="Combined-Shape" fill="#0074B6"></path>
        <path d="M20.75,17 C20.75,16.78 20.72,16.58 20.69,16.37 L21.83,15.36 L20.83,13.63 L19.38,14.12 C19.06,13.85 18.7,13.64 18.3,13.49 L18,12 L16,12 L15.7,13.49 C15.3,13.64 14.94,13.85 14.62,14.12 L13.17,13.63 L12.17,15.36 L13.31,16.37 C13.28,16.58 13.25,16.78 13.25,17 C13.25,17.22 13.28,17.42 13.31,17.63 L12.17,18.64 L13.17,20.37 L14.62,19.88 C14.94,20.15 15.3,20.36 15.7,20.51 L16,22 L18,22 L18.3,20.51 C18.7,20.36 19.06,20.15 19.38,19.88 L20.83,20.37 L21.83,18.64 L20.69,17.63 C20.72,17.42 20.75,17.22 20.75,17 Z M17,19 C15.9,19 15,18.1 15,17 C15,15.9 15.9,15 17,15 C18.1,15 19,15.9 19,17 C19,18.1 18.1,19 17,19 Z" id="Shape" fill="#0074B6" opacity="0.5"></path>
    </g>
</svg>