<svg xmlns="http://www.w3.org/2000/svg" width="15.167" height="20.199" viewBox="0 0 15.167 20.199"><defs><style>.a,.b,.c{fill:#ededed;}.a,.c{stroke:#ededed;}.a{stroke-width:0.2px;}.c{stroke-width:0.4px;}</style></defs><g transform="translate(0.1 0.1)"><path class="a" d="M75.8,4.078,71.961.172A.571.571,0,0,0,71.554,0H63.111A2.132,2.132,0,0,0,61,2.148v15.7A2.132,2.132,0,0,0,63.111,20H73.856a2.132,2.132,0,0,0,2.111-2.148V4.492A.591.591,0,0,0,75.8,4.078ZM72.129,2,74,3.906H72.129Zm1.727,16.827H63.111a.969.969,0,0,1-.959-.977V2.148a.969.969,0,0,1,.959-.977h7.867v3.32a.581.581,0,0,0,.576.586h3.262V17.851A.969.969,0,0,1,73.856,18.827Z" transform="translate(-61 0)"/><g transform="translate(3.929 6.799)"><path class="b" d="M2.4.153,0,2.38l.819.931L3.249,1a.665.665,0,0,0,0-.849A.662.662,0,0,0,2.4.153Z" transform="matrix(0.087, 0.996, -0.996, 0.087, 7.737, 4.183)"/><path class="c" d="M125.233,122a3.018,3.018,0,0,0-2.134,5.15,3.068,3.068,0,0,0,2.134.882,3.016,3.016,0,1,0,0-6.033Zm1.636,4.653a2.31,2.31,0,0,1-3.947-1.636,2.181,2.181,0,0,1,.674-1.636,2.314,2.314,0,0,1,3.273,3.273Z" transform="translate(-122.217 -122)"/></g></g></svg>