<?xml version="1.0" encoding="UTF-8"?>
<svg width="17px" height="13px" viewBox="0 0 17 13" version="1.1" xmlns="http://www.w3.org/2000/svg" xmlns:xlink="http://www.w3.org/1999/xlink">
    <title>3E76862B-CCB2-45F1-BEEC-A4CD21DB3325</title>
    <g id="Page-1" stroke="none" stroke-width="1" fill="none" fill-rule="evenodd" stroke-linecap="round" stroke-linejoin="round">
        <g id="Artboard" transform="translate(-179.000000, -43.000000)" stroke="#231F20" stroke-width="1.5">
            <path d="M187.5,46 C189.318772,46 190.798291,47.57 190.798291,49.5 C190.798291,51.43 189.318772,53 187.5,53 C185.681228,53 184.201709,51.43 184.201709,49.5 C184.201709,47.57 185.681228,46 187.5,46 Z M194.929008,49.3126667 C193.698274,46.0853333 190.782585,44 187.5,44 C184.217415,44 181.301726,46.0853333 180.070992,49.3126667 L180,49.5 L180.070992,49.6873333 C181.301726,52.9146667 184.217415,55 187.5,55 C190.782585,55 193.698274,52.9146667 194.929008,49.6873333 L195,49.5 L194.929008,49.3126667 Z" id="views"></path>
        </g>
    </g>
</svg>