<svg xmlns="http://www.w3.org/2000/svg" width="14.783" height="19.218" viewBox="0 0 14.783 19.218"><defs><style>.a{fill:#ededed;}</style></defs><path class="a" d="M75.617,3.919,71.826.165a.571.571,0,0,0-.4-.165H63.085A2.077,2.077,0,0,0,61,2.064V17.154a2.077,2.077,0,0,0,2.085,2.064H73.7a2.077,2.077,0,0,0,2.085-2.064V4.317A.56.56,0,0,0,75.617,3.919Zm-3.624-2,1.849,1.831H71.993ZM73.7,18.092H63.085a.944.944,0,0,1-.948-.938V2.064a.944.944,0,0,1,.948-.938h7.771V4.317a.566.566,0,0,0,.569.563h3.222V17.154A.944.944,0,0,1,73.7,18.092Z" transform="translate(-61 0)"/><path class="a" d="M205.282,264.4l-3.539,3.564-1.475-1.586c-.429-.427-.874-.607-1.373-.117s0,1.152,0,1.152a17.718,17.718,0,0,0,1.844,1.861c.712.547.722.555,1,.555a1.221,1.221,0,0,0,.794-.391l3.969-4c.429-.427.6-.929.253-1.225A1.172,1.172,0,0,0,205.282,264.4Z" transform="translate(-195.215 -256.583)"/></svg>