<?xml version="1.0" encoding="UTF-8"?>
<svg width="222px" height="281px" viewBox="0 0 222 281" version="1.1" xmlns="http://www.w3.org/2000/svg" xmlns:xlink="http://www.w3.org/1999/xlink">
    <title>today's events</title>
    <defs>
        <linearGradient x1="50%" y1="2.14736701%" x2="50%" y2="100%" id="linearGradient-1">
            <stop stop-color="#BBB1F5" offset="0%"></stop>
            <stop stop-color="#7F5BE2" offset="100%"></stop>
        </linearGradient>
        <linearGradient x1="50%" y1="1.89277275%" x2="50%" y2="100%" id="linearGradient-2">
            <stop stop-color="#BBB1F5" offset="0.259506119%"></stop>
            <stop stop-color="#7F5BE2" offset="100%"></stop>
        </linearGradient>
        <linearGradient x1="50%" y1="1.89277275%" x2="50%" y2="100%" id="linearGradient-3">
            <stop stop-color="#BBB1F5" offset="0.259506119%"></stop>
            <stop stop-color="#7F5BE2" offset="100%"></stop>
        </linearGradient>
        <linearGradient x1="50%" y1="1.89277275%" x2="50%" y2="100%" id="linearGradient-4">
            <stop stop-color="#BBB1F5" offset="0.259506119%"></stop>
            <stop stop-color="#7F5BE2" offset="100%"></stop>
        </linearGradient>
    </defs>
    <g id="Screens" stroke="none" stroke-width="1" fill="none" fill-rule="evenodd">
        <g id="Events---past-events" transform="translate(-119.000000, -476.000000)">
            <g id="today's-events" transform="translate(230.000000, 616.500000) scale(-1, 1) translate(-230.000000, -616.500000) translate(119.000000, 476.000000)">
                <path d="M0,0 L214,0 C218.418278,-8.11624501e-16 222,3.581722 222,8 L222,273 C222,277.418278 218.418278,281 214,281 L0,281 L0,281 L0,0 Z" id="Rectangle" fill="#E7E1FF"></path>
                <path d="M146.815241,81 C142.309193,83.9089512 139.176676,86.026664 137.417688,87.3531385 C134.779206,89.3428502 129,94.4992482 129,114.627009 C129.946079,116.682387 142.941754,117 146.815241,117 C150.688727,117 162.588108,116.575332 164.907882,115.601171 C165.197755,112.285136 165.110237,95.6242186 159.890295,90.2468248 C156.410335,86.6618956 152.051983,83.5796207 146.815241,81 Z" id="Path-3-Copy-2" fill="url(#linearGradient-1)"></path>
                <path d="M158.794712,159 C153.787993,162.312972 150.307418,164.724812 148.352987,166.235519 C145.42134,168.501579 139,174.374144 139,197.297427 C140.051199,199.638274 154.490838,200 158.794712,200 C163.098586,200 176.32012,199.51635 178.897647,198.406889 C179.219728,194.630294 179.122485,175.65536 173.322551,169.531106 C169.455927,165.44827 164.613315,161.937901 158.794712,159 Z" id="Path-3" fill="url(#linearGradient-2)"></path>
                <ellipse id="Oval-Copy-2" fill="#FFFFFF" cx="147" cy="115.5" rx="18" ry="1.5"></ellipse>
                <path d="M124.186936,110 C116.551689,114.929056 111.243812,118.517403 108.263305,120.76504 C103.792544,124.136496 94,132.873726 94,166.979099 C95.6030788,170.461822 117.623528,171 124.186936,171 C130.750343,171 150.913183,170.280424 154.843912,168.629762 C155.335085,163.010925 155.18679,134.779926 146.34189,125.668231 C140.445289,119.593768 133.060305,114.371024 124.186936,110 Z" id="Path-3-Copy" fill="url(#linearGradient-3)"></path>
                <path d="M83.8152409,27 C79.3091935,29.9089512 76.1766758,32.026664 74.417688,33.3531385 C71.7792062,35.3428502 66,40.4992482 66,60.6270095 C66.9460793,62.6823868 79.9417545,63 83.8152409,63 C87.6887273,63 99.5881079,62.5753321 101.907882,61.6011708 C102.197755,58.2851362 102.110237,41.6242186 96.8902955,36.2468248 C93.4103347,32.6618956 89.0519832,29.5796207 83.8152409,27 Z" id="Path-3-Copy-4" fill="url(#linearGradient-3)"></path>
                <ellipse id="Oval-Copy" fill="#FFFFFF" cx="84" cy="60.5" rx="18" ry="2.5"></ellipse>
                <line x1="124" y1="110.692968" x2="123.545334" y2="0.388111888" id="Path-4-Copy-3" stroke="#744FB6"></line>
                <path d="M103.671539,38 C95.6607884,43.252273 90.0918681,47.0759212 86.9647786,49.4709445 C82.2741443,53.0634795 72,64.1325448 72,100.474336 C73.6819187,104.185434 96.7853413,103 103.671539,103 C110.557737,103 131.712192,102.233238 135.836236,100.474336 C136.351565,94.4870515 136.195976,64.4048392 126.916081,54.6956559 C120.729484,48.2228671 112.981303,42.6576484 103.671539,38 Z" id="Path-3-Copy-3" fill="url(#linearGradient-4)"></path>
                <ellipse id="Oval" fill="#FFFFFF" cx="104" cy="101" rx="32" ry="3"></ellipse>
                <line x1="84" y1="27.2959552" x2="84" y2="0" id="Path-4" stroke="#744FB6"></line>
                <line x1="103.545334" y1="38.61" x2="103.545334" y2="0.39" id="Path-4-Copy" stroke="#744FB6"></line>
                <line x1="147" y1="81.1673482" x2="147.545334" y2="0.389423077" id="Path-4-Copy-2" stroke="#744FB6"></line>
                <line x1="159" y1="159.291026" x2="158.545334" y2="0.389705882" id="Path-4-Copy-4" stroke="#744FB6"></line>
            </g>
        </g>
    </g>
</svg>