<svg width="22" height="79" viewBox="0 0 22 79" fill="none" xmlns="http://www.w3.org/2000/svg">
<path d="M13.6033 2.40162C14.1484 1.67002 12.8386 -0.0787385 11.399 0.947862C9.9146 2.00514 7.52156 1.63698 6.10084 3.36922C4.68012 5.10146 6.91032 6.54106 6.7404 9.57602C6.60824 12.0847 2.90304 12.8045 3.40336 16.184C4.02168 20.3636 8.81012 26.2825 13.1572 24.3166C17.5044 22.3507 22.8002 16.6041 20.6738 12.8635C18.5475 9.1229 15.4464 9.65154 16.6618 6.69918C17.4123 4.85602 16.65 1.20746 13.6033 2.40162Z" fill="#263238"/>
<path d="M15.5505 68.694L13.8064 70.195L10.814 65.9092L12.558 64.4083L15.5505 68.694Z" fill="#FF8B7B"/>
<path d="M13.2117 69.7843L15.4065 68.222C15.4461 68.1943 15.4939 68.1807 15.5422 68.1833C15.5906 68.1858 15.6366 68.2045 15.6732 68.2362L17.3369 69.6711C17.3769 69.7056 17.4084 69.7487 17.4289 69.7973C17.4495 69.8459 17.4587 69.8985 17.4558 69.9512C17.4528 70.0039 17.4378 70.0552 17.4119 70.1011C17.3859 70.1471 17.3498 70.1864 17.3063 70.2162C16.5345 70.7732 16.1263 70.9738 15.1563 71.6582C14.5616 72.0806 13.063 73.2323 12.2417 73.8152C11.4204 74.3982 10.7171 73.676 11.0003 73.3668C12.2653 71.9697 12.8152 70.8959 12.978 70.1265C13.0112 69.9876 13.0944 69.8658 13.2117 69.7843Z" fill="#263238"/>
<path opacity="0.2" d="M10.814 65.9092L12.3574 68.1182L14.2242 66.7942L12.5604 64.4083L10.814 65.9092Z" fill="black"/>
<path d="M5.66707 27.4648C5.66707 27.4648 2.44331 39.8973 0.821989 48.6411C-0.466571 55.596 11.3948 67.5046 11.3948 67.5046L13.9011 65.3216C13.9011 65.3216 7.9185 56.2757 5.3815 50.0359C9.20234 40.6266 14.8994 31.8922 13.0916 27.7221L5.66707 27.4648Z" fill="#263238"/>
<path d="M13.7242 64.4743L10.2432 67.1057L11.3004 68.1843L14.5903 65.7723L13.7242 64.4743Z" fill="#F7C06E"/>
<path d="M12.4851 70.8463C12.3429 70.963 12.1682 71.0331 11.9848 71.0469C11.9347 71.0448 11.8858 71.0313 11.8417 71.0076C11.7975 70.9839 11.7593 70.9506 11.7299 70.91C11.7119 70.8879 11.7 70.8614 11.6954 70.8333C11.6909 70.8051 11.6938 70.7762 11.7039 70.7496C11.8125 70.4687 12.7919 70.2776 12.9878 70.2516C12.9984 70.2494 13.0095 70.2507 13.0193 70.2554C13.0291 70.2601 13.0371 70.2679 13.042 70.2776C13.0484 70.287 13.0519 70.2981 13.0519 70.3094C13.0519 70.3208 13.0484 70.3319 13.042 70.3413C12.8737 70.5278 12.6871 70.697 12.4851 70.8463ZM11.8668 70.7C11.8355 70.7196 11.8103 70.7473 11.7936 70.7802C11.7886 70.7884 11.786 70.7978 11.786 70.8074C11.786 70.817 11.7886 70.8264 11.7936 70.8345C11.8141 70.8627 11.8406 70.886 11.8712 70.9028C11.9019 70.9195 11.9358 70.9292 11.9706 70.9313C12.1641 70.9313 12.478 70.7354 12.8226 70.3814C12.4896 70.4381 12.1672 70.5456 11.8668 70.7Z" fill="#F7C06E"/>
<path d="M13.0255 70.3484H13.0066C12.6904 70.4215 11.9163 70.3672 11.803 70.136C11.7771 70.084 11.77 70.0038 11.8738 69.9C12.275 69.5365 13.0019 70.2162 13.0326 70.2445C13.0395 70.2516 13.0444 70.2603 13.0469 70.2698C13.0493 70.2793 13.0493 70.2893 13.0467 70.2988C13.0484 70.3082 13.0472 70.3179 13.0435 70.3267C13.0397 70.3355 13.0335 70.343 13.0255 70.3484ZM11.9706 69.9778L11.9423 70.0014C11.8998 70.0392 11.8856 70.0722 11.8974 70.0958C11.9635 70.2304 12.5252 70.3082 12.8721 70.2705C12.6833 70.1147 12.2349 69.7914 11.9706 69.9778Z" fill="#F7C06E"/>
<path d="M6.53575 15.3085C6.24381 15.3017 5.96007 15.4053 5.74129 15.5987C5.5225 15.7921 5.38481 16.061 5.35575 16.3516C5.31563 16.7764 5.26607 17.2035 5.20943 17.6213C5.10323 18.4048 4.97343 19.1859 4.81767 19.9529C4.66191 20.7199 4.46131 21.4775 4.23003 22.2115C4.11439 22.5796 3.97987 22.936 3.83827 23.2876C3.76747 23.4623 3.6888 23.6345 3.60227 23.8045C3.56687 23.8894 3.52203 23.9697 3.48191 24.0546V24.0711L3.37807 24.057C3.20579 24.0239 2.80931 23.9154 2.46475 23.821C2.34908 23.7913 2.22666 23.8031 2.11883 23.8544C2.011 23.9058 1.92462 23.9933 1.87475 24.1018L1.57031 24.7697C1.52002 24.8741 1.50735 24.9927 1.53444 25.1054C1.56153 25.218 1.62673 25.3179 1.71899 25.388C2.06216 25.6685 2.4509 25.888 2.86831 26.037C3.18113 26.1296 3.50919 26.1592 3.83354 26.1243C4.30774 26.0687 4.74139 25.8299 5.04186 25.4588C5.11163 25.3716 5.17474 25.2794 5.23067 25.1827L5.31327 25.0364C5.36755 24.9349 5.42655 24.8381 5.47611 24.7367C5.57995 24.5384 5.68143 24.3378 5.77347 24.1349C5.96227 23.7313 6.13455 23.323 6.28559 22.9124C6.58893 22.0982 6.83806 21.2649 7.03135 20.4179C7.22723 19.5801 7.39007 18.7399 7.50335 17.8974C7.56235 17.4513 7.61427 17.0147 7.65675 16.5711C7.67099 16.4135 7.65282 16.2547 7.60337 16.1045C7.55391 15.9542 7.47423 15.8157 7.36921 15.6974C7.26419 15.5791 7.13606 15.4836 6.99272 15.4167C6.84938 15.3498 6.69386 15.313 6.53575 15.3085Z" fill="#FF8B7B"/>
<path d="M12.1029 76.3971L9.82788 76.3239L9.80664 71.0658L12.084 71.1366L12.1029 76.3971Z" fill="#FF8B7B"/>
<path d="M9.81057 75.4318L12.3806 75.3846C12.4243 75.3831 12.4669 75.398 12.5001 75.4264C12.5333 75.4548 12.5547 75.4947 12.56 75.538L12.8385 77.5417C12.8427 77.5932 12.8362 77.645 12.8196 77.6939C12.803 77.7429 12.7765 77.7879 12.7417 77.8261C12.707 77.8644 12.6648 77.8952 12.6177 77.9165C12.5706 77.9377 12.5196 77.9491 12.4679 77.9499C11.5735 77.9499 11.1416 77.9075 10.0135 77.9287C9.31733 77.9405 7.78097 78.0679 6.82045 78.0868C5.85993 78.1057 5.81745 77.1664 6.21865 77.0744C8.01225 76.6614 8.81466 76.0903 9.42826 75.5781C9.53558 75.4877 9.67029 75.4361 9.81057 75.4318Z" fill="#263238"/>
<path opacity="0.2" d="M12.084 71.139L9.80664 71.0682L9.81844 73.7775L12.0958 73.8506L12.084 71.139Z" fill="black"/>
<path d="M7.68066 27.5757C7.68066 27.5757 8.44766 42.4201 8.1975 51.2749C9.0707 58.6215 9.29018 72.5149 9.29018 72.5149L12.429 72.352C12.429 72.352 13.9889 56.2191 13.2125 50.9445C14.9306 41.1434 17.5738 32.081 14.8999 27.8519L7.68066 27.5757Z" fill="#263238"/>
<path d="M8.90218 73.1686L12.8528 73.1143L13.0912 71.5567L8.65674 71.7479L8.90218 73.1686Z" fill="#F7C06E"/>
<path d="M8.62242 75.7528L8.59174 75.7315C8.55408 75.6958 8.52627 75.651 8.51097 75.6014C8.49568 75.5518 8.49342 75.4991 8.50442 75.4483C8.50865 75.4155 8.52102 75.3843 8.54039 75.3575C8.55976 75.3308 8.58553 75.3092 8.61534 75.2949C8.88202 75.1722 9.55934 75.6017 9.64902 75.6513C9.65827 75.6566 9.66557 75.6647 9.66982 75.6745C9.67407 75.6843 9.67506 75.6952 9.67263 75.7056C9.67058 75.716 9.66577 75.7256 9.65871 75.7335C9.65165 75.7414 9.6426 75.7472 9.6325 75.7504C9.34694 75.8212 8.85134 75.9133 8.62242 75.7528ZM9.4791 75.6749C9.19826 75.5121 8.79942 75.328 8.65782 75.3917C8.64505 75.3982 8.6342 75.408 8.62633 75.42C8.61847 75.432 8.61387 75.4458 8.61298 75.4601C8.60416 75.4939 8.60454 75.5295 8.61408 75.5631C8.62363 75.5967 8.64199 75.6272 8.66726 75.6513C8.78054 75.7528 9.08026 75.7622 9.4791 75.6749Z" fill="#F7C06E"/>
<path d="M9.54174 75.7126C9.31754 75.5569 8.96591 75.1274 9.01547 74.889C9.02565 74.8473 9.04911 74.81 9.0823 74.7828C9.1155 74.7555 9.15664 74.7398 9.19955 74.738C9.24132 74.7303 9.2843 74.7322 9.3252 74.7437C9.36611 74.7551 9.40385 74.7758 9.43555 74.8041C9.67155 75.0188 9.67155 75.6678 9.67155 75.6961C9.6717 75.7056 9.66939 75.7149 9.66483 75.7232C9.66028 75.7315 9.65364 75.7384 9.64558 75.7433C9.63726 75.7479 9.62793 75.7503 9.61844 75.7503C9.60896 75.7503 9.59962 75.7479 9.5913 75.7433C9.57377 75.7348 9.55716 75.7246 9.54174 75.7126ZM9.33879 74.8725C9.30167 74.8467 9.25589 74.8365 9.21134 74.8442C9.1429 74.8442 9.12874 74.8843 9.12166 74.9079C9.08862 75.0636 9.34586 75.4271 9.56298 75.5946C9.55118 75.3775 9.50398 75.0141 9.3553 74.8866L9.33879 74.8725Z" fill="#F7C06E"/>
<path d="M15.6045 27.8472C15.9302 23.5803 16.4234 18.8579 16.9757 16.0802C17.027 15.8175 17.0251 15.5472 16.9702 15.2853C16.9153 15.0233 16.8084 14.775 16.656 14.555C16.5035 14.3351 16.3086 14.1478 16.0826 14.0045C15.8566 13.8611 15.6042 13.7644 15.3402 13.7202C14.9862 13.6612 14.6062 13.6046 14.2168 13.5574C14.0115 13.5338 13.8086 13.5102 13.6009 13.4913C12.2095 13.3356 10.8089 13.2788 9.40951 13.3214C9.17351 13.3332 8.92335 13.3497 8.68027 13.3709C8.39471 13.3922 8.10915 13.4205 7.83303 13.4512C6.99084 13.5401 6.20539 13.9177 5.61001 14.52C5.01463 15.1223 4.64604 15.912 4.56679 16.7552C4.39215 18.7305 4.39215 22.0132 4.90191 27.4578C4.91843 28.8124 3.17439 33.7188 2.32715 39.4938C3.52839 39.8218 7.20055 39.8926 9.31983 39.7534C11.4391 39.6141 14.9697 41.7287 15.6045 41.0466C16.2394 40.3646 16.4754 30.8514 15.6045 27.8472Z" fill="#F7C06E"/>
<path opacity="0.3" d="M16.4548 15.5751C16.287 15.5446 16.1151 15.5446 15.9474 15.5751L15.8459 15.594C15.4921 15.6651 15.1789 15.8686 14.9701 16.1629C14.7613 16.4573 14.6728 16.8202 14.7225 17.1776C14.7674 17.567 14.7981 17.9233 14.824 18.2679C14.8901 19.0774 14.9231 19.7924 14.9161 20.4414C14.9161 21.1494 14.8972 21.8834 14.8193 22.615C14.8193 22.7212 14.7981 22.8298 14.7839 22.9407C14.7697 23.0516 14.7603 23.1059 14.7532 23.1908C14.7343 23.3513 14.7037 23.5165 14.6801 23.6628C14.6683 23.7289 14.6565 23.795 14.6423 23.8611C14.6258 23.972 14.6045 24.0806 14.5857 24.1679L14.5408 24.352L14.47 24.5549C14.3607 24.8377 14.2264 25.1102 14.0688 25.3691C13.9209 25.6027 13.862 25.8816 13.9027 26.155C13.9434 26.4284 14.0811 26.678 14.2907 26.8583L14.4983 27.0306C14.6567 27.1642 14.8488 27.2517 15.0535 27.2838C15.2582 27.3158 15.4678 27.2911 15.6595 27.2123C15.9828 23.12 16.4548 18.7163 16.9811 16.0707C17.0001 15.9774 17.0111 15.8827 17.0141 15.7875C16.8443 15.679 16.6539 15.6066 16.4548 15.5751Z" fill="black"/>
<path opacity="0.2" d="M4.07909 33.2846L3.44425 33.8109C3.33805 34.2451 3.23421 34.6982 3.13037 35.1631C4.02009 35.8971 7.09753 36.7845 7.67337 36.2818C6.47449 34.854 4.07909 33.2846 4.07909 33.2846Z" fill="black"/>
<path d="M9.41026 13.3166C9.41026 13.3166 7.9565 13.7367 8.57954 15.9999C8.65688 16.2703 8.79745 16.5185 8.98966 16.7238C9.18186 16.9291 9.42017 17.0857 9.68488 17.1807C9.94959 17.2757 10.2331 17.3064 10.512 17.2701C10.7909 17.2339 11.0572 17.1318 11.2888 16.9723C13.6984 15.3391 13.604 13.4889 13.604 13.4889L9.41026 13.3166Z" fill="white"/>
<path d="M13.1531 10.5955C13.0162 11.7236 13.0516 12.9036 13.6038 13.4889C13.6038 13.4889 13.297 14.7727 11.4491 16.007C10.2573 16.8023 8.60297 15.9079 8.70681 14.4801C8.71462 14.2416 8.78391 14.0092 8.90796 13.8053C9.032 13.6015 9.20658 13.4332 9.41481 13.3166C10.9441 13.0193 11.0432 12.0257 10.7506 10.3501L11.9801 9.93947C12.093 9.85012 12.2298 9.79629 12.3733 9.78482C12.5168 9.77334 12.6605 9.80473 12.7861 9.875C12.9118 9.94527 13.0137 10.0513 13.079 10.1795C13.1444 10.3078 13.1701 10.4526 13.1531 10.5955Z" fill="#FF8B7B"/>
<path opacity="0.2" d="M11.9752 9.93945C12.0811 9.85496 12.2085 9.80176 12.343 9.78583C12.4776 9.76991 12.6139 9.7919 12.7366 9.84932C12.8593 9.90675 12.9635 9.99732 13.0375 10.1108C13.1114 10.2243 13.1522 10.3562 13.1552 10.4917C12.5647 11.2694 11.7488 11.8462 10.8188 12.1437C10.9061 11.5441 10.8813 10.9335 10.7456 10.343L11.9752 9.93945Z" fill="black"/>
<path d="M14.4254 5.68909C14.5033 7.96413 14.5836 8.92465 13.5735 10.2179C12.0513 12.1602 9.29244 11.8156 8.54904 9.62085C7.88116 7.64789 7.867 4.25657 9.96504 3.10017C12.0631 1.94377 14.3499 3.41169 14.4254 5.68909Z" fill="#FF8B7B"/>
<path d="M12.4046 3.01993C10.965 3.92853 13.1857 6.70625 14.4554 7.45909C15.7251 8.21193 15.9611 4.77577 15.3994 4.04417C14.8377 3.31257 13.7875 2.14909 12.4046 3.01993Z" fill="#263238"/>
<path d="M13.2185 2.85946C13.6032 4.12206 9.59121 5.1935 7.88965 5.0283C7.96281 2.95386 10.8869 0.933695 13.2185 2.85946Z" fill="#263238"/>
<path d="M15.1376 7.95236C14.9584 8.35582 14.6304 8.67455 14.2219 8.84207C13.6815 9.05919 13.3652 8.59192 13.4762 8.05148C13.5753 7.56296 13.9765 6.87148 14.5382 6.87148C15.0998 6.87148 15.3524 7.45204 15.1376 7.95236Z" fill="#FF8B7B"/>
<path d="M10.7053 6.74401C10.7242 6.92809 10.6416 7.08857 10.5236 7.10273C10.4056 7.11689 10.2876 6.98001 10.2876 6.79593C10.2876 6.61185 10.3513 6.45137 10.4693 6.43721C10.5873 6.42305 10.6864 6.56937 10.7053 6.74401Z" fill="#263238"/>
<path d="M8.66373 6.99418C8.68025 7.17826 8.60001 7.33874 8.47965 7.3529C8.35929 7.36706 8.24365 7.23018 8.24365 7.0461C8.24365 6.86202 8.30738 6.70154 8.42538 6.68738C8.54338 6.67322 8.64485 6.81246 8.66373 6.99418Z" fill="#263238"/>
<path d="M8.47045 6.69209L8.02441 6.61421C8.02441 6.61421 8.27929 6.93517 8.47045 6.69209Z" fill="#263238"/>
<path d="M9.552 7.30571C9.37679 7.72794 9.14582 8.12481 8.86523 8.48571C8.95606 8.55419 9.06111 8.6014 9.17261 8.62386C9.28412 8.64633 9.39926 8.64347 9.50952 8.61551L9.552 7.30571Z" fill="#FF5652"/>
<path d="M10.4511 9.15594C10.4409 9.15345 10.4317 9.14776 10.4249 9.1397C10.4181 9.13163 10.4141 9.12161 10.4134 9.1111C10.412 9.09679 10.4161 9.08249 10.4248 9.07109C10.4336 9.0597 10.4464 9.05206 10.4606 9.04974C10.6885 9.02634 10.9078 8.95018 11.1011 8.82728C11.2945 8.70439 11.4565 8.53815 11.5745 8.34174C11.5777 8.33538 11.5822 8.32972 11.5876 8.32509C11.5931 8.32046 11.5994 8.31695 11.6062 8.31475C11.613 8.31256 11.6201 8.31173 11.6272 8.31231C11.6343 8.31289 11.6413 8.31487 11.6476 8.31814C11.6601 8.3251 11.6693 8.33668 11.6732 8.35036C11.6772 8.36405 11.6756 8.37876 11.6689 8.3913C11.544 8.60439 11.3705 8.78495 11.1626 8.91825C10.9546 9.05154 10.7181 9.13379 10.4724 9.1583L10.4511 9.15594Z" fill="#263238"/>
<path d="M11.7718 5.78584C11.7543 5.78011 11.7387 5.76946 11.727 5.75516C11.6397 5.65559 11.53 5.57819 11.4069 5.52936C11.2838 5.48053 11.1508 5.46167 11.019 5.47432C11.0053 5.47704 10.9913 5.47698 10.9776 5.47415C10.964 5.47132 10.9511 5.46578 10.9396 5.45785C10.9282 5.44993 10.9184 5.43978 10.911 5.42801C10.9036 5.41625 10.8986 5.4031 10.8963 5.38936C10.892 5.36101 10.8986 5.3321 10.9148 5.30845C10.9311 5.2848 10.9556 5.26817 10.9836 5.26192C11.1514 5.23983 11.322 5.25974 11.4802 5.31988C11.6384 5.38002 11.7791 5.4785 11.8898 5.60648C11.9096 5.62713 11.9206 5.6546 11.9206 5.68318C11.9206 5.71176 11.9096 5.73924 11.8898 5.75988C11.8746 5.7749 11.8555 5.78531 11.8346 5.78991C11.8137 5.7945 11.792 5.79309 11.7718 5.78584Z" fill="#263238"/>
<path d="M7.67261 5.85902L7.65845 5.8425C7.6438 5.81782 7.63906 5.7885 7.64519 5.76046C7.65133 5.73243 7.66787 5.70776 7.69149 5.69146C7.82895 5.59155 7.98869 5.52666 8.15688 5.5024C8.32507 5.47813 8.49664 5.49523 8.65673 5.55222C8.66977 5.55808 8.68152 5.56646 8.69131 5.57688C8.7011 5.5873 8.70873 5.59955 8.71378 5.61292C8.71882 5.6263 8.72117 5.64054 8.7207 5.65483C8.72022 5.66911 8.71693 5.68316 8.71101 5.69618C8.7056 5.70905 8.6977 5.72072 8.68777 5.73054C8.67784 5.74035 8.66607 5.74811 8.65313 5.75337C8.6402 5.75863 8.62636 5.76129 8.6124 5.7612C8.59844 5.7611 8.58463 5.75825 8.57177 5.75282C8.44406 5.70971 8.30782 5.69814 8.17467 5.7191C8.04152 5.74006 7.91542 5.79292 7.80713 5.87318C7.78655 5.88682 7.76187 5.89287 7.73732 5.89028C7.71277 5.8877 7.68989 5.87664 7.67261 5.85902Z" fill="#263238"/>
<path d="M10.5144 6.45137L10.0684 6.37349C10.0684 6.37349 10.3232 6.69209 10.5144 6.45137Z" fill="#263238"/>
<path d="M4.49145 21.2746C4.47729 22.6245 1.61461 23.3159 1.01045 28.4041C0.406294 33.4923 6.91045 38.1037 11.1585 36.4399C15.4065 34.7761 11.8665 25.8199 11.8665 25.8199C11.8665 25.8199 4.51033 19.2332 4.49145 21.2746Z" fill="#F7C06E"/>
<path d="M4.51962 17.3923C4.47714 19.0821 3.83286 19.3299 3.66294 20.7624C3.49302 22.1949 5.31494 23.4906 6.51618 23.0233C7.71742 22.556 6.71678 20.0379 6.71678 20.0379C6.71678 20.0379 4.53378 16.8189 4.51962 17.3923Z" fill="#F7C06E"/>
<path d="M4.19464 23.6157L3.135 23.0894L2.604 25.0859C3.09443 25.0172 3.56263 24.8372 3.9728 24.5597L4.19464 23.6157Z" fill="#FF8B7B"/>
<path d="M2.13175 23.854L1.71875 25.1072L2.61083 25.0859L3.14183 23.0894L2.13175 23.854Z" fill="#FF8B7B"/>
<path d="M15.1826 14.4447C15.3254 14.3829 15.4795 14.3512 15.6351 14.3517C15.7908 14.3521 15.9446 14.3847 16.0871 14.4474C16.2295 14.5101 16.3575 14.6016 16.463 14.716C16.5685 14.8305 16.6492 14.9655 16.7001 15.1126C16.8275 15.4925 16.9502 15.8749 17.0611 16.2595C17.2783 17.0289 17.4623 17.8101 17.6063 18.603C17.7544 19.4016 17.8513 20.2088 17.8966 21.0197C17.9131 21.2226 17.9107 21.4303 17.9202 21.6356C17.9296 21.8409 17.9202 22.0463 17.9202 22.2539C17.9202 22.4616 17.9202 22.6575 17.9013 22.8864L17.8682 23.2522L17.8069 23.6039C17.6127 24.4851 17.2721 25.3275 16.7992 26.096C16.3583 26.8083 15.8586 27.4825 15.3053 28.1115C14.7601 28.7321 14.1867 29.3103 13.5943 29.8649C12.9921 30.414 12.3619 30.9315 11.7063 31.4155L10.9771 30.5446C11.5033 30.0113 12.0438 29.4425 12.537 28.8596C13.0302 28.2767 13.5188 27.6914 13.953 27.0801C14.3855 26.4853 14.7728 25.859 15.1118 25.2063C15.2698 24.9003 15.4093 24.585 15.5295 24.2623C15.6349 23.959 15.7139 23.6471 15.7655 23.3301L15.7938 23.1083V22.8935C15.7938 22.7354 15.7938 22.5395 15.7796 22.3649C15.7655 22.1902 15.7796 22.0368 15.7537 21.874C15.7277 21.7111 15.7277 21.4822 15.6994 21.2863C15.6215 20.5642 15.4823 19.8467 15.3383 19.1269C15.1944 18.4071 15.0008 17.6968 14.7861 17.0029C14.6846 16.6489 14.5737 16.2949 14.4581 15.948V15.9291C14.3623 15.6584 14.3732 15.3614 14.4885 15.0984C14.6037 14.8355 14.8148 14.6262 15.0787 14.5131L15.1826 14.4447Z" fill="#FF8B7B"/>
<path d="M17.8894 18.5653C17.7478 17.7912 17.5637 16.9935 17.3372 16.1911C17.2286 15.8206 17.0233 15.3533 16.8652 14.9356C16.7784 14.6644 16.6018 14.4309 16.3646 14.2735C16.1274 14.1161 15.8437 14.0441 15.5601 14.0695C15.3901 14.0784 15.2231 14.1176 15.0669 14.1851L14.9725 14.2276C14.6415 14.3703 14.3775 14.6338 14.2341 14.9644C14.0907 15.2951 14.0788 15.6679 14.2007 16.007C14.3258 16.3799 14.4367 16.715 14.5288 17.0525C14.7648 17.8337 14.9418 18.5228 15.0739 19.1623C15.2108 19.8562 15.3524 20.5783 15.4303 21.3052C15.4468 21.4138 15.4539 21.5223 15.461 21.6309C15.4681 21.7395 15.4751 21.7985 15.4846 21.8834C15.5011 22.0439 15.5058 22.2091 15.5082 22.3554V22.5537C15.5082 22.6646 15.5082 22.7779 15.5082 22.8675V23.0563L15.4822 23.2687C15.4323 23.5679 15.3573 23.8624 15.258 24.149C15.1439 24.4651 15.0091 24.7734 14.8545 25.0718L17.0304 26.2329C17.5217 25.4427 17.8767 24.5755 18.0806 23.6676L18.1443 23.2923L18.1773 22.9195C18.1773 22.7637 18.1773 22.6268 18.1915 22.4876V22.2823C18.1915 22.0463 18.1915 21.8291 18.1915 21.6403C18.1915 21.5719 18.1915 21.5035 18.1915 21.4327C18.1915 21.2934 18.1915 21.1518 18.1726 21.022C18.1302 20.1979 18.0356 19.3774 17.8894 18.5653Z" fill="#F7C06E"/>
<path d="M8.15918 31.7482L9.37222 33.0368L10.8519 32.3005L9.59878 30.3204L8.15918 31.7482Z" fill="#FF8B7B"/>
<path d="M11.6307 30.0679L9.60107 30.3204L10.8542 32.3005C10.8542 32.3005 11.9587 31.642 12.2584 30.7405L11.6307 30.0679Z" fill="#FF8B7B"/>
</svg>
