<svg width="53" height="73" viewBox="0 0 53 73" fill="none" xmlns="http://www.w3.org/2000/svg">
<path d="M50.4287 62.1731L49.9453 61.9L50.2885 61.7454C50.2885 61.7454 50.5568 61.8179 50.564 61.8299C50.5618 61.8923 50.5553 61.9545 50.5447 62.016L50.4287 62.1731Z" fill="#E0E0E0"/>
<path d="M50.4287 62.1731L49.9453 61.9L50.2885 61.7454C50.2885 61.7454 50.5568 61.8179 50.564 61.8299C50.5618 61.8923 50.5553 61.9545 50.5447 62.016L50.4287 62.1731Z" fill="#F7C06E"/>
<path opacity="0.1" d="M50.4287 62.1731L49.9453 61.9L50.2885 61.7454C50.2885 61.7454 50.5568 61.8179 50.564 61.8299C50.5618 61.8923 50.5553 61.9545 50.5447 62.016L50.4287 62.1731Z" fill="white"/>
<path d="M32.4423 71.2336C32.6565 71.3421 32.8933 71.3986 33.1334 71.3986C33.3736 71.3986 33.6104 71.3421 33.8246 71.2336L49.3257 62.2916L26.1249 48.8931L25.5835 48.5813L10.0824 57.5233C9.70299 57.7433 9.70299 58.1034 10.0824 58.3209L32.4423 71.2336Z" fill="#F7C06E"/>
<path opacity="0.8" d="M32.4423 71.2336C32.6565 71.3421 32.8933 71.3986 33.1334 71.3986C33.3736 71.3986 33.6104 71.3421 33.8246 71.2336L49.3257 62.2916L26.1249 48.8931L25.5835 48.5813L10.0824 57.5233C9.70299 57.7433 9.70299 58.1034 10.0824 58.3209L32.4423 71.2336Z" fill="white"/>
<path d="M38.2653 54.3258L43.6716 57.4362L47.171 55.4158L51.2336 57.7697V60.6964C51.2336 61.0517 50.8348 61.5568 50.6898 61.4746C50.4217 61.5394 50.1609 61.6318 49.9116 61.7501C49.5051 61.9812 49.1278 62.2604 48.7879 62.5815L36.3657 55.411L38.2653 54.3258Z" fill="#E0E0E0"/>
<path d="M38.2653 54.3258L43.6716 57.4362L47.171 55.4158L51.2336 57.7697V60.6964C51.2336 61.0517 50.8348 61.5568 50.6898 61.4746C50.4217 61.5394 50.1609 61.6318 49.9116 61.7501C49.5051 61.9812 49.1278 62.2604 48.7879 62.5815L36.3657 55.411L38.2653 54.3258Z" fill="#F7C06E"/>
<path opacity="0.1" d="M38.2653 54.3258L43.6716 57.4362L47.171 55.4158L51.2336 57.7697V60.6964C51.2336 61.0517 50.8348 61.5568 50.6898 61.4746C50.4217 61.5394 50.1609 61.6318 49.9116 61.7501C49.5051 61.9812 49.1278 62.2604 48.7879 62.5815L36.3657 55.411L38.2653 54.3258Z" fill="white"/>
<path d="M33.8318 71.2311L34.7671 70.6898L48.8012 62.5888C48.8118 62.4056 48.8785 62.2301 48.9922 62.0861C49.1579 61.8658 49.3668 61.6817 49.606 61.5447C49.8062 61.4222 50.0338 61.3516 50.2682 61.3393C50.425 61.3372 50.5781 61.3874 50.7032 61.4819C50.8859 61.1232 50.9749 60.7242 50.9618 60.3219H51.4935C51.4935 61.0469 51.2518 61.7913 50.9546 61.9604L50.6863 62.1175C50.534 62.2045 50.4132 62.2094 50.4132 62.1175V61.9749C50.4132 61.8154 50.1715 61.8227 49.8719 61.9967C49.5722 62.1707 49.3329 62.4365 49.3329 62.596V62.741C49.3329 62.8232 49.1251 63.0069 48.8737 63.1519L35.3012 70.9894L33.8318 71.8353C33.6191 71.9453 33.3825 72.0009 33.1431 71.9972V71.3834C33.382 71.3931 33.6193 71.3407 33.8318 71.2311Z" fill="#F7C06E"/>
<path opacity="0.6" d="M33.8318 71.2311L34.7671 70.6898L48.8012 62.5888C48.8118 62.4056 48.8785 62.2301 48.9922 62.0861C49.1579 61.8658 49.3668 61.6817 49.606 61.5447C49.8062 61.4222 50.0338 61.3516 50.2682 61.3393C50.425 61.3372 50.5781 61.3874 50.7032 61.4819C50.8859 61.1232 50.9749 60.7242 50.9618 60.3219H51.4935C51.4935 61.0469 51.2518 61.7913 50.9546 61.9604L50.6863 62.1175C50.534 62.2045 50.4132 62.2094 50.4132 62.1175V61.9749C50.4132 61.8154 50.1715 61.8227 49.8719 61.9967C49.5722 62.1707 49.3329 62.4365 49.3329 62.596V62.741C49.3329 62.8232 49.1251 63.0069 48.8737 63.1519L35.3012 70.9894L33.8318 71.8353C33.6191 71.9453 33.3825 72.0009 33.1431 71.9972V71.3834C33.382 71.3931 33.6193 71.3407 33.8318 71.2311Z" fill="white"/>
<path d="M9.79346 57.91V58.5359C9.80143 58.6195 9.83103 58.6995 9.87934 58.7682C9.92764 58.8368 9.993 58.8917 10.069 58.9274L30.9667 70.9919L32.4336 71.8377C32.6463 71.9478 32.883 72.0034 33.1224 71.9997V71.3858C32.8814 71.3916 32.6431 71.3341 32.4312 71.2191L31.4983 70.6801L10.069 58.3039C9.99267 58.268 9.9271 58.2127 9.87877 58.1436C9.83044 58.0745 9.80102 57.994 9.79346 57.91Z" fill="#F7C06E"/>
<path opacity="0.1" d="M9.79346 57.91V58.5359C9.80143 58.6195 9.83103 58.6995 9.87934 58.7682C9.92764 58.8368 9.993 58.8917 10.069 58.9274L30.9667 70.9919L32.4336 71.8377C32.6463 71.9478 32.883 72.0034 33.1224 71.9997V71.3858C32.8814 71.3916 32.6431 71.3341 32.4312 71.2191L31.4983 70.6801L10.069 58.3039C9.99267 58.268 9.9271 58.2127 9.87877 58.1436C9.83044 58.0745 9.80102 57.994 9.79346 57.91Z" fill="white"/>
<path d="M33.1338 67.2603V70.8468C33.2938 70.8516 33.4522 70.8141 33.593 70.738L35.2847 69.7568L48.2361 62.2794V58.5382L33.1338 67.2603Z" fill="white"/>
<path d="M10.4692 54.6208V57.3783C10.4777 57.538 10.5237 57.6934 10.6035 57.832C10.6833 57.9705 10.7946 58.0883 10.9284 58.1758L30.9875 69.7521L32.6792 70.7333C32.8202 70.809 32.9785 70.8465 33.1384 70.8421V67.6399L10.4692 54.6208Z" fill="#F0F0F0"/>
<path d="M48.248 62.2746C48.2609 62.0911 48.3292 61.9158 48.4438 61.7719C48.6103 61.553 48.819 61.3698 49.0577 61.233C49.2563 61.1086 49.4834 61.0371 49.7174 61.0252C49.8749 61.0239 50.0284 61.074 50.1549 61.1678V57.4339L48.2529 58.5335L48.248 62.2746Z" fill="#455A64"/>
<path d="M49.0093 61.2644C48.7891 61.3945 48.5969 61.567 48.4438 61.7719C48.3292 61.9158 48.2609 62.091 48.248 62.2746V58.7074H49.0069L49.0093 61.2644Z" fill="#F5F5F5"/>
<path d="M26.1245 44.5042L49.3254 57.9027V58.2144C49.3254 58.386 49.5671 58.4561 49.8643 58.2773C50.1616 58.0984 50.4057 57.8906 50.4057 57.5933L50.4347 57.2985L26.7915 43.6486L26.6973 43.593C26.6726 43.6367 26.6585 43.6855 26.6562 43.7356V43.8806C26.661 44.0595 26.4218 44.3374 26.1245 44.5042Z" fill="#F7C06E"/>
<path opacity="0.6" d="M26.1245 44.5042L49.3254 57.9027V58.2144C49.3254 58.386 49.5671 58.4561 49.8643 58.2773C50.1616 58.0984 50.4057 57.8906 50.4057 57.5933L50.4347 57.2985L26.7915 43.6486L26.6973 43.593C26.6726 43.6367 26.6585 43.6855 26.6562 43.7356V43.8806C26.661 44.0595 26.4218 44.3374 26.1245 44.5042Z" fill="white"/>
<path d="M33.8359 66.8617L48.9938 58.1082C49.1848 58.0091 49.3612 57.9269 49.4361 57.9656L49.337 57.91L26.1362 44.5115L25.8655 44.3544C25.7439 44.3198 25.6163 44.3116 25.4912 44.3304C25.3662 44.3491 25.2466 44.3944 25.1405 44.4632L10.101 53.149C9.72155 53.3689 9.72155 53.7266 10.101 53.9465L32.4656 66.8617C32.6783 66.9682 32.9129 67.0237 33.1508 67.0237C33.3887 67.0237 33.6233 66.9682 33.8359 66.8617Z" fill="#F7C06E"/>
<path opacity="0.8" d="M33.8359 66.8617L48.9938 58.1082C49.1848 58.0091 49.3612 57.9269 49.4361 57.9656L49.337 57.91L26.1362 44.5115L25.8655 44.3544C25.7439 44.3198 25.6163 44.3116 25.4912 44.3304C25.3662 44.3491 25.2466 44.3944 25.1405 44.4632L10.101 53.149C9.72155 53.3689 9.72155 53.7266 10.101 53.9465L32.4656 66.8617C32.6783 66.9682 32.9129 67.0237 33.1508 67.0237C33.3887 67.0237 33.6233 66.9682 33.8359 66.8617Z" fill="white"/>
<path d="M26.6982 43.6003L26.7925 43.6559L50.4356 57.313C50.4476 57.2878 50.4649 57.2655 50.4864 57.2477L50.5661 57.2018L50.7377 57.1052L50.948 56.9819C50.9888 56.9548 51.0376 56.9424 51.0864 56.9468C51.1351 56.9512 51.181 56.9721 51.2162 57.0061C51.2262 57.0127 51.2352 57.0209 51.2428 57.0302C51.2713 57.0593 51.295 57.0928 51.3129 57.1293C51.3386 57.1712 51.3597 57.2158 51.3757 57.2622C51.3943 57.312 51.4096 57.3628 51.4217 57.4145C51.4362 57.4749 51.4458 57.5329 51.4579 57.5958C51.4645 57.6317 51.4685 57.668 51.47 57.7045C51.47 57.7335 51.47 57.7601 51.47 57.7939C51.47 57.8278 51.47 57.9293 51.47 57.9993V57.3347C51.445 57.1164 51.3695 56.9069 51.2496 56.7227C51.1296 56.5386 50.9684 56.3849 50.7788 56.2738L28.4117 43.3586C28.2275 43.2499 28.0205 43.1852 27.8071 43.1697C27.5937 43.1542 27.3796 43.1882 27.1816 43.2692L26.8988 43.4336L26.778 43.5012C26.743 43.5265 26.7155 43.5608 26.6982 43.6003Z" fill="#F7C06E"/>
<path opacity="0.8" d="M26.6982 43.6003L26.7925 43.6559L50.4356 57.313C50.4476 57.2878 50.4649 57.2655 50.4864 57.2477L50.5661 57.2018L50.7377 57.1052L50.948 56.9819C50.9888 56.9548 51.0376 56.9424 51.0864 56.9468C51.1351 56.9512 51.181 56.9721 51.2162 57.0061C51.2262 57.0127 51.2352 57.0209 51.2428 57.0302C51.2713 57.0593 51.295 57.0928 51.3129 57.1293C51.3386 57.1712 51.3597 57.2158 51.3757 57.2622C51.3943 57.312 51.4096 57.3628 51.4217 57.4145C51.4362 57.4749 51.4458 57.5329 51.4579 57.5958C51.4645 57.6317 51.4685 57.668 51.47 57.7045C51.47 57.7335 51.47 57.7601 51.47 57.7939C51.47 57.8278 51.47 57.9293 51.47 57.9993V57.3347C51.445 57.1164 51.3695 56.9069 51.2496 56.7227C51.1296 56.5386 50.9684 56.3849 50.7788 56.2738L28.4117 43.3586C28.2275 43.2499 28.0205 43.1852 27.8071 43.1697C27.5937 43.1542 27.3796 43.1882 27.1816 43.2692L26.8988 43.4336L26.778 43.5012C26.743 43.5265 26.7155 43.5608 26.6982 43.6003Z" fill="white"/>
<path d="M33.8339 66.864L34.7716 66.3202L45.5528 60.0995L48.9942 58.1129C49.2359 57.9679 49.4389 57.9172 49.451 57.9921V58.1467C49.451 58.3208 49.6927 58.3208 49.9899 58.1467C50.1001 58.0988 50.1967 58.0243 50.271 57.9298C50.3452 57.8353 50.3948 57.7238 50.4153 57.6054V57.4362C50.4117 57.3985 50.4171 57.3605 50.431 57.3252C50.4448 57.2899 50.4668 57.2584 50.495 57.2332L50.5748 57.1873L50.7464 57.0906L50.9566 56.9674C50.9974 56.9403 51.0462 56.9279 51.095 56.9323C51.1438 56.9367 51.1896 56.9576 51.2249 56.9915C51.2349 56.9982 51.2439 57.0064 51.2515 57.0157C51.2695 57.0346 51.2849 57.0557 51.2974 57.0785C51.3076 57.089 51.3158 57.1013 51.3216 57.1148C51.3473 57.1567 51.3683 57.2013 51.3844 57.2477C51.4029 57.2974 51.4182 57.3483 51.4303 57.4C51.4448 57.4604 51.4545 57.5184 51.4666 57.5812C51.4731 57.6171 51.4772 57.6535 51.4787 57.69C51.4787 57.719 51.4787 57.7456 51.4787 57.7794C51.4787 57.8132 51.4787 57.9147 51.4787 57.9848V60.3146H50.947V57.9848C50.947 57.9292 50.947 57.8737 50.947 57.8205L50.9325 57.6876C50.9336 57.6836 50.9336 57.6794 50.9325 57.6755C50.8841 58.0984 50.4805 58.4754 50.1301 58.6736C49.9355 58.7964 49.7123 58.8664 49.4824 58.8766C49.3051 58.8789 49.1332 58.8161 48.9991 58.7002L48.9507 58.7268L48.8589 58.7824L35.2864 66.6199L33.8339 67.4754C33.6246 67.5825 33.3923 67.6364 33.1572 67.6325V67.0187C33.3921 67.0236 33.6245 66.9705 33.8339 66.864Z" fill="#F7C06E"/>
<path opacity="0.6" d="M33.8339 66.864L34.7716 66.3202L45.5528 60.0995L48.9942 58.1129C49.2359 57.9679 49.4389 57.9172 49.451 57.9921V58.1467C49.451 58.3208 49.6927 58.3208 49.9899 58.1467C50.1001 58.0988 50.1967 58.0243 50.271 57.9298C50.3452 57.8353 50.3948 57.7238 50.4153 57.6054V57.4362C50.4117 57.3985 50.4171 57.3605 50.431 57.3252C50.4448 57.2899 50.4668 57.2584 50.495 57.2332L50.5748 57.1873L50.7464 57.0906L50.9566 56.9674C50.9974 56.9403 51.0462 56.9279 51.095 56.9323C51.1438 56.9367 51.1896 56.9576 51.2249 56.9915C51.2349 56.9982 51.2439 57.0064 51.2515 57.0157C51.2695 57.0346 51.2849 57.0557 51.2974 57.0785C51.3076 57.089 51.3158 57.1013 51.3216 57.1148C51.3473 57.1567 51.3683 57.2013 51.3844 57.2477C51.4029 57.2974 51.4182 57.3483 51.4303 57.4C51.4448 57.4604 51.4545 57.5184 51.4666 57.5812C51.4731 57.6171 51.4772 57.6535 51.4787 57.69C51.4787 57.719 51.4787 57.7456 51.4787 57.7794C51.4787 57.8132 51.4787 57.9147 51.4787 57.9848V60.3146H50.947V57.9848C50.947 57.9292 50.947 57.8737 50.947 57.8205L50.9325 57.6876C50.9336 57.6836 50.9336 57.6794 50.9325 57.6755C50.8841 58.0984 50.4805 58.4754 50.1301 58.6736C49.9355 58.7964 49.7123 58.8664 49.4824 58.8766C49.3051 58.8789 49.1332 58.8161 48.9991 58.7002L48.9507 58.7268L48.8589 58.7824L35.2864 66.6199L33.8339 67.4754C33.6246 67.5825 33.3923 67.6364 33.1572 67.6325V67.0187C33.3921 67.0236 33.6245 66.9705 33.8339 66.864Z" fill="white"/>
<path d="M9.79346 53.5405V54.1712C9.80102 54.2552 9.83044 54.3358 9.87877 54.4049C9.9271 54.474 9.99267 54.5292 10.069 54.5652L30.9667 66.6296L32.4336 67.4779C32.6463 67.5879 32.883 67.6436 33.1224 67.6398V67.026C32.8817 67.0312 32.6438 66.9747 32.4312 66.8616L31.4983 66.3227L10.069 53.9465C9.99099 53.9096 9.92431 53.8524 9.87586 53.781C9.82741 53.7096 9.79896 53.6266 9.79346 53.5405Z" fill="#F7C06E"/>
<path opacity="0.1" d="M9.79346 53.5405V54.1712C9.80102 54.2552 9.83044 54.3358 9.87877 54.4049C9.9271 54.474 9.99267 54.5292 10.069 54.5652L30.9667 66.6296L32.4336 67.4779C32.6463 67.5879 32.883 67.6436 33.1224 67.6398V67.026C32.8817 67.0312 32.6438 66.9747 32.4312 66.8616L31.4983 66.3227L10.069 53.9465C9.99099 53.9096 9.92431 53.8524 9.87586 53.781C9.82741 53.7096 9.79896 53.6266 9.79346 53.5405Z" fill="white"/>
<path d="M25.1178 44.4632C25.2239 44.3944 25.3435 44.3491 25.4686 44.3304C25.5936 44.3116 25.7212 44.3198 25.8428 44.3544L26.1135 44.5115C26.4108 44.3375 26.65 44.0596 26.65 43.888V43.743C26.6523 43.6929 26.6664 43.644 26.6911 43.6004C26.7101 43.5611 26.7393 43.5277 26.7757 43.5037L26.8966 43.436L27.1793 43.2717C27.3774 43.1907 27.5915 43.1567 27.8049 43.1722C28.0183 43.1877 28.2252 43.2523 28.4094 43.3611L50.7765 56.2763L50.8007 56.2908L35.0169 65.4044C34.8743 65.4771 34.7165 65.5151 34.5565 65.5151C34.3964 65.5151 34.2386 65.4771 34.0961 65.4044L11.584 52.2789L25.1178 44.4632Z" fill="#263238"/>
<path d="M36.2815 64.0799L35.6846 63.7367C35.8452 63.6808 36.0178 63.6683 36.1848 63.7005C36.3443 63.7826 36.2815 64.0799 36.2815 64.0799Z" fill="#F7C06E"/>
<path opacity="0.7" d="M36.2815 64.0799L35.6846 63.7367C35.8452 63.6808 36.0178 63.6683 36.1848 63.7005C36.3443 63.7826 36.2815 64.0799 36.2815 64.0799Z" fill="black"/>
<path d="M36.6933 63.7101C36.6254 63.6365 36.543 63.5778 36.4513 63.5376C36.3596 63.4975 36.2605 63.4767 36.1604 63.4767C36.0603 63.4767 35.9612 63.4975 35.8695 63.5376C35.7778 63.5778 35.6954 63.6365 35.6275 63.7101C35.0451 64.2442 35.0161 64.7735 34.7744 64.7662C34.5327 64.759 34.5327 60.5007 34.5327 60.5007L36.831 62.6298L36.6933 63.7101Z" fill="#F7C06E"/>
<path opacity="0.7" d="M36.6933 63.7101C36.6254 63.6365 36.543 63.5778 36.4513 63.5376C36.3596 63.4975 36.2605 63.4767 36.1604 63.4767C36.0603 63.4767 35.9612 63.4975 35.8695 63.5376C35.7778 63.5778 35.6954 63.6365 35.6275 63.7101C35.0451 64.2442 35.0161 64.7735 34.7744 64.7662C34.5327 64.759 34.5327 60.5007 34.5327 60.5007L36.831 62.6298L36.6933 63.7101Z" fill="black"/>
<path d="M12.6671 48.2309L12.6284 48.2091L12.9958 47.9965L28.8207 38.8611L51.879 53.7822C52.2584 54.0021 52.3261 54.3211 52.0288 54.4903L51.4899 54.802L36.6993 63.3549L36.593 63.2776L12.6671 48.2309Z" fill="#F7C06E"/>
<path opacity="0.5" d="M12.6671 48.2309L12.6284 48.2091L12.9958 47.9965L28.8207 38.8611L51.879 53.7822C52.2584 54.0021 52.3261 54.3211 52.0288 54.4903L51.4899 54.802L36.6993 63.3549L36.593 63.2776L12.6671 48.2309Z" fill="black"/>
<path d="M34.7264 58.4851L35.872 58.2434V62.8352C35.1808 63.1301 34.7409 63.4056 34.6636 63.9832L34.7264 58.4851Z" fill="#455A64"/>
<path d="M36.374 62.8957L51.0268 54.4371C51.1611 54.3498 51.2728 54.2321 51.353 54.0935C51.4332 53.955 51.4796 53.7994 51.4884 53.6395V49.1178L36.693 57.7335C36.693 57.7335 36.5166 58.3739 35.9921 58.5745C35.4677 58.7751 35.8689 58.9805 35.8689 58.9805V62.8474C36.3208 62.7821 36.374 62.8957 36.374 62.8957Z" fill="#F0F0F0"/>
<path d="M35.022 58.328C35.1743 58.241 35.2951 58.2362 35.2951 58.328V58.4706C35.2951 58.6301 35.5368 58.6229 35.8364 58.4489C36.1361 58.2749 36.3778 58.009 36.3778 57.8495V57.7045C36.3778 57.6223 36.5832 57.4387 36.8346 57.2937L12.9957 43.6342L12.6259 43.8468C12.5747 43.9012 12.5425 43.9708 12.5341 44.045V44.19C12.5341 44.3495 12.2924 44.6178 11.9951 44.7894C11.6979 44.961 11.4538 44.9706 11.4538 44.8111V44.6661C11.4538 44.5839 11.3329 44.5912 11.1831 44.6782L35.022 58.328Z" fill="#F7C06E"/>
<path opacity="0.6" d="M35.022 58.328C35.1743 58.241 35.2951 58.2362 35.2951 58.328V58.4706C35.2951 58.6301 35.5368 58.6229 35.8364 58.4489C36.1361 58.2749 36.3778 58.009 36.3778 57.8495V57.7045C36.3778 57.6223 36.5832 57.4387 36.8346 57.2937L12.9957 43.6342L12.6259 43.8468C12.5747 43.9012 12.5425 43.9708 12.5341 44.045V44.19C12.5341 44.3495 12.2924 44.6178 11.9951 44.7894C11.6979 44.961 11.4538 44.9706 11.4538 44.8111V44.6661C11.4538 44.5839 11.3329 44.5912 11.1831 44.6782L35.022 58.328Z" fill="black"/>
<path d="M12.6671 43.8589L12.6284 43.8371L12.9958 43.6245L28.8207 34.4891L51.879 47.8055C52.2584 48.0254 52.3261 48.342 52.0288 48.5136L51.4899 48.8229L36.6945 57.7335L12.6671 43.8589Z" fill="#F7C06E"/>
<path opacity="0.5" d="M12.6671 43.8589L12.6284 43.8371L12.9958 43.6245L28.8207 34.4891L51.879 47.8055C52.2584 48.0254 52.3261 48.342 52.0288 48.5136L51.4899 48.8229L36.6945 57.7335L12.6671 43.8589Z" fill="black"/>
<path d="M11.4519 44.5187L35.2859 58.2798L34.4522 58.9323L10.7075 45.2244C10.7654 45.0481 10.8759 44.8938 11.0241 44.7822L11.4519 44.5187Z" fill="#F7C06E"/>
<path opacity="0.5" d="M11.4519 44.5187L35.2859 58.2798L34.4522 58.9323L10.7075 45.2244C10.7654 45.0481 10.8759 44.8938 11.0241 44.7822L11.4519 44.5187Z" fill="black"/>
<path d="M10.7857 51.375C10.771 51.3659 10.7573 51.3553 10.7446 51.3435C10.7337 51.3381 10.7245 51.3298 10.7181 51.3194C10.6985 51.3004 10.6822 51.2783 10.6697 51.2541C10.659 51.245 10.6508 51.2334 10.6455 51.2203C10.6197 51.1788 10.5994 51.1341 10.5851 51.0874C10.5651 51.0371 10.5489 50.9854 10.5368 50.9327C10.5223 50.8747 10.5126 50.8167 10.503 50.7539C10.4946 50.7182 10.4897 50.6817 10.4885 50.6451V50.5557C10.4885 50.4904 10.4885 50.4203 10.4885 50.3503V46.4134C10.4841 46 10.5596 45.5897 10.7108 45.205L34.4554 58.9128L34.5545 65.0804L10.8123 51.3677L10.7857 51.375Z" fill="#F7C06E"/>
<path opacity="0.7" d="M10.7857 51.375C10.771 51.3659 10.7573 51.3553 10.7446 51.3435C10.7337 51.3381 10.7245 51.3298 10.7181 51.3194C10.6985 51.3004 10.6822 51.2783 10.6697 51.2541C10.659 51.245 10.6508 51.2334 10.6455 51.2203C10.6197 51.1788 10.5994 51.1341 10.5851 51.0874C10.5651 51.0371 10.5489 50.9854 10.5368 50.9327C10.5223 50.8747 10.5126 50.8167 10.503 50.7539C10.4946 50.7182 10.4897 50.6817 10.4885 50.6451V50.5557C10.4885 50.4904 10.4885 50.4203 10.4885 50.3503V46.4134C10.4841 46 10.5596 45.5897 10.7108 45.205L34.4554 58.9128L34.5545 65.0804L10.8123 51.3677L10.7857 51.375Z" fill="black"/>
<path opacity="0.79" d="M34.4381 58.9225C34.4381 58.9225 15.7373 50.1714 14.0359 49.3691C12.9121 48.8398 12.3611 49.9515 12.6269 51.1019C12.8686 52.1072 13.8522 53.144 13.8522 53.144L10.795 51.3774C10.7803 51.3683 10.7665 51.3578 10.7539 51.346C10.743 51.3406 10.7338 51.3322 10.7273 51.3218C10.7078 51.3028 10.6915 51.2808 10.679 51.2565C10.6683 51.2474 10.66 51.2358 10.6548 51.2227C10.629 51.1812 10.6086 51.1366 10.5944 51.0898C10.5743 51.0396 10.5582 50.9878 10.5461 50.9351C10.5316 50.8771 10.5219 50.8191 10.5122 50.7563C10.5039 50.7206 10.499 50.6842 10.4977 50.6475V50.5581C10.4977 50.4928 10.4977 50.4228 10.4977 50.3527V46.4134C10.4934 46 10.5689 45.5897 10.7201 45.205L34.4381 58.9225Z" fill="#263238"/>
<path d="M34.2202 60.1236H34.7519C34.7394 59.7217 34.8275 59.3229 35.0081 58.9636C35.1345 59.0573 35.2881 59.1074 35.4455 59.1062C35.6796 59.0942 35.9067 59.0227 36.1053 58.8983C36.3445 58.7624 36.5534 58.579 36.7191 58.3594C36.7318 58.3443 36.7431 58.3281 36.753 58.3111C36.8469 58.1773 36.9013 58.0199 36.9101 57.8567L50.9442 49.7557L51.4275 49.4778L52.0365 49.1274C52.0895 49.1032 52.1349 49.065 52.1677 49.0168C52.2005 48.9687 52.2195 48.9125 52.2226 48.8543V48.2332C52.22 48.2924 52.2013 48.3498 52.1685 48.3992C52.1357 48.4486 52.0901 48.4881 52.0365 48.5135L50.4246 49.4416L36.8545 57.2791C36.6007 57.4241 36.3953 57.6078 36.3953 57.69V57.835C36.3802 57.9268 36.3362 58.0115 36.2696 58.0766C36.1532 58.2167 36.0123 58.3346 35.8539 58.4247C35.5543 58.5987 35.3126 58.6059 35.3126 58.4464V58.3038C35.3126 58.2192 35.1942 58.2265 35.0419 58.3038L34.7737 58.4609C34.4619 58.6542 34.2202 59.3914 34.2202 60.1236Z" fill="#F7C06E"/>
<path d="M34.7492 60.1237V64.0606C34.7492 64.1162 34.7492 64.1718 34.7492 64.2249L34.7613 64.3579C34.7601 64.3618 34.7601 64.366 34.7613 64.3699C34.8096 63.947 35.2132 63.57 35.5636 63.3718C35.759 63.2487 35.9831 63.1788 36.2138 63.1688C36.391 63.1665 36.563 63.2293 36.6971 63.3452L36.743 63.3186L36.8373 63.2631L50.4074 55.4255L51.188 54.976L51.4103 54.8455L52.0677 54.4661C52.1109 54.439 52.1467 54.4017 52.172 54.3574C52.1973 54.3131 52.2113 54.2633 52.2127 54.2123V54.8334C52.2108 54.8815 52.1976 54.9285 52.1741 54.9705C52.1506 55.0125 52.1174 55.0484 52.0773 55.0751C52 55.121 51.9178 55.1645 51.8357 55.2153L51.6834 55.3047L51.4224 55.4545C51.3644 55.4908 51.3112 55.5222 51.2605 55.5488C51.2097 55.5754 51.1807 55.5971 51.1469 55.614L50.9463 55.7324L40.1651 61.9532L36.7237 63.9398C36.482 64.0848 36.2814 64.1355 36.2669 64.0606C36.2661 64.0518 36.2661 64.0428 36.2669 64.034V63.8962C36.2669 63.7222 36.0252 63.7222 35.728 63.8962C35.6178 63.9442 35.5212 64.0187 35.447 64.1132C35.3727 64.2077 35.3231 64.3192 35.3026 64.4376V64.6068C35.3062 64.6445 35.3008 64.6825 35.287 64.7178C35.2731 64.7531 35.2512 64.7846 35.2229 64.8098L35.1431 64.8557L34.974 64.9524L34.7637 65.0756C34.7229 65.1027 34.6741 65.1151 34.6253 65.1107C34.5765 65.1063 34.5307 65.0854 34.4954 65.0515C34.4845 65.046 34.4753 65.0377 34.4689 65.0273C34.4494 65.0092 34.4331 64.9879 34.4205 64.9645C34.4111 64.9542 34.403 64.9428 34.3963 64.9306C34.3705 64.8891 34.3502 64.8445 34.3359 64.7977C34.3155 64.7484 34.2993 64.6975 34.2876 64.6454C34.2731 64.585 34.2634 64.527 34.2538 64.4642C34.2452 64.4285 34.2404 64.3921 34.2393 64.3554C34.2393 64.3264 34.2393 64.2998 34.2393 64.266C34.2393 64.2322 34.2393 64.1307 34.2393 64.0606V60.1237H34.7492Z" fill="#F7C06E"/>
<g opacity="0.6">
<path opacity="0.6" d="M34.2222 60.1237H34.7539C34.7414 59.7217 34.8295 59.323 35.01 58.9636C35.1365 59.0574 35.29 59.1074 35.4475 59.1062C35.6815 59.0943 35.9086 59.0227 36.1072 58.8984C36.3464 58.7624 36.5553 58.579 36.7211 58.3594C36.7337 58.3443 36.7451 58.3281 36.7549 58.3111C36.8488 58.1773 36.9032 58.0199 36.912 57.8567L50.9461 49.7558L51.4295 49.4778L52.0385 49.1274C52.0915 49.1032 52.1369 49.065 52.1697 49.0168C52.2025 48.9687 52.2215 48.9125 52.2246 48.8543V48.2332C52.222 48.2924 52.2033 48.3498 52.1705 48.3992C52.1377 48.4486 52.0921 48.4881 52.0385 48.5136L50.4265 49.4416L36.8564 57.2791C36.6027 57.4241 36.3972 57.6078 36.3972 57.69V57.835C36.3821 57.9269 36.3381 58.0115 36.2716 58.0767C36.1551 58.2168 36.0143 58.3347 35.8559 58.4247C35.5562 58.5987 35.3145 58.6059 35.3145 58.4464V58.3038C35.3145 58.2193 35.1961 58.2265 35.0439 58.3038L34.7756 58.4609C34.4638 58.6543 34.2222 59.3914 34.2222 60.1237Z" fill="black"/>
<path opacity="0.6" d="M34.7555 60.1237V64.0606C34.7555 64.1162 34.7555 64.1718 34.7555 64.225L34.7676 64.3579C34.7665 64.3618 34.7665 64.366 34.7676 64.37C34.816 63.947 35.2196 63.57 35.57 63.3718C35.7653 63.2488 35.9894 63.1788 36.2201 63.1688C36.3974 63.1666 36.5693 63.2293 36.7035 63.3453L36.7494 63.3187L36.8436 63.2631L50.4137 55.4256L51.1943 54.976L51.4167 54.8455L52.074 54.4661C52.1172 54.439 52.1531 54.4017 52.1784 54.3574C52.2037 54.3131 52.2176 54.2633 52.219 54.2123V54.8334C52.2172 54.8816 52.204 54.9286 52.1804 54.9706C52.1569 55.0126 52.1237 55.0484 52.0837 55.0751C52.0063 55.121 51.9242 55.1645 51.842 55.2153L51.6898 55.3047L51.4287 55.4546C51.3707 55.4908 51.3176 55.5222 51.2668 55.5488C51.2161 55.5754 51.1871 55.5971 51.1532 55.6141L50.9526 55.7325L40.1715 61.9532L36.73 63.9398C36.4884 64.0848 36.2878 64.1355 36.2733 64.0606C36.2724 64.0518 36.2724 64.0429 36.2733 64.034V63.8963C36.2733 63.7223 36.0316 63.7223 35.7343 63.8963C35.6241 63.9442 35.5275 64.0188 35.4533 64.1132C35.3791 64.2077 35.3295 64.3192 35.309 64.4376V64.6068C35.3125 64.6445 35.3072 64.6826 35.2933 64.7178C35.2795 64.7531 35.2575 64.7846 35.2292 64.8098L35.1495 64.8557L34.9803 64.9524L34.77 65.0757C34.7293 65.1028 34.6804 65.1152 34.6317 65.1108C34.5829 65.1064 34.5371 65.0855 34.5018 65.0515C34.4908 65.0461 34.4816 65.0377 34.4752 65.0273C34.4557 65.0092 34.4394 64.988 34.4269 64.9645C34.4175 64.9542 34.4093 64.9429 34.4027 64.9307C34.3768 64.8892 34.3565 64.8445 34.3423 64.7977C34.3218 64.7485 34.3057 64.6975 34.2939 64.6455C34.2794 64.5851 34.2698 64.5271 34.2601 64.4642C34.2516 64.4286 34.2467 64.3921 34.2456 64.3555C34.2456 64.3265 34.2456 64.2999 34.2456 64.266C34.2456 64.2322 34.2456 64.1307 34.2456 64.0606V60.1237H34.7555Z" fill="black"/>
</g>
<path d="M10.6934 45.2123L33.261 58.2435L50.3185 48.3952C50.3742 48.3766 50.4227 48.3409 50.457 48.2931C50.4914 48.2454 50.5098 48.1881 50.5098 48.1294C50.5098 48.0706 50.4914 48.0133 50.457 47.9656C50.4227 47.9179 50.3742 47.8822 50.3185 47.8635L27.9877 34.9677L13.0038 43.6245L12.634 43.8396C12.584 43.8936 12.5526 43.9622 12.5446 44.0354V44.1804C12.5446 44.3399 12.3029 44.6082 12.0057 44.7797C11.9906 44.7897 11.9743 44.7978 11.9573 44.8039L11.4595 44.5163L11.2178 44.6517L11.184 44.6686L11.01 44.7701C10.862 44.8819 10.7515 45.0362 10.6934 45.2123Z" fill="#263238"/>
<path d="M49.0624 48.4919L48.3833 48.1294L49.002 47.9819C49.0614 48.0514 49.0989 48.1369 49.1097 48.2277C49.1204 48.3185 49.104 48.4104 49.0624 48.4919Z" fill="#E0E0E0"/>
<g style="mix-blend-mode:multiply" opacity="0.5">
<path d="M49.0624 48.4919L48.3833 48.1294L49.002 47.9819C49.0614 48.0514 49.0989 48.1369 49.1097 48.2277C49.1204 48.3185 49.104 48.4104 49.0624 48.4919Z" fill="#E0E0E0"/>
</g>
<path d="M31.0643 57.5547C31.2781 57.6632 31.5145 57.7197 31.7543 57.7197C31.9941 57.7197 32.2304 57.6632 32.4443 57.5547L47.9453 48.6127L24.7445 33.9454L24.2007 33.6312L8.70205 43.8396C8.32262 44.0595 8.32262 44.4172 8.70205 44.6371L31.0643 57.5547Z" fill="#F7C06E"/>
<path d="M36.8796 39.3734L48.5913 47.31L42.2859 42.4765L45.7854 40.4561L49.8552 42.8124V47.0151C49.8552 47.3728 49.4564 47.8779 49.3114 47.7957C49.0433 47.8606 48.7825 47.9529 48.5332 48.0713C48.1267 48.3024 47.7494 48.5815 47.4095 48.9026L34.9897 40.4609L36.8796 39.3734Z" fill="#F7C06E"/>
<path opacity="0.2" d="M36.8796 39.3734L48.5913 47.31L42.2859 42.4765L45.7854 40.4561L49.8552 42.8124V47.0151C49.8552 47.3728 49.4564 47.8779 49.3114 47.7957C49.0433 47.8606 48.7825 47.9529 48.5332 48.0713C48.1267 48.3024 47.7494 48.5815 47.4095 48.9026L34.9897 40.4609L36.8796 39.3734Z" fill="black"/>
<path d="M31.7485 52.3079V57.1607C31.9091 57.1643 32.068 57.1269 32.2101 57.052L33.9019 56.0708L46.8557 48.5933V43.581L31.7485 52.3079Z" fill="white"/>
<path d="M9.08447 39.6707V43.6994C9.09334 43.859 9.1395 44.0142 9.21925 44.1527C9.299 44.2913 9.41011 44.4091 9.54366 44.4969L29.6027 56.0732L31.2945 57.0544C31.4358 57.129 31.5938 57.1664 31.7537 57.1631V52.6873L9.08447 39.6707Z" fill="#F0F0F0"/>
<path d="M46.8677 48.5934C46.8795 48.41 46.947 48.2347 47.061 48.0907C47.2261 47.8705 47.4352 47.687 47.6749 47.5517C47.8744 47.4274 48.1023 47.3558 48.3371 47.3439C48.4893 47.3285 48.6424 47.3642 48.7721 47.4454V42.4814L46.8701 43.581L46.8677 48.5934Z" fill="#455A64"/>
<path d="M47.6265 47.5807C47.4074 47.7132 47.2155 47.8863 47.061 48.0906C46.947 48.2346 46.8795 48.41 46.8677 48.5933V43.7598H47.6241L47.6265 47.5807Z" fill="#F5F5F5"/>
<path d="M24.7397 29.559L47.9406 42.9599V43.2692C47.9406 43.4432 48.1823 43.5109 48.4795 43.3345C48.7768 43.1581 49.0233 42.9454 49.0233 42.6481L49.0523 42.3533L25.4092 28.7034L25.3125 28.6479C25.2882 28.6924 25.2749 28.7421 25.2738 28.7929V28.9355C25.2763 29.107 25.037 29.385 24.7397 29.559Z" fill="#F7C06E"/>
<path opacity="0.2" d="M24.7397 29.559L47.9406 42.9599V43.2692C47.9406 43.4432 48.1823 43.5109 48.4795 43.3345C48.7768 43.1581 49.0233 42.9454 49.0233 42.6481L49.0523 42.3533L25.4092 28.7034L25.3125 28.6479C25.2882 28.6924 25.2749 28.7421 25.2738 28.7929V28.9355C25.2763 29.107 25.037 29.385 24.7397 29.559Z" fill="black"/>
<path d="M32.4443 51.9091L47.6118 43.158C47.8052 43.0565 47.9816 42.9744 48.0541 43.013L47.955 42.9599L24.7542 29.559L24.4811 29.4043C24.3596 29.3682 24.2317 29.3593 24.1065 29.3781C23.9812 29.3969 23.8616 29.4429 23.756 29.513L8.70205 38.1964C8.32262 38.4164 8.32262 38.7765 8.70205 38.994L31.0691 51.9091C31.2823 52.0168 31.5178 52.0729 31.7567 52.0729C31.9956 52.0729 32.2311 52.0168 32.4443 51.9091Z" fill="#F7C06E"/>
<path d="M25.313 28.6478L25.4097 28.7034L49.0576 42.3533C49.0696 42.3281 49.0869 42.3058 49.1084 42.288L49.1881 42.2445L49.3573 42.1454L49.5676 42.0222C49.6085 41.9955 49.6572 41.9833 49.7059 41.9877C49.7545 41.9921 49.8003 42.0127 49.8358 42.0463C49.8458 42.0531 49.8547 42.0612 49.8624 42.0705C49.8904 42.1006 49.9147 42.1338 49.9349 42.1696C49.9598 42.2116 49.9801 42.2561 49.9953 42.3025C50.0143 42.3531 50.0304 42.4048 50.0437 42.4572C50.0557 42.5152 50.0678 42.5732 50.0775 42.636C50.0849 42.6727 50.0897 42.7098 50.092 42.7472V42.8342C50.092 42.8994 50.092 42.9695 50.092 43.042V42.3774C50.0677 42.1585 49.9926 41.9484 49.8726 41.7637C49.7525 41.5791 49.591 41.4251 49.4008 41.314L27.0337 28.3989C26.8493 28.2904 26.6423 28.226 26.4289 28.2109C26.2154 28.1958 26.0014 28.2304 25.8036 28.3119L25.5208 28.4762L25.4024 28.5463C25.3635 28.571 25.3325 28.6062 25.313 28.6478Z" fill="#F7C06E"/>
<path d="M32.4422 57.5548L33.3775 57.0134L47.4116 48.91C47.4239 48.7268 47.4913 48.5516 47.6049 48.4073C47.7708 48.1879 47.9797 48.0045 48.2188 47.8684C48.4181 47.7458 48.6449 47.6752 48.8786 47.663C49.0363 47.6597 49.1905 47.71 49.316 47.8056C49.4963 47.4452 49.5843 47.0458 49.5722 46.6431H50.1038C50.1038 47.3681 49.8622 48.1125 49.5649 48.2841L49.2967 48.4412C49.1444 48.5282 49.026 48.533 49.026 48.4412V48.2986C49.026 48.1391 48.7843 48.1463 48.4822 48.3179C48.1801 48.4895 47.9433 48.7602 47.9433 48.9197V49.0623C47.9433 49.1444 47.7378 49.3281 47.4841 49.4755L33.9116 57.3131L32.4422 58.1614C32.2295 58.2714 31.9929 58.327 31.7534 58.3233V57.7094C31.9925 57.7176 32.2296 57.6643 32.4422 57.5548Z" fill="#F7C06E"/>
<path opacity="0.4" d="M32.4422 57.5548L33.3775 57.0134L47.4116 48.91C47.4239 48.7268 47.4913 48.5516 47.6049 48.4073C47.7708 48.1879 47.9797 48.0045 48.2188 47.8684C48.4181 47.7458 48.6449 47.6752 48.8786 47.663C49.0363 47.6597 49.1905 47.71 49.316 47.8056C49.4963 47.4452 49.5843 47.0458 49.5722 46.6431H50.1038C50.1038 47.3681 49.8622 48.1125 49.5649 48.2841L49.2967 48.4412C49.1444 48.5282 49.026 48.533 49.026 48.4412V48.2986C49.026 48.1391 48.7843 48.1463 48.4822 48.3179C48.1801 48.4895 47.9433 48.7602 47.9433 48.9197V49.0623C47.9433 49.1444 47.7378 49.3281 47.4841 49.4755L33.9116 57.3131L32.4422 58.1614C32.2295 58.2714 31.9929 58.327 31.7534 58.3233V57.7094C31.9925 57.7176 32.2296 57.6643 32.4422 57.5548Z" fill="black"/>
<path d="M32.4398 51.9116L33.3751 51.3702L44.1563 45.1495L47.6122 43.1581C47.8539 43.0155 48.0569 42.9647 48.0714 43.0397V43.1967C48.0714 43.3683 48.3131 43.3683 48.6103 43.1967C48.7209 43.1486 48.8176 43.0737 48.8919 42.9787C48.9662 42.8838 49.0156 42.7718 49.0357 42.653V42.4838C49.0321 42.4461 49.0375 42.4081 49.0514 42.3728C49.0652 42.3375 49.0872 42.306 49.1154 42.2808L49.1952 42.2373L49.3644 42.1382L49.5746 42.015C49.6156 41.9883 49.6643 41.9761 49.713 41.9805C49.7616 41.9849 49.8074 42.0055 49.8429 42.0391C49.8529 42.0459 49.8618 42.054 49.8695 42.0633C49.8882 42.0829 49.9045 42.1049 49.9178 42.1285C49.927 42.139 49.9351 42.1503 49.942 42.1624C49.9669 42.2044 49.9872 42.2489 50.0024 42.2953C50.0214 42.3459 50.0375 42.3976 50.0507 42.45C50.0628 42.508 50.0749 42.566 50.0846 42.6288C50.0919 42.6655 50.0968 42.7026 50.0991 42.74V42.827C50.0991 42.8922 50.0991 42.9623 50.0991 43.0348V46.631H49.5674V43.0542C49.5674 42.9986 49.5674 42.9406 49.5674 42.8874L49.5553 42.7545C49.507 43.1774 49.1034 43.5544 48.7505 43.7526C48.5563 43.8761 48.3328 43.9461 48.1028 43.9556C47.9256 43.9579 47.7536 43.8951 47.6195 43.7792L47.5736 43.8058L47.4793 43.8614L33.9068 51.6989L32.4374 52.5472C32.2274 52.6545 31.9941 52.7085 31.7583 52.7043V52.0904C31.9969 52.0888 32.2312 52.0273 32.4398 51.9116Z" fill="#F7C06E"/>
<path opacity="0.4" d="M32.4398 51.9116L33.3751 51.3702L44.1563 45.1495L47.6122 43.1581C47.8539 43.0155 48.0569 42.9647 48.0714 43.0397V43.1967C48.0714 43.3683 48.3131 43.3683 48.6103 43.1967C48.7209 43.1486 48.8176 43.0737 48.8919 42.9787C48.9662 42.8838 49.0156 42.7718 49.0357 42.653V42.4838C49.0321 42.4461 49.0375 42.4081 49.0514 42.3728C49.0652 42.3375 49.0872 42.306 49.1154 42.2808L49.1952 42.2373L49.3644 42.1382L49.5746 42.015C49.6156 41.9883 49.6643 41.9761 49.713 41.9805C49.7616 41.9849 49.8074 42.0055 49.8429 42.0391C49.8529 42.0459 49.8618 42.054 49.8695 42.0633C49.8882 42.0829 49.9045 42.1049 49.9178 42.1285C49.927 42.139 49.9351 42.1503 49.942 42.1624C49.9669 42.2044 49.9872 42.2489 50.0024 42.2953C50.0214 42.3459 50.0375 42.3976 50.0507 42.45C50.0628 42.508 50.0749 42.566 50.0846 42.6288C50.0919 42.6655 50.0968 42.7026 50.0991 42.74V42.827C50.0991 42.8922 50.0991 42.9623 50.0991 43.0348V46.631H49.5674V43.0542C49.5674 42.9986 49.5674 42.9406 49.5674 42.8874L49.5553 42.7545C49.507 43.1774 49.1034 43.5544 48.7505 43.7526C48.5563 43.8761 48.3328 43.9461 48.1028 43.9556C47.9256 43.9579 47.7536 43.8951 47.6195 43.7792L47.5736 43.8058L47.4793 43.8614L33.9068 51.6989L32.4374 52.5472C32.2274 52.6545 31.9941 52.7085 31.7583 52.7043V52.0904C31.9969 52.0888 32.2312 52.0273 32.4398 51.9116Z" fill="black"/>
<path d="M8.41309 38.588V39.2115C8.42042 39.2953 8.44947 39.3757 8.49736 39.4447C8.54525 39.5138 8.61034 39.5692 8.68618 39.6055L29.5863 51.6699L31.0533 52.5182C31.2652 52.6278 31.501 52.6834 31.7396 52.6801V52.0663C31.4997 52.0716 31.2625 52.0149 31.0508 51.9019L30.118 51.363L8.70068 38.994C8.61948 38.9602 8.54944 38.9041 8.49858 38.8323C8.44772 38.7605 8.4181 38.6759 8.41309 38.588Z" fill="#F7C06E"/>
<path opacity="0.2" d="M8.41309 38.588V39.2115C8.42042 39.2953 8.44947 39.3757 8.49736 39.4447C8.54525 39.5138 8.61034 39.5692 8.68618 39.6055L29.5863 51.6699L31.0533 52.5182C31.2652 52.6278 31.501 52.6834 31.7396 52.6801V52.0663C31.4997 52.0716 31.2625 52.0149 31.0508 51.9019L30.118 51.363L8.70068 38.994C8.61948 38.9602 8.54944 38.9041 8.49858 38.8323C8.44772 38.7605 8.4181 38.6759 8.41309 38.588Z" fill="black"/>
<path d="M8.41309 44.2287V44.8523C8.42042 44.936 8.44947 45.0164 8.49736 45.0855C8.54525 45.1545 8.61034 45.2099 8.68618 45.2462L29.596 57.3131L31.0629 58.1613C31.2749 58.271 31.5107 58.3266 31.7493 58.3233V57.7094C31.5094 57.7147 31.2722 57.6581 31.0605 57.5451L30.1276 57.0061L8.70068 44.6347C8.61948 44.6009 8.54944 44.5448 8.49858 44.473C8.44772 44.4012 8.4181 44.3166 8.41309 44.2287Z" fill="#F7C06E"/>
<path opacity="0.2" d="M8.41309 44.2287V44.8523C8.42042 44.936 8.44947 45.0164 8.49736 45.0855C8.54525 45.1545 8.61034 45.2099 8.68618 45.2462L29.596 57.3131L31.0629 58.1613C31.2749 58.271 31.5107 58.3266 31.7493 58.3233V57.7094C31.5094 57.7147 31.2722 57.6581 31.0605 57.5451L30.1276 57.0061L8.70068 44.6347C8.61948 44.6009 8.54944 44.5448 8.49858 44.473C8.44772 44.4012 8.4181 44.3166 8.41309 44.2287Z" fill="black"/>
<path d="M18.0648 22.3015L15.8462 26.2553L19.0798 27.976L21.4337 24.4717L18.0648 22.3015Z" fill="#FFA8A7"/>
<path d="M25.9355 13.3956C24.703 13.1854 22.8373 13.1298 21.624 15.2106C20.4108 17.2915 17.7959 22.4271 17.7959 22.4271C17.7959 22.4271 19.3233 24.404 21.5346 24.7641L25.1477 19.0315L25.9355 13.3956Z" fill="#F7A46B"/>
<path d="M23.0226 61.8178H20.2627V66.5426H23.0226V61.8178Z" fill="#FFA8A7"/>
<path d="M15.0369 60.6674L12.2769 60.7617L12.1392 55.7614L14.8967 55.6671L15.0369 60.6674Z" fill="#FFA8A7"/>
<path d="M20.262 65.1795V64.7855C19.9985 64.8991 19.3847 67.241 18.2899 68.2391C17.4199 69.0342 16.2332 69.9502 15.9311 70.8347C15.617 71.7555 17.5842 72.2654 18.3962 72.1204C19.3412 71.9536 20.9797 71.289 21.3906 70.6703C21.8014 70.0517 21.9948 69.1454 22.3283 68.6934C22.6618 68.2415 23.4327 67.7267 23.614 67.212C23.7131 66.9244 23.5947 66.296 23.4569 65.7619C23.3288 65.2786 23.1886 64.7372 23.0219 64.7831V65.0828C22.8213 65.3051 22.2679 65.5251 21.6419 65.5492C21.2383 65.5686 20.2595 65.4888 20.262 65.1795Z" fill="#263238"/>
<path d="M12.2459 59.911C12.1033 59.911 11.9873 60.1188 11.6707 60.4596C11.1984 60.9367 10.6495 61.3313 10.0466 61.6269C9.01227 62.1465 7.00877 62.9416 6.09524 63.3548C5.5273 63.611 5.55389 64.2974 6.14116 64.6889C6.72843 65.0804 8.14465 65.3608 9.84846 64.9789C10.7741 64.7711 11.9825 63.9155 12.7486 63.9615C13.5147 64.0074 14.943 63.9977 15.5061 63.6086C16.0692 63.2195 15.8444 62.4002 15.6849 61.6752C15.5109 60.897 15.262 59.7055 15.0034 59.7587V60.0004C14.6723 60.5031 12.983 60.7085 12.2531 60.3387L12.2459 59.911Z" fill="#263238"/>
<path d="M34.1403 33.085C34.7445 37.3506 33.9301 38.1602 29.8772 42.2542C27.7021 44.451 24.1857 47.6725 24.1857 47.6725C24.1857 47.6725 24.2365 49.0356 24.263 52.0904C24.2896 54.7802 23.1658 63.5337 23.1658 63.5337C23.1658 63.5337 21.3339 64.3046 20.0772 63.5047C20.0772 63.5047 19.5093 56.9915 19.2024 53.596C18.7867 49.0042 18.5692 46.6889 18.8036 45.7005C19.0114 44.828 23.1368 39.6175 24.089 38.1578L15.321 43.2523C15.491 44.5431 15.5766 45.8437 15.5772 47.1457C15.4805 50.7974 15.031 58.0912 15.031 58.0912C15.031 58.0912 13.0251 58.9878 12.0294 58.2144C12.0294 58.2144 9.50391 42.2638 9.50391 40.9539C9.50391 38.9649 18.1414 33.027 19.7775 31.6446C20.7104 30.8567 21.7496 30.0036 21.7496 30.0036L34.1403 33.085Z" fill="#455A64"/>
<path d="M24.0922 38.1602C23.17 37.4135 22.4758 36.4229 22.0887 35.3011C22.137 36.0331 22.2413 36.7602 22.4005 37.4762C22.6422 38.4236 15.3242 43.2523 15.3242 43.2523L24.0922 38.1602Z" fill="#37474F"/>
<path d="M28.9623 5.76712C29.456 3.66059 28.1485 1.55269 26.042 1.059C23.9354 0.565301 21.8275 1.87276 21.3339 3.97929C20.8402 6.08582 22.1476 8.19372 24.2542 8.68742C26.3607 9.18111 28.4686 7.87365 28.9623 5.76712Z" fill="#263238"/>
<path d="M33.3819 15.769C33.3819 15.769 34.3486 16.5617 34.3486 19.0655V24.4717L34.2109 33.5636C32.2775 35.6686 23.5772 34.8711 21.4238 30.2792C21.4238 30.2792 21.4407 20.6823 21.4407 18.5314C21.4407 16.3804 22.6491 13.5891 25.9359 13.3958L30.1942 14.3866L33.3819 15.769Z" fill="#263238"/>
<path d="M31.9219 7.65826C31.9219 7.65826 31.2863 10.6405 31.0326 11.1311C30.8633 11.4336 30.5836 11.6588 30.252 11.7595L30.2955 9.66176L31.9219 7.65826Z" fill="#263238"/>
<path d="M31.1218 3.38552C31.3425 3.36072 31.5659 3.38634 31.7752 3.46043C31.9845 3.53453 32.1743 3.65518 32.3302 3.81329C32.8522 4.34739 32.5598 6.01979 31.9097 7.65835L30.7134 7.7961L31.1218 3.38552Z" fill="#263238"/>
<path d="M30.3661 7.79615C30.6078 7.93874 30.9486 7.47955 31.2434 7.17021C31.5383 6.86086 32.505 6.44518 32.9859 7.45297C33.4668 8.46076 32.5605 9.85281 31.8017 10.0921C30.4918 10.5029 30.2936 9.66189 30.2936 9.66189L30.1945 14.3866C29.0659 15.6482 25.2064 15.3533 25.9338 14.261V12.8109C25.9338 12.8109 24.7472 12.9922 24.1696 12.9028C23.2029 12.7529 22.5987 11.9941 22.3062 10.95C21.8374 9.27521 21.6586 7.92424 22.0646 4.6302C22.502 1.01956 26.6999 0.983312 28.9668 2.4092C31.2337 3.83509 30.3661 7.79615 30.3661 7.79615Z" fill="#FFA8A7"/>
<path d="M27.0297 8.62262H26.8267C26.4722 8.62262 26.1323 8.48182 25.8817 8.23118C25.631 7.98055 25.4902 7.64061 25.4902 7.28616C25.4902 6.9317 25.631 6.59177 25.8817 6.34113C26.1323 6.0905 26.4722 5.94969 26.8267 5.94969H27.0321C27.3866 5.94969 27.7265 6.0905 27.9772 6.34113C28.2278 6.59177 28.3686 6.9317 28.3686 7.28616C28.3686 7.64061 28.2278 7.98055 27.9772 8.23118C27.7265 8.48182 27.3866 8.62262 27.0321 8.62262H27.0297ZM26.8267 6.17445C26.5319 6.17445 26.2491 6.29158 26.0406 6.50006C25.8321 6.70855 25.715 6.99131 25.715 7.28616C25.715 7.581 25.8321 7.86377 26.0406 8.07225C26.2491 8.28074 26.5319 8.39787 26.8267 8.39787H27.0321C27.327 8.39787 27.6097 8.28074 27.8182 8.07225C28.0267 7.86377 28.1438 7.581 28.1438 7.28616C28.1438 6.99131 28.0267 6.70855 27.8182 6.50006C27.6097 6.29158 27.327 6.17445 27.0321 6.17445H26.8267Z" fill="#263238"/>
<path d="M22.9613 8.62262H22.7559C22.4014 8.62262 22.0615 8.48182 21.8109 8.23118C21.5602 7.98055 21.4194 7.64061 21.4194 7.28616C21.4194 6.9317 21.5602 6.59177 21.8109 6.34113C22.0615 6.0905 22.4014 5.94969 22.7559 5.94969H22.9613C23.3158 5.94969 23.6557 6.0905 23.9064 6.34113C24.157 6.59177 24.2978 6.9317 24.2978 7.28616C24.2978 7.64061 24.157 7.98055 23.9064 8.23118C23.6557 8.48182 23.3158 8.62262 22.9613 8.62262ZM22.7559 6.17445C22.4611 6.17445 22.1783 6.29158 21.9698 6.50006C21.7613 6.70855 21.6442 6.99131 21.6442 7.28616C21.6442 7.581 21.7613 7.86377 21.9698 8.07225C22.1783 8.28074 22.4611 8.39787 22.7559 8.39787H22.9613C23.2562 8.39787 23.5389 8.28074 23.7474 8.07225C23.9559 7.86377 24.073 7.581 24.073 7.28616C24.073 6.99131 23.9559 6.70855 23.7474 6.50006C23.5389 6.29158 23.2562 6.17445 22.9613 6.17445H22.7559Z" fill="#263238"/>
<path d="M25.5037 7.0227C25.4222 6.91195 25.316 6.82174 25.1935 6.75923C25.071 6.69672 24.9356 6.66363 24.798 6.6626C24.6835 6.65107 24.5679 6.66698 24.4607 6.709C24.3535 6.75103 24.2579 6.81797 24.1818 6.90428L24.0029 6.76894C24.1008 6.65324 24.2256 6.56339 24.3664 6.50733C24.5071 6.45128 24.6595 6.43073 24.8101 6.44751C24.9844 6.44924 25.1557 6.49244 25.31 6.57355C25.4642 6.65467 25.5969 6.77135 25.6971 6.91395L25.5037 7.0227Z" fill="#263238"/>
<path d="M31.0838 7.01309H28.2417V7.23785H31.0838V7.01309Z" fill="#263238"/>
<path d="M30.3678 8.19967C30.4887 8.19967 30.9454 7.44081 31.2451 7.17013C31.6584 6.79312 31.1243 3.38549 31.1243 3.38549C31.1243 3.38549 31.5231 2.53721 30.7255 1.66234C30.16 1.03882 29.2126 0.968733 27.5958 0.714974C26.7475 0.582052 25.4618 0.342794 24.6135 0.185705C23.6033 -0.00280174 22.7647 -0.200976 22.0518 0.427381C21.7719 0.669984 21.574 0.993299 21.4853 1.35291C21.3966 1.71251 21.4214 2.09077 21.5563 2.4357C21.761 2.8659 22.1251 3.19958 22.5714 3.36616C22.5714 3.36616 23.0112 3.75767 24.5459 3.94376C26.0805 4.12985 28.4707 3.90993 28.7969 3.86401C29.2416 3.80359 29.3359 4.23377 29.5776 5.41315C29.7878 6.44027 29.9691 8.19242 30.3678 8.19967Z" fill="#263238"/>
<path d="M31.1207 3.66105L32.5707 2.88044C32.5243 2.78296 32.4586 2.6959 32.3776 2.6245C32.2967 2.55309 32.2021 2.49882 32.0995 2.46495C31.997 2.43107 31.8887 2.41831 31.7811 2.42741C31.6735 2.43651 31.5689 2.4673 31.4735 2.51792C31.2797 2.6272 31.1351 2.80659 31.0695 3.01922C31.0038 3.23184 31.0222 3.46153 31.1207 3.66105Z" fill="#263238"/>
<path d="M25.936 12.8229C25.936 12.8229 28.0869 12.3903 28.8361 11.9916C29.2782 11.7607 29.6403 11.4019 29.8753 10.962C29.7616 11.4002 29.5611 11.8111 29.2856 12.1704C28.7346 12.8737 25.9336 13.3909 25.9336 13.3909L25.936 12.8229Z" fill="#F28F8F"/>
<path d="M26.4557 7.25961C26.459 7.34447 26.4872 7.42648 26.5368 7.49541C26.5865 7.56434 26.6553 7.61714 26.7347 7.64723C26.8141 7.67732 26.9006 7.68336 26.9835 7.66461C27.0663 7.64586 27.1418 7.60315 27.2005 7.54179C27.2592 7.48043 27.2986 7.40314 27.3137 7.31957C27.3288 7.23599 27.3189 7.14982 27.2854 7.0718C27.2518 6.99378 27.196 6.92736 27.125 6.88082C27.054 6.83428 26.9708 6.80968 26.8859 6.81009C26.8281 6.81135 26.7711 6.82397 26.7183 6.84725C26.6654 6.87052 26.6176 6.90398 26.5776 6.94573C26.5377 6.98747 26.5064 7.03668 26.4854 7.09054C26.4645 7.14439 26.4544 7.20185 26.4557 7.25961Z" fill="#263238"/>
<path d="M27.146 5.476L28.0692 5.98352C28.1314 5.85782 28.1438 5.71325 28.104 5.57879C28.0641 5.44432 27.9748 5.32991 27.8541 5.25849C27.7936 5.22504 27.727 5.20411 27.6582 5.19697C27.5895 5.18983 27.52 5.19661 27.4539 5.21691C27.3878 5.23721 27.3265 5.27061 27.2736 5.31512C27.2207 5.35964 27.1773 5.41435 27.146 5.476Z" fill="#263238"/>
<path d="M26.1335 10.2345L25.1499 10.6043C25.1711 10.6703 25.2054 10.7314 25.2507 10.7839C25.2961 10.8363 25.3516 10.8791 25.4139 10.9095C25.4762 10.94 25.544 10.9576 25.6133 10.9612C25.6825 10.9648 25.7518 10.9544 25.8169 10.9306C25.9495 10.878 26.0566 10.7762 26.1156 10.6464C26.1746 10.5166 26.1811 10.369 26.1335 10.2345Z" fill="#F28F8F"/>
<path d="M22.4989 5.85294L23.3399 5.20767C23.3008 5.15134 23.2506 5.10353 23.1925 5.06712C23.1343 5.03072 23.0694 5.00648 23.0017 4.99586C22.9339 4.98525 22.8647 4.98848 22.7982 5.00536C22.7317 5.02224 22.6694 5.05242 22.6149 5.09408C22.5017 5.18138 22.4264 5.30894 22.4048 5.45027C22.3832 5.59159 22.4169 5.7358 22.4989 5.85294Z" fill="#263238"/>
<path d="M22.8697 7.13632C22.8731 7.22118 22.9013 7.30319 22.9509 7.37212C23.0005 7.44105 23.0693 7.49385 23.1487 7.52394C23.2282 7.55403 23.3147 7.56007 23.3975 7.54132C23.4803 7.52257 23.5558 7.47986 23.6145 7.4185C23.6733 7.35714 23.7126 7.27985 23.7277 7.19628C23.7428 7.1127 23.733 7.02653 23.6994 6.94851C23.6659 6.87049 23.6101 6.80407 23.5391 6.75753C23.468 6.71099 23.3848 6.68639 23.2999 6.6868C23.2422 6.68806 23.1852 6.70068 23.1323 6.72396C23.0794 6.74723 23.0316 6.78069 22.9917 6.82244C22.9517 6.86418 22.9204 6.91339 22.8995 6.96725C22.8786 7.0211 22.8685 7.07855 22.8697 7.13632Z" fill="#263238"/>
<path d="M24.9984 6.79071L24.9501 9.40323L23.4058 9.06246L24.9984 6.79071Z" fill="#F28F8F"/>
<path d="M22.3595 28.5101V28.7518C22.3593 28.8753 22.3266 28.9967 22.2647 29.1036C22.2028 29.2105 22.1137 29.2992 22.0066 29.3608L15.2953 33.2276C15.1884 33.2893 15.0671 33.3218 14.9436 33.3218C14.8202 33.3218 14.6989 33.2893 14.592 33.2276L2.27863 26.1199C2.17149 26.0583 2.08248 25.9696 2.02053 25.8627C1.95859 25.7558 1.92591 25.6344 1.92578 25.5109V25.3393L14.9424 32.853L22.3595 28.5101Z" fill="#F7C06E"/>
<path opacity="0.6" d="M22.3595 28.5101V28.7518C22.3593 28.8753 22.3266 28.9967 22.2647 29.1036C22.2028 29.2105 22.1137 29.2992 22.0066 29.3608L15.2953 33.2276C15.1884 33.2893 15.0671 33.3218 14.9436 33.3218C14.8202 33.3218 14.6989 33.2893 14.592 33.2276L2.27863 26.1199C2.17149 26.0583 2.08248 25.9696 2.02053 25.8627C1.95859 25.7558 1.92591 25.6344 1.92578 25.5109V25.3393L14.9424 32.853L22.3595 28.5101Z" fill="black"/>
<path d="M1.93555 25.3418L9.23657 21.127C9.3005 21.0901 9.37301 21.0706 9.44683 21.0706C9.52064 21.0706 9.59316 21.0901 9.65708 21.127L22.3209 28.4401C22.3349 28.4484 22.3465 28.4603 22.3546 28.4745C22.3626 28.4887 22.3669 28.5047 22.3669 28.521C22.3669 28.5374 22.3626 28.5534 22.3546 28.5676C22.3465 28.5818 22.3349 28.5936 22.3209 28.602L14.9522 32.8555L1.93555 25.3418Z" fill="#F7C06E"/>
<path opacity="0.5" d="M1.93555 25.3418L9.23657 21.127C9.3005 21.0901 9.37301 21.0706 9.44683 21.0706C9.52064 21.0706 9.59316 21.0901 9.65708 21.127L22.3209 28.4401C22.3349 28.4484 22.3465 28.4603 22.3546 28.4745C22.3626 28.4887 22.3669 28.5047 22.3669 28.521C22.3669 28.5374 22.3626 28.5534 22.3546 28.5676C22.3465 28.5818 22.3349 28.5936 22.3209 28.602L14.9522 32.8555L1.93555 25.3418Z" fill="black"/>
<path d="M15.0093 32.2367L18.9462 29.9649L7.43277 23.3188L3.47412 25.5785L15.0093 32.2367Z" fill="#263238"/>
<path d="M16.9448 25.9194L16.8723 25.9604L14.9413 27.0746L11.5095 25.0928L11.4395 25.0517L13.4405 23.8965L16.9448 25.9194Z" fill="#263238"/>
<path d="M16.8721 25.9605L14.9411 27.0746L11.5093 25.0929L13.4403 23.9787L16.8721 25.9605Z" fill="#263238"/>
<path opacity="0.7" d="M14.9424 32.8555V33.3243C14.8194 33.3242 14.6985 33.2917 14.592 33.2301L2.27863 26.1224C2.17149 26.0608 2.08248 25.9721 2.02053 25.8652C1.95859 25.7583 1.92591 25.6369 1.92578 25.5134V25.3418L14.9424 32.8555Z" fill="black"/>
<path d="M14.7422 32.9594C14.6251 33.006 14.4989 33.0252 14.3733 33.0156C14.2476 33.006 14.1258 32.9677 14.0172 32.9038L1.75942 25.8275C1.65294 25.7665 1.56131 25.6825 1.49111 25.5818C1.42091 25.4811 1.37388 25.3661 1.3534 25.2451L0.0121025 17.2408C0.00448269 17.1961 0.000441211 17.1508 1.799e-05 17.1055C-0.00143764 16.8831 0.0854939 16.6692 0.241694 16.5109L12.9804 23.8675C13.0612 23.912 13.1312 23.9739 13.1851 24.0487C13.239 24.1235 13.2756 24.2094 13.2922 24.3001L14.7422 32.9594Z" fill="#F7C06E"/>
<path opacity="0.5" d="M14.7422 32.9594C14.6251 33.006 14.4989 33.0252 14.3733 33.0156C14.2476 33.006 14.1258 32.9677 14.0172 32.9038L1.75942 25.8275C1.65294 25.7665 1.56131 25.6825 1.49111 25.5818C1.42091 25.4811 1.37388 25.3661 1.3534 25.2451L0.0121025 17.2408C0.00448269 17.1961 0.000441211 17.1508 1.799e-05 17.1055C-0.00143764 16.8831 0.0854939 16.6692 0.241694 16.5109L12.9804 23.8675C13.0612 23.912 13.1312 23.9739 13.1851 24.0487C13.239 24.1235 13.2756 24.2094 13.2922 24.3001L14.7422 32.9594Z" fill="black"/>
<path d="M14.943 32.8555L14.8608 32.9038C14.8236 32.9252 14.7848 32.9438 14.7448 32.9594L13.2947 24.3001C13.2795 24.2105 13.2448 24.1253 13.193 24.0505C13.1412 23.9758 13.0736 23.9133 12.9951 23.8675L0.256348 16.5109C0.306948 16.4611 0.363815 16.418 0.42552 16.3828L13.1908 23.7515C13.2694 23.7973 13.337 23.8598 13.3888 23.9345C13.4405 24.0093 13.4753 24.0945 13.4905 24.1841L14.943 32.8555Z" fill="#E0E0E0"/>
<path d="M7.84113 25.5713C7.75171 25.0372 7.19828 24.3243 6.60617 23.9835C6.01406 23.6428 5.60563 23.7974 5.69747 24.334C5.78931 24.8705 6.34032 25.581 6.93243 25.9242C7.52454 26.2674 7.93297 26.1079 7.84113 25.5713Z" fill="#F7C06E"/>
<path d="M10.3521 30.7818C10.3265 30.435 10.2592 30.0925 10.1515 29.7619C9.96298 29.1698 9.40229 26.8884 8.12141 26.5452C7.96909 26.4994 7.80742 26.4944 7.65256 26.5307C7.2973 26.6274 7.13537 26.9971 7.06529 27.3282C7.00003 27.8175 7.00003 28.3132 7.06529 28.8025C6.86837 28.5772 6.63764 28.384 6.38134 28.2297C6.15411 28.0586 5.88012 27.9608 5.5959 27.9493C5.55636 27.9474 5.51695 27.9552 5.48113 27.9721C5.44531 27.9889 5.41418 28.0143 5.39048 28.046C5.34456 28.1306 5.39048 28.2369 5.46298 28.3119C5.59107 28.4665 5.74815 28.597 5.87624 28.7517C5.97664 28.8866 6.06943 29.027 6.15417 29.1722C6.31609 29.4332 6.49735 29.6797 6.67861 29.9287C7.02685 30.4459 7.46375 30.8975 7.96915 31.2627C8.55046 31.6562 9.21002 31.9192 9.90256 32.0337C10.8378 32.1497 11.7465 32.1352 12.3362 31.9297L10.3521 30.7818Z" fill="#FFA8A7"/>
<path d="M33.1227 15.839C32.2599 15.3943 30.9984 17.1562 31.3996 18.9977C31.8007 20.8393 33.7776 27.3138 33.7776 27.3138C33.7776 27.3138 24.8477 28.1113 24.0889 28.2056C23.5596 28.2684 22.9675 28.0001 22.4769 27.8382C21.8099 27.6159 21.1356 27.4612 20.4782 27.2195C20.3638 27.167 20.2392 27.1406 20.1133 27.1422C20.0501 27.1449 19.9895 27.1684 19.941 27.2091C19.8925 27.2497 19.8588 27.3052 19.845 27.367C19.8418 27.4426 19.8612 27.5174 19.9006 27.582C20.1115 28.0121 20.4283 28.3814 20.8214 28.6551C21.0118 28.7676 21.1929 28.8953 21.3628 29.0369C21.4667 29.1409 21.6963 29.4284 21.6044 29.5855L18.0566 31.6277C18.0566 31.6277 18.8735 32.3382 21.8316 31.5093C22.8979 31.2303 23.9385 30.8608 24.942 30.4048C24.942 30.4048 35.4645 30.8422 37.3665 30.2671C38.0384 30.0616 38.2801 29.5855 37.8257 27.4201C37.3061 24.9115 35.815 20.3366 35.4766 19.1282C34.7347 16.5109 34.5583 16.5713 33.1227 15.839Z" fill="#FFA8A7"/>
<path d="M32.6773 15.4644C32.6773 15.4644 34.1032 15.8656 34.7171 16.6728C35.3309 17.48 37.6994 25.2885 37.6994 25.2885C37.0803 25.8049 36.3563 26.1805 35.5775 26.3892C34.7988 26.5978 33.984 26.6346 33.1897 26.4969C33.1897 26.4969 31.2853 21.0955 31.0823 19.6527C30.7222 17.4172 31.8146 15.6578 32.6773 15.4644Z" fill="#F7A46B"/>
<path d="M24.9843 20.704C24.8683 20.0998 25.2454 19.7735 25.8278 19.9789C26.136 20.1056 26.4103 20.3027 26.6285 20.5546C26.8468 20.8064 27.003 21.1059 27.0845 21.429C27.2005 22.0404 25.0979 21.3033 24.9843 20.704Z" fill="#F7C06E"/>
<path d="M28.9694 22.5867L27.256 21.4967C27.343 21.9607 26.717 21.8955 26.1539 21.6997C25.5908 21.504 24.902 21.1076 24.8126 20.6436L23.3191 20.6243C23.1813 20.6243 23.1789 20.8031 23.3191 20.9505C23.6888 21.3638 24.5492 22.0961 26.3569 22.7268C28.1647 23.3576 28.8583 23.1618 29.1193 22.9685C29.2039 22.896 29.1265 22.6857 28.9694 22.5867Z" fill="#F7C06E"/>
</svg>
