<svg width="38" height="76" viewBox="0 0 38 76" fill="none" xmlns="http://www.w3.org/2000/svg">
<path d="M17.7507 32.4208C17.7507 32.4208 14.6767 46.9794 14.4116 51.8086C14.1466 56.6378 15.4071 68.7734 15.4071 68.7734L19.3347 69.3995L20.084 53.9122L21.8057 42.1064C21.8057 42.1064 23.6088 51.7063 24.3852 53.954C25.1615 56.2016 28.8659 62.7192 31.9253 67.9261L34.5549 65.9999C34.5549 65.9999 29.6401 51.9463 28.8012 49.202C27.9622 46.4577 28.5299 34.8229 25.942 31.5192L17.7507 32.4208Z" fill="#F7A46B"/>
<path d="M18.485 72.8033C18.4662 72.9201 16.4293 72.4777 16.4293 72.4777L16.2916 70.4659L16.2373 69.677L18.3243 69.4933C18.3243 69.4933 18.3597 70.0944 18.3973 70.7831C18.439 71.6847 18.5079 72.7344 18.485 72.8033Z" fill="#B55B52"/>
<path opacity="0.2" d="M18.389 70.7831L16.2916 70.4659L16.2373 69.677L18.3243 69.4933C18.3243 69.4933 18.3514 70.0944 18.389 70.7831Z" fill="black"/>
<path d="M14.9343 73.1852L14.8509 73.0704C14.8258 73.035 14.2248 72.1939 14.3124 71.7807C14.3206 71.7405 14.3376 71.7027 14.3621 71.6698C14.3866 71.637 14.4181 71.61 14.4543 71.5908C14.4839 71.5729 14.5179 71.5635 14.5524 71.5635C14.587 71.5635 14.6209 71.5729 14.6505 71.5908C14.949 71.7724 14.9385 72.916 14.9364 73.0517L14.9343 73.1852ZM14.5587 71.6576C14.5375 71.6583 14.5167 71.664 14.4982 71.6743C14.4744 71.6876 14.4537 71.7059 14.4375 71.7278C14.4213 71.7498 14.41 71.7749 14.4043 71.8016C14.3396 72.0854 14.6777 72.6364 14.8425 72.891C14.8425 72.4882 14.7883 71.7828 14.6025 71.6701C14.5894 71.6619 14.5742 71.6576 14.5587 71.6576Z" fill="#F7C06E"/>
<path d="M14.7223 73.1977L14.6012 73.1476C14.4719 73.0954 13.3366 72.6217 13.2656 72.2147C13.2591 72.1733 13.2636 72.1308 13.2786 72.0917C13.2936 72.0525 13.3186 72.0179 13.3512 71.9914C13.3854 71.9596 13.4267 71.9363 13.4717 71.9236C13.5167 71.9109 13.5641 71.9091 13.6099 71.9184C14.0691 71.9977 14.6367 73.037 14.6534 73.0808L14.7223 73.1977ZM13.5515 72.006C13.5006 72.0061 13.4518 72.0263 13.4159 72.0624C13.3946 72.0779 13.3781 72.0989 13.3682 72.1233C13.3582 72.1476 13.3552 72.1742 13.3595 72.2001C13.4054 72.4672 14.115 72.8262 14.5073 73.0057C14.3446 72.7281 13.923 72.0686 13.5932 72.0102L13.5515 72.006Z" fill="#F7C06E"/>
<path d="M18.4159 72.6906L16.308 72.3588C16.1771 72.3382 16.0431 72.3672 15.9324 72.4402C15.4436 72.7701 14.8936 72.9986 14.315 73.1122C13.4134 73.2395 12.612 73.0621 12.5369 73.3209C12.4943 73.489 12.5094 73.6666 12.5798 73.8252C12.6502 73.9838 12.7718 74.1141 12.9251 74.1953C13.2214 74.3497 16.8527 74.9132 18.3846 75.1469C18.4647 75.159 18.5466 75.1527 18.624 75.1284C18.7014 75.1041 18.7722 75.0626 18.8311 75.0069C18.89 74.9512 18.9355 74.8828 18.9641 74.8069C18.9927 74.731 19.0036 74.6496 18.996 74.5689L18.8646 73.1706C18.8532 73.0523 18.8031 72.9411 18.7219 72.8542C18.6407 72.7674 18.5331 72.7099 18.4159 72.6906Z" fill="#222221"/>
<path d="M14.8896 68.2913L15.2194 70.0276L19.5185 70.4367L19.6458 68.6795L14.8896 68.2913Z" fill="#F7C06E"/>
<path d="M35.8779 68.1785C35.9363 68.2828 34.0664 69.2032 34.0664 69.2032L32.8268 67.8404L32.1777 67.1246L32.8372 66.4985L33.6929 65.6908C33.6929 65.6908 33.7805 65.791 33.9245 65.9496L34.6842 66.8053C35.2476 67.4439 35.8487 68.1263 35.8779 68.1785Z" fill="#B55B52"/>
<path opacity="0.2" d="M34.6842 66.8074L32.8268 67.8405L32.1777 67.1247L32.8372 66.4986L33.9245 65.9497L34.6842 66.8074Z" fill="black"/>
<path d="M33.4595 70.036L33.351 69.9859C33.3113 69.9692 32.3952 69.5498 32.3075 69.1804C32.2995 69.1434 32.3006 69.1051 32.3108 69.0688C32.321 69.0324 32.3399 68.9991 32.366 68.9717C32.3939 68.9359 32.4308 68.9081 32.473 68.8913C32.5152 68.8744 32.561 68.869 32.606 68.8757C32.9774 68.9362 33.3635 69.8273 33.4073 69.9296L33.4595 70.036ZM32.5726 68.9633C32.5473 68.964 32.5226 68.9703 32.5002 68.9819C32.4778 68.9934 32.4583 69.0099 32.4432 69.0301C32.4265 69.0472 32.4146 69.0682 32.4083 69.0912C32.4021 69.1142 32.4019 69.1385 32.4077 69.1616C32.4578 69.3953 32.9753 69.6958 33.2738 69.8461C33.1298 69.5372 32.8334 69.0113 32.5976 68.9654L32.5726 68.9633Z" fill="#F7C06E"/>
<path d="M32.0852 70.4742C31.8973 70.4938 31.7086 70.4457 31.553 70.3386C31.5135 70.2989 31.4861 70.2488 31.4739 70.1941C31.4617 70.1394 31.4653 70.0824 31.4841 70.0297C31.4988 69.9651 31.5285 69.9049 31.571 69.8541C31.6134 69.8033 31.6674 69.7634 31.7283 69.7375C32.273 69.4913 33.4897 70.1111 33.5419 70.1382L33.6462 70.1925L33.5335 70.2259C33.0618 70.3635 32.5759 70.4468 32.0852 70.4742ZM32.0455 69.773C31.9498 69.7699 31.8546 69.787 31.7659 69.8231C31.7182 69.8435 31.6762 69.8749 31.6431 69.9149C31.6101 69.9548 31.5871 70.002 31.576 70.0527C31.5636 70.088 31.5609 70.126 31.5682 70.1627C31.5756 70.1994 31.5927 70.2335 31.6177 70.2614C31.8681 70.5034 32.8887 70.2927 33.3874 70.1591C33.1328 70.0485 32.488 69.773 32.0455 69.773Z" fill="#F7C06E"/>
<path d="M35.7574 68.1034L33.9 69.1469C33.7839 69.2111 33.6966 69.317 33.6559 69.4433C33.4778 70.0053 33.1882 70.5256 32.8044 70.973C32.1783 71.6346 31.4395 71.9935 31.5418 72.2419C31.6121 72.4003 31.7338 72.5303 31.8872 72.611C32.0405 72.6916 32.2166 72.7182 32.387 72.6864C32.7146 72.6238 35.9119 70.8081 37.2579 70.0443C37.3285 70.0039 37.389 69.9479 37.4346 69.8806C37.4803 69.8134 37.51 69.7365 37.5215 69.656C37.5329 69.5755 37.5259 69.4934 37.5008 69.416C37.4758 69.3387 37.4334 69.268 37.3769 69.2095L36.4065 68.1932C36.3232 68.1089 36.2145 68.0545 36.0972 68.0382C35.9798 68.022 35.8604 68.0449 35.7574 68.1034Z" fill="#222221"/>
<path d="M30.3809 67.0287L31.7186 68.189L35.3436 65.8391L34.3523 64.3824L30.3809 67.0287Z" fill="#F7C06E"/>
<path d="M22.1095 14.2434C22.2243 14.1787 24.6138 14.0702 26.9095 14.5522C29.2051 15.0343 25.1147 17.858 25.1147 17.858L23.8333 22.9877L21.4855 23.0086L21.2017 15.7251L22.1095 14.2434Z" fill="#EBEBEB"/>
<path d="M26.9096 14.5585L21.9301 22.4159L22.4811 14.1766C22.4811 14.1766 20.6717 14.2225 20.1103 14.3853C19.5489 14.548 19.0668 15.8587 18.664 17.6534C18.2613 19.4482 17.6498 23.7515 17.6498 23.7515L14.7886 47.7515C14.7886 47.7515 24.5701 49.8384 29.1781 48.2169C29.1781 48.2169 27.4459 26.6607 27.7319 25.3292C28.0178 23.9978 28.9423 19.1268 28.9423 19.1268C28.9423 19.1268 30.2237 16.6955 29.6665 15.9797C29.1092 15.2639 26.9096 14.5585 26.9096 14.5585Z" fill="#F7C06E"/>
<path d="M21.041 29.6764L21.7506 48.7219" stroke="white" stroke-width="0.75" stroke-linecap="round" stroke-linejoin="round"/>
<path d="M20.4332 14.794L3.17041 20.6775L7.51821 33.4345L24.781 27.551L20.4332 14.794Z" fill="#F7C06E"/>
<path d="M20.4344 14.7944L7.51826 33.435L5.09322 32.3352L0.746094 19.5798L18.0094 13.6966L20.4344 14.7944Z" fill="#F7C06E"/>
<path opacity="0.7" d="M20.4344 14.7944L3.17113 20.6775L7.51826 33.435L5.09322 32.3352L0.746094 19.5798L18.0094 13.6966L20.4344 14.7944Z" fill="white"/>
<path opacity="0.46" d="M20.4332 14.794L3.17041 20.6775L7.51821 33.4345L24.781 27.551L20.4332 14.794Z" fill="white"/>
<path d="M16.7427 27.8889C18.8239 26.1861 19.1307 23.1186 17.4279 21.0374C15.7251 18.9562 12.6576 18.6495 10.5764 20.3523C8.49523 22.055 8.18848 25.1225 9.89127 27.2037C11.594 29.2849 14.6616 29.5916 16.7427 27.8889Z" fill="#FAFAFA"/>
<path d="M16.5819 22.4326L14.5972 23.0816L13.9586 21.1324L12.4247 21.6354L13.0633 23.5846L10.8804 24.2983L11.375 25.8155L13.56 25.0997L14.1924 27.0322L15.7263 26.5293L15.0939 24.5968L17.0786 23.9477L16.5819 22.4326Z" fill="#F7C06E"/>
<path d="M22.4717 4.04646V1.00994C22.4717 1.00994 25.7962 -0.486401 28.9746 2.5689L27.5138 5.51568L22.4717 4.04646Z" fill="#F7C06E"/>
<path d="M25.6653 1.4546L25.2886 1.38021L25.061 2.53291L25.4377 2.6073L25.6653 1.4546Z" fill="white"/>
<path d="M24.8278 1.69041L24.7534 2.06714L25.9061 2.29475L25.9805 1.91803L24.8278 1.69041Z" fill="white"/>
<path d="M27.2706 9.65206C26.6633 10.5265 26.1061 10.4055 26.1061 10.4055C25.9234 10.7375 25.6856 11.036 25.4028 11.2882C25.3026 14.0159 26.1061 14.7526 26.1061 14.7526C25.2713 16.0402 24.2403 16.0047 23.1969 15.6291C22.1534 15.2534 22.0991 14.4354 22.0991 14.4354C23.0424 13.9721 23.055 13.2458 22.9193 12.7491C22.8653 12.5568 22.7852 12.3729 22.6814 12.2023C20.9096 11.7161 20.3983 10.0173 20.5193 8.4145C20.5942 7.44236 20.8327 6.48985 21.2247 5.59711L22.2682 4.01729L26.3482 4.85207L26.5673 7.01415L25.7325 8.61693C27.2038 7.52963 27.8842 8.76719 27.2706 9.65206Z" fill="#B55B52"/>
<path d="M22.4716 9.63118C22.3725 9.63173 22.2734 9.62475 22.1753 9.61032C22.1658 9.60867 22.1568 9.60518 22.1487 9.60004C22.1406 9.59491 22.1336 9.58822 22.1281 9.58037C22.1225 9.57252 22.1186 9.56366 22.1165 9.5543C22.1144 9.54493 22.1142 9.53525 22.1158 9.52579C22.1175 9.51634 22.121 9.5073 22.1261 9.4992C22.1312 9.49109 22.1379 9.48407 22.1458 9.47855C22.1536 9.47303 22.1625 9.4691 22.1718 9.467C22.1812 9.4649 22.1909 9.46467 22.2003 9.46632C22.2003 9.46632 23.2438 9.64788 23.6925 8.87571C23.6973 8.86735 23.7037 8.86002 23.7113 8.85413C23.719 8.84824 23.7277 8.84391 23.737 8.8414C23.7463 8.83888 23.756 8.83821 23.7656 8.83945C23.7751 8.84068 23.7843 8.84378 23.7927 8.84858C23.801 8.85337 23.8084 8.85977 23.8143 8.8674C23.8202 8.87503 23.8245 8.88374 23.827 8.89305C23.8295 8.90235 23.8302 8.91206 23.829 8.92161C23.8277 8.93117 23.8246 8.94039 23.8198 8.94875C23.4755 9.53727 22.839 9.63118 22.4716 9.63118Z" fill="#263238"/>
<path d="M22.1867 8.6774C22.2305 8.6774 22.4079 7.34592 22.4079 7.34592L21.4604 8.4854C21.5581 8.57193 21.6746 8.63437 21.8008 8.66771C21.9269 8.70105 22.0591 8.70437 22.1867 8.6774Z" fill="#A02724"/>
<path d="M23.6539 7.3732C23.631 7.53807 23.5287 7.6612 23.4265 7.64659C23.3242 7.63198 23.2595 7.48589 23.2825 7.32102C23.3054 7.15616 23.4077 7.03094 23.5099 7.04555C23.6122 7.06016 23.6769 7.20624 23.6539 7.3732Z" fill="#263238"/>
<path d="M21.6373 7.18942C21.6144 7.35429 21.5121 7.47742 21.4099 7.46281C21.3076 7.4482 21.2429 7.3042 21.2659 7.13725C21.2888 6.97029 21.3911 6.84925 21.4933 6.86386C21.5956 6.87847 21.6707 7.02247 21.6373 7.18942Z" fill="#263238"/>
<path d="M24.4695 6.62595C24.451 6.62574 24.433 6.62035 24.4175 6.61038C24.402 6.60042 24.3897 6.58628 24.3818 6.56961C24.1335 6.04161 23.7829 6.11048 23.7683 6.11256C23.744 6.11616 23.7193 6.11057 23.699 6.09688C23.6787 6.08319 23.6643 6.0624 23.6585 6.03859C23.6528 6.01478 23.6561 5.98969 23.6679 5.96823C23.6797 5.94678 23.6992 5.93052 23.7223 5.92265C23.7432 5.92265 24.2399 5.80578 24.5571 6.48613C24.5627 6.49789 24.5659 6.51066 24.5665 6.52367C24.5672 6.53669 24.5652 6.5497 24.5607 6.56194C24.5562 6.57418 24.5494 6.5854 24.5405 6.59496C24.5317 6.60452 24.521 6.61222 24.5091 6.61761C24.4967 6.62324 24.4831 6.62609 24.4695 6.62595Z" fill="#263238"/>
<path d="M20.9943 6.27541C20.982 6.27551 20.9697 6.27316 20.9582 6.26851C20.9468 6.26385 20.9364 6.25698 20.9276 6.24828C20.9183 6.23933 20.911 6.22863 20.906 6.2168C20.901 6.20497 20.8984 6.19225 20.8984 6.17941C20.8984 6.16657 20.901 6.15385 20.906 6.14202C20.911 6.13019 20.9183 6.11949 20.9276 6.11054C20.9526 6.0855 21.5119 5.51367 22.2173 5.79541C22.2294 5.80003 22.2404 5.807 22.2498 5.81591C22.2592 5.82482 22.2667 5.8355 22.272 5.84733C22.2772 5.85917 22.28 5.87192 22.2803 5.88486C22.2806 5.89779 22.2783 5.91066 22.2736 5.92272C22.2635 5.9469 22.2442 5.96614 22.22 5.97628C22.1958 5.98643 22.1686 5.98668 22.1442 5.97698C21.5578 5.74324 21.0757 6.23993 21.0695 6.24619C21.06 6.25646 21.0483 6.26442 21.0353 6.26949C21.0223 6.27455 21.0083 6.27658 20.9943 6.27541Z" fill="#263238"/>
<path opacity="0.2" d="M23.5926 12.0917C23.4294 12.3605 23.2002 12.5832 22.9269 12.7387C22.8729 12.5464 22.7928 12.3625 22.689 12.1919C22.9939 12.2213 23.3016 12.1872 23.5926 12.0917Z" fill="black"/>
<path d="M26.1551 5.03576C26.1551 5.03576 22.6344 5.97698 21.232 5.47819C19.8295 4.97941 20.32 3.25559 20.5099 3.09281C20.7687 2.87159 21.3321 3.78568 21.3321 3.78568C21.3321 3.78568 20.8709 2.80689 21.232 2.59194C21.593 2.37698 21.6493 3.84411 22.9641 3.68968C24.2789 3.53524 27.9227 2.54394 28.1377 4.83541C28.2667 6.20823 28.0448 7.59132 27.4928 8.85488C27.4928 8.85488 27.2987 7.60271 25.7481 8.59819C25.7481 8.59819 25.2326 8.23089 25.7481 7.72584C26.6455 6.85141 26.3325 5.7015 26.1551 5.03576Z" fill="#263238"/>
<path d="M25.7816 4.85205C25.7816 4.85205 25.1702 6.85136 26.295 6.75536C27.4199 6.65936 26.7291 4.5724 26.7291 4.5724L25.7816 4.85205Z" fill="#263238"/>
<path d="M22.8231 3.80856C22.8231 3.80856 22.0885 3.26804 22.2763 2.87569C22.4642 2.48334 22.7563 3.43082 24.2193 3.2576C25.6822 3.08439 27.4186 2.95291 27.74 3.92334C28.0614 4.89378 24.8182 4.15499 24.8182 4.15499L22.8189 4.58491L22.8231 3.80856Z" fill="#263238"/>
<path d="M22.5712 27.6958L21.1583 27.2972C21.1583 27.2972 19.4888 27.195 19.3489 27.8315C19.2091 28.468 19.1402 29.5657 19.8039 29.6534C20.4675 29.7411 22.5336 29.6117 22.5336 29.6117L22.5712 27.6958Z" fill="#B55B52"/>
<path d="M27.391 17.9999L29.6679 15.9672C29.6679 15.9672 32.4874 22.2281 32.646 24.6343C32.8046 27.0406 30.9451 28.1216 29.3695 28.5265C27.7938 28.9314 22.5723 30.0103 22.5723 30.0103L22.2905 27.1053C22.2905 27.1053 27.8523 26.1557 29.9935 25.1728C29.9851 25.179 28.0589 19.5756 27.391 17.9999Z" fill="#F7C06E"/>
<path opacity="0.1" d="M22.5728 30.0166L27.836 28.8917L27.8507 29.6848L22.5728 30.0166Z" fill="black"/>
<path d="M23.2036 15.6186L23.8026 17.2005C24.7541 16.5 25.6298 15.7019 26.4154 14.8193L25.5473 13.3731C25.5473 13.3731 24.7521 14.955 23.2036 15.6186Z" fill="#FAFAFA"/>
<path d="M22.7633 13.8885C22.7806 14.4904 22.9302 15.0811 23.2015 15.6186L22.5483 17.0795C22.2176 16.7445 21.9656 16.3403 21.8104 15.896C21.6552 15.4517 21.6007 14.9784 21.6509 14.5104L22.7633 13.8885Z" fill="#FAFAFA"/>
</svg>
