<svg xmlns="http://www.w3.org/2000/svg" xmlns:xlink="http://www.w3.org/1999/xlink" width="306" height="214" viewBox="0 0 306 214">
  <defs>
    <style>
      .cls-1 {
        clip-path: url(#clip-ServiceUnavilable-dark);
      }

      .cls-2 {
        fill: #3f3d56;
      }

      .cls-3, .cls-5 {
        fill: #fff;
      }

      .cls-3, .cls-4 {
        opacity: 0.1;
      }

      .cls-6 {
        fill: #2f2e41;
      }

      .cls-7 {
        fill: #707070;
      }

      .cls-8 {
        fill: #878787;
      }

      .cls-9 {
        fill: #ffb8b8;
      }

      .cls-10 {
        fill: rgba(255,255,255,0);
      }
    </style>
    <clipPath id="clip-ServiceUnavilable-dark">
      <rect width="306" height="214"/>
    </clipPath>
  </defs>
  <g id="ServiceUnavilable-dark" class="cls-1">
    <rect class="cls-10" width="306" height="214"/>
    <g id="Group_63" data-name="Group 63" transform="translate(25.59 3.68)">
      <path id="Path_98" data-name="Path 98" class="cls-2" d="M491.565,637.494c4.457,15.865-38.44,52.113-113.911,31.878-60.765-16.292-113.911-23.193-113.911-31.878s51,.425,113.911.425S489.216,629.132,491.565,637.494Z" transform="translate(-250.276 -467.598)"/>
      <path id="Path_99" data-name="Path 99" class="cls-3" d="M491.565,637.494c4.457,15.865-38.44,52.113-113.911,31.878-60.765-16.292-113.911-23.193-113.911-31.878s51,.425,113.911.425S489.216,629.132,491.565,637.494Z" transform="translate(-250.276 -467.598)"/>
      <path id="Path_100" data-name="Path 100" class="cls-2" d="M491.565,614.132c4.457,15.865-38.44,35.961-113.911,15.726-60.765-16.292-113.911-7.041-113.911-15.726s51-15.727,113.911-15.727S489.216,605.77,491.565,614.132Z" transform="translate(-250.276 -444.237)"/>
      <ellipse id="Ellipse_21" data-name="Ellipse 21" class="cls-4" cx="8.81" cy="3.05" rx="8.81" ry="3.05" transform="translate(155.196 175.189)"/>
      <ellipse id="Ellipse_22" data-name="Ellipse 22" class="cls-4" cx="8.81" cy="3.05" rx="8.81" ry="3.05" transform="translate(191.115 175.189)"/>
      <ellipse id="Ellipse_23" data-name="Ellipse 23" class="cls-4" cx="28.803" cy="7.794" rx="28.803" ry="7.794" transform="translate(98.607 156.891)"/>
      <path id="Path_101" data-name="Path 101" class="cls-2" d="M478.82,284.4V143.44H224V284.4H341.583v18.844c-5.873.7-9.827,2.016-9.827,3.521,0,2.246,8.8,4.066,19.654,4.066s19.654-1.821,19.654-4.066c0-1.5-3.954-2.818-9.827-3.521V284.4Z" transform="translate(-224 -143.44)"/>
      <rect id="Rectangle_46" data-name="Rectangle 46" class="cls-5" width="228.389" height="126.343" transform="translate(13.215 4.939)"/>
      <path id="Path_102" data-name="Path 102" class="cls-4" d="M491.389,158.44s-94.88,9.827-112.162,47.779S263,284.495,263,284.495H491.389Z" transform="translate(-249.785 -153.357)"/>
      <path id="Path_103" data-name="Path 103" class="cls-6" d="M740.84,336.44v9.369H705.771v-8.8h-1.017V449.279h1.017v-20.1H740.84v20.1h1.017V336.44Zm0,10.385V362.28H705.771V346.825Zm-35.069,48.4V379.768H740.84v15.454Zm35.069,1.017v15.454H705.771V396.238Zm-35.069-17.487V363.3H740.84v15.455Zm0,49.413V412.709H740.84v15.455Z" transform="translate(-541.847 -271.04)"/>
      <path id="Path_104" data-name="Path 104" class="cls-7" d="M671.6,343.023v1.4a2.006,2.006,0,0,0-1,2.006c0,1.6-.8,7.623-.8,7.623s1.4,1.2,2.608.8a4.9,4.9,0,0,0,1.805-1l.2-6.219-.8-1.6v-2.809Z" transform="translate(-518.733 -275.392)"/>
      <path id="Path_105" data-name="Path 105" class="cls-8" d="M776.125,178.44s-3.489.4-3.489,2.006-2.791,7.623-2.791,7.623a31.977,31.977,0,0,0,9.071.8,38.614,38.614,0,0,0,6.28-1l.7-6.219-2.791-1.6Z" transform="translate(-584.882 -166.58)"/>
      <path id="Path_106" data-name="Path 106" class="cls-9" d="M785.217,196v-3.812s-4.213-8.426-.8-8.426,3.812,7.623,3.812,7.623v5.417Z" transform="translate(-593.633 -170.102)"/>
      <path id="Path_107" data-name="Path 107" class="cls-9" d="M676.146,336.651s-2.207-1.2-2.608,0-1.6,3.812,0,4.012a4.872,4.872,0,0,0,3.21-1.2Z" transform="translate(-520.673 -270.826)"/>
      <path id="Path_108" data-name="Path 108" class="cls-6" d="M714.077,358.405s-1.208,1.6.545,17.16.743,26.9,4.07,26.742c0,0-.868,3.375,1.959,3.5s4.119.321,4.339-.459.565-4.387-.2-4.351c0,0,.048,1.024.368-3.1s-.587-23.57.573-26.189l4.537,9.278s.2,4.351,1.067,6.363,2.693,13.725,2.693,13.725l-.172,1.8s6.19.737,6.4-.3a6.154,6.154,0,0,0-.143-3.071c-.28-.5-.28-.5.184-1.548a3.1,3.1,0,0,0,.136-2.571c-.292-.756-1.068-17.392-1.068-17.392s-1.456-20.2-4.575-21.075S714.077,358.405,714.077,358.405Z" transform="translate(-547.743 -284.454)"/>
      <path id="Path_109" data-name="Path 109" class="cls-6" d="M722.231,495.659l-1.88,3.679s-3.253-1-2.476,1.911a51.2,51.2,0,0,0,9.336-.564s1.3.452,1.524-.328-.8-3.425-1.569-3.389A37.134,37.134,0,0,1,722.231,495.659Z" transform="translate(-550.443 -376.307)"/>
      <path id="Path_110" data-name="Path 110" class="cls-6" d="M772.2,488.412s-1.832,4.7-1.053,4.923,7.738.921,8.262,1.153,3.1.368,3.279-1.179a1.884,1.884,0,0,0-1.375-1.988,4.836,4.836,0,0,1-3.727-2.9C776.7,485.893,772.2,488.412,772.2,488.412Z" transform="translate(-585.615 -370.776)"/>
      <circle id="Ellipse_24" data-name="Ellipse 24" class="cls-9" cx="5.359" cy="5.359" r="5.359" transform="translate(163.852 25.079)"/>
      <path id="Path_111" data-name="Path 111" class="cls-9" d="M715.033,237.97s1.41,7.333.846,8.743,7.9-.564,7.9-.564-1.692-7.333-1.41-9.025S715.033,237.97,715.033,237.97Z" transform="translate(-548.643 -204.993)"/>
      <path id="Path_112" data-name="Path 112" class="cls-6" d="M710.963,213.636a3.029,3.029,0,0,0-1.341.059,3.5,3.5,0,0,0-.953.625,11.147,11.147,0,0,1-1.629,1.079,3.8,3.8,0,0,0-1.267.888,2.7,2.7,0,0,0-.358.677,8.113,8.113,0,0,0-.427,4.416,2.03,2.03,0,0,0,.188.606c.293.54.941.753,1.486,1.036a12.7,12.7,0,0,1,2.67,2.243,5.218,5.218,0,0,0,1.055.813,6.262,6.262,0,0,0,4.053.212.73.73,0,0,0,.729-.737l1.074-4.829a7.879,7.879,0,0,0,.275-2.2,6.25,6.25,0,0,0-1.57-3.629C713.946,213.929,712.273,213.775,710.963,213.636Z" transform="translate(-541.916 -189.817)"/>
      <path id="Path_113" data-name="Path 113" class="cls-7" d="M699.884,260.365s.4-2.809,2.809-3.009a19.847,19.847,0,0,0,4.012-.8c.2,0,2.809.2,4.012,1.4,0,0,.8,1.2,1.2.4s.4-1.2,1.2-.8.8-1.2,2.207-1,5.015,9.228,5.015,9.228l-1.2,1.4s-1.6,10.833,1.2,15.447,4.012,9.629,1.2,10.632-22.469,10.031-21.666,4.413.2-14.444-.6-14.645-5.216-16.049-5.216-16.049a6.231,6.231,0,0,1,3.611-4.614C700.887,260.967,699.884,260.365,699.884,260.365Z" transform="translate(-534.781 -218.212)"/>
      <path id="Path_114" data-name="Path 114" class="cls-7" d="M753.86,230.773l1-.8s1.806,0,2.006-.4,1.2-.4,2.006-.8-.2-1,.8-1.4,1,0,1-1,2.608-2.006,2.809-3.21,2.207-6.821,2.207-6.821l3.812,1.2-1,7.222a11.485,11.485,0,0,1-1.805,6.018c-1.805,2.407-5.818,8.426-7.824,8.626S753.86,230.773,753.86,230.773Z" transform="translate(-574.313 -191.63)"/>
      <path id="Path_115" data-name="Path 115" class="cls-7" d="M687.05,284.412l-1.2,1s-.4,4.413-.4,4.614.4,2.608,0,2.809-1.2,4.213-1,4.413h0v.6l-2.809,4.413v4.213l6.62-4.213s3.812-.4,3.21-3.812S687.05,284.412,687.05,284.412Z" transform="translate(-526.561 -236.642)"/>
      <circle id="Ellipse_25" data-name="Ellipse 25" class="cls-8" cx="3.727" cy="3.727" r="3.727" transform="translate(123.683 133.51)"/>
    </g>
  </g>
</svg>
