<?xml version="1.0" encoding="UTF-8"?>
<svg width="40px" height="40px" viewBox="0 0 40 40" version="1.1" xmlns="http://www.w3.org/2000/svg" xmlns:xlink="http://www.w3.org/1999/xlink">
    <title>general discussion</title>
    <g id="Page-1" stroke="none" stroke-width="1" fill="none" fill-rule="evenodd">
        <g id="announcement-copy">
            <path d="M40.0002,20.0002 C40.0002,31.0452 31.0452,40.0002 20.0002,40.0002 C8.9542,40.0002 0.0002,31.0452 0.0002,20.0002 C0.0002,8.9542 8.9542,0.0002 20.0002,0.0002 C31.0452,0.0002 40.0002,8.9542 40.0002,20.0002" id="Fill-1" fill="#C9E3E6"></path>
            <g id="Group-9" transform="translate(9.000000, 10.000000)" stroke="#3E777E" stroke-linecap="round" stroke-linejoin="round" stroke-width="1.5">
                <path d="M15.4134896,6.67952982 L15.4134896,15.9594296 C15.4134896,16.5597296 14.9220896,17.0511295 14.3217896,17.0511295 L8.86328977,17.0511295 L3.9501899,20.3262295 L3.9501899,17.0511295 L1.76678995,17.0511295 C1.16648997,17.0511295 0.675089982,16.5597296 0.675089982,15.9594296 L0.675089982,6.67952982 C0.675089982,6.07922984 1.16648997,5.58782985 1.76678995,5.58782985 L14.3217896,5.58782985 C14.9220896,5.58782985 15.4134896,6.07922984 15.4134896,6.67952982 Z" id="Stroke-1"></path>
                <path d="M21.9639594,1.76687995 L21.9639594,11.0467797 C21.9639594,11.6470797 21.4725594,12.1384797 20.8722594,12.1384797 L18.6888595,12.1384797 L18.6888595,15.4135796 L15.4137596,13.2301796 L15.4137596,6.67907982 C15.4137596,6.07967984 14.9223596,5.58827985 14.3220596,5.58827985 L7.22555981,5.58827985 L7.22555981,1.76687995 C7.22555981,1.16657997 7.7169598,0.675179982 8.31725978,0.675179982 L20.8722594,0.675179982 C21.4725594,0.675179982 21.9639594,1.16657997 21.9639594,1.76687995 Z" id="Stroke-3"></path>
                <line x1="3.9503699" y1="10.5005697" x2="12.1385697" y2="10.5005697" id="Stroke-5"></line>
                <line x1="3.9503699" y1="13.7757596" x2="8.86256977" y2="13.7757596" id="Stroke-7"></line>
            </g>
        </g>
    </g>
</svg>