<svg width="268" height="92" viewBox="0 0 268 92" fill="none" xmlns="http://www.w3.org/2000/svg">
<path d="M29.2079 48.4128C29.1215 47.9137 29.0351 47.3314 29.0351 46.7491V46.4996L0.172828 48.7455H0L0.172828 50.8251L29.2944 48.5792L29.2079 48.4128Z" fill="#7B6961"/>
<path d="M33.0081 34.9372C33.1809 34.6877 33.3537 34.5213 33.5266 34.2717C33.6994 34.0222 33.8722 33.8558 34.1315 33.6063L34.3043 33.4399L12.4415 14.9733L12.2687 14.8069L10.7997 16.3874L32.8353 35.1036L33.0081 34.9372Z" fill="#7B6961"/>
<path d="M30.2442 52.2395C30.0714 51.7404 29.8985 51.1581 29.7257 50.659L29.6393 50.4095L2.07322 58.7278L1.90039 58.811L2.5917 60.8074L30.3306 52.4059L30.2442 52.2395Z" fill="#7B6961"/>
<path d="M29.731 41.1755L29.8174 40.926C29.9902 40.4269 30.1631 39.8446 30.3359 39.3455L30.4223 39.1791L2.7698 29.6962L2.07849 31.6094L29.5582 41.0923L29.731 41.1755Z" fill="#7B6961"/>
<path d="M29.1211 44.6696V44.42C29.2075 43.8378 29.2075 43.3387 29.3803 42.7564V42.5068L0.690848 38.5972H0.51802L0.172363 40.6768L28.8618 44.6696H29.1211Z" fill="#7B6961"/>
<path d="M53.406 28.948L53.5788 29.0312C54.0973 29.1976 54.6158 29.4471 55.1343 29.6135L55.3071 29.6967L66.1089 3.8267L66.1953 3.66033L64.2078 2.91168L53.4924 28.6985L53.406 28.948Z" fill="#7B6961"/>
<path d="M51.3298 28.4488L51.5889 28.532L56.1676 0.831985V0.665618L54.0078 0.332886L49.3428 27.9497V28.1992H49.6019C50.2067 28.1992 50.725 28.2824 51.3298 28.4488Z" fill="#7B6961"/>
<path d="M56.8578 30.4437L57.0306 30.5268C57.5491 30.7764 57.9812 31.1091 58.4996 31.4419L58.6725 31.6082L74.6591 7.98421L72.8444 6.81964L56.9442 30.1941L56.8578 30.4437Z" fill="#7B6961"/>
<path d="M45.2772 28.1991H45.5363C46.1411 28.1159 46.6594 28.1159 47.2641 28.1159H47.5233L45.8819 0.166366L45.7955 0L43.6357 0.0831832L45.2772 27.9495V28.1991Z" fill="#7B6961"/>
<path d="M35.341 32.5246C35.7731 32.1918 36.2052 31.7759 36.6372 31.5264L36.8101 31.36L19.0088 9.39964L18.8359 9.23328L17.1077 10.481L35.0818 32.6077L35.341 32.5246Z" fill="#7B6961"/>
<path d="M38.0209 30.6112L38.1937 30.528C38.7122 30.2785 39.2307 30.0289 39.7492 29.7794L39.922 29.6962L26.7007 4.57489L24.7996 5.4899L37.9345 30.3617L38.0209 30.6112Z" fill="#7B6961"/>
<path d="M41.6537 29.0312C42.1722 28.8649 42.7771 28.6985 43.2956 28.5321L43.5548 28.449L35.7776 1.41443L33.7036 1.99671L41.4809 29.1144L41.6537 29.0312Z" fill="#7B6961"/>
<path d="M31.0221 37.8487L31.1085 37.6823C31.3678 37.1832 31.627 36.6841 31.9727 36.2682L32.0591 36.1019L7.25827 21.628L6.13489 23.3748L30.8493 37.7655L31.0221 37.8487Z" fill="#7B6961"/>
<path d="M32.144 55.7331L31.9712 55.5667C31.6255 55.0676 31.3663 54.6517 31.107 54.1526L31.0206 53.9862L5.7877 67.7946L5.61487 67.8778L6.65184 69.7078L31.9712 55.8994L32.144 55.7331Z" fill="#7B6961"/>
<path d="M79.5887 12.061L79.4159 11.8947L77.9468 13.4751L78.1197 13.6415C87.0203 21.2943 92.378 31.7754 93.2421 43.2547C94.1063 54.734 90.304 65.8805 82.5268 74.6147C74.6631 83.5153 63.6885 88.9222 51.5905 89.8372C40.7024 90.6691 29.8142 87.6745 21.0864 81.4358C21.7777 80.6871 23.4196 78.6075 23.9381 77.9421C30.9376 82.8499 39.2333 85.5117 47.9612 85.5117C59.9727 85.5117 71.2065 80.5207 78.9838 71.7865C86.0697 63.8009 89.4399 53.6526 88.5758 43.2547C87.7116 33.1064 82.9588 23.7898 75.0088 17.052L74.8359 16.8856L68.8734 23.2076L69.0462 23.3739C82.0083 34.3541 83.3909 53.5694 72.2435 66.2132C66.713 72.452 59.0222 76.1952 50.5536 76.8607C43.0356 77.443 35.5175 75.4466 29.4686 71.2042C29.6414 71.0379 29.8142 70.7883 30.0735 70.4556C30.7648 69.5406 31.9746 68.1264 32.3202 67.7105C37.5051 71.2874 43.8133 72.9511 50.2079 72.452C57.4667 71.8697 64.0342 68.7087 68.7005 63.385C78.2925 52.5712 76.9963 36.1841 65.9353 26.7844L65.676 26.4517L59.7135 32.7736L59.8863 32.94C63.5157 35.9346 65.7625 40.1769 66.1945 44.8352C66.5402 49.4934 65.0711 54.0685 61.8738 57.5622C58.6765 61.1391 54.2694 63.3018 49.4302 63.6346C44.6774 63.9673 40.0111 62.5532 36.3817 59.6418L36.2089 59.4754L34.9126 61.1391L35.0855 61.3054C43.6405 68.0433 56.3433 66.9619 63.5157 58.8931C67.0587 54.9003 68.7869 49.8262 68.3549 44.5856C68.0092 40.0106 65.9353 35.685 62.6515 32.4409C63.17 31.8586 65.1576 29.779 65.7625 29.1967C74.8359 38.0142 75.4408 52.2385 67.0587 61.7213C62.738 66.6292 56.689 69.5406 50.0351 70.0397C43.554 70.5388 37.3322 68.6256 32.3202 64.7159L32.1474 64.5496L26.5305 71.537L26.7033 71.7033C33.53 76.9439 41.9986 79.5225 50.7264 78.8571C59.7999 78.1916 68.0092 74.1156 73.8854 67.461C85.4649 54.4012 84.5143 34.8532 71.8114 22.8748C72.1571 22.5421 72.9348 21.6271 73.7125 20.8784C74.4039 20.213 74.7495 19.7971 74.9223 19.6307C89.4399 33.1895 90.5633 55.4826 77.3419 70.3724C70.7745 77.7757 61.6146 82.3508 51.5905 83.2658C41.5665 84.1808 31.7153 81.3526 23.8516 75.2802L23.6788 75.1138L18.2347 81.7685L18.1483 81.8517L18.3211 82.018C26.7897 88.5895 37.073 92 47.8747 92C49.171 92 50.4672 91.9168 51.677 91.8336C64.3798 90.8354 75.8729 85.179 84.0822 75.8625C92.2051 66.7123 96.1802 55.0667 95.3161 43.0051C94.5383 31.0268 88.9214 20.0466 79.5887 12.061Z" fill="#7B6961"/>
<path d="M34.6552 58.6438L34.4824 58.4774C34.0503 58.0615 33.7046 57.6456 33.359 57.2297L33.1862 57.0633L11.7555 75.6963L11.5826 75.8627L13.0517 77.4432L34.4824 58.8933L34.6552 58.6438Z" fill="#7B6961"/>
<path d="M123.456 26.8073H125.132V25.9377C125.132 20.5958 122.296 18.8565 118.299 18.8565C114.045 18.8565 111.208 21.0927 111.208 21.0927L110.048 19.4777C110.048 19.4777 113.013 16.8688 118.428 16.8688C124.101 16.8688 127.195 19.9746 127.195 25.9377V41.3424H125.132V38.2366C125.132 36.9943 125.39 36.1247 125.39 36.1247H125.261C125.261 36.1247 123.069 41.9635 116.623 41.9635C112.626 41.9635 108.243 39.8516 108.243 35.0066C108.114 26.9316 119.073 26.8073 123.456 26.8073ZM116.623 40.1001C122.038 40.1001 125.132 34.7581 125.132 30.0373V28.795H123.585C119.331 28.795 110.435 28.795 110.435 35.0066C110.306 37.4912 112.498 40.1001 116.623 40.1001Z" fill="#7B6961" stroke="#7B6961" stroke-width="0.198209" stroke-miterlimit="10"/>
<path d="M148.345 26.8073H150.021V25.9377C150.021 20.5958 147.184 18.8565 143.188 18.8565C138.933 18.8565 136.097 21.0927 136.097 21.0927L134.936 19.4777C134.936 19.4777 137.902 16.8688 143.316 16.8688C148.989 16.8688 152.083 19.9746 152.083 25.9377V41.3424H150.021V38.2366C150.021 36.9943 150.278 36.1247 150.278 36.1247H150.15C150.15 36.1247 147.958 41.9635 141.511 41.9635C137.515 41.9635 133.131 39.8516 133.131 35.0066C133.002 26.9316 143.961 26.8073 148.345 26.8073ZM141.511 40.1001C146.926 40.1001 150.021 34.7581 150.021 30.0373V28.795H148.474C144.219 28.795 135.323 28.795 135.323 35.0066C135.194 37.4912 137.386 40.1001 141.511 40.1001Z" fill="#7B6961" stroke="#7B6961" stroke-width="0.198209" stroke-miterlimit="10"/>
<path d="M159.171 36.9939C159.171 36.9939 161.879 39.9754 166.778 39.9754C169.743 39.9754 172.451 38.4847 172.451 35.5031C172.451 29.4158 158.785 31.155 158.785 23.4527C158.785 19.2288 162.523 16.9927 166.649 16.9927C171.677 16.9927 173.998 19.6015 173.998 19.6015L172.709 21.2165C172.709 21.2165 170.646 18.9804 166.52 18.9804C163.684 18.9804 160.976 20.2227 160.976 23.3285C160.976 29.54 174.643 27.6766 174.643 35.6273C174.643 39.4785 171.29 42.0874 166.778 42.0874C160.847 42.0874 157.882 38.6089 157.882 38.6089L159.171 36.9939Z" fill="#7B6961" stroke="#7B6961" stroke-width="0.198209" stroke-miterlimit="10"/>
<path d="M181.864 19.4778H178.641V17.6144H181.864V10.9059H183.927V17.6144H190.373V19.4778H183.927V32.6463C183.927 38.9821 187.795 39.7275 189.857 39.7275C190.502 39.7275 191.018 39.6033 191.018 39.6033V41.4667C191.018 41.4667 190.502 41.591 189.728 41.591C187.15 41.591 181.864 40.7214 181.864 32.7706V19.4778Z" fill="#7B6961" stroke="#7B6961" stroke-width="0.198209" stroke-miterlimit="10"/>
<path d="M118.643 16.4897C116.915 16.4897 115.359 16.7393 113.89 17.2384C112.421 17.7375 111.471 18.1534 110.952 18.403C110.52 18.6525 110.261 18.9021 110.002 19.0684L109.656 19.318L111.211 21.4807L112.248 20.7321C113.458 19.9003 116.051 19.0684 118.384 19.0684C122.791 19.0684 124.951 21.3144 124.951 25.9726V26.4717H123.742C121.927 26.4717 121.063 26.4717 118.729 26.7213C116.396 26.8876 114.927 27.2204 112.853 28.0522C109.57 29.3831 107.928 31.7954 107.928 35.0396C107.928 37.3687 108.792 39.1987 110.607 40.5297C112.335 41.7774 114.409 42.3597 116.742 42.3597C120.112 42.3597 122.445 40.7792 123.742 39.3651C124.346 38.6996 124.778 38.1174 125.124 37.5351L125.038 38.2837V41.7774H127.803V25.8894C127.803 19.7339 124.692 16.4897 118.643 16.4897ZM125.124 28.9672V29.9654C125.124 32.4609 124.346 34.79 122.791 36.8696C121.322 38.866 119.334 39.8642 116.828 39.8642C112.853 39.8642 110.779 37.3687 110.779 34.8732C110.52 31.4627 114.322 30.0486 115.532 29.7159C116.31 29.4663 117.26 29.2168 118.47 29.1336C119.594 28.9672 120.458 28.9672 121.236 28.9672C121.84 28.884 122.705 28.884 123.742 28.884H125.124V28.9672Z" fill="#7B6961"/>
<path d="M143.619 16.4897C141.89 16.4897 140.335 16.7393 138.866 17.2384C137.397 17.7375 136.446 18.1534 135.928 18.403C135.496 18.6525 135.237 18.9021 134.977 19.0684L134.632 19.318L136.187 21.4807L137.224 20.7321C138.434 19.9003 141.026 19.0684 143.36 19.0684C147.767 19.0684 149.927 21.3144 149.927 25.9726V26.4717H148.631C146.816 26.4717 145.952 26.4717 143.619 26.7213C141.286 26.8876 139.817 27.2204 137.743 28.0522C134.459 29.3831 132.817 31.7954 132.817 35.0396C132.817 37.3687 133.681 39.1987 135.496 40.5297C137.224 41.7774 139.298 42.3597 141.631 42.3597C145.001 42.3597 147.335 40.7792 148.631 39.3651C149.236 38.6996 149.668 38.1174 150.013 37.5351L149.927 38.2837V41.7774H152.692V25.8894C152.779 19.7339 149.668 16.4897 143.619 16.4897ZM150.1 28.9672V29.9654C150.1 32.4609 149.322 34.79 147.767 36.8696C146.298 38.866 144.31 39.8642 141.804 39.8642C137.829 39.8642 135.755 37.3687 135.755 34.8732C135.496 31.4627 139.298 30.0486 140.508 29.7159C141.286 29.4663 142.236 29.2168 143.446 29.1336C144.569 28.9672 145.433 28.9672 146.211 28.9672C146.816 28.884 147.68 28.884 148.717 28.884H150.1V28.9672Z" fill="#7B6961"/>
<path d="M167.036 27.8858L166.344 27.6363C163.233 26.4717 161.678 24.9744 161.678 23.1444C161.678 20.1498 164.443 19.0684 167.036 19.0684C169.542 19.0684 171.961 20.1498 172.393 20.6489L173.344 21.4807L174.986 19.318L174.035 18.4861C173.085 17.6543 170.319 16.4897 167.122 16.4897C164.789 16.4897 162.801 17.072 161.246 18.3198C159.604 19.4843 158.826 21.148 158.826 23.3108C158.826 27.8858 163.579 29.5495 167.381 30.8804L167.986 31.0468C171.097 32.1282 172.653 33.6255 172.653 35.4555C172.653 37.951 170.492 39.6978 167.208 39.6978C165.826 39.6978 164.443 39.4483 163.061 38.866C161.678 38.2837 160.9 37.8678 160.555 37.5351C160.209 37.2023 159.863 36.9528 159.69 36.7032L159.431 36.3705L157.616 38.4501L158.74 39.5315C160.122 40.8624 163.579 42.1933 167.036 42.1933C171.961 42.1933 175.331 39.3651 175.331 35.3723C175.504 30.8804 170.838 29.2168 167.036 27.8858Z" fill="#7B6961"/>
<path d="M186.74 38.3658C185.358 37.3676 184.58 35.2881 184.58 32.6262V19.6496H191.147V17.1541H184.58V10.3331H181.815V17.1541H178.531V19.6496H181.815V32.7094C181.815 41.0277 187.604 41.9427 190.11 41.9427C190.629 41.9427 191.061 41.8595 191.407 41.8595H191.666V39.364L190.197 39.5304C189.074 39.4472 188.037 39.2809 186.74 38.3658Z" fill="#7B6961"/>
<path d="M199.615 22.145V17.0708H196.849V41.7762H199.615V31.0456C199.615 29.2156 199.874 27.5519 200.392 26.0546C201.689 21.9787 204.281 19.5663 207.565 19.5663C207.91 19.5663 208.256 19.6495 208.688 19.6495L209.034 19.7327V17.0708L207.219 16.9045C204.108 16.8213 201.343 18.8177 199.615 22.145Z" fill="#7B6961"/>
<path d="M216.915 7.41162H213.805V11.5708H216.915V7.41162Z" fill="#7B6961"/>
<path d="M216.81 17.0708H214.046V41.7762H216.81V17.0708Z" fill="#7B6961"/>
<path d="M243.512 17.0721H239.882L231.759 26.555H227.784V7.42285H225.106V41.7775H227.784V29.0505H231.759L240.833 41.7775H244.29L234.093 27.8027L243.512 17.0721Z" fill="#7B6961"/>
<path d="M257.076 16.4897C255.347 16.4897 253.792 16.7393 252.323 17.2384C250.854 17.7375 249.903 18.1534 249.385 18.403C248.953 18.6525 248.694 18.9021 248.434 19.0684L248.089 19.318L249.644 21.4807L250.767 20.7321C251.977 19.9003 254.57 19.0684 256.903 19.0684C261.31 19.0684 263.47 21.3144 263.47 25.9726V26.4717H262.174C260.359 26.4717 259.495 26.4717 257.162 26.7213C254.829 26.8876 253.36 27.2204 251.286 28.0522C248.002 29.3831 246.36 31.7954 246.36 35.0396C246.36 37.3687 247.224 39.1987 249.039 40.5297C250.767 41.7774 252.841 42.3597 255.175 42.3597C258.545 42.3597 260.878 40.7792 262.174 39.3651C262.779 38.6996 263.211 38.1174 263.557 37.5351L263.47 38.2837V41.7774H266.236V25.8894C266.236 19.7339 263.125 16.4897 257.076 16.4897ZM263.47 28.9672V29.9654C263.47 32.4609 262.693 34.79 261.137 36.8696C259.668 38.866 257.681 39.8642 255.175 39.8642C251.2 39.8642 249.126 37.3687 249.126 34.8732C248.866 31.4627 252.669 30.0486 253.965 29.7159C254.743 29.4663 255.693 29.2168 256.903 29.1336C258.026 28.9672 258.89 28.9672 259.668 28.9672C260.273 28.884 261.137 28.884 262.174 28.884H263.47V28.9672Z" fill="#7B6961"/>
<path d="M108.364 63.5258H118.421V66.11H111.605V70.8476H117.416V73.4318H111.605V80.2153H108.476V63.5258H108.364Z" fill="#7B6961" stroke="#7B6961" stroke-width="0.0705623" stroke-miterlimit="10"/>
<path d="M129.039 63.2022C134.179 63.2022 138.09 66.9708 138.09 71.8161C138.09 76.7691 134.179 80.6454 129.039 80.6454C123.899 80.6454 119.988 76.7691 119.988 71.8161C120.1 66.9708 123.899 63.2022 129.039 63.2022ZM129.039 77.8458C132.28 77.8458 134.738 75.2617 134.738 71.8161C134.738 68.4782 132.168 66.0017 129.039 66.0017C125.91 66.0017 123.34 68.4782 123.34 71.8161C123.34 75.2617 125.91 77.8458 129.039 77.8458Z" fill="#7B6961" stroke="#7B6961" stroke-width="0.0705623" stroke-miterlimit="10"/>
<path d="M140.992 63.5258H144.121V74.2932C144.121 76.5543 145.686 77.8464 148.032 77.8464C150.379 77.8464 151.943 76.5543 151.943 74.2932V63.5258H155.072V74.2932C155.072 78.0618 152.278 80.6459 148.032 80.6459C143.786 80.6459 140.992 78.0618 140.992 74.2932V63.5258Z" fill="#7B6961" stroke="#7B6961" stroke-width="0.0705623" stroke-miterlimit="10"/>
<path d="M159.098 63.5258H162.227L168.82 73.2165C169.49 74.1855 170.272 75.8006 170.272 75.8006C170.272 75.8006 170.049 74.1855 170.049 73.2165V63.5258H173.178V80.3229H170.049L163.456 70.6323C162.785 69.6632 162.003 68.0481 162.003 68.0481C162.003 68.0481 162.227 69.6632 162.227 70.6323V80.3229H159.098V63.5258Z" fill="#7B6961" stroke="#7B6961" stroke-width="0.0705623" stroke-miterlimit="10"/>
<path d="M177.646 63.5258H183.568C188.932 63.5258 192.508 66.6484 192.508 71.9244C192.508 77.2004 189.044 80.3229 183.568 80.3229H177.646V63.5258ZM183.457 77.7388C187.032 77.7388 189.267 75.6929 189.267 71.9244C189.267 68.1558 186.921 66.2177 183.457 66.2177H180.887V77.7388H183.457Z" fill="#7B6961" stroke="#7B6961" stroke-width="0.0705623" stroke-miterlimit="10"/>
<path d="M204.239 76.016H198.093L196.64 80.3229H193.4L199.546 63.5258H202.898L209.044 80.3229H205.692L204.239 76.016ZM201.222 66.433C201.222 66.433 200.775 68.0481 200.44 69.0172L198.875 73.5395H203.457L201.892 69.0172C201.669 68.0481 201.222 66.433 201.222 66.433Z" fill="#7B6961" stroke="#7B6961" stroke-width="0.0705623" stroke-miterlimit="10"/>
<path d="M213.736 66.11H208.037V63.5258H222.675V66.11H216.865V80.3229H213.736V66.11Z" fill="#7B6961" stroke="#7B6961" stroke-width="0.0705623" stroke-miterlimit="10"/>
<path d="M224.795 63.5258H227.923V80.3229H224.795V63.5258Z" fill="#7B6961" stroke="#7B6961" stroke-width="0.0705623" stroke-miterlimit="10"/>
<path d="M240.107 63.2022C245.247 63.2022 249.158 66.9708 249.158 71.8161C249.158 76.7691 245.247 80.6454 240.107 80.6454C234.967 80.6454 231.056 76.7691 231.056 71.8161C231.056 66.9708 234.967 63.2022 240.107 63.2022ZM240.107 77.8458C243.348 77.8458 245.806 75.2617 245.806 71.8161C245.806 68.4782 243.236 66.0017 240.107 66.0017C236.867 66.0017 234.408 68.4782 234.408 71.8161C234.408 75.2617 236.867 77.8458 240.107 77.8458Z" fill="#7B6961" stroke="#7B6961" stroke-width="0.0705623" stroke-miterlimit="10"/>
<path d="M252.179 63.5258H255.308L261.901 73.2165C262.571 74.1855 263.354 75.8006 263.354 75.8006C263.354 75.8006 263.13 74.1855 263.13 73.2165V63.5258H266.259V80.3229H263.13L256.537 70.6323C255.867 69.6632 255.085 68.0481 255.085 68.0481C255.085 68.0481 255.308 69.6632 255.308 70.6323V80.3229H252.179V63.5258Z" fill="#7B6961" stroke="#7B6961" stroke-width="0.0705623" stroke-miterlimit="10"/>
<path d="M266.431 50.4103H107.271C106.504 50.4103 105.993 51.0316 105.993 51.653C105.993 52.3986 106.632 52.8957 107.271 52.8957H266.431C267.199 52.8957 267.71 52.2743 267.71 51.653C267.71 50.9074 267.199 50.4103 266.431 50.4103Z" fill="#EFB84A"/>
<path fill-rule="evenodd" clip-rule="evenodd" d="M105.703 51.653C105.703 50.895 106.325 50.1287 107.271 50.1287L266.431 50.1287C266.881 50.1287 267.278 50.2756 267.564 50.553C267.849 50.8304 268 51.2163 268 51.653C268 52.411 267.377 53.1772 266.431 53.1772H107.271C106.491 53.1772 105.703 52.5719 105.703 51.653ZM107.271 50.6918C106.683 50.6918 106.283 51.1683 106.283 51.653C106.283 52.2253 106.773 52.6141 107.271 52.6141H266.431C267.02 52.6141 267.42 52.1377 267.42 51.653C267.42 51.3441 267.315 51.1086 267.153 50.951C266.991 50.7935 266.749 50.6918 266.431 50.6918H107.271Z" fill="#EFB84A"/>
</svg>
