<svg width="48" height="48" viewBox="0 0 48 48" fill="none" xmlns="http://www.w3.org/2000/svg">
<path d="M36 45H12C11.2046 44.9992 10.442 44.6829 9.87956 44.1204C9.31712 43.558 9.00079 42.7954 9 42V6C9.00079 5.20459 9.31712 4.44199 9.87956 3.87956C10.442 3.31712 11.2046 3.00079 12 3H36C36.7954 3.00079 37.558 3.31712 38.1204 3.87956C38.6829 4.44199 38.9992 5.20459 39 6V30.927L31.5 27.177L24 30.927V6H12V42H36V36H39V42C38.9988 42.7953 38.6824 43.5577 38.12 44.12C37.5577 44.6824 36.7953 44.9988 36 45ZM31.5 23.823L36 26.073V6H27V26.073L31.5 23.823Z" fill="#14446C"/>
</svg>
