<svg width="33" height="76" viewBox="0 0 33 76" fill="none" xmlns="http://www.w3.org/2000/svg">
<path d="M7.2002 20.512L4.64 19.2347C4.64 19.2347 4.03124 18.4098 3.86625 18.3813C3.70126 18.3529 0.626178 18.7568 0.626178 18.7568C0.626178 18.7568 0.96185 19.7326 1.26338 20.0312C1.56492 20.3299 3.53911 19.9573 3.53911 19.9573L6.0538 21.1947L7.2002 20.512Z" fill="#B97964"/>
<path d="M9.38112 9.07351C10.0667 9.73632 10.7096 10.2455 9.71394 11.1643C8.71831 12.0832 8.90606 13.5994 10.1776 14.2764C11.4492 14.9534 17.8212 17.2662 20.1795 14.6007C22.5377 11.9352 20.7825 10.1118 19.6105 9.614C18.4385 9.11619 19.5679 7.80764 19.676 6.85752C19.7841 5.90741 15.4317 2.02159 13.4006 1.77411C11.3695 1.52662 9.98703 3.27609 10.024 5.05116C10.061 6.82623 8.26032 7.99254 9.38112 9.07351Z" fill="#263238"/>
<path d="M11.8523 13.8981C11.9917 13.8981 11.0701 20 10.8226 20.9131C10.5751 21.8262 5.4746 19.3713 5.4746 19.3713L4.64965 20.6315C4.64965 20.6315 9.11577 24.395 11.0501 23.9739C12.9845 23.5529 14.4268 16.885 14.4268 16.885L11.8523 13.8981Z" fill="#F7C06E"/>
<path opacity="0.7" d="M4.64965 20.6313C4.64965 20.6313 9.11577 24.3948 11.0501 23.9709C11.8239 23.8003 12.5208 22.6226 13.0784 21.2713C13.624 19.8839 14.0652 18.4576 14.3983 17.0044C14.4154 16.9162 14.4268 16.8707 14.4268 16.8707L14.1423 16.5464L13.104 15.3402L11.8523 13.8923C11.9491 14.1284 11.0587 20.0055 10.8169 20.8987C10.5751 21.7919 5.46891 19.3569 5.46891 19.3569L4.64965 20.6313Z" fill="white"/>
<path opacity="0.2" d="M13.081 21.2716C13.6265 19.8841 14.0677 18.4578 14.4009 17.0046C14.3212 16.8453 14.2387 16.6916 14.1505 16.5466C13.8872 16.0801 13.5343 15.6702 13.1122 15.3404L13.0724 15.312C13.0724 15.312 11.963 18.5065 13.081 21.2716Z" fill="black"/>
<path d="M24.8325 34.5958L17.0068 35.7024L15.6101 15.5138L23.4472 16.4469L24.8325 34.5958Z" fill="#F7C06E"/>
<path opacity="0.4" d="M24.8325 34.5958L17.0068 35.7024L15.6101 15.5138L23.4472 16.4469L24.8325 34.5958Z" fill="white"/>
<path d="M20.9654 72.9021H22.8457L22.2682 70.3021L21.7363 67.9154L19.3809 67.5541L20.2172 70.3846L20.9654 72.9021Z" fill="#B97964"/>
<path opacity="0.2" d="M20.2355 70.4414L22.2837 70.3532L21.7432 67.941L19.3821 67.5655L20.2355 70.4414Z" fill="black"/>
<path d="M24.856 72.9021H26.7363L26.1589 70.3021L25.6269 67.9154L23.2715 67.5541L24.1079 70.3846L24.856 72.9021Z" fill="#B97964"/>
<path opacity="0.2" d="M24.1301 70.4414L26.1782 70.3532L25.6377 67.941L23.2767 67.5655L24.1301 70.4414Z" fill="black"/>
<path d="M28.2596 23.2002C28.2596 23.2002 28.3564 23.4022 28.5071 23.7691C29.2154 25.5186 31.1555 31.0458 30.4301 37.452C30.0006 41.2411 25.8132 48.0597 25.1902 51.7748C24.4649 56.1016 26.3651 63.7224 25.8758 69.3179L22.8861 69.5796L21.9843 69.0107L19.4241 68.6266C19.4241 68.6266 12.7505 53.4475 12.8814 48.1991C12.9753 44.0772 19.4241 29.302 19.4241 29.302L18.8097 23.8374" fill="#263238"/>
<path opacity="0.2" d="M21.5138 68.9509L21.986 69.022L22.7512 69.5056C22.2619 67.7988 18.0461 53.0407 17.9722 49.7921C17.8868 46.3387 22.8081 34.0896 22.8081 34.0896L21.5479 31.8138L21.7385 35.2786C21.7385 35.2786 17.0903 44.8026 16.7234 49.7864C16.3621 54.5712 21.1269 67.8756 21.5138 68.9509Z" fill="black"/>
<path d="M23.3763 72.8196C23.3763 72.612 20.8161 72.7741 20.8161 72.7741C20.8161 72.7741 19.2459 74.37 17.724 74.7284C16.2021 75.0868 17.0526 76 18.7537 76H22.9724C24.1813 76 23.4275 74.9702 23.3763 72.8196Z" fill="#263238"/>
<path d="M20.5419 73.1041C20.5498 73.1001 20.5566 73.0943 20.5618 73.0871V73.07C20.5634 73.0625 20.5634 73.0547 20.5618 73.0472C20.5632 73.0387 20.5632 73.0301 20.5618 73.0216C20.5618 72.9903 20.337 72.4015 19.9928 72.2564C19.9409 72.2332 19.8847 72.2212 19.8279 72.2212C19.771 72.2212 19.7148 72.2332 19.6629 72.2564C19.5462 72.3133 19.4893 72.3844 19.495 72.4726C19.495 72.6063 19.6828 72.74 19.8904 72.8509C19.6986 72.8196 19.5019 72.8412 19.3215 72.9135C19.2881 72.9312 19.2589 72.9559 19.2358 72.9858C19.2128 73.0157 19.1964 73.0503 19.1878 73.0871C19.1689 73.1328 19.1645 73.1832 19.1752 73.2316C19.1859 73.2799 19.2111 73.3238 19.2475 73.3573C19.3136 73.4022 19.3925 73.4242 19.4723 73.4199C19.8443 73.3768 20.2061 73.27 20.5419 73.1041ZM20.3086 73.0614C19.9331 73.2208 19.4552 73.3601 19.3443 73.2634C19.3443 73.2634 19.3016 73.2264 19.3272 73.1269C19.333 73.108 19.3425 73.0904 19.3552 73.0753C19.3679 73.0601 19.3836 73.0477 19.4012 73.0387C19.4957 72.9959 19.5991 72.9764 19.7027 72.9818C19.9069 72.9874 20.1099 73.0141 20.3086 73.0614ZM19.953 72.3816C20.1546 72.5111 20.3084 72.7029 20.3911 72.9277C20.0128 72.7855 19.6486 72.5864 19.643 72.4726C19.643 72.4385 19.6998 72.4043 19.734 72.3873C19.7706 72.3701 19.8102 72.3605 19.8506 72.3588C19.8859 72.3596 19.9207 72.3673 19.953 72.3816Z" fill="#F7C06E"/>
<path d="M22.8872 68.5925L18.6629 68.015L19.0156 69.5881L22.5032 70.0262L22.8872 68.5925Z" fill="#F7C06E"/>
<path d="M27.2709 72.8196C27.2709 72.612 24.7107 72.7741 24.7107 72.7741C24.7107 72.7741 23.1433 74.37 21.6214 74.7284C20.0995 75.0868 20.9501 76 22.6512 76H26.8613C28.076 76 27.325 74.9702 27.2709 72.8196Z" fill="#263238"/>
<path d="M24.4289 73.1041C24.4381 73.101 24.4461 73.095 24.4516 73.0871V73.07C24.4533 73.0625 24.4533 73.0547 24.4516 73.0472C24.4543 73.0389 24.4543 73.03 24.4516 73.0216C24.4516 72.9903 24.2269 72.4015 23.8827 72.2564C23.8308 72.2332 23.7746 72.2212 23.7177 72.2212C23.6609 72.2212 23.6046 72.2332 23.5527 72.2564C23.4361 72.3133 23.3792 72.3844 23.3849 72.4726C23.3849 72.6063 23.5726 72.74 23.7803 72.8509C23.5885 72.8194 23.3917 72.8411 23.2114 72.9135C23.1782 72.9319 23.149 72.9567 23.1256 72.9865C23.1021 73.0163 23.0849 73.0505 23.0748 73.0871C23.0567 73.1331 23.0529 73.1836 23.0641 73.2319C23.0753 73.2802 23.1008 73.3239 23.1374 73.3573C23.2032 73.4026 23.2823 73.4247 23.3621 73.4199C23.7334 73.3774 24.0943 73.2705 24.4289 73.1041ZM24.1956 73.0614C23.8201 73.2208 23.3422 73.3601 23.2341 73.2634C23.2341 73.2634 23.1915 73.2264 23.2171 73.1269C23.2229 73.108 23.2324 73.0904 23.2451 73.0753C23.2578 73.0601 23.2734 73.0477 23.291 73.0387C23.3802 72.998 23.4775 72.9785 23.5755 72.9818C23.7835 72.9864 23.9904 73.0131 24.1928 73.0614H24.1956ZM23.8429 72.3816C24.0445 72.5111 24.1983 72.7029 24.281 72.9277C23.9026 72.7855 23.5385 72.5864 23.5328 72.4726C23.5328 72.4385 23.5897 72.4043 23.6238 72.3873C23.6603 72.3696 23.7 72.3599 23.7405 72.3588C23.7758 72.3596 23.8106 72.3673 23.8429 72.3816Z" fill="#F7C06E"/>
<path d="M26.4966 68.5925L21.9878 68.015L22.3633 69.5881L26.087 70.0262L26.4966 68.5925Z" fill="#F7C06E"/>
<path d="M27.7163 21.9713L28.1572 23.2429L19.2591 25.5954L18.7357 24.0934L27.7163 21.9713Z" fill="black"/>
<path d="M24.6651 22.4322L25.1021 22.3048L25.752 24.5332L25.3151 24.6606L24.6651 22.4322Z" fill="#263238"/>
<path d="M20.896 23.6848L22.8496 23.1952L23.221 24.6769L21.2674 25.1665L20.896 23.6848Z" fill="white"/>
<path d="M19.1666 23.6972L19.6035 23.5696L20.2538 25.7979L19.8169 25.9254L19.1666 23.6972Z" fill="#263238"/>
<path d="M11.9963 13.8981C12.3756 14.4025 12.735 14.8767 13.0744 15.3204C14.3716 17.0557 15.2933 18.2874 16.0016 19.2802C16.7951 20.3494 17.4838 21.4926 18.0583 22.6938C18.2887 23.1831 18.5163 23.715 18.7694 24.3409L27.7188 21.9542C26.0347 15.6959 24.5896 12.4189 23.8699 10.7832L23.8472 10.732C23.625 10.2422 23.2366 9.84688 22.7507 9.6162C22.2649 9.38551 21.7131 9.33436 21.1931 9.47179C20.5502 9.64532 19.7992 9.86436 19.1023 10.1005C17.8036 10.58 16.5403 11.1503 15.3217 11.8073C14.1645 12.4235 13.0532 13.1223 11.9963 13.8981Z" fill="#F7C06E"/>
<path d="M21.1917 9.48891C22.3694 9.17884 20.637 13.3207 17.9602 14.1286C15.2833 14.9364 13.6733 13.9436 13.6704 13.1756C13.6676 12.4075 17.6387 10.439 21.1917 9.48891Z" fill="#B97964"/>
<path d="M20.4063 9.41209C20.4063 9.41209 19.5074 13.4686 20.4063 16.4469C21.3052 19.4253 28.6558 37.4491 28.6558 37.4491H32.5615C32.5615 37.4491 31.3525 28.5538 27.7256 20.9131C27.7256 20.9131 24.4656 10.6467 24.3916 10.1944C24.3177 9.74208 22.5824 9.01669 20.4063 9.41209Z" fill="#F7C06E"/>
<path d="M15.2831 11.5767C15.2831 11.5767 15.1664 15.7328 16.7054 19.4166L17.0098 35.1192C17.0098 35.1192 15.7467 27.0517 15.1892 20.9129L11.8581 13.898L15.2831 11.5767Z" fill="#F7C06E"/>
<path opacity="0.8" d="M20.4063 16.447C21.308 19.4225 28.6558 37.4492 28.6558 37.4492H32.5615C32.5615 37.4492 31.4549 29.3163 28.1807 21.9258C28.03 21.5873 27.8764 21.2488 27.7171 20.9131C27.7171 20.9131 27.407 19.9374 26.9774 18.572C26.0103 15.514 24.4343 10.5074 24.3831 10.1944C24.3092 9.74499 22.5824 9.00253 20.4006 9.41216C20.4063 9.41216 19.5074 13.4687 20.4063 16.447Z" fill="white"/>
<path opacity="0.8" d="M15.2831 11.5767C15.2831 11.5767 15.1664 15.7328 16.7054 19.4166L17.0098 35.1192C17.0098 35.1192 15.7467 27.0517 15.1892 20.9129L11.8581 13.898L15.2831 11.5767Z" fill="white"/>
<path d="M15.1882 11.2271C15.1882 11.2271 14.0048 12.1829 13.2253 14.7146L14.8098 15.844L14.4258 16.8794L16.7015 20.5064C16.8 19.565 16.7385 18.6138 16.5195 17.693C16.161 16.3475 15.0801 12.3735 15.1882 11.2271Z" fill="#F7C06E"/>
<path d="M20.0037 9.41213C19.1702 12.7934 19.6919 16.3666 21.4573 19.3685C21.4573 19.3685 21.5455 15.585 22.0575 14.2054L20.8372 13.7189L23.2466 12.1458C23.2466 12.1458 21.2923 8.9456 20.0037 9.41213Z" fill="#F7C06E"/>
<path opacity="0.7" d="M15.1882 11.2271C15.1882 11.2271 14.0048 12.1829 13.2253 14.7146L14.8098 15.844L14.4258 16.8794L16.7015 20.5064C16.8 19.565 16.7385 18.6138 16.5195 17.693C16.161 16.3475 15.0801 12.3735 15.1882 11.2271Z" fill="white"/>
<path opacity="0.7" d="M20.0037 9.41213C19.1702 12.7934 19.6919 16.3666 21.4573 19.3685C21.4573 19.3685 21.5455 15.585 22.0575 14.2054L20.8372 13.7189L23.2466 12.1458C23.2466 12.1458 21.2923 8.9456 20.0037 9.41213Z" fill="white"/>
<path opacity="0.2" d="M24.4521 23.348C25.3681 23.4333 26.9668 22.6311 28.1758 21.9256C28.025 21.5871 27.8714 21.2486 27.7121 20.9129C27.7121 20.9129 27.402 19.9372 26.9725 18.5718C25.5132 20.3611 23.337 23.2399 24.4521 23.348Z" fill="black"/>
<path d="M23.813 29.0688C23.813 29.0688 22.9283 29.1911 21.2243 27.5611C19.5204 25.9311 17.2418 24.0195 16.6899 24.2812L11.6435 26.7162L18.4508 31.5522L23.813 29.0688Z" fill="#F7C06E"/>
<path opacity="0.7" d="M23.813 29.0688C23.813 29.0688 22.9283 29.1911 21.2243 27.5611C19.5204 25.9311 17.2418 24.0195 16.6899 24.2812L11.6435 26.7162L18.4508 31.5522L23.813 29.0688Z" fill="white"/>
<path d="M23.6791 30.0671L16.7068 24.6082C16.6614 24.5729 16.6073 24.5506 16.5502 24.5436C16.4931 24.5365 16.4352 24.5451 16.3825 24.5684L11.1313 26.8925C11.1092 26.9025 11.09 26.9181 11.0758 26.9378C11.0616 26.9574 11.0527 26.9805 11.0501 27.0046C11.0475 27.0288 11.0513 27.0532 11.0611 27.0754C11.0708 27.0976 11.0862 27.117 11.1057 27.1314L17.9926 32.2575C18.0353 32.2892 18.0853 32.3097 18.138 32.3172C18.1906 32.3247 18.2443 32.3188 18.2942 32.3002L23.6421 30.2947C23.6627 30.2851 23.6807 30.2706 23.6944 30.2525C23.7081 30.2343 23.7172 30.2131 23.7209 30.1907C23.7245 30.1683 23.7226 30.1453 23.7153 30.1237C23.708 30.1022 23.6956 30.0827 23.6791 30.0671Z" fill="#F7C06E"/>
<path d="M13.3712 25.7377C13.3086 25.6438 13.229 25.4532 13.4139 25.3707C13.5033 25.3446 13.5976 25.3395 13.6894 25.3558C13.7812 25.3721 13.8679 25.4093 13.943 25.4646C14.2132 25.3394 14.4664 25.2199 14.6456 25.1403C14.6645 25.1322 14.6853 25.1297 14.7055 25.1332C14.7257 25.1368 14.7444 25.1462 14.7594 25.1602L15.1975 25.5613C15.2166 25.5791 15.2311 25.6014 15.2394 25.6261C15.2477 25.6509 15.2497 25.6774 15.2452 25.7031C15.2407 25.7289 15.2298 25.7531 15.2135 25.7735C15.1972 25.794 15.176 25.81 15.152 25.8202L13.3627 26.5854C13.2991 26.6117 13.2295 26.6203 13.1614 26.6103C13.0933 26.6003 13.0291 26.572 12.9758 26.5285L12.6202 26.2298C12.6091 26.2212 12.6004 26.21 12.5949 26.1971C12.5893 26.1842 12.5872 26.1701 12.5886 26.1561C12.59 26.1422 12.595 26.1288 12.603 26.1173C12.611 26.1058 12.6218 26.0966 12.6344 26.0904L13.3712 25.7377ZM13.4907 25.5215C13.4338 25.5585 13.4765 25.621 13.5191 25.6666L13.7296 25.567C13.65 25.5158 13.5447 25.4845 13.4907 25.5158V25.5215Z" fill="#263238"/>
<path d="M22.2046 24.358L21.0411 25.914C21.0411 25.914 19.9033 26.1387 19.6188 26.4374C19.093 27.0325 18.6253 27.6764 18.2221 28.3604C18.1111 28.6591 19.7866 29.4841 20 29.3731C20.2133 29.2622 21.4081 27.5724 21.5589 27.2709C21.6024 27.1753 21.625 27.0716 21.625 26.9665C21.625 26.8615 21.6024 26.7577 21.5589 26.6622L22.7935 25.2398L22.2046 24.358Z" fill="#B97964"/>
<path d="M24.3837 10.1943C23.334 10.7632 23.2459 13.0219 23.2459 13.0219C23.2459 13.0219 25.6553 17.6957 25.806 18.4267C25.9568 19.1578 21.3513 25.0918 21.3513 25.0918L22.4323 26.0988C22.4323 26.0988 27.9851 20.1478 28.5853 18.7027C29.1855 17.2576 24.3837 10.1943 24.3837 10.1943Z" fill="#F7C06E"/>
<path opacity="0.7" d="M24.3837 10.1943C23.334 10.7632 23.2459 13.0219 23.2459 13.0219C23.2459 13.0219 25.6553 17.6957 25.806 18.4267C25.9568 19.1578 21.3513 25.0918 21.3513 25.0918L22.4323 26.0988C22.4323 26.0988 27.9851 20.1478 28.5853 18.7027C29.1855 17.2576 24.3837 10.1943 24.3837 10.1943Z" fill="white"/>
<path d="M11.2643 22.0168C11.2643 22.1643 11.308 22.3084 11.3899 22.4309C11.4718 22.5535 11.5882 22.649 11.7244 22.7054C11.8605 22.7618 12.0104 22.7766 12.155 22.7478C12.2996 22.7191 12.4324 22.6481 12.5366 22.5439C12.6408 22.4396 12.7118 22.3068 12.7406 22.1622C12.7693 22.0177 12.7546 21.8678 12.6981 21.7316C12.6417 21.5954 12.5462 21.479 12.4236 21.3971C12.3011 21.3153 12.157 21.2715 12.0096 21.2715C11.8119 21.2715 11.6223 21.3501 11.4826 21.4898C11.3428 21.6296 11.2643 21.8192 11.2643 22.0168Z" fill="#263238"/>
<g opacity="0.6">
<path opacity="0.6" d="M11.255 22.017C11.255 22.1644 11.2987 22.3085 11.3806 22.4311C11.4625 22.5536 11.5789 22.6492 11.7151 22.7056C11.8513 22.762 12.0011 22.7768 12.1457 22.748C12.2903 22.7192 12.4231 22.6483 12.5273 22.544C12.6315 22.4398 12.7025 22.307 12.7313 22.1624C12.76 22.0178 12.7453 21.868 12.6889 21.7318C12.6325 21.5956 12.5369 21.4792 12.4144 21.3973C12.2918 21.3154 12.1477 21.2717 12.0003 21.2717C11.8026 21.2717 11.6131 21.3502 11.4733 21.49C11.3335 21.6298 11.255 21.8193 11.255 22.017Z" fill="white"/>
</g>
<path d="M14.8462 15.8723C14.8246 15.4123 14.7724 14.9542 14.6897 14.5012C14.4223 12.8114 14.1208 10.8941 16.6469 9.80177C17.4092 9.47179 18.0863 9.47748 18.658 9.82168C19.9524 10.6011 20.2852 12.8541 20.3506 13.4429C20.5758 13.4163 20.8041 13.4419 21.0177 13.5179C21.2314 13.5939 21.4246 13.7182 21.5824 13.881C22.5069 14.8681 22.0859 17.141 22.0659 17.2377C22.0625 17.2559 22.0556 17.2732 22.0454 17.2887C22.0352 17.3042 22.0221 17.3175 22.0067 17.3278C21.9914 17.3381 21.9741 17.3453 21.9559 17.3489C21.9378 17.3524 21.9191 17.3524 21.901 17.3487C21.8641 17.3417 21.8314 17.3205 21.8101 17.2896C21.7888 17.2587 21.7805 17.2206 21.7872 17.1837C21.7872 17.1609 22.2025 14.9591 21.3775 14.0773C21.2314 13.93 21.0508 13.8215 20.852 13.7619C20.6533 13.7023 20.4428 13.6934 20.2397 13.7359C20.0262 13.7497 19.8192 13.8142 19.6356 13.9241C19.4521 14.0339 19.2974 14.1859 19.1843 14.3675C18.4703 15.5252 19.281 17.8323 19.2896 17.855C19.3015 17.8909 19.2989 17.9299 19.2824 17.9639C19.266 17.9979 19.2369 18.0242 19.2014 18.0371C19.1854 18.04 19.169 18.04 19.153 18.0371C19.124 18.0363 19.0958 18.027 19.072 18.0103C19.0483 17.9936 19.0299 17.9702 19.0193 17.9432C18.9852 17.8436 18.1659 15.4854 18.9425 14.211C19.0662 14.0114 19.2322 13.8414 19.4288 13.7131C19.6254 13.5848 19.8479 13.5013 20.0804 13.4685C20.0149 12.9195 19.6907 10.7604 18.5243 10.0549C18.0351 9.77048 17.4462 9.77048 16.772 10.0549C14.4479 11.0591 14.7182 12.783 14.9827 14.4471C15.0673 14.9172 15.1205 15.3923 15.142 15.8694C15.1762 18.1452 14.4451 21.8176 12.3287 21.8944V21.61C14.2915 21.5332 14.8746 17.7128 14.8462 15.8723Z" fill="#263238"/>
<path opacity="0.2" d="M14.8462 15.8723C14.8246 15.4123 14.7724 14.9542 14.6897 14.5012C14.4223 12.8114 14.1208 10.8941 16.6469 9.80177C17.4092 9.47179 18.0863 9.47748 18.658 9.82168C19.9524 10.6011 20.2852 12.8541 20.3506 13.4429C20.5758 13.4163 20.8041 13.4419 21.0177 13.5179C21.2314 13.5939 21.4246 13.7182 21.5824 13.881C22.5069 14.8681 22.0859 17.141 22.0659 17.2377C22.0625 17.2559 22.0556 17.2732 22.0454 17.2887C22.0352 17.3042 22.0221 17.3175 22.0067 17.3278C21.9914 17.3381 21.9741 17.3453 21.9559 17.3489C21.9378 17.3524 21.9191 17.3524 21.901 17.3487C21.8641 17.3417 21.8314 17.3205 21.8101 17.2896C21.7888 17.2587 21.7805 17.2206 21.7872 17.1837C21.7872 17.1609 22.2025 14.9591 21.3775 14.0773C21.2314 13.93 21.0508 13.8215 20.852 13.7619C20.6533 13.7023 20.4428 13.6934 20.2397 13.7359C20.0262 13.7497 19.8192 13.8142 19.6356 13.9241C19.4521 14.0339 19.2974 14.1859 19.1843 14.3675C18.4703 15.5252 19.281 17.8323 19.2896 17.855C19.3015 17.8909 19.2989 17.9299 19.2824 17.9639C19.266 17.9979 19.2369 18.0242 19.2014 18.0371C19.1854 18.04 19.169 18.04 19.153 18.0371C19.124 18.0363 19.0958 18.027 19.072 18.0103C19.0483 17.9936 19.0299 17.9702 19.0193 17.9432C18.9852 17.8436 18.1659 15.4854 18.9425 14.211C19.0662 14.0114 19.2322 13.8414 19.4288 13.7131C19.6254 13.5848 19.8479 13.5013 20.0804 13.4685C20.0149 12.9195 19.6907 10.7604 18.5243 10.0549C18.0351 9.77048 17.4462 9.77048 16.772 10.0549C14.4479 11.0591 14.7182 12.783 14.9827 14.4471C15.0673 14.9172 15.1205 15.3923 15.142 15.8694C15.1762 18.1452 14.4451 21.8176 12.3287 21.8944V21.61C14.2915 21.5332 14.8746 17.7128 14.8462 15.8723Z" fill="white"/>
<path d="M18.9995 17.6843L19.392 17.6047C19.392 17.6047 19.6765 18.2305 19.4461 18.3415C19.2157 18.4524 18.8686 18.0115 18.9995 17.6843Z" fill="#263238"/>
<g opacity="0.6">
<path opacity="0.6" d="M19.0004 17.6843L19.393 17.6047C19.393 17.6047 19.6775 18.2305 19.4471 18.3414C19.2166 18.4524 18.8696 18.0114 19.0004 17.6843Z" fill="white"/>
</g>
<path d="M21.99 16.9818H21.5917C21.5917 16.9818 21.4211 17.656 21.6856 17.7128C21.9502 17.7697 22.1863 17.2662 21.99 16.9818Z" fill="#263238"/>
<g opacity="0.6">
<path opacity="0.6" d="M21.9822 16.9818H21.5839C21.5839 16.9818 21.4132 17.656 21.6778 17.7128C21.9423 17.7697 22.1785 17.2662 21.9822 16.9818Z" fill="white"/>
</g>
<path d="M12.1722 22.1079C11.9412 22.1079 11.754 21.9207 11.754 21.6897C11.754 21.4588 11.9412 21.2715 12.1722 21.2715C12.4031 21.2715 12.5903 21.4588 12.5903 21.6897C12.5903 21.9207 12.4031 22.1079 12.1722 22.1079Z" fill="#263238"/>
<g opacity="0.7">
<path opacity="0.7" d="M12.1722 22.108C11.9412 22.108 11.754 21.9208 11.754 21.6898C11.754 21.4589 11.9412 21.2717 12.1722 21.2717C12.4031 21.2717 12.5903 21.4589 12.5903 21.6898C12.5903 21.9208 12.4031 22.108 12.1722 22.108Z" fill="white"/>
</g>
<path d="M17.7741 13.5682C19.2818 11.8614 19.1509 10.6809 19.1509 10.6809C17.1796 10.6155 16.5225 8.0638 16.5225 8.0638L14.8157 10.2457C15.1138 10.489 15.3943 10.7533 15.6549 11.0365C16.7614 12.2625 16.2238 12.7689 16.2238 12.7689C16.4457 13.7674 17.7741 13.5682 17.7741 13.5682Z" fill="#B97964"/>
<path opacity="0.2" d="M14.8079 10.2569C15.106 10.5003 15.3864 10.7645 15.647 11.0477C16.4293 9.95253 16.5146 8.07505 16.5146 8.07505L14.8079 10.2569Z" fill="black"/>
<path d="M12.9479 2.20643C10.6465 2.77536 10.2028 4.18063 10.6124 6.59575C11.1245 9.61393 12.2965 11.5625 15.0216 10.2284C18.7254 8.41348 16.774 1.27622 12.9479 2.20643Z" fill="#B97964"/>
<path d="M12.0758 6.10657C11.9745 6.49522 11.8274 6.87049 11.6377 7.22452C11.7285 7.30309 11.8393 7.35503 11.9578 7.37461C12.0762 7.39419 12.1978 7.38064 12.3091 7.33546L12.0758 6.10657Z" fill="#A24E3F"/>
<path d="M13.44 5.57466C13.4827 5.76525 13.6193 5.89611 13.7473 5.85913C13.8753 5.82215 13.9435 5.65431 13.9009 5.46372C13.8582 5.27313 13.7217 5.14227 13.5965 5.17925C13.4713 5.21623 13.386 5.38407 13.44 5.57466Z" fill="#263238"/>
<path d="M13.6509 5.17628L13.2014 5.10516C13.2014 5.10516 13.483 5.4067 13.6509 5.17628Z" fill="#263238"/>
<path d="M11.0625 6.05246C11.1023 6.24305 11.2389 6.37391 11.3669 6.33693C11.4949 6.29995 11.5632 6.13211 11.5205 5.94152C11.4778 5.75093 11.3413 5.62007 11.2161 5.65705C11.091 5.69403 11.0198 5.86187 11.0625 6.05246Z" fill="#263238"/>
<path d="M11.2783 5.65444L10.8289 5.58332C10.8289 5.58332 11.1133 5.8877 11.2783 5.65444Z" fill="#263238"/>
<path d="M14.1593 4.18079C14.1755 4.18092 14.1915 4.1771 14.2059 4.16966C14.2202 4.16223 14.2326 4.1514 14.2418 4.13812C14.258 4.11609 14.2649 4.08862 14.2612 4.06155C14.2575 4.03447 14.2434 4.00991 14.2219 3.99304C14.0474 3.8828 13.8495 3.81484 13.644 3.79459C13.4386 3.77434 13.2312 3.80236 13.0385 3.87641C13.0148 3.8873 12.9962 3.90683 12.9864 3.93101C12.9766 3.95519 12.9764 3.98219 12.9858 4.00651C12.9953 4.03083 13.0136 4.05063 13.0372 4.06187C13.0607 4.07312 13.0876 4.07495 13.1125 4.06701C13.2728 4.00718 13.4446 3.9843 13.615 4.00006C13.7854 4.01582 13.9501 4.06982 14.0967 4.15803C14.1149 4.17169 14.1367 4.17961 14.1593 4.18079Z" fill="#263238"/>
<path d="M10.5034 4.80379C10.5175 4.80383 10.5314 4.80079 10.5442 4.79489C10.557 4.789 10.5683 4.78039 10.5774 4.76966C10.6714 4.65166 10.7909 4.55637 10.9268 4.49087C11.0627 4.42537 11.2116 4.39134 11.3625 4.39132C11.3894 4.39307 11.416 4.3847 11.4371 4.36786C11.4581 4.35102 11.4721 4.32692 11.4763 4.30029C11.4795 4.27353 11.4721 4.24659 11.4556 4.22529C11.4391 4.20399 11.4148 4.19005 11.3881 4.1865C11.2046 4.18181 11.0224 4.21939 10.8557 4.29634C10.6889 4.37328 10.5422 4.48754 10.4266 4.63027C10.408 4.64984 10.3976 4.67581 10.3976 4.70281C10.3976 4.72981 10.408 4.75578 10.4266 4.77535C10.4367 4.78526 10.4487 4.79293 10.462 4.79783C10.4752 4.80274 10.4894 4.80477 10.5034 4.80379Z" fill="#263238"/>
<path d="M16.4169 5.47499C16.4169 5.47499 14.8779 3.84499 14.6845 2.34586C14.6845 2.34586 9.66652 1.59202 10.5683 6.28003C10.5683 6.28003 9.12034 2.27474 13.0602 1.21937C17.0001 0.163998 18.3911 5.95858 16.7583 8.18311C16.7668 8.18311 17.367 6.49622 16.4169 5.47499Z" fill="#263238"/>
<path d="M16.1637 6.0554C16.1209 5.78479 16.1864 5.5082 16.3462 5.28561C16.5059 5.06302 16.747 4.91238 17.0171 4.86634C17.751 4.76962 18.4394 6.15212 16.7582 6.93725C16.5193 7.05104 16.3201 6.83484 16.1637 6.0554Z" fill="#B97964"/>
<path d="M9.1817 7.30986C9.77908 6.74093 9.68805 5.77374 9.21868 4.79233C8.74931 3.81093 9.96398 3.08554 9.96398 3.08554C9.96398 3.08554 10.0607 1.85096 11.0108 1.35598C11.1815 1.26495 11.9723 1.35598 11.9723 1.35598C13.0078 0.218118 14.6719 -0.717777 15.9776 0.764293C16.7485 1.64045 17.5137 0.744381 18.7341 2.56497C19.6159 3.88205 19.0015 5.03982 19.2575 5.46368C20.4409 7.40943 18.9019 7.93569 18.5321 8.61272C18.5321 8.61272 17.7185 8.22584 17.7868 7.99258C18.3557 6.12933 17.3743 4.92035 16.6233 5.21619C15.8724 5.51204 15.3376 5.43523 14.7942 4.74967C14.2509 4.0641 14.6292 3.32733 13.3719 3.15665C12.1146 2.98597 11.9865 2.26628 11.9865 2.26628C11.9664 2.58627 11.8597 2.89477 11.6778 3.15882C11.4959 3.42287 11.2457 3.63254 10.9539 3.76541C9.90425 4.31443 10.3167 4.97724 10.4646 5.91313C10.6126 6.84903 10.1489 7.2103 9.32678 7.88733C8.50467 8.56436 9.37229 9.05933 9.37229 9.05933C9.21629 8.98044 9.08247 8.86384 8.98296 8.72011C8.88345 8.57638 8.82141 8.41008 8.80248 8.23629C8.78355 8.06251 8.80832 7.88674 8.87454 7.72496C8.94077 7.56318 9.04635 7.42049 9.1817 7.30986Z" fill="#263238"/>
<path d="M12.4847 8.37939C12.6885 8.56358 12.8786 8.76228 13.0537 8.97393L13.1788 8.89996C13.7478 8.56145 13.89 8.22009 13.8872 7.94131C13.88 7.80652 13.842 7.67515 13.7762 7.55728C13.7401 7.48907 13.6952 7.42594 13.6425 7.36954C13.3875 7.73285 13.0577 8.0374 12.6753 8.26276L12.4847 8.37939Z" fill="#263238"/>
<path d="M12.674 8.26276L12.8447 8.43344C13.3738 8.11199 13.6981 7.81615 13.7749 7.55728C13.7388 7.48907 13.6939 7.42594 13.6412 7.36954C13.3862 7.73285 13.0564 8.0374 12.674 8.26276Z" fill="white"/>
<path d="M13.1788 8.90004C13.7478 8.56153 13.89 8.22017 13.8872 7.94139C13.675 8.07433 13.4882 8.24384 13.3353 8.44205C13.2362 8.57443 13.1815 8.73471 13.1788 8.90004Z" fill="#DE5753"/>
</svg>
