<svg width="74" height="65" viewBox="0 0 74 65" fill="none" xmlns="http://www.w3.org/2000/svg">
<g clip-path="url(#clip0_8538_6789)">
<path d="M0.407714 17.7571C5.62645 20.7918 10.8452 23.8265 16.0639 26.8202C20.6711 29.4858 25.319 32.1514 29.9262 34.858C34.5333 37.5646 39.1813 37.7287 43.7884 35.0631C53.1251 29.6908 62.4209 24.2776 71.7576 18.9053C72.4099 18.5363 72.9807 17.7981 73.9592 18.0031C74.1631 18.8643 73.47 19.1514 73.0215 19.5615C61.7278 30.9621 50.3934 42.2807 39.1405 53.7224C37.7135 55.1987 36.735 55.4858 35.1449 53.8454C23.7697 42.2807 12.313 30.7981 0.856198 19.3154C0.530028 18.9874 0.285399 18.6183 0 18.2902C0.122314 18.1262 0.244628 17.9621 0.407714 17.7571Z" fill="#262569"/>
<path d="M36.979 49.6625C39.9062 49.6625 42.2793 47.2756 42.2793 44.3312C42.2793 41.3869 39.9062 39 36.979 39C34.0517 39 31.6787 41.3869 31.6787 44.3312C31.6787 47.2756 34.0517 49.6625 36.979 49.6625Z" fill="white"/>
<path d="M45.8676 25.1798C45.8676 29.9369 41.7905 34.0788 37.1425 34.0788C32.2092 34.1198 28.1321 30.1009 28.0913 25.2208C28.0913 20.3817 32.2092 16.3217 37.1018 16.3627C41.872 16.4037 45.9084 20.4227 45.8676 25.1798Z" fill="#262569"/>
<path d="M33.6365 44.4133C33.6365 43.224 33.6772 43.183 34.8596 43.183C35.7158 43.183 35.7158 43.183 35.7566 42.2808C35.7566 41.8707 35.5935 41.3376 36.0828 41.1325C36.6536 40.8865 37.2651 40.9275 37.8359 41.1325C38.0398 41.2145 38.1213 41.4196 38.1213 41.5836C38.1621 41.8297 38.1621 42.0757 38.1621 42.2808C38.1621 43.183 38.1621 43.142 39.0591 43.183C39.4668 43.183 40.0376 43.019 40.2007 43.5521C40.3637 44.1262 40.3637 44.7414 40.2007 45.3155C40.1599 45.4795 39.9968 45.5205 39.8337 45.5615C39.6706 45.5615 39.5483 45.5615 39.3852 45.5615C38.1621 45.5615 38.2029 45.3975 38.1621 46.7098C38.1621 47.571 37.999 47.735 37.1428 47.735C36.9797 47.735 36.8166 47.735 36.6128 47.735C36.042 47.7761 35.7566 47.489 35.7158 46.8738C35.6343 45.5615 35.6343 45.5615 34.3704 45.5205C33.718 45.5205 33.6365 45.4385 33.6365 44.4133Z" fill="#CF323A"/>
<path d="M12.5579 62.9906C12.5986 63.7698 12.9656 64.0978 13.6179 64.0978C14.1072 64.0978 14.4741 63.8108 14.5557 63.5237H15.6157C15.2895 64.5899 14.5557 65 13.5771 65C12.1909 65 11.3347 64.0568 11.3347 62.7035C11.3347 61.3912 12.2317 60.366 13.5771 60.366C15.0857 60.366 15.7788 61.6373 15.6973 62.9906H12.5579ZM14.5149 62.2114C14.3926 61.5963 14.1479 61.2682 13.5771 61.2682C12.8025 61.2682 12.5986 61.8833 12.5986 62.2114H14.5149Z" fill="black"/>
<path d="M16.3904 62.0474H18.9182V63.0726H16.3904V62.0474Z" fill="black"/>
<path d="M19.9785 58.8076H21.324V61.3092L23.6887 58.8076H25.3603L22.9956 61.1862L25.5642 64.877H23.8926L22.0579 62.1294L21.2832 62.9086V64.877H19.9785V58.8076Z" fill="black"/>
<path d="M26.9089 63.4827C26.9089 64.0158 27.3574 64.2209 27.8467 64.2209C28.1728 64.2209 28.6213 64.0978 28.6213 63.6467C28.6213 63.2776 28.1321 63.1546 27.2759 62.9496C26.5828 62.7855 25.8896 62.5395 25.8896 61.7603C25.8896 60.653 26.8682 60.366 27.8059 60.366C28.7436 60.366 29.6406 60.694 29.7222 61.7603H28.5398C28.499 61.3092 28.1321 61.1452 27.7244 61.1452C27.439 61.1452 27.072 61.1862 27.072 61.5552C27.072 62.0063 27.7651 62.0474 28.4175 62.2114C29.1106 62.3754 29.8037 62.6215 29.8037 63.4417C29.8037 64.5899 28.7844 64.959 27.8059 64.959C26.7866 64.959 25.8081 64.5899 25.7673 63.4007H26.9089V63.4827Z" fill="black"/>
<path d="M30.4976 58.8076H31.6799V61.1041H31.7207C32.0061 60.612 32.5361 60.366 32.9846 60.366C34.2485 60.366 34.5747 61.1042 34.5747 62.1704V64.877H33.3923V62.3754C33.3923 61.6373 33.1885 61.3092 32.6177 61.3092C31.9653 61.3092 31.6799 61.6783 31.6799 62.5805V64.877H30.4976V58.8076Z" fill="black"/>
<path d="M35.4712 61.8423C35.5527 60.7351 36.5312 60.366 37.5098 60.366C38.366 60.366 39.426 60.571 39.426 61.5963V63.8928C39.426 64.3029 39.4668 64.672 39.5891 64.877H38.366C38.3252 64.754 38.2844 64.5899 38.2844 64.4669C37.9175 64.877 37.3467 65 36.8166 65C35.9604 65 35.3081 64.5899 35.3081 63.6877C35.3081 61.6783 38.2844 62.7445 38.2029 61.7603C38.2029 61.2682 37.8359 61.1452 37.4282 61.1452C36.9797 61.1452 36.6943 61.3502 36.6536 61.8013H35.4712V61.8423ZM38.2436 62.7445C38.0398 62.9086 37.6321 62.9496 37.2651 62.9906C36.8982 63.0726 36.572 63.1956 36.572 63.6467C36.572 64.0978 36.8982 64.2209 37.3059 64.2209C38.2436 64.2209 38.2844 63.4827 38.2844 63.1956V62.7445H38.2436Z" fill="black"/>
<path d="M40.4053 60.489H41.5469V61.1041C41.873 60.653 42.3215 60.407 42.8923 60.407C43.4224 60.407 43.9524 60.612 44.1562 61.1452C44.4009 60.7761 44.8494 60.407 45.4609 60.407C46.3987 60.407 47.051 60.8581 47.051 61.9653V64.918H45.8686V62.4164C45.8686 61.8423 45.8279 61.3502 45.1347 61.3502C44.4416 61.3502 44.3193 61.9243 44.3193 62.4575V64.918H43.137V62.4575C43.137 61.9653 43.1777 61.3502 42.4031 61.3502C42.1584 61.3502 41.5876 61.5142 41.5876 62.3754V64.918H40.4053V60.489Z" fill="black"/>
<path d="M47.9885 61.8423C48.0701 60.7351 49.0486 60.366 50.0271 60.366C50.8833 60.366 51.9433 60.571 51.9433 61.5963V63.8928C51.9433 64.3029 51.9841 64.672 52.1064 64.877H50.8833C50.8425 64.754 50.8017 64.5899 50.8017 64.4669C50.4348 64.877 49.864 65 49.334 65C48.4778 65 47.8254 64.5899 47.8254 63.6877C47.8254 61.6783 50.8017 62.7445 50.7202 61.7603C50.7202 61.2682 50.3533 61.1452 49.9455 61.1452C49.4971 61.1452 49.2117 61.3502 49.1709 61.8013H47.9885V61.8423ZM50.761 62.7445C50.5571 62.9086 50.1494 62.9496 49.7825 62.9906C49.4155 63.0726 49.0894 63.1956 49.0894 63.6467C49.0894 64.0978 49.4155 64.2209 49.8232 64.2209C50.761 64.2209 50.8017 63.4827 50.8017 63.1956V62.7445H50.761Z" fill="black"/>
<path d="M54.3891 60.4891H55.2861V61.3092H54.3891V63.4827C54.3891 63.8928 54.4707 63.9749 54.8784 63.9749C55.0007 63.9749 55.123 63.9749 55.2453 63.9338V64.8771C55.0415 64.9181 54.7969 64.9181 54.5522 64.9181C53.8184 64.9181 53.166 64.754 53.166 63.8518V61.2682H52.4321V60.448H53.166V59.1357H54.3484V60.4891H54.3891Z" fill="black"/>
<path d="M55.7759 61.8423C55.8574 60.7351 56.8359 60.366 57.8144 60.366C58.6706 60.366 59.7307 60.571 59.7307 61.5963V63.8928C59.7307 64.3029 59.7715 64.672 59.8938 64.877H58.6706C58.6299 64.754 58.5891 64.5899 58.5891 64.4669C58.2222 64.877 57.6514 65 57.1213 65C56.2651 65 55.6128 64.5899 55.6128 63.6877C55.6128 61.6783 58.5891 62.7445 58.5076 61.7603C58.5076 61.2682 58.1406 61.1452 57.7329 61.1452C57.2844 61.1452 56.999 61.3502 56.9582 61.8013H55.7759V61.8423ZM58.5483 62.7445C58.3445 62.9086 57.9368 62.9496 57.5698 62.9906C57.2029 63.0726 56.8767 63.1956 56.8767 63.6467C56.8767 64.0978 57.2029 64.2209 57.6106 64.2209C58.5483 64.2209 58.5891 63.4827 58.5891 63.1956V62.7445H58.5483Z" fill="black"/>
<path d="M14.678 24.1956C14.8818 23.1989 15.1672 22.242 15.4934 21.325" stroke="black" stroke-width="1.748" stroke-miterlimit="10" stroke-linecap="round"/>
<path d="M24.4629 9.77425C28.0627 7.23808 32.4715 5.74133 37.1635 5.74133C44.4441 5.74133 50.9157 9.27533 55.0414 14.7634" stroke="black" stroke-width="1.748" stroke-miterlimit="10" stroke-linecap="round" stroke-dasharray="15.33 15.33"/>
<path d="M58.7117 20.9148C59.0378 21.8318 59.3232 22.8286 59.5271 23.7855" stroke="black" stroke-width="1.748" stroke-miterlimit="10" stroke-linecap="round"/>
<path d="M19.4482 20.6688C22.6007 20.6688 25.1562 18.0983 25.1562 14.9275C25.1562 11.7566 22.6007 9.18616 19.4482 9.18616C16.2958 9.18616 13.7402 11.7566 13.7402 14.9275C13.7402 18.0983 16.2958 20.6688 19.4482 20.6688Z" fill="#F89939"/>
<path d="M36.6936 11.4827C39.846 11.4827 42.4016 8.91217 42.4016 5.74133C42.4016 2.57048 39.846 0 36.6936 0C33.5411 0 30.9856 2.57048 30.9856 5.74133C30.9856 8.91217 33.5411 11.4827 36.6936 11.4827Z" fill="#2A2B79"/>
<path d="M53.9814 20.6688C57.1339 20.6688 59.6894 18.0983 59.6894 14.9275C59.6894 11.7566 57.1339 9.18616 53.9814 9.18616C50.829 9.18616 48.2734 11.7566 48.2734 14.9275C48.2734 18.0983 50.829 20.6688 53.9814 20.6688Z" fill="#188943"/>
<path d="M36.6946 2.05054L37.7139 4.10101L39.997 4.4701L38.3254 6.06946L38.7331 8.36599L36.6946 7.25874L34.656 8.36599L35.0229 6.06946L33.3921 4.4701L35.6753 4.10101L36.6946 2.05054Z" fill="white"/>
<path d="M19.2031 11.4417L20.2224 13.5331L22.5056 13.8612L20.834 15.4606L21.2417 17.7571L19.2031 16.6909L17.1645 17.7571L17.5315 15.4606L15.9006 13.8612L18.1838 13.5331L19.2031 11.4417Z" fill="white"/>
<path d="M53.9807 11.4417L55 13.5331L57.2832 13.8612L55.6523 15.4606L56.0193 17.7571L53.9807 16.6909L51.9421 17.7571L52.3498 15.4606L50.6782 13.8612L52.9614 13.5331L53.9807 11.4417Z" fill="white"/>
</g>
<defs>
<clipPath id="clip0_8538_6789">
<rect width="74" height="65" fill="white"/>
</clipPath>
</defs>
</svg>
