<svg width="660" height="192" viewBox="0 0 660 192" fill="none" xmlns="http://www.w3.org/2000/svg">
<g opacity="0.5" clip-path="url(#clip0_8485_3662)">
<path d="M156.271 322.43C155.732 322.7 155.462 322.7 154.923 322.971C153.844 323.241 152.765 323.241 151.686 322.971C147.101 322.43 141.168 318.372 135.774 314.043C130.38 309.715 124.986 305.115 121.75 302.41C109.883 292.941 98.5556 283.202 86.6888 273.733C84.5312 271.839 82.3736 270.216 80.216 268.052C78.0584 266.158 76.1705 263.994 74.5523 261.559C71.5856 256.689 69.6977 250.196 71.5856 245.056C72.9341 241.539 75.6311 239.105 76.4402 235.317C77.519 229.636 73.2038 223.143 68.0795 220.167C62.9553 217.191 57.5613 216.65 52.437 215.568C47.8521 214.756 43.2672 213.403 38.952 211.239C34.6368 209.075 30.5913 206.099 27.3549 202.312C24.1186 198.253 22.2307 193.113 21.6913 188.244C21.1519 183.374 22.5004 178.504 25.7367 175.799C29.7822 172.282 37.0641 172.011 38.4126 166.06C39.2217 162.813 37.8732 159.567 35.7156 156.591C33.558 153.615 30.5913 150.368 27.8943 147.934C24.3883 144.958 21.1519 141.441 18.4549 137.924C15.4882 134.407 12.7912 130.619 10.9033 126.291C6.8578 118.175 5.5093 108.706 9.01539 101.942C9.82449 100.59 10.6336 99.5075 11.7124 98.4254L11.9821 98.1549C16.567 93.5558 24.3883 92.4736 32.2095 94.3673C37.0641 95.72 41.649 98.1549 46.2339 101.401C50.8188 104.648 54.5946 108.706 58.3704 113.034C62.9553 118.445 66.731 124.667 71.8553 129.537C76.9796 134.407 83.7221 138.194 88.5767 136.571C91.8131 135.218 93.701 131.972 96.6677 130.078C98.8253 128.725 101.253 128.455 103.68 128.996C106.377 129.537 109.074 130.619 111.771 132.513C114.468 134.407 117.165 136.571 119.592 139.276C122.019 141.982 123.907 144.958 125.526 148.204C128.762 154.427 130.38 161.19 131.189 167.412C132.268 173.905 132.268 180.398 132.807 186.62C133.347 194.736 135.504 206.099 142.247 209.075C147.371 211.51 151.417 207.181 156.541 207.722C161.935 208.263 167.599 214.756 170.565 222.061C173.262 229.095 174.071 236.399 174.071 243.704C174.341 255.337 175.15 265.888 173.262 276.98C172.184 283.473 170.565 289.965 168.947 295.917C167.329 301.869 165.171 307.821 162.744 313.502C161.126 317.019 159.238 320.807 156.271 322.43Z" fill="#C2E3DD"/>
<path d="M304.57 48.2942C302.834 51.0484 301.393 54.2535 300.178 57.3107C293.412 74.9852 294.997 95.565 299.057 114.518C299.347 115.941 299.713 116.991 300.003 118.415C300.37 119.464 300.363 120.437 300.73 121.487C301.895 126.207 303.208 131.153 304.372 135.874C296.551 143.593 290.737 152.898 286.859 163.19C292.725 157.401 299.929 152.669 307.422 149.36C309.527 158.949 311.258 168.461 311.194 178.183C311.188 179.156 311.034 179.902 311.253 180.727C311.4 180.952 311.323 181.326 311.098 181.474C310.925 185.137 310.751 188.801 310.205 192.386C309.974 193.507 309.89 194.852 309.659 195.972C305.248 219.199 291.362 240.26 272.664 254.478C266.431 259.218 257.568 266.331 249.72 266.645C248.749 266.638 247.777 266.631 246.658 266.398C244.272 265.706 242.187 264.494 240.412 261.788C236.635 256.524 235.65 247.167 233 241.164C229.615 233.061 224.958 225.472 221.798 217.22C210.706 188.042 217.2 154.734 232.25 127.1C232.629 126.206 233.382 125.389 233.761 124.494C234.366 123.452 235.196 122.261 235.8 121.219C241.614 111.914 248.02 103.511 255.173 95.2632C258.126 100.745 262.127 105.862 266.733 109.935C263.568 102.656 262.126 94.5679 262.775 86.7197C274.211 74.6901 286.837 63.4922 299.611 52.5198C301.264 51.1113 302.917 49.7027 304.57 48.2942Z" fill="#C2E3DD"/>
<path d="M659.955 94.796C657.4 96.8134 654.974 99.3546 652.809 101.832C640.541 116.238 635.177 136.169 632.69 155.392C632.489 156.831 632.485 157.943 632.284 159.381C632.28 160.493 631.95 161.408 631.945 162.52C631.471 167.359 631.06 172.46 630.585 177.299C620.639 181.968 612.057 188.801 604.972 197.211C612.431 193.709 620.8 191.651 628.967 191.031C627.756 200.774 626.218 210.319 622.919 219.464C622.589 220.378 622.195 221.031 622.126 221.881C622.191 222.143 621.993 222.469 621.732 222.534C620.348 225.93 618.964 229.326 617.253 232.524C616.662 233.503 616.135 234.744 615.543 235.723C603.646 256.15 583.536 271.374 561.17 278.542C553.715 280.931 542.988 284.68 535.485 282.359C534.571 282.028 533.658 281.697 532.681 281.104C530.661 279.657 529.1 277.818 528.327 274.675C526.521 268.452 528.71 259.303 528.212 252.758C527.721 243.99 525.859 235.281 525.63 226.448C524.895 195.24 542.116 166.003 565.512 144.97C566.168 144.254 567.15 143.734 567.806 143.017C568.723 142.236 569.902 141.391 570.819 140.609C579.402 133.776 588.241 127.991 597.732 122.601C598.69 128.754 600.757 134.913 603.743 140.29C603.184 132.371 604.52 124.265 607.747 117.082C622.537 109.555 638.172 103.209 653.871 97.1257C655.899 96.3491 657.927 95.5726 659.955 94.796Z" fill="#C2E3DD"/>
<path d="M467.507 298.898C474.661 296.644 482.119 294.032 487.703 288.906C493.287 283.781 496.307 275.865 493.472 269.764C490.664 263.994 483.353 260.26 482.478 253.664C481.441 245.082 492.712 240.156 501.881 238.07C515.966 234.914 530.795 232.697 542.126 224.433C553.457 216.168 559.058 199.04 548.938 189.536C545.326 186.166 540.497 184.228 537.521 180.472C533.056 174.838 534.697 166.369 538.874 160.359C543.051 154.349 548.994 149.527 554.578 144.402C562.899 136.051 569.374 125.519 570.108 114.124C570.869 103.06 565.557 91.1615 555.1 85.6857C545.693 80.7906 533.46 82.128 523.818 86.5864C514.204 91.376 506.518 99.3411 500.542 107.832C495.784 114.89 489.505 123.74 480.727 122.46C472.943 121.099 469.891 112.349 463.823 107.513C454.171 99.6372 437.848 103.977 429.966 113.625C422.085 123.273 421.487 136.324 423.458 148.163C424.691 155.063 426.918 161.881 425.804 168.64C424.691 175.398 419.269 182.511 411.953 182.778C406.983 183.186 402.404 180.228 397.352 179.643C390.285 178.889 383.321 183.461 379.117 189.14C375.244 194.792 373.468 201.605 372.354 208.364C367.318 236.447 360.544 284.008 374.698 310.183C384.584 329.04 448.974 304.753 467.507 298.898Z" fill="#BDBAAC"/>
<path d="M466.765 4.12972C460.532 9.64567 454.874 15.3255 450.004 21.5106C447.606 24.4735 445.134 27.6958 443.024 30.7406C440.84 34.0448 439.017 37.1716 437.12 40.5578C440.521 38.4416 443.707 35.984 446.894 33.5264C450.08 31.0689 453.193 28.8707 456.379 26.4132C462.465 21.4161 468.625 16.1596 474.496 10.8211C480.59 4.70433 473.508 -2.08258 466.765 4.12972Z" fill="#D7AC5C"/>
<path d="M445.356 33.9779C420.834 58.9638 402.588 82.653 387.733 105.346C373.167 128.12 361.343 149.994 351.532 172.441C332.198 217.418 317.53 264.566 305.094 332.264C304.716 334.681 301.767 334.121 302.145 331.704C314.869 264.088 329.323 216.599 348.731 171.363C358.616 148.656 370.078 126.96 385.006 104.007C399.934 81.0552 418.181 57.366 442.776 32.1206C444.805 30.4549 447.097 32.2302 445.356 33.9779Z" fill="#D7AC5C"/>
<path d="M334.408 220.571C334.408 220.571 331.169 210.111 326.796 197.084C322.423 184.057 317.203 168.545 311.87 158.891C309.24 153.934 304.049 154.698 300.205 158.371C296.362 162.044 294.014 168.107 296.496 173.582C300.893 183.25 310.531 195.253 318.748 204.607C327.325 213.784 334.408 220.571 334.408 220.571Z" fill="#D7AC5C"/>
<path d="M319.84 131.993C322.585 140.909 326.776 149.116 331.69 156.968C336.604 164.82 342.028 171.975 348.675 179.199C346.807 168.289 345.08 157.979 342.917 148.107C341.042 138.316 338.945 129.304 336.2 120.388C332.747 109.587 316.748 121.014 319.84 131.993Z" fill="#D7AC5C"/>
<path d="M339.519 89.0788C342.973 109.698 352.21 127.477 364.331 144.955C362.633 120.35 361.921 98.83 358.68 78.5527C356.607 66.1815 337.807 76.5302 339.519 89.0788Z" fill="#D7AC5C"/>
<path d="M371.335 61.4027C371.781 69.6637 373.023 77.3104 375.563 84.766C378.029 92.481 381.144 100.1 384.76 108.143C385.842 97.7932 386.628 88.4809 387.267 79.6874C387.906 70.8939 388.323 62.8787 388.091 54.959C387.949 44.5406 370.979 50.6428 371.335 61.4027Z" fill="#D7AC5C"/>
<path d="M402.66 82.3921C404.998 67.6317 409.422 53.1855 411.464 39.4628C412.899 30.0549 398.763 32.7574 396.679 42.2608C394.964 50.4671 396.618 61.0358 398.435 68.8464C400.252 76.657 402.66 82.3921 402.66 82.3921Z" fill="#D7AC5C"/>
<path d="M425.975 55.1006C428.355 44.5594 432.386 34.7694 434.256 24.9246C435.528 18.2749 425.507 19.626 423.874 26.4531C422.536 32.2426 422.702 39.302 423.813 45.2281C424.709 50.8129 425.975 55.1006 425.975 55.1006Z" fill="#D7AC5C"/>
<path d="M333.044 219.903C333.044 219.903 342.094 213.227 353.453 206.086C365.099 199.028 379.555 191.929 389.871 189.54C395.498 188.339 398.497 191.998 398.753 196.559C399.296 201.202 397.243 206.226 391.757 208.028C381.867 211.1 367.37 213.98 355.254 216.136C342.777 218.47 333.044 219.903 333.044 219.903Z" fill="#D7AC5C"/>
<path d="M403.125 169.194C394.607 171.815 386.163 174.177 377.005 175.774C368.134 177.452 358.548 178.367 348.888 179.54C357.939 172.864 366.982 167.307 375.515 162.447C384.262 157.928 393.001 154.528 401.519 151.907C411.696 148.918 413.375 165.945 403.125 169.194Z" fill="#D7AC5C"/>
<path d="M425.041 135.893C406.133 141.162 385.664 143.181 364.332 144.954C385.176 130.701 405.118 121.8 424.38 117.473C435.633 115.07 436.442 132.971 425.041 135.893Z" fill="#D7AC5C"/>
<path d="M434.356 102.083C426.922 104.172 419.136 105.318 410.848 106.041C402.847 106.846 394.271 107.487 384.973 108.483C389.531 105.575 394.016 102.927 398.139 100.455C402.549 98.0662 406.812 96.1958 410.787 94.2436C418.664 90.5984 426.533 88.0729 434.393 86.6671C444.562 84.7973 444.311 99.8719 434.356 102.083Z" fill="#D7AC5C"/>
<path d="M402.373 82.314C416.254 75.0509 429.847 67.7059 443.416 63.7198C452.221 61.1808 453.283 73.8249 444.33 76.8829C436.462 79.4083 426.079 80.9368 417.504 81.5779C408.928 82.219 402.373 82.314 402.373 82.314Z" fill="#D7AC5C"/>
<path d="M423.896 53.6658C434.228 49.0377 444.561 44.4097 454.302 41.857C460.939 40.3829 460.801 49.5997 454.378 51.4153C448.604 53.1353 440.751 53.4214 434.771 53.6803C428.791 53.9393 423.896 53.6658 423.896 53.6658Z" fill="#D7AC5C"/>
<path d="M217.791 137.267C229.365 156.071 234.479 178.369 229.634 200.397C228.557 205.502 226.942 210.606 224.789 215.441C222.636 220.277 220.213 225.113 217.253 229.411C211.062 238.545 203.795 246.604 208.101 258.424C209.985 263.26 212.946 267.558 215.369 271.856C223.174 285.557 226.942 301.676 225.597 317.526C220.752 307.317 219.406 295.766 216.445 285.02C213.215 272.125 207.832 258.693 194.374 254.126C191.683 253.32 189.26 252.245 186.569 251.44C181.455 249.559 176.341 247.679 171.496 245.529C169.073 244.455 166.92 243.38 165.036 242.306C162.883 241.231 160.999 239.888 158.845 238.545C155.077 235.858 151.578 233.172 148.348 230.217C134.621 217.053 127.085 201.472 125.201 182.936C125.201 182.667 125.739 182.13 126.277 182.13C130.853 183.204 134.89 184.816 138.928 186.428C142.965 188.309 146.733 190.458 150.501 192.876C152.386 193.95 154.27 195.293 155.885 196.368C157.769 197.711 159.384 198.786 161.268 200.129C164.767 202.815 168.266 205.502 171.496 208.188C174.995 211.412 178.225 214.904 181.186 218.397C184.146 222.158 186.838 225.919 189.529 229.68C190.337 231.023 191.414 232.097 192.49 233.441C193.567 234.784 194.374 235.858 195.451 237.201C193.836 233.44 191.952 229.948 190.068 226.456C188.184 222.963 186.3 219.471 184.146 215.979C181.724 211.949 179.301 207.651 176.879 203.621C174.187 199.592 171.765 195.562 169.612 191.264C167.997 188.577 166.382 185.622 164.767 182.936C156.961 183.473 149.963 181.324 143.773 178.906C137.044 176.488 130.853 173.265 125.47 169.504C118.741 164.937 112.55 159.833 107.975 153.654C102.591 147.206 99.8998 139.147 94.5166 132.7C94.2474 132.431 94.7857 131.625 95.3241 131.625C123.317 133.237 146.464 149.355 159.115 171.384C157.23 168.16 155.616 164.399 154.001 160.907C152.386 157.415 150.771 153.654 149.156 150.161C147.81 147.206 146.464 144.251 144.849 141.565C143.234 138.878 141.35 136.192 138.928 134.043C137.313 132.431 134.89 131.625 133.275 130.55C131.391 129.476 129.507 128.133 127.623 126.789C124.931 125.178 122.24 123.297 119.279 122.491C116.857 121.685 114.434 121.148 112.281 120.073C109.859 118.999 107.705 117.387 105.821 115.506C103.937 113.895 102.053 112.014 100.169 110.134C98.2848 108.253 96.6699 106.373 94.5166 104.492C92.6325 103.149 90.4792 101.806 88.0568 100.463C87.2493 100.194 88.326 99.1193 88.8643 99.3879C93.9783 101.268 100.438 100.463 105.821 102.074C110.935 103.686 116.318 105.835 120.625 108.79C125.47 112.283 129.776 116.044 133.545 120.879C131.391 117.118 128.969 113.626 126.546 110.134L122.778 105.029C121.432 103.418 120.087 101.806 118.741 99.9252C118.472 99.9252 118.472 99.9252 118.203 99.6566C116.049 97.2388 113.627 94.821 111.204 92.6719C108.513 90.7914 105.552 89.1796 102.322 87.8363C95.8624 85.4186 88.0568 85.4185 81.3278 83.538C68.6774 80.0457 59.2569 72.2551 50.913 63.6585C50.6438 63.3899 50.913 62.5839 51.4513 62.3153C61.9485 59.0916 73.5222 59.3602 82.6736 63.3899C85.0961 64.4644 87.2493 65.8076 89.4026 67.1509C91.2867 68.7627 93.1708 70.3746 94.7857 72.5237C96.939 75.2101 99.3614 77.8966 101.784 80.583L103.937 82.1948C102.322 78.9711 101.246 75.7474 100.438 72.2551C99.6306 68.7627 99.0923 65.0017 98.554 60.9721C98.0156 55.5992 96.939 50.495 95.8624 45.3908C95.3241 43.2417 94.5166 41.0925 93.9783 38.9434C93.44 36.7943 92.9016 34.6451 92.9016 32.2273C92.9016 31.6901 93.44 31.1528 93.9783 31.4214C104.745 38.1375 112.012 48.8832 116.318 60.9721C120.625 73.061 121.971 86.4931 121.971 98.8507C121.971 99.1193 121.971 99.1193 121.702 99.3879C124.662 102.88 127.085 106.373 129.776 110.134C133.814 115.775 136.774 121.954 140.543 127.595L141.081 128.401C141.081 127.864 141.081 127.327 141.35 126.521C140.543 122.76 140.273 118.73 140.004 114.432C139.735 110.402 139.466 106.104 139.735 101.806C139.735 97.7761 140.004 93.7465 140.004 89.7168C140.004 85.6872 140.004 81.6576 139.735 77.6279C139.735 69.3 138.928 61.2407 138.12 52.9128C138.12 52.1069 138.928 51.8382 139.466 52.1069C142.696 55.3306 146.195 58.5543 149.425 62.0466C152.386 65.539 155.346 69.3 157.769 73.3296C160.999 79.2398 160.191 86.2245 157.5 92.6719C153.193 103.149 144.849 115.238 143.234 125.984C143.773 128.401 144.311 131.088 144.58 133.506C146.464 136.729 148.348 139.953 150.232 143.177C153.193 148.55 155.346 154.191 157.769 159.564C159.653 163.862 161.537 168.16 163.421 172.459C165.305 176.757 167.189 181.055 169.612 185.085C169.612 184.01 169.612 183.204 169.612 182.13C169.881 178.1 170.15 174.071 170.419 170.041C170.958 160.638 172.303 150.967 173.649 141.296C174.187 136.998 175.264 132.431 176.341 127.864C177.417 123.297 178.763 118.999 180.109 114.432C183.07 105.298 186.03 96.1642 188.722 87.0304C188.991 86.4931 189.529 86.2245 190.068 86.4931C193.836 89.1796 196.797 92.6719 198.681 96.9702C200.565 101.268 201.642 105.835 202.449 110.134C203.257 114.701 203.526 119.536 203.526 124.103C203.256 128.939 202.718 133.506 201.642 138.072C198.681 148.818 194.105 158.758 188.184 168.429C185.492 172.727 182.262 177.026 180.109 181.593C179.032 183.742 177.417 185.622 176.879 187.771C176.341 189.92 176.341 192.338 176.879 194.219C177.956 197.711 180.378 200.666 182.531 203.621C184.415 206.576 186.3 209.531 188.184 212.486L190.875 217.053C191.683 218.665 192.49 220.008 193.567 221.62C196.258 226.456 198.142 231.291 200.027 236.396C200.834 238.276 201.642 240.157 202.18 242.037C201.642 237.739 201.642 233.172 201.372 228.874C201.103 223.769 201.372 218.665 201.642 213.292C201.911 208.188 202.718 202.815 203.795 197.442C205.141 192.07 206.486 186.965 208.101 181.593C209.716 176.22 211.6 170.847 212.408 165.205C213.215 160.638 213.484 156.072 214.023 151.236C214.561 146.4 215.099 141.833 216.984 137.267C216.714 136.998 217.522 136.998 217.791 137.267Z" fill="#519DB2"/>
</g>
<defs>
<clipPath id="clip0_8485_3662">
<rect width="660" height="192" fill="white"/>
</clipPath>
</defs>
</svg>
