<svg width="282" height="247" viewBox="0 0 282 247" fill="none" xmlns="http://www.w3.org/2000/svg">
<g clip-path="url(#clip0_8485_3615)">
<path d="M1.55372 67.4769C21.4413 79.0088 41.3289 90.5407 61.2165 101.917C78.7736 112.046 96.486 122.175 114.043 132.461C131.6 142.746 149.312 143.369 166.869 133.24C202.45 112.825 237.874 92.2548 273.455 71.8403C275.941 70.4378 278.116 67.6328 281.845 68.4119C282.622 71.6845 279.98 72.7754 278.271 74.3337C235.233 117.656 192.04 160.667 149.157 204.145C143.719 209.755 139.99 210.846 133.931 204.613C90.5818 160.667 46.9223 117.033 3.26281 73.3987C2.01983 72.152 1.0876 70.7495 0 69.5028C0.466116 68.8795 0.932231 68.2561 1.55372 67.4769Z" fill="#262569"/>
<path d="M140.92 188.717C152.076 188.717 161.119 179.647 161.119 168.459C161.119 157.27 152.076 148.2 140.92 148.2C129.765 148.2 120.722 157.27 120.722 168.459C120.722 179.647 129.765 188.717 140.92 188.717Z" fill="white"/>
<path d="M174.793 95.6833C174.793 113.76 159.255 129.5 141.543 129.5C122.743 129.656 107.206 114.384 107.051 95.8391C107.051 77.4505 122.743 62.0227 141.388 62.1785C159.566 62.3344 174.948 77.6063 174.793 95.6833Z" fill="#262569"/>
<path d="M128.182 168.77C128.182 164.251 128.337 164.095 132.843 164.095C136.106 164.095 136.106 164.095 136.261 160.667C136.261 159.108 135.64 157.083 137.504 156.303C139.679 155.368 142.01 155.524 144.185 156.303C144.962 156.615 145.273 157.394 145.273 158.018C145.428 158.953 145.428 159.888 145.428 160.667C145.428 164.095 145.428 163.939 148.846 164.095C150.4 164.095 152.575 163.472 153.197 165.498C153.818 167.679 153.818 170.017 153.197 172.199C153.041 172.822 152.42 172.978 151.798 173.134C151.177 173.134 150.711 173.134 150.089 173.134C145.428 173.134 145.584 172.51 145.428 177.497C145.428 180.77 144.807 181.393 141.544 181.393C140.922 181.393 140.301 181.393 139.524 181.393C137.349 181.549 136.261 180.458 136.106 178.12C135.795 173.134 135.795 173.134 130.979 172.978C128.493 172.978 128.182 172.666 128.182 168.77Z" fill="#CF323A"/>
<path d="M47.8557 239.364C48.0111 242.325 49.4095 243.572 51.8954 243.572C53.7599 243.572 55.1582 242.481 55.469 241.39H59.5086C58.2657 245.442 55.469 247 51.74 247C46.4574 247 43.1946 243.416 43.1946 238.273C43.1946 233.286 46.6128 229.391 51.74 229.391C57.4888 229.391 60.1301 234.221 59.8194 239.364H47.8557ZM55.3136 236.403C54.8475 234.066 53.9152 232.819 51.74 232.819C48.788 232.819 48.0111 235.156 48.0111 236.403H55.3136Z" fill="black"/>
<path d="M62.4607 235.78H72.0938V239.676H62.4607V235.78Z" fill="black"/>
<path d="M76.1348 223.469H81.262V232.975L90.2736 223.469H96.6439L87.6323 232.507L97.4207 246.532H91.0505L84.0587 236.091L81.1067 239.052V246.532H76.1348V223.469Z" fill="black"/>
<path d="M102.545 241.234C102.545 243.26 104.254 244.039 106.119 244.039C107.362 244.039 109.071 243.572 109.071 241.857C109.071 240.455 107.206 239.987 103.944 239.208C101.302 238.585 98.6609 237.65 98.6609 234.689C98.6609 230.481 102.39 229.391 105.963 229.391C109.537 229.391 112.955 230.637 113.266 234.689H108.76C108.605 232.975 107.206 232.351 105.653 232.351C104.565 232.351 103.167 232.507 103.167 233.91C103.167 235.624 105.808 235.78 108.294 236.403C110.935 237.027 113.577 237.962 113.577 241.078C113.577 245.442 109.692 246.844 105.963 246.844C102.079 246.844 98.3502 245.442 98.1948 240.922H102.545V241.234Z" fill="black"/>
<path d="M116.221 223.469H120.726V232.196H120.882C121.969 230.326 123.989 229.391 125.698 229.391C130.515 229.391 131.758 232.196 131.758 236.247V246.532H127.252V237.026C127.252 234.221 126.475 232.975 124.3 232.975C121.814 232.975 120.726 234.377 120.726 237.806V246.532H116.221V223.469Z" fill="black"/>
<path d="M135.174 235.001C135.484 230.793 139.213 229.391 142.942 229.391C146.205 229.391 150.245 230.17 150.245 234.066V242.792C150.245 244.351 150.4 245.753 150.866 246.533H146.205C146.05 246.065 145.894 245.442 145.894 244.974C144.496 246.533 142.321 247 140.301 247C137.038 247 134.552 245.442 134.552 242.013C134.552 234.377 145.894 238.429 145.584 234.689C145.584 232.819 144.185 232.351 142.632 232.351C140.923 232.351 139.835 233.131 139.68 234.845H135.174V235.001ZM145.739 238.429C144.962 239.052 143.408 239.208 142.01 239.364C140.612 239.676 139.369 240.143 139.369 241.857C139.369 243.572 140.612 244.039 142.165 244.039C145.739 244.039 145.894 241.234 145.894 240.143V238.429H145.739Z" fill="black"/>
<path d="M153.977 229.858H158.327V232.196C159.57 230.481 161.279 229.546 163.454 229.546C165.474 229.546 167.494 230.326 168.271 232.351C169.203 230.949 170.912 229.546 173.243 229.546C176.816 229.546 179.302 231.261 179.302 235.468V246.688H174.796V237.182C174.796 235.001 174.641 233.131 172 233.131C169.358 233.131 168.892 235.312 168.892 237.338V246.688H164.386V237.338C164.386 235.468 164.542 233.131 161.59 233.131C160.658 233.131 158.482 233.754 158.482 237.026V246.688H153.977V229.858Z" fill="black"/>
<path d="M182.875 235.001C183.186 230.793 186.915 229.391 190.644 229.391C193.907 229.391 197.946 230.17 197.946 234.066V242.792C197.946 244.351 198.102 245.753 198.568 246.533H193.907C193.751 246.065 193.596 245.442 193.596 244.974C192.198 246.533 190.022 247 188.003 247C184.74 247 182.254 245.442 182.254 242.013C182.254 234.377 193.596 238.429 193.285 234.689C193.285 232.819 191.887 232.351 190.333 232.351C188.624 232.351 187.537 233.131 187.381 234.845H182.875V235.001ZM193.441 238.429C192.664 239.052 191.11 239.208 189.712 239.364C188.313 239.676 187.07 240.143 187.07 241.857C187.07 243.572 188.313 244.039 189.867 244.039C193.441 244.039 193.596 241.234 193.596 240.143V238.429H193.441Z" fill="black"/>
<path d="M207.267 229.858H210.686V232.975H207.267V241.234C207.267 242.792 207.578 243.104 209.132 243.104C209.598 243.104 210.064 243.104 210.53 242.948V246.532C209.753 246.688 208.821 246.688 207.889 246.688C205.092 246.688 202.606 246.065 202.606 242.637V232.819H199.81V229.702H202.606V224.715H207.112V229.858H207.267Z" fill="black"/>
<path d="M212.551 235.001C212.862 230.793 216.591 229.391 220.32 229.391C223.583 229.391 227.622 230.17 227.622 234.066V242.792C227.622 244.351 227.778 245.753 228.244 246.533H223.583C223.427 246.065 223.272 245.442 223.272 244.974C221.873 246.533 219.698 247 217.678 247C214.416 247 211.93 245.442 211.93 242.013C211.93 234.377 223.272 238.429 222.961 234.689C222.961 232.819 221.563 232.351 220.009 232.351C218.3 232.351 217.212 233.131 217.057 234.845H212.551V235.001ZM223.116 238.429C222.34 239.052 220.786 239.208 219.388 239.364C217.989 239.676 216.746 240.143 216.746 241.857C216.746 243.572 217.989 244.039 219.543 244.039C223.116 244.039 223.272 241.234 223.272 240.143V238.429H223.116Z" fill="black"/>
<path d="M55.9346 91.9433C56.7114 88.1556 57.799 84.5195 59.042 81.0348" stroke="black" stroke-width="4.81881" stroke-miterlimit="10" stroke-linecap="round"/>
<path d="M93.2234 37.1422C106.942 27.5048 123.743 21.8171 141.623 21.8171C169.368 21.8171 194.03 35.2463 209.752 56.101" stroke="black" stroke-width="4.81881" stroke-miterlimit="10" stroke-linecap="round" stroke-dasharray="42.26 42.26"/>
<path d="M223.738 79.4764C224.981 82.9611 226.069 86.7488 226.846 90.385" stroke="black" stroke-width="4.81881" stroke-miterlimit="10" stroke-linecap="round"/>
<path d="M74.1136 78.5414C86.127 78.5414 95.8657 68.7736 95.8657 56.7244C95.8657 44.6752 86.127 34.9073 74.1136 34.9073C62.1003 34.9073 52.3616 44.6752 52.3616 56.7244C52.3616 68.7736 62.1003 78.5414 74.1136 78.5414Z" fill="#F89939"/>
<path d="M139.833 43.6341C151.846 43.6341 161.585 33.8663 161.585 21.817C161.585 9.76782 151.846 0 139.833 0C127.819 0 118.081 9.76782 118.081 21.817C118.081 33.8663 127.819 43.6341 139.833 43.6341Z" fill="#2A2B79"/>
<path d="M205.713 78.5414C217.726 78.5414 227.465 68.7736 227.465 56.7244C227.465 44.6752 217.726 34.9073 205.713 34.9073C193.7 34.9073 183.961 44.6752 183.961 56.7244C183.961 68.7736 193.7 78.5414 205.713 78.5414Z" fill="#188943"/>
<path d="M139.836 7.79187L143.72 15.5837L152.421 16.9862L146.051 23.0638L147.604 31.7906L139.836 27.583L132.067 31.7906L133.466 23.0638L127.251 16.9862L135.952 15.5837L139.836 7.79187Z" fill="white"/>
<path d="M73.1796 43.4783L77.0639 51.4259L85.7647 52.6726L79.3945 58.7502L80.9482 67.477L73.1796 63.4253L65.411 67.477L66.8094 58.7502L60.5945 52.6726L69.2953 51.4259L73.1796 43.4783Z" fill="white"/>
<path d="M205.71 43.4783L209.595 51.4259L218.295 52.6726L212.081 58.7502L213.479 67.477L205.71 63.4253L197.942 67.477L199.495 58.7502L193.125 52.6726L201.826 51.4259L205.71 43.4783Z" fill="white"/>
</g>
<defs>
<clipPath id="clip0_8485_3615">
<rect width="282" height="247" fill="white"/>
</clipPath>
</defs>
</svg>
