<svg width="218" height="71" viewBox="0 0 218 71" fill="none" xmlns="http://www.w3.org/2000/svg">
<g opacity="0.5" clip-path="url(#clip0_8538_6418)">
<path d="M49.3047 106.477C49.1266 106.566 49.0375 106.566 48.8593 106.656C48.503 106.745 48.1467 106.745 47.7903 106.656C46.2759 106.477 44.3161 105.137 42.5345 103.707C40.7528 102.278 38.9712 100.759 37.9022 99.8657C33.9825 96.7388 30.2411 93.5225 26.3215 90.3956C25.6088 89.7703 24.8961 89.2342 24.1835 88.5195C23.4708 87.8941 22.8472 87.1794 22.3127 86.3753C21.3328 84.7672 20.7093 82.6231 21.3328 80.9256C21.7782 79.7642 22.6691 78.9601 22.9363 77.7094C23.2926 75.8332 21.8673 73.6891 20.1748 72.7063C18.4822 71.7236 16.7005 71.5449 15.008 71.1875C13.4936 70.9195 11.9792 70.4728 10.5538 69.7581C9.12853 69.0434 7.79229 68.0606 6.7233 66.8099C5.65431 65.4698 5.03073 63.7723 4.85257 62.1642C4.6744 60.5561 5.11981 58.948 6.18881 58.0546C7.52504 56.8931 9.93027 56.8038 10.3757 54.8383C10.6429 53.7662 10.1975 52.6941 9.48486 51.7114C8.7722 50.7287 7.79229 49.6566 6.90147 48.8525C5.74339 47.8698 4.6744 46.7084 3.78358 45.5469C2.80367 44.3855 1.91284 43.1348 1.28927 41.7053C-0.0469706 39.0251 -0.492383 35.8982 0.66569 33.6647C0.932937 33.218 1.20018 32.8607 1.55651 32.5033L1.6456 32.414C3.16 30.8952 5.74339 30.5378 8.32679 31.1632C9.93027 31.6099 11.4447 32.414 12.9591 33.486C14.4735 34.5581 15.7206 35.8982 16.9678 37.3277C18.4822 39.1145 19.7293 41.1693 21.4219 42.7774C23.1145 44.3855 25.3415 45.6363 26.945 45.1002C28.014 44.6535 28.6376 43.5815 29.6175 42.9561C30.3302 42.5094 31.1319 42.42 31.9337 42.5987C32.8245 42.7774 33.7153 43.1348 34.6061 43.7601C35.497 44.3855 36.3878 45.1002 37.1895 45.9936C37.9913 46.887 38.6148 47.8698 39.1493 48.9419C40.2183 50.9967 40.7528 53.2302 41.0201 55.285C41.3764 57.4292 41.3764 59.5733 41.5546 61.6282C41.7327 64.3084 42.4454 68.0606 44.6725 69.0434C46.365 69.8474 47.7013 68.418 49.3938 68.5967C51.1755 68.7754 53.0462 70.9195 54.0261 73.3317C54.9169 75.6545 55.1842 78.0667 55.1842 80.4789C55.2733 84.3205 55.5405 87.8048 54.9169 91.4677C54.5606 93.6119 54.0261 95.7561 53.4916 97.7215C52.9571 99.687 52.2445 101.652 51.4427 103.529C50.9082 104.69 50.2846 105.941 49.3047 106.477Z" fill="#C2E3DD"/>
<path d="M100.601 15.9483C100.027 16.8578 99.5511 17.9163 99.1496 18.9259C96.915 24.7626 97.4382 31.5587 98.7794 37.8176C98.8751 38.2876 98.9962 38.6343 99.0919 39.1043C99.213 39.451 99.2109 39.7721 99.332 40.1188C99.7167 41.6778 100.15 43.3112 100.535 44.8701C97.9516 47.4192 96.0312 50.492 94.7503 53.8907C96.6878 51.9789 99.0674 50.4162 101.543 49.3235C102.238 52.4902 102.809 55.6313 102.788 58.842C102.786 59.1631 102.735 59.4097 102.808 59.6819C102.856 59.7564 102.831 59.8797 102.757 59.9285C102.699 61.1383 102.642 62.3481 102.462 63.5323C102.385 63.9022 102.358 64.3466 102.281 64.7165C100.824 72.3867 96.2377 79.3417 90.0616 84.0371C88.0029 85.6022 85.0753 87.9511 82.4832 88.055C82.1624 88.0525 81.8416 88.0501 81.4719 87.9732C80.6836 87.7449 79.9951 87.3445 79.4087 86.4509C78.1613 84.7126 77.836 81.6228 76.9604 79.6402C75.8426 76.9643 74.3041 74.4581 73.2607 71.7333C69.5969 62.0977 71.7418 51.0983 76.7128 41.9727C76.8381 41.6773 77.0867 41.4075 77.212 41.112C77.4117 40.7678 77.6858 40.3747 77.8855 40.0304C79.8059 36.9576 81.9219 34.1827 84.2843 31.459C85.2597 33.2694 86.5814 34.9589 88.1028 36.3042C87.0572 33.9005 86.5811 31.2294 86.7954 28.6377C90.5728 24.6651 94.7432 20.9672 98.9625 17.3437C99.5085 16.8786 100.055 16.4135 100.601 15.9483Z" fill="#C2E3DD"/>
<path d="M217.985 31.3047C217.141 31.9709 216.34 32.8101 215.625 33.6281C211.573 38.3856 209.801 44.9674 208.98 51.3156C208.913 51.7906 208.912 52.1579 208.845 52.6329C208.844 53.0001 208.735 53.3021 208.734 53.6694C208.577 55.2675 208.441 56.952 208.284 58.55C204.999 60.0918 202.164 62.3483 199.824 65.1254C202.288 63.9691 205.052 63.2894 207.75 63.0847C207.35 66.302 206.842 69.4541 205.752 72.4741C205.643 72.7761 205.513 72.9916 205.49 73.2723C205.512 73.3588 205.446 73.4666 205.36 73.4878C204.903 74.6093 204.446 75.7308 203.881 76.7871C203.685 77.1103 203.511 77.52 203.316 77.8433C199.386 84.5889 192.744 89.6164 185.356 91.9835C182.894 92.7725 179.351 94.0107 176.872 93.2442C176.571 93.1349 176.269 93.0256 175.946 92.8298C175.279 92.3517 174.763 91.7447 174.508 90.7066C173.912 88.6517 174.635 85.6302 174.47 83.4691C174.308 80.5734 173.693 77.6975 173.617 74.7806C173.374 64.4745 179.063 54.8197 186.791 47.8739C187.007 47.6372 187.331 47.4657 187.548 47.229C187.851 46.971 188.24 46.6918 188.543 46.4338C191.378 44.1773 194.298 42.2667 197.433 40.4867C197.749 42.5189 198.432 44.5525 199.418 46.3282C199.233 43.7133 199.675 41.0362 200.741 38.6643C205.626 36.1787 210.79 34.0831 215.976 32.0741C216.646 31.8176 217.315 31.5612 217.985 31.3047Z" fill="#C2E3DD"/>
<path d="M154.419 98.7059C156.782 97.9616 159.245 97.0989 161.09 95.4063C162.934 93.7137 163.932 91.0997 162.995 89.0849C162.068 87.1794 159.653 85.9464 159.364 83.7683C159.022 80.9341 162.744 79.3075 165.773 78.6186C170.425 77.5763 175.323 76.8441 179.066 74.115C182.809 71.3859 184.659 65.7296 181.316 62.5911C180.123 61.478 178.528 60.8383 177.545 59.5979C176.07 57.7373 176.612 54.9406 177.992 52.9558C179.372 50.9711 181.334 49.3788 183.179 47.6862C185.928 44.9286 188.066 41.4504 188.309 37.6874C188.56 34.0338 186.805 30.1045 183.351 28.2962C180.244 26.6797 176.204 27.1214 173.019 28.5937C169.843 30.1754 167.304 32.8057 165.331 35.6098C163.759 37.9406 161.685 40.863 158.786 40.4404C156.215 39.9909 155.206 37.1012 153.202 35.5042C150.014 32.9035 144.623 34.3367 142.019 37.5228C139.416 40.7089 139.218 45.0186 139.87 48.9284C140.277 51.2068 141.012 53.4583 140.645 55.6903C140.277 57.9223 138.486 60.271 136.069 60.3593C134.428 60.494 132.915 59.5172 131.247 59.3239C128.913 59.0751 126.612 60.5849 125.224 62.4603C123.944 64.3267 123.358 66.5766 122.99 68.8086C121.326 78.0826 119.089 93.7889 123.764 102.433C127.029 108.66 148.297 100.639 154.419 98.7059Z" fill="#BDBAAC"/>
<path d="M154.174 1.36377C152.115 3.18531 150.246 5.06098 148.638 7.10351C147.846 8.08194 147.029 9.14605 146.332 10.1515C145.611 11.2427 145.009 12.2753 144.382 13.3935C145.505 12.6947 146.558 11.8831 147.61 11.0715C148.663 10.26 149.691 9.53405 150.743 8.72248C152.753 7.07228 154.788 5.33641 156.727 3.57348C158.74 1.55352 156.401 -0.687735 154.174 1.36377Z" fill="#D7AC5C"/>
<path d="M147.102 11.2206C139.003 19.4717 132.976 27.2947 128.069 34.7886C123.258 42.3095 119.352 49.5329 116.112 56.9457C109.726 71.7985 104.881 87.3683 100.773 109.725C100.648 110.523 99.6744 110.338 99.799 109.54C104.002 87.2104 108.776 71.5279 115.187 56.5894C118.452 49.0909 122.238 41.9261 127.168 34.3466C132.099 26.767 138.126 18.9441 146.25 10.6072C146.92 10.0572 147.677 10.6434 147.102 11.2206Z" fill="#D7AC5C"/>
<path d="M106.459 82.9079C105.788 80.2159 105.069 77.6952 104.04 75.179C102.986 72.7485 101.789 70.4622 100.448 68.3202C99.3194 66.5165 97.5315 67.0259 96.2132 68.4101C94.9899 69.8214 94.3311 72.1345 95.4846 73.8526C98.2613 78.1636 102.093 81.2933 106.459 82.9079Z" fill="#D7AC5C"/>
<path d="M110.456 72.8396C110.456 72.8396 109.386 69.3855 107.941 65.0836C106.497 60.7817 104.773 55.6591 103.011 52.471C102.143 50.8341 100.428 51.0865 99.1585 52.2993C97.8891 53.5122 97.1135 55.5142 97.9334 57.3225C99.3857 60.5151 102.569 64.4789 105.283 67.5679C108.116 70.5983 110.456 72.8396 110.456 72.8396Z" fill="#D7AC5C"/>
<path d="M105.644 43.5883C106.551 46.5329 107.935 49.243 109.558 51.8359C111.181 54.4288 112.973 56.7917 115.168 59.1773C114.551 55.5744 113.981 52.1699 113.266 48.9097C112.647 45.6766 111.955 42.7005 111.048 39.7559C109.907 36.189 104.623 39.9628 105.644 43.5883Z" fill="#D7AC5C"/>
<path d="M112.144 29.4167C113.285 36.2257 116.336 42.0969 120.339 47.869C119.778 39.7434 119.543 32.6369 118.473 25.9406C117.788 21.8553 111.578 25.2727 112.144 29.4167Z" fill="#D7AC5C"/>
<path d="M122.653 20.2771C122.8 23.0052 123.21 25.5304 124.049 27.9924C124.864 30.5402 125.893 33.0564 127.087 35.7124C127.445 32.2945 127.704 29.2192 127.915 26.3153C128.126 23.4114 128.264 20.7646 128.187 18.1492C128.14 14.7087 122.535 16.7239 122.653 20.2771Z" fill="#D7AC5C"/>
<path d="M133 27.2085C133.772 22.3341 135.233 17.5635 135.908 13.0319C136.382 9.92508 131.713 10.8175 131.024 13.9559C130.458 16.6658 131.004 20.156 131.604 22.7353C132.204 25.3146 133 27.2085 133 27.2085Z" fill="#D7AC5C"/>
<path d="M140.701 18.196C141.487 14.715 142.818 11.482 143.436 8.23092C143.856 6.03498 140.546 6.48113 140.007 8.73568C139.565 10.6475 139.62 12.9788 139.986 14.9358C140.283 16.7801 140.701 18.196 140.701 18.196Z" fill="#D7AC5C"/>
<path d="M107.788 83.2872C109.682 81.3259 111.811 79.6171 113.963 78.1924C116.114 76.7676 118.382 75.654 120.766 74.8516C122.698 74.1979 123.854 75.5463 124.104 77.1921C124.354 78.838 123.769 80.8941 121.813 81.6335C117.089 83.4368 112.279 84.1038 107.788 83.2872Z" fill="#D7AC5C"/>
<path d="M110.005 72.6191C110.005 72.6191 112.995 70.4144 116.747 68.0564C120.593 65.7254 125.368 63.381 128.776 62.5922C130.634 62.1955 131.625 63.4041 131.709 64.9102C131.889 66.4433 131.211 68.1026 129.398 68.6977C126.132 69.712 121.343 70.6631 117.342 71.3752C113.22 72.1459 110.005 72.6191 110.005 72.6191Z" fill="#D7AC5C"/>
<path d="M133.153 55.8734C130.34 56.739 127.551 57.5188 124.526 58.0462C121.596 58.6006 118.429 58.9024 115.239 59.29C118.228 57.0852 121.215 55.2502 124.034 53.6451C126.923 52.1528 129.81 51.0303 132.623 50.1647C135.984 49.1775 136.539 54.8005 133.153 55.8734Z" fill="#D7AC5C"/>
<path d="M140.392 44.8761C134.147 46.6162 127.386 47.283 120.34 47.8686C127.225 43.1616 133.812 40.2221 140.174 38.7932C143.891 37.9999 144.158 43.9115 140.392 44.8761Z" fill="#D7AC5C"/>
<path d="M143.469 33.7111C141.014 34.4009 138.442 34.7794 135.704 35.0182C133.062 35.284 130.229 35.4957 127.158 35.8247C128.663 34.8643 130.145 33.9897 131.506 33.1736C132.963 32.3846 134.371 31.767 135.684 31.1223C138.286 29.9185 140.885 29.0845 143.481 28.6203C146.84 28.0028 146.757 32.9809 143.469 33.7111Z" fill="#D7AC5C"/>
<path d="M132.905 27.1828C137.49 24.7842 141.98 22.3587 146.462 21.0423C149.37 20.2039 149.721 24.3794 146.764 25.3892C144.165 26.2232 140.735 26.728 137.903 26.9397C135.07 27.1514 132.905 27.1828 132.905 27.1828Z" fill="#D7AC5C"/>
<path d="M140.014 17.7222C143.427 16.1938 146.84 14.6655 150.057 13.8225C152.249 13.3357 152.204 16.3794 150.082 16.979C148.175 17.547 145.581 17.6414 143.606 17.727C141.631 17.8125 140.014 17.7222 140.014 17.7222Z" fill="#D7AC5C"/>
<path d="M71.937 45.3299C75.7598 51.5399 77.449 58.9032 75.8487 66.1778C75.4931 67.8633 74.9597 69.5489 74.2484 71.1458C73.5372 72.7426 72.7371 74.3395 71.7591 75.7589C69.7144 78.7752 67.314 81.4367 68.7364 85.3401C69.3587 86.937 70.3367 88.3564 71.1368 89.7758C73.715 94.3003 74.9597 99.6231 74.5152 104.857C72.9149 101.486 72.4704 97.6714 71.4924 94.1228C70.4256 89.8645 68.6475 85.4288 64.2023 83.9207C63.3133 83.6545 62.5132 83.2997 61.6241 83.0335C59.9349 82.4125 58.2458 81.7915 56.6455 81.0818C55.8454 80.7269 55.1341 80.3721 54.5118 80.0172C53.8006 79.6624 53.1783 79.2188 52.467 78.7752C51.2224 77.8881 50.0666 77.0009 48.9998 76.0251C44.4657 71.6781 41.9764 66.5326 41.3541 60.4113C41.3541 60.3226 41.5319 60.1452 41.7097 60.1452C43.221 60.5001 44.5546 61.0323 45.8881 61.5646C47.2217 62.1856 48.4664 62.8953 49.711 63.6938C50.3333 64.0486 50.9557 64.4922 51.4891 64.8471C52.1114 65.2906 52.6448 65.6455 53.2672 66.0891C54.4229 66.9762 55.5787 67.8634 56.6455 68.7505C57.8013 69.8151 58.8681 70.9683 59.846 72.1216C60.824 73.3636 61.713 74.6057 62.6021 75.8477C62.8688 76.2912 63.2244 76.6461 63.58 77.0897C63.9356 77.5332 64.2023 77.8881 64.5579 78.3316C64.0245 77.0896 63.4022 75.9364 62.7799 74.7831C62.1575 73.6298 61.5352 72.4765 60.824 71.3232C60.0238 69.9925 59.2237 68.5731 58.4236 67.2423C57.5345 65.9116 56.7344 64.5809 56.0232 63.1615C55.4898 62.2743 54.9563 61.2985 54.4229 60.4113C51.8447 60.5888 49.5332 59.879 47.4884 59.0806C45.2658 58.2822 43.221 57.2176 41.443 55.9756C39.2204 54.4675 37.1756 52.7819 35.6642 50.7415C33.8861 48.6123 32.9971 45.9509 31.219 43.8217C31.1301 43.733 31.3079 43.4669 31.4857 43.4669C40.7317 43.9992 48.3774 49.322 52.5559 56.5966C51.9336 55.532 51.4002 54.29 50.8668 53.1367C50.3333 51.9835 49.7999 50.7415 49.2665 49.5882C48.822 48.6123 48.3775 47.6365 47.844 46.7493C47.3106 45.8622 46.6883 44.975 45.8881 44.2653C45.3547 43.733 44.5546 43.4669 44.0212 43.112C43.3988 42.7572 42.7765 42.3136 42.1542 41.87C41.2652 41.3377 40.3761 40.7167 39.3982 40.4506C38.598 40.1844 37.7979 40.007 37.0867 39.6522C36.2865 39.2973 35.5753 38.765 34.953 38.144C34.3307 37.6117 33.7083 36.9907 33.086 36.3697C32.4637 35.7487 31.9303 35.1277 31.219 34.5067C30.5967 34.0631 29.8855 33.6196 29.0853 33.176C28.8186 33.0873 29.1742 32.7324 29.352 32.8211C31.0412 33.4421 33.1749 33.176 34.953 33.7083C36.6422 34.2406 38.4202 34.9503 39.8427 35.9261C41.443 37.0794 42.8654 38.3214 44.1101 39.9183C43.3988 38.6763 42.5987 37.523 41.7986 36.3697L40.5539 34.6841C40.1094 34.1519 39.6649 33.6196 39.2204 32.9986C39.1315 32.9986 39.1315 32.9986 39.0426 32.9098C38.3313 32.1114 37.5312 31.313 36.7311 30.6033C35.842 29.9823 34.8641 29.45 33.7972 29.0064C31.6635 28.208 29.0853 28.208 26.8627 27.587C22.6843 26.4337 19.5726 23.861 16.8166 21.0221C16.7277 20.9334 16.8166 20.6673 16.9944 20.5785C20.4617 19.514 24.2845 19.6027 27.3073 20.9334C28.1074 21.2883 28.8186 21.7318 29.5299 22.1754C30.1522 22.7077 30.7745 23.24 31.3079 23.9497C32.0192 24.8368 32.8193 25.724 33.6194 26.6111L34.3307 27.1434C33.7972 26.0788 33.4416 25.0143 33.1749 23.861C32.9082 22.7077 32.7304 21.4657 32.5526 20.135C32.3748 18.3607 32.0192 16.6751 31.6635 14.9895C31.4857 14.2798 31.219 13.5701 31.0412 12.8604C30.8634 12.1507 30.6856 11.4409 30.6856 10.6425C30.6856 10.4651 30.8634 10.2877 31.0412 10.3764C34.5974 12.5942 36.9978 16.1428 38.4202 20.135C39.8427 24.1271 40.2872 28.5628 40.2872 32.6437C40.2872 32.7324 40.2872 32.7324 40.1983 32.8211C41.1762 33.9744 41.9764 35.1277 42.8654 36.3697C44.199 38.2327 45.1769 40.2732 46.4216 42.1362L46.5994 42.4023C46.5994 42.2249 46.5994 42.0474 46.6883 41.7813C46.4216 40.5393 46.3327 39.2086 46.2438 37.7891C46.1549 36.4584 46.066 35.039 46.1549 33.6196C46.1549 32.2889 46.2438 30.9581 46.2438 29.6274C46.2438 28.2967 46.2438 26.966 46.1549 25.6353C46.1549 22.8851 45.8881 20.2237 45.6214 17.4735C45.6214 17.2074 45.8881 17.1187 46.066 17.2074C47.1328 18.272 48.2885 19.3365 49.3554 20.4898C50.3333 21.6431 51.3113 22.8851 52.1114 24.2158C53.1783 26.1676 52.9115 28.4741 52.0225 30.6033C50.6 34.0631 47.844 38.0553 47.3106 41.6039C47.4884 42.4023 47.6662 43.2894 47.7551 44.0879C48.3775 45.1525 48.9998 46.217 49.6221 47.2816C50.6 49.0559 51.3113 50.9189 52.1114 52.6932C52.7337 54.1126 53.3561 55.532 53.9784 56.9515C54.6007 58.3709 55.223 59.7903 56.0232 61.1211C56.0232 60.7662 56.0232 60.5001 56.0232 60.1452C56.1121 58.8145 56.201 57.4838 56.2899 56.153C56.4677 53.048 56.9122 49.8543 57.3567 46.6606C57.5345 45.2412 57.8902 43.733 58.2458 42.2249C58.6014 40.7167 59.0459 39.2973 59.4904 37.7891C60.4684 34.7729 61.4463 31.7566 62.3353 28.7403C62.4242 28.5628 62.6021 28.4741 62.7799 28.5628C64.0245 29.45 65.0025 30.6033 65.6248 32.0227C66.2471 33.4421 66.6027 34.9503 66.8694 36.3697C67.1361 37.8779 67.225 39.4747 67.225 40.9829C67.1361 42.5797 66.9583 44.0879 66.6027 45.596C65.6248 49.1446 64.1134 52.427 62.1575 55.6208C61.2685 57.0402 60.2016 58.4596 59.4904 59.9678C59.1348 60.6775 58.6014 61.2985 58.4236 62.0082C58.2458 62.7179 58.2458 63.5163 58.4236 64.1373C58.7792 65.2906 59.5793 66.2665 60.2906 67.2423C60.9129 68.2182 61.5352 69.1941 62.1575 70.1699L63.0466 71.6781C63.3133 72.2104 63.58 72.6539 63.9356 73.1862C64.8246 74.7831 65.447 76.3799 66.0693 78.0655C66.336 78.6865 66.6027 79.3075 66.7805 79.9285C66.6027 78.5091 66.6027 77.0009 66.5138 75.5815C66.4249 73.8959 66.5138 72.2104 66.6027 70.4361C66.6916 68.7505 66.9583 66.9762 67.314 65.2019C67.7585 63.4276 68.203 61.7421 68.7364 59.9678C69.2698 58.1935 69.8922 56.4192 70.1589 54.5562C70.4256 53.048 70.5145 51.5399 70.6923 49.943C70.8701 48.3462 71.0479 46.838 71.6702 45.3299C71.5813 45.2412 71.848 45.2412 71.937 45.3299Z" fill="#519DB2"/>
</g>
<defs>
<clipPath id="clip0_8538_6418">
<rect width="218" height="71" fill="white"/>
</clipPath>
</defs>
</svg>
