<svg width="81" height="122" viewBox="0 0 81 122" fill="none" xmlns="http://www.w3.org/2000/svg">
<g opacity="0.7">
<mask id="mask0_8485_3642" style="mask-type:luminance" maskUnits="userSpaceOnUse" x="37" y="0" width="18" height="122">
<path d="M54.7768 122L37.0876 122L37.0876 0.00370789L54.7768 0.00370634L54.7768 122Z" fill="white"/>
</mask>
<g mask="url(#mask0_8485_3642)">
<path fill-rule="evenodd" clip-rule="evenodd" d="M48.3492 114.255C49.4479 116.232 51.4255 121.121 53.1835 121.945C54.3371 122.494 54.392 118.045 54.447 117.221C54.7766 113.98 54.7766 110.739 54.6667 107.499C54.5019 101.621 52.689 96.2931 49.9972 91.0749C48.6238 88.3834 46.9758 85.637 44.4488 83.8244C43.2951 83.0004 41.8668 82.7258 40.7132 82.0117C39.3947 81.1329 40.1089 81.792 39.6145 80.3089C38.9553 78.2216 38.9003 75.5851 38.6806 73.3879C37.7467 63.336 38.0763 10.7694 39.7793 0.827324C39.9441 -0.0515292 38.7355 -0.381104 38.5707 0.717468C37.6917 6.43004 36.8677 46.5828 37.0875 59.7657C37.3072 72.9485 37.6917 84.5934 38.7355 89.2074C39.999 94.865 42.581 101.731 44.7784 107.059C45.8771 109.531 46.9758 111.948 48.3492 114.255Z" fill="#DF9F1E"/>
</g>
</g>
<g opacity="0.8">
<mask id="mask1_8485_3642" style="mask-type:luminance" maskUnits="userSpaceOnUse" x="38" y="-1" width="43" height="78">
<path d="M38.3191 76.8999L80.1797 76.8999L80.1797 -6.10352e-05L38.3191 -6.46947e-05L38.3191 76.8999Z" fill="white"/>
</mask>
<g mask="url(#mask1_8485_3642)">
<path fill-rule="evenodd" clip-rule="evenodd" d="M79.6852 76.8995C77.7625 76.6798 74.3016 72.7249 72.5986 71.2418C70.566 69.4841 68.6982 67.5616 66.9403 65.5842C63.0948 61.2448 59.6339 56.6308 56.5575 51.6873C51.5584 43.7226 47.3834 35.4284 44.1422 26.53C42.1096 21.0921 40.6263 15.3795 39.5276 9.66695C39.3079 8.56838 37.3852 0.329098 39.0332 -0.0554006C40.4615 -0.384975 40.6263 6.20646 40.7911 7.08531C42.5491 17.0823 45.8452 26.6399 50.0752 35.758C51.0091 37.7354 51.888 40.2072 53.2614 41.9649C54.2502 43.2283 53.3713 42.8438 54.8545 43.2283C56.173 43.5579 57.6013 43.2832 58.9197 43.7226C61.8313 44.6015 64.3034 46.6339 66.5008 48.7211C70.7308 52.7309 74.2466 57.2351 76.3342 62.673C77.4878 65.6941 78.5865 68.7701 79.3556 71.9559C79.5204 72.8348 80.9487 77.0093 79.6852 76.8995Z" fill="#57A9B7"/>
</g>
</g>
<g opacity="0.7">
<mask id="mask2_8485_3642" style="mask-type:luminance" maskUnits="userSpaceOnUse" x="0" y="0" width="39" height="89">
<path d="M-4.19617e-05 88.823L38.7842 88.823L38.7842 0.00354004L-3.41968e-05 0.00353665L-4.19617e-05 88.823Z" fill="white"/>
</mask>
<g mask="url(#mask2_8485_3642)">
<path fill-rule="evenodd" clip-rule="evenodd" d="M-0.000713348 88.823C0.658508 88.1639 0.219032 87.285 0.219032 86.4061C0.164097 84.978 0.3289 83.5499 0.548642 82.1217C0.878251 79.9246 1.48254 77.7274 2.30657 75.6401C4.17436 71.0811 7.41554 66.6868 11.3709 63.7207C13.2936 62.2925 15.2713 61.7432 17.5236 61.0292C18.9519 60.5897 19.0618 59.8207 19.7759 58.3926C21.2592 55.4264 22.7425 52.5152 24.006 49.4392C25.5441 45.814 27.0823 42.1337 28.4557 38.4535C33.1801 25.9848 36.9707 13.1315 38.7286 -0.1063C39.0582 7.63863 37.52 15.7131 35.4874 23.1834C34.0042 28.6213 32.0265 33.8945 29.939 39.1127C29.4445 40.376 28.6205 42.0239 28.4557 43.3971C28.3458 44.3858 28.8403 45.2647 29.1149 46.3083C30.1587 50.2082 30.2136 54.6574 29.5544 58.6672C28.8403 63.0615 26.3682 65.2037 22.1382 65.9727C20.6 66.2474 18.6223 66.2474 17.194 66.9614C15.6558 67.7304 15.1065 70.1473 14.2824 71.6853C12.0301 75.8599 9.33827 79.9246 6.20696 83.4949C5.328 84.4836 4.3941 85.4174 3.40527 86.2414C2.74604 86.8456 1.4276 88.1089 -0.000713348 88.823Z" fill="#DA8681"/>
</g>
</g>
</svg>
