<svg width="76" height="103" viewBox="0 0 76 103" fill="none" xmlns="http://www.w3.org/2000/svg">
<g opacity="0.7">
<mask id="mask0_8538_6443" style="mask-type:luminance" maskUnits="userSpaceOnUse" x="34" y="-12" width="18" height="115">
<path d="M51.6339 103L34.9597 103L34.9597 -11.9965L51.6339 -11.9965L51.6339 103Z" fill="white"/>
</mask>
<g mask="url(#mask0_8538_6443)">
<path fill-rule="evenodd" clip-rule="evenodd" d="M45.5752 95.6992C46.6109 97.5631 48.4751 102.171 50.1321 102.948C51.2196 103.466 51.2714 99.2718 51.3231 98.4951C51.6338 95.4403 51.6338 92.3854 51.5303 89.3306C51.3749 83.7905 49.6661 78.7681 47.1287 73.8493C45.8341 71.3122 44.2806 68.7234 41.8986 67.0148C40.8112 66.2381 39.4648 65.9792 38.3774 65.3061C37.1346 64.4777 37.8077 65.099 37.3417 63.701C36.7203 61.7335 36.6685 59.2482 36.4614 57.1772C35.5811 47.702 35.8918 -1.84852 37.497 -11.2201C37.6524 -12.0486 36.5132 -12.3592 36.3578 -11.3237C35.5293 -5.9389 34.7525 31.91 34.9597 44.3365C35.1668 56.7629 35.5293 67.7396 36.5132 72.0889C37.7042 77.4219 40.138 83.894 42.2093 88.9164C43.245 91.2464 44.2806 93.5245 45.5752 95.6992Z" fill="#DF9F1E"/>
</g>
</g>
<g opacity="0.8">
<mask id="mask1_8538_6443" style="mask-type:luminance" maskUnits="userSpaceOnUse" x="36" y="-12" width="40" height="73">
<path d="M36.1203 60.4877L75.5791 60.4877L75.5791 -12L36.1204 -12L36.1203 60.4877Z" fill="white"/>
</mask>
<g mask="url(#mask1_8538_6443)">
<path fill-rule="evenodd" clip-rule="evenodd" d="M75.1131 60.4873C73.3007 60.2801 70.0383 56.5522 68.4331 55.1542C66.5171 53.4974 64.7565 51.6852 63.0994 49.8212C59.4746 45.7308 56.2122 41.3816 53.3124 36.7217C48.6001 29.214 44.6646 21.3957 41.6094 13.0078C39.6934 7.88192 38.2953 2.49712 37.2596 -2.88768C37.0525 -3.92321 35.2401 -11.6898 36.7936 -12.0522C38.1399 -12.3628 38.2953 -6.14962 38.4506 -5.32119C40.1077 4.10221 43.2147 13.1114 47.202 21.7063C48.0823 23.5703 48.9108 25.9003 50.2054 27.5571C51.1375 28.748 50.309 28.3856 51.7071 28.748C52.9499 29.0587 54.2963 28.7998 55.5391 29.214C58.2836 30.0424 60.6138 31.9582 62.6851 33.9257C66.6724 37.7054 69.9866 41.9511 71.9543 47.077C73.0418 49.9248 74.0774 52.8243 74.8024 55.8273C74.9577 56.6558 76.3041 60.5908 75.1131 60.4873Z" fill="#57A9B7"/>
</g>
</g>
<g opacity="0.7">
<mask id="mask2_8538_6443" style="mask-type:luminance" maskUnits="userSpaceOnUse" x="0" y="-12" width="37" height="84">
<path d="M-6.10352e-05 71.7266L36.5588 71.7266L36.5588 -11.9967L-5.37158e-05 -11.9967L-6.10352e-05 71.7266Z" fill="white"/>
</mask>
<g mask="url(#mask2_8538_6443)">
<path fill-rule="evenodd" clip-rule="evenodd" d="M-0.000835419 71.7266C0.62056 71.1052 0.206299 70.2768 0.206299 69.4484C0.154518 68.1022 0.309864 66.756 0.516995 65.4098C0.827695 63.3387 1.39731 61.2676 2.17405 59.3001C3.93468 55.0026 6.98989 50.8605 10.7183 48.0645C12.5307 46.7183 14.3949 46.2006 16.518 45.5275C17.8644 45.1132 17.9679 44.3884 18.6411 43.0422C20.0392 40.2462 21.4374 37.502 22.6284 34.6025C24.0783 31.1853 25.5283 27.7162 26.8228 24.2471C31.2762 12.4938 34.8492 0.377998 36.5063 -12.1002C36.817 -4.79969 35.3671 2.81152 33.4511 9.85317C32.0529 14.9791 30.1887 19.9497 28.221 24.8685C27.7549 26.0593 26.9782 27.6126 26.8228 28.9071C26.7193 29.839 27.1853 30.6675 27.4442 31.6512C28.4281 35.3274 28.4799 39.5213 27.8585 43.301C27.1853 47.4432 24.8551 49.4625 20.8678 50.1874C19.4178 50.4463 17.5537 50.4463 16.2073 51.1194C14.7574 51.8442 14.2395 54.1224 13.4628 55.5722C11.3397 59.5072 8.8023 63.3387 5.85066 66.7042C5.02213 67.6362 4.14182 68.5164 3.20972 69.293C2.58832 69.8626 1.34552 71.0535 -0.000835419 71.7266Z" fill="#DA8681"/>
</g>
</g>
</svg>
