<svg width="48" height="48" viewBox="0 0 48 48" fill="none" xmlns="http://www.w3.org/2000/svg">
<path d="M1.69647e-05 5.92837C-0.00362519 4.35943 0.579316 2.85294 1.62111 1.739C2.1419 1.18599 2.76067 0.747646 3.44181 0.449202C4.12295 0.150759 4.85301 -0.0018974 5.58998 1.77996e-05H39.1298C40.6118 0.00140149 42.0327 0.626902 43.08 1.739C44.1287 2.84972 44.7185 4.3566 44.7198 5.92837V15.2556C43.8743 14.4692 42.9345 13.8048 41.9248 13.2795V5.92837C41.9241 5.14249 41.6292 4.38904 41.1049 3.83369C40.579 3.28126 39.87 2.96916 39.1298 2.96419H5.58998C4.84896 2.96489 4.13852 3.27764 3.61486 3.83369C3.35187 4.10599 3.14363 4.43199 3.00272 4.79201C2.86181 5.15203 2.79115 5.53859 2.795 5.92837V29.6418C2.79115 30.0316 2.86181 30.4181 3.00272 30.7781C3.14363 31.1382 3.35187 31.4642 3.61486 31.7365C4.13852 32.2925 4.84896 32.6053 5.58998 32.606H24.0555C24.2791 32.9419 25.8257 35.5701 25.8257 35.5701H5.58998C4.85301 35.572 4.12295 35.4194 3.44181 35.1209C2.76067 34.8225 2.1419 34.3842 1.62111 33.8312C0.579316 32.7172 -0.00362519 31.2107 1.69647e-05 29.6418V5.92837ZM8.38497 10.3746C8.38497 9.98156 8.5322 9.60459 8.79428 9.32664C9.05637 9.04869 9.41182 8.89255 9.78246 8.89255H31.2107C31.5804 8.8971 31.9342 9.05284 32.1982 9.32729C32.4599 9.60518 32.6069 9.98188 32.6069 10.3746C32.6069 10.7674 32.4599 11.1441 32.1982 11.422C31.9342 11.6964 31.5804 11.8522 31.2107 11.8567H9.78246C9.41182 11.8567 9.05637 11.7006 8.79428 11.4226C8.5322 11.1447 8.38497 10.7677 8.38497 10.3746ZM9.78246 23.7134C9.41182 23.7134 9.05637 23.8696 8.79428 24.1475C8.5322 24.4255 8.38497 24.8024 8.38497 25.1955C8.38497 25.5886 8.5322 25.9656 8.79428 26.2435C9.05637 26.5215 9.41182 26.6776 9.78246 26.6776H20.9624C21.3321 26.673 21.6859 26.5173 21.95 26.2429C22.2117 25.965 22.3587 25.5883 22.3587 25.1955C22.3587 24.8028 22.2117 24.4261 21.95 24.1482C21.6859 23.8737 21.3321 23.718 20.9624 23.7134H9.78246Z" fill="#14446C"/>
<path d="M34.0056 31.1239H33.9124C33.7228 31.1047 33.5395 31.0416 33.3753 30.9392C33.2111 30.8368 33.0701 30.6975 32.9621 30.5311L30.633 27.1519C30.413 26.8348 30.3209 26.4381 30.3768 26.049C30.4327 25.6598 30.6321 25.3102 30.9311 25.077C31.2301 24.8437 31.6042 24.746 31.9711 24.8053C32.338 24.8646 32.6677 25.0761 32.8876 25.3932L34.3596 27.5471L40.2104 22.5673C40.502 22.3236 40.8729 22.2127 41.2416 22.259C41.6102 22.3054 41.9464 22.5051 42.1762 22.8143C42.406 23.1235 42.5106 23.5169 42.4669 23.9079C42.4232 24.2989 42.2349 24.6554 41.9433 24.8991L34.9559 30.8275C34.6831 31.0444 34.3456 31.1496 34.0056 31.1239Z" fill="#14446C"/>
<path d="M48.0002 26.4405C47.9935 24.3469 47.4762 22.2908 46.4985 20.4721C45.5208 18.6533 44.116 17.1338 42.4206 16.0612C40.7253 14.9887 38.7971 14.3996 36.8236 14.3513C34.85 14.3029 32.8982 14.797 31.158 15.7854C29.4178 16.7738 27.9484 18.223 26.8925 19.9919C25.8367 21.7609 25.2305 23.7895 25.1327 25.8805C25.0349 27.9715 25.449 30.0538 26.3346 31.9248C27.2203 33.7959 28.5473 35.3921 30.1868 36.5582V46.4388C30.1888 46.7286 30.2688 47.0118 30.4174 47.2551C30.5659 47.4983 30.7769 47.6915 31.0255 47.8119C31.2741 47.9323 31.5499 47.9749 31.8206 47.9347C32.0912 47.8945 32.3454 47.7732 32.5532 47.585L36.9321 43.5339L41.6276 47.664C41.889 47.8791 42.2098 47.9971 42.5407 47.9999C42.7527 48.002 42.9626 47.9547 43.1556 47.8616C43.3992 47.739 43.6054 47.5461 43.7504 47.3049C43.8954 47.0638 43.9734 46.7841 43.9754 46.4981V35.6097C45.2287 34.4783 46.237 33.0735 46.9316 31.491C47.6262 29.9086 47.9907 28.1859 48.0002 26.4405ZM27.9695 26.4405C27.9658 24.6379 28.4664 22.8746 29.4081 21.3739C30.3497 19.8732 31.69 18.7025 33.2592 18.01C34.8285 17.3174 36.5562 17.1342 38.2237 17.4835C39.8913 17.8327 41.4236 18.6988 42.6268 19.9721C43.8299 21.2453 44.6499 22.8685 44.9829 24.6362C45.3158 26.4039 45.1468 28.2366 44.4972 29.9024C43.8476 31.5681 42.7466 32.9921 41.3336 33.994C39.9206 34.9958 38.2591 35.5306 36.5594 35.5306C34.2844 35.5306 32.1024 34.5736 30.492 32.8694C28.8816 31.1652 27.9744 28.8532 27.9695 26.4405ZM41.1618 43.1387L37.8823 40.2536C37.6243 40.0145 37.2933 39.8828 36.9507 39.8828C36.6081 39.8828 36.2771 40.0145 36.019 40.2536L33.075 42.9608V38.0008C35.7275 38.9036 38.601 38.7347 41.1432 37.5265L41.1618 43.1387Z" fill="#14446C"/>
</svg>
