<svg width="344" height="130" viewBox="0 0 344 130" fill="none" xmlns="http://www.w3.org/2000/svg">
<g opacity="0.5">
<path d="M75.8103 180.476C75.5363 180.613 75.3994 180.613 75.1254 180.751C74.5775 180.888 74.0296 180.888 73.4818 180.751C71.1532 180.476 68.1399 178.413 65.4004 176.213C62.661 174.013 59.9215 171.676 58.2779 170.301C52.2511 165.488 46.4983 160.538 40.4715 155.726C39.3757 154.763 38.2799 153.938 37.1842 152.838C36.0884 151.876 35.1296 150.776 34.3078 149.538C32.8011 147.063 31.8423 143.763 32.8011 141.151C33.4859 139.363 34.8556 138.126 35.2666 136.201C35.8144 133.313 33.6229 130.013 31.0204 128.501C28.418 126.988 25.6785 126.713 23.0761 126.163C20.7475 125.751 18.419 125.063 16.2275 123.963C14.0359 122.863 11.9813 121.351 10.3377 119.426C8.69399 117.363 7.73518 114.751 7.46124 112.276C7.1873 109.801 7.87216 107.326 9.51582 105.951C11.5704 104.163 15.2686 104.026 15.9535 101.001C16.3644 99.3507 15.6796 97.7007 14.5838 96.1882C13.488 94.6757 11.9813 93.0257 10.6116 91.7882C8.83096 90.2757 7.1873 88.4882 5.81758 86.7007C4.31088 84.9132 2.94116 82.9882 1.98236 80.7882C-0.0722214 76.6632 -0.757081 71.8507 1.02355 68.4132C1.43447 67.7257 1.84539 67.1757 2.39328 66.6257L2.53025 66.4882C4.85877 64.1507 8.83096 63.6007 12.8032 64.5632C15.2686 65.2507 17.5972 66.4882 19.9257 68.1382C22.2542 69.7882 24.1718 71.8507 26.0894 74.0507C28.418 76.8007 30.3356 79.9632 32.938 82.4382C35.5405 84.9132 38.9648 86.8382 41.4303 86.0132C43.074 85.3257 44.0328 83.6757 45.5395 82.7132C46.6352 82.0257 47.868 81.8882 49.1007 82.1632C50.4705 82.4382 51.8402 82.9882 53.2099 83.9507C54.5796 84.9132 55.9493 86.0132 57.1821 87.3882C58.4148 88.7632 59.3736 90.2757 60.1955 91.9257C61.8391 95.0882 62.661 98.5257 63.0719 101.688C63.6198 104.988 63.6198 108.288 63.8937 111.451C64.1677 115.576 65.2634 121.351 68.6877 122.863C71.2902 124.101 73.3448 121.901 75.9473 122.176C78.6867 122.451 81.5631 125.751 83.0698 129.463C84.4395 133.038 84.8504 136.751 84.8504 140.463C84.9874 146.376 85.3983 151.738 84.4395 157.376C83.8916 160.676 83.0698 163.976 82.248 167.001C81.4261 170.026 80.3304 173.051 79.0976 175.938C78.2758 177.726 77.317 179.651 75.8103 180.476Z" fill="#C2E3DD"/>
<path d="M154.682 41.1466C153.8 42.5464 153.068 44.1754 152.451 45.7292C149.015 54.7122 149.82 65.1719 151.882 74.8048C152.029 75.5282 152.215 76.0618 152.362 76.7851C152.549 77.3187 152.545 77.8129 152.732 78.3465C153.323 80.7458 153.99 83.2597 154.581 85.659C150.609 89.5822 147.656 94.3114 145.687 99.5423C148.666 96.5999 152.325 94.1948 156.13 92.5131C157.199 97.3868 158.078 102.221 158.046 107.163C158.043 107.657 157.964 108.036 158.076 108.455C158.151 108.57 158.112 108.76 157.997 108.835C157.909 110.697 157.821 112.559 157.544 114.381C157.426 114.951 157.384 115.634 157.266 116.204C155.026 128.009 147.974 138.713 138.478 145.939C135.312 148.348 130.811 151.963 126.825 152.123C126.332 152.119 125.839 152.116 125.27 151.997C124.058 151.646 122.999 151.03 122.098 149.654C120.18 146.979 119.68 142.224 118.333 139.172C116.615 135.054 114.249 131.197 112.645 127.003C107.011 112.173 110.309 95.2446 117.953 81.1997C118.145 80.745 118.528 80.3298 118.72 79.8751C119.027 79.3452 119.449 78.7402 119.756 78.2104C122.709 73.4811 125.962 69.2104 129.594 65.0185C131.094 67.8048 133.126 70.4051 135.466 72.4755C133.858 68.7761 133.126 64.6651 133.455 60.6763C139.263 54.5622 145.676 48.8709 152.163 43.2942C153.003 42.5783 153.842 41.8624 154.682 41.1466Z" fill="#C2E3DD"/>
<path d="M335.171 64.781C333.873 65.8064 332.641 67.0979 331.542 68.3568C325.311 75.6789 322.587 85.8088 321.324 95.579C321.222 96.3101 321.22 96.8753 321.117 97.6064C321.115 98.1716 320.948 98.6364 320.946 99.2017C320.705 101.661 320.496 104.254 320.255 106.713C315.204 109.086 310.845 112.559 307.247 116.833C311.035 115.054 315.285 114.007 319.433 113.692C318.818 118.644 318.037 123.495 316.361 128.143C316.194 128.608 315.994 128.94 315.959 129.372C315.992 129.505 315.891 129.671 315.759 129.703C315.056 131.43 314.353 133.156 313.484 134.781C313.184 135.279 312.916 135.909 312.616 136.407C306.573 146.789 296.36 154.526 285.001 158.169C281.215 159.384 275.767 161.289 271.956 160.11C271.492 159.942 271.029 159.773 270.532 159.472C269.506 158.736 268.714 157.802 268.321 156.204C267.404 153.042 268.516 148.391 268.263 145.065C268.013 140.609 267.067 136.182 266.951 131.693C266.578 115.831 275.324 100.972 287.206 90.2821C287.539 89.9178 288.038 89.6538 288.371 89.2895C288.837 88.8924 289.436 88.4627 289.902 88.0657C294.26 84.5927 298.75 81.6523 303.57 78.9127C304.056 82.0403 305.106 85.1702 306.622 87.9031C306.339 83.8786 307.017 79.7585 308.656 76.1078C316.167 72.2823 324.108 69.0571 332.081 65.9651C333.111 65.5704 334.141 65.1757 335.171 64.781Z" fill="#C2E3DD"/>
<path d="M237.433 168.516C241.066 167.37 244.853 166.042 247.689 163.437C250.525 160.832 252.059 156.809 250.619 153.708C249.193 150.776 245.48 148.878 245.036 145.526C244.509 141.164 250.233 138.66 254.89 137.6C262.043 135.996 269.575 134.869 275.329 130.669C281.084 126.468 283.928 117.763 278.789 112.933C276.954 111.22 274.502 110.235 272.99 108.326C270.723 105.462 271.556 101.158 273.677 98.1033C275.799 95.0487 278.817 92.5981 281.653 89.9931C285.879 85.7489 289.168 80.3957 289.54 74.6044C289.927 68.9813 287.229 62.9338 281.919 60.1507C277.141 57.6628 270.928 58.3425 266.031 60.6085C261.148 63.0428 257.245 67.091 254.21 71.4067C251.794 74.994 248.604 79.4918 244.146 78.8414C240.193 78.1495 238.643 73.7021 235.562 71.2442C230.66 67.2416 222.37 69.4474 218.367 74.351C214.364 79.2545 214.06 85.8874 215.061 91.9048C215.688 95.4115 216.819 98.8768 216.253 102.312C215.687 105.747 212.934 109.362 209.218 109.498C206.694 109.705 204.368 108.202 201.803 107.904C198.214 107.521 194.677 109.845 192.542 112.731C190.575 115.604 189.673 119.067 189.107 122.502C186.55 136.775 183.109 160.948 190.298 174.251C195.318 183.835 228.02 171.491 237.433 168.516Z" fill="#BDBAAC"/>
<path d="M236.971 18.7C233.806 21.5034 230.932 24.3902 228.459 27.5338C227.241 29.0397 225.986 30.6774 224.914 32.2249C223.805 33.9043 222.879 35.4934 221.916 37.2145C223.643 36.1389 225.261 34.8899 226.879 33.6408C228.498 32.3917 230.078 31.2745 231.697 30.0255C234.787 27.4857 237.916 24.8141 240.898 22.1008C243.993 18.992 240.396 15.5426 236.971 18.7Z" fill="#D7AC5C"/>
<path d="M226.183 33.8703C213.729 46.5694 204.462 58.6094 196.918 70.143C189.52 81.7181 183.515 92.8354 178.532 104.244C168.713 127.104 161.264 151.066 154.948 185.474C154.756 186.702 153.258 186.418 153.45 185.189C159.912 150.823 167.253 126.687 177.11 103.696C182.13 92.1552 187.951 81.1281 195.533 69.4627C203.114 57.7973 212.381 45.7573 224.872 32.9264C225.903 32.0798 227.067 32.9821 226.183 33.8703Z" fill="#D7AC5C"/>
<path d="M163.69 144.202C162.659 140.058 161.552 136.179 159.97 132.306C158.351 128.566 156.51 125.047 154.448 121.75C152.712 118.974 149.963 119.758 147.936 121.888C146.055 124.061 145.042 127.621 146.816 130.265C151.085 136.9 156.977 141.717 163.69 144.202Z" fill="#D7AC5C"/>
<path d="M169.835 128.706C169.835 128.706 168.19 123.39 165.97 116.769C163.749 110.148 161.098 102.264 158.389 97.3573C157.053 94.838 154.417 95.2264 152.465 97.0931C150.513 98.9598 149.321 102.041 150.581 104.824C152.814 109.738 157.709 115.838 161.882 120.592C166.238 125.256 169.835 128.706 169.835 128.706Z" fill="#D7AC5C"/>
<path d="M162.437 83.6862C163.831 88.2181 165.96 92.3891 168.455 96.3798C170.951 100.37 173.705 104.007 177.081 107.679C176.133 102.134 175.255 96.8939 174.157 91.8762C173.205 86.9002 172.14 82.3198 170.745 77.7879C168.992 72.2983 160.867 78.1064 162.437 83.6862Z" fill="#D7AC5C"/>
<path d="M172.431 61.8753C174.186 72.3547 178.877 81.3909 185.032 90.2745C184.17 77.7687 183.809 66.8313 182.162 56.5254C181.11 50.2378 171.562 55.4975 172.431 61.8753Z" fill="#D7AC5C"/>
<path d="M188.59 47.8089C188.816 52.0076 189.447 55.894 190.737 59.6833C191.989 63.6044 193.571 67.477 195.408 71.5648C195.957 66.3044 196.357 61.5714 196.681 57.1021C197.005 52.6328 197.217 48.5591 197.099 44.534C197.027 39.2388 188.409 42.3402 188.59 47.8089Z" fill="#D7AC5C"/>
<path d="M204.499 58.4768C205.686 50.9748 207.933 43.6326 208.97 36.6581C209.699 31.8765 202.52 33.25 201.461 38.0801C200.59 42.251 201.43 47.6225 202.353 51.5922C203.276 55.5619 204.499 58.4768 204.499 58.4768Z" fill="#D7AC5C"/>
<path d="M216.34 44.6059C217.548 39.2484 219.595 34.2726 220.545 29.269C221.191 25.8894 216.102 26.576 215.272 30.0459C214.593 32.9884 214.677 36.5763 215.241 39.5883C215.697 42.4267 216.34 44.6059 216.34 44.6059Z" fill="#D7AC5C"/>
<path d="M165.734 144.785C168.645 141.767 171.92 139.137 175.227 136.944C178.535 134.751 182.022 133.037 185.689 131.802C188.659 130.796 190.437 132.872 190.821 135.405C191.205 137.938 190.305 141.102 187.297 142.24C180.035 145.016 172.639 146.042 165.734 144.785Z" fill="#D7AC5C"/>
<path d="M169.143 128.367C169.143 128.367 173.739 124.973 179.508 121.344C185.423 117.757 192.764 114.149 198.004 112.934C200.861 112.324 202.384 114.184 202.514 116.502C202.79 118.862 201.748 121.415 198.961 122.331C193.939 123.892 186.576 125.356 180.423 126.452C174.086 127.638 169.143 128.367 169.143 128.367Z" fill="#D7AC5C"/>
<path d="M204.735 102.594C200.409 103.926 196.121 105.126 191.469 105.938C186.964 106.791 182.096 107.256 177.19 107.852C181.786 104.459 186.379 101.635 190.713 99.1644C195.155 96.8677 199.593 95.14 203.919 93.8079C209.088 92.2884 209.941 100.943 204.735 102.594Z" fill="#D7AC5C"/>
<path d="M215.865 85.6683C206.263 88.3464 195.867 89.3727 185.033 90.274C195.619 83.0296 205.747 78.5055 215.529 76.3063C221.244 75.0854 221.655 84.1836 215.865 85.6683Z" fill="#D7AC5C"/>
<path d="M220.596 68.4847C216.821 69.5463 212.866 70.1289 208.657 70.4964C204.594 70.9055 200.238 71.2313 195.516 71.7376C197.831 70.2596 200.108 68.9134 202.202 67.6574C204.442 66.4431 206.607 65.4925 208.626 64.5003C212.626 62.6476 216.623 61.3641 220.615 60.6496C225.779 59.6992 225.652 67.3609 220.596 68.4847Z" fill="#D7AC5C"/>
<path d="M204.353 58.4371C211.402 54.7456 218.306 51.0125 225.197 48.9866C229.669 47.6961 230.209 54.1225 225.662 55.6767C221.665 56.9603 216.393 57.7371 212.037 58.063C207.682 58.3888 204.353 58.4371 204.353 58.4371Z" fill="#D7AC5C"/>
<path d="M215.284 43.8767C220.531 41.5245 225.779 39.1722 230.726 37.8749C234.097 37.1256 234.027 41.8101 230.765 42.7328C227.832 43.607 223.844 43.7524 220.807 43.8841C217.77 44.0157 215.284 43.8767 215.284 43.8767Z" fill="#D7AC5C"/>
<path d="M110.609 86.3667C116.487 95.9243 119.085 107.257 116.624 118.453C116.077 121.047 115.257 123.641 114.163 126.099C113.07 128.557 111.84 131.014 110.336 133.199C107.192 137.841 103.501 141.937 105.688 147.945C106.645 150.403 108.149 152.587 109.379 154.772C113.343 161.735 115.257 169.927 114.574 177.983C112.113 172.795 111.43 166.924 109.926 161.462C108.285 154.908 105.552 148.081 98.7167 145.76C97.3497 145.351 96.1194 144.805 94.7525 144.395C92.1552 143.439 89.558 142.483 87.0974 141.391C85.8672 140.845 84.7736 140.299 83.8167 139.753C82.7231 139.207 81.7662 138.524 80.6727 137.841C78.7589 136.476 76.9818 135.11 75.3415 133.609C68.3699 126.918 64.5424 118.999 63.5855 109.578C63.5855 109.441 63.8589 109.168 64.1323 109.168C66.4562 109.715 68.5066 110.534 70.5571 111.353C72.6075 112.309 74.5213 113.401 76.435 114.63C77.3919 115.176 78.3488 115.859 79.169 116.405C80.1259 117.088 80.9461 117.634 81.9029 118.316C83.68 119.682 85.4571 121.047 87.0974 122.412C88.8745 124.051 90.5149 125.826 92.0185 127.601C93.5222 129.512 94.8892 131.424 96.2561 133.335C96.6662 134.018 97.213 134.564 97.7598 135.247C98.3066 135.93 98.7167 136.476 99.2635 137.158C98.4433 135.247 97.4864 133.472 96.5295 131.697C95.5726 129.922 94.6158 128.147 93.5222 126.372C92.2919 124.324 91.0616 122.139 89.8314 120.091C88.4644 118.043 87.2341 115.995 86.1405 113.811C85.3204 112.445 84.5002 110.943 83.68 109.578C79.7158 109.851 76.1617 108.759 73.0176 107.53C69.6002 106.301 66.4562 104.663 63.7222 102.751C60.3048 100.43 57.1607 97.8358 54.8369 94.6954C52.103 91.4185 50.736 87.3224 48.002 84.0455C47.8653 83.909 48.1387 83.4994 48.4121 83.4994C62.6286 84.3186 74.3846 92.5108 80.8094 103.707C79.8525 102.068 79.0323 100.157 78.2121 98.3819C77.3919 96.6069 76.5717 94.6954 75.7516 92.9204C75.0681 91.4185 74.3846 89.9166 73.5644 88.5513C72.7442 87.1859 71.7873 85.8205 70.5571 84.7282C69.7369 83.909 68.5066 83.4994 67.6864 82.9532C66.7295 82.4071 65.7727 81.7244 64.8158 81.0417C63.4488 80.2225 62.0818 79.2667 60.5782 78.8571C59.3479 78.4475 58.1176 78.1744 57.024 77.6283C55.7938 77.0821 54.7002 76.2629 53.7433 75.3072C52.7864 74.4879 51.8296 73.5322 50.8727 72.5764C49.9158 71.6207 49.0956 70.6649 48.002 69.7091C47.0452 69.0265 45.9516 68.3438 44.7213 67.6611C44.3112 67.5245 44.858 66.9784 45.1314 67.1149C47.7286 68.0707 51.0094 67.6611 53.7433 68.4803C56.3406 69.2995 59.0745 70.3918 61.2617 71.8937C63.7222 73.6687 65.9094 75.5802 67.8231 78.0379C66.7295 76.1264 65.4993 74.3514 64.269 72.5764L62.3552 69.9822C61.6718 69.163 60.9883 68.3438 60.3048 67.388C60.1681 67.388 60.1681 67.388 60.0314 67.2515C58.9378 66.0226 57.7075 64.7938 56.4773 63.7015C55.1103 62.7457 53.6066 61.9265 51.9663 61.2438C48.6855 60.015 44.7213 60.015 41.3039 59.0592C34.8791 57.2843 30.0947 53.3247 25.8571 48.9555C25.7204 48.819 25.8571 48.4094 26.1305 48.2728C31.4617 46.6344 37.3397 46.7709 41.9874 48.819C43.2176 49.3651 44.3112 50.0478 45.4048 50.7305C46.3617 51.5497 47.3185 52.3689 48.1387 53.4612C49.2323 54.8266 50.4626 56.192 51.6929 57.5573L52.7864 58.3766C51.9663 56.7381 51.4195 55.0997 51.0094 53.3247C50.5993 51.5497 50.3259 49.6382 50.0525 47.5901C49.7791 44.8594 49.2323 42.2652 48.6855 39.671C48.4121 38.5787 48.002 37.4864 47.7286 36.3941C47.4552 35.3018 47.1819 34.2095 47.1819 32.9807C47.1819 32.7076 47.4552 32.4345 47.7286 32.571C53.1965 35.9845 56.8874 41.446 59.0745 47.5901C61.2617 53.7343 61.9451 60.5612 61.9451 66.8419C61.9451 66.9784 61.9451 66.9784 61.8084 67.1149C63.3121 68.8899 64.5424 70.6649 65.9094 72.5764C67.9598 75.4437 69.4635 78.584 71.3773 81.4513L71.6506 81.8609C71.6506 81.5879 71.6506 81.3148 71.7873 80.9052C71.3773 78.9937 71.2406 76.9456 71.1039 74.761C70.9672 72.713 70.8305 70.5284 70.9672 68.3438C70.9672 66.2957 71.1039 64.2477 71.1039 62.1996C71.1039 60.1515 71.1039 58.1035 70.9672 56.0554C70.9672 51.8228 70.5571 47.7267 70.147 43.494C70.147 43.0844 70.5571 42.9479 70.8305 43.0844C72.4708 44.7228 74.2479 46.3613 75.8883 48.1363C77.3919 49.9113 78.8956 51.8228 80.1259 53.8708C81.7662 56.8747 81.3561 60.4246 79.9892 63.7015C77.802 69.0265 73.5644 75.1706 72.7442 80.6321C73.0176 81.8609 73.291 83.2263 73.4277 84.4552C74.3846 86.0936 75.3415 87.732 76.2984 89.3705C77.802 92.1012 78.8956 94.9685 80.1259 97.6992C81.0827 99.8838 82.0396 102.068 82.9965 104.253C83.9534 106.438 84.9103 108.622 86.1405 110.67C86.1405 110.124 86.1405 109.715 86.1405 109.168C86.2772 107.12 86.4139 105.072 86.5506 103.024C86.824 98.2454 87.5075 93.3301 88.191 88.4147C88.4644 86.2301 89.0112 83.909 89.558 81.5879C90.1048 79.2667 90.7883 77.0821 91.4717 74.761C92.9754 70.1187 94.4791 65.4765 95.846 60.8342C95.9827 60.5612 96.2561 60.4246 96.5295 60.5612C98.4433 61.9265 99.947 63.7015 100.904 65.8861C101.861 68.0707 102.408 70.3918 102.818 72.5764C103.228 74.8975 103.364 77.3552 103.364 79.6763C103.228 82.134 102.954 84.4551 102.408 86.7763C100.904 92.2378 98.58 97.2896 95.5727 102.205C94.2057 104.39 92.5653 106.574 91.4717 108.895C90.9249 109.988 90.1048 110.943 89.8314 112.036C89.558 113.128 89.558 114.357 89.8314 115.313C90.3782 117.088 91.6084 118.589 92.702 120.091C93.6589 121.593 94.6158 123.095 95.5727 124.597L96.9396 126.918C97.3497 127.737 97.7598 128.42 98.3066 129.239C99.6736 131.697 100.63 134.155 101.587 136.749C101.997 137.705 102.408 138.66 102.681 139.616C102.408 137.432 102.408 135.11 102.271 132.926C102.134 130.332 102.271 127.737 102.408 125.007C102.544 122.412 102.954 119.682 103.501 116.951C104.185 114.22 104.868 111.626 105.688 108.895C106.508 106.165 107.465 103.434 107.875 100.567C108.285 98.2454 108.422 95.9243 108.696 93.4666C108.969 91.0089 109.242 88.6878 110.199 86.3667C110.063 86.2301 110.473 86.2301 110.609 86.3667Z" fill="#519DB2"/>
</g>
</svg>
