<svg width="48" height="32" viewBox="0 0 48 32" fill="none" xmlns="http://www.w3.org/2000/svg">
<path d="M47.4663 9.10921L43.5772 10.5687L43.5765 10.5689L39.264 12.2057L39.143 12.2516V12.3811V21.3239C39.143 22.6845 38.4138 23.8241 37.5282 24.6201C36.6423 25.4145 35.5354 25.9804 34.1866 26.4916L34.1865 26.4916C31.4928 27.5148 27.932 28.1162 24 28.1162C20.0682 28.1162 16.5074 27.5131 13.8136 26.4934C12.4648 25.9805 11.3579 25.4146 10.472 24.6219C9.58616 23.8241 8.857 22.6845 8.857 21.3239V12.3811V12.2508L8.73495 12.2053L5.66883 11.0624L5.41576 10.968V11.2381V25.3024V25.4032L5.49983 25.4588C6.36008 26.0279 6.94882 27.0724 6.94882 28.3037C6.94882 29.1868 6.64038 30.0296 6.09743 30.6476C5.55516 31.2649 4.82529 31.606 4.07026 31.606C3.31524 31.606 2.58537 31.2649 2.0431 30.6476C1.50015 30.0296 1.19171 29.1868 1.19171 28.3037C1.19171 27.0724 1.78045 26.0279 2.6407 25.4588L2.72477 25.4032V25.3024V10.0341V9.90283L2.60144 9.85788L0.540663 9.10671L4.42285 7.64986L4.42378 7.64951L23.5842 0.342724L23.9999 0.199114L24.4142 0.342692L43.5747 7.64777L43.5756 7.6481L47.4663 9.10921ZM24.0665 3.48094L24 3.4557L23.9335 3.48094L9.56106 8.93391L9.09885 9.10927L9.56106 9.28464L23.9335 14.7376L24 14.7628L24.0665 14.7376L38.4389 9.28464L38.9011 9.10927L38.4389 8.93391L24.0665 3.48094ZM11.548 13.5816V13.711V21.3239C11.548 21.3221 11.5479 21.3284 11.5481 21.334C11.5482 21.3403 11.5486 21.3479 11.5494 21.3565C11.551 21.3737 11.5542 21.3939 11.5598 21.4169C11.5711 21.463 11.592 21.5187 11.6285 21.5847C11.7008 21.7157 11.8366 21.891 12.0903 22.118C12.5951 22.5707 13.4868 23.133 14.6385 23.5705C16.9392 24.4446 20.3129 25.0014 24 25.0014C27.6872 25.0014 31.0608 24.4428 33.3598 23.5723L33.3601 23.5722C34.5147 23.133 35.4051 22.5724 35.9101 22.1177C36.1629 21.8916 36.2985 21.7165 36.3709 21.5855C36.4074 21.5194 36.4284 21.4637 36.4398 21.4177C36.4456 21.3947 36.4488 21.3746 36.4505 21.3573C36.4513 21.3487 36.4517 21.3412 36.4519 21.3348C36.4521 21.3287 36.452 21.3231 36.452 21.3239V13.5798V13.3081L36.1979 13.4045L24.4159 17.874L23.9998 18.0178L23.5854 17.8757L11.8021 13.4062L11.7362 13.5798H11.7355H11.548V13.5816Z" fill="#14446C" stroke="#F5F5F5" stroke-width="0.375124"/>
</svg>
