<svg width="620" height="303" viewBox="0 0 620 303" fill="none" xmlns="http://www.w3.org/2000/svg">
<g clip-path="url(#clip0_11300_11243)">
<path d="M619.975 221.973C619.4 250.733 611.294 276.966 598.686 302.825C598.686 302.825 550.63 302.825 482.161 302.85C312.402 302.875 17.086 302.925 17.061 302.9C16.9359 302.8 16.8358 302.725 16.7107 302.625C2.8768 291.871 -2.17646 276.191 0.87551 258.71C4.17764 239.679 16.9109 219.022 36.6486 201.542C64.8918 176.558 87.4564 170.056 72.6468 117.639C68.4691 102.834 69.4447 89.4796 73.6224 77.6757C86.7559 40.2133 131.585 18.081 143.493 13.1294C183.243 -3.40108 239.329 -2.65083 281.582 6.20209C349.5 20.4568 373.341 58.5694 393.654 79.3762C401.184 87.0788 408.213 92.3055 416.819 92.8807C430.878 93.781 450.891 86.2035 475.232 83.9778C493.393 82.3022 513.932 83.6277 536.096 93.706C560.411 104.735 584.302 126.192 597.836 145.873C613.521 168.631 620.5 194.464 619.975 221.973Z" fill="#DDEEEA" fill-opacity="0.51"/>
<g opacity="0.5">
<path d="M577.372 142.322H447.313V302.45H577.372V142.322Z" fill="#A1D5D5"/>
<path d="M577.347 150.149H460.272V167.58H577.347V150.149Z" fill="#EDF4FF"/>
<path d="M510.755 178.884H363.885V303H510.755V178.884Z" fill="#BFE1DF"/>
<path d="M513.031 174.357H360.232V178.859H513.031V174.357Z" fill="white"/>
<path d="M579.774 140.071H444.687V144.573H579.774V140.071Z" fill="white"/>
<path d="M458.921 190.088H363.885V213.171H458.921V190.088Z" fill="#D6EBE7"/>
<path d="M363.884 193.589H275.227V242.73H363.884V193.589Z" fill="#B7DDDB"/>
<path d="M363.884 252.958H275.227V302.1H363.884V252.958Z" fill="#B7DDDB"/>
<path d="M363.885 242.73H287.51V252.958H363.885V242.73Z" fill="#DAECE8"/>
<path d="M577.373 243.63H518.134V282.693H577.373V243.63Z" fill="#BFE1DF"/>
<path d="M577.373 186.111H518.134V225.174H577.373V186.111Z" fill="#BFE1DF"/>
<path d="M577.372 151.075H461.522V166.48H577.372V151.075Z" fill="#CCE4E4"/>
<path d="M363.885 180.435L510.755 184.861V178.884H363.885V180.435Z" fill="#97BBB9"/>
<path d="M363.86 193.289H269.674V198.166H363.86V193.289Z" fill="white"/>
<path d="M489.941 247.832H386.724V301.725H489.941V247.832Z" fill="#8FC2BF"/>
<path d="M486.939 251.583H390.201V301.9H486.939V251.583Z" fill="white"/>
<path d="M483.461 254.784H393.854V266.338H483.461V254.784Z" fill="#93C5BE"/>
<path d="M420.07 269.464H393.854V301.675H420.07V269.464Z" fill="#93C5BE"/>
<path d="M454.793 269.464H422.572V301.675H454.793V269.464Z" fill="#B8D9D4"/>
<path d="M483.487 269.464H456.995V301.675H483.487V269.464Z" fill="#93C5BE"/>
<path d="M433.129 269.464H454.793V281.393L450.915 301.675H427L433.129 269.464Z" fill="#ABDDDA"/>
<path d="M450.89 275.591H426.775V301.7H450.89V275.591Z" fill="white"/>
<path d="M449.74 276.792H427.926V301.725H449.74V276.792Z" fill="#B8D9D4"/>
<path d="M439.233 276.792H438.433V301.725H439.233V276.792Z" fill="white"/>
<path d="M436.481 289.246C436.481 288.971 436.706 288.721 437.006 288.721C437.306 288.721 437.532 288.946 437.532 289.246C437.532 289.521 437.306 289.771 437.006 289.771C436.706 289.771 436.481 289.546 436.481 289.246Z" fill="white"/>
<path d="M440.158 289.246C440.158 288.971 440.383 288.721 440.684 288.721C440.984 288.721 441.209 288.946 441.209 289.246C441.209 289.521 440.984 289.771 440.684 289.771C440.383 289.771 440.158 289.546 440.158 289.246Z" fill="white"/>
<path d="M402.209 269.464H415.468L411.24 301.675H397.957L402.209 269.464Z" fill="#ABDDDA"/>
<path d="M417.394 254.784L415.868 266.338H402.609L404.135 254.784H417.394Z" fill="#ABDDDA"/>
<path d="M463.274 269.464H476.532L472.305 301.675H459.021L463.274 269.464Z" fill="#ABDDDA"/>
<path d="M478.458 254.784L476.957 266.338H463.674L465.2 254.784H478.458Z" fill="#ABDDDA"/>
<path d="M459.846 254.784L457.645 266.338H433.705L435.906 254.784H459.846Z" fill="#ABDDDA"/>
<path d="M457.02 271.84H457.07L457.02 272.115V271.84Z" fill="#CCE1FF"/>
<path d="M545.802 225.174H526.214L534.795 186.111H554.383L545.802 225.174Z" fill="#D5E9E7"/>
<path d="M563.188 282.718H543.576L552.156 243.63H571.744L563.188 282.718Z" fill="#D5E9E7"/>
<path d="M535.295 243.63L526.74 282.718H518.134V243.63H535.295Z" fill="#D5E9E7"/>
<path d="M577.347 186.111V225.174H555.809L565.39 186.111H577.347Z" fill="#D5E9E7"/>
<path d="M491.517 151.075H489.891V166.48H491.517V151.075Z" fill="#EDF4FF"/>
<path d="M524.463 151.075H522.837V166.48H524.463V151.075Z" fill="#EDF4FF"/>
<path d="M556.634 151.075H555.008V166.48H556.634V151.075Z" fill="#EDF4FF"/>
<g opacity="0.5">
<path d="M295.44 211.22H285.609V226.725H295.44V211.22Z" fill="#98BAF4"/>
<path d="M295.841 227.225H285.034V210.72H295.841V227.225ZM286.009 226.225H294.84V211.72H286.009V226.225Z" fill="white"/>
<path d="M294.965 216.396H285.884V217.147H294.965V216.396Z" fill="white"/>
<path d="M294.965 221.573H285.884V222.323H294.965V221.573Z" fill="white"/>
<path d="M290.814 226.721V211.141H290.064V226.721H290.814Z" fill="white"/>
<path d="M323.809 211.22H313.977V226.725H323.809V211.22Z" fill="#98BAF4"/>
<path d="M324.184 227.225H313.377V210.72H324.184V227.225ZM314.378 226.225H323.208V211.72H314.378V226.225Z" fill="white"/>
<path d="M323.333 216.396H314.252V217.147H323.333V216.396Z" fill="white"/>
<path d="M323.333 221.573H314.252V222.323H323.333V221.573Z" fill="white"/>
<path d="M319.171 226.733V211.153H318.42V226.733H319.171Z" fill="white"/>
<path d="M352.152 211.22H342.321V226.725H352.152V211.22Z" fill="#98BAF4"/>
<path d="M352.552 227.225H341.72V210.72H352.527V227.225H352.552ZM342.721 226.225H351.552V211.72H342.721V226.225Z" fill="white"/>
<path d="M351.677 216.396H342.596V217.147H351.677V216.396Z" fill="white"/>
<path d="M351.677 221.573H342.596V222.323H351.677V221.573Z" fill="white"/>
<path d="M347.527 226.72V211.14H346.776V226.72H347.527Z" fill="white"/>
</g>
<g opacity="0.5">
<path d="M295.44 264.362H285.609V279.867H295.44V264.362Z" fill="#98BAF4"/>
<path d="M295.841 280.342H285.034V263.837H295.841V280.342ZM286.009 279.342H294.84V264.837H286.009V279.342Z" fill="white"/>
<path d="M294.965 269.539H285.884V270.289H294.965V269.539Z" fill="white"/>
<path d="M294.965 274.69H285.884V275.441H294.965V274.69Z" fill="white"/>
<path d="M290.806 279.855V264.275H290.055V279.855H290.806Z" fill="white"/>
<path d="M323.809 264.362H313.977V279.867H323.809V264.362Z" fill="#98BAF4"/>
<path d="M324.184 280.342H313.377V263.837H324.184V280.342ZM314.378 279.342H323.208V264.837H314.378V279.342Z" fill="white"/>
<path d="M323.333 269.539H314.252V270.289H323.333V269.539Z" fill="white"/>
<path d="M323.333 274.69H314.252V275.441H323.333V274.69Z" fill="white"/>
<path d="M319.162 279.867V264.287H318.412V279.867H319.162Z" fill="white"/>
<path d="M352.152 264.362H342.321V279.867H352.152V264.362Z" fill="#98BAF4"/>
<path d="M352.552 280.342H341.72V263.837H352.527V280.342H352.552ZM342.721 279.342H351.552V264.837H342.721V279.342Z" fill="white"/>
<path d="M351.677 269.539H342.596V270.289H351.677V269.539Z" fill="white"/>
<path d="M351.677 274.69H342.596V275.441H351.677V274.69Z" fill="white"/>
<path d="M347.518 279.854V264.274H346.768V279.854H347.518Z" fill="white"/>
</g>
<path d="M515.057 231.526H361.583V236.928H515.057V231.526Z" fill="#A0D2CF"/>
<path d="M497.021 300.599H382.347V303H497.021V300.599Z" fill="#7FA49E"/>
</g>
<path d="M238.679 212.595C238.679 212.595 240.505 219.022 240.08 220.623C239.655 222.223 237.728 225.224 236.878 225.124C236.027 225.024 236.878 214.871 236.878 214.871L238.679 212.595Z" fill="#FFB27D"/>
<path d="M207.659 162.904C206.983 161.629 222.168 157.002 222.418 169.656C222.418 169.656 250.862 168.956 237.278 153.101C232.575 147.624 233.05 143.072 233.2 138.846C233.351 134.62 230.274 122.341 219.742 123.591C219.742 123.591 216.99 122.466 213.538 124.266C205.733 128.318 188.196 167.556 207.659 162.904Z" fill="#404040"/>
<path d="M240.055 214.521C240.055 214.521 239.905 215.296 238.304 215.671C237.553 215.846 236.527 215.946 235.052 215.846C234.726 215.821 234.401 215.796 234.051 215.746C233.375 215.671 232.625 215.571 231.799 215.396L232.375 180.585L229.898 153.451C229.898 153.451 235.127 155.927 237.703 163.954C239.68 170.106 240.005 196.64 240.055 208.619C240.08 212.22 240.055 214.521 240.055 214.521Z" fill="#ABDDDA"/>
<g opacity="0.3">
<path d="M240.055 214.521C240.055 214.521 239.905 215.296 238.304 215.672C237.553 215.847 236.527 215.947 235.052 215.847L235.527 189.913C235.527 189.913 235.927 204.068 240.08 208.594C240.08 212.22 240.055 214.521 240.055 214.521Z" fill="#ABDDDA"/>
</g>
<path d="M188.421 288.12C188.421 288.12 185.244 291.021 185.845 293.097C186.47 295.173 189.347 296.548 189.722 299.074C190.123 301.6 191.674 302.975 193.074 302.975C194.475 302.975 199.754 302.975 199.754 302.975C199.754 302.975 200.779 301.2 198.303 300.675C195.826 300.149 194.876 297.173 195.026 294.423C195.176 291.672 194.801 287.995 194.801 287.995L189.522 286.77L188.421 288.12Z" fill="#23417C"/>
<path d="M215.389 289.371C215.389 289.371 214.238 301.7 215.639 302.375L233.55 302.35C233.55 302.35 233.55 300.274 230.674 299.824C227.797 299.374 222.743 297.673 221.893 293.922C221.042 290.171 215.389 289.371 215.389 289.371Z" fill="#23417C"/>
<path d="M230.023 188.287C230.023 188.287 235.177 204.342 235.527 209.819C235.852 215.296 225.67 287.52 225.245 290.021C224.87 292.396 221.918 293.922 221.918 293.922C221.918 293.922 220.567 294.722 218.616 294.172C215.939 293.422 215.089 292.496 215.089 292.496C215.089 292.496 211.061 240.979 213.563 222.598C216.039 204.192 216.089 188.287 216.089 188.287H230.023Z" fill="#59A9AD"/>
<path d="M208.134 187.812C208.134 187.812 200.254 198.365 199.529 205.518C198.803 212.67 198.378 237.728 196.802 244.706C195.226 251.658 189.497 265.062 189.497 286.77C189.497 286.77 190.097 288.02 191.949 288.67C192.549 288.87 193.325 289.095 194.1 289.27C195.626 289.621 197.177 288.87 197.877 287.47C201.755 279.642 214.138 254.434 214.763 249.207C215.214 245.506 217.84 223.274 226.371 208.869C228.422 205.418 228.297 190.363 228.297 190.363L208.134 187.812Z" fill="#59A9AD"/>
<path d="M201.63 167.13C201.63 167.13 201.355 170.882 201.63 175.408C201.805 178.409 204.832 182.41 205.257 183.386C206.333 185.861 207.559 186.287 207.559 186.287L216.965 188.587L217.74 193.614C217.74 193.614 225.62 196.99 231.099 191.763C235.852 187.237 235.427 173.032 233.525 165.58C231.624 158.127 228.697 152.951 228.697 152.951C228.697 152.951 221.643 150.175 209.11 152.25L201.63 167.13Z" fill="#DDEEEA"/>
<path d="M212.512 151.45C212.512 151.45 208.56 152.1 206.158 152.901L204.382 174.558H220.717L214.588 158.478L212.512 151.45Z" fill="#ABDDDA"/>
<path d="M220.692 174.583L218.916 241.33C218.916 241.33 209.96 245.581 192.874 241.33L197.277 170.281L220.692 174.583Z" fill="#ABDDDA"/>
<path d="M193.099 190.088L205.182 200.617C206.058 201.367 207.384 201.292 208.134 200.416L223.544 182.711C224.295 181.835 224.22 180.51 223.344 179.76L211.261 169.231C210.386 168.481 209.06 168.556 208.309 169.431L192.899 187.137C192.149 188.012 192.224 189.313 193.099 190.088Z" fill="#F8E7C5"/>
<path d="M210.986 188.763C211.161 188.813 217.415 189.538 217.415 190.838C217.415 192.339 215.589 194.34 213.863 194.24C213.162 194.189 209.935 191.239 209.935 191.239L210.986 188.763Z" fill="#FFB27D"/>
<path d="M214.188 151.55C214.889 149.825 215.314 147.199 215.314 143.948L215.789 144.048L223.719 145.623C223.719 145.623 223.544 148.124 223.544 150.475C223.544 150.5 223.544 150.525 223.544 150.525C223.544 152.576 224.92 154.626 221.643 155.427C220.617 155.677 212.712 155.151 214.188 151.55Z" fill="#FFB27D"/>
<path d="M223.719 145.598C223.719 145.598 223.544 148.099 223.544 150.45C219.091 150.325 216.765 146.274 215.789 144.023L223.719 145.598Z" fill="#E8945B"/>
<path d="M225.195 147.824C225.195 147.824 214.688 147.999 214.688 141.447C214.688 134.894 213.312 130.518 220.017 130.143C226.721 129.768 228.022 132.244 228.572 134.444C229.098 136.62 227.922 147.624 225.195 147.824Z" fill="#FFB27D"/>
<path d="M224.82 129.993C224.82 129.993 221.943 137.671 217.54 138.796C213.137 139.921 211.211 138.746 211.211 138.746C211.211 138.746 214.588 136.045 215.289 131.369C215.289 131.369 222.644 126.342 224.82 129.993Z" fill="#404040"/>
<path d="M224.094 130.618C224.094 130.618 226.221 131.418 227.096 132.969C227.947 134.494 228.697 136.495 228.522 138.971C228.522 138.971 230.699 133.744 228.247 130.793C225.671 127.667 224.094 130.618 224.094 130.618Z" fill="#404040"/>
<path d="M210.986 188.763C210.986 188.763 212.487 188.288 213.488 188.413C214.488 188.563 215.239 188.388 215.239 188.663C215.239 188.938 213.938 189.063 213.663 189.213C213.388 189.363 210.986 188.763 210.986 188.763Z" fill="#FFB27D"/>
<path d="M209.11 152.226C209.11 152.226 201.655 152.751 198.803 159.703C195.951 166.655 190.523 178.309 190.523 180.285C190.523 182.235 193.55 188.287 209.835 191.764C209.835 191.764 211.511 189.988 211.411 188.588C211.411 188.588 201.255 179.86 201.28 178.834C201.33 176.909 202.956 174.358 211.861 165.43C214.288 163.029 209.11 152.226 209.11 152.226Z" fill="#ABDDDA"/>
<path d="M217.015 163.129C217.015 163.129 214.213 155.477 214.763 149.7C214.763 149.7 212.587 150.25 211.436 151.875C211.436 151.875 210.936 160.703 212.537 164.78C212.537 164.78 214.939 164.88 215.439 164.605C215.439 164.605 214.388 166.38 214.563 166.58C214.713 166.78 220.692 174.583 220.692 174.583L217.015 163.129Z" fill="#8FCBC7"/>
<path d="M229.373 171.157L231.149 239.804C231.149 239.804 235.327 239.954 237.728 237.403L235.527 163.029C235.527 163.029 233.225 154.076 228.722 152.951C224.195 151.825 224.195 151.825 224.195 151.825L229.373 171.157Z" fill="#ABDDDA"/>
<path d="M223.519 150.45C223.519 150.45 223.519 151.525 223.794 153.426C224.545 158.602 230.048 168.956 229.423 173.582C229.423 173.582 229.998 165.53 229.998 163.829L228.397 162.704L230.474 161.853C230.499 161.853 226.596 152.125 223.519 150.45Z" fill="#8FCBC7"/>
<path d="M215.256 214.866L199.711 213.739L199.595 215.335L215.14 216.463L215.256 214.866Z" fill="#8FCBC7"/>
<g opacity="0.3">
<path d="M199.604 215.321C199.604 215.321 198.478 224.974 199.604 225.85C200.729 226.725 212.562 227.85 213.663 226.975C214.763 226.1 215.139 216.447 215.139 216.447L199.604 215.321Z" fill="#8FCBC7"/>
</g>
<path d="M274.352 131.769C274.352 131.769 271.5 125.742 272.075 122.541C272.651 119.365 272.526 115.138 276.753 113.488C281.006 111.862 281.381 113.438 285.984 112.938C290.462 112.462 292.063 118.114 292.489 120.54C293.389 125.617 291.863 128.818 290.512 130.518C289.337 131.994 288.811 132.744 288.811 132.744L274.352 131.769Z" fill="#404040"/>
<path d="M262.544 302.375C262.544 302.375 262.544 299.399 262.969 298.399C263.395 297.398 264.946 293.372 264.946 293.372H271.025C271.025 293.372 272.15 297.048 272.225 298.249C272.3 299.449 272.225 302.35 272.225 302.35H262.544V302.375Z" fill="#233862"/>
<path d="M301.169 302.375C301.169 302.375 301.169 299.399 300.744 298.399C300.319 297.398 298.768 293.372 298.768 293.372H292.689C292.689 293.372 291.563 297.048 291.488 298.249C291.413 299.449 291.488 302.35 291.488 302.35H301.169V302.375Z" fill="#233862"/>
<path d="M263.32 199.241C263.32 199.241 264.395 231.752 262.794 250.283C261.193 268.814 262.794 294.623 262.794 294.623C262.794 294.623 267.898 297.424 273.401 294.623C273.401 294.623 279.455 258.811 279.405 250.283C279.355 241.205 285.984 200.667 285.984 200.667L263.32 199.241Z" fill="#6BB7BF"/>
<path d="M300.969 294.622C300.969 294.622 295.891 297.423 290.362 294.622C290.362 294.622 284.308 258.811 284.358 250.283C284.383 246.457 283.208 237.003 281.832 227.375C279.981 214.196 277.754 200.666 277.754 200.666L301.319 199.191C301.319 199.191 299.368 231.752 300.969 250.283C302.57 268.814 300.969 294.622 300.969 294.622Z" fill="#6BB7BF"/>
<path d="M267.898 146.398C267.898 146.398 259.117 147.449 257.191 155.326C255.265 163.204 247.685 183.211 255.265 187.737C255.265 187.737 263.295 176.984 266.347 168.331C269.374 159.653 267.898 146.398 267.898 146.398Z" fill="#ABDDDA"/>
<path d="M297.692 150.6C297.692 150.6 306.522 149.499 308.449 157.377C310.375 165.255 316.529 182.835 308.949 187.362C308.949 187.362 300.394 176.984 297.342 168.331C294.29 159.653 297.692 150.6 297.692 150.6Z" fill="#ABDDDA"/>
<path d="M276.803 135.22C276.803 135.22 276.578 141.847 275.728 144.823L268.998 149.5L294.29 153.276L288.261 144.948C288.261 144.948 286.435 136.045 287.385 132.769C288.361 129.493 276.803 135.22 276.803 135.22Z" fill="#FFB27D"/>
<path d="M276.753 136.145C276.753 136.145 278.755 140.947 282.532 140.847C286.31 140.747 287.16 136.47 287.16 136.47L276.753 136.145Z" fill="#ED985F"/>
<path d="M282.107 138.996C279.38 138.946 274.352 135.32 274.352 130.818V123.791C274.352 122.14 275.503 120.815 276.903 120.815H287.31C288.711 120.815 289.862 122.165 289.862 123.791V130.418C289.862 135.12 285.234 139.046 282.107 138.996Z" fill="#FFB27D"/>
<path d="M301.669 213.721C282.132 217.097 261.193 214.371 261.193 214.371L263.145 174.908C263.095 174.333 263.045 173.758 263.045 173.157C263.02 172.357 263.045 171.432 263.095 170.407C263.495 162.129 265.996 147.224 267.898 146.424C267.898 146.424 270.725 145.373 275.753 144.848C275.753 144.948 278.655 149.2 282.107 149.675C284.258 148.824 285.934 148.099 288.286 144.973C289.662 145.123 291.113 145.323 292.639 145.623C292.739 145.648 292.864 145.673 292.989 145.698C294.665 146.024 296.466 146.474 298.392 147.074C298.392 147.074 300.869 148.024 300.319 165.33L301.669 213.721Z" fill="#ABDDDA"/>
<path d="M279.93 134.47C279.93 134.47 280.781 135.62 282.257 135.57C283.733 135.52 284.433 134.47 284.433 134.47C284.433 134.47 281.932 134.045 279.93 134.47Z" fill="white"/>
<path d="M261.193 183.461L260.093 242.205C260.093 242.205 268.898 244.481 276.478 244.956L278.429 173.133L275.728 148.825L273.276 144.823C273.276 144.823 265.171 145.448 260.343 149.4C257.041 152.101 255.515 161.279 255.515 161.279L263.145 169.281L261.193 183.461Z" fill="#ABDDDA"/>
<path d="M302.87 183.461L303.971 242.205C303.971 242.205 295.165 244.481 287.585 244.956L285.984 175.283L288.311 148.825L290.762 144.823C290.762 144.823 298.843 145.473 303.696 149.4C308.924 153.601 309.975 163.955 309.975 163.955L300.919 169.281L302.87 183.461Z" fill="#ABDDDA"/>
<path d="M255.265 187.737C264.12 190.113 269.124 183.961 289.862 175.433L289.236 172.132C289.236 172.132 265.396 172.407 261.218 174.683C255.765 177.584 254.539 187.537 255.265 187.737Z" fill="#FFB27D"/>
<path d="M272.576 169.856C272.576 169.856 263.62 169.356 263.52 173.907L271.8 173.532L272.576 169.856Z" fill="#FFB27D"/>
<path d="M296.266 172.182C296.266 172.182 302.97 170.482 304.096 174.958C305.222 179.435 294.465 174.958 294.465 174.958L296.266 172.182Z" fill="#ED985F"/>
<path d="M279.455 180.035C279.455 180.035 276.903 176.959 270.75 173.083L281.206 175.058L284.408 177.684L282.957 178.434L279.455 180.035Z" fill="#ED985F"/>
<path d="M290.062 172.532L298.968 171.857L298.367 174.408L290.062 172.532Z" fill="#ED985F"/>
<path d="M263.52 173.907C263.52 173.907 269.649 172.857 269.549 172.782C269.449 172.707 267.322 172.057 266.847 172.307C266.322 172.557 263.52 173.907 263.52 173.907Z" fill="#ED985F"/>
<path d="M276.353 141.397C276.353 141.397 272.651 143.448 272 145.373C272 145.373 270.199 153.201 272.576 158.453L276.353 157.527L274.402 159.903C274.402 159.903 275.402 170.757 278.454 173.132C278.454 173.132 276.078 144.298 276.353 141.397Z" fill="#91CECF"/>
<path d="M287.66 141.397C287.66 141.397 291.363 143.448 292.013 145.373C292.013 145.373 294.39 152.651 292.013 157.902L287.66 157.527L290.787 160.103C290.787 160.103 289.061 172.932 286.009 175.283C286.009 175.283 287.936 144.298 287.66 141.397Z" fill="#91CECF"/>
<path d="M308.949 187.362C308.949 187.362 290.562 185.362 268.998 171.782L272.551 169.856C272.551 169.856 300.819 172.932 304.346 175.583C309.925 179.76 313.127 186.387 308.949 187.362Z" fill="#FFB27D"/>
<path d="M272.576 160.828H266.522V163.479H272.576V160.828Z" fill="#EBF3FA"/>
<path d="M278.605 120.79C278.605 120.79 281.381 123.316 284.934 122.816C288.486 122.316 288.411 120.84 288.911 121.465C289.412 122.091 289.462 127.192 290.162 127.517L290.537 120.79L283.483 116.739L273.376 117.914L274.352 127.767C274.352 127.767 274.177 124.166 275.703 123.116C277.229 122.066 278.605 120.79 278.605 120.79Z" fill="#404040"/>
<path d="M55.4106 302.15C55.4106 302.15 55.4106 299.174 55.8359 298.174C56.2612 297.173 57.8122 293.147 57.8122 293.147H63.8911C63.8911 293.147 65.0168 296.823 65.0919 298.024C65.1669 299.224 65.0919 302.125 65.0919 302.125H55.4106V302.15Z" fill="#233862"/>
<path d="M94.0607 302.15C94.0607 302.15 94.0607 299.174 93.6354 298.174C93.2101 297.173 91.6591 293.147 91.6591 293.147H85.5552C85.5552 293.147 84.4294 296.823 84.3544 298.024C84.2794 299.224 84.3544 302.125 84.3544 302.125H94.0607V302.15Z" fill="#233862"/>
<path d="M56.1861 199.016C56.1861 199.016 57.2618 231.501 55.6608 250.057C54.0598 268.589 55.6608 294.397 55.6608 294.397C55.6608 294.397 60.7641 297.198 66.2676 294.397C66.2676 294.397 72.3215 258.585 72.2715 250.057C72.2215 240.979 78.8508 200.441 78.8508 200.441L56.1861 199.016Z" fill="#6BB7BF"/>
<path d="M93.8353 294.397C93.8353 294.397 88.7571 297.198 83.2285 294.397C83.2285 294.397 77.1746 258.586 77.2246 250.058C77.2496 246.231 76.0739 236.778 74.698 227.15C72.8468 213.971 70.6204 200.441 70.6204 200.441L94.1856 198.966C94.1856 198.966 92.2343 231.527 93.8353 250.058C95.4364 268.589 93.8353 294.397 93.8353 294.397Z" fill="#6BB7BF"/>
<path d="M77.2246 250.057C77.2496 246.231 76.0739 236.778 74.698 227.15C76.0989 221.398 79.5511 215.846 79.5511 215.846C83.9039 228.05 77.2246 250.057 77.2246 250.057Z" fill="#6BB7BF"/>
<path d="M60.7641 146.173C60.7641 146.173 51.9835 147.224 50.0572 155.101C48.131 162.979 40.5511 182.985 48.131 187.512C48.131 187.512 56.1612 176.758 59.2131 168.106C62.2651 159.428 60.7641 146.173 60.7641 146.173Z" fill="#ED985F"/>
<path d="M90.5834 150.375C90.5834 150.375 99.4141 149.274 101.34 157.152C103.267 165.03 109.421 182.61 101.841 187.137C101.841 187.137 93.2851 176.758 90.2331 168.106C87.1812 159.428 90.5834 150.375 90.5834 150.375Z" fill="#ED985F"/>
<path d="M69.6699 134.994C69.6699 134.994 69.4448 141.622 68.5942 144.598L61.8899 149.299L87.1812 153.075L81.1523 144.748C81.1523 144.748 79.3261 135.845 80.2768 132.569C81.2524 129.268 69.6699 134.994 69.6699 134.994Z" fill="#ED985F"/>
<path d="M69.6448 135.92C69.6448 135.92 71.6461 140.722 75.4235 140.621C79.2009 140.521 80.0515 136.245 80.0515 136.245L69.6448 135.92Z" fill="#ED985F"/>
<path d="M67.3934 132.019C67.3934 132.019 66.1676 125.942 65.3171 124.116C64.4665 122.265 63.7661 114.063 73.1722 113.638C73.1722 113.638 76.7745 114.063 78.7508 112.862C78.7508 112.862 78.7508 114.063 78.2504 114.488C78.2504 114.488 81.5025 113.713 84.0542 116.539C86.6058 119.364 82.3531 129.268 82.5782 131.593L67.3934 132.019Z" fill="#404040"/>
<path d="M74.9733 138.771C72.2465 138.721 67.2183 135.095 67.2183 130.593V123.566C67.2183 121.915 68.369 120.59 69.7699 120.59H80.1766C81.5775 120.59 82.7283 121.94 82.7283 123.566V130.193C82.7283 134.895 78.1003 138.821 74.9733 138.771Z" fill="#ED985F"/>
<path d="M67.2182 127.317C67.2182 127.317 67.2432 123.091 70.5704 122.441C73.9225 121.79 81.4024 124.491 82.453 121.415C83.5037 118.339 67.9937 118.389 67.2182 120.365C66.4427 122.316 67.2182 127.317 67.2182 127.317Z" fill="#404040"/>
<path d="M95.6365 165.229L94.5608 213.495C75.0232 216.871 54.0847 214.146 54.0847 214.146L56.036 174.682C55.9859 174.107 55.9359 173.532 55.9359 172.932C55.9109 172.132 55.9359 171.206 55.9859 170.181C56.3862 161.903 58.8878 146.998 60.789 146.198C60.789 146.198 63.6159 145.148 68.6441 144.623C68.6441 144.723 71.546 148.974 74.9982 149.449C77.1496 148.599 78.8257 147.874 81.1772 144.748C82.5531 144.898 84.004 145.098 85.53 145.398C85.6301 145.423 85.7551 145.448 85.8802 145.473C87.5563 145.798 89.3575 146.248 91.2837 146.848C91.2837 146.848 93.7603 147.799 93.21 165.104L95.6365 165.229Z" fill="#ABDDDA"/>
<path d="M72.7969 134.244C72.7969 134.244 73.6474 135.395 75.1234 135.344C76.5993 135.294 77.2998 134.244 77.2998 134.244C77.2998 134.244 74.8232 133.819 72.7969 134.244Z" fill="white"/>
<path d="M48.156 187.512C57.0117 189.888 62.0149 183.736 82.7533 175.208L82.1279 171.907C82.1279 171.907 58.2875 172.182 54.1098 174.458C48.6563 177.384 47.4055 187.312 48.156 187.512Z" fill="#ED985F"/>
<path d="M64.8667 145.148L62.7653 151.325L62.6653 151.6L62.6403 151.675L62.4902 152.125L59.9135 159.803L59.6633 160.578L56.8115 169.006C56.5363 169.031 56.2862 169.056 56.036 169.081C48.6312 169.606 44.9539 167.38 44.9539 167.38C44.9539 167.38 46.4798 157.527 50.1572 151.9C52.5588 148.224 58.1374 146.473 61.6646 145.698C61.7897 145.673 61.8898 145.648 61.9899 145.623C63.716 145.248 64.8667 145.148 64.8667 145.148Z" fill="#ABDDDA"/>
<path d="M88.682 146.173C88.682 146.173 95.2363 147.124 99.564 152.275C103.892 157.427 105.018 166.405 105.018 166.405C105.018 166.405 99.0137 168.981 91.9341 168.331C84.8796 167.705 88.682 146.173 88.682 146.173Z" fill="#ABDDDA"/>
<path d="M90.008 159.853H80.9521V163.304H90.008V159.853Z" fill="#EBF3FA"/>
<path d="M60.2388 167.255L60.6641 167.055C60.6391 167.005 58.0624 161.278 59.7885 155.126C60.2888 153.326 61.8398 151.975 63.641 151.725C65.3421 151.5 66.8681 152.325 67.8687 153.976C70.2202 157.927 65.9425 167.455 65.9175 167.555L66.3427 167.755C66.3427 167.73 67.4434 165.28 68.244 162.354C69.3197 158.402 69.3197 155.501 68.294 153.751C67.2183 151.925 65.4922 151.025 63.616 151.275C61.6397 151.525 59.9386 153.051 59.3632 155.001C57.5621 161.328 60.2138 167.18 60.2388 167.255Z" fill="#2B478B"/>
<path d="M66.7681 167.83C66.8682 167.48 66.668 167.105 66.2928 167.005C65.9426 166.905 65.5673 167.105 65.4673 167.48C65.3672 167.83 65.5673 168.206 65.9426 168.306C66.2928 168.381 66.668 168.18 66.7681 167.83Z" fill="#2B478B"/>
<path d="M61.1395 167.355C61.2395 167.005 61.0394 166.63 60.6641 166.53C60.3139 166.43 59.9387 166.63 59.8386 167.005C59.7386 167.355 59.9387 167.73 60.3139 167.83C60.6642 167.905 61.0394 167.705 61.1395 167.355Z" fill="#2B478B"/>
<path d="M64.4914 151.65H64.4664C64.3914 151.625 64.3163 151.55 64.3413 151.45C64.3413 151.4 65.392 146.923 67.6935 144.323C67.7435 144.248 67.8436 144.248 67.9186 144.298C67.9937 144.348 67.9937 144.448 67.9437 144.523C65.6922 147.048 64.6916 151.45 64.6665 151.5C64.6415 151.6 64.5665 151.65 64.4914 151.65Z" fill="#2B478B"/>
<path d="M65.4421 169.631C65.4421 169.631 56.4863 169.131 56.3862 173.682L64.6666 173.307L65.4421 169.631Z" fill="#D38956"/>
<path d="M89.1325 171.957C89.1325 171.957 95.8368 170.256 96.9625 174.733C98.0882 179.209 87.3313 174.733 87.3313 174.733L89.1325 171.957Z" fill="#ED985F"/>
<path d="M86.0804 152.225C86.0054 152.225 85.9553 152.175 85.9303 152.125C84.3793 147.874 81.7026 144.748 81.6525 144.723C81.6025 144.648 81.6025 144.548 81.6776 144.498C81.7526 144.448 81.8527 144.448 81.9027 144.523C81.9277 144.548 84.6545 147.724 86.2305 152.025C86.2555 152.1 86.2055 152.2 86.1304 152.225C86.1304 152.225 86.1054 152.225 86.0804 152.225Z" fill="#2B478B"/>
<path d="M87.6564 152.4C87.6564 151.525 86.956 150.825 86.0804 150.825C85.2049 150.825 84.5044 151.525 84.5044 152.4C84.5044 153.276 85.2049 153.976 86.0804 153.976C86.956 153.976 87.6564 153.276 87.6564 152.4Z" fill="#2B478B"/>
<path d="M86.8059 152.4C86.8059 152 86.4807 151.675 86.0804 151.675C85.6802 151.675 85.355 152 85.355 152.4C85.355 152.8 85.6802 153.125 86.0804 153.125C86.4807 153.125 86.8059 152.8 86.8059 152.4Z" fill="#6980E2"/>
<path d="M72.3465 179.809C72.3465 179.809 69.7948 176.733 63.6409 172.857L74.0976 174.833L77.2997 177.458L75.8487 178.209L72.3465 179.809Z" fill="#ED985F"/>
<path d="M82.9285 172.307L91.8592 171.657L91.2338 174.208L82.9285 172.307Z" fill="#ED985F"/>
<path d="M101.841 187.137C101.841 187.137 83.4538 185.136 61.8899 171.556L65.4422 169.631C65.4422 169.631 93.7104 172.707 97.2377 175.358C102.791 179.534 105.993 186.161 101.841 187.137Z" fill="#ED985F"/>
<path d="M56.3862 173.682C56.3862 173.682 62.5152 172.632 62.4151 172.557C62.3151 172.482 60.1887 171.832 59.7134 172.082C59.2131 172.332 56.3862 173.682 56.3862 173.682Z" fill="#ED985F"/>
<path d="M130.209 302.175H140.316C140.24 301.649 139.99 300.024 139.515 298.548C139.34 298.023 139.165 297.523 138.94 297.098C137.964 295.147 131.71 296.373 131.71 296.373C131.71 296.373 131.135 296.873 130.684 298.773C130.459 299.599 130.284 300.724 130.209 302.175Z" fill="#233862"/>
<path d="M148.771 147.099C148.771 147.099 156.826 148.524 158.652 153.276C160.478 158.027 170.76 234.853 170.76 234.853C170.76 234.853 165.657 238.879 154.725 237.428C143.793 235.978 148.771 147.099 148.771 147.099Z" fill="#ABDDDA"/>
<path d="M160.754 299.299C160.779 300.674 160.954 301.975 161.454 302.5H181.467C181.217 301.775 180.491 300.699 178.44 300.349C176.114 299.974 172.461 298.849 170.335 296.598C169.584 295.798 169.009 294.847 168.759 293.772C167.808 289.596 160.979 295.048 160.979 295.048C160.979 295.048 160.729 297.248 160.754 299.299Z" fill="#233862"/>
<path d="M169.384 296.298C167.158 297.023 162.88 299.198 160.153 298.173C158.402 297.523 148.596 269.164 147.97 256.759C147.92 255.859 147.745 254.609 147.47 253.058C146.895 249.857 145.869 245.456 144.693 240.604C141.566 227.6 137.314 211.344 137.414 206.143C137.564 198.065 161.479 204.442 161.479 204.442C161.479 204.442 163.13 211.069 163.455 220.648C164.106 239.679 165.882 271.814 170.735 294.122C170.935 295.072 170.31 295.997 169.384 296.298Z" fill="#59A9AD"/>
<path d="M152.774 206.168L140.14 297.773C140.14 297.773 134.587 299.124 130.259 298.048C130.259 298.048 126.557 249.332 126.857 237.553C127.157 225.774 124.205 206.043 127.532 203.867C130.884 201.666 152.774 206.168 152.774 206.168Z" fill="#6BB7BF"/>
<path d="M125.956 151.3C125.956 151.3 139.24 142.722 148.771 147.098C150.297 147.799 152.023 149.749 153.274 151.125C156.726 154.926 163.455 215.196 163.455 215.196C163.455 215.196 144.343 221.673 125.981 212.995V151.3H125.956Z" fill="#DDEEEA"/>
<path d="M149.521 146.874C149.521 146.874 162.98 152.375 164.781 156.627C166.608 160.853 172.536 186.862 172.536 189.913C172.536 192.964 162.23 190.588 160.579 185.686C159.203 181.61 154.55 169.056 152.098 161.128L149.521 146.874Z" fill="#ABDDDA"/>
<path d="M146.72 151.075C143.793 151.65 139.465 151.025 136.313 148.949C137.739 145.548 138.314 142.847 138.539 141.122C138.539 141.022 138.564 140.947 138.564 140.846C138.665 139.946 138.639 139.321 138.589 139.046H146.169C146.169 139.046 148.246 139.996 148.246 140.646C148.246 140.997 148.246 141.322 148.246 141.647C148.271 142.522 148.296 143.272 148.346 143.948C148.496 146.073 148.746 147.074 148.746 147.074C148.746 147.074 149.697 150.5 146.72 151.075Z" fill="#C6784E"/>
<path d="M148.371 143.973C142.617 145.073 139.29 141.947 138.539 141.147C138.439 141.022 138.389 140.972 138.389 140.972C138.439 140.947 138.514 140.922 138.59 140.897C140.741 140.021 145.594 140.722 148.296 141.722C148.296 142.547 148.321 143.322 148.371 143.973Z" fill="#9F542C"/>
<path d="M136.663 137.82C137.689 143.347 144.819 143.172 147.921 142.822C148.796 142.722 149.346 142.622 149.346 142.622C150.322 142.372 150.872 140.821 151.123 138.796C151.623 134.794 150.998 128.942 150.322 127.442C149.296 125.191 147.395 122.74 140.216 124.516C132.986 126.267 135.337 130.743 136.663 137.82Z" fill="#C6784E"/>
<path d="M150.572 124.341C149.597 122.99 147.495 121.315 145.619 120.29C141.566 118.089 136.363 120.365 136.338 120.365C130.459 122.94 128.933 127.442 132.035 134.419C135.337 141.822 138.464 140.971 138.464 140.971C138.464 140.971 137.789 140.546 137.864 138.246C137.864 138.12 137.864 137.995 137.889 137.92C137.914 137.445 137.764 136.97 137.389 136.67C136.663 136.02 136.313 134.044 136.913 133.494C137.639 132.844 138.69 133.644 139.015 134.244C139.315 134.669 139.815 134.844 140.291 134.519C142.117 133.369 140.941 131.043 142.667 129.643C144.418 128.217 147.946 129.418 150.572 128.292C153.999 127.067 151.298 125.366 150.572 124.341Z" fill="#404040"/>
<path d="M151.373 240.479C150.222 240.78 149.071 241.03 147.921 241.205C146.92 241.38 145.919 241.505 144.919 241.58C139.24 242.08 133.511 241.28 126.857 239.354C125.356 238.929 123.805 238.429 122.179 237.904C122.004 237.854 122.629 220.198 123.33 201.992C123.405 200.116 123.48 198.215 123.555 196.365C123.58 195.565 123.605 194.789 123.655 193.989C124.305 177.884 124.931 163.354 125.056 162.579C125.356 160.803 125.656 159.303 125.956 157.977C126.857 154.151 128.008 152.075 130.459 150.275C130.709 150.1 132.661 149.099 134.412 148.224C135.863 147.499 137.139 146.874 137.139 146.874C137.714 147.149 138.389 148.474 139.115 150.3C140.441 153.701 141.867 158.903 142.867 162.779V162.804C143.518 165.305 143.968 167.255 144.093 167.83C144.318 168.781 144.618 170.606 144.944 173.082C145.419 176.458 145.969 181.035 146.57 186.237C146.62 186.762 146.695 187.312 146.745 187.862C146.82 188.487 146.895 189.112 146.945 189.763C146.97 189.963 146.995 190.163 147.02 190.388C147.245 192.439 147.47 194.564 147.695 196.74C147.896 198.516 150.597 199.816 150.772 201.642C150.872 202.717 151.098 212.545 151.398 215.696C151.598 217.947 151.473 239.429 151.373 240.479Z" fill="#ABDDDA"/>
<path d="M131.76 169.056C131.76 169.081 131.31 185.336 143.518 187.312C155.75 189.287 147.62 189.813 147.62 189.813C147.62 189.813 124.63 188.837 124.255 188.237C123.88 187.612 131.76 169.056 131.76 169.056Z" fill="#8FCBC7"/>
<path d="M142.092 194.289C142.092 194.289 141.866 194.439 141.416 194.739C141.416 194.739 141.391 194.739 141.391 194.764C139.515 195.965 133.986 199.191 125.931 201.366C125.081 201.592 124.205 201.817 123.304 202.017C123.38 200.141 123.455 198.24 123.53 196.39C122.454 196.315 121.453 196.165 120.503 195.965C120.528 195.715 120.578 195.465 120.603 195.214C121.628 194.789 122.654 194.389 123.63 194.014C124.43 193.689 125.206 193.414 125.931 193.139C129.233 191.888 131.685 191.038 131.685 191.038L141.491 194.139L142.092 194.289Z" fill="#8FCBC7"/>
<path d="M144.693 194.014C144.693 194.014 143.443 194.339 141.441 194.739H141.416C137.714 195.489 131.51 196.515 125.956 196.465C125.131 196.465 124.33 196.415 123.555 196.365C122.479 196.29 121.478 196.14 120.528 195.94C118.501 195.514 116.8 194.789 115.7 193.664C107.444 185.261 120.203 155.101 122.879 152.15C126.006 148.724 131.735 147.524 134.887 147.099C135.012 147.073 135.137 147.073 135.262 147.048C136.363 146.923 137.088 146.898 137.113 146.898C137.113 146.898 136.863 147.699 136.463 149.049C136.313 149.574 136.113 150.175 135.913 150.85C133.961 157.202 130.234 169.681 128.583 176.708C127.983 179.284 127.657 181.135 127.807 181.685C128.458 184.086 135.112 185.311 139.34 185.861C141.091 186.086 142.442 186.186 142.742 186.211C142.767 186.211 142.792 186.211 142.792 186.211L143.042 187.212L143.618 189.613L144.193 191.963L144.693 194.014Z" fill="#ABDDDA"/>
<path d="M167.708 208.469L139.365 207.293L145.119 171.957L173.462 173.157L167.708 208.469Z" fill="#233862"/>
<path d="M142.792 186.237C142.792 186.237 148.321 185.861 148.596 187.137C149.246 190.138 143.843 192.589 142.117 192.439C140.34 192.238 141.516 186.036 142.792 186.237Z" fill="#C6784E"/>
<path d="M171.911 180.335C171.911 180.335 166.633 178.684 166.057 179.859C164.731 182.635 169.409 186.262 171.135 186.512C172.887 186.762 173.187 180.435 171.911 180.335Z" fill="#C6784E"/>
<path d="M137.689 145.123C137.689 145.123 135.362 146.223 134.212 147.898C134.212 147.898 142.892 162.953 142.842 162.828C142.792 162.678 139.915 147.048 137.689 145.123Z" fill="#8FCBC7"/>
<path d="M148.496 145.348C149.271 145.648 150.722 147.148 151.047 147.974L152.073 161.128C152.073 161.128 149.872 151.475 148.746 147.123C148.471 145.998 148.521 145.648 148.496 145.348Z" fill="#8FCBC7"/>
<path d="M154.525 172.357C154.525 172.357 154.75 171.381 156.051 171.481C157.351 171.606 164.581 171.956 164.581 171.956C164.581 171.956 165.982 171.931 165.857 172.832L154.525 172.357Z" fill="#C65447"/>
<path d="M146.194 139.071C146.194 139.071 147.145 139.921 148.646 139.671C149.546 139.521 150.047 138.345 150.047 138.345C150.047 138.345 148.321 138.02 146.194 139.071Z" fill="white"/>
<path d="M136.813 157.552H129.484V160.853H136.813V157.552Z" fill="#EBF3FA"/>
<path d="M367.486 296.814L364.186 298.038C364.186 298.038 349.813 278.11 348.057 260.602C347.737 257.463 347.844 254.43 348.536 251.636C348.536 251.636 348.403 250.838 348.137 249.428C348.03 248.762 347.871 247.964 347.711 247.06C347.232 244.372 346.593 240.727 345.874 236.55C344.198 226.972 341.989 214.706 340.285 205.686L341.163 205.394L350.798 202.281L352.794 195.948L359.98 194.059C359.98 194.059 361.577 197.199 363.015 212.019C363.281 213.961 363.52 216.116 363.707 218.431C364.265 225.535 364.319 234.315 363.015 244.372C362.695 246.953 362.269 249.614 361.764 252.328C361.391 254.323 361.338 257.064 361.497 260.203C362.216 274.571 367.486 296.814 367.486 296.814Z" fill="#CE8157"/>
<path d="M344.786 218.458L360.382 249.454C360.489 248.789 360.648 247.991 360.808 247.087C361.287 244.399 361.926 240.754 362.644 236.577C364.321 226.998 366.53 214.733 368.234 205.713L367.355 205.42L357.721 202.307L355.724 195.975L348.538 194.086C348.538 194.086 346.941 197.226 345.504 212.045C345.185 213.988 344.945 216.116 344.786 218.458Z" fill="#E4AD8F"/>
<path d="M351.625 198.077L351.998 194.991C358.039 196.587 366.37 191.912 366.37 191.912C366.37 191.912 380.05 195.629 379.278 207.975C378.905 213.988 378.213 239.583 377.495 247.166C377.229 249.907 377.016 251.876 376.909 252.647C376.883 252.887 376.963 253.1 377.096 253.313C378.16 255.095 379.012 256.958 379.731 258.873C386.757 277.604 378.639 300.646 378.639 300.646L376.537 299.794C376.537 299.794 371.932 274.119 368.18 262.785C367.541 260.869 366.929 259.352 366.37 258.448C364.746 255.814 363.229 251.53 361.845 246.395C359.237 236.737 357.161 224.152 355.777 214.44C355.591 214.493 351.625 198.077 351.625 198.077Z" fill="#CE8157"/>
<path d="M366.424 302.376H383.085C383.085 302.376 383.484 299.848 382.606 297.906C381.781 296.07 380.477 295.218 380.769 292.983C379.705 294.074 377.975 295.298 375.579 294.979C375.287 295.458 373.663 298.012 372.678 298.73C371.614 299.502 366.77 299.209 366.424 302.376Z" fill="#233862"/>
<path d="M352.286 302.375H368.947C368.947 302.375 369.559 299.714 368.468 297.905C367.509 296.308 367.714 296.054 366.857 294.606C366.112 294.925 366.844 294.659 365.779 294.606C364.954 294.552 362.915 295.058 362.143 294.606C361.424 295.431 359.525 298.011 358.567 298.703C357.476 299.501 352.632 299.208 352.286 302.375Z" fill="#233862"/>
<path d="M362 250C362 250 361.872 250.075 363.5 250L380.5 251C380.576 245.378 381.422 212.643 379.377 206.266C376.916 198.645 342.081 197.249 340.491 204.267C338.901 211.284 342.318 246.171 343 251L362 250Z" fill="white"/>
<path d="M352.418 213.436C361.884 212.643 371.881 215.209 380.135 209.964C379.908 208.342 379.605 206.908 379.264 205.814C376.803 198.193 341.968 196.797 340.378 203.815C339.583 207.248 339.81 213.813 340.34 220.151C343.104 216.416 347.761 213.888 352.418 213.436Z" fill="#EAEAEA"/>
<path d="M351.018 125.414C351.018 125.414 348.33 120.848 348.898 119.226C350.639 114.321 364.876 111.454 369.95 118.811C371.01 120.132 368.246 124.697 368.246 124.697C368.246 124.697 364.535 117.604 359.348 117.755C354.199 117.906 351.056 124.81 351.018 125.414Z" fill="white"/>
<path d="M348.898 120.169C350.64 115.265 364.876 112.397 369.95 119.754C370.026 119.868 370.102 120.018 370.139 120.169C370.215 119.603 370.177 119.113 369.95 118.811C364.876 111.492 350.64 114.359 348.898 119.226C348.784 119.49 348.784 119.868 348.86 120.283C348.86 120.245 348.86 120.207 348.898 120.169Z" fill="white"/>
<path d="M360.067 118.246C360.067 118.246 357.417 116.661 354.993 118.133C352.57 119.604 350.904 121.038 350.866 123.905C350.828 126.773 348.557 128.357 348.329 129.715C348.102 131.074 348.935 132.621 348.632 133.979C348.329 135.337 345.755 138.808 347.459 142.128C349.162 145.486 354.956 147.524 357.568 146.09C360.181 144.694 360.673 146.165 366.428 146.203C372.184 146.241 374.001 141.411 372.524 138.62C371.048 135.79 369.95 135.073 370.745 132.432C371.54 129.791 369.041 127.603 368.662 126.094C368.284 124.584 368.473 121.717 366.731 119.717C364.459 117.076 360.067 118.246 360.067 118.246Z" fill="#6B311C"/>
<path d="M347.572 137.45C347.534 137.412 348.746 134.884 348.064 132.582C347.724 131.413 347.648 130.47 347.875 129.602C348.064 128.81 348.519 128.055 349.314 127.225C350.753 125.716 351.661 122.245 351.661 122.207H351.699C351.699 122.245 350.791 125.678 349.352 127.225C347.799 128.847 347.459 130.319 348.14 132.545C348.784 134.884 347.572 137.412 347.572 137.45Z" fill="#6B311C"/>
<path d="M353.593 119.226C353.631 118.849 355.335 117.151 357.493 117.151C359.613 117.151 360.408 118.661 360.446 118.661H360.408C360.408 118.661 359.575 117.189 357.493 117.189C355.372 117.189 353.669 118.887 353.593 119.226Z" fill="#6B311C"/>
<path d="M365.86 119.452C365.065 117.906 363.361 117.415 362.074 117.49C360.673 117.566 359.84 118.434 359.84 118.434L359.802 118.396C359.802 118.396 360.673 117.49 362.074 117.415C363.361 117.415 365.065 117.906 365.86 119.452Z" fill="#6B311C"/>
<path d="M366.845 120.358C366.845 120.358 366.428 119.566 365.633 118.849C364.914 118.207 363.702 117.491 362.074 117.755C360.218 118.056 359.953 118.471 359.953 118.471H359.916C359.916 118.471 360.181 118.019 362.074 117.717C363.702 117.453 364.951 118.17 365.671 118.811C366.466 119.566 366.882 120.358 366.845 120.358Z" fill="#6B311C"/>
<path d="M366.315 118.396C366.315 118.396 365.293 117.641 364.043 117.226C362.869 116.887 361.241 116.774 360.03 118.283L359.992 118.245C361.203 116.736 362.869 116.849 364.043 117.189C365.331 117.604 366.315 118.358 366.315 118.396Z" fill="#6B311C"/>
<path d="M370.176 134.167C371.161 131.337 371.161 129.224 370.138 127.866C369.003 126.395 368.737 125.829 368.397 123.565C368.056 121.339 367.185 120.396 367.185 120.396L367.223 120.358C367.223 120.358 368.132 121.339 368.472 123.565C368.813 125.866 369.078 126.395 370.214 127.866C371.199 129.186 371.199 131.337 370.176 134.167Z" fill="#6B311C"/>
<path d="M370.555 134.733C371.237 132.733 372.108 129.149 370.063 127.262C368.246 125.565 367.829 122.622 367.829 122.584H367.867C367.867 122.622 368.283 125.565 370.063 127.225C372.108 129.149 371.237 132.771 370.555 134.733Z" fill="#6B311C"/>
<path d="M348.291 136.355C348.708 134.809 348.67 134.394 348.178 132.017C347.648 129.602 348.14 128.847 349.579 127.489C350.98 126.131 351.207 122.66 351.207 122.622H351.245C351.245 122.66 351.017 126.169 349.617 127.527C348.216 128.885 347.723 129.64 348.253 132.017C348.708 134.394 348.746 134.809 348.291 136.355Z" fill="#6B311C"/>
<path d="M347.572 135.073C349.162 133.677 348.518 130.96 348.518 130.922H348.556C348.556 130.96 349.2 133.677 347.572 135.073Z" fill="#6B311C"/>
<path d="M350.185 145.259C350.185 145.259 349.428 144.882 348.595 144.127C347.837 143.41 346.929 142.279 346.702 140.694C346.285 137.676 348.14 135.525 348.14 135.487L348.178 135.525C348.178 135.563 346.323 137.676 346.739 140.694C347.156 143.674 350.147 145.184 350.185 145.259Z" fill="#6B311C"/>
<path d="M349.882 145.636C349.768 145.599 347.458 144.806 346.663 142.052C345.944 139.6 347.799 136.355 347.837 136.355H347.875C347.875 136.393 346.019 139.6 346.701 142.052C347.458 144.769 349.768 145.561 349.882 145.636Z" fill="#6B311C"/>
<path d="M371.426 144.882C372.714 144.127 373.736 141.939 373.168 139.902C372.6 137.827 370.858 136.016 370.82 136.016L370.858 135.978C370.858 135.978 372.638 137.789 373.206 139.902C373.774 141.939 372.751 144.127 371.426 144.882Z" fill="#6B311C"/>
<path d="M373.509 143.071C374.077 141.109 373.433 139.524 372.828 138.506C372.146 137.412 371.313 136.77 371.313 136.77L371.351 136.732C371.351 136.732 372.184 137.374 372.865 138.468C373.509 139.524 374.115 141.109 373.509 143.071Z" fill="#6B311C"/>
<path d="M351.51 131.639C351.51 131.639 351.775 133.337 351.056 134.884C350.336 136.431 351.472 137.789 351.661 138.921C351.851 140.053 349.844 142.543 352.532 144.995C354.388 146.693 357.985 146.995 361.127 146.995C364.27 146.995 366.731 146.278 368.056 144.92C369.382 143.562 369.041 141.185 368.359 140.317C367.64 139.449 368.814 138.204 368.776 136.808C368.738 135.412 368.927 133.035 368.359 132.582C367.791 132.13 365.179 133.526 361.657 133.262C358.136 132.997 351.51 131.639 351.51 131.639Z" fill="#592616"/>
<path d="M355.599 137.865C355.599 137.865 355.486 142.845 355.334 143.826C355.183 144.807 353.252 145.373 351.245 146.278C350.715 153.183 356.432 161.181 360.711 161.181C364.989 161.181 370.631 152.051 369.192 147.259C367.185 146.656 364.459 144.807 364.27 144.165C364.081 143.524 364.346 137.902 364.346 137.902H355.599V137.865Z" fill="#CE8157"/>
<path d="M369.874 149.259C369.874 149.259 365.709 148.957 364.308 149.259C362.907 149.56 363.399 150.579 364.914 150.579C366.428 150.579 369.609 149.9 370.631 150.013C371.691 150.202 369.874 149.259 369.874 149.259Z" fill="#CE8157"/>
<path d="M350.261 149.259C350.261 149.259 354.426 148.957 355.827 149.259C357.227 149.56 356.735 150.579 355.221 150.579C353.706 150.579 350.526 149.9 349.503 150.013C348.481 150.202 350.261 149.259 350.261 149.259Z" fill="#CE8157"/>
<path d="M361.279 142.543C362.377 142.166 363.475 141.826 364.194 140.996C364.232 139.412 364.308 137.827 364.308 137.827H355.599C355.599 137.827 355.561 139.978 355.485 141.751C357.189 142.883 359.196 143.222 361.279 142.543Z" fill="#CE8157"/>
<path d="M353.365 131.187C353.365 131.187 351.851 129.451 351.321 130.922C350.791 132.394 351.813 134.884 352.722 135.299C353.63 135.676 353.82 134.092 353.82 134.092L353.365 131.187Z" fill="#CE8157"/>
<path d="M352.986 132.847C352.986 132.847 352.835 131.375 352.532 131.036C352.229 130.696 351.661 130.922 351.661 131.828C351.661 132.696 351.85 133.563 352.115 134.054C352.381 134.582 352.683 134.205 352.911 134.243C353.138 134.28 352.305 133.035 352.986 132.847Z" fill="#B66E47"/>
<path d="M366.92 131.187C366.92 131.187 368.548 129.451 369.078 130.922C369.646 132.394 368.548 134.884 367.564 135.299C366.579 135.714 366.39 134.092 366.39 134.092L366.92 131.187Z" fill="#C18B70"/>
<path d="M367.375 132.847C367.375 132.847 367.527 131.375 367.83 131.036C368.133 130.696 368.776 130.922 368.776 131.828C368.776 132.696 368.587 133.563 368.284 134.054C367.981 134.582 367.678 134.205 367.451 134.243C367.224 134.28 368.095 133.035 367.375 132.847Z" fill="#B66E47"/>
<path d="M353.138 134.884C353.138 135.186 352.873 135.45 352.57 135.45C352.267 135.45 352.002 135.186 352.002 134.884C352.002 134.582 352.267 134.318 352.57 134.318C352.911 134.318 353.138 134.582 353.138 134.884Z" fill="#EFEFEF"/>
<path d="M353.062 134.771C353.062 134.997 352.873 135.186 352.646 135.186C352.419 135.186 352.229 134.997 352.229 134.771C352.229 134.545 352.419 134.356 352.646 134.356C352.873 134.356 353.062 134.545 353.062 134.771Z" fill="white"/>
<path d="M368.057 134.884C368.057 135.186 367.792 135.45 367.489 135.45C367.186 135.45 366.921 135.186 366.921 134.884C366.921 134.582 367.186 134.318 367.489 134.318C367.792 134.318 368.057 134.582 368.057 134.884Z" fill="#EFEFEF"/>
<path d="M367.943 134.771C367.943 134.997 367.754 135.186 367.526 135.186C367.299 135.186 367.11 134.997 367.11 134.771C367.11 134.545 367.299 134.356 367.526 134.356C367.754 134.356 367.943 134.545 367.943 134.771Z" fill="white"/>
<path d="M352.873 128.923C352.873 128.923 352.608 133.262 354.387 136.695C356.167 140.128 358.817 141.185 360.483 141.185C362.149 141.185 364.421 139.713 366.049 136.921C367.64 134.129 367.375 129.187 367.072 127.225C366.731 125.263 364.232 119.566 360.105 120.207C355.94 120.886 352.646 125.376 352.873 128.923Z" fill="#CE8157"/>
<path d="M362.339 124.283C362.339 124.283 362.149 125.226 360.635 125.415C359.12 125.603 359.877 126.811 358.514 127.15C357.151 127.49 354.614 128.697 354.084 130.433C353.554 132.206 354.198 140.657 360.559 140.883C363.777 140.77 365.633 136.771 365.898 134.545C366.201 132.319 366.276 130.734 365.746 129.263C365.178 127.792 365.671 127.075 365.33 126.396C364.951 125.716 362.944 125.716 362.339 124.283Z" fill="#CE8157"/>
<path d="M352.874 130.658C352.874 130.658 353.328 131.866 353.328 133.262C353.631 132.054 353.782 130.847 353.593 130.017C353.404 129.376 352.874 130.658 352.874 130.658Z" fill="#592616"/>
<path d="M367.299 130.81C367.299 130.81 367.034 132.017 366.996 133.526C366.731 133.036 366.466 130.885 366.655 130.055C367.034 130.055 367.299 130.81 367.299 130.81Z" fill="#592616"/>
<path d="M361.619 121.641C361.619 121.641 362.15 124.433 360.597 125.037C359.045 125.64 358.855 125.527 358.136 126.282C357.227 127.225 356.016 127.187 355.258 128.131C354.501 129.074 353.895 130.772 352.873 130.696C352.191 127.98 352.911 122.433 355.713 120.585C358.515 118.736 360.824 118.887 362.793 119.717C364.762 120.547 366.504 122.735 367.299 124.999C368.094 127.225 367.299 130.885 367.299 130.885C367.299 130.885 366.239 130.092 365.974 128.546C365.671 126.999 366.05 126.32 364.762 125.339C363.475 124.358 362.15 123.188 361.619 121.641Z" fill="#6B311C"/>
<path d="M353.365 129.753C354.728 129.602 355.599 128.508 356.394 127.564C356.772 127.112 357.113 126.697 357.454 126.47C357.908 126.131 358.363 126.018 358.855 125.867C359.461 125.678 360.142 125.489 361.013 124.848C362.604 123.716 361.468 121.528 361.468 121.528H361.505C361.505 121.566 362.641 123.792 361.051 124.923C360.142 125.565 359.461 125.753 358.855 125.942C358.363 126.093 357.946 126.206 357.492 126.546C357.151 126.772 356.81 127.187 356.432 127.64C355.674 128.508 354.728 129.64 353.365 129.753Z" fill="#6B311C"/>
<path d="M354.123 128.961C354.804 128.81 355.296 128.319 355.789 127.829C356.357 127.263 356.924 126.697 357.871 126.546C359.461 126.282 360.067 125.641 360.9 124.773C360.976 124.697 361.052 124.622 361.127 124.509C362.074 123.49 361.392 121.868 361.355 121.868H361.392C361.392 121.868 362.112 123.528 361.127 124.546C361.052 124.622 360.976 124.697 360.9 124.811C360.067 125.716 359.461 126.357 357.833 126.622C356.924 126.772 356.319 127.338 355.789 127.904C355.296 128.357 354.842 128.848 354.123 128.961Z" fill="#6B311C"/>
<path d="M359.5 126.508C360.711 126.131 361.506 125.527 361.847 124.66C362.453 123.113 361.279 121.264 361.241 121.226L361.279 121.188C361.279 121.188 362.491 123.075 361.885 124.66C361.582 125.565 360.749 126.169 359.5 126.508Z" fill="#6B311C"/>
<path d="M366.125 126.471C364.043 125.867 362.869 124.434 362.301 123.339C361.657 122.132 361.506 121.076 361.506 121.076H361.544C361.544 121.076 361.695 122.17 362.339 123.339C362.907 124.396 364.043 125.83 366.125 126.471Z" fill="#6B311C"/>
<path d="M381.044 153.974C381.044 153.974 382.256 154.88 383.24 159.898C384.225 164.916 386.194 173.103 386.535 173.291C381.688 175.631 377.485 176.725 374.873 176.046C373.472 169.556 377.674 154.88 381.044 153.974Z" fill="white"/>
<path d="M351.889 145.938C351.889 145.938 351.17 146.089 347.989 147.108C344.846 148.126 339.545 149.9 339.205 150.05C340.265 157.257 340.303 163.218 339.735 165.821C339.167 168.462 339.735 172.537 340.53 173.707C341.325 174.876 344.316 179.705 344.808 182.346C345.301 184.987 344.771 187.779 344.771 187.779C344.771 187.779 343.938 192.005 341.969 196.155C340 200.305 338.447 206.983 338.447 206.983C347.042 212.831 375.175 213.661 382.142 207.323C378.356 200.23 374.532 189.251 374.645 180.95C374.759 172.65 375.175 173.48 375.895 170.801C376.614 168.123 376.955 164.689 377.864 161.935C378.772 159.181 380.968 154.05 380.968 154.05C380.968 154.05 374.759 148.843 369.117 147.296C368.89 150.088 364.384 156.879 360.787 158.766C354.502 156.502 351.624 147.296 351.889 145.938Z" fill="white"/>
<path d="M339.697 170.688C339.886 172.009 340.189 173.179 340.567 173.707C341.363 174.876 344.354 179.706 344.846 182.347C345.338 184.988 344.808 187.78 344.808 187.78C344.808 187.78 343.975 192.005 342.006 196.156C340.037 200.306 338.485 206.984 338.485 206.984C339.734 207.814 341.363 208.568 343.294 209.21C343.748 202.268 345.982 195.665 347.913 188.912C350.298 181.366 342.423 177.14 339.697 170.688Z" fill="#EAEAEA"/>
<path d="M346.247 206.418C348.14 206.418 349.768 206.04 350.184 204.871C351.282 201.852 352.381 192.345 352.381 192.269L352.153 192.231C352.153 192.345 351.055 201.777 349.957 204.795C348.897 207.7 339.355 205.172 339.242 205.135L339.166 205.361C339.469 205.437 343.18 206.418 346.247 206.418Z" fill="#EAEAEA"/>
<path d="M352.683 191.024C352.683 191.024 346.701 190.496 344.732 189.477C343.899 190.647 344.316 191.288 344.316 191.288C344.316 191.288 348.518 192.646 352.57 192.646C352.608 192.118 352.683 191.024 352.683 191.024Z" fill="#A4EAE2"/>
<path d="M354.766 159.747H345.944V161.52H354.766V159.747Z" fill="#EAEAEA"/>
<path d="M354.955 159.37H346.133V161.143H354.955V159.37Z" fill="#EAEAEA"/>
<path d="M379.908 154.616C379.908 154.616 372.6 163.558 374.607 171.67C375.819 172.047 375.819 172.047 375.819 172.047C375.819 172.047 373.471 165.633 379.908 154.616Z" fill="#EAEAEA"/>
<path d="M378.053 197.891C376.614 193.816 375.44 189.439 374.948 185.402L362.491 187.704C362.529 187.704 370.026 188.119 378.053 197.891Z" fill="#EAEAEA"/>
<path d="M374.115 206.418C372.222 206.418 370.594 206.04 370.178 204.871C369.079 201.852 367.981 192.345 367.981 192.269L368.209 192.231C368.209 192.345 369.307 201.777 370.405 204.795C371.465 207.7 381.007 205.172 381.12 205.135L381.196 205.361C380.931 205.437 377.182 206.418 374.115 206.418Z" fill="#EAEAEA"/>
<path d="M367.716 191.024C367.716 191.024 373.698 190.496 375.667 189.477C376.5 190.647 376.084 191.288 376.084 191.288C376.084 191.288 371.881 192.646 367.829 192.646C367.792 192.118 367.716 191.024 367.716 191.024Z" fill="#EAEAEA"/>
<path d="M343.559 197.589C345.187 195.703 346.513 193.213 347.724 193.288C348.936 193.364 350.261 193.175 351.321 192.609C352.381 192.043 352.23 190.911 352.23 190.911C354.54 190.987 354.843 189.44 354.843 189.44C354.843 189.44 354.729 189.251 354.691 189.025C356.092 188.572 355.676 187.478 355.676 187.478L351.321 187.327C351.321 187.327 353.707 186.761 354.275 186.12C354.843 185.478 354.35 185.252 354.35 185.252C354.35 185.252 349.58 185.478 348.292 186.007C347.497 186.346 345.793 187.667 344.581 188.685C344.014 190.798 343.143 193.779 342.007 196.156C341.78 196.646 341.552 197.212 341.325 197.74C341.78 198.268 342.575 198.759 343.559 197.589Z" fill="#EAEAEA"/>
<path d="M345.944 187.704C345.944 187.704 347.951 185.176 350.715 183.592C353.479 182.007 354.463 175.706 354.463 175.706C354.236 179.366 353.668 182.497 350.904 184.384C356.432 181.894 363.21 175.329 364.346 172.99C363.285 176.499 354.274 184.271 350.488 185.855C346.815 187.478 345.944 187.704 345.944 187.704Z" fill="#EAEAEA"/>
<path d="M326.596 163.369C326.596 163.369 322.923 167.821 321.143 169.405C319.401 170.99 317.13 173.669 318.341 175.706C319.515 177.743 322.847 182.724 327.618 186.383C333.222 190.684 336.857 194.118 338.22 195.174C339.583 196.231 341.476 196.608 343.142 195.551C344.77 194.495 346.55 192.797 347.61 192.76C348.67 192.722 350.374 192.76 351.245 192.42C352.116 192.08 352.381 190.949 352.192 190.911C352.002 190.873 350.525 191.25 349.276 191.288C348.026 191.326 347.118 191.175 346.323 191.477C347.837 190.798 350.071 190.684 351.699 190.609C353.327 190.534 354.009 190.383 354.577 189.892C355.145 189.402 354.804 188.949 354.577 188.987C354.35 189.024 353.176 189.138 351.283 189.138C349.39 189.138 348.216 189.024 347.004 189.439C347.989 188.987 349.276 188.76 350.033 188.647C350.828 188.572 353.1 188.685 354.123 188.685C355.145 188.685 355.561 188.043 355.637 187.779C355.713 187.553 355.599 187.289 354.501 187.251C353.365 187.213 350.563 187.138 349.692 187.176C348.822 187.213 347.231 187.817 346.853 188.006C348.292 187.025 349.617 186.647 350.185 186.534C350.753 186.421 353.252 186.421 353.895 186.195C354.501 185.968 354.691 185.289 354.047 185.176C353.441 185.063 350.753 185.214 349.503 185.251C348.254 185.289 346.739 186.346 344.997 187.666C343.256 188.987 341.855 189.892 340.908 189.666C339.961 189.439 337.387 187.213 332.767 181.818C331.026 179.743 327.807 174.914 327.315 174.65C329.776 172.688 334.547 167.821 334.547 167.821L326.596 163.369Z" fill="#CE8157"/>
<path d="M339.242 150.051C339.242 150.051 337.841 150.994 335.948 153.635C334.017 156.276 325.346 164.086 325.346 164.086C327.201 167.293 332.275 172.386 333.562 172.952C335.758 170.877 339.583 169.142 339.583 169.142C339.583 169.142 339.658 167.142 340.34 164.69C341.021 162.237 340.264 151.145 339.242 150.051Z" fill="white"/>
<path d="M331.253 171.103C332.275 172.084 333.146 172.763 333.563 172.951C335.759 170.876 339.583 169.141 339.583 169.141C339.583 169.141 339.659 167.141 340.34 164.689C340.605 163.708 340.643 161.369 340.53 158.841C338.75 163.821 335.494 168.273 331.253 171.103Z" fill="#EAEAEA"/>
<path d="M385.095 172.311C385.095 172.311 385.171 178.611 385.512 181.894C385.891 185.176 385.474 188.723 383.089 188.987C380.703 189.213 378.318 186.987 378.318 185.704C378.318 184.422 377.636 174.876 377.636 174.876L385.095 172.311Z" fill="#CE8157"/>
<path d="M362.188 187.252L381.65 161.483H395.659L396 161.936L377.712 187.252L362.528 187.705L362.188 187.252Z" fill="#6987CC"/>
<path d="M362.528 187.704L381.99 161.935H396L378.015 187.704H362.528Z" fill="#314488"/>
<path d="M371.464 173.744C371.464 173.744 369.76 173.141 369.192 174.839C367.754 174.876 367.981 176.235 367.981 176.235C366.958 176.084 366.921 177.442 366.921 177.48C366.125 177.291 366.05 177.932 366.125 178.725C366.201 179.517 367.072 182.347 367.678 182.648C368.284 182.988 372.07 182.611 373.244 181.932C374.418 181.252 374.455 176.876 374.38 176.763C374.039 177.253 373.622 177.253 373.622 177.253C373.622 177.253 373.055 176.423 372.524 175.48C371.994 174.612 371.464 173.744 371.464 173.744Z" fill="#CE8157"/>
<path d="M366.958 177.63C366.958 177.63 367.526 178.762 367.602 179.366C367.678 179.97 367.867 180.913 368.057 180.724C368.284 180.535 367.375 178.196 366.958 177.63Z" fill="#BF754D"/>
<path d="M368.094 176.423C368.094 176.423 368.7 177.857 369.003 178.913C369.268 179.969 369.836 179.668 369.495 178.988C369.192 178.309 368.094 176.423 368.094 176.423Z" fill="#BF754D"/>
<path d="M369.229 174.952C369.229 174.952 370.29 177.442 370.706 178.121C371.161 178.762 371.35 178.196 370.896 177.555C370.403 176.876 369.229 174.952 369.229 174.952Z" fill="#BF754D"/>
<path d="M376.651 179.781C376.651 179.781 377.03 180.649 379.832 181.516C382.634 182.422 385.247 184.082 385.133 186.421C385.019 188.798 383.581 189.892 379.908 189.326C376.235 188.76 374.304 184.761 372.903 184.384C371.502 184.007 367.905 183.026 367.678 182.648C368.511 182.799 368.662 182.082 368.662 182.082C369.95 182.611 370.442 181.516 370.442 181.403C372.108 181.366 372.524 180.422 372.524 180.158C373.887 179.97 374.077 179.29 374.039 178.8C374.001 178.309 373.585 177.291 373.585 177.291C373.585 177.291 374.266 176.876 373.887 176.536C373.509 176.159 373.017 176.121 372.259 175.819C371.54 175.518 370.896 174.31 371.01 173.556C371.085 172.763 371.351 172.575 371.956 172.914C372.524 173.254 373.547 173.82 374.001 173.971C374.455 174.084 375.364 175.178 375.894 175.744C376.462 176.31 376.424 178.045 376.386 178.611C376.349 179.177 376.576 179.668 376.651 179.781Z" fill="#CE8157"/>
<path d="M371.616 172.726C371.616 172.726 371.692 173.027 371.464 173.367C371.237 173.707 372.259 174.122 372.525 174.235C372.827 174.348 373.206 174.31 373.244 174.008C373.282 173.707 373.358 173.669 373.358 173.669C373.358 173.669 372.259 172.763 371.616 172.726Z" fill="#EDB69A"/>
<path d="M339.81 151.823C339.81 151.823 340.984 160.425 340.265 163.142C339.545 165.858 339.091 168.688 339.545 171.14C340 173.593 340.833 174.008 341.476 175.366C342.082 176.762 347.762 180.384 347.8 183.855C347.648 180.045 344.316 175.819 342.423 173.631C340.53 171.442 340.568 167.141 341.363 163.331C342.158 159.558 340.227 152.389 339.81 151.823Z" fill="#EAEAEA"/>
<path d="M327.315 174.612C327.315 174.612 325.573 172.65 324.097 172.197C325.725 172.348 326.52 173.14 327.315 174.612Z" fill="#EAA27D"/>
</g>
<defs>
<clipPath id="clip0_11300_11243">
<rect width="620" height="303" fill="white"/>
</clipPath>
</defs>
</svg>
