<svg width="63" height="56" viewBox="0 0 63 56" fill="none" xmlns="http://www.w3.org/2000/svg">
<path d="M0 5C0 2.23858 2.23858 0 5 0H63V56H5C2.23858 56 0 53.7614 0 51V5Z" fill="#DFEDF9"/>
<path d="M14.418 40.6406V43.8984C14.2969 44.0586 14.1074 44.2344 13.8496 44.4258C13.5957 44.6133 13.2578 44.7754 12.8359 44.9121C12.4141 45.0488 11.8887 45.1172 11.2598 45.1172C10.7246 45.1172 10.2344 45.0273 9.78906 44.8477C9.34375 44.6641 8.95898 44.3965 8.63477 44.0449C8.31445 43.6934 8.06641 43.2656 7.89062 42.7617C7.71484 42.2539 7.62695 41.6758 7.62695 41.0273V40.4355C7.62695 39.791 7.70703 39.2168 7.86719 38.7129C8.03125 38.2051 8.26562 37.7754 8.57031 37.4238C8.875 37.0723 9.24219 36.8066 9.67188 36.627C10.1055 36.4434 10.5957 36.3516 11.1426 36.3516C11.8418 36.3516 12.4199 36.4688 12.877 36.7031C13.3379 36.9336 13.6934 37.2539 13.9434 37.6641C14.1934 38.0742 14.3516 38.543 14.418 39.0703H12.9766C12.9297 38.7734 12.8379 38.5078 12.7012 38.2734C12.5684 38.0391 12.377 37.8555 12.127 37.7227C11.8809 37.5859 11.5605 37.5176 11.166 37.5176C10.8262 37.5176 10.5273 37.582 10.2695 37.7109C10.0117 37.8398 9.79688 38.0293 9.625 38.2793C9.45703 38.5293 9.33008 38.834 9.24414 39.1934C9.1582 39.5527 9.11523 39.9629 9.11523 40.4238V41.0273C9.11523 41.4961 9.16406 41.9121 9.26172 42.2754C9.36328 42.6387 9.50781 42.9453 9.69531 43.1953C9.88672 43.4453 10.1191 43.6348 10.3926 43.7637C10.666 43.8887 10.9746 43.9512 11.3184 43.9512C11.6543 43.9512 11.9297 43.9238 12.1445 43.8691C12.3594 43.8105 12.5293 43.7422 12.6543 43.6641C12.7832 43.582 12.8828 43.5039 12.9531 43.4297V41.7363H11.1777V40.6406H14.418ZM18.7012 45.1172C18.2324 45.1172 17.8086 45.041 17.4297 44.8887C17.0547 44.7324 16.7344 44.5156 16.4688 44.2383C16.207 43.9609 16.0059 43.6348 15.8652 43.2598C15.7246 42.8848 15.6543 42.4805 15.6543 42.0469V41.8125C15.6543 41.3164 15.7266 40.8672 15.8711 40.4648C16.0156 40.0625 16.2168 39.7188 16.4746 39.4336C16.7324 39.1445 17.0371 38.9238 17.3887 38.7715C17.7402 38.6191 18.1211 38.543 18.5312 38.543C18.9844 38.543 19.3809 38.6191 19.7207 38.7715C20.0605 38.9238 20.3418 39.1387 20.5645 39.416C20.791 39.6895 20.959 40.0156 21.0684 40.3945C21.1816 40.7734 21.2383 41.1914 21.2383 41.6484V42.252H16.3398V41.2383H19.8438V41.127C19.8359 40.873 19.7852 40.6348 19.6914 40.4121C19.6016 40.1895 19.4629 40.0098 19.2754 39.873C19.0879 39.7363 18.8379 39.668 18.5254 39.668C18.291 39.668 18.082 39.7188 17.8984 39.8203C17.7188 39.918 17.5684 40.0605 17.4473 40.248C17.3262 40.4355 17.2324 40.6621 17.166 40.9277C17.1035 41.1895 17.0723 41.4844 17.0723 41.8125V42.0469C17.0723 42.3242 17.1094 42.582 17.1836 42.8203C17.2617 43.0547 17.375 43.2598 17.5234 43.4355C17.6719 43.6113 17.8516 43.75 18.0625 43.8516C18.2734 43.9492 18.5137 43.998 18.7832 43.998C19.123 43.998 19.4258 43.9297 19.6914 43.793C19.957 43.6562 20.1875 43.4629 20.3828 43.2129L21.127 43.9336C20.9902 44.1328 20.8125 44.3242 20.5938 44.5078C20.375 44.6875 20.1074 44.834 19.791 44.9473C19.4785 45.0605 19.1152 45.1172 18.7012 45.1172ZM25.2461 38.6602V39.6914H21.6719V38.6602H25.2461ZM22.7031 37.1074H24.1152V43.248C24.1152 43.4434 24.1426 43.5938 24.1973 43.6992C24.2559 43.8008 24.3359 43.8691 24.4375 43.9043C24.5391 43.9395 24.6582 43.957 24.7949 43.957C24.8926 43.957 24.9863 43.9512 25.0762 43.9395C25.166 43.9277 25.2383 43.916 25.293 43.9043L25.2988 44.9824C25.1816 45.0176 25.0449 45.0488 24.8887 45.0762C24.7363 45.1035 24.5605 45.1172 24.3613 45.1172C24.0371 45.1172 23.75 45.0605 23.5 44.9473C23.25 44.8301 23.0547 44.6406 22.9141 44.3789C22.7734 44.1172 22.7031 43.7695 22.7031 43.3359V37.1074ZM35.1016 40.0312V41.1973H30.5723V40.0312H35.1016ZM30.9355 36.4688V45H29.4648V36.4688H30.9355ZM36.2324 36.4688V45H34.7676V36.4688H36.2324ZM40.6387 45.1172C40.1699 45.1172 39.7461 45.041 39.3672 44.8887C38.9922 44.7324 38.6719 44.5156 38.4062 44.2383C38.1445 43.9609 37.9434 43.6348 37.8027 43.2598C37.6621 42.8848 37.5918 42.4805 37.5918 42.0469V41.8125C37.5918 41.3164 37.6641 40.8672 37.8086 40.4648C37.9531 40.0625 38.1543 39.7188 38.4121 39.4336C38.6699 39.1445 38.9746 38.9238 39.3262 38.7715C39.6777 38.6191 40.0586 38.543 40.4688 38.543C40.9219 38.543 41.3184 38.6191 41.6582 38.7715C41.998 38.9238 42.2793 39.1387 42.502 39.416C42.7285 39.6895 42.8965 40.0156 43.0059 40.3945C43.1191 40.7734 43.1758 41.1914 43.1758 41.6484V42.252H38.2773V41.2383H41.7812V41.127C41.7734 40.873 41.7227 40.6348 41.6289 40.4121C41.5391 40.1895 41.4004 40.0098 41.2129 39.873C41.0254 39.7363 40.7754 39.668 40.4629 39.668C40.2285 39.668 40.0195 39.7188 39.8359 39.8203C39.6562 39.918 39.5059 40.0605 39.3848 40.248C39.2637 40.4355 39.1699 40.6621 39.1035 40.9277C39.041 41.1895 39.0098 41.4844 39.0098 41.8125V42.0469C39.0098 42.3242 39.0469 42.582 39.1211 42.8203C39.1992 43.0547 39.3125 43.2598 39.4609 43.4355C39.6094 43.6113 39.7891 43.75 40 43.8516C40.2109 43.9492 40.4512 43.998 40.7207 43.998C41.0605 43.998 41.3633 43.9297 41.6289 43.793C41.8945 43.6562 42.125 43.4629 42.3203 43.2129L43.0645 43.9336C42.9277 44.1328 42.75 44.3242 42.5312 44.5078C42.3125 44.6875 42.0449 44.834 41.7285 44.9473C41.416 45.0605 41.0527 45.1172 40.6387 45.1172ZM45.7891 36V45H44.3711V36H45.7891ZM48.7539 39.8789V47.4375H47.3418V38.6602H48.6426L48.7539 39.8789ZM52.8848 41.7715V41.8945C52.8848 42.3555 52.8301 42.7832 52.7207 43.1777C52.6152 43.5684 52.457 43.9102 52.2461 44.2031C52.0391 44.4922 51.7832 44.7168 51.4785 44.877C51.1738 45.0371 50.8223 45.1172 50.4238 45.1172C50.0293 45.1172 49.6836 45.0449 49.3867 44.9004C49.0938 44.752 48.8457 44.543 48.6426 44.2734C48.4395 44.0039 48.2754 43.6875 48.1504 43.3242C48.0293 42.957 47.9434 42.5547 47.8926 42.1172V41.6426C47.9434 41.1777 48.0293 40.7559 48.1504 40.377C48.2754 39.998 48.4395 39.6719 48.6426 39.3984C48.8457 39.125 49.0938 38.9141 49.3867 38.7656C49.6797 38.6172 50.0215 38.543 50.4121 38.543C50.8105 38.543 51.1641 38.6211 51.4727 38.7773C51.7812 38.9297 52.041 39.1484 52.252 39.4336C52.4629 39.7148 52.6211 40.0547 52.7266 40.4531C52.832 40.8477 52.8848 41.2871 52.8848 41.7715ZM51.4727 41.8945V41.7715C51.4727 41.4785 51.4453 41.207 51.3906 40.957C51.3359 40.7031 51.25 40.4805 51.1328 40.2891C51.0156 40.0977 50.8652 39.9492 50.6816 39.8438C50.502 39.7344 50.2852 39.6797 50.0312 39.6797C49.7812 39.6797 49.5664 39.7227 49.3867 39.8086C49.207 39.8906 49.0566 40.0059 48.9355 40.1543C48.8145 40.3027 48.7207 40.4766 48.6543 40.6758C48.5879 40.8711 48.541 41.084 48.5137 41.3145V42.4512C48.5605 42.7324 48.6406 42.9902 48.7539 43.2246C48.8672 43.459 49.0273 43.6465 49.2344 43.7871C49.4453 43.9238 49.7148 43.9922 50.043 43.9922C50.2969 43.9922 50.5137 43.9375 50.6934 43.8281C50.873 43.7188 51.0195 43.5684 51.1328 43.377C51.25 43.1816 51.3359 42.957 51.3906 42.7031C51.4453 42.4492 51.4727 42.1797 51.4727 41.8945ZM55.7148 36.4688L55.5742 42.4863H54.3672L54.2207 36.4688H55.7148ZM54.1797 44.332C54.1797 44.1172 54.25 43.9375 54.3906 43.793C54.5352 43.6445 54.7344 43.5703 54.9883 43.5703C55.2383 43.5703 55.4355 43.6445 55.5801 43.793C55.7246 43.9375 55.7969 44.1172 55.7969 44.332C55.7969 44.5391 55.7246 44.7168 55.5801 44.8652C55.4355 45.0098 55.2383 45.082 54.9883 45.082C54.7344 45.082 54.5352 45.0098 54.3906 44.8652C54.25 44.7168 54.1797 44.5391 54.1797 44.332Z" fill="#1C5D95"/>
<g clip-path="url(#clip0_5871_10168)">
<path d="M41.75 21.2383C41.75 15.2908 37.135 11.25 32 11.25C26.9191 11.25 22.25 15.2042 22.25 21.3033C21.6 21.6717 21.1666 22.365 21.1666 23.1667V25.3333C21.1666 26.525 22.1416 27.5 23.3333 27.5C23.9291 27.5 24.4166 27.0125 24.4166 26.4167V21.2058C24.4166 17.0567 27.6125 13.4275 31.7616 13.3083C36.0516 13.1783 39.5833 16.6233 39.5833 20.8917V28.5833H32C31.4041 28.5833 30.9166 29.0708 30.9166 29.6667C30.9166 30.2625 31.4041 30.75 32 30.75H39.5833C40.775 30.75 41.75 29.775 41.75 28.5833V27.2617C42.3891 26.9258 42.8333 26.265 42.8333 25.485V22.9933C42.8333 22.235 42.3891 21.5742 41.75 21.2383Z" fill="#1C5D95"/>
<path d="M28.75 23.1667C29.3483 23.1667 29.8333 22.6816 29.8333 22.0833C29.8333 21.485 29.3483 21 28.75 21C28.1517 21 27.6666 21.485 27.6666 22.0833C27.6666 22.6816 28.1517 23.1667 28.75 23.1667Z" fill="#1C5D95"/>
<path d="M35.25 23.1667C35.8483 23.1667 36.3333 22.6816 36.3333 22.0833C36.3333 21.485 35.8483 21 35.25 21C34.6517 21 34.1666 21.485 34.1666 22.0833C34.1666 22.6816 34.6517 23.1667 35.25 23.1667Z" fill="#1C5D95"/>
<path d="M38.5 19.9492C37.98 16.8617 35.2933 14.5 32.0542 14.5C28.7717 14.5 25.24 17.2192 25.5217 21.4875C28.1975 20.3933 30.2125 18.01 30.7867 15.1067C32.2058 17.9558 35.12 19.9167 38.5 19.9492Z" fill="#1C5D95"/>
</g>
<defs>
<clipPath id="clip0_5871_10168">
<rect width="26" height="26" fill="white" transform="translate(19 8)"/>
</clipPath>
</defs>
</svg>
