<?xml version="1.0" encoding="utf-8"?>
<!-- Generator: Adobe Illustrator 22.0.0, SVG Export Plug-In . SVG Version: 6.00 Build 0)  -->
<svg version="1.1" id="Capa_1" xmlns="http://www.w3.org/2000/svg" xmlns:xlink="http://www.w3.org/1999/xlink" x="0px" y="0px"
	 viewBox="0 0 455.4 455.4" style="enable-background:new 0 0 455.4 455.4;" xml:space="preserve">
<style type="text/css">
	.st0{fill:#009E6C;}
	.st1{fill:#46B180;}
	.st2{fill:#FFFFFF;}
</style>
<g>
	<path class="st0" d="M390.9,395c-63,51.4-259.7,51.4-321.4,0c-63-51.4-56.6-271.3,0-329.2s264.9-57.9,321.4,0
		S453.9,343.6,390.9,395z"/>
	<g>
		<path class="st1" d="M231.5,305c-56.6,45-119.6,68.1-178.7,69.4C9.1,299.9,18.1,118.6,69.5,65.9c46.3-47.6,191.6-56.6,275.2-27
			C365.2,123.7,322.8,231.7,231.5,305z"/>
	</g>
	<path class="st2" d="M200.7,342.3c-9,0-18-3.9-23.1-11.6l-72-92.6c-10.3-12.9-7.7-30.9,5.1-41.1s30.9-7.7,41.1,5.1l48.9,63
		l108-140.1c10.3-12.9,28.3-15.4,41.1-5.1s15.4,28.3,5.1,41.1L223.8,330.7C217.4,337.1,209.7,342.3,200.7,342.3z"/>
</g>
</svg>
