<svg width="32" height="32" viewBox="0 0 32 32" fill="none" xmlns="http://www.w3.org/2000/svg">
<path d="M27.7246 21.9514L27.6327 22.0557V22.1946V27.784V27.784C27.6327 27.9714 27.5849 28.1556 27.4936 28.3193C27.4024 28.4829 27.2709 28.6205 27.1115 28.719C26.9521 28.8176 26.7702 28.8737 26.583 28.8821C26.3959 28.8905 26.2097 28.8509 26.0421 28.7671L26.0421 28.7671L24.1647 27.8285L24.0003 27.7463L23.8359 27.8285L21.9586 28.7671L21.9586 28.7671C21.791 28.8509 21.6048 28.8905 21.4176 28.8821C21.2304 28.8737 21.0485 28.8176 20.8892 28.719C20.7298 28.6205 20.5982 28.4829 20.507 28.3193C20.4158 28.1556 20.3679 27.9714 20.368 27.784V27.784V22.1946V22.0557L20.276 21.9514C19.6438 21.2347 19.2319 20.3508 19.0896 19.4057C18.9474 18.4607 19.0809 17.4947 19.4741 16.6236C19.8673 15.7525 20.5035 15.0134 21.3063 14.495C22.1092 13.9766 23.0446 13.7009 24.0003 13.7009H24.0003C24.956 13.7009 25.8915 13.9766 26.6943 14.495C27.4972 15.0134 28.1334 15.7525 28.5266 16.6236C28.9198 17.4947 29.0533 18.4607 28.911 19.4057C28.7688 20.3508 28.3568 21.2347 27.7246 21.9514ZM27.0346 7.99996V7.63233H26.667H5.33366H4.96603V7.99996V24V24.3676H5.33366H16.0003C16.2564 24.3676 16.5021 24.4693 16.6832 24.6504C16.8643 24.8315 16.966 25.0772 16.966 25.3333C16.966 25.5894 16.8643 25.835 16.6832 26.0161C16.5021 26.1972 16.2564 26.299 16.0003 26.299H5.33366C4.72392 26.299 4.13915 26.0568 3.70799 25.6256C3.27684 25.1945 3.03462 24.6097 3.03462 24V7.99996C3.03462 7.39021 3.27684 6.80544 3.70799 6.37429C4.13915 5.94314 4.72392 5.70092 5.33366 5.70092H26.667C27.2767 5.70092 27.8615 5.94314 28.2927 6.37429C28.7238 6.80544 28.966 7.39021 28.966 7.99996V10.6666C28.966 10.9227 28.8643 11.1684 28.6832 11.3495C28.5021 11.5306 28.2564 11.6323 28.0003 11.6323C27.7442 11.6323 27.4986 11.5306 27.3175 11.3495C27.1364 11.1684 27.0346 10.9227 27.0346 10.6666V7.99996ZM25.7013 23.832V23.3577L25.242 23.4759C24.4275 23.6857 23.5732 23.6857 22.7587 23.4759L22.2994 23.3577V23.832V25.8426V26.437L22.8312 26.1716L23.5685 25.8036L23.5687 25.8035C23.7027 25.7365 23.8505 25.7016 24.0003 25.7016C24.1502 25.7016 24.298 25.7365 24.432 25.8035L24.4322 25.8036L25.1695 26.1716L25.7013 26.437V25.8426V23.832ZM24.0003 15.6323C23.1956 15.6323 22.4238 15.952 21.8548 16.5211C21.2857 17.0901 20.966 17.8619 20.966 18.6666C20.966 19.4714 21.2857 20.2432 21.8548 20.8122C22.4238 21.3812 23.1956 21.7009 24.0003 21.7009C24.8051 21.7009 25.5769 21.3812 26.1459 20.8122C26.7149 20.2432 27.0346 19.4714 27.0346 18.6666C27.0346 17.8619 26.7149 17.0901 26.1459 16.5211C25.5769 15.952 24.8051 15.6323 24.0003 15.6323ZM11.9999 17.7009C12.2461 17.7012 12.4828 17.7954 12.6618 17.9644C12.8408 18.1334 12.9485 18.3643 12.9629 18.61C12.9773 18.8557 12.8974 19.0977 12.7394 19.2864C12.5835 19.4727 12.3633 19.5932 12.1227 19.6243L11.9893 19.6323H9.33407C9.08793 19.6321 8.85118 19.5378 8.6722 19.3688C8.49322 19.1999 8.38552 18.9689 8.37109 18.7232C8.35667 18.4775 8.43661 18.2356 8.59459 18.0468C8.75045 17.8606 8.97066 17.74 9.21124 17.7089L9.34465 17.7009H11.9999ZM17.3337 12.3676C17.5898 12.3676 17.8354 12.4693 18.0165 12.6504C18.1976 12.8315 18.2994 13.0772 18.2994 13.3333C18.2994 13.5894 18.1976 13.835 18.0165 14.0161C17.8354 14.1972 17.5898 14.299 17.3337 14.299H9.33366C9.07754 14.299 8.83191 14.1972 8.6508 14.0161C8.4697 13.835 8.36795 13.5894 8.36795 13.3333C8.36795 13.0772 8.4697 12.8315 8.6508 12.6504C8.83191 12.4693 9.07754 12.3676 9.33366 12.3676H17.3337Z" fill="#808080" stroke="white" stroke-width="0.735258"/>
</svg>
