<svg width="48" height="48" viewBox="0 0 48 48" fill="none" xmlns="http://www.w3.org/2000/svg">
<path d="M4.68311 24.539C4.68311 35.5673 13.8408 44.5069 25.138 44.5069C36.4353 44.5069 45.5929 35.5673 45.5929 24.539C45.5929 13.5107 36.4353 4.57109 25.138 4.57109C13.8408 4.57109 4.68311 13.5107 4.68311 24.539Z" stroke="#14446C" stroke-width="1.50049" stroke-linecap="round" stroke-linejoin="round"/>
<path d="M27.1834 4.67235C27.1834 4.67235 33.3199 12.5597 33.3199 24.5404C33.3199 36.5211 27.1834 44.4085 27.1834 44.4085M23.0924 44.4085C23.0924 44.4085 16.956 36.5211 16.956 24.5404C16.956 12.5597 23.0924 4.67235 23.0924 4.67235M5.97168 31.5292H44.3042M5.97168 17.5516H44.3042" stroke="#14446C" stroke-width="1.50049" stroke-linecap="round" stroke-linejoin="round"/>
</svg>
