<svg width="32" height="32" viewBox="0 0 32 32" fill="none" xmlns="http://www.w3.org/2000/svg">
<path d="M13.3337 15.8333C11.867 15.8333 10.667 15.3667 9.73366 14.4333C8.80033 13.5 8.33366 12.3 8.33366 10.8333C8.33366 9.36668 8.80033 8.16668 9.73366 7.23334C10.667 6.30001 11.867 5.83334 13.3337 5.83334C14.8003 5.83334 16.0003 6.30001 16.9337 7.23334C17.867 8.16668 18.3337 9.36668 18.3337 10.8333C18.3337 12.3 17.867 13.5 16.9337 14.4333C16.0003 15.3667 14.8003 15.8333 13.3337 15.8333ZM2.66699 26.5333V23.4C2.66699 22.6222 2.86144 21.9222 3.25033 21.3C3.63921 20.6778 4.20033 20.2 4.93366 19.8667C6.53366 19.1556 8.01699 18.6445 9.38366 18.3333C10.7503 18.0222 12.067 17.8667 13.3337 17.8667H14.1003C13.967 18.1778 13.867 18.4833 13.8003 18.7833C13.7337 19.0833 13.6781 19.4445 13.6337 19.8667H13.3337C12.0448 19.8667 10.7837 20.0056 9.55033 20.2833C8.31699 20.5611 7.04477 21.0222 5.73366 21.6667C5.3781 21.8445 5.11144 22.0945 4.93366 22.4167C4.75588 22.7389 4.66699 23.0667 4.66699 23.4V24.5333H13.6337C13.7448 24.9333 13.8781 25.2945 14.0337 25.6167C14.1892 25.9389 14.3781 26.2445 14.6003 26.5333H2.66699ZM22.2337 28L21.9003 25.8C21.5225 25.6889 21.1392 25.5278 20.7503 25.3167C20.3614 25.1056 20.0337 24.8667 19.767 24.6L17.9337 25L17.1003 23.6L18.667 22.1333C18.6225 21.9333 18.6003 21.6556 18.6003 21.3C18.6003 20.9445 18.6225 20.6667 18.667 20.4667L17.1003 19L17.9337 17.6L19.767 18C20.0337 17.7333 20.3614 17.4945 20.7503 17.2833C21.1392 17.0722 21.5225 16.9111 21.9003 16.8L22.2337 14.6H24.0337L24.367 16.8C24.7448 16.9111 25.1281 17.0722 25.517 17.2833C25.9059 17.4945 26.2337 17.7333 26.5003 18L28.3337 17.6L29.167 19L27.6003 20.4667C27.6448 20.6667 27.667 20.9445 27.667 21.3C27.667 21.6556 27.6448 21.9333 27.6003 22.1333L29.167 23.6L28.3337 25L26.5003 24.6C26.2337 24.8667 25.9059 25.1056 25.517 25.3167C25.1281 25.5278 24.7448 25.6889 24.367 25.8L24.0337 28H22.2337ZM23.1337 23.9667C23.9337 23.9667 24.5781 23.7222 25.067 23.2333C25.5559 22.7445 25.8003 22.1 25.8003 21.3C25.8003 20.5 25.5559 19.8556 25.067 19.3667C24.5781 18.8778 23.9337 18.6333 23.1337 18.6333C22.3337 18.6333 21.6892 18.8778 21.2003 19.3667C20.7114 19.8556 20.467 20.5 20.467 21.3C20.467 22.1 20.7114 22.7445 21.2003 23.2333C21.6892 23.7222 22.3337 23.9667 23.1337 23.9667ZM13.3337 13.8333C14.2003 13.8333 14.917 13.55 15.4837 12.9833C16.0503 12.4167 16.3337 11.7 16.3337 10.8333C16.3337 9.96668 16.0503 9.25001 15.4837 8.68334C14.917 8.11668 14.2003 7.83334 13.3337 7.83334C12.467 7.83334 11.7503 8.11668 11.1837 8.68334C10.617 9.25001 10.3337 9.96668 10.3337 10.8333C10.3337 11.7 10.617 12.4167 11.1837 12.9833C11.7503 13.55 12.467 13.8333 13.3337 13.8333Z" fill="black"/>
</svg>
