<svg width="28" height="23" viewBox="0 0 28 23" fill="none" xmlns="http://www.w3.org/2000/svg">
<path d="M11.3332 10.8333C9.8665 10.8333 8.6665 10.3667 7.73317 9.43334C6.79984 8.50001 6.33317 7.30001 6.33317 5.83334C6.33317 4.36668 6.79984 3.16668 7.73317 2.23334C8.6665 1.30001 9.8665 0.833344 11.3332 0.833344C12.7998 0.833344 13.9998 1.30001 14.9332 2.23334C15.8665 3.16668 16.3332 4.36668 16.3332 5.83334C16.3332 7.30001 15.8665 8.50001 14.9332 9.43334C13.9998 10.3667 12.7998 10.8333 11.3332 10.8333ZM0.666504 21.5333V18.4C0.666504 17.6222 0.860948 16.9222 1.24984 16.3C1.63873 15.6778 2.19984 15.2 2.93317 14.8667C4.53317 14.1556 6.0165 13.6445 7.38317 13.3333C8.74984 13.0222 10.0665 12.8667 11.3332 12.8667H12.0998C11.9665 13.1778 11.8665 13.4833 11.7998 13.7833C11.7332 14.0833 11.6776 14.4445 11.6332 14.8667H11.3332C10.0443 14.8667 8.78317 15.0056 7.54984 15.2833C6.3165 15.5611 5.04428 16.0222 3.73317 16.6667C3.37762 16.8445 3.11095 17.0945 2.93317 17.4167C2.75539 17.7389 2.6665 18.0667 2.6665 18.4V19.5333H11.6332C11.7443 19.9333 11.8776 20.2945 12.0332 20.6167C12.1887 20.9389 12.3776 21.2445 12.5998 21.5333H0.666504ZM20.2332 23L19.8998 20.8C19.5221 20.6889 19.1387 20.5278 18.7498 20.3167C18.3609 20.1056 18.0332 19.8667 17.7665 19.6L15.9332 20L15.0998 18.6L16.6665 17.1333C16.6221 16.9333 16.5998 16.6556 16.5998 16.3C16.5998 15.9445 16.6221 15.6667 16.6665 15.4667L15.0998 14L15.9332 12.6L17.7665 13C18.0332 12.7333 18.3609 12.4945 18.7498 12.2833C19.1387 12.0722 19.5221 11.9111 19.8998 11.8L20.2332 9.60001H22.0332L22.3665 11.8C22.7443 11.9111 23.1276 12.0722 23.5165 12.2833C23.9054 12.4945 24.2332 12.7333 24.4998 13L26.3332 12.6L27.1665 14L25.5998 15.4667C25.6443 15.6667 25.6665 15.9445 25.6665 16.3C25.6665 16.6556 25.6443 16.9333 25.5998 17.1333L27.1665 18.6L26.3332 20L24.4998 19.6C24.2332 19.8667 23.9054 20.1056 23.5165 20.3167C23.1276 20.5278 22.7443 20.6889 22.3665 20.8L22.0332 23H20.2332ZM21.1332 18.9667C21.9332 18.9667 22.5776 18.7222 23.0665 18.2333C23.5554 17.7445 23.7998 17.1 23.7998 16.3C23.7998 15.5 23.5554 14.8556 23.0665 14.3667C22.5776 13.8778 21.9332 13.6333 21.1332 13.6333C20.3332 13.6333 19.6887 13.8778 19.1998 14.3667C18.7109 14.8556 18.4665 15.5 18.4665 16.3C18.4665 17.1 18.7109 17.7445 19.1998 18.2333C19.6887 18.7222 20.3332 18.9667 21.1332 18.9667ZM11.3332 8.83334C12.1998 8.83334 12.9165 8.55001 13.4832 7.98334C14.0498 7.41668 14.3332 6.70001 14.3332 5.83334C14.3332 4.96668 14.0498 4.25001 13.4832 3.68334C12.9165 3.11668 12.1998 2.83334 11.3332 2.83334C10.4665 2.83334 9.74984 3.11668 9.18317 3.68334C8.6165 4.25001 8.33317 4.96668 8.33317 5.83334C8.33317 6.70001 8.6165 7.41668 9.18317 7.98334C9.74984 8.55001 10.4665 8.83334 11.3332 8.83334Z" fill="#808080"/>
</svg>
