<?xml version="1.0" encoding="utf-8"?>
<!-- Generator: Adobe Illustrator 22.0.0, SVG Export Plug-In . SVG Version: 6.00 Build 0)  -->
<svg version="1.1" id="Layer_1" xmlns="http://www.w3.org/2000/svg" xmlns:xlink="http://www.w3.org/1999/xlink" x="0px" y="0px"
	 viewBox="0 0 316 226" style="enable-background:new 0 0 316 226;" xml:space="preserve">
<style type="text/css">
	.st0{fill:#D9D9D9;filter:url(#Adobe_OpacityMaskFilter);}
	.st1{mask:url(#mask0_11281_8991_1_);}
	.st2{fill:#BDBAAC;}
	.st3{fill:#F1E7E3;}
	.st4{fill:#DFDCCF;}
	.st5{fill:#D2C1B9;}
	.st6{fill:#CC915C;}
	.st7{fill:#442727;}
	.st8{fill:#3F322C;}
	.st9{fill:#996F50;}
	.st10{fill:#C2E3DD;}
	.st11{fill:#028687;}
	.st12{fill:#F8E8DB;}
	.st13{fill:#8BCDCA;}
	.st14{opacity:0.2;}
	.st15{opacity:0.2;fill:#231F20;enable-background:new    ;}
	.st16{fill:#AF6969;}
	.st17{fill:#513433;}
	.st18{fill:#FFFFFF;}
	.st19{fill:#ADD1F0;}
	.st20{opacity:0.2;fill:#3A2D26;enable-background:new    ;}
	.st21{fill:#ADD5F2;}
	.st22{fill:#442828;}
	.st23{fill:#A7A9AC;}
	.st24{fill:#231F20;}
	.st25{fill:#F1F2F2;}
	.st26{fill:#FCB197;}
	.st27{fill:#5E83A5;}
	.st28{fill:#D68380;}
	.st29{fill:none;stroke:#FFE6D0;stroke-width:2.3449;stroke-linecap:round;stroke-linejoin:round;stroke-miterlimit:10;}
	.st30{opacity:0.5;}
	.st31{opacity:0.5;fill:#B18A67;enable-background:new    ;}
	.st32{fill:#F6F2F0;}
	.st33{fill:#3D95AA;}
	.st34{fill:#726658;}
	.st35{opacity:0.6;}
	.st36{opacity:0.6;fill:#4A8183;enable-background:new    ;}
	.st37{fill:#63ACAE;}
	.st38{fill:none;stroke:#91D3D2;stroke-width:0.469;stroke-miterlimit:10;}
	.st39{fill:#A2DAE1;}
	.st40{fill:#CCFFFF;}
	.st41{fill:#BCBEC0;}
	.st42{fill:#F0BEB4;}
	.st43{fill:#6D9E9E;}
	.st44{fill:#EACBC6;}
	.st45{fill:#72594B;}
	.st46{fill:#939598;}
	.st47{fill:#D8DADB;}
	.st48{fill:none;stroke:#939598;stroke-width:0.469;stroke-miterlimit:10;}
	.st49{fill:#D3D4D6;}
	.st50{fill:#6E7072;}
	.st51{opacity:0.7;}
	.st52{opacity:0.7;fill:#63ACAE;enable-background:new    ;}
	.st53{opacity:0.7;fill:#4A8183;enable-background:new    ;}
	.st54{opacity:0.3;}
	.st55{opacity:0.3;fill:#DD8884;enable-background:new    ;}
	.st56{opacity:0.5;fill:#4A8183;enable-background:new    ;}
	.st57{opacity:0.7;fill:#DD8884;enable-background:new    ;}
	.st58{fill:#856E5D;}
	.st59{opacity:0.5;fill:#DD8884;enable-background:new    ;}
	.st60{opacity:0.2;fill:#72594B;enable-background:new    ;}
	.st61{fill:#FDC3A8;}
	.st62{fill:#F0C0B6;}
</style>
<defs>
	<filter id="Adobe_OpacityMaskFilter" filterUnits="userSpaceOnUse" x="6" y="5" width="306" height="215.6">
		<feColorMatrix  type="matrix" values="1 0 0 0 0  0 1 0 0 0  0 0 1 0 0  0 0 0 1 0"/>
	</filter>
</defs>
<mask maskUnits="userSpaceOnUse" x="6" y="5" width="306" height="215.6" id="mask0_11281_8991_1_">
	<rect y="0" class="st0" width="315" height="218"/>
</mask>
<g class="st1">
	<g>
		<g>
			<path class="st2" d="M203.9,116.1c31.1-8.7,53.8-31.3,67.5-48.7c14.8-18.9,22.2-35.9,22.3-36.1l1.4,0.5
				c-0.1,0.2-7.6,17.3-22.5,36.4c-13.7,17.6-36.7,40.3-68.2,49.2L203.9,116.1z"/>
			<path class="st2" d="M292.9,24.9c-3.1,4.5-3.9,9.7-2.6,14.3c4.9-0.9,9.6-3.8,12.7-8.2c3.1-4.4,3.9-9.7,2.6-14.3
				C300.7,17.6,296,20.5,292.9,24.9z"/>
			<path class="st2" d="M294.9,42.6c-5.4,1.6-9.6,5.2-11.7,9.5c4.4,2.2,10.1,2.8,15.5,1.2c5.4-1.6,9.6-5.2,11.7-9.5
				C305.9,41.6,300.3,41,294.9,42.6z"/>
			<path class="st2" d="M291.2,58.6c-5.6-0.9-11,0.5-15,3.4c2.9,3.9,7.5,6.8,13.2,7.6c5.6,0.9,11-0.5,15-3.4
				C301.5,62.4,296.8,59.5,291.2,58.6z"/>
			<path class="st2" d="M279.5,73.6c-5.6-0.9-11,0.5-15,3.4c2.9,3.9,7.5,6.8,13.2,7.6c5.6,0.9,11-0.5,15-3.4
				C289.8,77.4,285.1,74.5,279.5,73.6z"/>
			<path class="st2" d="M281.8,49.7c0-4.8-2-9.3-5.2-12.4c-3.2,2.8-5.2,7.1-5.2,11.9c0,4.8,2,9.3,5.2,12.4
				C279.8,58.8,281.8,54.5,281.8,49.7z"/>
			<path class="st2" d="M269.5,65.3c0.1-4.8-1.9-9.4-5-12.5c-3.3,2.7-5.3,7-5.4,11.8c-0.1,4.8,1.9,9.4,5,12.5
				C267.4,74.4,269.5,70.1,269.5,65.3z"/>
			<path class="st2" d="M260.2,88.9c-2.1-1.1-4.4-1.2-6.6-0.5c0.5,2,1.9,3.9,4,4.9c2.1,1.1,4.4,1.2,6.6,0.5
				C263.6,91.8,262.3,90,260.2,88.9z"/>
			<path class="st3" d="M167.9,164.6c0,0,19.4-120.1,38.8-120.1c17.7,0-3.6,44.5-1.4,54.1c2.1,9.6,19.3-29.3,36.8-47.4
				c17.5-18.1,28.2-8.1,18.1,13.8c-9.9,21.2-45.4,46-37.5,48.2c7.9,2.1,52.7-27.4,59.4-16.5c8.2,13.3-60.6,37-53.6,39.6
				c6.9,2.6,39.7-9.9,39.7,0.8c0,10.6-45.3,13.3-44.2,17.9c1.9,7.4,43.7-8.2,45.9,2.1c2.3,10.5-51.9,7.9-50.5,16.2
				c0.8,4.7,52.4-1.3,54.2,5.2c4.3,14.9-112.1,22.8-112.1,22.8L167.9,164.6z"/>
			<path class="st4" d="M91.2,185.8c0,0-38.3-33.7-43.3-31.1s-38.7-13.7-41.7-4.9c-3.7,10.8,47.2,20.4,43,23.2
				c-4.3,2.8-29.7-3.1-28.3,4.7c1.4,7.8,31.9,4.3,31.7,7.7c-0.3,5.7-30.1-0.7-30.2,7.2c-0.1,8,35.6-0.5,35.7,5.7
				c0.1,3.6-21.7,4.1-22.1,9.1c-0.8,11.4,70.8,8.7,70.8,8.7L91.2,185.8z"/>
			<path class="st2" d="M220.7,197c18.9,8.7,39.5,7.1,53.5,4.3c15.1-3.1,25.9-8.3,26-8.4l0.4,0.8c-0.1,0.1-10.9,5.3-26.2,8.5
				c-14.1,2.9-34.9,4.5-54-4.3L220.7,197z"/>
			<path class="st2" d="M302.4,189.4c-3.4,1-5.9,3.2-7.2,5.9c2.8,1.6,6.3,2.1,9.7,1.3c3.4-1,5.9-3.2,7.2-5.9
				C309.2,189,305.8,188.4,302.4,189.4z"/>
			<path class="st2" d="M295.9,198.8c-3.4-1.5-6.9-1.5-9.7-0.2c1.3,2.9,3.8,5.5,7.1,7c3.4,1.5,6.9,1.5,9.7,0.2
				C301.8,202.9,299.3,200.3,295.9,198.8z"/>
			<path class="st2" d="M287.5,205.1c-2.4-2.8-5.6-4.4-8.8-4.6c-0.2,3.1,0.9,6.5,3.3,9.3c2.4,2.8,5.6,4.4,8.8,4.6
				C291,211.3,289.9,207.9,287.5,205.1z"/>
			<path class="st2" d="M274.2,206.2c-1.9-2.2-4.7-3.3-7.5-3.2c-0.5,2.8,0.2,5.6,2.1,7.8c1.9,2.2,4.7,3.3,7.5,3.2
				C276.8,211.2,276.2,208.3,274.2,206.2z"/>
			<path class="st2" d="M287.7,193c0.8-3,0.3-6.2-1.2-8.6c-2.4,1.2-4.4,3.5-5.2,6.5c-0.8,3-0.3,6.2,1.2,8.6
				C284.9,198.5,286.9,196.1,287.7,193z"/>
			<path class="st2" d="M278.8,195.1c0.8-3,0.3-6.2-1.2-8.6c-2.4,1.2-4.4,3.5-5.2,6.5c-0.8,3-0.3,6.2,1.2,8.6
				C276,200.4,277.9,198.1,278.8,195.1z"/>
			<path class="st2" d="M259.6,207.1c-0.6-1.5-1.7-2.4-3-3c-0.6,1.2-0.7,2.7-0.1,4.1c0.6,1.5,1.7,2.4,3,3
				C260.1,210,260.2,208.5,259.6,207.1z"/>
			<path class="st2" d="M100.4,156.6l-1.4-0.1c2.1-34.3-11.8-66.6-23.9-87.6c-13-22.8-26.8-37.7-27-37.9l1.1-1
				c0.1,0.2,14,15.2,27.2,38.1C88.6,89.3,102.6,121.9,100.4,156.6z"/>
			<path class="st2" d="M42,29c3.3,5,8,8.1,12.8,8.9c0.8-5.2-0.4-11-3.7-16.1c-3.3-5-7.9-8.1-12.8-8.9C37.5,18.2,38.7,24,42,29z"/>
			<path class="st2" d="M59.5,35c-0.2,6,1.7,11.6,5.1,15.6c3.6-3.3,6-8.5,6.3-14.5c0.2-6-1.7-11.6-5.1-15.6
				C62.2,23.8,59.7,28.9,59.5,35z"/>
			<path class="st2" d="M55.7,50.9c-4.9,0.1-9.2,2.3-12,5.8c3.2,3.3,7.6,5.4,12.6,5.4c4.9-0.1,9.2-2.3,12-5.8
				C65.1,52.9,60.6,50.8,55.7,50.9z"/>
			<path class="st2" d="M63.6,64.2c-4.9,0.1-9.2,2.3-12,5.8c3.1,3.4,7.6,5.5,12.5,5.4c4.9-0.1,9.2-2.3,12-5.8
				C73,66.2,68.5,64.1,63.6,64.2z"/>
			<path class="st3" d="M134.3,212.5c0,0-36.6-86.4-41.1-106c-4.4-19.6,13.5-7.3,13.5-7.3S86.1,60.1,94.1,49.8
				c7.9-10.4,19.4-0.1,19.4-0.1s0.3-43.1,9.9-44.6c17.8-2.7,20.4,44.3,20.4,44.3s2.3-20.3,12.5-16.3c15.3,6-0.8,48.5-0.8,48.5
				s18.3-2.7,25.8,5.7C194.5,102.3,134.3,212.5,134.3,212.5z"/>
			<path class="st5" d="M146,205.6c0,0-70.5-11.8-85.7-24.3C45,168.9,60,163.3,60,163.3s-35.4-18.2-35-30.5c0.4-12.4,18-6.1,18-6.1
				s-29.8-34-22.7-40.4c13.1-12,47.7,23.3,47.7,23.3s-10.2-16.8,0.5-19.4c16.2-4,28.2,37.4,28.2,37.4s-3.1-16.3,8.1-14.2
				C125,117.2,146,205.6,146,205.6z"/>
			<path class="st5" d="M104.9,113.3c-11.2-2.3-8.1,14.2-8.1,14.2S84.7,86.1,68.4,90.1c-10.7,2.7-0.6,19.4-0.6,19.4
				S33.5,74.2,20.3,86.3l125.4,119.5C143.5,194.3,118.8,116.2,104.9,113.3z"/>
			<path class="st4" d="M166.5,214.6c0,0,25.3-25.8,38.1-28.5c12.8-2.7,10.4,6.4,10.4,6.4s25.3-22.2,31.2-16.8
				c5.9,5.4-0.5,10.5-0.5,10.5s21.1-3.8,24.2,3.2c4.6,10.6-30.1,16.4-30.1,16.4s14.6,1,11.2,7.6C246,223.7,166.5,214.6,166.5,214.6z
				"/>
			<path class="st5" d="M270,189.5c-3-7-24.2-3.2-24.2-3.2s6.4-5.2,0.5-10.5c-5.9-5.4-30.4,13.8-30.4,13.8s5.8-11.1-7-8.4
				c-12.8,2.7-42.4,33.5-42.4,33.5L270,189.5z"/>
		</g>
	</g>
	<g>
		<g>
			<rect x="89.9" y="188.8" class="st3" width="38.9" height="28.6"/>
			<path class="st6" d="M63.9,123.9c-6.7-9.5-8.9-24.1-8.9-24.1l5.5-2.5c0.1-0.2,0.1-0.5,0.2-0.7c0.1-0.4,0.1-0.9,0.1-1.4
				c0-1-0.1-2-0.2-2.9c-0.2-1.9-0.6-3.4-0.6-3.4l17.1-1l-0.2,4.5L77,96v0.1c0,0.5,0.2,1,0.4,1.3c0.7,1.2,2.2,1.4,2.2,1.4
				C79.8,105,63.9,123.9,63.9,123.9z"/>
			<path class="st6" d="M41.3,152.9v14.6c-0.1,0.5-0.3,1.2-0.5,2.1c-0.1,0.2-0.1,0.4-0.2,0.6c-2.2,6.2-8.4,19.1-8.4,19.1
				c-2,2.7-1.2,8.3-1.2,8.3c-0.2,2.7,2.1,16.9,2.5,19.7h-2.2l-0.8-2.5v2.5h-7l0.2-13.9c-1.1-8.8,4-40.5,5.5-49.7
				c0.2-1,0.3-1.7,0.4-2.1c0.1-0.3,0.1-0.4,0.1-0.4l10.7,1.6L41.3,152.9z"/>
			<path class="st7" d="M46.6,63.8c0,0-8.9,19.2,1.3,23.4c0,0,7.3,4.5,9.7-2.4l23.3-0.1c0,0,2.1,5.3,7.1,3.9c0,0,12.7-4.8,1.1-24.9
				H46.6z"/>
			<path class="st7" d="M55,82.1c-4.2,2.7-3.9-5.5-3.9-5.5l1.8-0.5C53.5,78.1,54.2,80.2,55,82.1z"/>
			<path class="st8" d="M65.7,42c0,0-9.8-5.2-16.4,9.1c0,0-9.5,16.6,2.9,19l31.4-1.7c0,0,5.9-0.1,6-6.2C89.6,62.2,84.7,32.3,65.7,42
				z"/>
			<path class="st7" d="M82.6,81.2c0.3-0.7,0.6-1.5,0.8-2.3c0,0,0.2-1.5,0.4-3.8h1.8C86.5,81,82.6,81.2,82.6,81.2z"/>
			<path class="st7" d="M65.6,40.9c0,0-9.8-5.2-16.4,9.1c0,0-9.5,16.6,2.9,19l31.4-1.7c0,0,5.9-0.1,6-6.2
				C89.5,61.1,84.6,31.3,65.6,40.9z"/>
			<path class="st6" d="M83.8,75.1c-0.2,2.3-0.4,3.8-0.4,3.8c-0.3,0.8-0.5,1.6-0.8,2.3c-5.3,13.3-15.9,10.9-15.9,10.9
				c-5.7-1.1-9.4-5.2-11.6-10c-0.9-1.9-1.6-4-2.1-6c-0.6-2.3-0.9-4.6-1.2-6.6c-0.5-4.6-0.4-8-0.4-8c6.9-16.9,15.2-9.3,15.2-9.3
				c8.4-8.4,16,6.8,16,6.8c0.9,3.1,1.2,6.5,1.3,9.6C84,71.1,83.9,73.4,83.8,75.1z"/>
			<path class="st9" d="M77.2,88L77,92.5c-5,3.9-10.2,2.7-10.2,2.7c-2.4-0.5-4.5-1.5-6.2-2.8c-0.2-1.9-0.6-3.4-0.6-3.4L77.2,88z"/>
			<path class="st6" d="M52.1,69c0,0-2.7-1.9-2.9,2.1c-0.1,1.8,0.2,7.2,4,5.9L52.1,69z"/>
			<path class="st6" d="M83.9,67.9c0,0,3-2,3.2,2c0.1,1.8-0.2,7.2-4,5.9L83.9,67.9z"/>
			<path class="st9" d="M40.1,152.7l1.1,0.2v14.6c-0.1,0.5-0.3,1.2-0.5,2.1c0.2-4,0.1-8.9-0.6-14.6c0,0-5,1.1-10.8-1.2
				c-0.1-0.1-0.3-0.1-0.4-0.2c0.2-1,0.3-1.7,0.4-2.1c0.1-0.3,0.1-0.4,0.1-0.4L40.1,152.7z"/>
			<path class="st10" d="M112.2,148.7c0,0-1.9,1.6-5.6,3.4c-1.4,0.7-3.2,1.4-5.2,2.1c-0.1,0-0.1,0.1-0.1,0.1h-0.1
				c-2,0.7-4.3,1.3-7,1.9c-0.1,0-0.2,0.1-0.3,0.1c0,0,0.1,0.1,0.1,0.3c0.9,2.5,7,20.6,3.2,60.6h-62c-0.7-9.9-1.3-28.8,4-38.3
				c0,0,0.2-0.7,0.5-2.1c0.1-0.2,0.1-0.4,0.2-0.7c0.3-1.4,0.6-3.5,0.9-6.1c0.4-4.4,0.5-10.3-0.5-17.4c0,0-5,1.1-10.8-1.2
				c-1-0.4-2.1-1-3.1-1.7c0,0,3.6-23.9,9.2-35.7c0,0,3.5-10,17.3-14c0.7-0.2,1.5-0.4,2.3-0.6c0.2-0.1,0.5-0.1,0.7-0.2
				c0,0,2,14.2,8.6,23.8c0.1-0.2,12.2-17.5,14.3-24.6h0.1c0,0,0,0,0.1,0c0,0,0,0,0.1,0c0.2,0.1,0.4,0.2,0.6,0.3
				c0.1,0.1,0.2,0.1,0.3,0.1c0.6,0.2,1.3,0.5,2.2,0.9c5.2,2.2,15,6.6,17.4,10C99.3,110,108.4,121.4,112.2,148.7z"/>
			<path class="st11" d="M94.1,159.4c1.4,4,6.4,21.6,3.2,57.8h-5c-0.7-6,2.9-16.1,2.9-16.1l-0.1-23.3
				C95.4,173.5,94.6,164.3,94.1,159.4z"/>
			<path class="st6" d="M102.9,205.2c1.6,3.1,2.1,8,2.3,12H92.4c-0.7-6,2.9-16.1,2.9-16.1l-0.1-23.3c0.3-4.2-0.6-13.5-1-18.4
				c-0.1-0.4-0.1-0.7-0.1-1c-0.1-0.8-0.2-1.5-0.2-1.9c0-0.2-0.1-0.3-0.1-0.3c0.1,0,0.2-0.1,0.3-0.1c1.2-0.3,5.5-1.3,7-1.9h0.1
				c0.1,0,0.1-0.1,0.1-0.1c1.5-0.5,5-2,5.2-2.1l0.1,2.2l0.5,12.6C109,181.7,102.9,205.2,102.9,205.2z"/>
			<path class="st12" d="M83.4,78.9c-4.9,15.9-16.8,13.2-16.8,13.2C55.9,90,52.7,77.8,51.8,69.4c0.1,0.1,17.1,12.5,32.2-0.8
				C84.1,74.2,83.4,78.9,83.4,78.9z"/>
			<path class="st7" d="M54.6,82.4c0,0,2.4-1.8,3-1.2c0.6,0.5,1,3-1.1,5.8L54.6,82.4z"/>
			<path class="st7" d="M82.6,81.2c0,0-1.8-0.7-2.1-0.1c0,0-1,0.9,0.3,3.7C80.9,84.7,82.7,83,82.6,81.2z"/>
			<path class="st13" d="M37.9,205.9c-0.8,0-1.6-0.1-2.5-0.3c-0.2-0.1-0.3-0.2-0.3-0.4c0.1-0.2,0.2-0.3,0.4-0.3c3,0.6,5.1,0,6.5-0.6
				c1.2-0.6,1.9-1.2,2.1-1.4l1-26.1h-5.5c-0.2,0-0.3-0.2-0.3-0.3c0-0.2,0.2-0.3,0.3-0.3h6.2l-1.1,27l-0.1,0.1
				c-0.1,0.1-0.8,0.9-2.4,1.7C41.3,205.4,39.8,205.9,37.9,205.9z"/>
			<path class="st13" d="M90.1,208.9c-1.8,0-3.7-0.4-6-1.2c-2.4-0.8-4.1-1.8-4.1-1.9l-0.1-0.1l-0.1-0.1c-2.6-4.4-1.3-27.5-1.2-28.5
				V177H94c0.2,0,0.3,0.2,0.3,0.3c0,0.2-0.2,0.3-0.3,0.3H79.3c-0.2,2.8-1.2,23.6,1.1,27.7c0.8,0.4,7,3.8,11.7,2.7
				c0.2-0.1,0.4,0.1,0.4,0.3c0.1,0.2-0.1,0.4-0.3,0.4C91.7,208.8,90.9,208.9,90.1,208.9z"/>
			<g class="st14">
				<g class="st14">
					<path class="st15" d="M69.3,79.6c-1.4,0-2.8-0.1-4-0.3c-3.7-0.4-6.5-1.3-6.5-1.3c-0.2-0.1-0.3-0.3-0.2-0.4
						c0.1-0.2,0.3-0.3,0.4-0.2c0.1,0,2.7,0.9,6.4,1.3c3.4,0.4,8.3,0.5,12.4-1.2c0.2-0.1,0.4,0,0.4,0.2c0.1,0.2,0,0.4-0.2,0.4
						C75.2,79.2,72.1,79.6,69.3,79.6z"/>
				</g>
			</g>
			<g class="st14">
				<g class="st14">
					<path class="st15" d="M68.1,83.1c-2.8,0-5.1-0.2-5.3-0.3c-0.2,0-0.3-0.2-0.3-0.4c0-0.2,0.2-0.3,0.4-0.3c0.1,0,8,0.8,12.6-0.5
						c0.2-0.1,0.4,0.1,0.4,0.2c0.1,0.2-0.1,0.4-0.2,0.4C73.5,82.9,70.6,83.1,68.1,83.1z"/>
				</g>
			</g>
			<g class="st14">
				<g class="st14">
					<path class="st15" d="M69.6,88.4c-2.8,0-5.2-0.7-5.4-0.8c-0.2-0.1-0.3-0.3-0.2-0.4c0.1-0.2,0.3-0.3,0.4-0.2
						c0.1,0,5.4,1.7,9.4,0c0.2-0.1,0.4,0,0.4,0.2c0.1,0.2,0,0.4-0.2,0.4C72.6,88.2,71,88.4,69.6,88.4z"/>
				</g>
			</g>
			<path class="st9" d="M106.6,154.3c-0.1,0-0.1,0-0.1,0.1c-1.4,0.7-3.2,1.4-5.2,2.1c-0.1,0-0.1,0.1-0.1,0.1h-0.1
				c-2,0.7-4.3,1.3-7,1.9c-0.1,0-0.1,0-0.1,0c-0.1-0.8-0.2-1.5-0.2-1.9c0-0.2-0.1-0.3-0.1-0.3c0.1,0,0.2-0.1,0.3-0.1
				c1.2-0.3,5.5-1.3,7-1.9h0.1c0.1,0,0.1-0.1,0.1-0.1c1.5-0.5,5-2,5.2-2.1L106.6,154.3z"/>
			<path class="st16" d="M51.4,74.8c-0.3,0-0.5-0.1-0.7-0.3C50.1,74,50,72.9,50,72.8c-0.2-1.4-0.1-2.3,0.4-2.6
				c0.3-0.2,0.7-0.1,0.9,0c0.1,0.1,0.2,0.2,0.1,0.4c-0.1,0.1-0.2,0.2-0.4,0.1c0,0-0.2-0.1-0.4,0c-0.1,0.1-0.4,0.4-0.2,2.1
				c0,0.3,0.2,1.1,0.6,1.4c0.2,0.1,0.3,0.2,0.5,0.2c0.2,0,0.3,0.1,0.3,0.2c0,0.2-0.1,0.3-0.2,0.3C51.5,74.8,51.5,74.8,51.4,74.8z"/>
			<path class="st16" d="M84.6,73.6c0.3,0,0.5-0.1,0.7-0.3c0.6-0.5,0.7-1.6,0.7-1.7c0.2-1.4,0.1-2.2-0.4-2.5c-0.3-0.2-0.7-0.1-0.9,0
				c-0.1,0.1-0.2,0.2-0.1,0.4c0.1,0.1,0.2,0.2,0.4,0.1c0,0,0.2-0.1,0.3,0c0.1,0.1,0.4,0.4,0.2,2.1c0,0.3-0.2,1.1-0.6,1.4
				c-0.2,0.1-0.3,0.2-0.5,0.2c-0.2,0-0.3,0.1-0.3,0.2c0,0.2,0.1,0.3,0.2,0.3C84.5,73.6,84.5,73.6,84.6,73.6z"/>
		</g>
	</g>
	<path class="st17" d="M263.1,59.1c0,0-0.4,1.5-1.3,2.6c-0.5,0.6-1.2,1.1-2.1,1.1l-10.2-17c0,0,0.6-0.7,1.7-1.2
		c1.4-0.7,3.6-1.1,6.5,0.3C257.7,44.8,264.8,49.2,263.1,59.1z"/>
	<path class="st6" d="M239.2,128.6c-7.5-2.8-11.1-24.1-11.1-24.1c1.7-0.3,2.9-1,3.8-2c0.4-0.4,0.7-0.8,0.9-1.2
		c0.1-0.2,0.2-0.4,0.3-0.5c0.8-1.7,0.8-3.5,0.8-3.5l16.8-3.6c-0.4,2-0.4,3.6-0.3,5c0.1,1.1,0.4,2,0.7,2.7c0.3,0.7,0.8,1.3,1.2,1.7
		c1,0.9,2,1.1,2,1.1C256,108.5,239.2,128.6,239.2,128.6z"/>
	<path class="st6" d="M253.7,88.4c-5.8,14.3-19.5,10.2-19.5,10.2c-8.4-2.1-11.3-11.9-12.1-21.2c-0.8-9,0-16.3,0-16.3
		c6.3-14.2,30-3,30-3c2.5,5.4,3.7,10.2,4.1,14.4C257.2,82.4,253.7,88.4,253.7,88.4z"/>
	<path class="st9" d="M250.3,98.8c-6.5,6.2-15.1,3.5-15.1,3.5c-0.9-0.2-1.6-0.5-2.3-0.9c0.1-0.2,0.2-0.4,0.3-0.5
		c0.8-1.7,0.8-3.5,0.8-3.5l16.8-3.6C250.2,95.8,250.1,97.5,250.3,98.8z"/>
	<path class="st18" d="M230.8,115.8c0,0,10.1,1.9,18.6-0.6l-10.2,14C239.2,129.2,231,120.9,230.8,115.8z"/>
	<path class="st19" d="M264.9,172.7l-0.4,1.9c0,0,1.3,2.3,2.8,5.3c1,2.1,2.1,4.4,2.9,6.7c0.5,1.2,0.9,2.4,1.1,3.5
		c0.2,0.9,0.4,1.8,0.4,2.5l1.9,26l-66.8-1.1c-0.7-11.4-2.2-28.8,1.7-37l0.9-14l0.1-0.5v-0.2l0.2-2.6c-0.1,0-0.1,0-0.2,0
		c-1,0.1-5.3,0.2-10.9-2.4c-1.7-0.8-3.5-1.8-5.5-3.2c0,0,5.4-40.2,15.6-46.4l15.6-5.3l3.2-1.1l0.8-0.3c0.1,0.3,1.2,5.7,3.4,11.3
		c1.9,4.7,4.6,9.7,8.1,12.1c0.1-0.2,4.7-6.3,8.8-12.6c0.1-0.1,0.1-0.2,0.2-0.2c2.6-4.1,5-8.3,5.6-10.9v-0.1c0.1-0.2,0.1-0.3,0.1-0.5
		c0,0,0.8,0.6,2.1,1.4c1.5,0.9,3.7,1.9,6.2,2.4c0,0,15,3.5,16.5,16.5l2.8,43.5l-3.6,0.3l-12.6,1h-0.1L264.9,172.7z"/>
	<g class="st14">
		<g class="st14">
			<path class="st15" d="M271.4,190.2c-0.5,0.5-1.4,1.1-2.6,1.4c-2.8,0.7-12.9,2.8-15.1,7.7c-2.2,4.8-9.8,12.5-15.5,13
				c-5.6,0.5-10.6-8.2-10.6-8.2l15.9-11.7l-25.1-1.5c-0.6-0.8,2-9,2-9c-5.8,1.5-11.6-1.1-12.1-1.3h0.1l16.8-5.5l42.1,5
				c1,2.1,2.1,4.4,2.9,6.7C270.7,187.9,271.1,189.1,271.4,190.2z"/>
		</g>
	</g>
	<g class="st14">
		<g class="st14">
			<path class="st20" d="M209.5,148.5c0,0,8.9,4.8,20.1,2.6l-3.3,9.6c0,0-15.8,1.7-16.6-2l0.4-5.7L209.5,148.5z"/>
		</g>
	</g>
	<path class="st21" d="M211,220.6c-0.7,0-1.4,0-2.2-0.1c-0.2,0-0.3-0.2-0.3-0.4c0-0.2,0.2-0.3,0.4-0.3c4.3,0.3,6.9-0.2,8.1-1.5
		c1.4-1.5,1-4.1,0.5-7.4l-0.1-0.4c-0.9-5.8,1.3-20.1,1.7-22.7h-10.9c-0.2,0-0.3-0.2-0.3-0.3c0-0.2,0.2-0.3,0.3-0.3h11.8l-0.1,0.4
		c-0.1,0.2-2.7,16.7-1.8,22.9l0.1,0.4c0.5,3.5,1,6.2-0.7,8C216.2,220,214.2,220.6,211,220.6z"/>
	<path class="st21" d="M264.7,220.4c-1.6,0-3.4-0.1-5.4-0.4c-3.9-0.5-7.1-1.4-7.1-1.4c-0.9-0.2-1.5-1.5-1.8-4.1
		c-0.3-1.9-0.4-4.4-0.3-7.6c0.1-5.3,0.5-10.7,0.5-10.7c0-0.2,0.2-0.3,0.4-0.3c0.2,0,0.3,0.2,0.3,0.4c0,0.1-0.5,5.3-0.5,10.7
		c-0.1,3.1,0.1,5.6,0.3,7.5c0.4,2.9,1,3.4,1.3,3.5c0.1,0,6.4,1.7,12.4,1.7c2.4,0,4.7-0.3,6.5-1c0.2-0.1,0.4,0,0.4,0.2
		c0.1,0.2,0,0.4-0.2,0.4C269.8,220,267.5,220.4,264.7,220.4z"/>
	<path d="M272.7,136.2l-11.5,54.1c-0.2,0.8-0.9,1.3-1.7,1.3l-40.8-2.5c-0.8-0.1-1.3-0.7-1.1-1.4l12.8-54.2c0.2-0.8,0.9-1.3,1.7-1.3
		l18.8,1.3l1.4,0.1l19.2,1.3C272.3,134.8,272.8,135.4,272.7,136.2z"/>
	<path class="st6" d="M278.4,170.7c-0.2,5.1-2.3,15.5-16.4,20.5c0,0-10.4,4.2-15,11.6c0,0-4.7,7.7-8.5,7.7c0,0-4.9-0.1-5.3-2.7
		c0,0-1.9-0.5-2.4-2.2c0,0-2.1-0.2-2.7-1.6c0,0-2.8-0.2-1.6-2.3l1.6-0.6c0,0-3-0.5-1.4-2.4c0,0,4.9-5.5,8.3-5.8c0,0,5.1-0.3,7.3-2.5
		c0,0,16.9-14.9,22-17.2l0.5-1.8l0.7-2.5c0,0,6.1-0.8,12.6-1.1C278.3,167.7,278.5,168.9,278.4,170.7z"/>
	<path class="st6" d="M262.5,161.4c1.1,2-2.2,5.1-2.2,5.1c-4.8,8.4-17.5,6.7-17.5,6.7c-6.3-0.6-13.5,2.6-13.5,2.6
		c-9.4,4.6-19.2,4.9-19.2,4.9c-14.8-0.4-13.9-11.7-12.5-17.1c0.4-1.7,0.9-2.8,0.9-2.8c7.9,2.9,11.1,2.3,11.1,2.3v2.6v0.2
		c2.6-1.4,21.9-2.3,21.9-2.3c7.1-1.1,10.7-4.2,10.7-4.2c3.4-5,8.8-6.2,8.8-6.2c6.6-3,5.4,0.4,5.4,0.5l3.9-2.6c3-1.6,3.6,1,3.6,1
		c1.5,0.6-0.7,4.1-0.7,4.1C265.2,157.2,262.5,161.4,262.5,161.4z"/>
	<path class="st22" d="M261.7,61.6c-0.5,0.6-1.2,1.1-2.1,1.1l-10.2-17c0,0,0.6-0.7,1.7-1.2c0.3,0.1,0.6,0.2,0.9,0.2
		C252,44.7,259.5,46.2,261.7,61.6z"/>
	<path class="st17" d="M221.9,66.5c0,0-4.2-2.6-0.3-13.9c0,0,5.5-13.3,25.3-8.5c1.1,0.3,2.6,1.4,4.1,1.5c0,0,7.6,1.6,9.7,17.3
		c0,0,2.5,10.9-3.9,15h-0.8c0,0,2.2-20.1-12.1-22.4c-5.5-0.9-18.9-1.6-21.2,5.5C222.4,62.3,222.1,61,221.9,66.5z"/>
	<path class="st23" d="M218.7,145.4c-2,0-3.6-0.7-4.7-2.2c-1.6-2.1-2.1-5.7-1.6-10.6c0.4-3.6,1.3-6.7,1.3-6.7
		c0.1-0.2,0.2-0.3,0.4-0.2c0.2,0.1,0.3,0.3,0.2,0.4c-0.1,0.1-3.4,12,0.2,16.7c1,1.3,2.3,1.9,4.1,1.9h0.1c0.2,0,0.3,0.2,0.3,0.3
		C219.1,145.3,218.9,145.4,218.7,145.4C218.7,145.4,218.7,145.4,218.7,145.4z"/>
	<path class="st23" d="M224.2,145.8c-0.4,0-0.8-0.1-1.3-0.2c-0.2-0.1-0.3-0.2-0.3-0.4c0.1-0.2,0.2-0.3,0.4-0.3
		c1.5,0.3,2.6,0.1,3.5-0.8c3.9-4,0.4-18.6,0.4-18.8c-0.1-0.2,0.1-0.4,0.3-0.4c0.2-0.1,0.4,0.1,0.4,0.3c0,0.1,0.9,3.8,1.3,8.1
		c0.5,5.8-0.1,9.6-1.9,11.4C226.3,145.5,225.3,145.8,224.2,145.8z"/>
	<path class="st24" d="M227.5,126.7c-0.4,0-0.7-0.3-0.7-0.7c-0.1-3.8-1.2-6.6-3.3-8.1c-1.5-1.1-3-1.1-3-1.1c-4.8,0-5.9,8.7-5.9,8.7
		c-0.1,0.4-0.4,0.7-0.8,0.6c-0.4-0.1-0.7-0.4-0.6-0.8c0-0.1,0.3-2.4,1.3-4.8c1.4-3.3,3.5-5.1,6-5.1c0.1,0,2,0,3.8,1.4
		c1.1,0.8,2,1.9,2.6,3.2c0.8,1.6,1.2,3.6,1.2,6C228.2,126.4,227.9,126.7,227.5,126.7C227.5,126.7,227.6,126.7,227.5,126.7z"/>
	<path class="st25" d="M220.2,144.5c0,0-2.2-0.9-2.3,0.5c0,0-0.4,1.8,2.5,0.5C220.4,145.5,220.9,145.1,220.2,144.5z"/>
	<path class="st25" d="M220.9,144.8c0,0,2.1-1.1,2.3,0.2c0,0,0.6,1.7-2.4,0.8C220.8,145.8,220.3,145.4,220.9,144.8z"/>
	<path class="st26" d="M256.2,75.6c0,0,0.8-3.6,3.8-1.1c1.4,1.1,0.7,9.3-4.6,9.3L256.2,75.6z"/>
	<path class="st24" d="M233.1,100.9c-0.3,0.6-0.7,1.2-1.2,1.7c-2.2,0.7-4.1,1.7-5.6,3c-4.7,4.2-4.1,10.3-4.1,10.4
		c0.1,0.4-0.2,0.7-0.6,0.8c-0.4,0.1-0.7-0.2-0.8-0.6c0-0.1-0.2-1.7,0.3-4c0.6-3,2.1-5.6,4.3-7.6
		C227.3,102.9,229.9,101.6,233.1,100.9z"/>
	<path class="st24" d="M256.7,115.9c-0.7,4.4-2.1,10-4.3,17.6l-1.4-0.1c3.4-11.6,6.5-23.9,3.9-28.5c-0.5-0.9-1.4-1.5-2.4-1.7
		c-0.1,0-0.2-0.1-0.2-0.1c-0.4-0.4-0.9-0.9-1.2-1.7c0.5,0.1,1.1,0.2,1.7,0.4c1.4,0.3,2.6,1.1,3.3,2.4
		C257.3,106.5,257.6,110.3,256.7,115.9z"/>
	<path class="st12" d="M253.7,88.4c-5.8,14.3-19.5,10.2-19.5,10.2c-8.4-2.1-11.3-11.9-12.1-21.2c3.7,1.4,21.7,7.5,34.1-5
		C257.2,82.4,253.7,88.4,253.7,88.4z"/>
	<g class="st14">
		<g class="st14">
			<path class="st15" d="M238.1,86.3c-1.1,0-2.2-0.1-3.3-0.2c-4-0.4-7.1-1.5-7.1-1.5c-0.2-0.1-0.3-0.3-0.2-0.4
				c0.1-0.2,0.3-0.3,0.4-0.2c0.1,0,3.1,1,7,1.5c3.6,0.4,8.6,0.3,12.1-2.1c0.2-0.1,0.4-0.1,0.5,0.1c0.1,0.2,0.1,0.4-0.1,0.5
				c-1.7,1.1-3.8,1.9-6.2,2.2C240.2,86.2,239.2,86.3,238.1,86.3z"/>
		</g>
	</g>
	<g class="st14">
		<g class="st14">
			<path class="st15" d="M237.1,90.3c-0.8,0-1.5-0.1-2.1-0.1c-2.6-0.3-4.3-1-4.4-1c-0.2-0.1-0.3-0.3-0.2-0.4
				c0.1-0.2,0.3-0.3,0.4-0.2c0,0,1.7,0.7,4.2,1c2.3,0.3,5.8,0.2,9.2-1.5c0.2-0.1,0.4,0,0.5,0.2c0.1,0.2,0,0.4-0.2,0.5
				C241.9,89.9,239.3,90.3,237.1,90.3z"/>
		</g>
	</g>
	<g class="st14">
		<g class="st14">
			<path class="st15" d="M238.5,94c-1.7,0-3.2-0.3-3.3-0.3c-0.2-0.1-0.3-0.2-0.3-0.4c0.1-0.2,0.2-0.3,0.4-0.3c0.1,0,5.1,0.9,7.8-0.7
				c0.2-0.1,0.4-0.1,0.5,0.1c0.1,0.2,0.1,0.4-0.1,0.5C242,93.8,240.1,94,238.5,94z"/>
		</g>
	</g>
	<path class="st16" d="M249.9,157.9c-0.2,0-0.3-0.1-0.3-0.2c-0.1-0.2,0-0.4,0.2-0.4c1.4-0.5,5.3-2.2,6.1-3.4
		c0.1-0.2,0.3-0.2,0.5-0.1c0.2,0.1,0.2,0.3,0.1,0.5c-1.1,1.7-6.3,3.6-6.5,3.6C250,157.9,250,157.9,249.9,157.9z"/>
	<path class="st16" d="M255.7,159c-0.1,0-0.2-0.1-0.3-0.2c-0.1-0.2-0.1-0.4,0.1-0.5c0.1-0.1,5.4-3.1,8.3-6.4
		c0.1-0.2,0.3-0.2,0.5-0.1c0.2,0.1,0.2,0.3,0.1,0.5c-2.9,3.4-8.2,6.5-8.4,6.6C255.8,158.9,255.7,159,255.7,159z"/>
	<path class="st16" d="M257.2,162.2c-0.1,0-0.2-0.1-0.3-0.2c-0.1-0.2-0.1-0.4,0.1-0.5c1.5-1.1,5.4-4.1,6-5.4
		c0.1-0.2,0.3-0.2,0.5-0.2c0.2,0.1,0.2,0.3,0.2,0.4c-0.9,1.7-6,5.6-6.3,5.7C257.3,162.2,257.3,162.2,257.2,162.2z"/>
	<path class="st16" d="M256.4,166.3c-0.1,0-0.3-0.1-0.3-0.2c-0.1-0.2,0-0.4,0.2-0.4c0.1,0,4.9-2.4,6-4.5c0.1-0.2,0.3-0.2,0.5-0.2
		c0.2,0.1,0.2,0.3,0.2,0.5c-1.1,2.3-6.1,4.7-6.3,4.8C256.5,166.3,256.5,166.3,256.4,166.3z"/>
	<path class="st16" d="M206.7,167.8c-0.1,0-0.3-0.1-0.3-0.2c-0.1-0.2,0-0.4,0.2-0.5l2.9-1.5c0.2-0.1,0.4,0,0.5,0.2
		c0.1,0.2,0,0.4-0.2,0.5l-2.9,1.5C206.8,167.8,206.8,167.8,206.7,167.8z"/>
	<path class="st16" d="M228.2,201.4c-0.2,0-0.3-0.1-0.3-0.2c-0.1-0.2,0.1-0.4,0.2-0.4c0,0,2.7-1,6.2-3.7c0.2-0.1,0.4-0.1,0.5,0.1
		c0.1,0.2,0.1,0.4-0.1,0.5c-3.6,2.8-6.3,3.8-6.4,3.8C228.3,201.4,228.2,201.4,228.2,201.4z"/>
	<path class="st16" d="M228.1,204.3c-0.2,0-0.3-0.1-0.3-0.3c-0.1-0.2,0.1-0.4,0.3-0.4c1.3-0.2,4.8-1,5.7-2c0.1-0.1,0.3-0.1,0.5,0
		c0.1,0.1,0.1,0.3,0,0.5C233,203.5,228.4,204.3,228.1,204.3C228.1,204.3,228.1,204.3,228.1,204.3z"/>
	<path class="st16" d="M230.8,205.9c-0.2,0-0.3-0.2-0.3-0.3c0-0.2,0.1-0.4,0.3-0.4c2.3-0.2,6.3-0.7,6.9-1.5c0.1-0.2,0.3-0.2,0.5,0
		c0.2,0.1,0.2,0.3,0,0.5C237.1,205.4,231.4,205.8,230.8,205.9z"/>
	<path class="st16" d="M234.5,208.1c-0.8,0-1.3-0.1-1.4-0.1c-0.2-0.1-0.3-0.2-0.3-0.4c0.1-0.2,0.2-0.3,0.4-0.3
		c0.1,0,3.6,0.5,6.9-1.5c0.2-0.1,0.4-0.1,0.5,0.1c0.1,0.2,0.1,0.4-0.1,0.5C238.3,207.8,235.9,208.1,234.5,208.1z"/>
	<path class="st16" d="M257,82.1c-0.1,0-0.3,0-0.4-0.1c-0.2-0.1-0.3-0.2-0.3-0.4c0.1-0.2,0.2-0.3,0.4-0.3c0.4,0.1,0.8,0,1.1-0.3
		c1-0.9,1.1-3.4,1.1-4.4c-0.1-0.5-0.2-0.9-0.4-1c-0.2-0.1-0.4,0-0.4,0c-0.2,0.1-0.4,0-0.5-0.2c-0.1-0.2,0-0.4,0.2-0.5
		c0.2-0.1,0.7-0.2,1.1,0c0.4,0.2,0.7,0.8,0.8,1.6c0,0.2,0.1,3.6-1.4,4.9C257.9,81.9,257.5,82.1,257,82.1z"/>
	<path class="st9" d="M209.6,165.7c-3,0.6-9-1.1-12-2.1c0.4-1.7,0.9-2.8,0.9-2.8c7.9,2.9,11.1,2.3,11.1,2.3L209.6,165.7z"/>
	<path class="st9" d="M278.4,170.7c-4.3,0.7-13.4,0.7-13.4,0.7l0.7-2.5c0,0,6.1-0.8,12.6-1.1C278.3,167.7,278.5,168.9,278.4,170.7z"
		/>
	<path class="st27" d="M209.6,165.9c-0.2,0-0.4-0.2-0.3-0.4l0.5-11.6c-1.6-5.8-1.5-11.6-1.1-15.5c0.4-4.2,1.1-7.1,1.1-7.1
		c0.1-0.2,0.2-0.3,0.4-0.3c0.2,0.1,0.3,0.2,0.3,0.4c0,0.1-0.8,2.9-1.1,7c-0.3,3.8-0.4,9.6,1.1,15.4v0.1l-0.5,11.7
		C209.9,165.8,209.8,165.9,209.6,165.9z"/>
	<g>
		<g>
			<path class="st28" d="M159.9,158.6c-0.5-0.6-1.2-1.2-2.6-0.7c-1.4,0.5-2.8,1.2-3.2,1.8c-0.5,0.6-0.3,1.3-0.3,1.6
				c0,0.3-0.6,0.8-0.4,1.4c0.2,0.8,0.1,1.2,0.3,1.4c1.2,1.6,1.8,1.9,3,2c1.2,0.1,2.5,0.1,3.4-0.3c0.9-0.4,2.2-1.7,2.3-2.2
				c0.1-0.5,0-1.9-0.4-2.7C161.3,160.2,160.5,159.2,159.9,158.6z"/>
			<path class="st29" d="M155.5,164.8c-0.2-0.1-0.4-0.2-0.6-0.3c-0.5-0.4-0.3-0.8-0.2-1.3c0.3-0.9-0.8-1.4-0.3-2.2
				c0.4-0.6,1.2-1.4,1.7-1.9c0.5-0.5,1.3-0.8,1.9-0.7c1.4,0.1,0.8,1.3,1.6,1.9c0.4,0.3,1.1,0.3,1.4,0.6c0.8,0.8-0.4,1.6-0.5,2.5
				c0,0.5,0.2,0.9-0.3,1.2c-0.4,0.2-0.9,0.1-1.4,0.3c-0.3,0.3-0.6,0.7-0.9,0.8c-0.6,0.3-1,0.1-1.4-0.4c-0.3-0.3-0.3-0.7-0.6-0.9
				c-0.3-0.3-0.7-0.6-0.8-0.9s0.1-0.7,0-0.9c0-0.3-0.3-0.7-0.3-0.9c0-0.5,1.7-1.4,2.2-1.4c0.5,0.1,0.5,0.6,0.8,0.9
				c0.3,0.3,0.7,0.3,1,0.5c0,0.5-0.1,0.8-0.3,1.4c0,0-0.4,0.6-0.6,0.8c-0.5,0.3-0.8,0.1-1.3-0.1c-0.3-0.2-0.8-0.3-0.9-0.6
				c-0.4-1.1,1.5-1.4,1.3-0.6c0.8-0.2,1.1,0.5,0.3,0.7c-0.3,0.1-0.9,0-1.1-0.2c-0.3-0.3,0.1-0.6,0.3-0.8"/>
			<path class="st9" d="M160.5,86.8c0-0.3-5.9-1.6-4.1-1.7l-12.5,0.2c-0.3,0-3.6,0.4-3.6,0.8c-0.3,3.6,1.6,12.9-3.1,15.2
				c-9.1,23,40.9,18.1,27.9-0.3C162.2,99.5,159.4,95.6,160.5,86.8z"/>
			<path class="st9" d="M166.4,65.7c-0.8-0.1-1.7,2.2-2.1,5.3c-0.4,3-0.2,5.5,0.6,5.7c0.8,0.1,1.7-2.2,2.1-5.3
				C167.4,68.3,167.1,65.8,166.4,65.7z"/>
			<path class="st9" d="M132.9,65.8c-0.8,0.1-1,2.6-0.6,5.7c0.4,3,1.4,5.3,2.1,5.3c0.8-0.1,1-2.6,0.6-5.7
				C134.6,68.1,133.7,65.7,132.9,65.8z"/>
			<g class="st30">
				<g class="st30">
					<g class="st30">
						<path class="st31" d="M156.4,85.3l-12.5,0.2c-0.3,0-3.6,0.4-3.6,0.8c-0.1,0.6,0,0.1,0,0.9c3.6,4.7,8,6.9,11.4,6.9
							c2.4,0,5.8-1.2,8.6-4.9c0-0.7,0.1-1.4,0.2-2.1C160.5,86.6,154.6,85.3,156.4,85.3z"/>
					</g>
				</g>
			</g>
			<path class="st9" d="M147.9,44.5c-8.9,0.1-15.4,5.9-13.9,23.3c1.8,20.6,11.1,24.8,17.4,24.8c5,0,14.8-6.8,13.8-27.1
				C164.1,44.6,162.1,44.4,147.9,44.5z"/>
			<path class="st7" d="M155.7,43.7c-6.5-0.3-10.8-0.3-14.5,1.4c-3.7,1.8-6.1,5-7.4,7.2c-2.3,4.2-2.2,10.3-2,13
				c0.2,2.7,1.2,1.4,1.4,3.1c0.3,1.6,0.1,1.4,0.5,2.3c0.9,2,0.6-0.5,0.6-3.3c0-4.1,0-9.4,3.9-12.7c3.9-3.4,4.5-2.3,8.6-2.9
				c4.2-0.6,5.6-0.3,8.6,0.9c3,1.3,5.8,1.7,7.4,4.7c1.6,3.1,1.6,5.3,1.5,8.6c-0.1,3.4-0.6,5,0.3,4c1-1.2,0.2-4,1.9-4
				c0.4,0,1,0,1-1.4c0-3.3,0.5-8.3-1.1-11.5C165,49.9,162.1,44,155.7,43.7z"/>
			<path class="st7" d="M155.7,43.4c-1.6-0.1-3.6-0.2-5.2-0.2c-4.1,0-6.9,0.5-9.3,1.6c-4.1,1.9-6.4,5.4-7.4,7.4
				c-2.3,4.2-2.3,10-2,13.1c0.1,1.5,0.4,1.9,0.9,2.1c0.3,0.2,0.4,0.3,0.5,1c0.1,0.3,0.1,0.6,0.1,0.8c0.1,0.8,0.1,0.8,0.4,1.5
				c0.3,0.7,0.4,0.8,0.7,0.8c0.1,0,0.2,0,0.3-0.1c0.2-0.2,0.2-0.8,0.2-2.5c0-0.5,0-1.1,0-1.7c0-3.9,0-9.2,3.8-12.5
				c2.9-2.5,3.9-2.5,5.9-2.6c0.8,0,1.5-0.1,2.6-0.3c1.4-0.2,2.5-0.3,3.4-0.3c1.9,0,3.1,0.4,5.2,1.3c0.6,0.3,1.3,0.5,1.9,0.7
				c2.3,0.8,4.2,1.6,5.5,4c1.6,3.1,1.6,5.1,1.5,8.6c0,1.1-0.1,1.9-0.2,2.6c-0.1,1.2-0.1,1.6,0.1,1.8c0.1,0.1,0.2,0.1,0.3,0.1
				c0.2,0,0.3-0.1,0.6-0.4c0.4-0.5,0.6-1.4,0.7-2.1c0.2-1.1,0.3-1.8,1-1.8c0.6,0,1.2-0.2,1.2-1.6c0-0.6,0-1.3,0-2
				c0.1-3.1,0.2-7-1.2-9.8C165.2,49.8,162.3,43.8,155.7,43.4z M167.5,62.8c0,0.7,0,1.4,0,2c0,1.2-0.4,1.2-0.8,1.2
				c-1.2,0-1.4,1.2-1.4,2.2c-0.1,0.7-0.2,1.4-0.6,1.9c-0.1,0.1-0.1,0.1-0.1,0.2c0-0.3,0-0.8,0.1-1.3c0.1-0.7,0.2-1.6,0.2-2.6
				c0.1-3.4,0.1-5.6-1.5-8.7c-1.4-2.5-3.4-3.3-5.8-4.2c-0.6-0.3-1.2-0.4-1.8-0.7c-2-0.8-3.4-1.3-5.3-1.3c-0.9,0-1.9,0.1-3.5,0.3
				c-1,0.2-1.9,0.2-2.5,0.3c-2.3-0.1-3.4-0.1-6.3,2.5c-4,3.5-4,8.9-4,12.9c0,0.6,0,1.2,0,1.7c0,0.7,0,1.4,0,1.9
				c-0.1-0.1-0.1-0.3-0.2-0.4c-0.3-0.7-0.3-0.7-0.4-1.4c0-0.2-0.1-0.5-0.1-0.8c-0.2-0.8-0.4-1.1-0.8-1.3c-0.3-0.2-0.6-0.4-0.7-1.8
				c-0.2-2.5-0.3-8.6,1.9-12.8c1-1.9,3.3-5.3,7.3-7.1c2.4-1.1,5-1.5,9.1-1.5c1.8,0,3.6,0.1,5.2,0.2c6.3,0.3,9.2,6.2,10.8,9.4
				C167.7,55.9,167.6,59.7,167.5,62.8z"/>
			<path class="st18" d="M132.8,67.4c0-0.2-0.1-0.2-0.1-0.2S132.7,67.2,132.8,67.4z"/>
			<path class="st32" d="M164.1,99.1c0.1,10.9-23.3,14.8-26.3,0.5c-0.3,0.1-0.6,0.3-0.9,0.3c-16.9,38.6,48.3,32.4,28.9-0.2
				C165.2,99.6,164.7,99.4,164.1,99.1z"/>
			<path class="st33" d="M192,215.9c-0.5-3.8-0.3-10.9-2.4-20.3c-3.4-15.5-5.3-47.1-2.3-54.7c4.2-10.5,2-23.5,5.3-26.6
				c-1.9-4.7-8.7-8.4-11.2-9.2c-8.5-2.5-10.1-3.1-19-6.9c1.3,3.7-4.1,14.7-9.9,24.2c-6.8-8.9-14.7-20.3-13.5-23.6
				c-9.6,4.4-15.2,6.1-26.3,13.1c-3.8,2.4-5.2,8.1-5.8,9.3c3.5,3.3,8.1,12,13.4,22c3,5.8,4.1,30.8-1.9,57.3
				c-1.4,6.6-1.4,13.1-1.4,17.2h74.9C192.2,217.1,192.1,216.6,192,215.9z"/>
			<path class="st34" d="M168.2,100.6c-0.1-0.1-0.2,0-0.3,0c-0.1,0.1,0,0.2,0,0.3c0.2,0.1,0.3,0.3,0.4,0.3l0.1,0.1
				c0,0,0.1,0,0.1-0.1c0.1-0.1,0.1-0.2,0-0.3C168.6,100.7,168.4,100.7,168.2,100.6z"/>
			<path class="st34" d="M158.3,129.3c-0.1-0.1-0.2,0-0.3,0c-0.3,0.3-0.4,0.6-0.7,0.8c-0.1,0.1-0.1,0.2,0,0.3h0.1c0,0,0.1,0,0.1-0.1
				c0.3-0.3,0.4-0.5,0.7-0.8C158.4,129.4,158.4,129.3,158.3,129.3z"/>
			<path class="st34" d="M162.9,122.5c-0.1,0-0.2,0-0.2,0.1c-0.2,0.3-0.3,0.6-0.5,0.9c-0.1,0.1,0,0.2,0.1,0.2h0.1
				c0.1,0,0.1,0,0.1-0.1c0.2-0.3,0.3-0.6,0.5-0.9C163,122.7,163,122.6,162.9,122.5z"/>
			<path class="st34" d="M159.6,127.6c-0.1-0.1-0.2,0-0.3,0c-0.2,0.3-0.4,0.6-0.6,0.8c-0.1,0.1,0,0.2,0,0.3h0.1c0.1,0,0.1,0,0.1-0.1
				c0.2-0.3,0.4-0.6,0.6-0.8C159.7,127.8,159.7,127.7,159.6,127.6z"/>
			<path class="st34" d="M161.9,124.3c-0.1-0.1-0.2,0-0.2,0.1c-0.2,0.3-0.4,0.6-0.6,0.8c-0.1,0.1,0,0.2,0.1,0.2h0.1
				c0.1,0,0.1,0,0.1-0.1C161.5,125.1,161.8,124.7,161.9,124.3L161.9,124.3z"/>
			<path class="st34" d="M160.7,126c-0.1-0.1-0.2,0-0.3,0c-0.2,0.3-0.4,0.6-0.6,0.8c-0.1,0.1,0,0.2,0,0.3h0.1c0.1,0,0.1,0,0.1-0.1
				c0.2-0.3,0.4-0.6,0.6-0.8C160.8,126.1,160.8,126,160.7,126z"/>
			<path class="st34" d="M156.9,130.8c-0.3,0.3-0.5,0.5-0.7,0.8c-0.1,0.1-0.1,0.2,0,0.3h0.1c0,0,0.1,0,0.1-0.1
				c0.3-0.3,0.4-0.5,0.7-0.8c0.1-0.1,0.1-0.2,0-0.3C157,130.8,156.9,130.8,156.9,130.8z"/>
			<path class="st34" d="M169.2,101.8c0-0.1-0.2-0.1-0.2-0.1c-0.1,0-0.1,0.2-0.1,0.2c0.2,0.3,0.3,0.6,0.3,0.9c0,0.1,0.1,0.1,0.2,0.1
				c0.1,0,0.2-0.1,0.1-0.2C169.5,102.3,169.4,102,169.2,101.8z"/>
			<path class="st34" d="M155.5,132.4c-0.3,0.3-0.5,0.5-0.8,0.8c-0.1,0.1-0.1,0.2,0,0.3l0.1,0.1h0.1c0.3-0.3,0.5-0.5,0.8-0.8
				c0.1-0.1,0.1-0.2,0-0.3C155.7,132.3,155.6,132.3,155.5,132.4z"/>
			<path class="st34" d="M169.6,105.7c-0.1,0-0.2,0.1-0.2,0.2c0,0.3-0.1,0.7-0.2,1c0,0.1,0.1,0.2,0.1,0.2c0.1,0,0.2-0.1,0.2-0.2
				c0.1-0.3,0.1-0.7,0.2-1C169.7,105.7,169.7,105.7,169.6,105.7z"/>
			<path class="st34" d="M169.7,103.7c0-0.1-0.1-0.2-0.2-0.2c-0.1,0.1-0.1,0.2-0.1,0.3c0,0.1,0,0.2,0,0.3c0,0.3,0,0.5,0,0.8
				c0,0.1,0.1,0.2,0.2,0.2c0.1,0,0.2-0.1,0.2-0.2c0-0.3,0-0.6,0-0.8C169.7,104,169.7,103.8,169.7,103.7z"/>
			<path class="st34" d="M163.9,120.7c-0.1,0-0.2,0-0.2,0.1c-0.2,0.3-0.3,0.6-0.5,0.9c0,0.1,0,0.2,0.1,0.2h0.1c0.1,0,0.1,0,0.1-0.1
				c0.2-0.3,0.3-0.6,0.5-0.9C164,120.9,164,120.8,163.9,120.7z"/>
			<path class="st34" d="M169.2,107.6c-0.1,0-0.2,0-0.2,0.1c-0.1,0.3-0.2,0.7-0.3,1c0,0.1,0,0.2,0.1,0.2c0,0,0,0,0.1,0
				c0.1,0,0.1-0.1,0.2-0.1c0.1-0.3,0.2-0.7,0.3-1C169.4,107.8,169.3,107.7,169.2,107.6z"/>
			<path class="st34" d="M168.1,111.6c-0.1,0-0.2,0-0.2,0.1c-0.1,0.3-0.3,0.7-0.3,1c0,0.1,0,0.2,0.1,0.2c0,0,0,0,0.1,0
				c0.1,0,0.1,0,0.2-0.1c0.2-0.3,0.3-0.7,0.3-1C168.3,111.7,168.2,111.6,168.1,111.6z"/>
			<path class="st34" d="M168.8,109.6c-0.1,0-0.2,0-0.2,0.1c-0.1,0.3-0.2,0.7-0.3,1c0,0.1,0,0.2,0.1,0.2c0,0,0,0,0.1,0
				c0.1,0,0.1-0.1,0.2-0.1c0.1-0.3,0.3-0.7,0.3-1C168.9,109.7,168.9,109.6,168.8,109.6z"/>
			<path class="st34" d="M164.8,119c-0.1,0-0.2,0-0.2,0.1c-0.2,0.3-0.3,0.6-0.5,0.9c0,0.1,0,0.2,0.1,0.2h0.1c0.1,0,0.1,0,0.1-0.1
				c0.2-0.3,0.3-0.6,0.5-0.9C165,119.1,164.9,119,164.8,119z"/>
			<path class="st34" d="M165.8,117.2c-0.1,0-0.2,0-0.2,0.1c-0.2,0.3-0.3,0.6-0.5,0.9c0,0.1,0,0.2,0.1,0.2h0.1c0.1,0,0.1,0,0.2-0.1
				c0.2-0.3,0.3-0.7,0.5-0.9C165.8,117.3,165.8,117.2,165.8,117.2z"/>
			<path class="st34" d="M167.4,113.5c-0.1,0-0.2,0-0.2,0.1c-0.2,0.3-0.3,0.7-0.4,0.9c0,0.1,0,0.2,0.1,0.2h0.1c0.1,0,0.1,0,0.2-0.1
				c0.2-0.3,0.3-0.7,0.4-1C167.5,113.5,167.5,113.5,167.4,113.5z"/>
			<path class="st34" d="M166.6,115.3c-0.1,0-0.2,0-0.2,0.1c-0.2,0.3-0.3,0.7-0.4,0.9c0,0.1,0,0.2,0.1,0.2h0.1c0.1,0,0.1,0,0.2-0.1
				c0.2-0.3,0.3-0.7,0.4-0.9C166.8,115.5,166.7,115.3,166.6,115.3z"/>
			<path class="st34" d="M154.1,133.7c-0.2,0.1-0.3,0.3-0.4,0.3c-0.1,0.1-0.1,0.2,0,0.3c0,0,0.1,0.1,0.2,0.1h0.1
				c0.2-0.1,0.3-0.3,0.4-0.3c0.1-0.1,0.1-0.2,0-0.3C154.2,133.7,154.2,133.7,154.1,133.7z"/>
			<path class="st34" d="M135.1,101.7c-0.2,0.1-0.3,0.3-0.4,0.4c-0.1,0.1,0,0.2,0,0.3h0.1c0.1,0,0.1,0,0.1-0.1
				c0.1-0.2,0.3-0.3,0.3-0.3C135.3,101.8,135.3,101.8,135.1,101.7C135.3,101.6,135.2,101.6,135.1,101.7z"/>
			<path class="st34" d="M135.8,110.9c0-0.1-0.1-0.1-0.2-0.1c-0.1,0-0.1,0.1-0.1,0.2c0.2,0.3,0.3,0.7,0.4,1c0,0.1,0.1,0.1,0.2,0.1
				c0,0,0,0,0.1,0c0.1,0,0.1-0.1,0.1-0.2C136,111.5,135.9,111.2,135.8,110.9z"/>
			<path class="st34" d="M137.6,114.6c0-0.1-0.2-0.1-0.2-0.1c-0.1,0-0.1,0.2-0.1,0.2c0.2,0.3,0.3,0.6,0.5,0.9c0,0.1,0.1,0.1,0.2,0.1
				h0.1c0.1,0,0.1-0.2,0.1-0.2C137.9,115.1,137.7,114.9,137.6,114.6z"/>
			<path class="st34" d="M136.6,112.8c0-0.1-0.2-0.1-0.2-0.1c-0.1,0-0.1,0.2-0.1,0.2c0.2,0.3,0.3,0.6,0.5,0.9c0,0.1,0.1,0.1,0.2,0.1
				c0,0,0,0,0.1,0c0.1,0,0.1-0.2,0.1-0.2C136.9,113.4,136.8,113,136.6,112.8z"/>
			<path class="st34" d="M138.5,116.3c0-0.1-0.2-0.1-0.2-0.1c-0.1,0-0.1,0.2-0.1,0.2c0.2,0.3,0.3,0.6,0.5,0.9c0,0.1,0.1,0.1,0.2,0.1
				h0.1c0.1-0.1,0.1-0.2,0.1-0.2C138.9,116.9,138.8,116.7,138.5,116.3z"/>
			<path class="st34" d="M134.4,102.9c-0.1,0-0.2,0-0.2,0.1c-0.1,0.3-0.2,0.7-0.3,1.1c0,0.1,0.1,0.2,0.2,0.2c0.1,0,0.2-0.1,0.2-0.2
				c0.1-0.3,0.1-0.7,0.3-1C134.6,103,134.5,102.9,134.4,102.9z"/>
			<path class="st34" d="M134.3,105.3c0-0.1,0-0.2,0-0.3c0-0.1-0.1-0.2-0.2-0.2c-0.1,0-0.2,0.1-0.2,0.2c0,0.1,0,0.2,0,0.3
				c0,0.3,0,0.5,0.1,0.8c0,0.1,0.1,0.2,0.2,0.2c0.1,0,0.2-0.1,0.2-0.2C134.4,105.8,134.3,105.6,134.3,105.3z"/>
			<path class="st34" d="M134.5,107c0-0.1-0.1-0.2-0.2-0.1c-0.1,0-0.2,0.1-0.1,0.2c0.1,0.3,0.2,0.7,0.3,1c0,0.1,0.1,0.1,0.2,0.1
				c0.1,0,0.2-0.1,0.1-0.2C134.7,107.7,134.6,107.3,134.5,107z"/>
			<path class="st34" d="M135,109c0-0.1-0.1-0.1-0.2-0.1c-0.1,0-0.1,0.1-0.1,0.2c0.1,0.3,0.3,0.7,0.3,1c0,0.1,0.1,0.1,0.2,0.1
				c0,0,0,0,0.1,0c0.1,0,0.1-0.1,0.1-0.2C135.3,109.6,135.2,109.3,135,109z"/>
			<path class="st34" d="M148.3,129.4c-0.1-0.1-0.2-0.1-0.3,0c-0.1,0.1-0.1,0.2,0,0.3c0.3,0.3,0.5,0.5,0.8,0.8l0.1,0.1
				c0,0,0.1,0,0.1-0.1c0.1-0.1,0.1-0.2,0-0.3C148.8,129.9,148.6,129.6,148.3,129.4z"/>
			<path class="st34" d="M146.9,127.9c-0.1-0.1-0.2-0.1-0.3,0c-0.1,0.1-0.1,0.2,0,0.3c0.3,0.3,0.5,0.5,0.8,0.8l0.1,0.1h0.1
				c0.1-0.1,0.1-0.2,0-0.3C147.4,128.4,147.1,128.1,146.9,127.9z"/>
			<path class="st34" d="M139.6,118.1c-0.1-0.1-0.2-0.1-0.2-0.1c-0.1,0.1-0.1,0.2-0.1,0.2c0.2,0.3,0.3,0.6,0.6,0.9
				c0,0.1,0.1,0.1,0.2,0.1h0.1c0.1-0.1,0.1-0.2,0.1-0.2C139.9,118.7,139.8,118.4,139.6,118.1z"/>
			<path class="st34" d="M152.1,132.8c-0.3-0.2-0.5-0.4-0.8-0.7c-0.1-0.1-0.2-0.1-0.3,0c-0.1,0.1-0.1,0.2,0,0.3
				c0.3,0.3,0.6,0.4,0.8,0.7h0.1c0.1,0,0.1,0,0.1-0.1C152.1,133,152.1,132.9,152.1,132.8z"/>
			<path class="st34" d="M145.6,126.3c-0.1-0.1-0.2-0.1-0.3,0c-0.1,0.1-0.1,0.2,0,0.3c0.3,0.3,0.4,0.5,0.7,0.8l0.1,0.1h0.1
				c0.1-0.1,0.1-0.2,0-0.3C146,126.8,145.8,126.6,145.6,126.3z"/>
			<path class="st34" d="M149.8,130.7c-0.1-0.1-0.2-0.1-0.3,0c-0.1,0.1-0.1,0.2,0,0.3c0.3,0.3,0.5,0.5,0.8,0.8h0.1
				c0,0,0.1,0,0.1-0.1c0.1-0.1,0.1-0.2,0-0.3C150.3,131.3,150,131,149.8,130.7z"/>
			<path class="st34" d="M140.7,119.8c-0.1-0.1-0.2-0.1-0.2,0c-0.1,0.1-0.1,0.2,0,0.2c0.2,0.3,0.4,0.6,0.6,0.8
				c0,0.1,0.1,0.1,0.2,0.1h0.1c0.1-0.1,0.1-0.2,0-0.3C141.1,120.4,140.9,120.1,140.7,119.8z"/>
			<path class="st34" d="M141.9,121.5c-0.1-0.1-0.2-0.1-0.3,0c-0.1,0.1-0.1,0.2,0,0.3c0.2,0.3,0.4,0.6,0.6,0.8
				c0,0.1,0.1,0.1,0.2,0.1h0.1c0.1-0.1,0.1-0.2,0-0.3C142.2,122,142.1,121.8,141.9,121.5z"/>
			<path class="st34" d="M143.1,123.1c-0.1-0.1-0.2-0.1-0.3,0c-0.1,0.1-0.1,0.2,0,0.3c0.3,0.3,0.4,0.6,0.7,0.8c0,0,0.1,0.1,0.2,0.1
				h0.1c0.1-0.1,0.1-0.2,0-0.3C143.5,123.7,143.2,123.4,143.1,123.1z"/>
			<path class="st34" d="M144.3,124.7c-0.1-0.1-0.2-0.1-0.3,0c-0.1,0.1-0.1,0.2,0,0.3c0.3,0.3,0.4,0.6,0.7,0.8l0.1,0.1h0.1
				c0.1-0.1,0.1-0.2,0-0.3C144.8,125.3,144.5,125,144.3,124.7z"/>
			<path class="st34" d="M153.3,133.6c-0.2-0.1-0.3-0.2-0.4-0.3c-0.1-0.1-0.2,0-0.2,0c-0.1,0.1,0,0.2,0,0.2c0.2,0.1,0.3,0.2,0.4,0.3
				h0.1c0.1,0,0.1,0,0.1-0.1C153.4,133.8,153.4,133.7,153.3,133.6z"/>
			<g class="st35">
				<g class="st35">
					<g class="st35">
						<path class="st36" d="M137,133.3c0-0.2-0.2-0.3-0.3-0.2l-15.6,2c-0.2,0-0.3,0.2-0.3,0.3l1.3,9.5c0,0.2,0.2,0.3,0.3,0.2l15.6-2
							c0.2,0,0.3-0.2,0.3-0.3L137,133.3z"/>
					</g>
				</g>
			</g>
			<path class="st18" d="M136.2,132.5c0-0.1-0.1-0.2-0.2-0.2l-15.8,1.9c-0.1,0-0.2,0.1-0.2,0.2l1.2,9.7c0,0.1,0.1,0.2,0.2,0.2
				l15.8-1.9c0.1,0,0.2-0.1,0.2-0.2L136.2,132.5z M130.2,133.8l-4.1,0.5c-0.1,0-0.2-0.1-0.2-0.2v-0.1c0-0.1,0.1-0.2,0.2-0.2l4.1-0.5
				c0.1,0,0.2,0.1,0.2,0.2v0.1C130.4,133.7,130.3,133.8,130.2,133.8z"/>
			<path class="st37" d="M135.7,133.9c0-0.1-0.1-0.2-0.2-0.2l-8,0.9c-0.1,0-0.2,0.1-0.2,0.2l0.2,1.1c0,0.1,0.1,0.2,0.2,0.2l8-0.9
				c0.1,0,0.2-0.1,0.2-0.2L135.7,133.9z"/>
			<path class="st38" d="M135.7,133.9c0-0.1-0.1-0.2-0.2-0.2l-8,0.9c-0.1,0-0.2,0.1-0.2,0.2l0.2,1.1c0,0.1,0.1,0.2,0.2,0.2l8-0.9
				c0.1,0,0.2-0.1,0.2-0.2L135.7,133.9z"/>
			<path class="st39" d="M136,136.2c0-0.1-0.1-0.2-0.2-0.2l-8,0.9c-0.1,0-0.2,0.1-0.2,0.2l0.3,3.1c0,0.1,0.1,0.2,0.2,0.2l8-0.9
				c0.1,0,0.2-0.1,0.2-0.2L136,136.2z"/>
			<path class="st40" d="M136.5,140.2c0-0.1-0.1-0.2-0.2-0.2l-14.2,1.7c-0.1,0-0.2,0.1-0.2,0.2l0.2,1.7c0,0.1,0.1,0.2,0.2,0.2
				l14.2-1.7c0.1,0,0.2-0.1,0.2-0.2L136.5,140.2z"/>
			<path class="st41" d="M128.7,131.2c0-0.1-0.1-0.2-0.2-0.2l-1,0.1c-0.1,0-0.2,0.1-0.2,0.2l0.2,1.4c0,0.1,0.1,0.2,0.2,0.2h0.1
				l0.1,0.9c0,0.1,0.1,0.2,0.2,0.2l0.4-0.1c0.1,0,0.2-0.1,0.2-0.2l-0.1-0.9h0.2c0.1,0,0.2-0.1,0.2-0.2L128.7,131.2z"/>
			<path class="st37" d="M123.6,134.6c-1.8,0.3-3,2-2.8,3.7c0.3,1.8,1.9,3.1,3.7,2.8c1.8-0.3,3-1.9,2.8-3.7
				C127.1,135.6,125.4,134.3,123.6,134.6z"/>
			<path class="st24" d="M123.2,136.1c-0.3,0-0.4-0.1-0.4-0.3c0-0.3,0.2-0.6,0.4-0.6c-0.2,0-0.3,0.1-0.3,0.3
				c-0.1,0.1-0.1,0.3-0.1,0.4c0,0.1,0.1,0.2,0.2,0.3C122.9,136.1,123,136.2,123.2,136.1C123.2,136.2,123.2,136.2,123.2,136.1
				C123.2,136.2,123.2,136.2,123.2,136.1z"/>
			<path class="st24" d="M123.3,136.2c-0.3,0-0.4-0.1-0.4-0.3c-0.1-0.3,0.1-0.6,0.3-0.7c-0.1,0.1-0.2,0.2-0.3,0.3
				c-0.1,0.2-0.1,0.3-0.1,0.4c0,0.1,0.1,0.2,0.2,0.3C123,136.2,123.2,136.2,123.3,136.2z"/>
			<path class="st24" d="M124.3,135.2c-0.2-0.1-0.3-0.2-0.5-0.1C123.9,135,124.1,135.1,124.3,135.2c0.2,0.2,0.2,0.3,0.2,0.5
				c0,0.2-0.2,0.3-0.3,0.3c0.2-0.1,0.3-0.2,0.3-0.3C124.5,135.5,124.4,135.2,124.3,135.2z"/>
			<path class="st24" d="M124.1,135c-0.2-0.1-0.3,0-0.3,0.1C123.9,134.9,124,135,124.1,135c0.2,0.1,0.3,0.4,0.3,0.7
				c0,0.1-0.1,0.3-0.3,0.3c0.2-0.1,0.3-0.2,0.3-0.3C124.5,135.3,124.3,135.1,124.1,135z"/>
			<path class="st42" d="M124.8,138.5c0,0-0.4-0.1-0.3-0.1l-0.8,0.2l-0.3,0.1c0,0.3,0.3,0.8-0.1,1c-0.3,1.6,2.9,0.8,1.9-0.3
				C125,139.4,124.8,139.1,124.8,138.5z"/>
			<path class="st43" d="M126.2,139.7c-0.6-0.1-0.5-0.1-1.2-0.3c0.3,1-1.4,1.4-1.7,0.3c-0.4,0.3-0.7,0.4-1.2,0.8
				c0.7,0.5,1.5,0.7,2.4,0.6c0.8-0.1,1.5-0.5,2-1.1C126.5,139.8,126.4,139.7,126.2,139.7z"/>
			<path class="st42" d="M125,137.1c-0.1,0-0.1,0.2-0.1,0.3c0,0.2,0.1,0.3,0.1,0.3c0.1,0,0.1-0.2,0.1-0.3
				C125,137.3,125,137.1,125,137.1z"/>
			<path class="st42" d="M122.7,137.4c-0.1,0,0,0.2,0,0.3c0.1,0.2,0.2,0.3,0.2,0.3c0.1,0,0-0.2,0-0.3
				C122.8,137.6,122.8,137.4,122.7,137.4z"/>
			<path class="st44" d="M123.5,135.9c-0.6,0.1-0.9,0.5-0.8,1.7c0.2,1.4,1,1.5,1.4,1.4c0.3-0.1,0.9-0.6,0.7-1.9
				C124.5,135.8,124.4,135.8,123.5,135.9z"/>
			<path class="st24" d="M124.3,137.4L124.3,137.4C124.1,137.5,124.2,137.4,124.3,137.4c0.2,0,0.3-0.1,0.3,0
				C124.5,137.3,124.4,137.4,124.3,137.4z"/>
			<path class="st24" d="M123.3,137.5c-0.1,0-0.2,0.1-0.2,0.1s0.3-0.2,0.5,0C123.4,137.5,123.3,137.5,123.3,137.5z"/>
			<path class="st24" d="M123.2,137.3C123.1,137.3,123.1,137.3,123.2,137.3C123.1,137.4,123.1,137.4,123.2,137.3
				c-0.1,0.1,0,0,0.2-0.1c0.1,0,0.3,0,0.3,0.1C123.4,137.1,123.3,137.2,123.2,137.3z"/>
			<path class="st24" d="M124,137.3c0.1-0.2,0.3-0.3,0.6-0.2C124.4,136.9,124.1,137.1,124,137.3z"/>
			<path class="st24" d="M124,138.1c0,0-0.1,0.1-0.2,0C123.9,138.1,123.9,138.1,124,138.1C124.1,138.1,124,138.1,124,138.1
				C124.1,138.1,124.1,138.1,124,138.1C124.1,138.1,124.1,138.1,124,138.1z"/>
			<path class="st18" d="M123.6,138.4c0.1,0.2,0.3,0.3,0.4,0.2c0.3,0,0.3-0.2,0.4-0.3c-0.3,0-0.3,0-0.4,0.1
				C123.9,138.2,123.8,138.3,123.6,138.4z"/>
			<path class="st45" d="M124,135.1c-0.3-0.2-0.3-0.1-0.7-0.1c-0.4,0-0.2,0.2-0.3,0.3s-0.1,0.2-0.1,0.4c0,0.3,0.1,0.2,0.3,0.3
				c0.2,0.2,0.3,0.1,0.4,0.1c0,0,0.5,0,0.7-0.3c0.3-0.3,0.2-0.2,0.2-0.4C124.4,135.2,124.3,135.2,124,135.1z"/>
			<path class="st45" d="M124.2,135.2c-0.1,0-0.1-0.1-0.2-0.1c-0.2-0.1-0.3-0.1-0.3-0.1c0,0,0,0-0.1,0c0,0,0,0-0.1,0
				c-0.1,0-0.2,0-0.3,0c-0.1,0-0.1,0-0.1,0c-0.2,0-0.2,0.1-0.2,0.2c0,0.1,0,0.1-0.1,0.2c-0.2,0.1-0.2,0.2-0.2,0.3c0,0,0,0.1,0,0.2
				c0,0.2,0,0.2,0.1,0.2c0,0,0.1,0.1,0.2,0.1c0.1,0.1,0.2,0.1,0.3,0.1h0.1h0.1c0,0,0.1,0,0.3,0c0.2,0,0.3-0.1,0.5-0.2
				c0.2-0.2,0.2-0.2,0.2-0.3c0,0,0-0.1,0-0.2C124.4,135.3,124.4,135.2,124.2,135.2z M124.4,135.5c0,0.1,0,0.1,0,0.2s0,0.1-0.2,0.3
				c-0.1,0.1-0.3,0.2-0.4,0.2c-0.1,0-0.3,0-0.3,0h-0.1h-0.1c-0.1,0-0.1,0-0.2-0.1c-0.1-0.1-0.1-0.1-0.2-0.1c-0.1,0-0.1-0.1-0.1-0.2
				c0-0.1,0-0.1,0-0.2c0-0.1,0-0.2,0.1-0.3c0.1-0.1,0.1-0.2,0.1-0.2c0-0.1,0-0.1,0.2-0.1h0.1c0.1,0,0.2,0,0.3,0c0,0,0,0,0.1,0
				c0,0,0,0,0.1,0c0.1,0,0.2,0,0.3,0.1c0.1,0.1,0.1,0.1,0.2,0.1C124.4,135.2,124.4,135.3,124.4,135.5z"/>
			<path class="st45" d="M124.8,136.3c-0.2-0.2-0.4-0.6-0.8-0.5c-0.4,0-0.7,0.1-0.9,0.3c-0.3,0.2-0.3,0.4-0.4,0.5
				c-0.1,0.3-0.1,0.7,0,0.8c0,0.2,0.1,0.1,0.1,0.2c0,0.1,0,0.1,0.1,0.2c0.1,0.1,0,0,0-0.3c0-0.3-0.1-0.6,0.2-0.8
				c0.3-0.3,0.3-0.2,0.5-0.3c0.3-0.1,0.3-0.1,0.6,0c0.2,0.1,0.4,0.1,0.5,0.3c0.2,0.2,0.2,0.3,0.2,0.6c0,0.3,0,0.3,0.1,0.3
				c0.1-0.1,0-0.3,0.1-0.3c0,0,0.1,0,0.1-0.1C125,136.9,125,136.5,124.8,136.3z"/>
			<path class="st45" d="M125,136.9c0-0.2-0.1-0.4-0.2-0.6c-0.2-0.2-0.4-0.6-0.8-0.5c-0.1,0-0.3,0-0.3,0c-0.3,0-0.4,0.1-0.6,0.2
				c-0.3,0.2-0.3,0.4-0.4,0.6c-0.1,0.3-0.1,0.7,0,0.8c0,0.1,0.1,0.1,0.1,0.2c0,0,0,0,0.1,0.1c0,0,0,0,0,0.1c0,0.1,0,0.1,0.1,0.1
				c0,0,0,0.1,0.1,0.1c0,0,0-0.1,0-0.2v-0.1c0-0.3-0.1-0.6,0.2-0.8c0.2-0.2,0.3-0.2,0.3-0.3c0.1,0,0.1,0,0.2,0
				c0.1,0,0.2-0.1,0.3-0.1s0.2,0,0.3,0c0.1,0,0.1,0,0.1,0c0.2,0,0.3,0.1,0.4,0.2c0.2,0.2,0.2,0.3,0.2,0.5c0,0.1,0,0.2,0,0.2
				c0,0.1,0,0.1,0,0.1s0-0.1,0-0.2c0-0.1,0-0.1,0.1-0.1c0,0,0.1,0,0.1-0.1C125,137,125,137,125,136.9z M125,137.2
				c-0.1,0-0.1,0.1-0.1,0.2s0,0.1,0,0.1v-0.1C124.9,137.3,124.9,137.3,125,137.2c-0.1-0.3-0.2-0.3-0.3-0.6c-0.1-0.2-0.3-0.2-0.4-0.3
				h-0.1c-0.2,0-0.3-0.1-0.3,0c-0.1,0-0.2,0-0.3,0.1c-0.1,0-0.1,0-0.2,0c-0.2,0-0.2,0.1-0.3,0.3c-0.3,0.3-0.2,0.6-0.2,0.8v0.1
				c0,0.1,0,0.1,0,0.1c0-0.1,0-0.1,0-0.1s0,0,0-0.1c0-0.1,0-0.1-0.1-0.1c0,0-0.1,0-0.1-0.1c0-0.2-0.1-0.6,0-0.8
				c0.1-0.2,0.2-0.3,0.4-0.5c0.2-0.1,0.3-0.2,0.6-0.2c0.1,0,0.3,0,0.3,0c0.4,0,0.7,0.3,0.8,0.5c0.1,0.2,0.2,0.4,0.2,0.6
				C125,137,125,137,125,137.2C125,137.2,125,137.2,125,137.2z"/>
			<path class="st24" d="M123.6,135.8c-0.1,0-0.2,0.3-0.2,0.6C123.4,136.2,123.5,135.9,123.6,135.8z"/>
			<path class="st24" d="M123.5,135.8c-0.2,0-0.3,0.3-0.2,0.6c0-0.2,0-0.3,0-0.4C123.3,136,123.4,135.9,123.5,135.8
				C123.5,135.9,123.5,135.9,123.5,135.8z"/>
			<path class="st24" d="M123.4,135.9c-0.2,0.1-0.3,0.3-0.3,0.6C123.2,136.2,123.3,136,123.4,135.9z"/>
			<path class="st24" d="M123.3,135.9c-0.1,0.1-0.2,0.3-0.3,0.4c0,0.1,0,0.2,0,0.3c0-0.1-0.1-0.1,0-0.3
				C123.1,136.2,123.2,136,123.3,135.9z"/>
			<path class="st24" d="M123.1,136c-0.1,0.1-0.2,0.3-0.3,0.4c0,0.2,0,0.3,0,0.3c0-0.1-0.1-0.2,0-0.3
				C122.9,136.3,123,136.1,123.1,136C123.2,136,123.2,136,123.1,136C123.2,136,123.2,136,123.1,136z"/>
			<path class="st24" d="M122.9,136.2c-0.1,0.1-0.1,0.3-0.2,0.4c0,0.2,0,0.3,0.1,0.4C122.8,136.8,122.8,136.3,122.9,136.2z"/>
			<path class="st24" d="M122.8,136.3c-0.1,0.2-0.2,0.3-0.1,0.5c0,0.2,0.1,0.3,0.2,0.3C122.7,136.9,122.6,136.8,122.8,136.3z"/>
			<path class="st24" d="M123.6,135.8c0,0,0,0,0.1,0.2c0,0.1,0.1,0.3,0.1,0.3c0-0.2-0.1-0.3-0.1-0.3
				C123.7,135.8,123.6,135.8,123.6,135.8z"/>
			<path class="st24" d="M123.7,135.8c0.1,0,0.3,0.3,0.3,0.5C123.9,136.1,123.8,135.8,123.7,135.8z"/>
			<path class="st24" d="M123.8,135.8c0.1,0,0.2,0.1,0.2,0.2c0.1,0.1,0.1,0.3,0.2,0.4C124.1,136.1,123.9,135.8,123.8,135.8z"/>
			<path class="st24" d="M123.9,135.8c0.1,0,0.2,0.1,0.3,0.2c0.1,0.1,0.2,0.3,0.2,0.4C124.3,136.1,124.1,135.8,123.9,135.8z"/>
			<path class="st24" d="M124.1,135.8C124.1,135.8,124,135.8,124.1,135.8C124,135.8,124.1,135.8,124.1,135.8c0.1,0,0.2,0.1,0.2,0.2
				c0.2,0.2,0.3,0.5,0.3,0.5c0-0.1-0.1-0.4-0.3-0.6C124.3,135.9,124.2,135.8,124.1,135.8z"/>
			<path class="st24" d="M124.3,135.8c0.1,0.1,0.2,0.3,0.3,0.4c0.1,0.2,0.2,0.3,0.1,0.4c0.1-0.2-0.1-0.3-0.1-0.5
				C124.4,136,124.4,135.8,124.3,135.8z"/>
			<path class="st24" d="M124.5,135.9C124.4,135.9,124.4,135.9,124.5,135.9c0.2,0.2,0.3,0.5,0.3,0.7c0,0.1,0,0.2-0.1,0.2
				c0.1,0,0.1-0.1,0.1-0.3c0-0.1,0-0.3-0.1-0.3C124.7,136.1,124.6,136,124.5,135.9z"/>
			<path class="st24" d="M122.8,137.5c-0.1,0-0.1-0.1-0.2-0.2c-0.1-0.1-0.1-0.3-0.1-0.4c0,0.2,0,0.3,0.1,0.4
				C122.7,137.4,122.8,137.5,122.8,137.5z"/>
			<path class="st24" d="M124.9,136.5c0.1,0.3,0,0.5-0.1,0.7c0.1-0.1,0.1-0.2,0.1-0.3C125,136.9,125,136.7,124.9,136.5
				C125,136.5,125,136.5,124.9,136.5z"/>
			<path class="st24" d="M123.4,135.1C123.4,135.1,123.4,135,123.4,135.1c-0.1,0-0.3,0-0.3,0c-0.1,0-0.2,0.1-0.2,0.2
				c-0.1,0.2-0.1,0.3,0,0.4c0.1,0.2,0.3,0.3,0.5,0.3c-0.2,0-0.3-0.1-0.4-0.3c-0.1-0.1-0.1-0.3,0-0.4
				C123,135.2,123.1,135.1,123.4,135.1z"/>
			<path class="st24" d="M123.9,135c-0.2,0-0.3,0-0.4,0.1c-0.1,0.1-0.3,0.2-0.3,0.3c0,0.1,0,0.2,0,0.3s0.1,0.2,0.3,0.3
				c-0.3-0.2-0.3-0.3-0.3-0.5C123.3,135.2,123.5,135,123.9,135z"/>
			<path class="st24" d="M123.8,135c-0.2,0-0.3,0-0.5,0.2c0.3-0.2,0.6-0.2,0.8,0c0.1,0.1,0.2,0.3,0.1,0.4c-0.1,0.2-0.2,0.3-0.4,0.2
				h0.1c0.2,0,0.3-0.1,0.3-0.3c0.1-0.2,0-0.3-0.1-0.5C124,135.1,123.9,135,123.8,135z"/>
			<path class="st24" d="M123.6,135c-0.2,0-0.3,0.1-0.3,0.3C123.3,135.1,123.4,135,123.6,135c0.2,0,0.3,0.2,0.4,0.3
				c0.1,0.2,0.1,0.3-0.1,0.5c0.2-0.2,0.2-0.4,0.1-0.6C123.9,135.1,123.8,135,123.6,135z"/>
			<path class="st40" d="M123.4,139.4c-0.2,0.1-1,0.6-1.3,0.8c0,0-0.1,0.1-0.1,0.2c0.3,0.3,0.8,0.5,1.1,0.6c0.3,0.1,0.8,0.2,1.3,0.1
				C123.4,140.1,123.5,139.6,123.4,139.4C123.5,139.3,123.5,139.4,123.4,139.4z"/>
			<path class="st40" d="M126.1,139.5c-0.3-0.2-1-0.2-1.2-0.3c-0.1,0,0,0.1,0,0.1c0,0.2,0.2,1-0.2,1.7c0.3,0,0.7-0.2,0.9-0.3
				c0.3-0.2,0.7-0.5,0.9-0.8C126.7,139.8,126.2,139.5,126.1,139.5z"/>
			<path class="st18" d="M123.9,140.6c-0.1,0-0.2,0.1-0.2,0.3c0,0.1,0.1,0.2,0.3,0.2c0.1,0,0.2-0.1,0.2-0.3
				C124.2,140.7,124,140.6,123.9,140.6z"/>
			<path class="st41" d="M123.9,140.6c-0.1,0-0.2,0.1-0.2,0.2c0,0.1,0.1,0.2,0.2,0.2c0.1,0,0.2-0.1,0.2-0.2
				C124.1,140.7,124,140.6,123.9,140.6z"/>
			<path class="st24" d="M123.9,140.8c-0.3-0.3-0.5-0.4-0.6-0.8c0,0-0.1-0.3-0.1-0.4c0-0.3,0.1-0.4,0.2-0.6v-0.1
				c-0.1,0.1-0.2,0.2-0.2,0.3c-0.1,0.3-0.1,0.5,0,0.8c0,0,0,0,0,0.1c0.1,0.1,0.2,0.3,0.3,0.4C123.6,140.5,123.8,140.7,123.9,140.8
				C123.9,140.8,123.9,140.8,123.9,140.8z"/>
			<path class="st18" d="M123.9,140.8C123.9,140.8,123.9,140.8,123.9,140.8c-0.1,0.1,0,0.2,0,0.2C124,140.8,124,140.8,123.9,140.8
				C124,140.8,124,140.8,123.9,140.8z"/>
			<path class="st46" d="M123.9,140.8C123.9,140.8,123.9,140.8,123.9,140.8C124,140.8,124,140.8,123.9,140.8
				C124,140.8,124,140.8,123.9,140.8z"/>
			<path class="st47" d="M125.2,139.9C125.2,139.9,125.1,139.9,125.2,139.9c-0.1,0.1-0.1,0.2-0.1,0.3c0,0.2-0.1,0.3-0.1,0.5
				c-0.1,0.2-0.2,0.3-0.3,0.3c-0.1,0-0.2,0-0.3-0.1c0.1,0.1,0.2,0.1,0.2,0.1c0.1,0,0.1,0,0.2,0c0.1,0,0.2-0.2,0.3-0.3
				c0.1-0.2,0.1-0.3,0.1-0.5C125.1,140.1,125.2,140,125.2,139.9z"/>
			<path class="st18" d="M124.4,140.8C124.4,140.8,124.4,140.8,124.4,140.8C124.4,140.8,124.4,140.8,124.4,140.8
				C124.4,140.9,124.4,140.9,124.4,140.8L124.4,140.8C124.4,140.9,124.4,140.9,124.4,140.8z"/>
			<path class="st48" d="M124.4,140.8C124.4,140.8,124.4,140.8,124.4,140.8C124.4,140.8,124.4,140.8,124.4,140.8z M124.4,140.8
				C124.4,140.9,124.4,140.9,124.4,140.8L124.4,140.8C124.4,140.9,124.4,140.9,124.4,140.8z"/>
			<path class="st49" d="M124.6,139.7C124.6,139.6,124.6,139.6,124.6,139.7c-0.1,0.1-0.2,0.2-0.2,0.3c-0.1,0.1-0.3,0.3-0.3,0.4
				c-0.1,0.2-0.2,0.3-0.1,0.4c0,0.1,0.1,0.1,0.1,0.1c0.1,0,0.1,0.1,0.2,0.1c-0.2,0-0.3-0.1-0.3-0.2c0-0.1,0-0.2,0.1-0.3
				c0.1-0.2,0.2-0.3,0.3-0.4C124.5,139.7,124.6,139.7,124.6,139.7z"/>
			<path class="st18" d="M124.4,140.8L124.4,140.8L124.4,140.8L124.4,140.8C124.4,140.8,124.4,140.8,124.4,140.8
				C124.4,140.8,124.4,140.8,124.4,140.8C124.4,140.8,124.4,140.8,124.4,140.8z"/>
			<path class="st48" d="M124.4,140.8L124.4,140.8L124.4,140.8L124.4,140.8C124.4,140.8,124.4,140.8,124.4,140.8
				C124.4,140.8,124.4,140.8,124.4,140.8z M124.4,140.8C124.4,140.8,124.4,140.8,124.4,140.8z"/>
			<path class="st50" d="M125.1,139.9c0-0.2,0.1-0.3-0.1-0.3c-0.2-0.1-0.3,0.1-0.3,0.1s0,0-0.1,0c0,0,0,0-0.1,0l-0.1,0.1
				c0,0,0,0,0.1,0l0.1-0.1c0-0.1,0,0,0.1,0c0,0,0.2-0.3,0.3-0.2C125.2,139.7,125.1,139.8,125.1,139.9c0,0.1,0,0.2,0,0.2v0.1
				c0,0,0,0,0.1,0c0-0.1,0-0.1,0-0.1C125.2,140,125.2,140,125.1,139.9C125.1,139.9,125.2,139.9,125.1,139.9z"/>
			<path class="st24" d="M125.2,139.5C125.1,139.5,125.1,139.4,125.2,139.5c0-0.1,0.3-0.7-0.3-1v0.1c0.5,0.3,0.3,0.8,0.3,0.8
				c-0.1,0-0.1,0-0.2,0s-0.2,0.1-0.3,0.3v0.1c0,0,0,0,0.1,0c0.1-0.1,0.2-0.2,0.3-0.2C125.1,139.5,125.1,139.5,125.2,139.5
				s0.1,0.1,0.1,0.2c0,0.1,0,0.2,0,0.3v0.1h0.1c0-0.1,0-0.2,0-0.3C125.2,139.6,125.2,139.5,125.2,139.5z"/>
			<path class="st18" d="M125.2,140l-0.1,0.2L125.2,140z"/>
			<path class="st18" d="M124.6,139.7l-0.1,0.2L124.6,139.7z"/>
			<g class="st51">
				<g class="st51">
					<g class="st51">
						<path class="st52" d="M143.7,121.4c-0.2-0.3-0.3-0.5-0.6-0.8c-0.5-0.8-0.8-1.6-1.4-2.4c-0.1-0.2-0.3-0.3-0.3-0.3
							c-0.2-0.3-0.3-0.5-0.4-0.7c0.3-0.3,0.3-0.7,0-1c-1.8-2.4-3.6-4-5.2-4.8c-1.9-1-2.9-0.1-3.7-0.8c-0.1-0.1-0.7-5.3,1.5-9.2
							c-0.8,0.6-1.6,1.3-2.6,2c-0.9,3.9-0.5,7.6-0.5,7.6c-0.2,0.5-0.6,1.2-0.9,1.6c-0.7,0.8-1.3,1.9-1.7,3.1c-0.6,1.9-0.6,4-0.1,5.5
							c0.1,0.3,0.3,0.4,0.4,0.5c0,0.2,0.1,0.4,0.1,0.6c0,0.1,0,0.1,0,0.2c0,0.8,0.1,0.4,0.1,0.8c0,0,0.1,0.9,0.3,2.5
							c0,0.1,0.1,0.1,0.1,0.2c0,0.2,0,0.3,0.1,0.5c0.3,3,0.7,6.8,1.4,9.9c0.9,3.8,2.4,6.1,4.3,7c0.9,0.4,1.9,0.6,3,0.4
							c0.9-0.2,1.9-0.5,3-1.1c0.1,0.2,0.2,0.3,0.3,0.3c0,0,1-0.2,1.4-0.2c0.4,0,0.6-0.2,0.6-0.8c0-0.2,0-0.3,0-0.4
							c0,0.1,0.1,0.2,0.3,0.3c0.3,0.4,0.6,0.4,0.9,0.3c0.3-0.3,1.3-0.7,1.3-0.7c0-0.1,0-0.1,0-0.2c1.1-0.3,2-0.6,2.8-1.1
							c0.9-0.6,1.7-1.4,2-2.3c0.8-1.9,0.4-4.7-1.3-8.1C147.5,127,145.4,124,143.7,121.4z M129,121.7c0.2-0.3,0.3-0.6,0.2-0.8
							c-0.3-1.2-0.3-3,0.2-4.5c0.5-1.7,1.4-3,2.5-3.5c0.9-0.4,1.9-0.4,3,0.1c1.4,0.7,3,2.1,4.7,4.3c0.1,0.1,0.2,0.2,0.3,0.3v0.1
							c-0.3-0.1-0.6-0.1-0.7-0.3c-0.6-0.8-3-4.9-6.9-3.2c-3.9,1.7-3.1,4.1-3,7C129.4,121.3,129.3,121.5,129,121.7z M149.3,137.8
							c-0.6,1.4-1.9,2.3-4.1,2.8c-0.1-0.1-0.1-0.3-0.2-0.3c-0.2-0.2-1.6-0.2-1.9-0.1c-0.3,0.2-0.4,0.3-0.4,0.8c0,0.3,0,0.5,0.1,0.6
							c-0.1-0.1-0.2-0.3-0.3-0.5c-0.3-0.5-0.5-0.5-0.8-0.4c-0.3,0.1-1.4,0.8-1.4,1.2v0.1c-2.1,1.2-3.9,1.4-5.3,0.7
							c-1.7-0.8-3-3-3.8-6.4c-0.8-3.1-1.1-6.6-1.4-9.7c0-0.2,0-0.3-0.1-0.6c0.3-0.2,0.1-0.9,0-1.4c-0.1-0.8-0.3-1.8-0.3-2.3
							c0-0.4,0.4-0.5,0.5-0.9c0-0.1-0.1-0.4-0.1-0.6c0-1.2-0.6-5,2.9-6.4c4.4-1.7,6.3,3.1,6.8,3.4c0.6,0.4,0.7-0.1,1.3,0.9
							c0.6,0.9,1.3,2.5,1.6,2.5c0.1,0,0.1,0,0.2,0c0.2,0.3,0.3,0.5,0.5,0.8c1.8,2.6,3.8,5.5,5.2,8.4
							C149.7,133.6,150,136,149.3,137.8z"/>
						<g class="st51">
							<g class="st51">
								<g class="st51">
									<path class="st53" d="M143.7,121.4c-0.2-0.3-0.3-0.5-0.6-0.8c-0.5-0.8-0.8-1.6-1.4-2.4c-0.1-0.2-0.3-0.3-0.3-0.3
										c-0.2-0.3-0.3-0.5-0.4-0.7c0.3-0.3,0.3-0.7,0-1c-1.8-2.4-3.6-4-5.2-4.8c-1.9-1-2.9-0.1-3.7-0.8c-0.1-0.1-0.7-5.3,1.5-9.2
										c-0.8,0.6-1.6,1.3-2.6,2c-0.9,3.9-0.5,7.6-0.5,7.6c-0.2,0.5-0.6,1.2-0.9,1.6c-0.7,0.8-1.3,1.9-1.7,3.1
										c-0.6,1.9-0.6,4-0.1,5.5c0.1,0.3,0.3,0.4,0.4,0.5c0,0.2,0.1,0.4,0.1,0.6c0,0.1,0,0.1,0,0.2c0,0.8,0.1,0.4,0.1,0.8
										c0,0,0.1,0.9,0.3,2.5c0,0.1,0.1,0.1,0.1,0.2c0,0.2,0,0.3,0.1,0.5c0.3,3,0.7,6.8,1.4,9.9c0.9,3.8,2.4,6.1,4.3,7
										c0.9,0.4,1.9,0.6,3,0.4c0.9-0.2,1.9-0.5,3-1.1c0.1,0.2,0.2,0.3,0.3,0.3c0,0,1-0.2,1.4-0.2c0.4,0,0.6-0.2,0.6-0.8
										c0-0.2,0-0.3,0-0.4c0,0.1,0.1,0.2,0.3,0.3c0.3,0.4,0.6,0.4,0.9,0.3c0.3-0.3,1.3-0.7,1.3-0.7c0-0.1,0-0.1,0-0.2
										c1.1-0.3,2-0.6,2.8-1.1c0.9-0.6,1.7-1.4,2-2.3c0.8-1.9,0.4-4.7-1.3-8.1C147.5,127,145.4,124,143.7,121.4z M129,121.7
										c0.2-0.3,0.3-0.6,0.2-0.8c-0.3-1.2-0.3-3,0.2-4.5c0.5-1.7,1.4-3,2.5-3.5c0.9-0.4,1.9-0.4,3,0.1c1.4,0.7,3,2.1,4.7,4.3
										c0.1,0.1,0.2,0.2,0.3,0.3v0.1c-0.3-0.1-0.6-0.1-0.7-0.3c-0.6-0.8-3-4.9-6.9-3.2c-3.9,1.7-3.1,4.1-3,7
										C129.4,121.3,129.3,121.5,129,121.7z M149.3,137.8c-0.6,1.4-1.9,2.3-4.1,2.8c-0.1-0.1-0.1-0.3-0.2-0.3
										c-0.2-0.2-1.6-0.2-1.9-0.1c-0.3,0.2-0.4,0.3-0.4,0.8c0,0.3,0,0.5,0.1,0.6c-0.1-0.1-0.2-0.3-0.3-0.5
										c-0.3-0.5-0.5-0.5-0.8-0.4c-0.3,0.1-1.4,0.8-1.4,1.2v0.1c-2.1,1.2-3.9,1.4-5.3,0.7c-1.7-0.8-3-3-3.8-6.4
										c-0.8-3.1-1.1-6.6-1.4-9.7c0-0.2,0-0.3-0.1-0.6c0.3-0.2,0.1-0.9,0-1.4c-0.1-0.8-0.3-1.8-0.3-2.3c0-0.4,0.4-0.5,0.5-0.9
										c0-0.1-0.1-0.4-0.1-0.6c0-1.2-0.6-5,2.9-6.4c4.4-1.7,6.3,3.1,6.8,3.4c0.6,0.4,0.7-0.1,1.3,0.9c0.6,0.9,1.3,2.5,1.6,2.5
										c0.1,0,0.1,0,0.2,0c0.2,0.3,0.3,0.5,0.5,0.8c1.8,2.6,3.8,5.5,5.2,8.4C149.7,133.6,150,136,149.3,137.8z"/>
								</g>
							</g>
						</g>
					</g>
				</g>
			</g>
			<g class="st54">
				<g class="st54">
					<g class="st54">
						<path class="st55" d="M146.2,112c-5.6-8.1-6.9-11.5-6.6-13.5c-0.3,0.3-0.4,0.3-0.4,0.3c-0.3,1.5,0.7,3.8,1.2,4.9
							c2.9,6,10.6,16.8,12.3,18.7c1.9,2.1,6.3,5.8,6.3,5.8s0.8-0.7,1.2-1.1C156.4,124.7,152.1,120.5,146.2,112z"/>
					</g>
				</g>
			</g>
			<g class="st30">
				<g class="st30">
					<g class="st30">
						<path class="st56" d="M140.1,164.2c-1.9-0.2-2.3,1.8-5.5,1.4c-3.2-0.4-5.6-1.5-6.9-2.9c-0.4-0.4-2.4-4.4-2.4-3.6
							c0,0.7,0.8,3.3,1.5,4.5c1,1.9,3,3.3,4,3.6c0.9,0.3,5,2.2,6.3,2.7c1.4,0.5,4.9-1.3,4.7-1.8
							C141.5,167.6,141.9,164.5,140.1,164.2z"/>
					</g>
				</g>
			</g>
			<g class="st54">
				<g class="st54">
					<g class="st54">
						<path class="st55" d="M180.6,161.4c-1.4,1.3-3.9,2.1-7.1,2.4c-3.3,0.2-3.6-1.9-5.4-1.8c-1.9,0.1-1.6,3.3-1.9,3.8
							c-0.3,0.5,3.1,2.5,4.5,2.1c1.4-0.4,5.6-1.9,6.5-2.2c0.9-0.3,3.1-1.5,4.2-3.4c0.8-1.2,1.8-3.6,1.9-4.4
							C183.3,157.2,181,161,180.6,161.4z"/>
					</g>
				</g>
			</g>
			<path class="st28" d="M150,156.4c-0.1,0-0.2,0.1-0.2,0.2c0,0.1,0.1,0.2,0.2,0.2s0.2-0.1,0.2-0.2
				C150.1,156.5,150.1,156.4,150,156.4z"/>
			<path class="st33" d="M117.2,119.6c-0.2-4.2-3-8.1-4.8-6.9c-1.9,1.2-3.9,4.4-6,10.3c-2.1,5.9-0.5,10.7-1,20.4
				c-0.5,9.8-3.7,14.4-2.4,14.4c1.4-0.1,0,0,2.1,1.7c2.1,1.7,3.7,2.7,7.2,4.1c3.5,1.4,6.8,2.4,9.1,0.4s0.3-3.6,1.1-10.1
				C123.3,147.5,117.9,137.5,117.2,119.6z"/>
			<g class="st51">
				<g class="st51">
					<g class="st51">
						<path class="st57" d="M122.4,155.5c0.1-1.2-1.7-2.2-3-4.3c-1.3-2.1-0.6-2.8-1.4-3.8c-0.8-0.9-0.3,0.1-0.3,0.1
							c0.1,1.3,0.8,9,0.8,11.4c0,2.5-0.5,5.8-0.1,5.9c0.4,0.2,0.9,0.4,1.9-0.1c1.5-0.8,1.9-1.6,1.9-1.9
							C123,161.4,122.1,160.1,122.4,155.5z"/>
					</g>
				</g>
			</g>
			<path class="st34" d="M104.1,152.7c0-0.1-0.1-0.2-0.2-0.2c-0.1,0-0.2,0.1-0.2,0.2c0,0.3,0.1,0.6,0.2,0.8c0,0.1,0.1,0.1,0.2,0.1
				h0.1c0.1-0.1,0.2-0.2,0.1-0.3C104.1,153.2,104.1,153,104.1,152.7z"/>
			<path class="st34" d="M109.9,157.4c-0.5-0.2-0.9-0.4-1.4-0.6c-0.1,0-0.2,0-0.3,0.1c-0.1,0.1,0,0.2,0.1,0.3
				c0.5,0.3,0.9,0.4,1.4,0.6h0.1c0.1,0,0.2,0,0.2-0.1C110.1,157.5,110,157.4,109.9,157.4z"/>
			<path class="st34" d="M107.8,156.4c-0.5-0.3-0.9-0.5-1.4-0.8c-0.1-0.1-0.2,0-0.3,0.1c-0.1,0.1,0,0.2,0.1,0.3
				c0.4,0.3,0.8,0.5,1.4,0.8h0.1c0.1,0,0.1,0,0.2-0.1C107.9,156.5,107.9,156.4,107.8,156.4z"/>
			<path class="st34" d="M112.1,158.1c-0.2-0.1-0.4-0.2-0.6-0.2c-0.3-0.1-0.6-0.2-0.9-0.3c-0.1,0-0.2,0-0.3,0.1c0,0.1,0,0.2,0.1,0.3
				c0.3,0.1,0.7,0.3,0.9,0.3c0.2,0.1,0.3,0.1,0.5,0.2c0,0,0,0,0.1,0c0.1,0,0.2-0.1,0.2-0.1C112.3,158.3,112.2,158.1,112.1,158.1z"/>
			<path class="st34" d="M105.7,155.1c-0.5-0.3-0.8-0.7-1.1-1c-0.1-0.1-0.2-0.1-0.3,0c-0.1,0.1-0.1,0.2,0,0.3
				c0.3,0.3,0.7,0.7,1.2,1.1h0.1c0.1,0,0.1,0,0.2-0.1C105.8,155.3,105.8,155.2,105.7,155.1z"/>
			<path class="st34" d="M114.3,159.1c-0.3-0.2-0.8-0.3-1.1-0.4c-0.2-0.1-0.3-0.1-0.3-0.2c-0.1,0-0.2,0-0.3,0.1c0,0.1,0,0.2,0.1,0.3
				c0.1,0.1,0.3,0.1,0.3,0.2c0.3,0.2,0.7,0.3,1.1,0.4h0.1c0.1,0,0.2-0.1,0.2-0.1C114.5,159.2,114.4,159.1,114.3,159.1z"/>
			<path class="st34" d="M116.6,159.7c-0.4-0.1-0.9-0.3-1.4-0.4c-0.1,0-0.2,0-0.3,0.1c0,0.1,0,0.2,0.1,0.3c0.5,0.2,1,0.3,1.5,0.4
				c0.1,0,0.2-0.1,0.2-0.2C116.7,159.8,116.7,159.7,116.6,159.7z"/>
			<path class="st34" d="M121.1,159.1c-0.3,0.1-0.6,0.3-0.8,0.3c-0.1,0-0.3,0.1-0.3,0.1s-0.2,0.1-0.3,0.1s-0.2,0.2-0.1,0.3
				c0,0.1,0.1,0.1,0.2,0.1c0,0,0,0,0.1,0c0.1,0,0.2-0.1,0.3-0.1c0.1,0,0.2-0.1,0.3-0.1c0.3-0.1,0.6-0.2,0.8-0.3
				c0.1,0,0.2-0.2,0.1-0.3C121.3,159.1,121.1,159.1,121.1,159.1z"/>
			<path class="st34" d="M118.9,159.7c-0.5,0.1-1,0.1-1.5,0.1c-0.1,0-0.2,0.1-0.2,0.2c0,0.1,0.1,0.2,0.2,0.2c0.2,0,0.3,0,0.6,0
				c0.3,0,0.7,0,1-0.1c0.1,0,0.2-0.1,0.2-0.2C119,159.8,118.9,159.7,118.9,159.7z"/>
			<path class="st34" d="M122.4,158c-0.1,0-0.2,0.1-0.2,0.2c0,0.2-0.2,0.3-0.4,0.5c-0.1,0.1-0.1,0.2-0.1,0.3c0,0.1,0.1,0.1,0.2,0.1
				h0.1c0.3-0.3,0.6-0.5,0.6-0.8C122.6,158.1,122.5,158,122.4,158z"/>
			<path class="st9" d="M160.8,174.1c-1.8-1.7-0.8-3.2-2.1-6.2c-1.4-3-3.7-6.3-4.9-6.6c-1.2-0.3-4.1,0.6-4.5,3.3
				c-0.3,2.7-0.7,8.1-0.8,8.5c-0.2,1.3,0.9,4.2,0.9,4.2c1.4-0.2,2.5,1,4.8,1.1c3,0.1,6.5-0.7,7.9-1.3
				C163.6,176.4,162.5,175.8,160.8,174.1z"/>
			<path class="st9" d="M167.4,180.7c-1.4-1.1-2.7-0.1-4.9,0.8c-2.2,0.9-5.9,3.6-5.9,3.6c-0.4,1.6-1.3,3.6-2.7,4.5
				c-1.4,0.9-2.3,1.9-1.4,3.4s3.6,3.1,4.8,3.5c1.3,0.4,3.3,2,4-1.3c0.7-3.2,1.8-3.6,2.1-5.6c0.3-2,1.2-0.8,2.3-3.6
				C166.9,183.2,168.9,181.8,167.4,180.7z"/>
			<path class="st58" d="M185.3,152.6c-1.1,3.8,1.9,10.9,2.5,14.8c0.6,3.9,1.5,1.1-8.4,2.3c-11.9,1.4-15.4,7.5-22,8
				c-6.6,0.4-4.5,1.9-6.7-0.7c-1.4-1.8-3-1.8-4-1.9c-4.4-0.7-4.8-2.2-8.1-4.5c-2.5-1.8-3.3-2.4-4-0.7c-0.3,0.9-0.7,2.4,1.9,4.2
				c2.7,1.9,3.8,2.3,3.2,3c-0.6,0.6-1.2,1-3.3-0.1c-5.8-3.3-5.8-10.3-9.1-8.8c-1.4,0.7,0.4,1,1.5,6.7c0.4,2.4,2.5,5.7,3.4,9.3
				c0.8,3.5,3.4,4.4,5.7,4.6c2.3,0.2,7.5-0.4,12.6-1.3c5.1-0.8,12.8-1.3,26.1-1.4c13.3-0.2,18.3-5.9,21.8-6.7c3.6-0.8,4.1-3.6,4.6-7
				c2.3-14.4-6.8-38.7-6.8-38.7S186.5,148.6,185.3,152.6z"/>
			<path class="st9" d="M185.3,152.6c-1.1,3.8,1.9,10.9,2.5,14.8c0.6,3.9,1.5,1.1-8.4,2.3c-9.6,1.1-13.7,5.3-18.3,7.1
				c1.9,1.2,1.5-0.1,4.5,4c1.8,2.4,2.3,3.1,1.2,5.3c2.9-0.1,6.2-0.2,9.9-0.3c13.3-0.2,18.3-5.9,21.8-6.7c3.6-0.8,4.1-3.6,4.6-7
				c2.3-14.4-6.8-38.7-6.8-38.7S186.5,148.5,185.3,152.6z"/>
			<g class="st30">
				<g class="st30">
					<g class="st30">
						<path class="st31" d="M189.6,160.8c-0.3-2.9-1.7-6-1.7-6l-2.6,1.5c0,0,0.9,4.6,1.4,6.2c0.5,1.6,1.7,7,1.7,7.5
							c0.1,0.4,1.4,1.9,1.8,1.8c0.5-0.2,0-0.8-0.3-2.3C189.6,167.9,189.9,163.6,189.6,160.8z"/>
					</g>
				</g>
			</g>
			<path class="st33" d="M197.9,123.1c-2.3-9.2-5.8-11.4-8.1-13.2c-2.3-1.8-2.3-1.8-3.3,4.3c-1.4,8.2,0.5,17,0.5,22.3
				c0,6.8-3.5,10.1-3.1,15.5c0.3,5.4-1.6,7,1.3,6.5c2.9-0.5,1.7-2.6,6.5-2.5c4.7,0.2,5.1-0.5,9.3-2.4c4.2-1.8,3.4-4,2.2-10.5
				C202.2,137.5,200.1,132.3,197.9,123.1z"/>
			<path class="st34" d="M185.3,154.1c-0.4,0.3-0.7,0.5-0.7,0.5c-0.1,0.1-0.1,0.2,0,0.3l0.1,0.1c0.1,0,0.1,0,0.1-0.1
				c0,0,0.3-0.3,0.6-0.5C185.5,154.2,185.5,154.1,185.3,154.1C185.5,154,185.4,154,185.3,154.1z"/>
			<path class="st34" d="M190.4,152.7c-0.3,0-0.7,0-1,0c-0.3,0-0.5,0-0.8,0c-0.1,0-0.2,0.1-0.2,0.2c0,0.1,0.1,0.2,0.2,0.2
				c0.3,0,0.4,0,0.7,0c0.2,0,0.3,0,0.6,0c0.2,0,0.3,0,0.5,0c0.1,0,0.2-0.1,0.2-0.2C190.6,152.8,190.5,152.7,190.4,152.7z"/>
			<path class="st34" d="M187.8,152.9c-0.6,0.2-1.1,0.3-1.6,0.7c-0.1,0.1-0.1,0.2-0.1,0.3c0,0.1,0.1,0.1,0.2,0.1h0.1
				c0.5-0.3,1-0.5,1.5-0.6c0.1,0,0.2-0.1,0.2-0.3C187.9,152.9,187.9,152.9,187.8,152.9z"/>
			<path class="st34" d="M193,152.4c-0.6,0.2-1.1,0.3-1.7,0.3c-0.1,0-0.2,0.1-0.2,0.2c0,0.1,0.1,0.2,0.2,0.2
				c0.6-0.1,1.1-0.2,1.7-0.3c0.1,0,0.2-0.1,0.2-0.3C193.2,152.4,193.1,152.3,193,152.4z"/>
			<path class="st34" d="M200.1,149.1c-0.1,0.1-0.2,0.1-0.3,0.2c-0.3,0.2-0.7,0.4-1.2,0.7c-0.1,0.1-0.1,0.2-0.1,0.3
				c0,0.1,0.1,0.1,0.2,0.1h0.1c0.5-0.3,0.9-0.5,1.2-0.7c0.2-0.1,0.3-0.2,0.3-0.2c0.1-0.1,0.1-0.2,0.1-0.3
				C200.4,149.1,200.2,149.1,200.1,149.1z"/>
			<path class="st34" d="M202.3,147.7c-0.3,0.3-0.8,0.7-1.4,1c-0.1,0.1-0.1,0.2-0.1,0.3c0,0.1,0.1,0.1,0.2,0.1h0.1
				c0.6-0.3,1-0.7,1.4-1c0.1-0.1,0.1-0.2,0-0.3C202.5,147.6,202.3,147.6,202.3,147.7z"/>
			<path class="st34" d="M197.8,150.4c-0.5,0.3-1,0.5-1.5,0.8c-0.1,0-0.2,0.2-0.1,0.3c0,0.1,0.1,0.1,0.2,0.1h0.1
				c0.5-0.3,1-0.5,1.6-0.8c0.1-0.1,0.1-0.2,0.1-0.3C198,150.4,197.9,150.4,197.8,150.4z"/>
			<path class="st34" d="M195.5,151.5c-0.5,0.3-1.1,0.4-1.6,0.6c-0.1,0-0.2,0.1-0.1,0.3c0,0.1,0.1,0.1,0.2,0.1c0,0,0,0,0.1,0
				c0.5-0.2,1.1-0.3,1.6-0.6c0.1,0,0.2-0.2,0.1-0.3C195.6,151.5,195.6,151.5,195.5,151.5z"/>
			<path class="st34" d="M203.3,146.3c-0.1,0-0.2,0.1-0.2,0.2c0,0.2-0.1,0.4-0.3,0.7c-0.1,0.1,0,0.2,0.1,0.3h0.1
				c0.1,0,0.1,0,0.2-0.1c0.2-0.3,0.3-0.6,0.3-0.8C203.4,146.3,203.4,146.3,203.3,146.3z"/>
			<path class="st18" d="M151.3,184.8c-0.5,0-0.9,0.1-1.1,0.1c0.1,0,0.2,0.1,0.3,0.1c0.3,0,0.5,0,0.4,0.1c-0.1,0-0.3,0-0.4-0.1
				c-0.5,0-1,0-0.3-0.1c-0.7-0.3-1.7-1-1.7-1l-0.3-0.3c0,0-1.8,1.4-1.9-1.6c-0.1-3.1-3.6-4.3-3.6-4.3c0,0.7,0.8,0.8,0.2,1.7
				c-1,1.7-2.3,1.2-3.6,1.4c-1.4,0.3-3.4,1.1-4.1,0.2c-1.4-1.7-1.6,0.9-0.7,1.7c0.7-0.7,1.9,1.5,0,0c-0.7,0.7,1.4,1.2,1.5,4.2
				c0,1.6,1.4-0.6,0.9,0.8c-0.4,1.4,0.2,1.5,1.5,1.9c1.4,0.4-0.8,1.2,0.9,2l1.1,0.5c0.4,1,1.5,2.5,2.7,2.5c4.5-0.3,4.7-1.4,7-3.3
				c2.4-1.9,0.5,0.4,2.4-1.9C153.8,187.6,152.8,184.8,151.3,184.8z"/>
			<path class="st18" d="M134.4,182.6C136.2,184.2,135.1,181.9,134.4,182.6z"/>
			<path class="st18" d="M150.4,185c-0.1,0-0.2-0.1-0.3-0.1C149.3,185,149.8,185,150.4,185z"/>
			<g class="st30">
				<g class="st30">
					<g class="st30">
						<path class="st59" d="M187.1,150.1c-0.1-1.4-0.6-3.7-0.5-5c0.1-1.2-0.6,0.8-0.6,0.8s-0.5,4.9-0.8,6.4
							c-0.3,1.4-0.3,1.6-0.4,2.7c-0.1,1-0.2,2.2,0.3,3.6c1.8-0.3,2.3-1.4,3.2-2c0.7-0.4-0.6-1.5-0.8-2.5
							C187.2,153,187.2,151.4,187.1,150.1z"/>
					</g>
				</g>
			</g>
			<path class="st9" d="M164.5,161.2c0.1-1-0.2-2.9-0.2-5.2c0-4.4-1.9-10.9-3.5-14c-1.6-3.2-3.6-7.6-3.6-7.6l-3.2-1.9
				c0,0-3.5,4.2-3.4,5.7c0.1,1.4,1.6,1.9,1.6,1.9s1.8,5.2,3,6.4c1.3,1.3-0.5,3.1,1.4,6.4c0.8,1.4,1.5,4.5,2.5,6.4
				c0.7,1.3,0.8,2.1,0,2.6c-0.8,0.5,0,3.2,0,4.2c0.1,1,0.1,1,0.9,3c0.8,1.7,2,1.4,3.5,0.8c2.3-0.8,2.7-0.7,3.2-1.9
				c0.6-1.2-0.5-3-0.9-4.7C165.4,161.6,164.4,162.7,164.5,161.2z"/>
			<g class="st14">
				<g class="st14">
					<g class="st14">
						<path class="st60" d="M139.1,97.3c-3.2-0.6-8.1,1.4-8.8,1.8c-2.7,1.3-4.3,2-6.4,5.9c-1.4,2.5-2.1,4.3-0.8,6.6
							c0.9,1.7-0.2,3.4-0.2,3.4c-0.8,1.4,0,8.1,1.1,8.9c1.1,0.8-2.2,1,3.9,1.3c6.1,0.2,19,1.2,20.7-0.5c1.6-1.6-4.1-2.3-3.6-3.9
							c0.4-1.5,4-2.7,4.5-9.9c0.2-2.1-1.4-7.5-2.7-9.4C145.5,99.5,143,98.1,139.1,97.3z"/>
					</g>
				</g>
			</g>
			<path class="st9" d="M138.1,97.3c-3.2-0.6-8.1,1.4-8.8,1.8c-2.7,1.3-4.3,2-6.4,5.9c-1.4,2.5-2.1,4.3-0.8,6.6
				c0.9,1.7-0.2,3.4-0.2,3.4c-0.8,1.4,0,8.1,1.1,8.9c1.1,0.8-2.2,1,3.9,1.3c6.1,0.2,19,1.2,20.7-0.5c1.6-1.6-4.1-2.3-3.6-3.9
				c0.4-1.5,4-2.7,4.5-9.9c0.2-2.1-1.4-7.5-2.7-9.4C144.5,99.5,142,98.1,138.1,97.3z"/>
			<path class="st9" d="M127.7,138.4c0.1-2.3-1-4.3-3.1-4.5c-2.1-0.1-4.5,0.6-4.5,0.6c-1.9,3.6-1.4,6.8-1.4,8.1
				c0,1.4,0.3,3.4,1.5,4.3c1.3,0.9,1.2,3.6,2.2,3.6c1-0.1,1.4,0.7,3,0c1.5-0.7,2.4-3.6,2.5-5.9C128.1,142.5,127.7,140.7,127.7,138.4
				z"/>
			<path class="st18" d="M149.3,122.9c-2.7-1.4-4.7-2.6-6.9-1.6c-2.2,1-7.6,0.3-9.1,0.6c-1.4,0.3-1.4,2.5-2.5,1.6
				c-1.2-0.9-2.5-1-3.3-0.3c-0.8,0.7-4-0.3-5.6,2c-1.5,2.2-2.5,2.9-3.3,7c-0.8,4.2-1.6,5.9,1.6,7c3.1,1.1,4.6-0.4,5.6,1.4
				c1,1.8,0.9,4.2,1.2,9.2c0.3,4.9-0.4,8.8,0,12.4c0.4,3.6-0.6,3.6,1.8,7.7c2.4,4.2,4.1,10.9,9.5,10.8c5.3-0.1,8.5-0.1,10.8-0.7
				c2.4-0.6,2.4-6.1,3-10.1c0.7-4-0.8-6.1,1.2-7.2c1.9-1.1-0.7-8.6-0.7-12.1s-0.2-5.1-0.4-7.3c-0.3-2.2-1.1-3.5,3.3-4.2
				c3.2-0.5,3.4-2,1.9-5.7C155.3,127.8,152,124.3,149.3,122.9z"/>
			<path class="st9" d="M161.2,176.8c-1.2,0.4-2.4,0.8-3.6,0.8c-6.6,0.4-4.5,1.9-6.7-0.7c-1.4-1.8-3-1.8-4-1.9
				c-4.4-0.7-4.8-2.2-8.1-4.5c-2.5-1.8-3.3-2.4-4-0.7c-0.3,0.9-0.7,2.4,1.9,4.2c2.7,1.9,3.8,2.3,3.2,3c-0.6,0.7-1.2,1-3.3-0.1
				c-5.8-3.3-5.8-10.3-9.1-8.8c-1.4,0.7,0.4,1,1.5,6.7c0.4,2.4,2.5,5.7,3.4,9.3c0.8,3.5,3.4,4.4,5.7,4.6c2.3,0.2,7.5-0.4,12.6-1.3
				c3.6-0.6,8.7-1,16.2-1.3c1.1-2.2,0.5-2.9-1.2-5.3C162.7,176.7,163,178.1,161.2,176.8z"/>
			<path class="st18" d="M148.8,195.9c-0.1,0.1-0.2,0.1-0.2,0.2C149.1,196,149.6,195.9,148.8,195.9z"/>
			<path class="st18" d="M163,189.5c-0.6,1.1-2.7,0.6-4.1,0.5c-1.4,0-2.5,0.7-3.8-0.8c-0.7-0.8,0-1-0.1-1.7c0,0-3.3,1.8-2.9,4.9
				c0.4,3.1-1.6,2-1.6,2l-0.3,0.3c0,0-0.8,0.8-1.5,1.3c0.8-0.1,0.3,0-0.2,0.2c-0.2,0.1-0.3,0.2-0.4,0.2c-0.1,0,0.1-0.1,0.4-0.2
				c0.1,0,0.2-0.1,0.2-0.2c-0.3,0-0.6,0.1-1.1,0.1c-1.5,0.2-2.1,3.1-0.4,4.7c2.2,2,0,0,2.6,1.5c2.6,1.5,3,2.5,7.4,2.1
				c1.1-0.1,1.9-1.8,2.2-2.9l1-0.8c1.6-1.1-0.7-1.5,0.6-2.2c1.3-0.7,1.8-0.8,1.2-2.2c-0.6-1.3,1,0.7,0.8-0.9c-0.4-3,1.6-3.8,0.8-4.4
				c-1.6,1.9-0.8-0.6,0,0C164.7,190.2,164.1,187.6,163,189.5z"/>
			<path class="st61" d="M163.9,191.1C163.1,190.5,162.3,193,163.9,191.1z"/>
			<path class="st62" d="M114.8,164.5c-2.4,2.9-4.7,5.9-6.3,9.4c-1.4,2.9,12.3-9.2,12-9.2C118.5,165,116.6,164.9,114.8,164.5z"/>
			<path class="st62" d="M142.5,138.4C142,138.8,142,139,142.5,138.4z"/>
			<path class="st62" d="M146.2,136.9c-1.9,0.3-3.1,1.1-3.7,1.6c-0.5,0.6-0.5,0.4,0,0c2.9-3.1,6.1-6,3.8-7.6
				c-1.4-0.9-0.8,2.2-6.3,5.3c-4.6,2.7-2.1,2.5-5.8,4.2c-1.1,0.5-4.7,4.8-7.3,9.5c-2.5,4.7-7.6,9.2-12.2,14.6
				c1.8,0.4,3.7,0.6,5.8,0.3c0.3-0.1-13.3,12-11.9,9.2c1.6-3.5,3.8-6.6,6.3-9.4c-5.2-1.2-9.1-4.5-9.1-4.5s-1.1,6.8-0.7,10.2
				c0.7,5.5,2,11.6,4.7,13.3c3.8,2.5,1.7,6.5,7.8,2.5c11.3-7.5,15.5-33.2,19.9-35.2c1.1-0.5,7.6,0.8,13.2-2.2c1.2,2.2,1.8,4.2,3,2
				c0.8-1.5,1-3.6-0.3-5.9c-1.6-2.9,2-2.1,1-3.8C152.2,137.2,151.1,136,146.2,136.9z"/>
			<path class="st9" d="M128.8,162.1c-0.3-0.1-0.5-0.2-0.8-0.3c-0.8-0.2-0.8-0.9-0.8-2.2c0-0.8-0.1-1.7-0.4-2.5
				c-0.3-0.7-0.7-1.2-1-1.8c-0.4-0.7-0.8-1.4-1-2l-0.1-0.3l-0.3,0.3c-1.4,1.9-3.2,3.7-5,5.7c-1.5,1.7-3.1,3.4-4.7,5.3
				c-5.1-1.2-8.9-4.4-8.9-4.4l-0.3-0.2l-0.1,0.3c-0.1,0.3-1.1,6.9-0.7,10.3c0.9,7.6,2.5,12,4.7,13.5c1.3,0.8,1.9,1.9,2.4,2.7
				c0.5,0.8,0.9,1.5,1.9,1.5c0.8,0,1.9-0.5,3.8-1.8c6.3-4.2,10.3-13.8,14-23.3l0.1-0.3h-0.3C130.5,162.7,129.5,162.4,128.8,162.1z"
				/>
			<path class="st9" d="M148.7,136.5c-0.7,0-1.5,0.1-2.5,0.3c-1.3,0.2-2.3,0.7-3,1.1c0.2-0.2,0.3-0.3,0.5-0.5
				c1.9-2.1,3.6-3.9,3.6-5.3c-0.1-0.5-0.3-0.9-0.8-1.3c-0.2-0.2-0.3-0.2-0.5-0.2c-0.3,0-0.6,0.3-1,0.9c-0.7,1-1.9,2.8-4.9,4.6
				c-2.3,1.4-2.8,2-3.2,2.5c-0.4,0.5-0.8,0.9-2.6,1.7c-1.1,0.5-4.7,4.8-7.4,9.6c-0.6,1.1-1.4,2.3-2.4,3.6v0.1c0.2,0.8,0.6,1.4,1,2.1
				c0.3,0.5,0.7,1.1,0.9,1.7c0.3,0.8,0.3,1.6,0.4,2.4c0.1,1.1,0.1,2.2,1.1,2.5c0.2,0.1,0.4,0.2,0.8,0.3c0.7,0.3,1.6,0.5,2.5,0.5
				c0.1,0,0.2,0,0.2,0c0.1,0,0.1,0,0.1-0.1c0.2-0.3,0.3-0.7,0.4-1.1c2.1-5.7,3.8-10.1,5.5-10.9c0.3-0.1,0.9-0.1,1.6-0.1
				c0.2,0,0.3,0,0.4,0c0.2,0,0.3,0,0.5,0c3.2,0,7-0.3,10.5-2c0.1,0.3,0.3,0.4,0.3,0.7c0.7,1.3,1.1,2.2,1.7,2.2c0.3,0,0.7-0.3,1.1-1
				c1-1.8,0.8-3.9-0.3-5.9c-0.8-1.5-0.2-2,0.5-2.4c0.5-0.3,1-0.6,0.6-1.4C152.7,137.8,151.6,136.5,148.7,136.5z"/>
			<g class="st30">
				<g class="st30">
					<g class="st30">
						<path class="st31" d="M119,157c-1.1,1.3-1.7,3.1-3.3,4.2c-1.6,1.1-2.4,1.5-4.1,3c-1.6,1.4-1.5,1.8-2.5,3.7
							c-0.9,1.9-1.5,2.9-1.3,4c0.3,1.1,0,2.1,0.8,0c0.8-2.1,6.1-7.7,6.1-7.7l7.4-8.3c0,0,0.2-1.2-0.1-1.8
							C121.9,153.5,120.1,155.8,119,157z"/>
					</g>
				</g>
			</g>
			<path class="st7" d="M161.2,38.8c0,4.9-5.3,8.9-11.9,8.9s-11.9-4-11.9-8.9c0-4.9,5.3-8.9,11.9-8.9S161.2,33.8,161.2,38.8z"/>
		</g>
	</g>
</g>
</svg>
