<svg width="32" height="32" viewBox="0 0 32 32" fill="none" xmlns="http://www.w3.org/2000/svg">
<mask id="path-1-inside-1_101_1330" fill="white">
<path d="M14.667 12H17.3337V9.33333H14.667M16.0003 26.6667C10.1203 26.6667 5.33366 21.88 5.33366 16C5.33366 10.12 10.1203 5.33333 16.0003 5.33333C21.8803 5.33333 26.667 10.12 26.667 16C26.667 21.88 21.8803 26.6667 16.0003 26.6667ZM16.0003 2.66667C14.2494 2.66667 12.5156 3.01154 10.8979 3.68161C9.2802 4.35167 7.81035 5.3338 6.57223 6.57191C4.07175 9.07239 2.66699 12.4638 2.66699 16C2.66699 19.5362 4.07175 22.9276 6.57223 25.4281C7.81035 26.6662 9.2802 27.6483 10.8979 28.3184C12.5156 28.9885 14.2494 29.3333 16.0003 29.3333C19.5365 29.3333 22.9279 27.9286 25.4284 25.4281C27.9289 22.9276 29.3337 19.5362 29.3337 16C29.3337 14.249 28.9888 12.5152 28.3187 10.8976C27.6487 9.27988 26.6665 7.81002 25.4284 6.57191C24.1903 5.3338 22.7204 4.35167 21.1028 3.68161C19.4851 3.01154 17.7513 2.66667 16.0003 2.66667ZM14.667 22.6667H17.3337V14.6667H14.667V22.6667Z"/>
</mask>
<path d="M14.667 12H17.3337V9.33333H14.667M16.0003 26.6667C10.1203 26.6667 5.33366 21.88 5.33366 16C5.33366 10.12 10.1203 5.33333 16.0003 5.33333C21.8803 5.33333 26.667 10.12 26.667 16C26.667 21.88 21.8803 26.6667 16.0003 26.6667ZM16.0003 2.66667C14.2494 2.66667 12.5156 3.01154 10.8979 3.68161C9.2802 4.35167 7.81035 5.3338 6.57223 6.57191C4.07175 9.07239 2.66699 12.4638 2.66699 16C2.66699 19.5362 4.07175 22.9276 6.57223 25.4281C7.81035 26.6662 9.2802 27.6483 10.8979 28.3184C12.5156 28.9885 14.2494 29.3333 16.0003 29.3333C19.5365 29.3333 22.9279 27.9286 25.4284 25.4281C27.9289 22.9276 29.3337 19.5362 29.3337 16C29.3337 14.249 28.9888 12.5152 28.3187 10.8976C27.6487 9.27988 26.6665 7.81002 25.4284 6.57191C24.1903 5.3338 22.7204 4.35167 21.1028 3.68161C19.4851 3.01154 17.7513 2.66667 16.0003 2.66667ZM14.667 22.6667H17.3337V14.6667H14.667V22.6667Z" fill="#808080"/>
<path d="M17.3337 12V12.3H17.6337V12H17.3337ZM17.3337 9.33333H17.6337V9.03333H17.3337V9.33333ZM2.66699 16H2.36699H2.66699ZM16.0003 29.3333V29.6333V29.3333ZM14.667 22.6667H14.367V22.9667H14.667V22.6667ZM17.3337 22.6667V22.9667H17.6337V22.6667H17.3337ZM17.3337 14.6667H17.6337V14.3667H17.3337V14.6667ZM14.667 14.6667V14.3667H14.367V14.6667H14.667ZM14.667 12.3H17.3337V11.7H14.667V12.3ZM17.6337 12V9.33333H17.0337V12H17.6337ZM17.3337 9.03333H14.667V9.63333H17.3337V9.03333ZM16.0003 26.3667C10.286 26.3667 5.63366 21.7143 5.63366 16H5.03366C5.03366 22.0457 9.95464 26.9667 16.0003 26.9667V26.3667ZM5.63366 16C5.63366 10.2857 10.286 5.63333 16.0003 5.63333V5.03333C9.95464 5.03333 5.03366 9.95431 5.03366 16H5.63366ZM16.0003 5.63333C21.7146 5.63333 26.367 10.2857 26.367 16H26.967C26.967 9.95431 22.046 5.03333 16.0003 5.03333V5.63333ZM26.367 16C26.367 21.7143 21.7146 26.3667 16.0003 26.3667V26.9667C22.046 26.9667 26.967 22.0457 26.967 16H26.367ZM16.0003 2.36667C14.21 2.36667 12.4371 2.7193 10.7831 3.40444L11.0127 3.95877C12.594 3.30378 14.2888 2.96667 16.0003 2.96667V2.36667ZM10.7831 3.40444C9.129 4.08958 7.62607 5.09381 6.3601 6.35978L6.78437 6.78404C7.99462 5.57378 9.43141 4.61376 11.0127 3.95877L10.7831 3.40444ZM6.3601 6.35978C3.80336 8.91652 2.36699 12.3842 2.36699 16H2.96699C2.96699 12.5433 4.34014 9.22827 6.78437 6.78404L6.3601 6.35978ZM2.36699 16C2.36699 19.6158 3.80336 23.0835 6.3601 25.6402L6.78437 25.216C4.34014 22.7717 2.96699 19.4567 2.96699 16H2.36699ZM6.3601 25.6402C7.62607 26.9062 9.129 27.9104 10.7831 28.5956L11.0127 28.0412C9.43141 27.3862 7.99462 26.4262 6.78437 25.216L6.3601 25.6402ZM10.7831 28.5956C12.4371 29.2807 14.21 29.6333 16.0003 29.6333V29.0333C14.2888 29.0333 12.594 28.6962 11.0127 28.0412L10.7831 28.5956ZM16.0003 29.6333C19.6161 29.6333 23.0838 28.197 25.6405 25.6402L25.2163 25.216C22.7721 27.6602 19.457 29.0333 16.0003 29.0333V29.6333ZM25.6405 25.6402C28.1973 23.0835 29.6337 19.6158 29.6337 16H29.0337C29.0337 19.4567 27.6605 22.7717 25.2163 25.216L25.6405 25.6402ZM29.6337 16C29.6337 14.2096 29.281 12.4368 28.5959 10.7827L28.0416 11.0124C28.6965 12.5936 29.0337 14.2884 29.0337 16H29.6337ZM28.5959 10.7827C27.9107 9.12868 26.9065 7.62575 25.6405 6.35978L25.2163 6.78404C26.4265 7.9943 27.3866 9.43108 28.0416 11.0124L28.5959 10.7827ZM25.6405 6.35978C24.3746 5.09381 22.8716 4.08958 21.2176 3.40444L20.988 3.95877C22.5692 4.61376 24.006 5.57378 25.2163 6.78404L25.6405 6.35978ZM21.2176 3.40444C19.5635 2.7193 17.7907 2.36667 16.0003 2.36667V2.96667C17.7119 2.96667 19.4067 3.30378 20.988 3.95877L21.2176 3.40444ZM14.667 22.9667H17.3337V22.3667H14.667V22.9667ZM17.6337 22.6667V14.6667H17.0337V22.6667H17.6337ZM17.3337 14.3667H14.667V14.9667H17.3337V14.3667ZM14.367 14.6667V22.6667H14.967V14.6667H14.367Z" fill="white" mask="url(#path-1-inside-1_101_1330)"/>
</svg>
