<svg width="275" height="210" viewBox="0 0 275 210" fill="none" xmlns="http://www.w3.org/2000/svg">
<path d="M137.498 209.404C196.394 209.404 244.138 206.555 244.138 203.041C244.138 199.527 196.394 196.679 137.498 196.679C78.603 196.679 30.8589 199.527 30.8589 203.041C30.8589 206.555 78.603 209.404 137.498 209.404Z" fill="#EBEBEB"/>
<path d="M168.98 31.7231H105.686C101.245 31.7231 97.6445 35.4022 97.6445 39.9406V194.818C97.6445 199.356 101.245 203.036 105.686 203.036H168.98C173.42 203.036 177.021 199.356 177.021 194.818V39.9406C177.021 35.4022 173.42 31.7231 168.98 31.7231Z" fill="black"/>
<path d="M142.554 195.194C142.555 195.919 142.345 196.627 141.952 197.229C141.559 197.832 141 198.302 140.346 198.58C139.691 198.857 138.971 198.93 138.276 198.789C137.581 198.648 136.942 198.299 136.441 197.787C135.94 197.275 135.599 196.623 135.461 195.913C135.323 195.202 135.395 194.466 135.666 193.797C135.938 193.128 136.398 192.557 136.987 192.155C137.577 191.754 138.27 191.54 138.979 191.541C139.927 191.541 140.836 191.926 141.506 192.611C142.177 193.296 142.554 194.226 142.554 195.194Z" fill="#F7C06E"/>
<path d="M178.507 189.838H99.5273V42.6216H179.057L178.507 189.838Z" fill="#F7C06E"/>
<path opacity="0.8" d="M179.378 190.101L99.6553 190.197V42.9745L179.306 42.8901L179.378 190.101Z" fill="white"/>
<path d="M161.977 48.7144H107.192C104.172 48.7144 101.725 51.2157 101.725 54.3013V87.7218C101.725 90.8074 104.172 93.3088 107.192 93.3088H161.977C164.996 93.3088 167.444 90.8074 167.444 87.7218V54.3013C167.444 51.2157 164.996 48.7144 161.977 48.7144Z" fill="white"/>
<path opacity="0.27" d="M114.599 65.8782C118.307 64.294 120.056 59.9381 118.506 56.1491C116.955 52.3601 112.693 50.5727 108.985 52.1569C105.278 53.7411 103.529 58.097 105.079 61.886C106.629 65.675 110.891 67.4624 114.599 65.8782Z" fill="#F7C06E"/>
<path d="M117.797 59.0172C117.802 60.0387 117.552 61.0445 117.071 61.94C116.373 63.2554 115.229 64.265 113.854 64.779C112.479 65.293 110.968 65.276 109.604 64.7312C108.241 64.1863 107.119 63.1512 106.449 61.8204C105.78 60.4897 105.61 58.9549 105.97 57.5046C106.33 56.0543 107.196 54.7885 108.406 53.945C109.615 53.1016 111.084 52.7387 112.537 52.9245C113.99 53.1103 115.326 53.832 116.295 54.954C117.264 56.076 117.798 57.521 117.797 59.0172Z" fill="white"/>
<path opacity="0.27" d="M117.072 61.9345C116.557 62.9062 115.794 63.7176 114.865 64.283C113.935 64.8485 112.874 65.147 111.792 65.147C110.711 65.147 109.649 64.8485 108.72 64.283C107.79 63.7176 107.028 62.9062 106.512 61.9345C108.075 60.868 109.913 60.2988 111.792 60.2988C113.672 60.2988 115.509 60.868 117.072 61.9345Z" fill="#F7C06E"/>
<path opacity="0.27" d="M111.794 59.641C113.27 59.641 114.467 58.418 114.467 56.9094C114.467 55.4007 113.27 54.1777 111.794 54.1777C110.318 54.1777 109.121 55.4007 109.121 56.9094C109.121 58.418 110.318 59.641 111.794 59.641Z" fill="#F7C06E"/>
<path d="M163.413 97.4287H105.756C103.53 97.4287 101.725 99.2733 101.725 101.549V108.917C101.725 111.193 103.53 113.037 105.756 113.037H163.413C165.639 113.037 167.444 111.193 167.444 108.917V101.549C167.444 99.2733 165.639 97.4287 163.413 97.4287Z" fill="white"/>
<path opacity="0.6" d="M178.614 114.549L186.386 136.436C186.586 137.009 186.557 137.639 186.304 138.189C186.052 138.74 185.597 139.166 185.038 139.376L144.267 154.49C143.707 154.695 143.091 154.666 142.552 154.409C142.014 154.152 141.596 153.688 141.39 153.118L133.619 131.226C133.417 130.654 133.446 130.024 133.698 129.474C133.951 128.924 134.407 128.499 134.966 128.292L175.738 113.172C176.298 112.967 176.915 112.997 177.454 113.255C177.992 113.513 178.41 113.978 178.614 114.549Z" fill="#F4D48E"/>
<path d="M177.382 113.223L165.728 132.822C164.649 134.639 162.994 136.025 161.038 136.75C159.083 137.475 156.944 137.495 154.975 136.807L133.734 129.399C133.99 128.878 134.431 128.476 134.966 128.275L175.738 113.155C176.275 112.965 176.862 112.989 177.382 113.223Z" fill="#F7A46B"/>
<path opacity="0.6" d="M165.828 152.168L165.454 171.886C165.442 172.4 165.232 172.889 164.87 173.246C164.507 173.603 164.021 173.799 163.518 173.791L126.783 173.061C126.534 173.055 126.288 173 126.06 172.898C125.832 172.796 125.625 172.649 125.453 172.465C125.28 172.281 125.144 172.064 125.054 171.827C124.963 171.59 124.919 171.337 124.924 171.082L125.293 151.365C125.299 151.098 125.359 150.836 125.468 150.593C125.576 150.351 125.732 150.133 125.925 149.954C126.283 149.627 126.749 149.45 127.229 149.459L163.963 150.184C164.467 150.196 164.947 150.412 165.296 150.783C165.645 151.155 165.837 151.653 165.828 152.168Z" fill="#F4D48E"/>
<path d="M165.252 150.735L150.204 162.606C148.808 163.706 147.087 164.286 145.325 164.252C143.563 164.217 141.866 163.569 140.513 162.415L125.954 149.954C126.312 149.627 126.778 149.45 127.258 149.459L163.992 150.184C164.464 150.202 164.913 150.398 165.252 150.735Z" fill="#F7A46B"/>
<path d="M128.772 36.0679C128.774 35.8125 128.849 35.5631 128.988 35.3512C129.128 35.1394 129.326 34.9745 129.557 34.8776C129.788 34.7806 130.043 34.7558 130.288 34.8063C130.533 34.8568 130.758 34.9804 130.934 35.1614C131.11 35.3424 131.23 35.5728 131.279 35.8234C131.327 36.074 131.302 36.3336 131.206 36.5695C131.11 36.8054 130.948 37.007 130.74 37.1488C130.532 37.2906 130.287 37.3663 130.037 37.3663C129.871 37.3663 129.706 37.3326 129.552 37.2673C129.398 37.202 129.259 37.1063 129.141 36.9856C129.023 36.865 128.93 36.7218 128.867 36.5643C128.804 36.4068 128.772 36.2381 128.772 36.0679Z" fill="#F4D48E"/>
<path d="M134.408 34.7754H144.919C145.254 34.7769 145.575 34.9135 145.811 35.1557C146.048 35.3978 146.182 35.7257 146.184 36.0681C146.184 36.4115 146.05 36.7409 145.813 36.9842C145.576 37.2276 145.255 37.365 144.919 37.3665H134.408C134.072 37.365 133.75 37.2276 133.513 36.9842C133.276 36.7409 133.143 36.4115 133.143 36.0681C133.145 35.7257 133.278 35.3978 133.515 35.1557C133.752 34.9135 134.073 34.7769 134.408 34.7754Z" fill="#F4D48E"/>
<path d="M179.258 60.8213H174.016C172.798 60.8213 171.811 61.8304 171.811 63.0752V79.392C171.811 80.6368 172.798 81.6459 174.016 81.6459H179.258C180.476 81.6459 181.463 80.6368 181.463 79.392V63.0752C181.463 61.8304 180.476 60.8213 179.258 60.8213Z" fill="#F7A46B"/>
<path d="M179.808 87.6543H173.466C172.552 87.6543 171.811 88.4118 171.811 89.3461V97.7097C171.811 98.644 172.552 99.4015 173.466 99.4015H179.808C180.722 99.4015 181.463 98.644 181.463 97.7097V89.3461C181.463 88.4118 180.722 87.6543 179.808 87.6543Z" fill="#F7A46B"/>
<path d="M109.436 185.724L113.479 186.123L117.686 176.292L113.644 175.888L109.436 185.724Z" fill="#E4897B"/>
<path d="M68.4062 155.614L70.7107 159.183L79.5437 154.872L77.2337 151.297L68.4062 155.614Z" fill="#E4897B"/>
<path d="M117.692 176.292L115.525 181.362H111.306L113.644 175.888L117.692 176.292Z" fill="#CE6F64"/>
<path d="M77.2322 151.303L79.5367 154.872L74.9882 157.092L72.6782 153.523L77.2322 151.303Z" fill="#CE6F64"/>
<path d="M154.896 85.1082L155.028 85.4117L155.199 85.7658C155.309 86.0019 155.435 86.2436 155.562 86.4852C155.82 86.963 156.112 87.4464 156.387 87.9073C156.966 88.8508 157.603 89.7557 158.295 90.6164C158.999 91.4689 159.75 92.2795 160.545 93.0446C160.957 93.4155 161.359 93.7977 161.788 94.1687L162.431 94.6858L162.58 94.8095C162.51 94.7872 162.438 94.7722 162.365 94.7645C162.206 94.7478 162.045 94.7729 161.898 94.8376C161.808 94.8643 161.728 94.917 161.667 94.9893C161.628 95.0455 161.727 94.9556 161.81 94.8095C162.027 94.3996 162.199 93.966 162.321 93.5167C162.623 92.4251 162.86 91.3158 163.031 90.1949C163.218 89.037 163.372 87.8511 163.493 86.6651C163.614 85.4791 163.74 84.2707 163.85 83.0904L165.973 83.0566C166.105 84.3101 166.16 85.5297 166.21 86.7775C166.259 88.0253 166.237 89.2619 166.21 90.5265C166.161 91.8268 166.016 93.1214 165.775 94.3991C165.636 95.1353 165.412 95.8521 165.11 96.535C164.89 97.0183 164.588 97.4579 164.219 97.8334C163.932 98.1089 163.596 98.3246 163.229 98.4685C162.801 98.6323 162.341 98.69 161.887 98.6371C161.518 98.5877 161.161 98.4736 160.831 98.2999C160.698 98.232 160.57 98.1569 160.446 98.0751L160.237 97.9346L159.434 97.3725C158.884 97.0015 158.4 96.5912 157.899 96.1809C156.91 95.3364 155.981 94.4197 155.122 93.438C154.268 92.4476 153.484 91.3978 152.773 90.2961C152.421 89.734 152.097 89.1719 151.783 88.6099C151.629 88.312 151.481 88.0197 151.338 87.7106L151.129 87.2328C151.057 87.0642 151.002 86.9293 150.914 86.6988L154.896 85.1082Z" fill="#E4897B"/>
<path d="M156.759 88.0142L153.062 93.2245L154.591 94.759L158.524 89.9252L156.759 88.0142Z" fill="#F5F5F5"/>
<path d="M150.962 81.1402C155.125 82.2644 157.996 88.2335 157.996 88.2335L153.189 95.1188C153.189 95.1188 147.403 87.6827 147.552 85.3332C147.695 82.8714 148.454 80.4489 150.962 81.1402Z" fill="#F7C06E"/>
<path d="M154.551 83.3378C154.551 83.3378 155.921 84.9902 140.07 104.595L125.401 95.8156C129.141 89.8633 131.303 86.1031 135.62 71.8716C137.926 72.6643 140.173 73.628 142.341 74.755C144.643 75.9398 146.869 77.2707 149.007 78.74C151.713 80.7185 154.551 83.3378 154.551 83.3378Z" fill="#F7C06E"/>
<path d="M152.651 81.6458C151.617 80.769 150.292 79.6842 149.01 78.7399C146.883 77.252 144.656 75.9203 142.344 74.7549C141.046 74.0635 139.715 73.4565 138.582 72.9956C138.401 73.3047 138.549 74.249 139.105 75.6317C141.217 78.4139 146.123 82.5114 150.215 83.3264C152.118 83.0454 152.712 82.4271 152.651 81.6458Z" fill="#F5F5F5"/>
<path d="M139.098 75.6318C140.33 78.4386 141.971 81.0386 143.965 83.3434C146.041 83.5552 148.132 83.5552 150.208 83.3434C146.116 82.5115 141.21 78.4141 139.098 75.6318Z" fill="#F5F5F5"/>
<path d="M140.089 104.595C140.089 104.595 140.325 143.108 133.643 154.226C126.691 165.787 117.627 179.89 117.627 179.89L109.778 179.502C109.778 179.502 118.93 158.638 122.384 148.953C127.142 135.604 129.342 98.165 129.342 98.165L140.089 104.595Z" fill="#B7C0A9"/>
<path opacity="0.2" d="M131.735 105.668C130.464 106.77 129.371 108.069 128.496 109.519C128.248 112.385 127.946 115.606 127.599 118.978C129.992 115.656 131.884 109.828 131.735 105.668Z" fill="black"/>
<path d="M136.209 102.296C136.209 102.296 119.604 126.386 109.259 139.393C100.899 149.875 76.6986 157.379 76.6986 157.379L73.7451 152.32C73.7451 152.32 92.9951 141.337 98.7371 134.244C117.118 111.537 116.887 99.7613 125.423 95.8774L136.209 102.296Z" fill="#B7C0A9"/>
<path d="M163.9 83.6186L162.8 79.1221L166.996 80.3699C166.996 80.3699 166.881 83.3938 165.429 84.3774L163.9 83.6186Z" fill="#E4897B"/>
<path d="M164.136 75.5137L167.084 77.0369L167.013 80.3924L162.816 79.1446L164.136 75.5137Z" fill="#E4897B"/>
<path d="M111.418 77.1665L107.568 74.7496L111.418 72.6475C111.418 72.6475 113.393 74.8957 113.03 76.6381L111.418 77.1665Z" fill="#E4897B"/>
<path d="M106.046 71.2026L109.197 70.1909L111.441 72.6471L107.575 74.7493L106.046 71.2026Z" fill="#E4897B"/>
<path d="M71.6769 158.806L70.3074 154.209C70.2833 154.13 70.2322 154.063 70.1635 154.019C70.0948 153.976 70.0131 153.959 69.9334 153.973L66.2209 154.535C66.1279 154.553 66.0397 154.59 65.962 154.646C65.8843 154.701 65.8189 154.772 65.7701 154.855C65.7213 154.938 65.6901 155.03 65.6787 155.126C65.6673 155.222 65.6759 155.319 65.7039 155.412C66.2099 157.002 66.5289 157.75 67.1339 159.768C67.5024 161.015 68.1459 163.82 68.6574 165.54C69.1689 167.26 70.8574 166.833 70.7969 166.068C70.5164 162.651 71.0664 160.903 71.6329 159.548C71.7294 159.313 71.745 159.052 71.6769 158.806Z" fill="#263238"/>
<path d="M114.021 184.847H109.071C108.982 184.848 108.895 184.878 108.825 184.934C108.754 184.99 108.703 185.068 108.681 185.156L107.581 189.175C107.554 189.27 107.549 189.369 107.567 189.466C107.585 189.563 107.625 189.654 107.684 189.732C107.743 189.81 107.819 189.872 107.906 189.914C107.994 189.956 108.089 189.976 108.186 189.973C109.924 189.945 110.771 189.844 112.954 189.844C114.296 189.844 117.772 189.984 119.626 189.984C121.479 189.984 121.826 188.107 121.072 187.939C117.701 187.18 115.765 186.129 114.725 185.128C114.534 184.947 114.282 184.846 114.021 184.847Z" fill="#263238"/>
<path d="M125.694 94.8037L124.264 95.7536C124.154 95.8267 124.215 96.0066 124.385 96.1077L139.785 105.309C139.917 105.387 140.066 105.387 140.121 105.309L141.023 104.044C141.083 103.954 141.023 103.808 140.869 103.724L126.019 94.8375C125.973 94.8014 125.919 94.7791 125.861 94.7731C125.804 94.7671 125.746 94.7777 125.694 94.8037Z" fill="#263238"/>
<path d="M134.414 78.3187C133.374 79.1675 132.384 79.8532 131.334 80.567C130.283 81.2808 129.216 81.8935 128.116 82.5005C125.909 83.735 123.585 84.7387 121.181 85.4963C120.884 85.6031 120.565 85.6762 120.262 85.7605C119.96 85.8448 119.668 85.9291 119.305 86.0078C118.517 86.1886 117.704 86.2304 116.902 86.1315C116.051 86.0281 115.233 85.7365 114.504 85.2771C113.826 84.8392 113.232 84.2793 112.749 83.6247C111.935 82.4649 111.352 81.1529 111.033 79.7633C110.87 79.1226 110.753 78.4708 110.681 77.8129C110.594 77.1572 110.552 76.4961 110.555 75.8344L112.667 75.6489C112.922 76.7461 113.266 77.8197 113.695 78.8583C114.069 79.8098 114.612 80.6825 115.296 81.4326C115.541 81.7153 115.84 81.9439 116.175 82.1043C116.51 82.2648 116.873 82.3537 117.243 82.3656C117.631 82.3626 118.017 82.3001 118.387 82.1801C118.865 82.0228 119.426 81.8429 119.938 81.6518C122.055 80.8384 124.102 79.8477 126.059 78.6897C127.06 78.1276 128.017 77.4813 128.985 76.8574C129.953 76.2335 130.905 75.5309 131.735 74.8901L134.414 78.3187Z" fill="#E4897B"/>
<path d="M127.611 76.8462L129.514 82.7254L131.302 81.6294L129.63 75.8008L127.611 76.8462Z" fill="#F5F5F5"/>
<path d="M72.0979 161.218C72.0053 161.217 71.9145 161.191 71.8339 161.145C71.3774 160.864 71.2509 159.869 71.2124 159.301C71.2121 159.282 71.2171 159.262 71.2268 159.246C71.2365 159.229 71.2506 159.215 71.2674 159.206C71.2843 159.196 71.3032 159.191 71.3224 159.191C71.3416 159.191 71.3605 159.196 71.3774 159.206C71.5094 159.318 72.6644 160.33 72.5929 160.858C72.5854 160.919 72.562 160.977 72.5252 161.025C72.4885 161.073 72.4397 161.111 72.3839 161.134C72.2966 161.185 72.1985 161.214 72.0979 161.218ZM71.4324 159.532C71.5039 160.29 71.6854 160.819 71.9329 160.971C71.9897 161.001 72.053 161.017 72.1172 161.017C72.1814 161.017 72.2446 161.001 72.3014 160.971C72.3784 160.931 72.3949 160.886 72.3949 160.847C72.4334 160.56 71.8834 159.948 71.4324 159.532Z" fill="#407BFF"/>
<path d="M72.7963 159.998C72.2316 159.949 71.6938 159.73 71.2507 159.369C71.242 159.354 71.2373 159.338 71.2373 159.321C71.2373 159.304 71.242 159.287 71.2507 159.273C71.2547 159.256 71.2628 159.241 71.2744 159.228C71.2859 159.215 71.3005 159.205 71.3168 159.2C71.3663 159.2 72.5212 158.829 73.0382 159.155C73.1036 159.195 73.1597 159.248 73.2025 159.312C73.2453 159.376 73.2737 159.449 73.2858 159.526C73.3081 159.603 73.3039 159.686 73.2739 159.761C73.2439 159.835 73.1899 159.897 73.1208 159.936C73.0192 159.984 72.9077 160.005 72.7963 159.998ZM71.5313 159.341C71.9548 159.638 72.7413 159.903 72.9998 159.756C73.0383 159.756 73.0878 159.689 73.0658 159.56C73.0578 159.512 73.0393 159.466 73.0117 159.426C72.9841 159.386 72.948 159.353 72.9063 159.329C72.4579 159.187 71.9773 159.191 71.5313 159.341Z" fill="#407BFF"/>
<path d="M116.218 185.684C115.76 185.675 115.305 185.617 114.859 185.51C114.839 185.505 114.821 185.493 114.807 185.477C114.794 185.461 114.785 185.441 114.782 185.42C114.782 185.399 114.788 185.379 114.798 185.361C114.809 185.343 114.824 185.329 114.843 185.319C115.173 185.156 116.867 184.375 117.318 184.684C117.361 184.715 117.395 184.758 117.416 184.807C117.438 184.857 117.445 184.911 117.439 184.965C117.436 185.06 117.413 185.152 117.37 185.236C117.327 185.32 117.266 185.393 117.191 185.448C116.898 185.628 116.558 185.711 116.218 185.684ZM115.206 185.375C115.756 185.476 116.68 185.589 117.07 185.285C117.123 185.247 117.166 185.197 117.196 185.138C117.226 185.079 117.241 185.014 117.241 184.948C117.244 184.931 117.243 184.913 117.237 184.896C117.231 184.879 117.221 184.864 117.208 184.853C116.96 184.684 115.943 185.044 115.206 185.375Z" fill="#407BFF"/>
<path d="M114.887 185.51C114.868 185.518 114.846 185.518 114.827 185.51C114.811 185.499 114.8 185.483 114.794 185.465C114.788 185.447 114.788 185.427 114.794 185.409C114.794 185.33 115.223 183.492 116.213 183.622C116.471 183.65 116.537 183.785 116.554 183.886C116.62 184.369 115.487 185.291 114.904 185.527L114.887 185.51ZM116.125 183.796C115.531 183.796 115.173 184.78 115.025 185.224C115.575 184.903 116.378 184.173 116.339 183.892C116.339 183.847 116.279 183.813 116.174 183.802L116.125 183.796Z" fill="#407BFF"/>
<path d="M126.717 97.6983L126.321 97.4622C126.244 97.4116 126.205 97.333 126.238 97.288L127.426 95.6524C127.459 95.6074 127.553 95.6074 127.63 95.6524L128.031 95.8941C128.108 95.939 128.147 96.0177 128.114 96.0627L126.926 97.6983C126.893 97.7433 126.799 97.7433 126.717 97.6983Z" fill="#407BFF"/>
<path d="M138.57 104.786L138.174 104.545C138.097 104.5 138.059 104.421 138.092 104.376L139.28 102.74C139.313 102.695 139.406 102.695 139.483 102.74L139.885 102.976C139.962 103.027 140 103.106 139.962 103.151L138.779 104.786C138.746 104.831 138.653 104.831 138.57 104.786Z" fill="#407BFF"/>
<path d="M132.644 101.24L132.242 101.004C132.165 100.959 132.127 100.88 132.165 100.83L133.348 99.1996C133.386 99.149 133.474 99.149 133.557 99.1996L133.953 99.4356C134.035 99.4806 134.068 99.5593 134.035 99.6099L132.847 101.24C132.814 101.29 132.721 101.29 132.644 101.24Z" fill="#407BFF"/>
<path opacity="0.4" d="M126.717 97.6983L126.321 97.4622C126.244 97.4116 126.205 97.333 126.238 97.288L127.426 95.6524C127.459 95.6074 127.553 95.6074 127.63 95.6524L128.031 95.8941C128.108 95.939 128.147 96.0177 128.114 96.0627L126.926 97.6983C126.893 97.7433 126.799 97.7433 126.717 97.6983Z" fill="black"/>
<path opacity="0.4" d="M138.57 104.786L138.174 104.545C138.097 104.5 138.059 104.421 138.092 104.376L139.28 102.74C139.313 102.695 139.406 102.695 139.483 102.74L139.885 102.976C139.962 103.027 140 103.106 139.962 103.151L138.779 104.786C138.746 104.831 138.653 104.831 138.57 104.786Z" fill="black"/>
<path opacity="0.4" d="M132.644 101.24L132.242 101.004C132.165 100.959 132.127 100.88 132.165 100.83L133.348 99.1996C133.386 99.149 133.474 99.149 133.557 99.1996L133.953 99.4356C134.035 99.4806 134.068 99.5593 134.035 99.6099L132.847 101.24C132.814 101.29 132.721 101.29 132.644 101.24Z" fill="black"/>
<path d="M143.65 75.879C143.65 72.5066 142.549 59.2362 147.961 58.112C149.672 56.2685 158.148 56.0774 159.446 60.765C161.162 66.9196 158.621 81.9381 158.621 81.9381L143.65 75.879Z" fill="#263238"/>
<path d="M159.751 81.9718C159.733 81.9697 159.715 81.964 159.699 81.9549C159.683 81.9458 159.669 81.9336 159.658 81.919C159.647 81.9043 159.638 81.8876 159.633 81.8696C159.629 81.8517 159.627 81.8329 159.63 81.8144C159.63 81.6627 161.417 66.6386 159.443 60.6919C158.893 59.0619 157.364 57.921 155.098 57.4713C152.15 56.8811 148.96 57.6174 148.074 58.6629C148.048 58.6886 148.014 58.7031 147.978 58.7031C147.942 58.7031 147.907 58.6886 147.882 58.6629C147.856 58.6357 147.842 58.5994 147.842 58.5617C147.842 58.524 147.856 58.4877 147.882 58.4605C148.916 57.2352 152.386 56.6226 155.169 57.179C157.534 57.6455 159.151 58.8652 159.723 60.5851C161.714 66.6049 159.938 81.6795 159.921 81.8313C159.921 81.8526 159.916 81.8736 159.907 81.8927C159.897 81.9119 159.884 81.9288 159.868 81.9422C159.852 81.9555 159.833 81.9651 159.812 81.9703C159.792 81.9754 159.771 81.9759 159.751 81.9718Z" fill="#263238"/>
<path d="M147.402 67.4873C146.571 69.9267 144.69 74.1928 142.353 74.7548C142.353 74.7548 141.665 77.3291 145.653 79.7123C150.053 82.3315 149.019 78.7399 149.019 78.7399C146.962 76.7277 148.056 74.9516 149.448 73.5014L147.402 67.4873Z" fill="#E4897B"/>
<path d="M148.229 69.938L149.439 73.4959C149.112 73.8318 148.812 74.1947 148.543 74.5807C147.707 73.9006 146.81 72.2425 147.272 71.2083C147.514 70.7297 147.839 70.2994 148.229 69.938Z" fill="#CE6F64"/>
<path d="M147.436 62.626C146.297 66.7122 145.731 68.4153 147.001 71.175C148.91 75.3343 154.063 75.8683 156.351 72.2148C158.43 68.9268 159.937 62.8002 156.659 59.8494C155.94 59.196 155.071 58.7404 154.132 58.5256C153.193 58.3108 152.216 58.3439 151.293 58.6217C150.371 58.8995 149.532 59.4129 148.857 60.1134C148.182 60.814 147.693 61.6787 147.436 62.626Z" fill="#E4897B"/>
<path d="M146.259 65.1999C149.102 66.2847 155.785 62.6818 157.605 60.4729C157.847 57.0668 150.032 58.4101 150.032 58.4101C150.032 58.4101 145.863 57.1005 146.259 65.1999Z" fill="#263238"/>
<path d="M145.588 66.015C145.402 66.8135 145.535 67.6544 145.956 68.3532C146.506 69.2749 147.518 68.9152 147.958 68.0047C148.354 67.1728 148.536 65.6833 147.683 65.0819C147.493 64.9543 147.276 64.8771 147.05 64.8572C146.823 64.8373 146.596 64.8754 146.388 64.9681C146.18 65.0607 145.998 65.205 145.858 65.3878C145.718 65.5706 145.625 65.7862 145.588 66.015Z" fill="#E4897B"/>
<path d="M152.98 65.8801C152.865 66.2061 152.942 66.5321 153.151 66.6052C153.36 66.6783 153.618 66.4759 153.734 66.1499C153.849 65.8239 153.767 65.5036 153.558 65.4249C153.349 65.3462 153.09 65.5542 152.98 65.8801Z" fill="#263238"/>
<path d="M156.579 67.1782C156.469 67.5042 156.546 67.8246 156.755 67.9033C156.964 67.9819 157.223 67.774 157.333 67.448C157.443 67.122 157.366 66.796 157.162 66.7229C156.959 66.6499 156.695 66.8522 156.579 67.1782Z" fill="#263238"/>
<path d="M157.062 66.7061L157.903 66.7566C157.903 66.7566 157.298 67.2288 157.062 66.7061Z" fill="#263238"/>
<path d="M155.438 67.3921C155.468 68.2357 155.608 69.0713 155.856 69.8764C155.653 69.9373 155.44 69.9518 155.231 69.9187C155.021 69.8857 154.822 69.806 154.646 69.6853L155.438 67.3921Z" fill="#DE5753"/>
<path d="M153.116 70.573H153.083C152.651 70.4297 152.259 70.183 151.94 69.8535C151.62 69.524 151.382 69.1213 151.246 68.6788C151.241 68.6521 151.246 68.6244 151.26 68.6014C151.275 68.5784 151.297 68.5619 151.323 68.5552C151.336 68.5519 151.349 68.5514 151.362 68.5536C151.375 68.5559 151.387 68.5609 151.398 68.5683C151.409 68.5757 151.418 68.5854 151.425 68.5967C151.432 68.608 151.437 68.6206 151.439 68.6339C151.572 69.0407 151.796 69.4103 152.092 69.7136C152.389 70.017 152.751 70.2457 153.149 70.3819C153.171 70.3898 153.19 70.4054 153.202 70.426C153.214 70.4467 153.218 70.4709 153.214 70.4945C153.21 70.5181 153.198 70.5396 153.18 70.555C153.162 70.5703 153.139 70.5787 153.116 70.5786V70.573Z" fill="#263238"/>
<path d="M152.822 64.5926C152.777 64.5932 152.734 64.5785 152.698 64.5506C152.663 64.5228 152.638 64.4836 152.627 64.4394C152.616 64.3951 152.62 64.3484 152.639 64.3068C152.657 64.2653 152.689 64.2313 152.728 64.2104C153.002 64.0525 153.308 63.9635 153.622 63.9508C153.936 63.9381 154.248 64.002 154.532 64.1373C154.558 64.1481 154.581 64.1642 154.601 64.1847C154.62 64.2052 154.635 64.2297 154.644 64.2564C154.653 64.2831 154.657 64.3116 154.655 64.3399C154.653 64.3682 154.645 64.3957 154.632 64.4207C154.619 64.4457 154.6 64.4676 154.578 64.4849C154.556 64.5022 154.531 64.5146 154.504 64.5213C154.477 64.528 154.449 64.5288 154.422 64.5236C154.394 64.5185 154.368 64.5075 154.345 64.4914C154.118 64.3884 153.87 64.3418 153.621 64.3555C153.373 64.3692 153.131 64.4427 152.915 64.5701C152.887 64.5856 152.854 64.5933 152.822 64.5926Z" fill="#263238"/>
<path d="M158.864 66.0821C158.82 66.082 158.778 66.0669 158.745 66.0394C158.711 66.0118 158.687 65.9734 158.677 65.9303C158.622 65.6829 158.51 65.4523 158.351 65.257C158.193 65.0617 157.992 64.9073 157.764 64.8062C157.714 64.7882 157.673 64.7513 157.649 64.703C157.626 64.6548 157.621 64.5991 157.637 64.5476C157.645 64.522 157.658 64.4984 157.676 64.4781C157.693 64.4579 157.714 64.4415 157.738 64.4299C157.761 64.4183 157.787 64.4118 157.813 64.4108C157.84 64.4098 157.866 64.4142 157.89 64.424C158.181 64.5461 158.439 64.7381 158.642 64.9837C158.845 65.2292 158.987 65.5212 159.056 65.8347C159.063 65.8606 159.064 65.8875 159.061 65.9139C159.057 65.9404 159.048 65.9658 159.035 65.9888C159.022 66.0118 159.004 66.0319 158.983 66.0479C158.962 66.0639 158.939 66.0755 158.913 66.0821H158.864Z" fill="#263238"/>
<path d="M153.449 65.4136L154.291 65.4642C154.291 65.4642 153.702 65.9307 153.449 65.4136Z" fill="#263238"/>
<path d="M135.629 71.8719C133.897 71.4503 128.567 75.5984 128.567 75.5984L130.828 82.9671C130.828 82.9671 136.399 79.8139 136.916 77.4926C137.428 75.0869 137.604 72.3553 135.629 71.8719Z" fill="#F7C06E"/>
<path d="M199.101 24.9785H158.291C156.541 24.9785 154.862 25.6891 153.625 26.954C152.387 28.2189 151.691 29.9345 151.691 31.7233V44.6509C151.691 46.4397 152.387 48.1553 153.625 49.4202C154.862 50.6851 156.541 51.3957 158.291 51.3957H161.701V58.0281L168.191 51.3957H199.101C200.852 51.3957 202.531 50.6851 203.768 49.4202C205.006 48.1553 205.701 46.4397 205.701 44.6509V31.7233C205.701 29.9345 205.006 28.2189 203.768 26.954C202.531 25.6891 200.852 24.9785 199.101 24.9785Z" fill="#F7C06E"/>
<g opacity="0.54">
<path opacity="0.54" d="M198.146 30.3516H159.239C158.404 30.3516 157.727 31.0436 157.727 31.8972C157.727 32.7509 158.404 33.4429 159.239 33.4429H198.146C198.981 33.4429 199.659 32.7509 199.659 31.8972C199.659 31.0436 198.981 30.3516 198.146 30.3516Z" fill="#F5F5F5"/>
</g>
<g opacity="0.54">
<path opacity="0.54" d="M198.14 39.5867H173.203C172.8 39.5853 172.415 39.4213 172.131 39.1307C171.846 38.8401 171.686 38.4464 171.685 38.0354C171.686 37.625 171.847 37.2318 172.131 36.9421C172.416 36.6524 172.801 36.4897 173.203 36.4897H198.14C198.541 36.4897 198.925 36.6526 199.209 36.9425C199.493 37.2323 199.652 37.6255 199.652 38.0354C199.652 38.4459 199.493 38.8396 199.209 39.1304C198.926 39.4212 198.541 39.5852 198.14 39.5867Z" fill="#F5F5F5"/>
</g>
<g opacity="0.54">
<path opacity="0.54" d="M165.801 39.5867H159.239C158.837 39.5852 158.453 39.4212 158.169 39.1304C157.886 38.8396 157.727 38.4459 157.727 38.0354C157.727 37.6255 157.886 37.2323 158.17 36.9425C158.453 36.6526 158.838 36.4897 159.239 36.4897H165.801C166.202 36.4897 166.586 36.6526 166.87 36.9425C167.154 37.2323 167.313 37.6255 167.313 38.0354C167.313 38.4459 167.154 38.8396 166.87 39.1304C166.587 39.4212 166.202 39.5852 165.801 39.5867Z" fill="#F5F5F5"/>
</g>
<g opacity="0.54">
<path opacity="0.54" d="M188.428 45.7244H159.239C158.838 45.7244 158.453 45.5616 158.17 45.2717C157.886 44.9818 157.727 44.5887 157.727 44.1788C157.727 43.7683 157.886 43.3746 158.169 43.0838C158.453 42.793 158.837 42.6289 159.239 42.6274H188.428C188.829 42.6289 189.214 42.793 189.497 43.0838C189.781 43.3746 189.94 43.7683 189.94 44.1788C189.94 44.5887 189.781 44.9818 189.497 45.2717C189.213 45.5616 188.829 45.7244 188.428 45.7244Z" fill="#F5F5F5"/>
</g>
</svg>
