<svg width="96" height="136" viewBox="0 0 96 136" fill="none" xmlns="http://www.w3.org/2000/svg">
<path d="M81.9569 0.147736H31.782C28.2616 0.147736 25.4077 3.06423 25.4077 6.66191V129.438C25.4077 133.035 28.2616 135.952 31.782 135.952H81.9569C85.4774 135.952 88.3312 133.035 88.3312 129.438V6.66191C88.3312 3.06423 85.4774 0.147736 81.9569 0.147736Z" fill="black"/>
<path d="M61.0073 129.736C61.0082 130.31 60.8423 130.872 60.5308 131.349C60.2192 131.827 59.776 132.199 59.2571 132.42C58.7383 132.64 58.1673 132.697 57.6163 132.586C57.0653 132.474 56.5591 132.198 56.1619 131.792C55.7647 131.386 55.4943 130.868 55.3849 130.305C55.2755 129.742 55.3321 129.159 55.5475 128.628C55.7628 128.098 56.1273 127.645 56.5947 127.327C57.0622 127.009 57.6115 126.839 58.1733 126.84C58.9249 126.84 59.6457 127.145 60.1772 127.688C60.7087 128.231 61.0073 128.968 61.0073 129.736Z" fill="#F7C06E"/>
<path d="M89.509 125.49H26.8994V8.78723H89.945L89.509 125.49Z" fill="#F7C06E"/>
<path opacity="0.8" d="M90.1992 125.698L27.001 125.774V9.06684L90.1425 9L90.1992 125.698Z" fill="white"/>
<path d="M76.4059 13.6172H32.9759C30.5824 13.6172 28.6421 15.6001 28.6421 18.0461V44.5395C28.6421 46.9855 30.5824 48.9684 32.9759 48.9684H76.4059C78.7994 48.9684 80.7397 46.9855 80.7397 44.5395V18.0461C80.7397 15.6001 78.7994 13.6172 76.4059 13.6172Z" fill="white"/>
<path opacity="0.27" d="M38.8472 27.2235C41.7864 25.9677 43.1729 22.5147 41.944 19.511C40.7151 16.5074 37.3362 15.0905 34.397 16.3463C31.4579 17.6021 30.0714 21.0552 31.3003 24.0588C32.5292 27.0625 35.908 28.4794 38.8472 27.2235Z" fill="#F7C06E"/>
<path d="M41.3831 21.7844C41.3867 22.5941 41.1886 23.3914 40.8076 24.1014C40.2544 25.1441 39.3475 25.9445 38.2575 26.3519C37.1675 26.7594 35.9693 26.7459 34.8883 26.314C33.8074 25.8821 32.918 25.0615 32.3874 24.0066C31.8568 22.9516 31.7216 21.735 32.0072 20.5853C32.2928 19.4356 32.9795 18.4321 33.9382 17.7635C34.8969 17.0949 36.0615 16.8072 37.2132 16.9545C38.3649 17.1018 39.4243 17.674 40.1921 18.5634C40.96 19.4528 41.3836 20.5983 41.3831 21.7844Z" fill="white"/>
<path opacity="0.27" d="M40.8082 24.0969C40.3996 24.8672 39.795 25.5104 39.0582 25.9587C38.3215 26.4069 37.48 26.6435 36.6226 26.6435C35.7652 26.6435 34.9237 26.4069 34.187 25.9587C33.4503 25.5104 32.8457 24.8672 32.437 24.0969C33.6762 23.2515 35.1327 22.8003 36.6226 22.8003C38.1125 22.8003 39.569 23.2515 40.8082 24.0969Z" fill="#F7C06E"/>
<path opacity="0.27" d="M36.6234 22.279C37.7936 22.279 38.7423 21.3095 38.7423 20.1135C38.7423 18.9176 37.7936 17.9481 36.6234 17.9481C35.4531 17.9481 34.5044 18.9176 34.5044 20.1135C34.5044 21.3095 35.4531 22.279 36.6234 22.279Z" fill="#F7C06E"/>
<path d="M77.5438 52.2344H31.838C30.0729 52.2344 28.6421 53.6966 28.6421 55.5004V61.3417C28.6421 63.1455 30.0729 64.6077 31.838 64.6077H77.5438C79.3089 64.6077 80.7397 63.1455 80.7397 61.3417V55.5004C80.7397 53.6966 79.3089 52.2344 77.5438 52.2344Z" fill="white"/>
<path opacity="0.6" d="M89.5939 65.8063L95.7546 83.1566C95.9134 83.6105 95.8902 84.1101 95.6901 84.5466C95.49 84.9831 95.1292 85.3211 94.6864 85.4869L62.3657 97.4682C61.9221 97.6307 61.4337 97.6076 61.0067 97.404C60.5796 97.2005 60.2485 96.8328 60.0854 96.381L53.9247 79.0262C53.7649 78.573 53.7876 78.0735 53.9879 77.6374C54.1882 77.2013 54.5497 76.8643 54.9929 76.7004L87.3136 64.7147C87.7577 64.5524 88.2466 64.5761 88.6737 64.7805C89.1009 64.985 89.4316 65.3537 89.5939 65.8063Z" fill="#F4D48E"/>
<path d="M88.6171 64.7548L79.3782 80.2916C78.5226 81.7323 77.211 82.8309 75.6608 83.4054C74.1106 83.98 72.4148 83.996 70.8544 83.4507L54.0161 77.5781C54.219 77.165 54.5682 76.8464 54.9928 76.687L87.3134 64.7013C87.7391 64.5506 88.2046 64.5697 88.6171 64.7548Z" fill="#F7A46B"/>
<path opacity="0.6" d="M79.4569 95.6281L79.1604 111.259C79.1512 111.666 78.9848 112.054 78.6974 112.337C78.4099 112.62 78.0247 112.775 77.6257 112.769L48.5052 112.19C48.3077 112.186 48.1129 112.142 47.9319 112.061C47.7509 111.98 47.5873 111.863 47.4505 111.718C47.3136 111.572 47.2062 111.4 47.1343 111.212C47.0624 111.024 47.0275 110.823 47.0316 110.621L47.3237 94.9909C47.3289 94.7795 47.3761 94.5714 47.4623 94.3792C47.5484 94.187 47.6719 94.0146 47.8251 93.8725C48.1088 93.6133 48.4779 93.4732 48.8584 93.4804L77.9788 94.0552C78.3786 94.0646 78.7585 94.2353 79.0354 94.53C79.3124 94.8247 79.4639 95.2195 79.4569 95.6281Z" fill="#F4D48E"/>
<path d="M79.0008 94.4919L67.0719 103.902C65.9656 104.774 64.6014 105.234 63.2046 105.207C61.8079 105.179 60.4621 104.666 59.3896 103.751L47.8486 93.8725C48.1323 93.6133 48.5014 93.4732 48.882 93.4804L78.0024 94.0552C78.3767 94.069 78.7326 94.2247 79.0008 94.4919Z" fill="#F7A46B"/>
<path d="M50.083 3.59195C50.0839 3.38946 50.1434 3.19177 50.2541 3.02383C50.3648 2.85589 50.5218 2.72523 50.7051 2.64835C50.8884 2.57146 51.0899 2.5518 51.2841 2.59185C51.4783 2.63189 51.6566 2.72984 51.7964 2.87334C51.9362 3.01683 52.0313 3.19944 52.0697 3.39811C52.108 3.59678 52.0879 3.80261 52.0119 3.98961C51.9358 4.17661 51.8073 4.33639 51.6425 4.44881C51.4777 4.56122 51.284 4.62121 51.0858 4.62121C50.9538 4.62121 50.823 4.59456 50.7011 4.54278C50.5791 4.491 50.4684 4.41511 50.3752 4.31948C50.282 4.22385 50.2082 4.11035 50.1581 3.9855C50.108 3.86065 50.0824 3.72691 50.083 3.59195Z" fill="#F4D48E"/>
<path d="M54.5511 2.56714H62.8831C63.1487 2.56831 63.4031 2.67666 63.5909 2.86859C63.7787 3.06052 63.8848 3.32051 63.8859 3.59194C63.8859 3.86414 63.7804 4.12527 63.5924 4.31816C63.4045 4.51106 63.1495 4.62002 62.8831 4.6212H54.5511C54.2848 4.62002 54.0297 4.51106 53.8418 4.31816C53.6538 4.12527 53.5483 3.86414 53.5483 3.59194C53.5495 3.32051 53.6555 3.06052 53.8433 2.86859C54.0311 2.67666 54.2855 2.56831 54.5511 2.56714Z" fill="#F4D48E"/>
<path d="M90.1027 23.2147H85.9476C84.982 23.2147 84.1992 24.0146 84.1992 25.0014V37.9362C84.1992 38.9229 84.982 39.7229 85.9476 39.7229H90.1027C91.0683 39.7229 91.851 38.9229 91.851 37.9362V25.0014C91.851 24.0146 91.0683 23.2147 90.1027 23.2147Z" fill="#F7A46B"/>
<path d="M90.5387 44.486H85.5116C84.7868 44.486 84.1992 45.0864 84.1992 45.8271V52.4571C84.1992 53.1978 84.7868 53.7983 85.5116 53.7983H90.5387C91.2635 53.7983 91.851 53.1978 91.851 52.4571V45.8271C91.851 45.0864 91.2635 44.486 90.5387 44.486Z" fill="#F7A46B"/>
<path d="M34.7554 122.228L37.96 122.545L41.2954 114.752L38.0908 114.431L34.7554 122.228Z" fill="#E4897B"/>
<path d="M2.22949 98.3594L4.05633 101.189L11.0585 97.7712L9.22729 94.9374L2.22949 98.3594Z" fill="#E4897B"/>
<path d="M41.2993 114.752L39.5814 118.771H36.2373L38.0903 114.431L41.2993 114.752Z" fill="#CE6F64"/>
<path d="M9.2258 94.9419L11.0526 97.7712L7.44692 99.5312L5.61572 96.7019L9.2258 94.9419Z" fill="#CE6F64"/>
<path d="M70.7929 42.4676L70.8975 42.7082L71.0327 42.9889C71.1199 43.1761 71.2201 43.3676 71.3204 43.5592C71.5253 43.938 71.7564 44.3212 71.9744 44.6865C72.4336 45.4345 72.9389 46.1518 73.4873 46.8342C74.0455 47.5099 74.6408 48.1525 75.2706 48.759C75.5976 49.0531 75.9159 49.3561 76.2559 49.6501L76.7661 50.0601L76.8838 50.1581C76.8284 50.1404 76.7714 50.1285 76.7137 50.1224C76.5874 50.1092 76.4598 50.1291 76.3431 50.1803C76.272 50.2015 76.2084 50.2433 76.16 50.3007C76.1295 50.3452 76.208 50.2739 76.2734 50.1581C76.4459 49.8332 76.582 49.4894 76.6789 49.1333C76.9183 48.2679 77.1061 47.3886 77.2413 46.5C77.3895 45.5821 77.5116 44.642 77.6075 43.7018C77.7035 42.7617 77.8037 41.8037 77.8909 40.868L79.5739 40.8413C79.6785 41.8349 79.7221 42.8018 79.7614 43.7909C79.8006 44.7801 79.7832 45.7603 79.7614 46.7629C79.7229 47.7936 79.6078 48.8199 79.4169 49.8328C79.3065 50.4163 79.1294 50.9846 78.8894 51.526C78.7155 51.9091 78.4763 52.2576 78.1831 52.5552C77.956 52.7736 77.6894 52.9446 77.3983 53.0587C77.059 53.1885 76.6944 53.2343 76.3344 53.1924C76.0424 53.1532 75.7592 53.0627 75.4973 52.925C75.3926 52.8712 75.2907 52.8117 75.1921 52.7468L75.0264 52.6354L74.3899 52.1899C73.9539 51.8958 73.5702 51.5705 73.1734 51.2453C72.389 50.5758 71.6531 49.8491 70.9716 49.0709C70.2953 48.2858 69.6732 47.4535 69.1099 46.5802C68.8309 46.1346 68.5736 45.689 68.3251 45.2435C68.203 45.0073 68.0853 44.7756 67.9719 44.5306L67.8063 44.1518C67.7496 44.0182 67.706 43.9112 67.6362 43.7286L70.7929 42.4676Z" fill="#E4897B"/>
<path d="M72.2693 44.7712L69.3394 48.9016L70.5514 50.118L73.6688 46.2861L72.2693 44.7712Z" fill="#F5F5F5"/>
<path d="M67.6737 39.3219C70.9742 40.213 73.2501 44.9449 73.2501 44.9449L69.4395 50.4031C69.4395 50.4031 64.8528 44.5083 64.9705 42.6458C65.0838 40.6942 65.6855 38.7738 67.6737 39.3219Z" fill="#F7C06E"/>
<path d="M70.5186 41.0641C70.5186 41.0641 71.6043 42.374 59.0388 57.9154L47.4106 50.9556C50.3754 46.2371 52.0889 43.2562 55.5115 31.9745C57.3395 32.603 59.1202 33.3669 60.8394 34.2603C62.6637 35.1995 64.4286 36.2546 66.1238 37.4193C68.2689 38.9877 70.5186 41.0641 70.5186 41.0641Z" fill="#F7C06E"/>
<path d="M69.0128 39.7229C68.1931 39.0278 67.1423 38.1678 66.1265 37.4193C64.4404 36.2398 62.6745 35.1841 60.8421 34.2602C59.8132 33.7122 58.7581 33.231 57.8599 32.8656C57.716 33.1107 57.8337 33.8592 58.2741 34.9553C59.9483 37.1609 63.8374 40.409 67.0813 41.0551C68.5898 40.8323 69.0607 40.3422 69.0128 39.7229Z" fill="#F5F5F5"/>
<path d="M58.269 34.9553C59.2461 37.1803 60.547 39.2414 62.1276 41.0685C63.7731 41.2364 65.4308 41.2364 67.0762 41.0685C63.8324 40.4091 59.9433 37.1609 58.269 34.9553Z" fill="#F5F5F5"/>
<path d="M59.0543 57.9154C59.0543 57.9154 59.2418 88.4455 53.9444 97.2588C48.4334 106.424 41.2481 117.603 41.2481 117.603L35.0264 117.296C35.0264 117.296 42.2814 100.757 45.0195 93.0794C48.7909 82.4972 50.5349 52.8181 50.5349 52.8181L59.0543 57.9154Z" fill="#B7C0A9"/>
<path opacity="0.2" d="M52.432 58.7664C51.4246 59.6397 50.558 60.6697 49.864 61.8185C49.6678 64.0909 49.428 66.644 49.1533 69.3174C51.0499 66.6841 52.5498 62.0636 52.432 58.7664Z" fill="black"/>
<path d="M55.9789 56.093C55.9789 56.093 42.8161 75.19 34.6149 85.5003C27.9877 93.8101 8.80372 99.7584 8.80372 99.7584L6.4624 95.7484C6.4624 95.7484 21.7224 87.042 26.2742 81.419C40.8454 63.4181 40.6622 54.0835 47.429 51.0046L55.9789 56.093Z" fill="#B7C0A9"/>
<path d="M77.9296 41.2868L77.0576 37.7223L80.3843 38.7114C80.3843 38.7114 80.2927 41.1086 79.1417 41.8883L77.9296 41.2868Z" fill="#E4897B"/>
<path d="M78.1187 34.8618L80.4556 36.0693L80.3989 38.7293L77.0723 37.7401L78.1187 34.8618Z" fill="#E4897B"/>
<path d="M36.3259 36.1717L33.2739 34.2558L36.3259 32.5894C36.3259 32.5894 37.8912 34.3717 37.6034 35.7529L36.3259 36.1717Z" fill="#E4897B"/>
<path d="M32.0679 31.4443L34.5661 30.6423L36.345 32.5894L33.28 34.2558L32.0679 31.4443Z" fill="#E4897B"/>
<path d="M4.82226 100.89L3.73662 97.2454C3.71751 97.183 3.677 97.1297 3.62254 97.0953C3.56808 97.061 3.50332 97.0478 3.44014 97.0583L0.497136 97.5039C0.423441 97.518 0.353507 97.5479 0.291923 97.5917C0.230339 97.6354 0.178497 97.6919 0.139796 97.7575C0.101095 97.8232 0.0764108 97.8964 0.0673631 97.9725C0.0583155 98.0486 0.0651068 98.1257 0.087295 98.1989C0.488415 99.4599 0.741294 100.052 1.22089 101.652C1.51301 102.641 2.02314 104.865 2.42862 106.228C2.8341 107.591 4.17262 107.253 4.12466 106.647C3.9023 103.938 4.3383 102.552 4.78738 101.478C4.86393 101.292 4.87623 101.085 4.82226 100.89Z" fill="#263238"/>
<path d="M38.389 121.533H34.465C34.3943 121.534 34.3257 121.558 34.2697 121.602C34.2138 121.647 34.1736 121.708 34.1555 121.778L33.2835 124.964C33.2621 125.039 33.2584 125.118 33.2727 125.195C33.2869 125.271 33.3187 125.344 33.3655 125.405C33.4123 125.467 33.4727 125.517 33.5418 125.55C33.6109 125.583 33.6867 125.599 33.7631 125.597C35.1408 125.575 35.8123 125.494 37.5432 125.494C38.607 125.494 41.3626 125.606 42.8319 125.606C44.3012 125.606 44.5759 124.118 43.9786 123.984C41.3059 123.382 39.7712 122.549 38.9471 121.756C38.7955 121.612 38.596 121.532 38.389 121.533Z" fill="#263238"/>
<path d="M47.6434 50.1536L46.5098 50.9066C46.4226 50.9645 46.4705 51.1071 46.6057 51.1873L58.8137 58.4812C58.9183 58.5436 59.0361 58.5436 59.0797 58.4812L59.7947 57.4787C59.8427 57.4074 59.7947 57.2916 59.6726 57.2247L47.9006 50.1804C47.8645 50.1517 47.8212 50.1341 47.7757 50.1293C47.7303 50.1246 47.6844 50.133 47.6434 50.1536Z" fill="#263238"/>
<path d="M54.5554 37.0851C53.7314 37.7579 52.9466 38.3015 52.1138 38.8674C51.2811 39.4333 50.4352 39.9189 49.5632 40.4001C47.8134 41.3788 45.9714 42.1744 44.0653 42.775C43.8298 42.8597 43.5769 42.9176 43.3371 42.9844C43.0973 43.0513 42.8663 43.1181 42.5785 43.1805C41.9535 43.3238 41.3091 43.3569 40.6732 43.2785C39.9989 43.1965 39.3502 42.9654 38.7722 42.6012C38.2349 42.2541 37.7637 41.8103 37.3814 41.2913C36.736 40.3719 36.2738 39.3318 36.0211 38.2302C35.8919 37.7224 35.7987 37.2057 35.742 36.6841C35.6728 36.1644 35.6392 35.6403 35.6417 35.1157L37.316 34.9687C37.5179 35.8385 37.7906 36.6895 38.1313 37.5129C38.4277 38.2671 38.8578 38.9589 39.4001 39.5536C39.5945 39.7777 39.8317 39.9589 40.0971 40.0861C40.3625 40.2133 40.6505 40.2837 40.9435 40.2932C41.2513 40.2908 41.557 40.2412 41.8504 40.1462C42.2297 40.0214 42.6744 39.8788 43.0799 39.7273C44.758 39.0826 46.3811 38.2972 47.9326 37.3792C48.7261 36.9336 49.4847 36.4212 50.2521 35.9267C51.0195 35.4321 51.7737 34.8751 52.4321 34.3672L54.5554 37.0851Z" fill="#E4897B"/>
<path d="M49.1631 35.9178L50.6716 40.5784L52.0886 39.7096L50.7632 35.089L49.1631 35.9178Z" fill="#F5F5F5"/>
<path d="M5.15607 102.802C5.08265 102.801 5.01067 102.781 4.94679 102.744C4.58491 102.521 4.48463 101.732 4.45411 101.282C4.4539 101.267 4.45785 101.252 4.46554 101.238C4.47323 101.225 4.48436 101.214 4.49771 101.207C4.5111 101.199 4.52608 101.195 4.54131 101.195C4.55653 101.195 4.57152 101.199 4.58491 101.207C4.68955 101.296 5.60515 102.098 5.54847 102.517C5.54248 102.565 5.52394 102.61 5.49481 102.649C5.46567 102.687 5.42698 102.717 5.38279 102.735C5.31356 102.775 5.2358 102.798 5.15607 102.802ZM4.62851 101.465C4.68519 102.066 4.82907 102.485 5.02527 102.606C5.07031 102.63 5.12044 102.642 5.17133 102.642C5.22222 102.642 5.27235 102.63 5.31739 102.606C5.37843 102.574 5.39151 102.539 5.39151 102.508C5.42203 102.28 4.98603 101.795 4.62851 101.465Z" fill="#407BFF"/>
<path d="M5.70946 101.835C5.26182 101.796 4.83553 101.622 4.48429 101.336C4.47733 101.324 4.47363 101.311 4.47363 101.298C4.47363 101.284 4.47733 101.271 4.48429 101.26C4.48739 101.247 4.49385 101.234 4.50301 101.224C4.51218 101.214 4.52375 101.206 4.53662 101.202C4.57586 101.202 5.49145 100.908 5.90129 101.166C5.95312 101.198 5.99757 101.24 6.03148 101.291C6.06539 101.342 6.08793 101.4 6.0975 101.46C6.11521 101.522 6.11189 101.587 6.08811 101.647C6.06432 101.706 6.02149 101.755 5.96669 101.786C5.88617 101.823 5.79784 101.84 5.70946 101.835ZM4.70665 101.313C5.04237 101.55 5.66585 101.759 5.87077 101.643C5.90129 101.643 5.94053 101.59 5.92309 101.487C5.91676 101.449 5.90211 101.413 5.88022 101.381C5.85834 101.35 5.82978 101.323 5.79665 101.305C5.44123 101.192 5.06027 101.195 4.70665 101.313Z" fill="#407BFF"/>
<path d="M40.1316 122.197C39.7689 122.19 39.4079 122.144 39.0547 122.059C39.0387 122.055 39.0244 122.046 39.0135 122.033C39.0026 122.02 38.9957 122.004 38.9937 121.988C38.9935 121.971 38.998 121.955 39.0064 121.941C39.0149 121.926 39.0271 121.915 39.0416 121.908C39.3032 121.778 40.6461 121.159 41.0036 121.404C41.0379 121.429 41.0649 121.463 41.0818 121.502C41.0987 121.541 41.1048 121.584 41.0995 121.627C41.0977 121.702 41.079 121.775 41.045 121.842C41.011 121.908 40.9625 121.966 40.9033 122.01C40.6712 122.153 40.4016 122.218 40.1316 122.197ZM39.3294 121.952C39.7654 122.032 40.4979 122.121 40.8074 121.881C40.8493 121.851 40.8835 121.811 40.9071 121.764C40.9306 121.718 40.9428 121.666 40.9426 121.613C40.9451 121.6 40.944 121.585 40.9394 121.572C40.9348 121.559 40.9269 121.547 40.9164 121.538C40.7202 121.404 39.9136 121.689 39.3294 121.952Z" fill="#407BFF"/>
<path d="M39.076 122.059C39.0606 122.065 39.0435 122.065 39.0281 122.059C39.0159 122.05 39.0068 122.038 39.0021 122.023C38.9974 122.009 38.9973 121.993 39.0019 121.979C39.0019 121.916 39.342 120.459 40.1268 120.562C40.3317 120.584 40.384 120.691 40.3971 120.771C40.4494 121.154 39.5513 121.885 39.0891 122.072L39.076 122.059ZM40.057 120.7C39.5862 120.7 39.3028 121.48 39.185 121.832C39.621 121.578 40.2576 120.999 40.2271 120.776C40.2271 120.74 40.1791 120.713 40.0963 120.704L40.057 120.7Z" fill="#407BFF"/>
<path d="M48.4542 52.4483L48.1402 52.2611C48.0792 52.221 48.0487 52.1586 48.0748 52.123L49.0166 50.8264C49.0428 50.7907 49.1169 50.7907 49.1779 50.8264L49.4962 51.018C49.5572 51.0536 49.5878 51.116 49.5616 51.1517L48.6198 52.4483C48.5937 52.4839 48.5196 52.4839 48.4542 52.4483Z" fill="#407BFF"/>
<path d="M57.8506 58.0669L57.5367 57.8753C57.4757 57.8396 57.4452 57.7772 57.4713 57.7416L58.4131 56.445C58.4392 56.4093 58.5134 56.4093 58.5744 56.445L58.8927 56.6321C58.9537 56.6722 58.9842 56.7346 58.9537 56.7703L58.0163 58.0669C57.9902 58.1025 57.916 58.1025 57.8506 58.0669Z" fill="#407BFF"/>
<path d="M53.1525 55.2553L52.8342 55.0682C52.7732 55.0325 52.7427 54.9702 52.7732 54.9301L53.7106 53.6379C53.7411 53.5978 53.8109 53.5978 53.8763 53.6379L54.1902 53.8251C54.2556 53.8607 54.2818 53.9231 54.2556 53.9632L53.3138 55.2553C53.2877 55.2954 53.2136 55.2954 53.1525 55.2553Z" fill="#407BFF"/>
<path opacity="0.4" d="M48.4542 52.4483L48.1402 52.2611C48.0792 52.221 48.0487 52.1586 48.0748 52.123L49.0166 50.8264C49.0428 50.7907 49.1169 50.7907 49.1779 50.8264L49.4962 51.018C49.5572 51.0536 49.5878 51.116 49.5616 51.1517L48.6198 52.4483C48.5937 52.4839 48.5196 52.4839 48.4542 52.4483Z" fill="black"/>
<path opacity="0.4" d="M57.8506 58.0669L57.5367 57.8753C57.4757 57.8396 57.4452 57.7772 57.4713 57.7416L58.4131 56.445C58.4392 56.4093 58.5134 56.4093 58.5744 56.445L58.8927 56.6321C58.9537 56.6722 58.9842 56.7346 58.9537 56.7703L58.0163 58.0669C57.9902 58.1025 57.916 58.1025 57.8506 58.0669Z" fill="black"/>
<path opacity="0.4" d="M53.1525 55.2553L52.8342 55.0682C52.7732 55.0325 52.7427 54.9702 52.7732 54.9301L53.7106 53.6379C53.7411 53.5978 53.8109 53.5978 53.8763 53.6379L54.1902 53.8251C54.2556 53.8607 54.2818 53.9231 54.2556 53.9632L53.3138 55.2553C53.2877 55.2954 53.2136 55.2954 53.1525 55.2553Z" fill="black"/>
<path d="M61.8761 35.1514C61.8761 32.478 61.0041 21.9582 65.2943 21.0671C66.6503 19.6056 73.369 19.4541 74.398 23.1701C75.7583 28.0491 73.744 39.9546 73.744 39.9546L61.8761 35.1514Z" fill="#263238"/>
<path d="M74.6402 39.9813C74.6258 39.9797 74.6119 39.9751 74.5993 39.9679C74.5867 39.9607 74.5756 39.9511 74.5667 39.9395C74.5577 39.9278 74.5511 39.9145 74.5473 39.9003C74.5434 39.8861 74.5424 39.8712 74.5442 39.8566C74.5442 39.7363 75.9612 27.8263 74.396 23.1122C73.96 21.8201 72.7479 20.9156 70.9516 20.5591C68.6146 20.0913 66.0858 20.675 65.3839 21.5037C65.3635 21.5241 65.3361 21.5356 65.3076 21.5356C65.279 21.5356 65.2516 21.5241 65.2313 21.5037C65.211 21.4821 65.1997 21.4534 65.1997 21.4235C65.1997 21.3936 65.211 21.3649 65.2313 21.3433C66.0509 20.372 68.8021 19.8863 71.0083 20.3274C72.8831 20.6972 74.1649 21.6641 74.6183 23.0275C76.1967 27.7996 74.7884 39.7496 74.7753 39.8699C74.775 39.8868 74.771 39.9035 74.7638 39.9187C74.7565 39.9338 74.746 39.9472 74.7331 39.9578C74.7203 39.9684 74.7052 39.976 74.6892 39.9801C74.6731 39.9842 74.6564 39.9846 74.6402 39.9813Z" fill="#263238"/>
<path d="M64.8523 28.4991C64.1939 30.4328 62.7028 33.8147 60.8498 34.2602C60.8498 34.2602 60.3048 36.3009 63.4658 38.1901C66.9538 40.2665 66.1341 37.4193 66.1341 37.4193C64.5035 35.8242 65.3711 34.4162 66.4742 33.2666L64.8523 28.4991Z" fill="#E4897B"/>
<path d="M65.5069 30.4417L66.4661 33.2622C66.2066 33.5285 65.969 33.8161 65.7554 34.1221C65.0927 33.583 64.382 32.2686 64.7483 31.4487C64.9401 31.0693 65.1971 30.7283 65.5069 30.4417Z" fill="#CE6F64"/>
<path d="M64.8777 24.645C63.9752 27.8842 63.5261 29.2343 64.5333 31.422C66.0462 34.7192 70.1315 35.1425 71.9453 32.2463C73.5933 29.6398 74.788 24.7831 72.1894 22.4439C71.6196 21.9259 70.9301 21.5648 70.1859 21.3945C69.4417 21.2242 68.6673 21.2504 67.9358 21.4706C67.2042 21.6909 66.5396 22.0978 66.0046 22.6532C65.4696 23.2086 65.0818 23.894 64.8777 24.645Z" fill="#E4897B"/>
<path d="M63.9458 26.6857C66.2 27.5456 71.4974 24.6895 72.9405 22.9385C73.1324 20.2383 66.9368 21.3032 66.9368 21.3032C66.9368 21.3032 63.6319 20.2651 63.9458 26.6857Z" fill="#263238"/>
<path d="M63.4139 27.3317C63.2671 27.9647 63.3721 28.6314 63.706 29.1853C64.142 29.916 64.9442 29.6308 65.293 28.909C65.6069 28.2496 65.7508 27.0688 65.075 26.5921C64.9247 26.4909 64.7521 26.4297 64.5728 26.4139C64.3936 26.3981 64.2133 26.4284 64.0483 26.5018C63.8833 26.5753 63.7389 26.6896 63.6281 26.8346C63.5173 26.9795 63.4437 27.1503 63.4139 27.3317Z" fill="#E4897B"/>
<path d="M69.2736 27.2248C69.182 27.4832 69.243 27.7416 69.4087 27.7995C69.5744 27.8575 69.7793 27.6971 69.8709 27.4386C69.9624 27.1802 69.897 26.9262 69.7314 26.8639C69.5657 26.8015 69.3608 26.9663 69.2736 27.2248Z" fill="#263238"/>
<path d="M72.1256 28.254C72.0384 28.5125 72.0994 28.7664 72.2651 28.8288C72.4308 28.8912 72.6357 28.7263 72.7229 28.4679C72.8101 28.2095 72.7491 27.951 72.5878 27.8931C72.4264 27.8352 72.2172 27.9956 72.1256 28.254Z" fill="#263238"/>
<path d="M72.5093 27.8798L73.1764 27.9199C73.1764 27.9199 72.6968 28.2942 72.5093 27.8798Z" fill="#263238"/>
<path d="M71.2226 28.4234C71.2457 29.0921 71.3572 29.7545 71.5539 30.3928C71.393 30.441 71.2236 30.4525 71.0578 30.4263C70.892 30.4001 70.7339 30.3369 70.5947 30.2413L71.2226 28.4234Z" fill="#DE5753"/>
<path d="M69.3809 30.9452H69.3547C69.0125 30.8316 68.7018 30.6361 68.4485 30.3749C68.1952 30.1137 68.0066 29.7944 67.8985 29.4437C67.8945 29.4225 67.8986 29.4005 67.9099 29.3823C67.9213 29.3641 67.939 29.351 67.9595 29.3457C67.9696 29.3431 67.98 29.3426 67.9903 29.3444C68.0005 29.3462 68.0102 29.3502 68.0188 29.3561C68.0275 29.3619 68.0348 29.3696 68.0403 29.3786C68.0459 29.3875 68.0495 29.3976 68.0511 29.408C68.1567 29.7305 68.3341 30.0235 68.5694 30.264C68.8047 30.5045 69.0915 30.6858 69.407 30.7938C69.4246 30.8 69.4394 30.8124 69.4488 30.8287C69.4583 30.8451 69.4617 30.8643 69.4586 30.883C69.4554 30.9018 69.4459 30.9187 69.4317 30.9309C69.4175 30.9431 69.3994 30.9498 69.3809 30.9497V30.9452Z" fill="#263238"/>
<path d="M69.1489 26.2044C69.1136 26.2049 69.079 26.1932 69.051 26.1712C69.0229 26.1491 69.003 26.118 68.9944 26.0829C68.9859 26.0479 68.9891 26.0108 69.0037 25.9779C69.0183 25.9449 69.0434 25.918 69.0748 25.9014C69.2915 25.7763 69.5343 25.7057 69.783 25.6957C70.0317 25.6856 70.2792 25.7363 70.5049 25.8435C70.5253 25.852 70.5437 25.8648 70.5589 25.8811C70.5742 25.8974 70.5859 25.9167 70.5933 25.9379C70.6007 25.9591 70.6037 25.9816 70.602 26.0041C70.6004 26.0265 70.5941 26.0484 70.5837 26.0682C70.5732 26.088 70.5588 26.1053 70.5413 26.1191C70.5239 26.1328 70.5038 26.1426 70.4824 26.1479C70.461 26.1532 70.4387 26.1538 70.4171 26.1497C70.3954 26.1457 70.3748 26.137 70.3567 26.1242C70.1763 26.0426 69.9796 26.0056 69.7825 26.0165C69.5855 26.0273 69.3938 26.0856 69.2231 26.1866C69.2002 26.1988 69.1747 26.205 69.1489 26.2044Z" fill="#263238"/>
<path d="M73.9367 27.3852C73.9024 27.3851 73.8691 27.3732 73.8422 27.3513C73.8153 27.3295 73.7964 27.299 73.7885 27.2649C73.7447 27.0687 73.6563 26.8859 73.5306 26.7311C73.4049 26.5763 73.2453 26.4539 73.0647 26.3737C73.0253 26.3595 72.9928 26.3302 72.9741 26.292C72.9554 26.2537 72.9519 26.2096 72.9645 26.1688C72.9708 26.1485 72.9811 26.1298 72.9948 26.1137C73.0085 26.0977 73.0252 26.0846 73.044 26.0755C73.0628 26.0663 73.0832 26.0611 73.1041 26.0603C73.1249 26.0595 73.1456 26.0631 73.165 26.0707C73.3957 26.1676 73.6001 26.3198 73.761 26.5144C73.9219 26.7091 74.0345 26.9405 74.0893 27.1891C74.0946 27.2096 74.0958 27.2309 74.0929 27.2519C74.0901 27.2729 74.0831 27.293 74.0726 27.3113C74.0621 27.3295 74.0481 27.3454 74.0315 27.3581C74.015 27.3708 73.9961 27.38 73.976 27.3852H73.9367Z" fill="#263238"/>
<path d="M69.6445 26.855L70.3116 26.8951C70.3116 26.8951 69.8451 27.2649 69.6445 26.855Z" fill="#263238"/>
<path d="M55.5191 31.9745C54.1457 31.6403 49.9209 34.9286 49.9209 34.9286L51.7129 40.77C51.7129 40.77 56.1295 38.2704 56.5394 36.4302C56.9449 34.5232 57.0844 32.3577 55.5191 31.9745Z" fill="#F7C06E"/>
</svg>
