<svg width="994" height="476" viewBox="0 0 994 476" fill="none" xmlns="http://www.w3.org/2000/svg">
<path d="M425.867 330.562C425.867 330.562 432.101 336.805 440.168 336.805C444.568 336.805 448.602 334.602 448.602 329.827C448.602 319.545 421.467 321.381 421.467 303.754C421.467 294.206 429.534 287.228 440.535 287.228C451.902 287.228 457.769 293.471 457.769 293.471L453.369 301.918C453.369 301.918 447.868 296.776 440.535 296.776C435.768 296.776 431.734 299.714 431.734 303.754C431.734 314.036 458.502 311.466 458.502 329.827C458.502 339.008 451.535 346.72 439.801 346.72C426.967 346.72 420 339.008 420 339.008L425.867 330.562Z" fill="#7B6961" stroke="#7B6961" stroke-width="0.3779" stroke-miterlimit="10"/>
<path d="M468.77 287.963H490.771C501.405 287.963 509.106 295.307 509.106 306.692C509.106 317.709 501.772 325.421 490.771 325.421H479.037V345.251H468.77V287.963ZM488.938 316.24C495.171 316.24 498.472 312.2 498.472 306.324C498.472 300.449 494.805 296.776 488.938 296.776H479.037V316.24H488.938V316.24Z" fill="#7B6961" stroke="#7B6961" stroke-width="0.3779" stroke-miterlimit="10"/>
<path d="M517.906 287.963H528.174V312.2H554.575V287.963H564.843V345.251H554.575V321.014H528.174V345.251H517.906V287.963Z" fill="#7B6961" stroke="#7B6961" stroke-width="0.3779" stroke-miterlimit="10"/>
<path d="M579.144 287.963H613.612V296.776H589.778V311.833H609.212V320.647H589.778V336.071H615.079V344.884H579.51V287.963H579.144Z" fill="#7B6961" stroke="#7B6961" stroke-width="0.3779" stroke-miterlimit="10"/>
<path d="M624.98 287.963H643.314C649.548 287.963 652.481 288.33 654.682 289.431C660.549 292.002 664.216 297.511 664.216 305.223C664.216 312.2 660.549 318.443 654.682 321.014C654.682 321.014 655.415 321.748 656.515 323.952L668.249 345.251H656.515L645.148 323.952H635.614V345.251H625.346V287.963H624.98ZM644.781 314.771C650.281 314.771 653.948 311.466 653.948 305.59C653.948 300.081 651.748 296.776 643.314 296.776H635.614V314.771H644.781Z" fill="#7B6961" stroke="#7B6961" stroke-width="0.3779" stroke-miterlimit="10"/>
<path d="M677.783 287.963H712.252V296.776H688.417V311.833H707.852V320.647H688.417V336.071H713.719V344.884H678.15V287.963H677.783Z" fill="#7B6961" stroke="#7B6961" stroke-width="0.3779" stroke-miterlimit="10"/>
<path d="M182.284 245.261C182.026 243.712 181.768 241.905 181.768 240.098V239.323L95.5165 246.294H95L95.5165 252.748L182.542 245.778L182.284 245.261Z" fill="#7B6961"/>
<path d="M193.647 203.436C194.164 202.662 194.68 202.145 195.197 201.371C195.713 200.596 196.23 200.08 197.004 199.305L197.521 198.789L132.187 141.473L131.67 140.957L127.28 145.862L193.131 203.953L193.647 203.436Z" fill="#7B6961"/>
<path d="M185.384 257.137C184.867 255.588 184.351 253.781 183.834 252.232L183.576 251.457L101.199 277.275L100.682 277.533L102.748 283.729L185.642 257.653L185.384 257.137Z" fill="#7B6961"/>
<path d="M183.835 222.799L184.093 222.024C184.609 220.475 185.126 218.668 185.642 217.119L185.9 216.602L103.265 187.17L101.199 193.108L183.318 222.54L183.835 222.799Z" fill="#7B6961"/>
<path d="M182.026 233.641V232.867C182.284 231.06 182.284 229.511 182.801 227.703V226.929L97.066 214.794H96.5495L95.5166 221.249L181.251 233.641H182.026Z" fill="#7B6961"/>
<path d="M254.591 184.846L255.107 185.104C256.657 185.62 258.206 186.395 259.756 186.911L260.272 187.169L292.552 106.876L292.81 106.359L286.87 104.036L254.849 184.071L254.591 184.846Z" fill="#7B6961"/>
<path d="M248.394 183.298L249.169 183.556L262.855 97.5826V97.0663L256.399 96.0336L242.455 181.749V182.523H243.229C245.037 182.523 246.586 182.782 248.394 183.298Z" fill="#7B6961"/>
<path d="M264.919 189.493L265.435 189.751C266.985 190.525 268.276 191.558 269.825 192.591L270.342 193.107L318.116 119.784L312.693 116.17L265.177 188.718L264.919 189.493Z" fill="#7B6961"/>
<path d="M230.315 182.523H231.09C232.898 182.264 234.447 182.264 236.255 182.264H237.029L232.123 95.5164L231.865 95L225.409 95.2582L230.315 181.748V182.523Z" fill="#7B6961"/>
<path d="M200.618 195.948C201.909 194.915 203.2 193.624 204.491 192.85L205.008 192.333L151.811 124.174L151.295 123.658L146.13 127.531L199.843 196.206L200.618 195.948Z" fill="#7B6961"/>
<path d="M208.624 190.011L209.141 189.753C210.69 188.978 212.239 188.204 213.789 187.429L214.305 187.171L174.795 109.201L169.114 112.041L208.366 189.237L208.624 190.011Z" fill="#7B6961"/>
<path d="M219.47 185.105C221.019 184.589 222.827 184.073 224.376 183.556L225.151 183.298L201.91 99.39L195.712 101.197L218.953 185.363L219.47 185.105Z" fill="#7B6961"/>
<path d="M187.708 212.472L187.966 211.955C188.741 210.406 189.515 208.857 190.548 207.566L190.807 207.05L116.693 162.127L113.335 167.549L187.191 212.214L187.708 212.472Z" fill="#7B6961"/>
<path d="M191.064 267.979L190.547 267.463C189.515 265.914 188.74 264.623 187.965 263.074L187.707 262.557L112.302 305.415L111.785 305.673L114.884 311.353L190.547 268.496L191.064 267.979Z" fill="#7B6961"/>
<path d="M332.837 132.435L332.321 131.919L327.93 136.824L328.447 137.34C355.045 161.093 371.056 193.623 373.638 229.252C376.221 264.881 364.858 299.477 341.617 326.585C318.117 354.211 285.321 370.992 249.168 373.832C216.63 376.414 184.092 367.12 158.011 347.756C160.076 345.433 164.983 338.978 166.532 336.913C187.45 352.145 212.24 360.407 238.322 360.407C274.217 360.407 307.788 344.916 331.029 317.807C352.205 293.022 362.276 261.524 359.694 229.252C357.111 197.754 342.908 168.838 319.15 147.926L318.634 147.409L300.816 167.031L301.332 167.547C340.068 201.627 344.199 261.266 310.887 300.509C294.36 319.873 271.377 331.491 246.069 333.556C223.603 335.364 201.136 329.167 183.06 316C183.576 315.484 184.092 314.709 184.867 313.677C186.933 310.837 190.548 306.448 191.581 305.157C207.076 316.258 225.927 321.422 245.036 319.873C266.728 318.066 286.354 308.255 300.299 291.731C328.963 258.168 325.09 207.307 292.036 178.133L291.261 177.1L273.442 196.722L273.959 197.238C284.805 206.532 291.519 219.699 292.81 234.157C293.843 248.615 289.453 262.815 279.898 273.659C270.344 284.761 257.174 291.473 242.712 292.506C228.509 293.539 214.564 289.15 203.718 280.113L203.202 279.597L199.328 284.761L199.845 285.277C225.41 306.189 263.371 302.833 284.805 277.79C295.393 265.397 300.557 249.648 299.266 233.383C298.233 219.183 292.036 205.758 282.223 195.689C283.772 193.882 289.711 187.427 291.519 185.62C318.634 212.987 320.442 257.135 295.393 286.568C282.481 301.8 264.404 310.837 244.52 312.386C225.152 313.935 206.559 307.997 191.581 295.862L191.065 295.346L174.279 317.033L174.796 317.549C195.197 333.814 220.504 341.818 246.586 339.753C273.701 337.687 298.233 325.036 315.793 304.382C350.397 263.848 347.557 203.176 309.596 165.998C310.629 164.966 312.953 162.126 315.277 159.802C317.343 157.737 318.376 156.446 318.892 155.929C362.276 198.012 365.633 267.204 326.123 313.418C306.497 336.396 279.124 350.596 249.168 353.436C219.213 356.276 189.774 347.498 166.274 328.651L165.758 328.135L149.489 348.789L149.23 349.047L149.747 349.563C175.054 369.959 205.784 380.545 238.064 380.545C241.938 380.545 245.811 380.287 249.426 380.028C287.387 376.93 321.733 359.374 346.265 330.458C370.54 302.058 382.419 265.913 379.836 228.478C377.512 191.3 360.727 157.22 332.837 132.435Z" fill="#7B6961"/>
<path d="M198.553 277.016L198.036 276.499C196.745 275.208 195.712 273.917 194.679 272.626L194.163 272.11L130.12 329.942L129.604 330.459L133.994 335.364L198.036 277.79L198.553 277.016Z" fill="#7B6961"/>
<path d="M465.234 178.201H470.243V175.502C470.243 158.922 461.767 153.524 449.823 153.524C437.109 153.524 428.633 160.464 428.633 160.464L425.165 155.452C425.165 155.452 434.027 147.354 450.209 147.354C467.161 147.354 476.408 156.994 476.408 175.502V223.314H470.243V213.674C470.243 209.819 471.014 207.119 471.014 207.119H470.628C470.628 207.119 464.079 225.242 444.815 225.242C432.871 225.242 419.771 218.687 419.771 203.649C419.386 178.586 452.135 178.201 465.234 178.201ZM444.815 219.458C460.996 219.458 470.243 202.878 470.243 188.226V184.37H465.62C452.905 184.37 426.321 184.37 426.321 203.649C425.936 211.361 432.486 219.458 444.815 219.458Z" fill="#7B6961" stroke="#7B6961" stroke-width="1.31037" stroke-miterlimit="10"/>
<path d="M539.593 178.201H544.602V175.502C544.602 158.922 536.126 153.524 524.182 153.524C511.468 153.524 502.992 160.464 502.992 160.464L499.524 155.452C499.524 155.452 508.386 147.354 524.567 147.354C541.52 147.354 550.766 156.994 550.766 175.502V223.314H544.602V213.674C544.602 209.819 545.373 207.119 545.373 207.119H544.987C544.987 207.119 538.438 225.242 519.174 225.242C507.23 225.242 494.13 218.687 494.13 203.649C493.745 178.586 526.494 178.201 539.593 178.201ZM519.174 219.458C535.355 219.458 544.602 202.878 544.602 188.226V184.37H539.979C527.264 184.37 500.68 184.37 500.68 203.649C500.295 211.361 506.845 219.458 519.174 219.458Z" fill="#7B6961" stroke="#7B6961" stroke-width="1.31037" stroke-miterlimit="10"/>
<path d="M571.957 209.819C571.957 209.819 580.048 219.072 594.688 219.072C603.55 219.072 611.641 214.445 611.641 205.192C611.641 186.298 570.801 191.696 570.801 167.79C570.801 154.68 581.974 147.74 594.303 147.74C609.329 147.74 616.264 155.837 616.264 155.837L612.411 160.85C612.411 160.85 606.247 153.909 593.918 153.909C585.442 153.909 577.351 157.765 577.351 167.405C577.351 186.684 618.19 180.9 618.19 205.577C618.19 217.53 608.173 225.627 594.688 225.627C576.965 225.627 568.104 214.831 568.104 214.831L571.957 209.819Z" fill="#7B6961" stroke="#7B6961" stroke-width="1.31037" stroke-miterlimit="10"/>
<path d="M639.766 155.452H630.134V149.668H639.766V128.846H645.931V149.668H665.195V155.452H645.931V196.323C645.931 215.988 657.489 218.301 663.654 218.301C665.58 218.301 667.121 217.916 667.121 217.916V223.699C667.121 223.699 665.58 224.085 663.268 224.085C655.563 224.085 639.766 221.386 639.766 196.709V155.452Z" fill="#7B6961" stroke="#7B6961" stroke-width="1.31037" stroke-miterlimit="10"/>
<path d="M450.846 146.177C445.681 146.177 441.033 146.952 436.643 148.501C432.253 150.05 429.412 151.341 427.863 152.115C426.572 152.89 425.797 153.664 425.022 154.181L423.989 154.955L428.638 161.668L431.737 159.344C435.352 156.762 443.099 154.181 450.071 154.181C463.241 154.181 469.697 161.151 469.697 175.609V177.159H466.082C460.659 177.159 458.077 177.159 451.104 177.933C444.132 178.449 439.742 179.482 433.544 182.064C423.731 186.195 418.825 193.682 418.825 203.751C418.825 210.98 421.407 216.66 426.83 220.791C431.995 224.663 438.192 226.471 445.165 226.471C455.236 226.471 462.209 221.565 466.082 217.176C467.89 215.111 469.181 213.304 470.214 211.496L469.956 213.82V224.663H478.219V175.351C478.219 156.246 468.923 146.177 450.846 146.177ZM470.214 184.904V188.002C470.214 195.747 467.89 202.976 463.241 209.431C458.851 215.627 452.912 218.725 445.423 218.725C433.544 218.725 427.347 210.98 427.347 203.235C426.572 192.649 437.934 188.26 441.55 187.228C443.874 186.453 446.714 185.678 450.33 185.42C453.687 184.904 456.269 184.904 458.593 184.904C460.401 184.646 462.983 184.646 466.082 184.646H470.214V184.904Z" fill="#7B6961"/>
<path d="M525.476 146.177C520.312 146.177 515.663 146.952 511.273 148.501C506.883 150.05 504.043 151.341 502.493 152.115C501.202 152.89 500.427 153.664 499.653 154.181L498.62 154.955L503.268 161.668L506.367 159.344C509.982 156.762 517.729 154.181 524.702 154.181C537.872 154.181 544.328 161.151 544.328 175.609V177.159H540.454C535.031 177.159 532.449 177.159 525.476 177.933C518.504 178.449 514.114 179.482 507.916 182.064C498.103 186.195 493.197 193.682 493.197 203.751C493.197 210.98 495.779 216.66 501.202 220.791C506.367 224.663 512.565 226.471 519.537 226.471C529.608 226.471 536.581 221.565 540.454 217.176C542.262 215.111 543.553 213.304 544.586 211.496L544.328 213.82V224.663H552.591V175.351C552.85 156.246 543.553 146.177 525.476 146.177ZM544.844 184.904V188.002C544.844 195.747 542.52 202.976 537.872 209.431C533.482 215.627 527.542 218.725 520.053 218.725C508.175 218.725 501.977 210.98 501.977 203.235C501.202 192.649 512.565 188.26 516.18 187.228C518.504 186.453 521.345 185.678 524.96 185.42C528.317 184.904 530.899 184.904 533.224 184.904C535.031 184.646 537.614 184.646 540.712 184.646H544.844V184.904Z" fill="#7B6961"/>
<path d="M595.461 181.548L593.395 180.773C584.098 177.159 579.45 172.511 579.45 166.831C579.45 157.537 587.714 154.181 595.461 154.181C602.95 154.181 610.18 157.537 611.472 159.086L614.312 161.668L619.219 154.955L616.378 152.373C613.537 149.792 605.274 146.177 595.719 146.177C588.747 146.177 582.807 147.984 578.159 151.857C573.252 155.472 570.928 160.635 570.928 167.348C570.928 181.548 585.131 186.711 596.494 190.842L598.301 191.358C607.598 194.715 612.246 199.362 612.246 205.042C612.246 212.787 605.79 218.209 595.977 218.209C591.846 218.209 587.714 217.434 583.582 215.627C579.45 213.82 577.126 212.529 576.093 211.496C575.06 210.464 574.027 209.689 573.511 208.915L572.736 207.882L567.313 214.336L570.67 217.693C574.802 221.823 585.131 225.954 595.461 225.954C610.18 225.954 620.252 217.176 620.252 204.784C620.768 190.842 606.823 185.678 595.461 181.548Z" fill="#7B6961"/>
<path d="M654.337 214.078C650.205 210.98 647.881 204.525 647.881 196.264V155.988H667.507V148.242H647.881V127.072H639.617V148.242H629.804V155.988H639.617V196.522C639.617 222.34 656.919 225.18 664.408 225.18C665.957 225.18 667.249 224.922 668.282 224.922H669.056V217.176L664.666 217.693C661.309 217.434 658.21 216.918 654.337 214.078Z" fill="#7B6961"/>
<path d="M692.815 163.732V147.983H684.551V224.662H692.815V191.357C692.815 185.677 693.59 180.513 695.139 175.866C699.013 163.215 706.76 155.728 716.573 155.728C717.606 155.728 718.639 155.986 719.93 155.986L720.963 156.245V147.983L715.54 147.467C706.243 147.208 697.98 153.405 692.815 163.732Z" fill="#7B6961"/>
<path d="M744.518 118H735.222V130.909H744.518V118Z" fill="#7B6961"/>
<path d="M744.203 147.983H735.939V224.662H744.203V147.983Z" fill="#7B6961"/>
<path d="M824 147.985H813.154L788.879 177.417H777V118.036H768.995V224.664H777V185.162H788.879L815.994 224.664H826.324L795.852 181.29L824 147.985Z" fill="#7B6961"/>
<path d="M864.541 146.177C859.377 146.177 854.728 146.952 850.338 148.501C845.948 150.05 843.108 151.341 841.558 152.115C840.267 152.89 839.492 153.664 838.718 154.181L837.685 154.955L842.333 161.668L845.69 159.344C849.305 156.762 857.053 154.181 864.025 154.181C877.195 154.181 883.651 161.151 883.651 175.609V177.159H879.777C874.354 177.159 871.772 177.159 864.8 177.933C857.827 178.449 853.437 179.482 847.24 182.064C837.427 186.195 832.52 193.682 832.52 203.751C832.52 210.98 835.102 216.66 840.525 220.791C845.69 224.663 851.888 226.471 858.86 226.471C868.931 226.471 875.904 221.565 879.777 217.176C881.585 215.111 882.876 213.304 883.909 211.496L883.651 213.82V224.663H891.915V175.351C891.915 156.246 882.618 146.177 864.541 146.177ZM883.651 184.904V188.002C883.651 195.747 881.327 202.976 876.679 209.431C872.289 215.627 866.349 218.725 858.86 218.725C846.981 218.725 840.784 210.98 840.784 203.235C840.009 192.649 851.371 188.26 855.245 187.228C857.569 186.453 860.41 185.678 864.025 185.42C867.382 184.904 869.964 184.904 872.289 184.904C874.096 184.646 876.679 184.646 879.777 184.646H883.651V184.904Z" fill="#7B6961"/>
<path d="M895.107 251.461H416.26C414.266 251.461 412.937 253.389 412.937 255.317C412.937 257.631 414.599 259.173 416.26 259.173H895.107C897.101 259.173 898.43 257.245 898.43 255.317C898.43 253.004 897.101 251.461 895.107 251.461Z" fill="#57A9B7"/>
<path fill-rule="evenodd" clip-rule="evenodd" d="M412.184 255.317C412.184 252.965 413.801 250.588 416.26 250.588H895.107C896.275 250.588 897.307 251.043 898.049 251.904C898.791 252.765 899.184 253.962 899.184 255.317C899.184 257.669 897.566 260.046 895.107 260.046H416.26C414.232 260.046 412.184 258.168 412.184 255.317ZM416.26 252.335C414.731 252.335 413.691 253.813 413.691 255.317C413.691 257.093 414.965 258.299 416.26 258.299H895.107C896.636 258.299 897.677 256.821 897.677 255.317C897.677 254.359 897.405 253.628 896.983 253.139C896.562 252.65 895.933 252.335 895.107 252.335H416.26Z" fill="#57A9B7"/>
</svg>
