<svg width="231" height="111" viewBox="0 0 231 111" fill="none" xmlns="http://www.w3.org/2000/svg">
<g id="Sphere Logo 3">
<g id="Group 269">
<g id="Group">
<g id="Group_2">
<path id="Vector" d="M98.9689 76.8207C98.9689 76.8207 100.418 78.2716 102.292 78.2716C103.315 78.2716 104.252 77.7595 104.252 76.6501C104.252 74.2604 97.9463 74.6872 97.9463 70.5907C97.9463 68.3717 99.8211 66.7502 102.378 66.7502C105.019 66.7502 106.383 68.201 106.383 68.201L105.36 70.1639C105.36 70.1639 104.082 68.9691 102.378 68.9691C101.27 68.9691 100.332 69.6519 100.332 70.5907C100.332 72.9803 106.553 72.3829 106.553 76.6501C106.553 78.7837 104.934 80.5759 102.207 80.5759C99.2246 80.5759 97.6055 78.7837 97.6055 78.7837L98.9689 76.8207Z" fill="#7B6961" stroke="#7B6961" stroke-width="0.0878218" stroke-miterlimit="10"/>
<path id="Vector_2" d="M108.939 66.9209H114.052C116.524 66.9209 118.313 68.6277 118.313 71.2734C118.313 73.8337 116.609 75.6259 114.052 75.6259H111.325V80.2345H108.939V66.9209ZM113.626 73.4923C115.075 73.4923 115.842 72.5536 115.842 71.1881C115.842 69.8226 114.99 68.9691 113.626 68.9691H111.325V73.4923H113.626V73.4923Z" fill="#7B6961" stroke="#7B6961" stroke-width="0.0878218" stroke-miterlimit="10"/>
<path id="Vector_3" d="M120.358 66.9209H122.744V72.5536H128.88V66.9209H131.266V80.2345H128.88V74.6018H122.744V80.2345H120.358V66.9209Z" fill="#7B6961" stroke="#7B6961" stroke-width="0.0878218" stroke-miterlimit="10"/>
<path id="Vector_4" d="M134.589 66.9209H142.6V68.9691H137.061V72.4682H141.577V74.5165H137.061V78.1009H142.941V80.1492H134.675V66.9209H134.589Z" fill="#7B6961" stroke="#7B6961" stroke-width="0.0878218" stroke-miterlimit="10"/>
<path id="Vector_5" d="M145.241 66.9209H149.502C150.95 66.9209 151.632 67.0062 152.144 67.2622C153.507 67.8597 154.359 69.1398 154.359 70.932C154.359 72.5536 153.507 74.0044 152.144 74.6018C152.144 74.6018 152.314 74.7725 152.57 75.2846L155.297 80.2345H152.57L149.928 75.2846H147.712V80.2345H145.326V66.9209H145.241ZM149.843 73.151C151.121 73.151 151.973 72.3829 151.973 71.0174C151.973 69.7372 151.462 68.9691 149.502 68.9691H147.712V73.151H149.843Z" fill="#7B6961" stroke="#7B6961" stroke-width="0.0878218" stroke-miterlimit="10"/>
<path id="Vector_6" d="M157.513 66.9209H165.523V68.9691H159.984V72.4682H164.5V74.5165H159.984V78.1009H165.864V80.1492H157.598V66.9209H157.513Z" fill="#7B6961" stroke="#7B6961" stroke-width="0.0878218" stroke-miterlimit="10"/>
</g>
</g>
<g id="Group 262">
<path id="Vector_7" d="M42.3615 56.9975C42.3015 56.6375 42.2415 56.2175 42.2415 55.7975V55.6175L22.1972 57.2375H22.0771L22.1972 58.7375L42.4215 57.1175L42.3615 56.9975Z" fill="#7B6961"/>
<path id="Vector_8" d="M45.0026 47.2777C45.1227 47.0977 45.2427 46.9777 45.3627 46.7977C45.4827 46.6177 45.6028 46.4977 45.7828 46.3177L45.9028 46.1977L30.7196 32.8779L30.5996 32.7579L29.5793 33.8979L44.8826 47.3977L45.0026 47.2777Z" fill="#7B6961"/>
<path id="Vector_9" d="M43.0817 59.7573C42.9616 59.3973 42.8416 58.9773 42.7216 58.6173L42.6616 58.4373L23.5175 64.4372L23.3975 64.4972L23.8776 65.9372L43.1417 59.8773L43.0817 59.7573Z" fill="#7B6961"/>
<path id="Vector_10" d="M42.7217 51.7771L42.7817 51.5971C42.9017 51.2371 43.0217 50.8171 43.1418 50.4571L43.2018 50.3371L23.9977 43.4972L23.5176 44.8771L42.6017 51.7171L42.7217 51.7771Z" fill="#7B6961"/>
<path id="Vector_11" d="M42.3016 54.2969V54.1169C42.3616 53.6969 42.3616 53.3369 42.4816 52.9169V52.7369L22.5573 49.917H22.4373L22.1973 51.4169L42.1215 54.2969H42.3016Z" fill="#7B6961"/>
<path id="Vector_12" d="M59.1655 42.9571L59.2856 43.0171C59.6456 43.1371 60.0057 43.3171 60.3658 43.4371L60.4858 43.4971L67.9874 24.8373L68.0474 24.7173L66.6671 24.1773L59.2255 42.7771L59.1655 42.9571Z" fill="#7B6961"/>
<path id="Vector_13" d="M57.7255 42.5976L57.9055 42.6576L61.0862 22.6778V22.5578L59.5859 22.3178L56.3452 42.2376V42.4176H56.5253C56.9453 42.4176 57.3054 42.4776 57.7255 42.5976Z" fill="#7B6961"/>
<path id="Vector_14" d="M61.5654 44.0372L61.6855 44.0972C62.0455 44.2772 62.3456 44.5172 62.7057 44.7572L62.8257 44.8772L73.9281 27.8374L72.6678 26.9974L61.6254 43.8572L61.5654 44.0372Z" fill="#7B6961"/>
<path id="Vector_15" d="M53.5238 42.4172H53.7038C54.1239 42.3572 54.484 42.3572 54.9041 42.3572H55.0841L53.9439 22.1975L53.8839 22.0775L52.3835 22.1375L53.5238 42.2372V42.4172Z" fill="#7B6961"/>
<path id="Vector_16" d="M46.6227 45.5372C46.9227 45.2972 47.2228 44.9972 47.5229 44.8172L47.6429 44.6972L35.2802 28.8574L35.1602 28.7374L33.96 29.6374L46.4426 45.5972L46.6227 45.5372Z" fill="#7B6961"/>
<path id="Vector_17" d="M48.483 44.1573L48.603 44.0973C48.9631 43.9173 49.3232 43.7373 49.6832 43.5573L49.8033 43.4973L40.6213 25.3776L39.301 26.0376L48.423 43.9773L48.483 44.1573Z" fill="#7B6961"/>
<path id="Vector_18" d="M51.0034 43.0175C51.3634 42.8975 51.7835 42.7775 52.1436 42.6575L52.3236 42.5975L46.9225 23.0977L45.4822 23.5177L50.8833 43.0775L51.0034 43.0175Z" fill="#7B6961"/>
<path id="Vector_19" d="M43.6221 49.3772L43.6821 49.2572C43.8621 48.8972 44.0422 48.5372 44.2822 48.2372L44.3422 48.1172L27.1185 37.6774L26.3384 38.9374L43.5021 49.3172L43.6221 49.3772Z" fill="#7B6961"/>
<path id="Vector_20" d="M44.4025 62.2768L44.2824 62.1568C44.0424 61.7968 43.8623 61.4968 43.6823 61.1368L43.6223 61.0168L26.0985 70.9767L25.9785 71.0367L26.6987 72.3567L44.2824 62.3968L44.4025 62.2768Z" fill="#7B6961"/>
<path id="Vector_21" d="M77.3491 30.7771L77.229 30.6571L76.2088 31.7971L76.3288 31.9171C82.5102 37.437 86.231 44.9969 86.8311 53.2768C87.4312 61.5567 84.7906 69.5966 79.3895 75.8966C73.9283 82.3165 66.3067 86.2164 57.9049 86.8764C50.3433 87.4764 42.7817 85.3165 36.7204 80.8165C37.2005 80.2765 38.3407 78.7765 38.7008 78.2965C43.5618 81.8365 49.3231 83.7565 55.3844 83.7565C63.7261 83.7565 71.5278 80.1565 76.929 73.8566C81.85 68.0967 84.1905 60.7767 83.5904 53.2768C82.9903 45.9569 79.6896 39.237 74.1684 34.3771L74.0484 34.2571L69.9075 38.817L70.0275 38.937C79.0294 46.8569 79.9896 60.7167 72.248 69.8366C68.4071 74.3366 63.066 77.0366 57.1847 77.5165C51.9636 77.9365 46.7425 76.4966 42.5416 73.4366C42.6616 73.3166 42.7817 73.1366 42.9617 72.8966C43.4418 72.2366 44.282 71.2166 44.522 70.9166C48.1228 73.4966 52.5037 74.6966 56.9447 74.3366C61.9858 73.9166 66.5467 71.6366 69.7874 67.7967C76.4489 59.9968 75.5487 48.1769 67.867 41.397L67.687 41.157L63.5461 45.7169L63.6661 45.8369C66.1867 47.9969 67.747 51.0569 68.0471 54.4168C68.2871 57.7768 67.2669 61.0767 65.0464 63.5967C62.826 66.1767 59.7653 67.7367 56.4046 67.9767C53.1039 68.2167 49.8632 67.1967 47.3426 65.0967L47.2226 64.9767L46.3224 66.1767L46.4424 66.2967C52.3837 71.1566 61.2056 70.3766 66.1867 64.5567C68.6472 61.6767 69.8475 58.0168 69.5474 54.2368C69.3073 50.9369 67.867 47.8169 65.5865 45.4769C65.9466 45.0569 67.3269 43.557 67.747 43.137C74.0484 49.4969 74.4684 59.7568 68.6472 66.5967C65.6466 70.1366 61.4457 72.2366 56.8247 72.5966C52.3237 72.9566 48.0028 71.5766 44.522 68.7567L44.402 68.6367L40.5012 73.6766L40.6212 73.7966C45.3622 77.5765 51.2435 79.4365 57.3048 78.9565C63.6061 78.4765 69.3073 75.5366 73.3882 70.7366C81.4299 61.3167 80.7698 47.2169 71.9479 38.577C72.188 38.337 72.7281 37.677 73.2682 37.137C73.7483 36.657 73.9883 36.357 74.1084 36.237C84.1905 46.0169 84.9707 62.0967 75.7887 72.8366C71.2277 78.1765 64.8664 81.4765 57.9049 82.1365C50.9434 82.7965 44.1019 80.7565 38.6408 76.3766L38.5208 76.2566L34.7399 81.0565L34.6799 81.1165L34.8 81.2365C40.6812 85.9764 47.8227 88.4364 55.3243 88.4364C56.2245 88.4364 57.1247 88.3764 57.9649 88.3164C66.7868 87.5964 74.7685 83.5165 80.4697 76.7966C86.1109 70.1966 88.8715 61.7967 88.2714 53.0968C87.7313 44.4569 83.8304 36.537 77.3491 30.7771Z" fill="#7B6961"/>
<path id="Vector_22" d="M46.1421 64.3768L46.0221 64.2568C45.722 63.9568 45.4819 63.6568 45.2419 63.3568L45.1219 63.2368L30.2387 76.6767L30.1187 76.7967L31.1389 77.9366L46.0221 64.5568L46.1421 64.3768Z" fill="#7B6961"/>
</g>
<g id="Group_3">
<g id="Group_4">
<path id="Vector_23" d="M108.117 41.4128H109.281V40.7856C109.281 36.9325 107.312 35.678 104.536 35.678C101.581 35.678 99.6114 37.2909 99.6114 37.2909L98.8056 36.126C98.8056 36.126 100.865 34.2443 104.625 34.2443C108.565 34.2443 110.714 36.4844 110.714 40.7856V51.8968H109.281V49.6566C109.281 48.7606 109.46 48.1333 109.46 48.1333H109.371C109.371 48.1333 107.849 52.3448 103.372 52.3448C100.596 52.3448 97.5521 50.8215 97.5521 47.3269C97.4625 41.5024 105.073 41.4128 108.117 41.4128ZM103.372 51.0007C107.132 51.0007 109.281 47.1476 109.281 43.7426V42.8465H108.207C105.252 42.8465 99.0742 42.8465 99.0742 47.3269C98.9846 49.119 100.507 51.0007 103.372 51.0007Z" fill="#7B6961" stroke="#7B6961" stroke-width="0.304523" stroke-miterlimit="10"/>
<path id="Vector_24" d="M125.399 41.4128H126.563V40.7856C126.563 36.9325 124.593 35.678 121.817 35.678C118.862 35.678 116.893 37.2909 116.893 37.2909L116.087 36.126C116.087 36.126 118.146 34.2443 121.907 34.2443C125.846 34.2443 127.995 36.4844 127.995 40.7856V51.8968H126.563V49.6566C126.563 48.7606 126.742 48.1333 126.742 48.1333H126.652C126.652 48.1333 125.13 52.3448 120.653 52.3448C117.878 52.3448 114.833 50.8215 114.833 47.3269C114.744 41.5024 122.354 41.4128 125.399 41.4128ZM120.653 51.0007C124.414 51.0007 126.563 47.1476 126.563 43.7426V42.8465H125.488C122.533 42.8465 116.355 42.8465 116.355 47.3269C116.266 49.119 117.788 51.0007 120.653 51.0007Z" fill="#7B6961" stroke="#7B6961" stroke-width="0.304523" stroke-miterlimit="10"/>
<path id="Vector_25" d="M132.919 48.7605C132.919 48.7605 134.8 50.911 138.202 50.911C140.261 50.911 142.142 49.8358 142.142 47.6852C142.142 43.2945 132.651 44.5489 132.651 38.9933C132.651 35.9467 135.247 34.3338 138.112 34.3338C141.604 34.3338 143.216 36.2155 143.216 36.2155L142.321 37.3804C142.321 37.3804 140.888 35.7675 138.023 35.7675C136.053 35.7675 134.173 36.6635 134.173 38.9037C134.173 43.3841 143.664 42.04 143.664 47.7748C143.664 50.5526 141.336 52.4344 138.202 52.4344C134.083 52.4344 132.024 49.9254 132.024 49.9254L132.919 48.7605Z" fill="#7B6961" stroke="#7B6961" stroke-width="0.304523" stroke-miterlimit="10"/>
<path id="Vector_26" d="M148.678 36.126H146.439V34.7819H148.678V29.9431H150.11V34.7819H154.587V36.126H150.11V45.6243C150.11 50.1943 152.797 50.7319 154.229 50.7319C154.677 50.7319 155.035 50.6423 155.035 50.6423V51.9864C155.035 51.9864 154.677 52.076 154.14 52.076C152.349 52.076 148.678 51.4488 148.678 45.7139V36.126Z" fill="#7B6961" stroke="#7B6961" stroke-width="0.304523" stroke-miterlimit="10"/>
<g id="Group 263">
<path id="Vector_27" d="M104.774 33.9707C103.574 33.9707 102.493 34.1507 101.473 34.5107C100.453 34.8707 99.7928 35.1707 99.4327 35.3507C99.1327 35.5307 98.9526 35.7107 98.7726 35.8307L98.5325 36.0107L99.6128 37.5707L100.333 37.0307C101.173 36.4307 102.973 35.8307 104.594 35.8307C107.654 35.8307 109.155 37.4507 109.155 40.8107V41.1706H108.315C107.054 41.1706 106.454 41.1706 104.834 41.3506C103.214 41.4706 102.193 41.7106 100.753 42.3106C98.4725 43.2706 97.3323 45.0106 97.3323 47.3506C97.3323 49.0306 97.9324 50.3505 99.1927 51.3105C100.393 52.2105 101.833 52.6305 103.454 52.6305C105.794 52.6305 107.414 51.4905 108.315 50.4705C108.735 49.9905 109.035 49.5705 109.275 49.1506L109.215 49.6905V52.2105H111.135V40.7507C111.135 36.3107 108.975 33.9707 104.774 33.9707ZM109.275 42.9706V43.6906C109.275 45.4906 108.735 47.1706 107.654 48.6706C106.634 50.1105 105.254 50.8305 103.514 50.8305C100.753 50.8305 99.3127 49.0306 99.3127 47.2306C99.1327 44.7706 101.773 43.7506 102.613 43.5106C103.154 43.3306 103.814 43.1506 104.654 43.0906C105.434 42.9706 106.034 42.9706 106.574 42.9706C106.994 42.9106 107.594 42.9106 108.315 42.9106H109.275V42.9706Z" fill="#7B6961"/>
<path id="Vector_28" d="M122.118 33.9707C120.917 33.9707 119.837 34.1507 118.817 34.5107C117.797 34.8707 117.137 35.1707 116.776 35.3507C116.476 35.5307 116.296 35.7107 116.116 35.8307L115.876 36.0107L116.956 37.5707L117.677 37.0307C118.517 36.4307 120.317 35.8307 121.938 35.8307C124.998 35.8307 126.499 37.4507 126.499 40.8107V41.1706H125.598C124.338 41.1706 123.738 41.1706 122.118 41.3506C120.497 41.4706 119.477 41.7106 118.037 42.3106C115.756 43.2706 114.616 45.0106 114.616 47.3506C114.616 49.0306 115.216 50.3505 116.476 51.3105C117.677 52.2105 119.117 52.6305 120.737 52.6305C123.078 52.6305 124.698 51.4905 125.598 50.4705C126.018 49.9905 126.318 49.5705 126.559 49.1506L126.499 49.6905V52.2105H128.419V40.7507C128.479 36.3107 126.318 33.9707 122.118 33.9707ZM126.619 42.9706V43.6906C126.619 45.4906 126.078 47.1706 124.998 48.6706C123.978 50.1105 122.598 50.8305 120.857 50.8305C118.097 50.8305 116.656 49.0306 116.656 47.2306C116.476 44.7706 119.117 43.7506 119.957 43.5106C120.497 43.3306 121.157 43.1506 121.998 43.0906C122.778 42.9706 123.378 42.9706 123.918 42.9706C124.338 42.9106 124.938 42.9106 125.658 42.9106H126.619V42.9706Z" fill="#7B6961"/>
<path id="Vector_29" d="M138.382 42.1906L137.902 42.0106C135.741 41.1706 134.661 40.0907 134.661 38.7707C134.661 36.6107 136.581 35.8307 138.382 35.8307C140.122 35.8307 141.802 36.6107 142.103 36.9707L142.763 37.5707L143.903 36.0107L143.243 35.4107C142.583 34.8107 140.662 33.9707 138.442 33.9707C136.821 33.9707 135.441 34.3907 134.361 35.2907C133.221 36.1307 132.681 37.3307 132.681 38.8907C132.681 42.1906 135.981 43.3906 138.622 44.3506L139.042 44.4706C141.202 45.2506 142.283 46.3306 142.283 47.6506C142.283 49.4505 140.782 50.7105 138.502 50.7105C137.542 50.7105 136.581 50.5305 135.621 50.1105C134.661 49.6905 134.121 49.3905 133.881 49.1506C133.641 48.9106 133.401 48.7306 133.281 48.5506L133.101 48.3106L131.84 49.8105L132.621 50.5905C133.581 51.5505 135.981 52.5105 138.382 52.5105C141.802 52.5105 144.143 50.4705 144.143 47.5906C144.263 44.3506 141.022 43.1506 138.382 42.1906Z" fill="#7B6961"/>
<path id="Vector_30" d="M152.064 49.7504C151.104 49.0304 150.564 47.5304 150.564 45.6104V36.2506H155.125V34.4506H150.564V29.5306H148.643V34.4506H146.363V36.2506H148.643V45.6705C148.643 51.6704 152.664 52.3304 154.405 52.3304C154.765 52.3304 155.065 52.2704 155.305 52.2704H155.485V50.4704L154.465 50.5904C153.684 50.5304 152.964 50.4104 152.064 49.7504Z" fill="#7B6961"/>
<path id="Vector_31" d="M161.006 38.0502V34.3902H159.086V52.21H161.006V44.4701C161.006 43.1501 161.186 41.9501 161.546 40.8701C162.447 37.9302 164.247 36.1902 166.528 36.1902C166.768 36.1902 167.008 36.2502 167.308 36.2502L167.548 36.3102V34.3902L166.287 34.2702C164.127 34.2102 162.207 35.6502 161.006 38.0502Z" fill="#7B6961"/>
<path id="Vector_32" d="M173.022 27.4225H170.861V30.4224H173.022V27.4225Z" fill="#7B6961"/>
<path id="Vector_33" d="M172.948 34.3904H171.028V52.2101H172.948V34.3904Z" fill="#7B6961"/>
<path id="Vector_34" d="M191.493 34.3907H188.972L183.331 41.2306H180.571V27.4308H178.71V52.2105H180.571V43.0306H183.331L189.633 52.2105H192.033L184.952 42.1306L191.493 34.3907Z" fill="#7B6961"/>
<path id="Vector_35" d="M200.915 33.9707C199.714 33.9707 198.634 34.1507 197.614 34.5107C196.594 34.8707 195.934 35.1707 195.574 35.3507C195.274 35.5307 195.093 35.7107 194.913 35.8307L194.673 36.0107L195.754 37.5707L196.534 37.0307C197.374 36.4307 199.174 35.8307 200.795 35.8307C203.855 35.8307 205.356 37.4507 205.356 40.8107V41.1706H204.456C203.195 41.1706 202.595 41.1706 200.975 41.3506C199.354 41.4706 198.334 41.7106 196.894 42.3106C194.613 43.2706 193.473 45.0106 193.473 47.3506C193.473 49.0306 194.073 50.3505 195.334 51.3105C196.534 52.2105 197.974 52.6305 199.594 52.6305C201.935 52.6305 203.555 51.4905 204.456 50.4705C204.876 49.9905 205.176 49.5705 205.416 49.1506L205.356 49.6905V52.2105H207.276V40.7507C207.276 36.3107 205.116 33.9707 200.915 33.9707ZM205.356 42.9706V43.6906C205.356 45.4906 204.816 47.1706 203.735 48.6706C202.715 50.1105 201.335 50.8305 199.594 50.8305C196.834 50.8305 195.394 49.0306 195.394 47.2306C195.214 44.7706 197.854 43.7506 198.754 43.5106C199.294 43.3306 199.955 43.1506 200.795 43.0906C201.575 42.9706 202.175 42.9706 202.715 42.9706C203.135 42.9106 203.735 42.9106 204.456 42.9106H205.356V42.9706Z" fill="#7B6961"/>
</g>
</g>
<g id="Vector_36">
<path d="M208.018 58.4382H96.7364C96.2731 58.4382 95.9642 58.8863 95.9642 59.3343C95.9642 59.8719 96.3503 60.2304 96.7364 60.2304H208.018C208.481 60.2304 208.79 59.7823 208.79 59.3343C208.79 58.7966 208.481 58.4382 208.018 58.4382Z" fill="#57A9B7"/>
<path fill-rule="evenodd" clip-rule="evenodd" d="M95.7891 59.3343C95.7891 58.7877 96.1651 58.2352 96.7364 58.2352H208.018C208.289 58.2352 208.529 58.3411 208.702 58.5411C208.874 58.7412 208.965 59.0194 208.965 59.3343C208.965 59.8809 208.589 60.4334 208.018 60.4334H96.7364C96.265 60.4334 95.7891 59.9969 95.7891 59.3343ZM96.7364 58.6412C96.3811 58.6412 96.1393 58.9848 96.1393 59.3343C96.1393 59.747 96.4356 60.0273 96.7364 60.0273H208.018C208.373 60.0273 208.615 59.6838 208.615 59.3343C208.615 59.1115 208.552 58.9417 208.454 58.8281C208.356 58.7145 208.21 58.6412 208.018 58.6412H96.7364Z" fill="#57A9B7"/>
</g>
</g>
</g>
</g>
</svg>
