<svg width="166" height="141" viewBox="0 0 166 141" fill="none" xmlns="http://www.w3.org/2000/svg">
<path d="M101 70.1019C119.854 64.835 133.614 51.141 141.87 40.6657C150.829 29.2541 155.337 18.9543 155.396 18.8373L156.216 19.1299C156.157 19.2469 151.59 29.6052 142.573 41.1339C134.258 51.7848 120.323 65.5373 101.234 70.9212L101 70.1019Z" fill="#BDBAAC"/>
<path d="M154.927 14.9743C153.054 17.7248 152.585 20.8264 153.346 23.6355C156.333 23.1088 159.143 21.3531 161.017 18.6611C162.891 15.9692 163.359 12.809 162.598 10C159.612 10.5267 156.801 12.2823 154.927 14.9743Z" fill="#BDBAAC"/>
<path d="M156.099 25.6851C152.82 26.68 150.302 28.8453 149.014 31.4202C151.707 32.7662 155.103 33.1173 158.382 32.1225C161.661 31.1276 164.179 28.9623 165.467 26.3874C162.774 25.0414 159.378 24.6903 156.099 25.6851Z" fill="#BDBAAC"/>
<path d="M153.874 35.3395C150.478 34.8129 147.199 35.6322 144.798 37.3878C146.554 39.7286 149.365 41.4843 152.82 42.011C156.216 42.5377 159.495 41.7184 161.895 39.9627C160.139 37.6219 157.27 35.8662 153.874 35.3395Z" fill="#BDBAAC"/>
<path d="M146.789 44.4099C143.393 43.8832 140.114 44.7025 137.713 46.4581C139.469 48.799 142.28 50.5546 145.735 51.0813C149.131 51.608 152.41 50.7887 154.81 49.0331C153.054 46.6922 150.185 44.9366 146.789 44.4099Z" fill="#BDBAAC"/>
<path d="M148.194 29.9561C148.194 27.03 146.964 24.338 145.032 22.4653C143.1 24.1624 141.87 26.7374 141.87 29.6635C141.87 32.5895 143.1 35.2815 145.032 37.1542C146.964 35.4571 148.194 32.8821 148.194 29.9561Z" fill="#BDBAAC"/>
<path d="M140.757 39.3791C140.816 36.453 139.586 33.7025 137.713 31.8298C135.722 33.4684 134.492 36.0434 134.434 38.9694C134.375 41.8955 135.605 44.646 137.478 46.5187C139.469 44.8801 140.757 42.3051 140.757 39.3791Z" fill="#BDBAAC"/>
<path d="M85.4671 77.1019C66.613 71.835 52.853 58.141 44.597 47.6657C35.6383 36.2541 31.1297 25.9543 31.0712 25.8373L30.2514 26.1299C30.31 26.2469 34.8771 36.6052 43.8943 48.1339C52.2089 58.7848 66.1446 72.5373 85.2329 77.9212L85.4671 77.1019Z" fill="#BDBAAC"/>
<path d="M31.5398 21.9743C33.4135 24.7248 33.8819 27.8264 33.1207 30.6355C30.1345 30.1088 27.3239 28.3531 25.4502 25.6611C23.5765 22.9692 23.1081 19.809 23.8693 17C26.8555 17.5267 29.6661 19.2823 31.5398 21.9743Z" fill="#BDBAAC"/>
<path d="M30.3685 32.6851C33.6475 33.68 36.1653 35.8453 37.4535 38.4202C34.76 39.7662 31.3639 40.1173 28.0849 39.1225C24.806 38.1276 22.2882 35.9623 21 33.3874C23.6934 32.0414 27.0895 31.6903 30.3685 32.6851Z" fill="#BDBAAC"/>
<path d="M32.5935 42.3395C35.9896 41.8129 39.2686 42.6322 41.6693 44.3878C39.9127 46.7286 37.1021 48.4843 33.6475 49.011C30.2514 49.5377 26.9724 48.7184 24.5717 46.9627C26.3283 44.6219 29.1974 42.8662 32.5935 42.3395Z" fill="#BDBAAC"/>
<path d="M39.6785 51.4099C43.0746 50.8832 46.3536 51.7025 48.7542 53.4581C46.9976 55.799 44.1871 57.5546 40.7324 58.0813C37.3364 58.608 34.0574 57.7887 31.6567 56.0331C33.4133 53.6922 36.2824 51.9366 39.6785 51.4099Z" fill="#BDBAAC"/>
<path d="M38.2732 36.9561C38.2732 34.03 39.5029 31.338 41.4351 29.4653C43.3674 31.1624 44.597 33.7374 44.597 36.6635C44.597 39.5895 43.3674 42.2815 41.4351 44.1542C39.5029 42.4571 38.2732 39.8821 38.2732 36.9561Z" fill="#BDBAAC"/>
<path d="M45.7098 46.3791C45.6512 43.453 46.8808 40.7025 48.7545 38.8298C50.7453 40.4684 51.9749 43.0434 52.0335 45.9694C52.092 48.8955 50.8624 51.646 48.9887 53.5187C46.9979 51.8801 45.7098 49.3051 45.7098 46.3791Z" fill="#BDBAAC"/>
<path d="M135.077 58.6564C133.789 58.0126 132.384 57.9541 131.096 58.3638C131.388 59.5927 132.267 60.7046 133.496 61.3483C134.785 61.9921 136.19 62.0506 137.478 61.641C137.185 60.412 136.365 59.3001 135.077 58.6564Z" fill="#BDBAAC"/>
<path d="M77.9231 95.3193C77.9231 95.3193 89.6923 22.6359 101.403 22.6359C112.118 22.6359 99.2365 49.5556 100.525 55.3493C101.813 61.1429 112.235 37.6173 122.833 26.6738C133.432 15.7303 139.931 21.758 133.783 35.0424C127.81 47.8585 106.263 62.8985 111.064 64.186C115.866 65.4734 142.976 47.6244 147.016 54.1788C151.993 62.2548 110.303 76.534 114.519 78.114C118.676 79.6941 138.584 72.1449 138.584 78.5822C138.584 85.0195 111.123 86.5996 111.825 89.4086C112.996 93.9148 138.291 84.4343 139.638 90.6961C141.043 97.0749 108.195 95.4949 109.073 100.528C109.542 103.395 140.809 99.7669 141.922 103.688C144.498 112.7 74 117.499 74 117.499L77.9231 95.3193Z" fill="#DFDCCF"/>
<path d="M51.5834 109.388C51.5834 109.388 28.3963 89.023 25.3516 90.5445C22.3068 92.0661 1.93026 82.2345 0.115109 87.5599C-2.10991 94.1143 28.6891 99.9079 26.1713 101.605C23.595 103.302 8.19546 99.7324 9.0152 104.473C9.8935 109.213 28.3378 107.048 28.2207 109.154C28.045 112.607 10.0106 108.745 9.95205 113.485C9.8935 118.342 31.4996 113.192 31.5582 116.938C31.6168 119.103 18.3837 119.396 18.1495 122.439C17.6811 129.344 61.0105 127.706 61.0105 127.706L51.5834 109.388Z" fill="#DFDCCF"/>
<path d="M77.6974 125.538C77.6974 125.538 55.5057 73.2783 52.8123 61.3985C50.1188 49.5187 61.0097 57.0094 61.0097 57.0094C61.0097 57.0094 48.5379 33.3668 53.3392 27.105C58.1406 20.8432 65.1084 27.0465 65.1084 27.0465C65.1084 27.0465 65.2841 0.945998 71.0809 0.0681787C81.8547 -1.57042 83.4356 26.8709 83.4356 26.8709C83.4356 26.8709 84.8409 14.5815 90.989 16.9808C100.24 20.6092 90.5206 46.3 90.5206 46.3C90.5206 46.3 101.587 44.6614 106.154 49.7528C114.176 58.8821 77.6974 125.538 77.6974 125.538Z" fill="#D2C1B9"/>
<path d="M84.7833 121.383C84.7833 121.383 42.098 114.243 32.8466 106.694C23.5952 99.145 32.7295 95.7508 32.7295 95.7508C32.7295 95.7508 11.299 84.7488 11.5332 77.3165C11.7674 69.8258 22.4241 73.6297 22.4241 73.6297C22.4241 73.6297 4.38972 53.0302 8.66411 49.1678C16.6274 41.9112 37.5309 63.2714 37.5309 63.2714C37.5309 63.2714 31.3242 53.0887 37.8236 51.5087C47.6606 49.1093 54.9212 74.1564 54.9212 74.1564C54.9212 74.1564 53.0475 64.2663 59.8396 65.5538C72.0773 67.8946 84.7833 121.383 84.7833 121.383Z" fill="#D2C1B9"/>
<path d="M84.5 141C117.913 141 145 113.913 145 80.5C145 47.0868 117.913 20 84.5 20C51.0868 20 24 47.0868 24 80.5C24 113.913 51.0868 141 84.5 141Z" fill="#F1E7E3"/>
<path d="M106.68 32.9789H63.2613C61.287 32.9789 59.6865 34.5794 59.6865 36.5537V122.385C59.6865 124.359 61.287 125.96 63.2613 125.96H106.68C108.655 125.96 110.255 124.359 110.255 122.385V36.5537C110.255 34.5794 108.655 32.9789 106.68 32.9789Z" fill="white"/>
<path d="M103.453 57.6049H68.5324C68.3624 57.6049 68.2248 57.4654 68.2248 57.2973C68.2248 57.1273 68.3643 56.9897 68.5324 56.9897H103.453C103.623 56.9897 103.761 57.1292 103.761 57.2973C103.761 57.4674 103.621 57.6049 103.453 57.6049Z" fill="#918F8F"/>
<path d="M103.453 60.1747H68.5324C68.3624 60.1747 68.2248 60.0352 68.2248 59.8671C68.2248 59.697 68.3643 59.5594 68.5324 59.5594H103.453C103.623 59.5594 103.761 59.6989 103.761 59.8671C103.761 60.0371 103.621 60.1747 103.453 60.1747Z" fill="#918F8F"/>
<path d="M103.453 62.7445H68.5324C68.3624 62.7445 68.2248 62.605 68.2248 62.4369C68.2248 62.2669 68.3643 62.1293 68.5324 62.1293H103.453C103.623 62.1293 103.761 62.2688 103.761 62.4369C103.761 62.607 103.621 62.7445 103.453 62.7445Z" fill="#918F8F"/>
<path d="M103.453 65.3162H68.5324C68.3624 65.3162 68.2248 65.1767 68.2248 65.0086C68.2248 64.8385 68.3643 64.701 68.5324 64.701H103.453C103.623 64.701 103.761 64.8404 103.761 65.0086C103.761 65.1786 103.621 65.3162 103.453 65.3162Z" fill="#918F8F"/>
<path d="M103.453 67.886H68.5324C68.3624 67.886 68.2248 67.7465 68.2248 67.5784C68.2248 67.4083 68.3643 67.2707 68.5324 67.2707H103.453C103.623 67.2707 103.761 67.4102 103.761 67.5784C103.761 67.7484 103.621 67.886 103.453 67.886Z" fill="#918F8F"/>
<path d="M103.453 70.4557H68.5324C68.3624 70.4557 68.2248 70.3163 68.2248 70.1481C68.2248 69.9781 68.3643 69.8405 68.5324 69.8405H103.453C103.623 69.8405 103.761 69.98 103.761 70.1481C103.761 70.3182 103.621 70.4557 103.453 70.4557Z" fill="#918F8F"/>
<path d="M103.453 73.0256H68.5324C68.3624 73.0256 68.2248 72.8861 68.2248 72.718C68.2248 72.5479 68.3643 72.4104 68.5324 72.4104H103.453C103.623 72.4104 103.761 72.5498 103.761 72.718C103.761 72.888 103.621 73.0256 103.453 73.0256Z" fill="#918F8F"/>
<path d="M103.453 75.5954H68.5324C68.3624 75.5954 68.2248 75.4559 68.2248 75.2877C68.2248 75.1177 68.3643 74.9801 68.5324 74.9801H103.453C103.623 74.9801 103.761 75.1196 103.761 75.2877C103.761 75.4578 103.621 75.5954 103.453 75.5954Z" fill="#918F8F"/>
<path d="M103.453 78.167H68.5324C68.3624 78.167 68.2248 78.0276 68.2248 77.8594C68.2248 77.6894 68.3643 77.5518 68.5324 77.5518H103.453C103.623 77.5518 103.761 77.6913 103.761 77.8594C103.761 78.0295 103.621 78.167 103.453 78.167Z" fill="#918F8F"/>
<path d="M103.453 80.7369H68.5324C68.3624 80.7369 68.2248 80.5974 68.2248 80.4293C68.2248 80.2592 68.3643 80.1217 68.5324 80.1217H103.453C103.623 80.1217 103.761 80.2611 103.761 80.4293C103.761 80.5993 103.621 80.7369 103.453 80.7369Z" fill="#918F8F"/>
<path d="M103.453 83.3067H68.5324C68.3624 83.3067 68.2248 83.1672 68.2248 82.999C68.2248 82.829 68.3643 82.6914 68.5324 82.6914H103.453C103.623 82.6914 103.761 82.8309 103.761 82.999C103.761 83.1691 103.621 83.3067 103.453 83.3067Z" fill="#918F8F"/>
<path d="M103.453 85.8764H68.5324C68.3624 85.8764 68.2248 85.7369 68.2248 85.5688C68.2248 85.3988 68.3643 85.2612 68.5324 85.2612H103.453C103.623 85.2612 103.761 85.4007 103.761 85.5688C103.761 85.7389 103.621 85.8764 103.453 85.8764Z" fill="#918F8F"/>
<path d="M103.453 88.4482H68.5324C68.3624 88.4482 68.2248 88.3087 68.2248 88.1406C68.2248 87.9705 68.3643 87.833 68.5324 87.833H103.453C103.623 87.833 103.761 87.9724 103.761 88.1406C103.761 88.3106 103.621 88.4482 103.453 88.4482Z" fill="#918F8F"/>
<path d="M103.453 91.018H68.5324C68.3624 91.018 68.2248 90.8785 68.2248 90.7103C68.2248 90.5403 68.3643 90.4027 68.5324 90.4027H103.453C103.623 90.4027 103.761 90.5422 103.761 90.7103C103.761 90.8804 103.621 91.018 103.453 91.018Z" fill="#918F8F"/>
<path d="M103.453 93.5877H68.5324C68.3624 93.5877 68.2248 93.4482 68.2248 93.2801C68.2248 93.1101 68.3643 92.9725 68.5324 92.9725H103.453C103.623 92.9725 103.761 93.112 103.761 93.2801C103.761 93.4502 103.621 93.5877 103.453 93.5877Z" fill="#918F8F"/>
<path d="M97.4546 47.6353H74.1277C73.8545 47.6353 73.6329 47.4118 73.6329 47.1405C73.6329 46.8672 73.8564 46.6456 74.1277 46.6456H97.4546C97.7278 46.6456 97.9494 46.8692 97.9494 47.1405C97.9494 47.4137 97.7259 47.6353 97.4546 47.6353Z" fill="#4399F0"/>
<path d="M92.5213 44.4962H79.0609C78.852 44.4962 78.6826 44.6656 78.6826 44.8745V45.1095C78.6826 45.3184 78.852 45.4878 79.0609 45.4878H92.5213C92.7302 45.4878 92.8996 45.3184 92.8996 45.1095V44.8745C92.8996 44.6656 92.7302 44.4962 92.5213 44.4962Z" fill="#4399F0"/>
<path d="M91.8462 104.765H78.3361C77.9865 104.765 77.7018 104.48 77.7018 104.131C77.7018 103.781 77.9865 103.496 78.3361 103.496H91.8462C92.1958 103.496 92.4805 103.781 92.4805 104.131C92.4805 104.48 92.1958 104.765 91.8462 104.765Z" fill="#7B6961"/>
<path d="M91.8058 115.44H78.1888C77.8697 115.44 77.608 115.178 77.608 114.859C77.608 114.54 77.8697 114.278 78.1888 114.278H91.8058C92.1249 114.278 92.3867 114.54 92.3867 114.859C92.3867 115.178 92.1249 115.44 91.8058 115.44Z" fill="#7B6961"/>
<path d="M104.072 75.6697C104.072 75.6697 102.412 74.0045 103.625 70.0161C103.625 70.0161 101.574 69.6463 101.198 72.4543L99.483 71.6812C99.483 71.6812 96.8882 73.5992 98.5632 76.2735C98.5632 76.2735 99.1937 77.4101 101.241 77.4853L103.5 79L105 76.0437L104.072 75.6697Z" fill="#B18A67"/>
<path d="M114.492 43.5838L116.217 44.4396C116.845 44.7511 117.102 45.5142 116.791 46.1424L116.204 47.3251L112.204 45.3412L112.79 44.1584C113.102 43.5302 113.865 43.2731 114.493 43.5847L114.492 43.5838Z" fill="url(#paint0_linear_3087_3618)"/>
<path d="M97.9074 72.6169C97.7851 72.5557 97.7316 72.4086 97.787 72.2825L109.669 45.6446C109.694 45.5872 109.742 45.5414 109.799 45.5146L111.517 44.7447C111.647 44.6873 111.798 44.7447 111.857 44.8746C111.914 45.0045 111.857 45.1554 111.727 45.2147L110.418 45.8012C110.214 45.8929 110.049 46.0573 109.958 46.2636L98.2571 72.4927C98.1997 72.6226 98.0469 72.6799 97.917 72.6226C97.9131 72.6226 97.9112 72.6188 97.9074 72.6188V72.6169Z" fill="url(#paint1_linear_3087_3618)"/>
<path d="M87.9299 102.918L86.5371 105.589L86.495 105.64L84.9799 107.476L82.2324 110.808L83.2221 106.605L83.7686 104.289L83.7819 104.221L85.064 101.496L87.9299 102.918Z" fill="url(#paint2_linear_3087_3618)"/>
<path d="M84.9799 107.474L82.2324 110.806L83.2221 106.603L84.9799 107.474Z" fill="url(#paint3_linear_3087_3618)"/>
<path d="M117.082 47.1157L88.5432 103.722L86.537 105.589L86.5065 105.646L86.495 105.64L83.7685 104.289L83.7532 104.284L83.7819 104.221L84.2137 101.574L111.841 44.5192L117.082 47.1157Z" fill="#2E6491"/>
<path d="M119.262 55C119.262 55 116.775 55.1403 116.531 57.9224C116.287 60.7046 119.312 63.5751 116.598 66.7704C113.99 69.8388 120.563 74.2061 123.816 70.7015C127.066 67.1969 129 66.5782 129 66.5782L123.747 60.2646L119.264 55.0019L119.262 55Z" fill="#52453F"/>
<path d="M118.08 57.8334C117.839 59.9289 117.997 63.117 120.663 64.918C120.663 64.918 124.7 65.6125 126.305 62.9598C127.909 60.307 126.234 55.2563 126.234 55.2563C126.234 55.2563 124.171 52.9001 120.384 54.6414C119.121 55.2224 118.242 56.4304 118.08 57.8334Z" fill="#B18A67"/>
<path d="M121 64.7162L121.237 68L126 66.8611L125.323 62L121 64.7162Z" fill="#B18A67"/>
<path d="M120.5 134C120.5 134 114.607 138.559 116.263 138.93C118.77 139.493 122.657 136.478 122.916 135.744C123.201 134.935 122.736 134.214 122.736 134.214L120.508 134H120.5Z" fill="#513433"/>
<path d="M119.076 117.3L120.466 133.972C120.466 133.972 117.312 136.209 118.138 136.936C118.67 137.407 121.445 135.132 122.067 134.548C122.138 134.48 122.182 134.387 122.183 134.287L123 116L119.078 117.3H119.076Z" fill="#B18A67"/>
<path d="M124.761 134C124.761 134 118.816 139.308 120.213 139.852C122.64 140.797 125.698 136.941 125.921 136.07C126.165 135.109 125.767 134.254 125.767 134.254L124.763 134H124.761Z" fill="#513433"/>
<path d="M127.998 116.927L126.176 135.278C126.14 135.502 126.025 135.704 125.85 135.85C124.992 136.563 123.082 138.497 122.101 137.88C121.429 137.458 124.343 135.185 124.343 135.185L124.164 115L128 116.927H127.998Z" fill="#B18A67"/>
<path d="M117.607 89.2659C117.607 89.2659 115.83 102.371 115 119H132C132 119 130.214 92.2272 129.317 89L117.605 89.2659H117.607Z" fill="#519DB2"/>
<path d="M132 70.0694L129.513 90L117.849 89.4364L117.211 77.723L117.319 76.4104L113.823 81.2307C112.423 82.5833 103 78.1528 103 78.1528L104.556 75.075L104.574 75.0807L111.614 77.4135C111.614 77.4135 115.408 70.6139 116.151 69.5383C116.163 69.523 116.176 69.5039 116.19 69.4886C116.211 69.46 116.234 69.4313 116.263 69.4046C117.275 68.3003 121.65 66.3974 121.65 66.3974C121.718 67.324 125.686 66 125.686 66L132 70.0675V70.0694Z" fill="#519DB2"/>
<path d="M117.002 84.9084C117.147 84.8148 123.031 81 123.031 81L133 93.9025L126.58 98L117 84.9103L117.002 84.9084Z" fill="#52453F"/>
<path d="M116.822 76.8292L113.447 81.7439C112.095 83.0926 103 78.6751 103 78.6751L104.519 75.6119L111.315 77.9378C111.315 77.9378 114.977 71.1582 115.694 70.0857C115.706 70.0705 115.719 70.0514 115.732 70.0362L115.817 70C115.982 70.4819 117.515 73.0669 116.82 76.8292H116.822Z" fill="#519DB2"/>
<path d="M131.69 70.0131C131.69 70.0131 133.837 73.4417 132.634 84.9892L126.666 91L125 87.781L129.627 81.5332L128.424 74.0079C128.424 74.0079 127.091 69.7545 131.69 70.0112V70.0131Z" fill="#519DB2"/>
<path d="M125.63 88L124.14 88.7359C124.14 88.7359 120.566 89.0884 121.044 90.4708C121.519 91.8532 123.119 93 123.119 93C123.119 93 125.774 93.0292 127 90.3831L125.63 88.0018V88Z" fill="#B18A67"/>
<path d="M118.017 55.6551C118.017 55.6551 117.472 59.3797 122.563 60.7097C122.563 60.7097 125.057 60.4704 123.963 64.2729C123.14 67.1368 131.672 67.5022 129.653 73C129.653 73 134.273 70.0934 133.987 66.9865C133.638 63.2063 130.331 64.1616 129.102 61.9673C127.872 59.7729 129.237 55.9148 125.786 54.0581C120.026 50.9586 118.021 55.6551 118.021 55.6551H118.017Z" fill="#52453F"/>
<path d="M76 111H70V117H76V111Z" fill="white"/>
<defs>
<linearGradient id="paint0_linear_3087_3618" x1="122.856" y1="27.5689" x2="94.5171" y2="89.1732" gradientUnits="userSpaceOnUse">
<stop stop-color="#2F3B7A"/>
<stop offset="1" stop-color="#4D5AA1"/>
</linearGradient>
<linearGradient id="paint1_linear_3087_3618" x1="119.631" y1="26.0874" x2="91.2928" y2="87.6898" gradientUnits="userSpaceOnUse">
<stop stop-color="#2F3B7A"/>
<stop offset="1" stop-color="#4D5AA1"/>
</linearGradient>
<linearGradient id="paint2_linear_3087_3618" x1="121.173" y1="26.7962" x2="92.8345" y2="88.3987" gradientUnits="userSpaceOnUse">
<stop stop-color="#2F3B7A"/>
<stop offset="1" stop-color="#4D5AA1"/>
</linearGradient>
<linearGradient id="paint3_linear_3087_3618" x1="121.039" y1="26.7351" x2="92.7027" y2="88.3375" gradientUnits="userSpaceOnUse">
<stop stop-color="#2F3B7A"/>
<stop offset="1" stop-color="#4D5AA1"/>
</linearGradient>
</defs>
</svg>
