<svg width="18" height="19" viewBox="0 0 18 19" fill="none" xmlns="http://www.w3.org/2000/svg">
<g clip-path="url(#clip0_101_1317)">
<mask id="path-1-inside-1_101_1317" fill="white">
<path d="M15.6402 9.51389H14.1926C14.0006 9.51389 13.8165 9.59015 13.6807 9.72589C13.545 9.86163 13.4688 10.0457 13.4688 10.2377C13.4688 10.4297 13.545 10.6138 13.6807 10.7495C13.8165 10.8853 14.0006 10.9615 14.1926 10.9615V12.4091H13.3341C13.4201 12.1774 13.4654 11.9325 13.468 11.6853C13.468 11.2073 13.3103 10.7427 13.0193 10.3635C12.7283 9.98429 12.3203 9.71169 11.8586 9.58798C11.3969 9.46426 10.9073 9.49635 10.4657 9.67926C10.0241 9.86216 9.65516 10.1857 9.41614 10.5996C9.36786 10.682 9.33635 10.773 9.32342 10.8676C9.31049 10.9622 9.31639 11.0584 9.34079 11.1507C9.36519 11.243 9.4076 11.3295 9.46559 11.4053C9.52357 11.4812 9.59598 11.5448 9.67865 11.5925C9.76131 11.6402 9.8526 11.6712 9.94726 11.6835C10.0419 11.6958 10.1381 11.6892 10.2302 11.6642C10.3223 11.6392 10.4086 11.5962 10.484 11.5377C10.5595 11.4792 10.6226 11.4064 10.6698 11.3234C10.7333 11.2134 10.8247 11.122 10.9347 11.0585C11.0447 10.995 11.1695 10.9615 11.2966 10.9615C11.4886 10.9615 11.6727 11.0378 11.8084 11.1735C11.9441 11.3093 12.0204 11.4934 12.0204 11.6853C12.0204 11.8773 11.9441 12.0614 11.8084 12.1971C11.6727 12.3329 11.4886 12.4091 11.2966 12.4091C11.1046 12.4091 10.9205 12.4854 10.7848 12.6211C10.649 12.7569 10.5728 12.941 10.5728 13.133C10.5728 13.3249 10.649 13.509 10.7848 13.6448C10.9205 13.7805 11.1046 13.8568 11.2966 13.8568C11.4886 13.8568 11.6727 13.933 11.8084 14.0688C11.9441 14.2045 12.0204 14.3886 12.0204 14.5806C12.0204 14.7726 11.9441 14.9567 11.8084 15.0924C11.6727 15.2281 11.4886 15.3044 11.2966 15.3044C11.1695 15.3044 11.0447 15.271 10.9347 15.2074C10.8247 15.1439 10.7333 15.0525 10.6698 14.9425C10.6226 14.8595 10.5595 14.7867 10.484 14.7282C10.4086 14.6697 10.3223 14.6267 10.2302 14.6017C10.1381 14.5767 10.0419 14.5702 9.94726 14.5825C9.8526 14.5948 9.76131 14.6257 9.67865 14.6734C9.59598 14.7211 9.52357 14.7847 9.46559 14.8606C9.4076 14.9364 9.36519 15.023 9.34079 15.1152C9.31639 15.2075 9.31049 15.3037 9.32342 15.3983C9.33635 15.4929 9.36786 15.584 9.41614 15.6663C9.65516 16.0802 10.0241 16.4038 10.4657 16.5867C10.9073 16.7696 11.3969 16.8017 11.8586 16.6779C12.3203 16.5542 12.7283 16.2816 13.0193 15.9024C13.3103 15.5232 13.468 15.0586 13.468 14.5806C13.4654 14.3334 13.4201 14.0885 13.3341 13.8568H14.1918V16.0282C14.1918 16.2202 14.2681 16.4043 14.4038 16.54C14.5396 16.6758 14.7237 16.752 14.9156 16.752C15.1076 16.752 15.2917 16.6758 15.4275 16.54C15.5632 16.4043 15.6395 16.2202 15.6395 16.0282V10.9615C15.8314 10.9615 16.0155 10.8853 16.1513 10.7495C16.287 10.6138 16.3633 10.4297 16.3633 10.2377C16.3633 10.0457 16.287 9.86163 16.1513 9.72589C16.0155 9.59015 15.8321 9.51389 15.6402 9.51389ZM6.97618 8.96596C6.99872 9.05875 7.0394 9.14616 7.09587 9.22316C7.15234 9.30016 7.22349 9.36522 7.30522 9.4146C7.38695 9.46398 7.47764 9.49671 7.57207 9.51088C7.66649 9.52506 7.7628 9.52041 7.85542 9.49721C7.94804 9.47401 8.03516 9.4327 8.11176 9.37568C8.18835 9.31866 8.2529 9.24705 8.3017 9.16497C8.35049 9.08289 8.38256 8.99197 8.39607 8.89744C8.40957 8.80291 8.40423 8.70665 8.38037 8.61419L7.10864 3.52578C7.01967 3.16835 6.81369 2.85095 6.52349 2.62412C6.23329 2.39729 5.87554 2.27407 5.50721 2.27407C5.13887 2.27407 4.78113 2.39729 4.49092 2.62412C4.20072 2.85095 3.99474 3.16835 3.90578 3.52578L2.63332 8.61419C2.60946 8.70665 2.60412 8.80291 2.61762 8.89744C2.63113 8.99197 2.6632 9.08289 2.71199 9.16497C2.76079 9.24705 2.82534 9.31866 2.90194 9.37568C2.97853 9.4327 3.06565 9.47401 3.15827 9.49721C3.2509 9.52041 3.3472 9.52506 3.44163 9.51088C3.53605 9.49671 3.62674 9.46398 3.70847 9.4146C3.7902 9.36522 3.86135 9.30016 3.91782 9.22316C3.97429 9.14616 4.01497 9.05875 4.03751 8.96596L4.44212 7.34245H6.57012L6.97618 8.96596ZM4.80475 5.89482L5.30925 3.87755C5.32446 3.83746 5.35151 3.80295 5.3868 3.77859C5.4221 3.75424 5.46396 3.74119 5.50685 3.74119C5.54973 3.74119 5.59159 3.75424 5.62689 3.77859C5.66218 3.80295 5.68923 3.83746 5.70445 3.87755L6.20894 5.89482H4.80475ZM10.5735 5.89482H11.2973C11.4892 5.89501 11.6732 5.97133 11.8089 6.10703C11.9446 6.24273 12.0209 6.42673 12.0211 6.61864V7.34245C12.0211 7.53442 12.0974 7.71852 12.2331 7.85426C12.3689 7.99001 12.553 8.06626 12.7449 8.06626C12.9369 8.06626 13.121 7.99001 13.2568 7.85426C13.3925 7.71852 13.4688 7.53442 13.4688 7.34245V6.61864C13.4682 6.04291 13.2392 5.49093 12.8321 5.08383C12.425 4.67673 11.873 4.44777 11.2973 4.44719H10.5735C10.3815 4.44719 10.1974 4.52345 10.0617 4.65919C9.92596 4.79494 9.8497 4.97904 9.8497 5.17101C9.8497 5.36298 9.92596 5.54708 10.0617 5.68282C10.1974 5.81856 10.3815 5.89482 10.5735 5.89482ZM7.67827 12.4091H6.95446C6.76256 12.409 6.57856 12.3326 6.44287 12.1969C6.30717 12.0612 6.23085 11.8772 6.23065 11.6853V10.9615C6.23065 10.7696 6.1544 10.5854 6.01866 10.4497C5.88292 10.314 5.69881 10.2377 5.50685 10.2377C5.31488 10.2377 5.13078 10.314 4.99503 10.4497C4.85929 10.5854 4.78304 10.7696 4.78304 10.9615V11.6853C4.78361 12.2611 5.01257 12.813 5.41967 13.2201C5.82676 13.6272 6.37874 13.8562 6.95446 13.8568H7.67827C7.87024 13.8568 8.05434 13.7805 8.19008 13.6448C8.32582 13.509 8.40208 13.3249 8.40208 13.133C8.40208 12.941 8.32582 12.7569 8.19008 12.6211C8.05434 12.4854 7.87024 12.4091 7.67827 12.4091Z"/>
</mask>
<path d="M15.6402 9.51389H14.1926C14.0006 9.51389 13.8165 9.59015 13.6807 9.72589C13.545 9.86163 13.4688 10.0457 13.4688 10.2377C13.4688 10.4297 13.545 10.6138 13.6807 10.7495C13.8165 10.8853 14.0006 10.9615 14.1926 10.9615V12.4091H13.3341C13.4201 12.1774 13.4654 11.9325 13.468 11.6853C13.468 11.2073 13.3103 10.7427 13.0193 10.3635C12.7283 9.98429 12.3203 9.71169 11.8586 9.58798C11.3969 9.46426 10.9073 9.49635 10.4657 9.67926C10.0241 9.86216 9.65516 10.1857 9.41614 10.5996C9.36786 10.682 9.33635 10.773 9.32342 10.8676C9.31049 10.9622 9.31639 11.0584 9.34079 11.1507C9.36519 11.243 9.4076 11.3295 9.46559 11.4053C9.52357 11.4812 9.59598 11.5448 9.67865 11.5925C9.76131 11.6402 9.8526 11.6712 9.94726 11.6835C10.0419 11.6958 10.1381 11.6892 10.2302 11.6642C10.3223 11.6392 10.4086 11.5962 10.484 11.5377C10.5595 11.4792 10.6226 11.4064 10.6698 11.3234C10.7333 11.2134 10.8247 11.122 10.9347 11.0585C11.0447 10.995 11.1695 10.9615 11.2966 10.9615C11.4886 10.9615 11.6727 11.0378 11.8084 11.1735C11.9441 11.3093 12.0204 11.4934 12.0204 11.6853C12.0204 11.8773 11.9441 12.0614 11.8084 12.1971C11.6727 12.3329 11.4886 12.4091 11.2966 12.4091C11.1046 12.4091 10.9205 12.4854 10.7848 12.6211C10.649 12.7569 10.5728 12.941 10.5728 13.133C10.5728 13.3249 10.649 13.509 10.7848 13.6448C10.9205 13.7805 11.1046 13.8568 11.2966 13.8568C11.4886 13.8568 11.6727 13.933 11.8084 14.0688C11.9441 14.2045 12.0204 14.3886 12.0204 14.5806C12.0204 14.7726 11.9441 14.9567 11.8084 15.0924C11.6727 15.2281 11.4886 15.3044 11.2966 15.3044C11.1695 15.3044 11.0447 15.271 10.9347 15.2074C10.8247 15.1439 10.7333 15.0525 10.6698 14.9425C10.6226 14.8595 10.5595 14.7867 10.484 14.7282C10.4086 14.6697 10.3223 14.6267 10.2302 14.6017C10.1381 14.5767 10.0419 14.5702 9.94726 14.5825C9.8526 14.5948 9.76131 14.6257 9.67865 14.6734C9.59598 14.7211 9.52357 14.7847 9.46559 14.8606C9.4076 14.9364 9.36519 15.023 9.34079 15.1152C9.31639 15.2075 9.31049 15.3037 9.32342 15.3983C9.33635 15.4929 9.36786 15.584 9.41614 15.6663C9.65516 16.0802 10.0241 16.4038 10.4657 16.5867C10.9073 16.7696 11.3969 16.8017 11.8586 16.6779C12.3203 16.5542 12.7283 16.2816 13.0193 15.9024C13.3103 15.5232 13.468 15.0586 13.468 14.5806C13.4654 14.3334 13.4201 14.0885 13.3341 13.8568H14.1918V16.0282C14.1918 16.2202 14.2681 16.4043 14.4038 16.54C14.5396 16.6758 14.7237 16.752 14.9156 16.752C15.1076 16.752 15.2917 16.6758 15.4275 16.54C15.5632 16.4043 15.6395 16.2202 15.6395 16.0282V10.9615C15.8314 10.9615 16.0155 10.8853 16.1513 10.7495C16.287 10.6138 16.3633 10.4297 16.3633 10.2377C16.3633 10.0457 16.287 9.86163 16.1513 9.72589C16.0155 9.59015 15.8321 9.51389 15.6402 9.51389ZM6.97618 8.96596C6.99872 9.05875 7.0394 9.14616 7.09587 9.22316C7.15234 9.30016 7.22349 9.36522 7.30522 9.4146C7.38695 9.46398 7.47764 9.49671 7.57207 9.51088C7.66649 9.52506 7.7628 9.52041 7.85542 9.49721C7.94804 9.47401 8.03516 9.4327 8.11176 9.37568C8.18835 9.31866 8.2529 9.24705 8.3017 9.16497C8.35049 9.08289 8.38256 8.99197 8.39607 8.89744C8.40957 8.80291 8.40423 8.70665 8.38037 8.61419L7.10864 3.52578C7.01967 3.16835 6.81369 2.85095 6.52349 2.62412C6.23329 2.39729 5.87554 2.27407 5.50721 2.27407C5.13887 2.27407 4.78113 2.39729 4.49092 2.62412C4.20072 2.85095 3.99474 3.16835 3.90578 3.52578L2.63332 8.61419C2.60946 8.70665 2.60412 8.80291 2.61762 8.89744C2.63113 8.99197 2.6632 9.08289 2.71199 9.16497C2.76079 9.24705 2.82534 9.31866 2.90194 9.37568C2.97853 9.4327 3.06565 9.47401 3.15827 9.49721C3.2509 9.52041 3.3472 9.52506 3.44163 9.51088C3.53605 9.49671 3.62674 9.46398 3.70847 9.4146C3.7902 9.36522 3.86135 9.30016 3.91782 9.22316C3.97429 9.14616 4.01497 9.05875 4.03751 8.96596L4.44212 7.34245H6.57012L6.97618 8.96596ZM4.80475 5.89482L5.30925 3.87755C5.32446 3.83746 5.35151 3.80295 5.3868 3.77859C5.4221 3.75424 5.46396 3.74119 5.50685 3.74119C5.54973 3.74119 5.59159 3.75424 5.62689 3.77859C5.66218 3.80295 5.68923 3.83746 5.70445 3.87755L6.20894 5.89482H4.80475ZM10.5735 5.89482H11.2973C11.4892 5.89501 11.6732 5.97133 11.8089 6.10703C11.9446 6.24273 12.0209 6.42673 12.0211 6.61864V7.34245C12.0211 7.53442 12.0974 7.71852 12.2331 7.85426C12.3689 7.99001 12.553 8.06626 12.7449 8.06626C12.9369 8.06626 13.121 7.99001 13.2568 7.85426C13.3925 7.71852 13.4688 7.53442 13.4688 7.34245V6.61864C13.4682 6.04291 13.2392 5.49093 12.8321 5.08383C12.425 4.67673 11.873 4.44777 11.2973 4.44719H10.5735C10.3815 4.44719 10.1974 4.52345 10.0617 4.65919C9.92596 4.79494 9.8497 4.97904 9.8497 5.17101C9.8497 5.36298 9.92596 5.54708 10.0617 5.68282C10.1974 5.81856 10.3815 5.89482 10.5735 5.89482ZM7.67827 12.4091H6.95446C6.76256 12.409 6.57856 12.3326 6.44287 12.1969C6.30717 12.0612 6.23085 11.8772 6.23065 11.6853V10.9615C6.23065 10.7696 6.1544 10.5854 6.01866 10.4497C5.88292 10.314 5.69881 10.2377 5.50685 10.2377C5.31488 10.2377 5.13078 10.314 4.99503 10.4497C4.85929 10.5854 4.78304 10.7696 4.78304 10.9615V11.6853C4.78361 12.2611 5.01257 12.813 5.41967 13.2201C5.82676 13.6272 6.37874 13.8562 6.95446 13.8568H7.67827C7.87024 13.8568 8.05434 13.7805 8.19008 13.6448C8.32582 13.509 8.40208 13.3249 8.40208 13.133C8.40208 12.941 8.32582 12.7569 8.19008 12.6211C8.05434 12.4854 7.87024 12.4091 7.67827 12.4091Z" fill="#808080" stroke="white" stroke-width="0.58821" mask="url(#path-1-inside-1_101_1317)"/>
<path d="M-6974.33 1093.43V1094.9H-6972.86V1093.43H-6974.33ZM-6974.33 -1638.81V-1640.28H-6975.8V-1638.81H-6974.33ZM3642.88 -1638.81H3644.35V-1640.28H3642.88V-1638.81ZM3642.88 -361.306L3651.37 -376.011H3634.39L3642.88 -361.306ZM-8294.81 1094.9H-6974.33V1091.96H-8294.81V1094.9ZM-6972.86 1093.43V-1638.81H-6975.8V1093.43H-6972.86ZM-6974.33 -1637.34H3642.88V-1640.28H-6974.33V-1637.34ZM3641.41 -1638.81V-374.541H3644.35V-1638.81H3641.41Z" fill="#808080"/>
</g>
<defs>
<clipPath id="clip0_101_1317">
<rect width="17.3714" height="17.3715" fill="white" transform="translate(0.400391 0.828194)"/>
</clipPath>
</defs>
</svg>
