<svg width="41" height="40" viewBox="0 0 41 40" fill="none" xmlns="http://www.w3.org/2000/svg">
<g clip-path="url(#clip0_5871_10802)">
<path d="M1.11943 19.7004C1.1185 23.0509 2.0008 26.3224 3.67848 29.206L0.958984 39.0584L11.1204 36.4147C13.9309 37.9328 17.0799 38.7283 20.2799 38.7285H20.2883C30.8521 38.7285 39.4513 30.1991 39.4558 19.7154C39.4578 14.6352 37.4658 9.85822 33.8465 6.26425C30.2279 2.67059 25.4153 0.690444 20.2875 0.688126C9.7225 0.688126 1.12395 9.21708 1.11959 19.7004" fill="url(#paint0_linear_5871_10802)"/>
<path d="M0.435232 19.6942C0.434142 23.1653 1.34807 26.5538 3.08556 29.5407L0.268555 39.7462L10.7943 37.0078C13.6945 38.5768 16.9599 39.404 20.2825 39.4052H20.2911C31.2339 39.4052 40.1419 30.569 40.1466 19.71C40.1485 14.4473 38.0848 9.49855 34.3362 5.77583C30.5872 2.05356 25.6025 0.00216393 20.2911 0C9.34642 0 0.43975 8.835 0.435388 19.6942H0.435232ZM6.70356 29.0263L6.31055 28.4072C4.65841 25.8006 3.78639 22.7885 3.78764 19.6954C3.79122 10.6695 11.1942 3.32626 20.2973 3.32626C24.7057 3.32812 28.8487 5.03329 31.9647 8.12708C35.0807 11.2212 36.7953 15.3342 36.7942 19.7087C36.7901 28.7346 29.387 36.0788 20.2911 36.0788H20.2845C17.3228 36.0773 14.4181 35.2881 11.8849 33.7966L11.2821 33.4419L5.03585 35.0669L6.70356 29.0261V29.0263Z" fill="url(#paint1_linear_5871_10802)"/>
<path d="M15.3282 11.4608C14.9565 10.6411 14.5653 10.6246 14.2119 10.6102C13.9225 10.5978 13.5916 10.5988 13.2611 10.5988C12.9302 10.5988 12.3926 10.7223 11.9382 11.2146C11.4834 11.7073 10.2017 12.8981 10.2017 15.32C10.2017 17.742 11.9795 20.0826 12.2273 20.4114C12.4755 20.7395 15.6595 25.8687 20.7022 27.8419C24.8931 29.4816 25.746 29.1555 26.6556 29.0733C27.5653 28.9914 29.591 27.8828 30.0042 26.7333C30.4178 25.584 30.4178 24.5987 30.2938 24.3929C30.1698 24.1878 29.8389 24.0646 29.3428 23.8185C28.8465 23.5723 26.4074 22.3813 25.9527 22.217C25.4978 22.0529 25.1671 21.971 24.8363 22.4639C24.5054 22.956 23.5554 24.0646 23.2658 24.3929C22.9765 24.7219 22.6869 24.7629 22.1909 24.5167C21.6945 24.2697 20.0967 23.7505 18.2011 22.0736C16.7262 20.7688 15.7305 19.1574 15.4411 18.6645C15.1517 18.1724 15.4101 17.9056 15.6589 17.6603C15.8818 17.4397 16.1552 17.0854 16.4035 16.7981C16.6508 16.5106 16.7334 16.3055 16.8988 15.9772C17.0644 15.6486 16.9816 15.3611 16.8577 15.1149C16.7334 14.8687 15.7693 12.4342 15.3282 11.4609" fill="white"/>
</g>
<defs>
<linearGradient id="paint0_linear_5871_10802" x1="20.2074" y1="39.0584" x2="20.2074" y2="0.688126" gradientUnits="userSpaceOnUse">
<stop stop-color="#1FAF38"/>
<stop offset="1" stop-color="#60D669"/>
</linearGradient>
<linearGradient id="paint1_linear_5871_10802" x1="20.2076" y1="39.7462" x2="20.2076" y2="0" gradientUnits="userSpaceOnUse">
<stop stop-color="#F9F9F9"/>
<stop offset="1" stop-color="white"/>
</linearGradient>
<clipPath id="clip0_5871_10802">
<rect width="39.878" height="39.878" fill="white" transform="translate(0.268555)"/>
</clipPath>
</defs>
</svg>
