<svg width="27" height="83" viewBox="0 0 27 83" fill="none" xmlns="http://www.w3.org/2000/svg">
<path d="M9.50704 0.563983C5.98608 1.37981 6.68026 6.02074 7.46746 8.23923C8.34412 9.08011 10.9884 10.3647 14.5523 8.77597C18.1162 7.18725 16.896 3.85593 15.8404 2.38887C15.1964 1.44064 13.028 -0.251847 9.50704 0.563983Z" fill="#263238"/>
<path d="M2.14153 13.6243C2.43104 18.5036 0.274384 25.0581 0.0206609 26.6878C-0.233062 28.3175 1.92359 27.5953 1.92359 27.5953C1.92359 27.5953 3.22473 29.1437 5.28379 27.3189C5.99292 19.0176 6.51012 16.36 6.92648 14.7205C7.34285 13.0811 2.60994 11.5718 2.14153 13.6243Z" fill="#F781CC"/>
<path opacity="0.4" d="M2.14153 13.6243C2.43104 18.5036 0.274384 25.0581 0.0206609 26.6878C-0.233062 28.3175 1.92359 27.5953 1.92359 27.5953C1.92359 27.5953 3.22473 29.1437 5.28379 27.3189C5.99292 19.0176 6.51012 16.36 6.92648 14.7205C7.34285 13.0811 2.60994 11.5718 2.14153 13.6243Z" fill="black" fill-opacity="0.44"/>
<path d="M5.87417 30.2768L6.0777 29.6322C6.11422 29.5126 6.11684 29.384 6.08535 29.2568C6.05385 29.1295 5.98913 29.0073 5.89646 28.9001L5.01343 27.8831C4.84067 27.6823 4.61941 27.5159 4.36851 27.398C4.11761 27.2802 3.8445 27.2144 3.57245 27.2063L3.2302 27.1926C2.80608 28.2331 3.26215 29.7168 3.26215 29.7168L3.33788 30.1476C3.35085 30.2361 3.38362 30.3235 3.43426 30.4047C3.4849 30.4858 3.55241 30.5591 3.63287 30.6202C3.71334 30.6813 3.80516 30.729 3.903 30.7607C4.00083 30.7923 4.10273 30.8072 4.20278 30.8044L5.16793 30.7762C5.33628 30.7679 5.49273 30.7162 5.61815 30.6275C5.74357 30.5388 5.83254 30.4169 5.87417 30.2768Z" fill="#FF8B7B"/>
<path d="M9.57048 20.0897L9.21523 20.2281L8.81829 20.3782C8.55211 20.4807 8.28762 20.5919 8.02633 20.7036C7.50007 20.9291 6.98677 21.1735 6.48524 21.4257C5.98371 21.6778 5.49833 21.9495 5.01735 22.2331C4.55676 22.5174 4.11523 22.8226 3.6945 23.1474L3.87302 22.9486C3.80582 23.0215 3.75957 23.1072 3.73759 23.1995C3.68757 23.3656 3.656 23.5362 3.64328 23.7091C3.62551 24.1337 3.65007 24.561 3.7167 24.9867C3.77522 25.4363 3.87688 25.9022 3.97217 26.3669C4.06746 26.8316 4.19952 27.3114 4.31321 27.7657L4.30827 27.7924C4.34764 27.9499 4.32051 28.1106 4.23171 28.2459C4.14292 28.3811 3.99821 28.4821 3.82339 28.5309C3.64856 28.5798 3.45495 28.5732 3.27705 28.5124C3.09914 28.4516 2.9485 28.3406 2.85193 28.199C2.54497 27.7375 2.2662 27.264 2.01681 26.7805C1.76872 26.2898 1.55322 25.7892 1.37135 25.2812C1.1741 24.7417 1.04096 24.19 0.973981 23.6346C0.940046 23.3198 0.939871 23.0047 0.973456 22.6935C1.01747 22.3033 1.15058 21.9287 1.36548 21.5904C1.39967 21.5379 1.44076 21.489 1.48803 21.4447L1.54719 21.3922C2.0029 20.9561 2.49462 20.5483 3.01903 20.1716C3.53469 19.7979 4.07756 19.4515 4.64488 19.134C5.20715 18.8149 5.78727 18.5239 6.38527 18.2611C6.68925 18.1324 6.98955 18.0059 7.3031 17.879C7.61664 17.7521 7.90882 17.6516 8.2861 17.5365C8.66512 17.4206 9.09202 17.4372 9.47655 17.5829C9.86108 17.7286 10.1731 17.9919 10.3466 18.3172C10.5202 18.6425 10.5416 19.0043 10.4064 19.326C10.2713 19.6478 9.99005 19.9043 9.62228 20.0413L9.57048 20.0897Z" fill="#FF8B7B"/>
<path d="M6.9527 21.0521C6.9527 21.0521 10.7898 18.104 10.5716 14.8815C8.96088 13.9582 7.41291 14.5856 5.61989 16.6068C3.16346 18.6566 3.71332 18.7457 1.47504 21.3123C0.907254 21.9646 -0.276132 24.0714 1.67527 27.0158C1.7159 27.0762 1.774 27.1163 1.83815 27.1282C1.90229 27.14 1.96784 27.1229 2.02191 27.08C2.67636 26.5417 4.27812 26.1104 3.89262 25.6541C4.06296 25.0659 3.64758 24.6132 3.92251 24.0357C4.80466 22.8696 5.82562 21.8643 6.9527 21.0521Z" fill="#263238"/>
<path d="M4.02182 17.4394C4.2918 15.6829 5.57343 14.1118 7.46659 13.8613C7.9903 13.793 8.53678 13.7312 9.06699 13.6857C10.6916 13.5761 12.3217 13.5761 13.9463 13.6857C14.4082 13.7052 14.8603 13.7409 15.2832 13.78C15.6427 13.7982 15.9934 13.8983 16.3083 14.0726C16.6233 14.2468 16.8944 14.4907 17.1008 14.7856C17.3073 15.0806 17.4436 15.4187 17.4996 15.7743C17.5555 16.1299 17.5295 16.4936 17.4236 16.8377C15.4979 23.2328 15.3353 27.6664 15.5532 30.4997C19.0175 36.01 19.4566 41.3512 17.1796 47.0047C14.9026 52.6581 14.7205 56.1452 14.3854 57.4984C16.8251 64.8271 27 75.8283 27 81.9241C16.2656 81.9241 14.9026 83.5831 5.65475 81.9241C3.947 77.9166 4.87081 60.6992 5.65475 56.1452C6.43869 51.5912 5.00418 43.6933 4.67889 40.8568C4.24826 37.361 4.41103 33.8176 5.16032 30.3761C5.17983 27.0744 4.30156 24.0428 4.10314 22.0487C3.80713 19.7002 3.86893 18.4218 4.02182 17.4394Z" fill="#F781CC"/>
<path d="M27 81.5398L17.82 44.8198H12.96L9.71997 70.7398L27 81.5398Z" fill="#F781CC"/>
<path d="M7.57737 54.5166C6.72837 62.2617 9.07694 76.636 10.9246 82.6148C8.32227 82.8067 6.44212 83.1971 6.72837 79.7458C7.01463 76.2945 5.37518 74.2159 5.83709 70.9631C6.29899 67.7102 5.46301 64.5191 5.58987 61.6794C5.71674 58.8397 6.48115 56.1138 7.57737 54.5166Z" fill="#F781CC"/>
<path opacity="0.2" d="M7.57737 54.5166C6.72837 62.2617 9.07694 76.636 10.9246 82.6148C8.32227 82.8067 6.44212 83.1971 6.72837 79.7458C7.01463 76.2945 5.37518 74.2159 5.83709 70.9631C6.29899 67.7102 5.46301 64.5191 5.58987 61.6794C5.71674 58.8397 6.48115 56.1138 7.57737 54.5166Z" fill="white"/>
<g opacity="0.4">
<path d="M12.5241 71.2898C12.5064 71.3436 12.4955 71.3993 12.4916 71.4557C12.4869 71.5742 12.4448 71.6881 12.3712 71.781C12.2776 71.8516 12.1632 71.8893 12.0459 71.8884C11.9897 71.8916 11.934 71.9015 11.8801 71.9176C11.835 71.9398 11.7934 71.9682 11.7564 72.0022C11.6711 72.0918 11.5547 72.1453 11.4312 72.1518C11.3029 72.1412 11.1797 72.0975 11.0733 72.025C11.0164 71.9914 10.9565 71.9631 10.8944 71.9404C10.8326 71.9256 10.7693 71.918 10.7058 71.9176C10.5823 71.9204 10.4602 71.8913 10.3512 71.8331C10.2449 71.7545 10.1571 71.6534 10.0942 71.5371C10.0569 71.4751 10.0145 71.4163 9.96738 71.3614C9.91557 71.3124 9.85889 71.2688 9.79822 71.2313C9.68573 71.1611 9.58931 71.068 9.51522 70.9581C9.4626 70.8475 9.43802 70.7258 9.44366 70.6035C9.44689 70.538 9.44143 70.4724 9.4274 70.4083C9.4056 70.3401 9.3784 70.2738 9.34608 70.2099C9.27921 70.102 9.24113 69.9789 9.23548 69.8521C9.24708 69.7285 9.30244 69.6131 9.39161 69.5268C9.42843 69.4908 9.45919 69.449 9.48269 69.4032C9.50164 69.3496 9.51367 69.2939 9.51848 69.2373C9.5122 69.1771 9.51955 69.1162 9.53998 69.0592C9.56042 69.0023 9.59342 68.9506 9.63653 68.9081C9.67965 68.8656 9.73177 68.8334 9.78904 68.8138C9.84631 68.7942 9.90727 68.7877 9.96738 68.7949C10.0249 68.7935 10.0819 68.7836 10.1365 68.7656C10.1818 68.7439 10.2235 68.7154 10.2601 68.6811C10.3462 68.593 10.4624 68.5407 10.5854 68.5347C10.7166 68.5407 10.8432 68.5848 10.9497 68.6615C11.0074 68.6959 11.0684 68.7243 11.1319 68.7461C11.1926 68.7607 11.2548 68.7683 11.3173 68.7689C11.4418 68.7662 11.565 68.7953 11.6751 68.8535C11.7805 68.9322 11.8672 69.0333 11.9288 69.1495C11.9672 69.2116 12.0107 69.2703 12.059 69.3251C12.1096 69.3741 12.1652 69.4177 12.2249 69.4552C12.3398 69.5234 12.4376 69.6169 12.5111 69.7285C12.5642 69.8387 12.5878 69.9609 12.5794 70.083C12.5778 70.1485 12.5833 70.2139 12.5957 70.2782C12.6173 70.347 12.6456 70.4134 12.6803 70.4766C12.7467 70.5845 12.7837 70.7078 12.7876 70.8344C12.7729 70.9524 12.7177 71.0616 12.6315 71.1435C12.5885 71.1865 12.5523 71.2359 12.5241 71.2898ZM12.4688 70.5937C12.4296 70.5175 12.397 70.438 12.3712 70.3563C12.3541 70.275 12.3465 70.1921 12.3485 70.1091C12.3542 70.0223 12.3397 69.9355 12.3062 69.8553C12.2475 69.7741 12.1721 69.7064 12.085 69.6569C12.0147 69.6092 11.9483 69.5559 11.8866 69.4975C11.8281 69.432 11.7758 69.3612 11.7304 69.2861C11.6843 69.1977 11.62 69.1201 11.5418 69.0584C11.4637 69.0211 11.3778 69.0032 11.2913 69.0063C11.211 69.0065 11.1311 68.9956 11.0538 68.9738C10.9751 68.9498 10.8996 68.9159 10.8294 68.873C10.7539 68.8222 10.6685 68.7879 10.5789 68.7721C10.5088 68.7849 10.4448 68.8203 10.3968 68.873C10.3425 68.9212 10.281 68.9607 10.2146 68.9901C10.1423 69.0154 10.0667 69.0296 9.99015 69.0324C9.91943 69.031 9.84967 69.049 9.78846 69.0844C9.7519 69.1455 9.73173 69.2149 9.72991 69.2861C9.72405 69.3628 9.70764 69.4383 9.68112 69.5105C9.64958 69.5781 9.60667 69.6397 9.55426 69.6927C9.50206 69.7403 9.46573 69.8027 9.45017 69.8716C9.4608 69.9595 9.4908 70.0439 9.538 70.1188C9.57937 70.1952 9.6121 70.2759 9.63558 70.3595C9.65371 70.4407 9.66245 70.5236 9.66161 70.6067C9.65395 70.6925 9.66851 70.7787 9.70389 70.8572C9.76156 70.9402 9.83716 71.0091 9.92509 71.0589C9.99617 71.1056 10.0626 71.1589 10.1235 71.2183C10.1802 71.2833 10.2313 71.3529 10.2764 71.4265C10.3217 71.5153 10.3862 71.5931 10.4651 71.6542C10.5421 71.6944 10.6288 71.7124 10.7155 71.7062C10.7966 71.7092 10.8772 71.7201 10.9562 71.7387C11.0332 71.7661 11.1073 71.8009 11.1774 71.8428C11.2543 71.8955 11.3422 71.93 11.4344 71.9437C11.5045 71.9309 11.5685 71.8955 11.6166 71.8428C11.6697 71.7946 11.73 71.7551 11.7955 71.7257C11.869 71.7006 11.9456 71.6853 12.0232 71.6802C12.0937 71.6836 12.1637 71.6667 12.2249 71.6314C12.2611 71.5704 12.2802 71.5007 12.2802 71.4297C12.2808 71.3541 12.2967 71.2795 12.3269 71.2102C12.3571 71.1409 12.4009 71.0783 12.4558 71.0264C12.5091 70.9796 12.5456 70.9168 12.5599 70.8475C12.5443 70.7562 12.5088 70.6696 12.4558 70.5937H12.4688Z" fill="white"/>
<path d="M12.9964 65.4974C12.9699 65.5828 12.9133 65.6557 12.837 65.7023C12.8094 65.7208 12.7852 65.7439 12.7654 65.7706C12.7471 65.8023 12.7328 65.8362 12.7231 65.8715C12.7066 65.9588 12.6593 66.0373 12.5898 66.0927C12.5062 66.134 12.4116 66.1477 12.3198 66.1317C12.282 66.1268 12.2437 66.1268 12.2059 66.1317C12.1731 66.1411 12.1414 66.1542 12.1116 66.1707C12.0471 66.2117 11.9732 66.2352 11.8969 66.239H11.8579C11.7642 66.2182 11.677 66.1746 11.6041 66.1122C11.5669 66.082 11.5266 66.0558 11.4838 66.0341C11.4438 66.0191 11.4024 66.0082 11.3602 66.0016C11.2659 65.99 11.1762 65.9541 11.0999 65.8975C11.0279 65.8302 10.9713 65.7481 10.9341 65.6568C10.917 65.6143 10.8952 65.574 10.869 65.5364C10.8394 65.496 10.8044 65.4599 10.7649 65.4291C10.6897 65.3695 10.6286 65.2939 10.586 65.2079C10.5604 65.1197 10.5604 65.0261 10.586 64.9379C10.5904 64.899 10.5904 64.8597 10.586 64.8208C10.5769 64.7778 10.565 64.7354 10.5502 64.6939C10.5118 64.6072 10.4972 64.5117 10.5079 64.4174C10.5335 64.3316 10.5904 64.2585 10.6673 64.2125C10.6949 64.194 10.7191 64.1709 10.7389 64.1442C10.7573 64.1125 10.7715 64.0787 10.7812 64.0434C10.7977 63.956 10.845 63.8775 10.9145 63.8222C10.9975 63.779 11.0927 63.7652 11.1845 63.7831C11.2223 63.7881 11.2606 63.7881 11.2984 63.7831C11.3319 63.7742 11.3637 63.7599 11.3927 63.7409C11.4681 63.6924 11.5571 63.6696 11.6464 63.6758C11.7409 63.6964 11.8283 63.7412 11.9002 63.8059C11.9424 63.8352 11.9847 63.8645 12.0205 63.884C12.0608 63.898 12.1022 63.9088 12.1441 63.9165C12.2384 63.9281 12.3281 63.964 12.4043 64.0206C12.4772 64.0872 12.5339 64.1695 12.5702 64.2613C12.588 64.3034 12.6098 64.3437 12.6353 64.3817C12.6658 64.4213 12.7007 64.4573 12.7394 64.489C12.8152 64.548 12.8765 64.6237 12.9183 64.7102C12.9439 64.7984 12.9439 64.892 12.9183 64.9802C12.9137 65.0191 12.9137 65.0584 12.9183 65.0973C12.9274 65.1403 12.9393 65.1827 12.9541 65.2242C12.9919 65.3099 13.0065 65.4042 12.9964 65.4974ZM12.7491 65.2892C12.7275 65.2336 12.7123 65.1758 12.7036 65.1168C12.6968 65.0595 12.6968 65.0017 12.7036 64.9444C12.7151 64.893 12.7151 64.8397 12.7036 64.7883C12.671 64.7328 12.6279 64.6841 12.5767 64.6452C12.5285 64.6045 12.4849 64.5587 12.4466 64.5085C12.41 64.4598 12.3805 64.4061 12.3588 64.3491C12.3347 64.2871 12.2982 64.2306 12.2515 64.1832C12.2002 64.1512 12.1424 64.1312 12.0823 64.1247C12.0254 64.1145 11.9698 64.0981 11.9164 64.0759C11.8592 64.0493 11.8056 64.0154 11.757 63.9751C11.7109 63.9363 11.6579 63.9065 11.6009 63.8872C11.5564 63.8888 11.5134 63.9035 11.4773 63.9295C11.4294 63.9571 11.378 63.9779 11.3244 63.9913C11.2671 63.9979 11.2093 63.9979 11.152 63.9913C11.1069 63.9827 11.0605 63.9827 11.0154 63.9913C10.9939 64.0241 10.9784 64.0604 10.9698 64.0987C10.956 64.1542 10.9329 64.207 10.9015 64.2548C10.8699 64.3017 10.8289 64.3416 10.7812 64.3719C10.7454 64.4012 10.7096 64.4305 10.7031 64.4532C10.7016 64.5096 10.7138 64.5654 10.7389 64.6159C10.7605 64.6714 10.7758 64.7293 10.7844 64.7883C10.7912 64.8455 10.7912 64.9034 10.7844 64.9607C10.7729 65.0121 10.7729 65.0654 10.7844 65.1168C10.817 65.1723 10.8601 65.2209 10.9113 65.2599C10.9595 65.3006 11.0032 65.3464 11.0414 65.3966C11.0779 65.4459 11.1085 65.4994 11.1325 65.5559C11.1543 65.6174 11.1899 65.6731 11.2366 65.7186C11.2868 65.7531 11.345 65.7744 11.4057 65.7804C11.4629 65.7892 11.5187 65.8056 11.5716 65.8292C11.6281 65.8559 11.6815 65.8886 11.731 65.9268C11.7763 65.9675 11.8294 65.9985 11.8871 66.0179C11.9316 66.0163 11.9747 66.0016 12.0108 65.9756C12.058 65.9467 12.1096 65.9258 12.1636 65.9138C12.1906 65.9104 12.218 65.9104 12.245 65.9138H12.336C12.381 65.9243 12.4277 65.9243 12.4727 65.9138C12.4889 65.9138 12.5052 65.8487 12.5182 65.8097C12.5326 65.7533 12.5556 65.6996 12.5865 65.6503C12.6199 65.6049 12.6606 65.5653 12.7069 65.5332C12.7426 65.5039 12.7784 65.4779 12.7849 65.4519C12.7862 65.3976 12.7739 65.344 12.7491 65.2957V65.2892Z" fill="white"/>
<path d="M9.1037 46.2231C9.12548 46.1778 9.14395 46.1311 9.15899 46.0832C9.1678 46.0349 9.17324 45.9859 9.17526 45.9368C9.17155 45.8426 9.19051 45.7489 9.23055 45.6636C9.27942 45.5822 9.34757 45.514 9.42898 45.4652C9.46682 45.4423 9.50177 45.415 9.53308 45.3838C9.56288 45.3468 9.59005 45.3076 9.6144 45.2667C9.65757 45.1811 9.7199 45.1065 9.79656 45.0488C9.87711 45.009 9.96776 44.9942 10.0568 45.0065C10.0913 45.0114 10.1264 45.0114 10.1609 45.0065C10.1968 44.9944 10.2317 44.9792 10.265 44.961C10.3439 44.909 10.4374 44.884 10.5317 44.8894C10.6201 44.913 10.6974 44.9672 10.7496 45.0423C10.7701 45.0693 10.7942 45.0934 10.8212 45.1139C10.85 45.1287 10.8806 45.1397 10.9123 45.1464C11.0015 45.1561 11.0833 45.2005 11.14 45.27C11.1893 45.3512 11.2141 45.445 11.2116 45.54C11.2128 45.5827 11.2182 45.6252 11.2278 45.6668C11.2418 45.7027 11.2604 45.7366 11.2831 45.7677C11.3362 45.8437 11.3687 45.9323 11.3774 46.0247C11.3699 46.1194 11.3422 46.2115 11.2961 46.2946C11.2721 46.3389 11.2536 46.3858 11.2408 46.4345C11.2306 46.4827 11.2252 46.5317 11.2246 46.5809C11.2342 46.6759 11.2151 46.7715 11.1699 46.8556C11.1247 46.9396 11.0554 47.0082 10.9708 47.0526C10.9337 47.0764 10.8989 47.1037 10.8667 47.1339C10.8369 47.171 10.8098 47.2101 10.7854 47.251C10.7441 47.3379 10.6814 47.4128 10.6033 47.4689C10.5236 47.5115 10.4321 47.5264 10.343 47.5112C10.3085 47.5063 10.2735 47.5063 10.2389 47.5112C10.2025 47.522 10.1675 47.5373 10.1348 47.5568C10.0662 47.5999 9.98801 47.6255 9.90715 47.6316H9.85511C9.7656 47.6084 9.68721 47.5542 9.63391 47.4787C9.61544 47.452 9.59229 47.4288 9.5656 47.4104C9.53651 47.3936 9.5045 47.3826 9.47127 47.3778C9.38271 47.3639 9.30199 47.319 9.24357 47.251C9.19681 47.17 9.17318 47.0777 9.17526 46.9842C9.17478 46.9402 9.16821 46.8964 9.15574 46.8541C9.14297 46.8184 9.12546 46.7844 9.1037 46.7533C9.04879 46.6794 9.01607 46.5914 9.00936 46.4996C9.01944 46.4014 9.0517 46.3069 9.1037 46.2231ZM9.29887 46.6362C9.33194 46.6821 9.35823 46.7325 9.37694 46.7858C9.39195 46.8444 9.40067 46.9043 9.40295 46.9647C9.40121 47.0183 9.41122 47.0716 9.43224 47.1209C9.46295 47.146 9.50019 47.1618 9.53958 47.1664C9.59331 47.176 9.64501 47.1947 9.69246 47.2217C9.73783 47.2537 9.77836 47.292 9.81282 47.3356C9.84209 47.3713 9.87787 47.4136 9.9039 47.4169C9.95053 47.4092 9.99493 47.3914 10.034 47.3648C10.0848 47.3379 10.1382 47.3161 10.1934 47.2998C10.2226 47.2966 10.252 47.2966 10.2812 47.2998H10.3593C10.4019 47.3111 10.4468 47.3111 10.4894 47.2998C10.5349 47.2582 10.5724 47.2085 10.6 47.1534C10.6309 47.0992 10.6669 47.048 10.7074 47.0005C10.7494 46.9582 10.7964 46.9211 10.8472 46.8899C10.9003 46.8591 10.9459 46.8169 10.9806 46.7663C11.0022 46.7081 11.0121 46.6462 11.0099 46.5841C11.0117 46.5209 11.0182 46.4578 11.0294 46.3955C11.0479 46.3338 11.0718 46.274 11.1009 46.2166C11.1322 46.1614 11.1521 46.1006 11.1595 46.0377C11.1513 45.9871 11.1312 45.9392 11.1009 45.8978C11.0685 45.8504 11.0423 45.799 11.0229 45.7449C11.0074 45.6865 10.9987 45.6264 10.9969 45.566C10.9963 45.5127 10.9864 45.4598 10.9676 45.4099C10.9365 45.3859 10.8993 45.3713 10.8602 45.3676C10.8055 45.3562 10.7528 45.3365 10.7041 45.309C10.6597 45.277 10.6202 45.2387 10.587 45.1952C10.5545 45.1594 10.5219 45.1204 10.4959 45.1171C10.4699 45.1139 10.4113 45.1431 10.3626 45.1659C10.3136 45.1943 10.2611 45.2162 10.2064 45.231C10.1515 45.2406 10.0954 45.2406 10.0405 45.231C9.99682 45.2194 9.95085 45.2194 9.90715 45.231C9.8618 45.2715 9.82431 45.32 9.79656 45.3741C9.76644 45.4288 9.73044 45.4801 9.68921 45.527C9.64765 45.5695 9.60188 45.6076 9.55259 45.6408C9.49972 45.6705 9.45415 45.7116 9.41922 45.7612C9.3982 45.8195 9.38827 45.8813 9.38995 45.9433C9.3888 46.0068 9.38117 46.07 9.36718 46.132C9.35033 46.1937 9.32745 46.2536 9.29887 46.3109C9.26679 46.3659 9.24579 46.4267 9.23707 46.4898C9.24626 46.5407 9.26745 46.5886 9.29887 46.6297V46.6362Z" fill="white"/>
<path d="M18.312 38.3681C18.2602 38.378 18.2119 38.4016 18.1722 38.4364C18.1342 38.4889 18.1076 38.5487 18.0941 38.6121C18.0787 38.6728 18.0569 38.7317 18.0291 38.7877C17.9989 38.8404 17.9629 38.8895 17.9217 38.9341C17.8764 38.982 17.841 39.0384 17.8176 39.1C17.8091 39.1601 17.8146 39.2214 17.8339 39.2789C17.8505 39.335 17.8603 39.3929 17.8632 39.4513C17.8604 39.5136 17.8528 39.5756 17.8404 39.6367C17.8283 39.6958 17.8283 39.7566 17.8404 39.8156C17.8603 39.8547 17.8907 39.8874 17.9282 39.91C17.9754 39.9395 18.0172 39.9769 18.0518 40.0206C18.0832 40.0693 18.1084 40.1217 18.1266 40.1767C18.1429 40.2222 18.1657 40.284 18.1884 40.2971C18.2271 40.305 18.2669 40.305 18.3055 40.2971C18.3616 40.2888 18.4186 40.2888 18.4747 40.2971C18.5121 40.3036 18.5482 40.3156 18.582 40.3328V40.5703C18.5659 40.5647 18.5506 40.557 18.5365 40.5475C18.5067 40.5315 18.475 40.5195 18.4422 40.5117C18.4066 40.5058 18.3704 40.5058 18.3348 40.5117C18.2473 40.5325 18.1553 40.5222 18.0746 40.4825C18.0006 40.4255 17.9479 40.3453 17.925 40.2548C17.912 40.2197 17.8956 40.1859 17.8762 40.1539C17.8543 40.128 17.8291 40.105 17.8013 40.0856C17.7249 40.0381 17.6657 39.9675 17.6322 39.8839C17.6078 39.7912 17.6078 39.6937 17.6322 39.601C17.6423 39.5539 17.6477 39.5059 17.6485 39.4578C17.6462 39.4161 17.6397 39.3746 17.6289 39.3342C17.5937 39.2426 17.5872 39.1425 17.6105 39.0471C17.6337 38.9518 17.6856 38.8658 17.7591 38.8007C17.79 38.7668 17.8172 38.7298 17.8404 38.6901C17.8616 38.6451 17.879 38.5983 17.8924 38.5503C17.9121 38.4558 17.9545 38.3676 18.016 38.2933C18.0813 38.229 18.1638 38.1849 18.2535 38.1664C18.2917 38.156 18.3287 38.1418 18.3641 38.1242L18.4324 38.0688L18.4617 38.3161C18.4138 38.3387 18.3636 38.3562 18.312 38.3681Z" fill="white"/>
<path d="M5.11859 25.5213C5.32077 25.4708 5.53146 25.4643 5.73634 25.5025C5.94122 25.5407 6.13548 25.6225 6.30588 25.7425C6.51795 25.8963 6.77612 25.9732 7.03777 25.9605C7.31347 25.8498 7.55562 25.6694 7.74039 25.4368C7.89742 25.2608 8.07424 25.1037 8.26735 24.9683C8.45184 24.8634 8.64998 24.7846 8.85612 24.7341C9.14799 24.6828 9.41708 24.5432 9.62705 24.334C9.82421 24.0476 9.95532 23.721 10.0109 23.3777C10.0636 23.1349 10.1387 22.8975 10.2353 22.6686C10.3498 22.4484 10.486 22.2403 10.6419 22.0473C10.8881 21.8166 11.0554 21.5144 11.1202 21.1834C11.185 20.8524 11.144 20.5093 11.003 20.2029C10.9298 19.9691 10.8818 19.7281 10.8599 19.484C10.8555 19.2323 10.8751 18.9807 10.9184 18.7326C10.9915 18.3983 10.9915 18.0521 10.9184 17.7177C10.8018 17.4621 10.613 17.2461 10.3752 17.0964C10.1922 16.9692 10.0289 16.8157 9.89053 16.641C9.75769 16.443 9.64851 16.2301 9.56524 16.0067C9.48829 15.7265 9.33516 15.4732 9.12286 15.2748C9.00686 15.2066 8.87343 15.1738 8.73902 15.1805C8.6093 15.1832 8.47994 15.1951 8.35193 15.2163C8.14904 15.2646 7.93828 15.2699 7.73322 15.2318C7.52817 15.1937 7.33337 15.1131 7.16138 14.9951C6.9509 14.8381 6.69156 14.7609 6.42949 14.7771C6.15296 14.8846 5.91112 15.0658 5.73013 15.3008C5.57113 15.476 5.39332 15.6331 5.19991 15.7693C5.01491 15.8723 4.81688 15.95 4.61114 16.0002L4.45826 16.0457C4.50705 15.9547 4.55584 15.8636 4.61114 15.7758C4.77719 15.7329 4.93687 15.6684 5.08606 15.5838C5.26496 15.4591 5.4287 15.3139 5.57399 15.1512C5.78362 14.8824 6.0658 14.6793 6.3872 14.5657C6.69899 14.5366 7.01083 14.6209 7.26548 14.8032C7.42303 14.9025 7.59542 14.9761 7.77617 15.0211C7.95829 15.0417 8.14247 15.0351 8.32266 15.0016C8.62969 14.92 8.95596 14.9535 9.23995 15.0959C9.49123 15.3164 9.6741 15.6042 9.76693 15.9254C9.84209 16.132 9.9403 16.3295 10.0597 16.5142C10.1878 16.6712 10.3366 16.8102 10.5021 16.9273C10.7764 17.0976 10.9912 17.3487 11.1169 17.6462C11.2015 18.0132 11.2015 18.3948 11.1169 18.7619C11.0746 18.9958 11.055 19.2333 11.0583 19.471C11.08 19.7007 11.1258 19.9275 11.1949 20.1476C11.3442 20.4859 11.3862 20.8619 11.3153 21.2248C11.2443 21.5877 11.0638 21.9202 10.7981 22.1774C10.6508 22.3592 10.5222 22.5553 10.4142 22.7629C10.3231 22.9781 10.2523 23.2013 10.2028 23.4297C10.1417 23.8066 9.99601 24.1647 9.77668 24.4772C9.53823 24.7164 9.23337 24.8785 8.90166 24.9423C8.71525 24.9873 8.53578 25.0573 8.36819 25.1505C8.18897 25.2773 8.02426 25.4235 7.87702 25.5864C7.66763 25.854 7.38684 26.057 7.06705 26.1719C7.0162 26.1767 6.96501 26.1767 6.91416 26.1719C6.65382 26.1476 6.40353 26.0593 6.18553 25.9149C6.02773 25.8183 5.85682 25.7449 5.67808 25.697C5.49482 25.678 5.3098 25.6846 5.12835 25.7165C4.98418 25.7396 4.83846 25.7515 4.69246 25.7523L4.65343 25.5343C4.80857 25.5432 4.96419 25.5389 5.11859 25.5213Z" fill="white"/>
<path d="M4.97514 20.0382C5.01294 19.8961 5.08308 19.7648 5.18007 19.6543C5.23227 19.5907 5.27803 19.5221 5.31669 19.4494C5.34929 19.3729 5.37435 19.2934 5.39151 19.212C5.41672 19.0619 5.47567 18.9195 5.56391 18.7956C5.66079 18.696 5.78551 18.6279 5.92172 18.6004C5.98553 18.5869 6.04693 18.5639 6.10388 18.5321C6.16585 18.4877 6.22259 18.4364 6.27303 18.3792C6.35748 18.2716 6.47006 18.1894 6.59831 18.1418C6.73073 18.1276 6.86376 18.1623 6.9724 18.2393C7.02539 18.2713 7.08223 18.2965 7.14155 18.3142C7.203 18.3235 7.26551 18.3235 7.32696 18.3142C7.45618 18.2821 7.59267 18.2983 7.7108 18.3597C7.81506 18.4445 7.89293 18.5574 7.93524 18.685C7.96028 18.7582 7.99414 18.8281 8.03608 18.8932C8.07875 18.947 8.12918 18.9941 8.18571 19.033C8.29907 19.1043 8.38767 19.2088 8.43943 19.3323C8.47202 19.4791 8.47202 19.6312 8.43943 19.7779C8.42451 19.8606 8.41689 19.9444 8.41666 20.0284C8.42604 20.1088 8.44237 20.1883 8.46546 20.2659C8.51668 20.404 8.53234 20.5528 8.511 20.6985C8.47386 20.8398 8.40361 20.9703 8.30607 21.0791C8.19926 21.2059 8.12749 21.3584 8.09789 21.5215C8.07369 21.6718 8.01465 21.8144 7.92549 21.9378C7.82812 22.0368 7.70361 22.1047 7.56767 22.133C7.50437 22.1482 7.44319 22.1711 7.38551 22.2013C7.32432 22.2467 7.26767 22.2979 7.21637 22.3542C7.13252 22.4625 7.01975 22.5448 6.89108 22.5917C6.86842 22.5949 6.84542 22.5949 6.82276 22.5917C6.71371 22.5832 6.60855 22.5474 6.51699 22.4876C6.46453 22.4553 6.40751 22.4312 6.34785 22.416C6.2875 22.4066 6.22604 22.4066 6.16569 22.416C6.03549 22.4496 5.89746 22.4333 5.7786 22.3705C5.67307 22.2875 5.5958 22.1738 5.55741 22.0452C5.53104 21.9735 5.49725 21.9049 5.45657 21.8403C5.41188 21.7872 5.36049 21.7402 5.30368 21.7004C5.19261 21.6274 5.10549 21.5233 5.05321 21.4011C5.01734 21.2536 5.01734 21.0997 5.05321 20.9522C5.06878 20.8697 5.07532 20.7857 5.07272 20.7018C5.06521 20.6221 5.04885 20.5436 5.02393 20.4676C4.97578 20.3299 4.95911 20.1832 4.97514 20.0382ZM5.22886 20.4123C5.25833 20.5043 5.27796 20.5991 5.28741 20.6953C5.2883 20.7935 5.27959 20.8915 5.26139 20.988C5.23705 21.1017 5.23705 21.2192 5.26139 21.3328C5.29951 21.4156 5.36191 21.4848 5.4403 21.5312C5.51271 21.5824 5.57735 21.6438 5.63222 21.7134C5.68474 21.7925 5.72735 21.8777 5.75908 21.9671C5.78779 22.0565 5.83551 22.1386 5.89895 22.2078C5.97719 22.2332 6.06143 22.2332 6.13966 22.2078C6.22265 22.1948 6.30715 22.1948 6.39014 22.2078C6.47304 22.2256 6.55227 22.2575 6.62434 22.3022C6.68962 22.3497 6.76804 22.3759 6.84879 22.377C6.93751 22.3373 7.01554 22.2771 7.07649 22.2013C7.13865 22.1319 7.20849 22.0697 7.28467 22.0159C7.35935 21.9742 7.43918 21.9425 7.52213 21.9216C7.61752 21.9057 7.70593 21.8615 7.77585 21.7947C7.84087 21.6963 7.88515 21.5856 7.90597 21.4694C7.92485 21.3743 7.9543 21.2815 7.99379 21.1929C8.03892 21.1074 8.09115 21.0258 8.14993 20.949C8.23565 20.8718 8.29402 20.7689 8.31631 20.6557C8.3386 20.5425 8.32359 20.4251 8.27354 20.3212C8.24514 20.2302 8.2266 20.1364 8.21824 20.0414C8.21598 19.9433 8.22361 19.8452 8.24101 19.7487C8.26524 19.6339 8.26524 19.5154 8.24101 19.4006C8.20115 19.319 8.13915 19.2503 8.0621 19.2022C7.98868 19.1511 7.92296 19.0898 7.86694 19.02C7.81632 18.941 7.77381 18.8571 7.74007 18.7696C7.71602 18.6782 7.66769 18.595 7.6002 18.5289C7.56898 18.5097 7.53265 18.5006 7.49611 18.5028C7.45061 18.4999 7.40498 18.4999 7.35948 18.5028C7.27739 18.5229 7.19195 18.5251 7.10891 18.5094C7.02587 18.4937 6.94716 18.4604 6.87807 18.4117C6.81189 18.3635 6.73223 18.3374 6.65036 18.3369C6.56136 18.3777 6.48333 18.439 6.42267 18.5158C6.36035 18.5842 6.29051 18.6453 6.21448 18.698C6.14159 18.741 6.06264 18.7728 5.98027 18.7923C5.88397 18.8083 5.79455 18.8525 5.72329 18.9192C5.65858 19.0175 5.61536 19.1283 5.59644 19.2445C5.57603 19.3392 5.54663 19.4318 5.50862 19.521C5.46508 19.6082 5.41159 19.69 5.34922 19.7649C5.27295 19.8491 5.2163 19.949 5.18333 20.0577C5.16911 20.1771 5.18132 20.2981 5.21911 20.4123H5.22886Z" fill="white"/>
<path d="M4.65138 23.7261C4.80102 23.7595 4.94471 23.8154 5.0775 23.892C5.21122 23.9898 5.33057 24.1059 5.43206 24.2368C5.54458 24.4088 5.70851 24.5409 5.90048 24.6142C6.10941 24.6163 6.31351 24.5513 6.48274 24.4288C6.62521 24.3446 6.77839 24.28 6.93814 24.2368C7.00235 24.2236 7.06776 24.2171 7.13331 24.2173C7.22251 24.219 7.31156 24.2255 7.40005 24.2368C7.60124 24.2824 7.81186 24.2595 7.99857 24.1718C8.18133 24.0164 8.32506 23.8203 8.41819 23.5993C8.50549 23.4282 8.60897 23.2659 8.72721 23.1146C8.84971 22.982 8.98726 22.8641 9.13707 22.7633C9.33782 22.6435 9.50465 22.4744 9.62175 22.2721C9.71206 22.0258 9.74758 21.7627 9.72584 21.5012C9.71962 21.3107 9.73159 21.1201 9.76162 20.9319C9.80562 20.7446 9.86659 20.5617 9.94378 20.3855C10.0622 20.1531 10.1288 19.8979 10.139 19.6373C10.1082 19.4009 10.0162 19.1767 9.87221 18.9867C9.77187 18.8424 9.68992 18.6862 9.62825 18.5216C9.57929 18.3527 9.54662 18.1795 9.53067 18.0044C9.52676 17.7565 9.46316 17.5133 9.34525 17.2952C9.20462 17.1438 9.01636 17.045 8.81179 17.0155C8.66332 16.9833 8.52069 16.9285 8.38891 16.8529C8.25514 16.7539 8.13581 16.6367 8.03435 16.5048C7.92184 16.3328 7.75791 16.2008 7.56594 16.1275C7.35751 16.1286 7.1544 16.1933 6.98368 16.3129C6.84094 16.3965 6.68782 16.461 6.52828 16.5048C6.37418 16.5292 6.21721 16.5292 6.06312 16.5048C5.86274 16.4585 5.65252 16.4826 5.46785 16.5731C5.28405 16.7269 5.13915 16.922 5.04497 17.1424C4.96009 17.3158 4.85647 17.4794 4.73596 17.6303C4.61346 17.7629 4.47591 17.8808 4.3261 17.9816C4.1695 18.0837 4.03007 18.2099 3.91299 18.3557C3.91299 18.2613 3.91298 18.1735 3.93575 18.0857C4.02857 17.9995 4.1275 17.9202 4.23176 17.8482C4.37091 17.7551 4.49865 17.6459 4.61235 17.5229C4.72368 17.3799 4.82065 17.2263 4.90185 17.0643C5.00786 16.8184 5.17194 16.6018 5.38002 16.4332C5.5956 16.3229 5.84275 16.2908 6.07939 16.3422C6.21629 16.3633 6.3556 16.3633 6.4925 16.3422C6.63766 16.303 6.77669 16.2439 6.90561 16.1665C7.10716 16.0255 7.34945 15.9547 7.59521 15.9648C7.82582 16.0422 8.02392 16.1945 8.15796 16.3975C8.25128 16.52 8.3607 16.6294 8.48325 16.7227C8.60211 16.7895 8.73045 16.8377 8.86384 16.8659C9.10241 16.8989 9.32205 17.0139 9.48512 17.1912C9.62295 17.432 9.69685 17.7041 9.69981 17.9816C9.71113 18.1502 9.74058 18.317 9.78765 18.4793C9.84598 18.6321 9.92242 18.7773 10.0153 18.9119C10.1731 19.1211 10.274 19.3677 10.3081 19.6275C10.3 19.9124 10.23 20.1921 10.1032 20.4473C10.0273 20.6133 9.96843 20.7866 9.92752 20.9645C9.89969 21.1409 9.8888 21.3195 9.89499 21.4979C9.91957 21.784 9.87955 22.0719 9.77789 22.3404C9.6489 22.5674 9.46417 22.7577 9.24116 22.8934C9.1011 22.9867 8.9723 23.0958 8.85732 23.2187C8.74707 23.3618 8.65118 23.5154 8.57107 23.6774C8.46369 23.9234 8.29855 24.1398 8.08965 24.3084C7.87415 24.419 7.62692 24.4512 7.39029 24.3995C7.25339 24.3784 7.11407 24.3784 6.97717 24.3995C6.8324 24.4413 6.69357 24.5014 6.56406 24.5784C6.38555 24.6928 6.18286 24.7641 5.97204 24.7866C5.93959 24.7898 5.90691 24.7898 5.87446 24.7866C5.64505 24.7103 5.44797 24.5591 5.31497 24.3572C5.22334 24.2332 5.1137 24.1235 4.98968 24.0319C4.87237 23.9643 4.74497 23.916 4.61235 23.8888C4.52452 23.8628 4.43669 23.8367 4.34887 23.8042C4.34887 23.7359 4.3261 23.6741 4.31634 23.609C4.4237 23.6595 4.53597 23.6987 4.65138 23.7261Z" fill="white"/>
<path d="M13.3254 13.6622C13.3285 13.7527 13.3219 13.8432 13.3058 13.9322C13.2936 14.002 13.2871 14.0728 13.2863 14.1437C13.2933 14.2122 13.3074 14.2798 13.3286 14.3453C13.3716 14.4673 13.385 14.5977 13.3676 14.7259C13.3331 14.8464 13.272 14.9575 13.1887 15.0512C13.1441 15.1051 13.1058 15.164 13.0749 15.2269C13.0471 15.2916 13.0263 15.3593 13.0131 15.4285C12.9895 15.5597 12.9373 15.6841 12.8602 15.7928C12.7717 15.8819 12.6583 15.942 12.5349 15.9652C12.4817 15.9782 12.4303 15.9979 12.382 16.0238C12.331 16.0621 12.2831 16.1046 12.2389 16.1507C12.1633 16.2488 12.0603 16.3224 11.9429 16.3621H11.8778C11.7827 16.3547 11.6909 16.3234 11.6111 16.271C11.5671 16.2427 11.5188 16.2218 11.468 16.2092C11.4175 16.1998 11.3656 16.1998 11.3151 16.2092C11.1988 16.2373 11.0763 16.2223 10.9703 16.1669C10.8761 16.0895 10.808 15.985 10.7751 15.8677C10.7525 15.806 10.723 15.7471 10.6873 15.692C10.6504 15.6475 10.6077 15.6081 10.5604 15.5749C10.4616 15.5117 10.3844 15.4197 10.3392 15.3114C10.3083 15.1821 10.3083 15.0472 10.3392 14.9178C10.3505 14.8479 10.356 14.7772 10.3555 14.7064C10.3498 14.638 10.3367 14.5703 10.3165 14.5047C10.2728 14.3829 10.2583 14.2526 10.2742 14.1241C10.3079 14.0026 10.3704 13.8911 10.4563 13.7988C10.4992 13.7436 10.5373 13.6849 10.5702 13.6232V13.5972H10.8011C10.79 13.6387 10.7747 13.679 10.7556 13.7175C10.7186 13.7949 10.6716 13.8671 10.6157 13.9322C10.5523 14.0039 10.5047 14.0881 10.4759 14.1794C10.4675 14.2744 10.4808 14.3701 10.5149 14.4592C10.5377 14.5402 10.554 14.6228 10.5637 14.7064C10.5642 14.7926 10.5566 14.8786 10.5409 14.9634C10.5215 15.0589 10.5215 15.1574 10.5409 15.2529C10.5737 15.3215 10.6257 15.3791 10.6906 15.4188C10.7539 15.464 10.8108 15.5176 10.8597 15.5782C10.9068 15.6463 10.944 15.7208 10.9703 15.7994C10.9927 15.874 11.0329 15.9421 11.0874 15.9978C11.1509 16.0178 11.2191 16.0178 11.2826 15.9978C11.3559 15.9864 11.4305 15.9864 11.5038 15.9978C11.5756 16.0166 11.6445 16.045 11.7087 16.0824C11.7623 16.1226 11.8271 16.1454 11.8941 16.1474C11.9679 16.1131 12.0325 16.0618 12.0828 15.9978C12.1364 15.937 12.1976 15.8835 12.2649 15.8384C12.33 15.8005 12.4001 15.7721 12.4731 15.7538C12.5523 15.7408 12.6259 15.7045 12.6846 15.6497C12.7399 15.5652 12.7764 15.4698 12.7919 15.37C12.8095 15.2873 12.8357 15.2066 12.87 15.1293C12.9078 15.0541 12.9536 14.9832 13.0066 14.9178C13.0709 14.8467 13.1186 14.7623 13.1465 14.6706C13.1545 14.5759 13.1423 14.4805 13.1107 14.3909C13.0863 14.3103 13.07 14.2275 13.0619 14.1437C13.0619 14.0576 13.0684 13.9717 13.0814 13.8867C13.0941 13.8048 13.0941 13.7214 13.0814 13.6395L13.3254 13.6622Z" fill="white"/>
<path d="M9.57534 25.8964C9.58222 25.825 9.58222 25.7531 9.57534 25.6817C9.56555 25.5489 9.58555 25.4155 9.63389 25.2914C9.69249 25.1848 9.77764 25.0952 9.8811 25.0312C9.93606 24.994 9.98726 24.9515 10.034 24.9043C10.0763 24.8464 10.1143 24.7855 10.1478 24.7221C10.1974 24.6057 10.2757 24.5039 10.3755 24.4261C10.4804 24.3713 10.601 24.354 10.7171 24.3773C10.7677 24.3853 10.8193 24.3853 10.87 24.3773C10.9246 24.3611 10.9771 24.3381 11.0261 24.309C11.1269 24.2421 11.2469 24.2101 11.3677 24.218C11.4815 24.2525 11.5801 24.3248 11.6474 24.4229C11.6816 24.4685 11.7221 24.5091 11.7678 24.5432C11.8115 24.5675 11.8587 24.585 11.9076 24.5953C12.0254 24.6161 12.1323 24.677 12.2101 24.7677C12.2773 24.88 12.3143 25.0077 12.3175 25.1385C12.322 25.2045 12.3329 25.2698 12.35 25.3337C12.3747 25.3929 12.4053 25.4496 12.4411 25.5028C12.5125 25.5981 12.5584 25.7101 12.5745 25.8281C12.5736 25.9592 12.5425 26.0884 12.4834 26.2055C12.4538 26.2727 12.4298 26.3424 12.4118 26.4136C12.4033 26.4839 12.4033 26.5548 12.4118 26.6251C12.4216 26.7579 12.4016 26.8913 12.3533 27.0154C12.2934 27.1221 12.2072 27.2117 12.1028 27.2756C12.0482 27.312 11.998 27.3546 11.9532 27.4025C11.9086 27.4588 11.8705 27.5199 11.8393 27.5847C11.7885 27.7012 11.7091 27.803 11.6084 27.8807C11.5081 27.9319 11.3939 27.949 11.2831 27.9295C11.2324 27.9215 11.1809 27.9215 11.1302 27.9295C11.0755 27.9457 11.0231 27.9687 10.9741 27.9978C10.8876 28.0523 10.7896 28.0858 10.6878 28.0954C10.6706 28.0985 10.653 28.0985 10.6358 28.0954C10.5205 28.0619 10.4205 27.9895 10.3528 27.8904C10.3177 27.8456 10.2773 27.8051 10.2324 27.7701C10.1885 27.7462 10.1414 27.7287 10.0925 27.718C9.97462 27.6978 9.86755 27.6368 9.79002 27.5456C9.72241 27.4335 9.6854 27.3057 9.68268 27.1748C9.67982 27.1087 9.66889 27.0431 9.65015 26.9796C9.6267 26.9204 9.59727 26.8637 9.56232 26.8105C9.48868 26.7161 9.44152 26.6038 9.4257 26.4852C9.42764 26.3538 9.45993 26.2247 9.52003 26.1079C9.54406 26.039 9.56255 25.9683 9.57534 25.8964ZM9.73147 26.7031C9.7779 26.7694 9.81511 26.8416 9.84206 26.9178C9.86619 26.996 9.8804 27.0768 9.88435 27.1585C9.88682 27.2511 9.909 27.342 9.94941 27.4253C10.0017 27.4739 10.0674 27.5057 10.1381 27.5164C10.2085 27.5332 10.2763 27.5595 10.3398 27.5944C10.4021 27.641 10.4579 27.6957 10.5056 27.7571C10.5577 27.8189 10.613 27.8839 10.6618 27.8904C10.7329 27.8862 10.8015 27.8626 10.8602 27.8221C10.9256 27.7812 10.9969 27.7505 11.0716 27.731C11.1041 27.7278 11.1368 27.7278 11.1692 27.731C11.2115 27.731 11.2506 27.731 11.2928 27.731C11.3612 27.7464 11.4327 27.7407 11.4978 27.7148C11.5645 27.6546 11.6168 27.5801 11.6507 27.4968C11.6904 27.42 11.7372 27.347 11.7905 27.2789C11.847 27.2186 11.9103 27.1652 11.9792 27.1195C12.0537 27.0744 12.1162 27.0119 12.1614 26.9373C12.193 26.8421 12.2052 26.7414 12.1971 26.6413C12.1944 26.5564 12.1999 26.4715 12.2134 26.3876C12.2326 26.3028 12.2598 26.22 12.2947 26.1404C12.3397 26.0523 12.3662 25.956 12.3728 25.8574C12.3599 25.771 12.3252 25.6892 12.2719 25.6199C12.2257 25.5531 12.1875 25.481 12.1581 25.4052C12.1372 25.3264 12.123 25.2458 12.1158 25.1645C12.1134 25.072 12.0912 24.9811 12.0508 24.8978C11.9997 24.8492 11.935 24.8174 11.8653 24.8067C11.7942 24.7921 11.7261 24.7657 11.6637 24.7287C11.6015 24.6832 11.5457 24.6296 11.4978 24.5693C11.4425 24.5042 11.3872 24.4424 11.3416 24.4326C11.2702 24.4378 11.2015 24.4626 11.1432 24.5042C11.0758 24.5428 11.0036 24.5724 10.9285 24.592C10.8565 24.6051 10.7826 24.6051 10.7106 24.592C10.6408 24.5773 10.5682 24.5841 10.5024 24.6115C10.4366 24.6713 10.3844 24.7445 10.3495 24.8262C10.3098 24.9031 10.263 24.9761 10.2096 25.0442C10.1534 25.1045 10.0913 25.159 10.0242 25.2068C9.94832 25.2499 9.88454 25.3114 9.83882 25.3857C9.80732 25.481 9.79515 25.5817 9.80303 25.6817C9.8113 25.7661 9.8113 25.8511 9.80303 25.9355C9.78425 26.0204 9.75701 26.1032 9.72171 26.1827C9.67675 26.2719 9.65021 26.3692 9.64364 26.4689C9.65509 26.5526 9.68509 26.6326 9.73147 26.7031Z" fill="white"/>
<path d="M14.2203 19.3844C14.2295 19.4278 14.2426 19.4702 14.2593 19.5113C14.279 19.5428 14.3019 19.5723 14.3277 19.5991C14.3944 19.6627 14.4418 19.7439 14.4643 19.8333C14.4755 19.9286 14.4655 20.0253 14.435 20.1163C14.4199 20.164 14.409 20.213 14.4025 20.2627C14.3976 20.3113 14.3976 20.3604 14.4025 20.4091C14.4288 20.5013 14.4267 20.5994 14.3965 20.6904C14.3664 20.7815 14.3095 20.8614 14.2333 20.9198C14.2005 20.9489 14.1711 20.9817 14.1455 21.0173C14.1216 21.0586 14.102 21.1022 14.0869 21.1475C14.0588 21.2388 14.0098 21.3223 13.9438 21.3914C13.8733 21.447 13.7864 21.4778 13.6966 21.4792C13.6611 21.48 13.6259 21.4866 13.5925 21.4988C13.5584 21.515 13.5267 21.5358 13.4982 21.5606C13.4295 21.6255 13.3416 21.6666 13.2477 21.6777C13.1568 21.6683 13.0719 21.6281 13.007 21.5638C12.9824 21.5425 12.9563 21.5229 12.9289 21.5053C12.8965 21.5014 12.8638 21.5014 12.8313 21.5053C12.7414 21.5077 12.6537 21.4777 12.5841 21.4207C12.5234 21.3492 12.4829 21.2627 12.467 21.1702C12.4593 21.1265 12.4462 21.0839 12.428 21.0434C12.4087 21.0105 12.3858 20.98 12.3597 20.9523C12.2916 20.8898 12.2439 20.8081 12.2231 20.7181C12.2111 20.6236 12.2223 20.5276 12.2556 20.4383C12.27 20.3895 12.2798 20.3394 12.2849 20.2887C12.2896 20.24 12.2896 20.191 12.2849 20.1423C12.2655 20.0501 12.2655 19.9548 12.2849 19.8626C12.3196 19.7745 12.3755 19.6963 12.4475 19.6349C12.4812 19.6066 12.5107 19.5737 12.5353 19.5373C12.5592 19.496 12.5788 19.4524 12.5939 19.4072C12.622 19.3149 12.6709 19.2303 12.737 19.16C12.8081 19.1058 12.8948 19.0761 12.9842 19.0754C13.0198 19.0752 13.0551 19.0686 13.0883 19.0559C13.1228 19.0404 13.1547 19.0195 13.1826 18.9941C13.2514 18.9291 13.3392 18.888 13.4331 18.877C13.5254 18.8848 13.6118 18.9251 13.6771 18.9908C13.7008 19.0123 13.727 19.0309 13.7551 19.0461C13.7879 19.0557 13.8218 19.0612 13.856 19.0624C13.9448 19.0604 14.0314 19.0904 14.0999 19.1469C14.1599 19.2144 14.2013 19.2962 14.2203 19.3844ZM14.0089 19.4364C14.0026 19.3839 13.9836 19.3336 13.9536 19.2901C13.9373 19.2706 13.8918 19.2673 13.843 19.264C13.7875 19.2635 13.7325 19.2536 13.6803 19.2348C13.6303 19.2117 13.5842 19.181 13.5437 19.1437C13.5079 19.1144 13.4656 19.0786 13.4396 19.0786C13.3954 19.0947 13.3545 19.119 13.3193 19.1502C13.2757 19.1876 13.2276 19.2192 13.1761 19.2445C13.1225 19.2625 13.0667 19.2735 13.0102 19.2771C12.9657 19.2754 12.9216 19.2867 12.8834 19.3096C12.8454 19.3581 12.8168 19.4133 12.7988 19.4722C12.7781 19.5309 12.752 19.5875 12.7207 19.6414C12.6859 19.6894 12.6467 19.734 12.6036 19.7747C12.5562 19.8133 12.5184 19.8623 12.493 19.9179C12.4801 19.979 12.4801 20.0422 12.493 20.1033C12.4997 20.166 12.4997 20.2292 12.493 20.2919C12.488 20.356 12.476 20.4192 12.4573 20.4806C12.4352 20.5398 12.4252 20.6029 12.428 20.666C12.4453 20.7156 12.4743 20.7602 12.5126 20.7961C12.553 20.8362 12.587 20.8823 12.6134 20.9328C12.6392 20.9868 12.6588 21.0435 12.6719 21.1019C12.6783 21.1555 12.6973 21.2067 12.7272 21.2515C12.7608 21.2708 12.7992 21.2799 12.8378 21.2776C12.8933 21.2778 12.9484 21.2877 13.0005 21.3068C13.0512 21.3287 13.0975 21.3595 13.1371 21.3979C13.1761 21.4272 13.2152 21.4597 13.2412 21.4597C13.2867 21.4463 13.3281 21.4217 13.3616 21.3882C13.4066 21.3522 13.4558 21.3216 13.5079 21.2971C13.5599 21.2772 13.6149 21.2662 13.6706 21.2646C13.7155 21.2654 13.7596 21.2529 13.7974 21.2288C13.8361 21.1819 13.8649 21.1277 13.882 21.0694C13.9027 21.0107 13.9289 20.9541 13.9601 20.9002C13.9949 20.8522 14.0341 20.8076 14.0772 20.7669C14.1248 20.7286 14.1627 20.6795 14.1878 20.6237C14.2007 20.5626 14.2007 20.4995 14.1878 20.4383C14.1812 20.3756 14.1812 20.3124 14.1878 20.2497C14.1923 20.1853 14.2054 20.1219 14.2268 20.061C14.2466 20.0013 14.2554 19.9384 14.2528 19.8756C14.238 19.8249 14.2086 19.7796 14.1683 19.7455C14.1298 19.7037 14.096 19.6579 14.0674 19.6088C14.0426 19.5533 14.023 19.4956 14.0089 19.4364Z" fill="white"/>
<path d="M5.18023 28.2714C5.19289 28.2234 5.20159 28.1744 5.20625 28.125C5.21182 28.0293 5.23849 27.936 5.28433 27.8518C5.33763 27.7775 5.41096 27.72 5.49576 27.6859C5.53216 27.6702 5.56612 27.6494 5.5966 27.6241C5.6287 27.5939 5.6571 27.5601 5.68117 27.5232C5.72973 27.4421 5.79944 27.3758 5.88285 27.3313C5.96561 27.2998 6.05706 27.2998 6.13982 27.3313C6.17157 27.3456 6.20587 27.3533 6.24067 27.3541C6.27643 27.3504 6.31148 27.3417 6.34475 27.328C6.42628 27.2898 6.51933 27.284 6.60499 27.3118C6.68761 27.3543 6.75392 27.4229 6.79365 27.507C6.81027 27.5416 6.83222 27.5734 6.85871 27.6013C6.88554 27.6233 6.91505 27.6419 6.94653 27.6566C7.02958 27.6894 7.09937 27.7489 7.14496 27.8257C7.18184 27.9141 7.19636 28.0102 7.18724 28.1055C7.1822 28.1531 7.1822 28.201 7.18724 28.2486C7.19919 28.2899 7.21442 28.3301 7.23278 28.369C7.27596 28.4535 7.29827 28.5472 7.29785 28.6422C7.28502 28.7402 7.24936 28.8338 7.19375 28.9154C7.1703 28.9547 7.15069 28.9961 7.1352 29.039C7.12015 29.0866 7.11033 29.1357 7.10592 29.1854C7.10313 29.2816 7.0763 29.3755 7.02785 29.4587C6.97537 29.5337 6.90178 29.5914 6.81642 29.6246C6.78042 29.641 6.74656 29.6618 6.71558 29.6864C6.68552 29.7175 6.65831 29.7512 6.63426 29.7872C6.58464 29.8694 6.51387 29.9368 6.42933 29.9824C6.34626 30.0122 6.25542 30.0122 6.17235 29.9824L6.07477 29.9596C6.03822 29.9647 6.00226 29.9735 5.96742 29.9856C5.91437 30.0063 5.85838 30.0184 5.80153 30.0214C5.76945 30.0207 5.73766 30.0152 5.70719 30.0051C5.62584 29.9604 5.56088 29.8909 5.52178 29.8067C5.50291 29.7734 5.48115 29.7419 5.45673 29.7124C5.42888 29.6918 5.39952 29.6733 5.36889 29.6571C5.28475 29.6261 5.21441 29.5661 5.17047 29.4879C5.13177 29.4001 5.11717 29.3035 5.12819 29.2082C5.13169 29.1606 5.13169 29.1127 5.12819 29.0651C5.12819 29.0488 5.12819 29.0325 5.12819 29.0163L5.08915 28.4958C5.08915 28.4633 5.12168 28.4275 5.13794 28.3982C5.15652 28.3576 5.17069 28.315 5.18023 28.2714ZM5.23228 28.6845C5.23484 28.745 5.25155 28.804 5.28107 28.8569C5.30688 28.9094 5.32548 28.9652 5.33636 29.0228C5.34448 29.0843 5.34448 29.1467 5.33636 29.2082C5.33141 29.2685 5.33804 29.3293 5.35589 29.3871C5.38201 29.4222 5.41837 29.4484 5.45997 29.4619C5.51082 29.4852 5.55796 29.5159 5.59985 29.553C5.6399 29.5946 5.67385 29.6417 5.70069 29.6929C5.72671 29.7352 5.75924 29.7905 5.78201 29.8002C5.82111 29.8004 5.85983 29.7926 5.89585 29.7774C5.95004 29.7568 6.00711 29.7448 6.06501 29.7417C6.11961 29.7433 6.17351 29.7543 6.2244 29.7742C6.26173 29.7838 6.30091 29.7838 6.33825 29.7742C6.38288 29.742 6.42051 29.701 6.44884 29.6538C6.48239 29.6048 6.52051 29.5591 6.5627 29.5172C6.60734 29.4807 6.65654 29.45 6.70907 29.4261C6.7593 29.407 6.80401 29.3757 6.83919 29.3351C6.86582 29.2766 6.88126 29.2137 6.88473 29.1496C6.88923 29.0869 6.90013 29.0248 6.91726 28.9642C6.9391 28.9075 6.96633 28.8531 6.99858 28.8016C7.03474 28.7461 7.06013 28.6843 7.0734 28.6194C7.06925 28.5592 7.05262 28.5005 7.0246 28.447C6.99978 28.3949 6.98017 28.3404 6.96605 28.2844C6.96119 28.2216 6.96119 28.1585 6.96605 28.0957C6.9735 28.0356 6.96796 27.9746 6.94979 27.9168C6.92227 27.8832 6.88637 27.8574 6.84569 27.842C6.79442 27.8195 6.74717 27.7887 6.70582 27.7509C6.66577 27.7093 6.63182 27.6622 6.60499 27.611C6.57896 27.5688 6.54643 27.5135 6.52041 27.5037C6.48134 27.5038 6.44266 27.5115 6.40656 27.5265C6.30212 27.5681 6.1857 27.5681 6.08127 27.5265C6.04718 27.5091 6.00866 27.5023 5.97067 27.507C5.92604 27.5392 5.88842 27.5801 5.86008 27.6273C5.82639 27.6772 5.7871 27.723 5.74297 27.7639C5.69883 27.8012 5.64953 27.8319 5.5966 27.855C5.54714 27.8739 5.50342 27.9053 5.46973 27.9461C5.44162 28.004 5.4261 28.0672 5.4242 28.1315C5.41678 28.2554 5.37757 28.3752 5.31034 28.4796C5.27287 28.5343 5.24737 28.5964 5.23552 28.6617L5.23228 28.6845Z" fill="white"/>
</g>
<path d="M13.5951 8.21289C13.1722 9.78077 12.6518 12.6498 13.6699 13.694C13.6699 13.694 11.6141 15.2683 9.29157 15.1447C7.23251 15.0374 8.80039 13.694 8.80039 13.694C10.5765 13.2776 10.6285 11.983 10.4268 10.7664L13.5951 8.21289Z" fill="#FF8B7B"/>
<path opacity="0.2" d="M12.3008 9.25195L10.4174 10.7613C10.4727 11.0464 10.501 11.3361 10.502 11.6265C11.1785 11.529 12.1479 10.7971 12.2715 10.0977C12.3313 9.81975 12.3413 9.53337 12.3008 9.25195Z" fill="black"/>
<path d="M15.4657 6.76689C14.2556 9.04389 13.7905 10.0197 12.0502 10.7484C9.43163 11.8413 6.87489 10.0263 7.37582 7.47926C7.82797 5.20226 9.7309 1.85833 12.4698 1.84206C13.0576 1.81823 13.641 1.95218 14.1595 2.23001C14.678 2.50783 15.1127 2.9194 15.4185 3.42197C15.7242 3.92454 15.8898 4.49979 15.8981 5.08799C15.9064 5.67619 15.7571 6.25589 15.4657 6.76689Z" fill="#FF8B7B"/>
<path d="M11.3297 3.19922C11.2483 3.3262 11.2483 3.4727 11.3297 3.52479C11.4111 3.57688 11.5446 3.52479 11.626 3.38805C11.7074 3.25132 11.7074 3.11132 11.626 3.06249C11.5446 3.01365 11.4111 3.069 11.3297 3.19922Z" fill="#FF5652"/>
<path d="M12.6155 2.41515C11.7763 3.02994 12.03 4.82226 13.5914 4.95888C13.1522 6.26002 13.0579 7.47009 14.5119 7.65875C14.2452 8.49799 15.8326 8.19222 16.3791 6.09738C16.9255 4.00254 15.5789 2.02806 13.9394 1.66699C12.3 1.30592 10.2116 1.24737 9.97418 2.83802C10.8769 2.95249 11.7936 2.80574 12.6155 2.41515Z" fill="#263238"/>
<path d="M11.5155 5.97107C11.421 6.16641 11.242 6.29664 11.115 6.23153C10.988 6.16642 10.9587 5.98084 11.0532 5.78876C11.1476 5.59667 11.3266 5.46319 11.4536 5.52505C11.5806 5.58691 11.6099 5.77573 11.5155 5.97107Z" fill="#263238"/>
<path d="M9.09551 5.05053C9.00435 5.24587 8.82203 5.37609 8.69506 5.31424C8.56809 5.25238 8.53879 5.06355 8.6332 4.86821C8.72761 4.67287 8.90668 4.54264 9.03365 4.60776C9.16062 4.67287 9.20295 4.85519 9.09551 5.05053Z" fill="#263238"/>
<path d="M9.08618 4.64148L8.67922 4.31592C8.67922 4.31592 8.74759 4.78148 9.08618 4.64148Z" fill="#263238"/>
<path d="M9.61353 5.64551C9.22382 6.02567 8.78645 6.35369 8.31238 6.62137C8.45551 6.96292 8.94668 7.02797 8.94668 7.02797L9.61353 5.64551Z" fill="#FF5652"/>
<path d="M9.73356 8.17958C9.61708 8.15562 9.50282 8.12189 9.392 8.07875C9.3845 8.07562 9.37774 8.07096 9.37213 8.06507C9.36653 8.05918 9.36221 8.05219 9.35945 8.04454C9.3567 8.03689 9.35556 8.02875 9.35613 8.02064C9.35669 8.01253 9.35894 8.00462 9.36273 7.99742C9.36923 7.98149 9.38178 7.96877 9.39763 7.96206C9.41348 7.95536 9.43134 7.95521 9.44731 7.96164C9.69706 8.06173 9.96606 8.10463 10.2346 8.08718C10.503 8.06973 10.7642 7.99238 10.9989 7.8608C11.0109 7.84983 11.0266 7.84375 11.0428 7.84375C11.0591 7.84375 11.0748 7.84983 11.0868 7.8608C11.0944 7.87569 11.0962 7.89286 11.0921 7.90904C11.0879 7.92523 11.0779 7.93932 11.064 7.94863C10.6641 8.18682 10.1903 8.26906 9.73356 8.17958Z" fill="#263238"/>
<path d="M15.1675 8.54705C15.0496 8.76353 14.8877 8.95294 14.6922 9.10308C14.4967 9.25322 14.2719 9.36077 14.0323 9.41881C13.437 9.53592 13.2256 8.84631 13.463 8.18598C13.6777 7.59396 14.2502 6.81653 14.813 6.99869C15.3757 7.18085 15.5026 7.97454 15.1675 8.54705Z" fill="#FF8B7B"/>
<path d="M12.2478 5.36279C12.2366 5.35074 12.2284 5.33621 12.2239 5.32038C12.2194 5.30454 12.2187 5.28786 12.2218 5.27171C12.2522 5.12148 12.2447 4.96604 12.1998 4.81949C12.1549 4.67293 12.0742 4.5399 11.9649 4.43247C11.9529 4.4215 11.9434 4.40817 11.9369 4.39334C11.9304 4.3785 11.927 4.36247 11.927 4.34627C11.927 4.33006 11.9304 4.31403 11.9369 4.29919C11.9434 4.28436 11.9529 4.27103 11.9649 4.26007C11.9896 4.23697 12.0221 4.22412 12.0559 4.22412C12.0898 4.22412 12.1223 4.23697 12.147 4.26007C12.2856 4.39414 12.3881 4.56104 12.4449 4.74528C12.5018 4.92952 12.5112 5.12514 12.4723 5.31399C12.4672 5.33841 12.4552 5.36085 12.4377 5.37862C12.4201 5.3964 12.3979 5.40877 12.3736 5.41425C12.3492 5.41974 12.3238 5.4181 12.3004 5.40956C12.2769 5.40101 12.2564 5.3859 12.2413 5.36604L12.2478 5.36279Z" fill="#263238"/>
<path d="M9.0172 3.44933C8.98654 3.44215 8.95979 3.42353 8.94239 3.39729C8.93437 3.383 8.92927 3.36727 8.92738 3.351C8.9255 3.33473 8.92686 3.31824 8.9314 3.3025C8.93594 3.28676 8.94357 3.27209 8.95383 3.25932C8.96409 3.24655 8.97679 3.23596 8.99118 3.22814C9.16157 3.11701 9.35537 3.04684 9.55741 3.02313C9.75944 2.99943 9.96422 3.02283 10.1557 3.09152C10.1704 3.09809 10.1836 3.10763 10.1945 3.11955C10.2054 3.13147 10.2137 3.1455 10.2189 3.16077C10.2241 3.17604 10.226 3.19222 10.2247 3.20829C10.2233 3.22436 10.2187 3.23997 10.211 3.25416C10.1956 3.28452 10.1691 3.30784 10.1371 3.31933C10.105 3.33083 10.0698 3.32962 10.0386 3.31596C9.88636 3.26418 9.72431 3.24782 9.56479 3.26811C9.40527 3.2884 9.25247 3.34482 9.11804 3.43307C9.08768 3.45101 9.05166 3.45682 9.0172 3.44933Z" fill="#263238"/>
<path d="M11.5066 5.55799L11.0996 5.23242C11.0996 5.23242 11.155 5.69798 11.5066 5.55799Z" fill="#263238"/>
<path d="M7.61663 33.7827C8.73562 44.9368 6.039 71.4378 6.36104 75.7088C7.10594 77.7353 9.38619 77.628 9.38619 77.628C9.38619 77.628 8.13709 81.9413 10.2905 82.6146C12.4439 83.288 15.8594 82.6764 15.8594 82.6764C15.8594 82.6764 10.6353 50.6748 11.0842 38.6978C9.61389 34.0852 7.61663 33.7827 7.61663 33.7827Z" fill="#F781CC"/>
<path opacity="0.3" d="M7.61663 33.7827C8.73562 44.9368 6.039 71.4378 6.36104 75.7088C7.10594 77.7353 9.38619 77.628 9.38619 77.628C9.38619 77.628 8.13709 81.9413 10.2905 82.6146C12.4439 83.288 15.8594 82.6764 15.8594 82.6764C15.8594 82.6764 10.6353 50.6748 11.0842 38.6978C9.61389 34.0852 7.61663 33.7827 7.61663 33.7827Z" fill="black" fill-opacity="0.34"/>
<path d="M8.9402 13.487C7.78869 18.4899 11.562 24.293 16.4445 29.361C18.7411 35.125 19.9772 38.5698 18.3963 44.516C8.24735 39.6042 5.10834 32.565 4.63017 29.8944C4.76353 25.2005 3.1924 22.5592 3.34854 17.7548C3.4201 15.5786 4.10645 12.4721 5.84673 11.2816C6.23057 11.0213 6.69248 11.7695 7.31703 12.2412C7.99037 12.7551 8.7613 12.4558 8.9402 13.487Z" fill="#F781CC"/>
<g opacity="0.3">
<path d="M8.94045 13.488C7.78893 18.4909 11.5623 24.294 16.4448 29.3619C18.7413 35.126 19.9774 38.5708 18.3965 44.517C8.24759 39.6052 5.10858 32.566 4.63041 29.8954C4.76378 25.2015 3.19265 22.5602 3.34878 17.7557C3.42035 15.5796 4.1067 12.4731 5.84698 11.2825C6.23081 11.0223 6.69273 11.7705 7.31727 12.2421C7.99062 12.7561 8.76154 12.4568 8.94045 13.488Z" fill="black" fill-opacity="0.34"/>
</g>
<path opacity="0.3" d="M5.50079 19.4053C6.45387 31.7369 16.0758 35.1101 16.7231 42.0126C16.3165 38.2556 10.9168 34.2058 7.9697 30.3023C4.8372 26.1159 4.81118 22.4987 5.50079 19.4053Z" fill="#F781CC"/>
<path opacity="0.3" d="M8.677 25.406C6.07472 20.0681 7.53525 14.4829 7.53525 14.4829C7.53525 14.4829 4.55563 19.3915 8.677 25.406Z" fill="#F781CC"/>
<path d="M9.95099 29.3236L10.4162 28.6731C10.5026 28.5527 10.6164 28.4545 10.7481 28.3867C10.8799 28.3188 11.0259 28.2832 11.1741 28.2827H12.5793C12.8568 28.2818 13.1304 28.3475 13.3771 28.4743C13.6239 28.6011 13.8367 28.7853 13.9975 29.0114L14.1992 29.2944C13.5031 30.4296 11.9222 31.142 11.9222 31.142L11.4928 31.3925C11.4063 31.4476 11.3095 31.4849 11.2083 31.5022C11.1071 31.5195 11.0034 31.5164 10.9034 31.493C10.8034 31.4697 10.7091 31.4266 10.626 31.3663C10.5429 31.3061 10.4726 31.2298 10.4194 31.142L9.90545 30.2962C9.81869 30.1469 9.77684 29.9757 9.78492 29.8032C9.793 29.6307 9.85066 29.4642 9.95099 29.3236Z" fill="#FF8B7B"/>
<path d="M15.1656 17.9864L15.3185 18.3768L15.4779 18.7964C15.582 19.0794 15.6796 19.3689 15.7739 19.6584C15.9626 20.2374 16.1285 20.8262 16.2814 21.4117C16.4342 21.9972 16.5546 22.5925 16.6554 23.1812C16.7529 23.7673 16.8203 24.3579 16.8571 24.9508L16.8896 24.645C16.8795 24.7603 16.8427 24.8716 16.7823 24.9703C16.6812 25.1528 16.5624 25.325 16.4277 25.4843C16.0998 25.8708 15.7408 26.2298 15.3543 26.5577C14.9509 26.9155 14.5151 27.2571 14.0531 27.5921C13.5912 27.9272 13.1391 28.2655 12.6935 28.568L12.6642 28.5907C12.5107 28.7015 12.4014 28.8631 12.3558 29.0468C12.3102 29.2306 12.3312 29.4245 12.4151 29.5942C12.499 29.7639 12.6403 29.8984 12.8139 29.9737C12.9876 30.0491 13.1823 30.0604 13.3635 30.0057C13.9497 29.8206 14.5252 29.6034 15.0876 29.3552C15.6548 29.1053 16.2066 28.8218 16.74 28.5062C17.3095 28.1718 17.8435 27.7806 18.3339 27.3384C18.6132 27.0863 18.867 26.8074 19.0918 26.5057C19.3754 26.1289 19.5821 25.7001 19.7001 25.2436C19.716 25.1741 19.7258 25.1033 19.7294 25.0321V24.941C19.7589 24.2238 19.7393 23.5054 19.6708 22.7909C19.6037 22.0868 19.4951 21.3873 19.3455 20.6961C19.2059 20.0096 19.03 19.3309 18.8186 18.663C18.7112 18.3377 18.5974 18.0125 18.477 17.6709C18.3567 17.3294 18.2298 17.0203 18.0574 16.656C17.8819 16.2815 17.5682 15.9896 17.1821 15.8413C16.7961 15.693 16.3676 15.6999 15.9865 15.8606C15.6055 16.0213 15.3014 16.3232 15.138 16.7031C14.9747 17.0831 14.9648 17.5115 15.1103 17.8986L15.1656 17.9864Z" fill="#FF8B7B"/>
<path d="M15.4755 20.6632C15.4755 20.6632 13.4685 16.1092 15.2836 13.7964C17.2125 14.0566 18.3022 15.4619 18.9203 18.0771C20.1238 21.1088 19.5709 20.8518 20.3255 24.1405C20.5142 24.983 20.5337 27.2925 17.2743 28.3692C17.2078 28.3911 17.1354 28.3872 17.0715 28.3583C17.0077 28.3294 16.957 28.2775 16.9295 28.2131C16.6335 27.4877 16.7279 26.3784 16.1456 26.0662C16.0888 26.0316 16.0463 25.9777 16.026 25.9144C16.0057 25.8511 16.0089 25.7825 16.035 25.7214C16.2078 25.3669 16.3989 25.0216 16.6075 24.687C16.5164 23.9095 15.5373 21.9708 15.4755 20.6632Z" fill="#263238"/>
<path d="M8.9402 13.6476C8.97142 13.6466 9.00168 13.6366 9.02738 13.6189C9.05307 13.6012 9.07313 13.5764 9.08514 13.5476C9.09715 13.5187 9.10061 13.4871 9.09512 13.4563C9.08962 13.4256 9.07541 13.3971 9.05415 13.3742C9.02298 13.3458 8.98235 13.3301 8.9402 13.3301C8.89805 13.3301 8.85742 13.3458 8.82625 13.3742C8.79677 13.4047 8.78042 13.4456 8.78068 13.4881C8.78042 13.5095 8.78463 13.5306 8.79304 13.5503C8.80145 13.5699 8.81387 13.5875 8.82951 13.6021C8.84406 13.6166 8.86133 13.6281 8.88032 13.6359C8.89931 13.6437 8.91966 13.6477 8.9402 13.6476Z" fill="white"/>
<path d="M13.9406 13.8494C13.9598 13.8539 13.9799 13.8539 13.9992 13.8494C14.0187 13.8424 14.0365 13.8313 14.0513 13.8168C14.0666 13.802 14.0788 13.7843 14.0872 13.7648C14.0956 13.7452 14.1 13.7241 14.1001 13.7028C14.0991 13.66 14.0816 13.6192 14.0513 13.5889C14.0366 13.5734 14.0189 13.5612 13.9992 13.5531C13.9801 13.5451 13.9596 13.541 13.9389 13.541C13.9183 13.541 13.8978 13.5451 13.8787 13.5531C13.859 13.5612 13.8412 13.5734 13.8266 13.5889C13.811 13.6034 13.7986 13.6211 13.7901 13.6407C13.7817 13.6603 13.7775 13.6815 13.7778 13.7028C13.7732 13.7232 13.7732 13.7443 13.7778 13.7647C13.7855 13.7846 13.7978 13.8025 13.8136 13.8168C13.8312 13.8311 13.8516 13.8414 13.8735 13.847C13.8954 13.8527 13.9183 13.8534 13.9406 13.8494Z" fill="white"/>
</svg>
