<svg width="106" height="76" viewBox="0 0 106 76" fill="none" xmlns="http://www.w3.org/2000/svg">
<path d="M39.2002 20.512L36.64 19.2347C36.64 19.2347 36.0312 18.4098 35.8662 18.3813C35.7013 18.3529 32.6262 18.7568 32.6262 18.7568C32.6262 18.7568 32.9618 19.7326 33.2634 20.0312C33.5649 20.3299 35.5391 19.9573 35.5391 19.9573L38.0538 21.1947L39.2002 20.512Z" fill="#B97964"/>
<path d="M41.3811 9.07351C42.0667 9.73632 42.7096 10.2455 41.7139 11.1643C40.7183 12.0832 40.9061 13.5994 42.1776 14.2764C43.4492 14.9534 49.8212 17.2662 52.1795 14.6007C54.5377 11.9352 52.7825 10.1118 51.6105 9.614C50.4385 9.11619 51.5679 7.80764 51.676 6.85752C51.7841 5.90741 47.4317 2.02159 45.4006 1.77411C43.3695 1.52662 41.987 3.27609 42.024 5.05116C42.061 6.82623 40.2603 7.99254 41.3811 9.07351Z" fill="#263238"/>
<path d="M43.8523 13.8981C43.9917 13.8981 43.0701 20 42.8226 20.9131C42.5751 21.8262 37.4746 19.3713 37.4746 19.3713L36.6496 20.6315C36.6496 20.6315 41.1158 24.395 43.0501 23.9739C44.9845 23.5529 46.4268 16.885 46.4268 16.885L43.8523 13.8981Z" fill="#F7C06E"/>
<path opacity="0.7" d="M36.6496 20.6313C36.6496 20.6313 41.1158 24.3948 43.0501 23.9709C43.8239 23.8003 44.5208 22.6226 45.0784 21.2713C45.624 19.8839 46.0652 18.4576 46.3983 17.0044C46.4154 16.9162 46.4268 16.8707 46.4268 16.8707L46.1423 16.5464L45.104 15.3402L43.8523 13.8923C43.9491 14.1284 43.0587 20.0055 42.8169 20.8987C42.5751 21.7919 37.4689 19.3569 37.4689 19.3569L36.6496 20.6313Z" fill="white"/>
<path opacity="0.2" d="M45.081 21.2716C45.6265 19.8841 46.0677 18.4578 46.4009 17.0046C46.3212 16.8453 46.2387 16.6916 46.1505 16.5466C45.8872 16.0801 45.5343 15.6702 45.1122 15.3404L45.0724 15.312C45.0724 15.312 43.963 18.5065 45.081 21.2716Z" fill="black"/>
<path d="M56.8325 34.5958L49.0068 35.7024L47.6101 15.5138L55.4472 16.4469L56.8325 34.5958Z" fill="#F7C06E"/>
<path opacity="0.4" d="M56.8325 34.5958L49.0068 35.7024L47.6101 15.5138L55.4472 16.4469L56.8325 34.5958Z" fill="white"/>
<path d="M52.9654 72.9021H54.8457L54.2682 70.3021L53.7363 67.9154L51.3809 67.5541L52.2172 70.3846L52.9654 72.9021Z" fill="#B97964"/>
<path opacity="0.2" d="M52.2355 70.4414L54.2837 70.3532L53.7432 67.941L51.3821 67.5655L52.2355 70.4414Z" fill="black"/>
<path d="M56.856 72.9021H58.7363L58.1589 70.3021L57.6269 67.9154L55.2715 67.5541L56.1079 70.3846L56.856 72.9021Z" fill="#B97964"/>
<path opacity="0.2" d="M56.1301 70.4414L58.1782 70.3532L57.6377 67.941L55.2767 67.5655L56.1301 70.4414Z" fill="black"/>
<path d="M60.2596 23.2002C60.2596 23.2002 60.3564 23.4022 60.5071 23.7691C61.2154 25.5186 63.1555 31.0458 62.4301 37.452C62.0006 41.2411 57.8132 48.0597 57.1902 51.7748C56.4649 56.1016 58.3651 63.7224 57.8758 69.3179L54.8861 69.5796L53.9843 69.0107L51.4241 68.6266C51.4241 68.6266 44.7505 53.4475 44.8814 48.1991C44.9753 44.0772 51.4241 29.302 51.4241 29.302L50.8097 23.8374" fill="#263238"/>
<path opacity="0.2" d="M53.5138 68.9509L53.986 69.022L54.7512 69.5056C54.2619 67.7988 50.0461 53.0407 49.9722 49.7921C49.8868 46.3387 54.8081 34.0896 54.8081 34.0896L53.5479 31.8138L53.7385 35.2786C53.7385 35.2786 49.0903 44.8026 48.7234 49.7864C48.3621 54.5712 53.1269 67.8756 53.5138 68.9509Z" fill="black"/>
<path d="M55.3763 72.8196C55.3763 72.612 52.8161 72.7741 52.8161 72.7741C52.8161 72.7741 51.2459 74.37 49.724 74.7284C48.2021 75.0868 49.0526 76 50.7537 76H54.9724C56.1813 76 55.4275 74.9702 55.3763 72.8196Z" fill="#263238"/>
<path d="M52.5419 73.1041C52.5498 73.1001 52.5566 73.0943 52.5618 73.0871V73.0871V73.07C52.5634 73.0625 52.5634 73.0547 52.5618 73.0472C52.5632 73.0387 52.5632 73.0301 52.5618 73.0216C52.5618 72.9903 52.337 72.4015 51.9928 72.2564C51.9409 72.2332 51.8847 72.2212 51.8279 72.2212C51.771 72.2212 51.7148 72.2332 51.6629 72.2564C51.5462 72.3133 51.4893 72.3844 51.495 72.4726C51.495 72.6063 51.6828 72.74 51.8904 72.8509C51.6986 72.8196 51.5019 72.8412 51.3215 72.9135C51.2881 72.9312 51.2589 72.9559 51.2358 72.9858C51.2128 73.0157 51.1964 73.0503 51.1878 73.0871C51.1689 73.1328 51.1645 73.1832 51.1752 73.2316C51.1859 73.2799 51.2111 73.3238 51.2475 73.3573C51.3136 73.4022 51.3925 73.4242 51.4723 73.4199C51.8443 73.3768 52.2061 73.27 52.5419 73.1041V73.1041ZM52.3086 73.0614C51.9331 73.2208 51.4552 73.3601 51.3443 73.2634C51.3443 73.2634 51.3016 73.2264 51.3272 73.1269C51.333 73.108 51.3425 73.0904 51.3552 73.0753C51.3679 73.0601 51.3836 73.0477 51.4012 73.0387C51.4957 72.9959 51.5991 72.9764 51.7027 72.9818C51.9069 72.9874 52.1099 73.0141 52.3086 73.0614V73.0614ZM51.953 72.3816C52.1546 72.5111 52.3084 72.7029 52.3911 72.9277C52.0128 72.7855 51.6486 72.5864 51.643 72.4726C51.643 72.4385 51.6998 72.4043 51.734 72.3873C51.7706 72.3701 51.8102 72.3605 51.8506 72.3588C51.8859 72.3596 51.9207 72.3673 51.953 72.3816V72.3816Z" fill="#F7C06E"/>
<path d="M54.8872 68.5925L50.6629 68.015L51.0156 69.5881L54.5032 70.0262L54.8872 68.5925Z" fill="#F7C06E"/>
<path d="M59.2709 72.8196C59.2709 72.612 56.7107 72.7741 56.7107 72.7741C56.7107 72.7741 55.1433 74.37 53.6214 74.7284C52.0995 75.0868 52.9501 76 54.6512 76H58.8613C60.076 76 59.325 74.9702 59.2709 72.8196Z" fill="#263238"/>
<path d="M56.4289 73.1041C56.4381 73.101 56.4461 73.095 56.4516 73.0871V73.0871V73.07C56.4533 73.0625 56.4533 73.0547 56.4516 73.0472C56.4543 73.0389 56.4543 73.03 56.4516 73.0216C56.4516 72.9903 56.2269 72.4015 55.8827 72.2564C55.8308 72.2332 55.7746 72.2212 55.7177 72.2212C55.6609 72.2212 55.6046 72.2332 55.5527 72.2564C55.4361 72.3133 55.3792 72.3844 55.3849 72.4726C55.3849 72.6063 55.5726 72.74 55.7803 72.8509C55.5885 72.8194 55.3917 72.8411 55.2114 72.9135C55.1782 72.9319 55.149 72.9567 55.1256 72.9865C55.1021 73.0163 55.0849 73.0505 55.0748 73.0871C55.0567 73.1331 55.0529 73.1836 55.0641 73.2319C55.0753 73.2802 55.1008 73.3239 55.1374 73.3573C55.2032 73.4026 55.2823 73.4247 55.3621 73.4199C55.7334 73.3774 56.0943 73.2705 56.4289 73.1041V73.1041ZM56.1956 73.0614C55.8201 73.2208 55.3422 73.3601 55.2341 73.2634C55.2341 73.2634 55.1915 73.2264 55.2171 73.1269C55.2229 73.108 55.2324 73.0904 55.2451 73.0753C55.2578 73.0601 55.2734 73.0477 55.291 73.0387C55.3802 72.998 55.4775 72.9785 55.5755 72.9818C55.7835 72.9864 55.9904 73.0131 56.1928 73.0614H56.1956ZM55.8429 72.3816C56.0445 72.5111 56.1983 72.7029 56.281 72.9277C55.9026 72.7855 55.5385 72.5864 55.5328 72.4726C55.5328 72.4385 55.5897 72.4043 55.6238 72.3873C55.6603 72.3696 55.7 72.3599 55.7405 72.3588C55.7758 72.3596 55.8106 72.3673 55.8429 72.3816V72.3816Z" fill="#F7C06E"/>
<path d="M58.4966 68.5925L53.9878 68.015L54.3633 69.5881L58.087 70.0262L58.4966 68.5925Z" fill="#F7C06E"/>
<path d="M59.7163 21.9713L60.1572 23.2429L51.2591 25.5954L50.7357 24.0934L59.7163 21.9713Z" fill="black"/>
<path d="M56.6651 22.4322L57.1021 22.3048L57.752 24.5332L57.3151 24.6606L56.6651 22.4322Z" fill="#263238"/>
<path d="M52.896 23.6848L54.8496 23.1952L55.221 24.6769L53.2674 25.1665L52.896 23.6848Z" fill="white"/>
<path d="M51.1666 23.6972L51.6035 23.5696L52.2538 25.7979L51.8169 25.9254L51.1666 23.6972Z" fill="#263238"/>
<path d="M43.9963 13.8981C44.3756 14.4025 44.735 14.8767 45.0744 15.3204C46.3716 17.0557 47.2933 18.2874 48.0016 19.2802C48.7951 20.3494 49.4838 21.4926 50.0583 22.6938C50.2887 23.1831 50.5163 23.715 50.7694 24.3409L59.7188 21.9542C58.0347 15.6959 56.5896 12.4189 55.8699 10.7832L55.8472 10.732C55.625 10.2422 55.2366 9.84688 54.7507 9.6162C54.2649 9.38551 53.7131 9.33436 53.1931 9.47179C52.5502 9.64532 51.7992 9.86436 51.1023 10.1005C49.8036 10.58 48.5403 11.1503 47.3217 11.8073C46.1645 12.4235 45.0532 13.1223 43.9963 13.8981V13.8981Z" fill="#F7C06E"/>
<path d="M53.1917 9.48891C54.3694 9.17884 52.637 13.3207 49.9602 14.1286C47.2833 14.9364 45.6733 13.9436 45.6704 13.1756C45.6676 12.4075 49.6387 10.439 53.1917 9.48891Z" fill="#B97964"/>
<path d="M52.4063 9.41209C52.4063 9.41209 51.5074 13.4686 52.4063 16.4469C53.3052 19.4253 60.6558 37.4491 60.6558 37.4491H64.5615C64.5615 37.4491 63.3525 28.5538 59.7256 20.9131C59.7256 20.9131 56.4656 10.6467 56.3916 10.1944C56.3177 9.74208 54.5824 9.01669 52.4063 9.41209Z" fill="#F7C06E"/>
<path d="M47.2831 11.5767C47.2831 11.5767 47.1664 15.7328 48.7054 19.4166L49.0098 35.1192C49.0098 35.1192 47.7467 27.0517 47.1892 20.9129L43.8581 13.898L47.2831 11.5767Z" fill="#F7C06E"/>
<path opacity="0.8" d="M52.4063 16.447C53.308 19.4225 60.6558 37.4492 60.6558 37.4492H64.5615C64.5615 37.4492 63.4549 29.3163 60.1807 21.9258C60.03 21.5873 59.8764 21.2488 59.7171 20.9131C59.7171 20.9131 59.407 19.9374 58.9774 18.572C58.0103 15.514 56.4343 10.5074 56.3831 10.1944C56.3092 9.74499 54.5824 9.00253 52.4006 9.41216C52.4063 9.41216 51.5074 13.4687 52.4063 16.447Z" fill="white"/>
<path opacity="0.8" d="M47.2831 11.5767C47.2831 11.5767 47.1664 15.7328 48.7054 19.4166L49.0098 35.1192C49.0098 35.1192 47.7467 27.0517 47.1892 20.9129L43.8581 13.898L47.2831 11.5767Z" fill="white"/>
<path d="M47.1882 11.2271C47.1882 11.2271 46.0048 12.1829 45.2253 14.7146L46.8098 15.844L46.4258 16.8794L48.7015 20.5064C48.8 19.565 48.7385 18.6138 48.5195 17.693C48.161 16.3475 47.0801 12.3735 47.1882 11.2271Z" fill="#F7C06E"/>
<path d="M52.0037 9.41213C51.1702 12.7934 51.6919 16.3666 53.4573 19.3685C53.4573 19.3685 53.5455 15.585 54.0575 14.2054L52.8372 13.7189L55.2466 12.1458C55.2466 12.1458 53.2923 8.9456 52.0037 9.41213Z" fill="#F7C06E"/>
<path opacity="0.7" d="M47.1882 11.2271C47.1882 11.2271 46.0048 12.1829 45.2253 14.7146L46.8098 15.844L46.4258 16.8794L48.7015 20.5064C48.8 19.565 48.7385 18.6138 48.5195 17.693C48.161 16.3475 47.0801 12.3735 47.1882 11.2271Z" fill="white"/>
<path opacity="0.7" d="M52.0037 9.41213C51.1702 12.7934 51.6919 16.3666 53.4573 19.3685C53.4573 19.3685 53.5455 15.585 54.0575 14.2054L52.8372 13.7189L55.2466 12.1458C55.2466 12.1458 53.2923 8.9456 52.0037 9.41213Z" fill="white"/>
<path opacity="0.2" d="M56.4521 23.348C57.3681 23.4333 58.9668 22.6311 60.1758 21.9256C60.025 21.5871 59.8714 21.2486 59.7121 20.9129C59.7121 20.9129 59.402 19.9372 58.9725 18.5718C57.5132 20.3611 55.337 23.2399 56.4521 23.348Z" fill="black"/>
<path d="M55.813 29.0688C55.813 29.0688 54.9283 29.1911 53.2243 27.5611C51.5204 25.9311 49.2418 24.0195 48.6899 24.2812L43.6435 26.7162L50.4508 31.5522L55.813 29.0688Z" fill="#F7C06E"/>
<path opacity="0.7" d="M55.813 29.0688C55.813 29.0688 54.9283 29.1911 53.2243 27.5611C51.5204 25.9311 49.2418 24.0195 48.6899 24.2812L43.6435 26.7162L50.4508 31.5522L55.813 29.0688Z" fill="white"/>
<path d="M55.6791 30.0671L48.7068 24.6082C48.6614 24.5729 48.6073 24.5506 48.5502 24.5436C48.4931 24.5365 48.4352 24.5451 48.3825 24.5684L43.1313 26.8925C43.1092 26.9025 43.09 26.9181 43.0758 26.9378C43.0616 26.9574 43.0527 26.9805 43.0501 27.0046C43.0475 27.0288 43.0513 27.0532 43.0611 27.0754C43.0708 27.0976 43.0862 27.117 43.1057 27.1314L49.9926 32.2575C50.0353 32.2892 50.0853 32.3097 50.138 32.3172C50.1906 32.3247 50.2443 32.3188 50.2942 32.3002L55.6421 30.2947C55.6627 30.2851 55.6807 30.2706 55.6944 30.2525C55.7081 30.2343 55.7172 30.2131 55.7209 30.1907C55.7245 30.1683 55.7226 30.1453 55.7153 30.1237C55.708 30.1022 55.6956 30.0827 55.6791 30.0671V30.0671Z" fill="#F7C06E"/>
<path d="M45.3712 25.7377C45.3086 25.6438 45.229 25.4532 45.4139 25.3707C45.5033 25.3446 45.5976 25.3395 45.6894 25.3558C45.7812 25.3721 45.8679 25.4093 45.943 25.4646C46.2132 25.3394 46.4664 25.2199 46.6456 25.1403C46.6645 25.1322 46.6853 25.1297 46.7055 25.1332C46.7257 25.1368 46.7444 25.1462 46.7594 25.1602L47.1975 25.5613C47.2166 25.5791 47.2311 25.6014 47.2394 25.6261C47.2477 25.6509 47.2497 25.6774 47.2452 25.7031C47.2407 25.7289 47.2298 25.7531 47.2135 25.7735C47.1972 25.794 47.176 25.81 47.152 25.8202L45.3627 26.5854C45.2991 26.6117 45.2295 26.6203 45.1614 26.6103C45.0933 26.6003 45.0291 26.572 44.9758 26.5285L44.6202 26.2298C44.6091 26.2212 44.6004 26.21 44.5949 26.1971C44.5893 26.1842 44.5872 26.1701 44.5886 26.1561C44.59 26.1422 44.595 26.1288 44.603 26.1173C44.611 26.1058 44.6218 26.0966 44.6344 26.0904L45.3712 25.7377ZM45.4907 25.5215C45.4338 25.5585 45.4765 25.621 45.5191 25.6666L45.7296 25.567C45.65 25.5158 45.5447 25.4845 45.4907 25.5158V25.5215Z" fill="#263238"/>
<path d="M54.2046 24.358L53.0411 25.914C53.0411 25.914 51.9033 26.1387 51.6188 26.4374C51.093 27.0325 50.6253 27.6764 50.2221 28.3604C50.1111 28.6591 51.7866 29.4841 52 29.3731C52.2133 29.2622 53.4081 27.5724 53.5589 27.2709C53.6024 27.1753 53.625 27.0716 53.625 26.9665C53.625 26.8615 53.6024 26.7577 53.5589 26.6622L54.7935 25.2398L54.2046 24.358Z" fill="#B97964"/>
<path d="M56.3837 10.1943C55.334 10.7632 55.2459 13.0219 55.2459 13.0219C55.2459 13.0219 57.6553 17.6957 57.806 18.4267C57.9568 19.1578 53.3513 25.0918 53.3513 25.0918L54.4323 26.0988C54.4323 26.0988 59.9851 20.1478 60.5853 18.7027C61.1855 17.2576 56.3837 10.1943 56.3837 10.1943Z" fill="#F7C06E"/>
<path opacity="0.7" d="M56.3837 10.1943C55.334 10.7632 55.2459 13.0219 55.2459 13.0219C55.2459 13.0219 57.6553 17.6957 57.806 18.4267C57.9568 19.1578 53.3513 25.0918 53.3513 25.0918L54.4323 26.0988C54.4323 26.0988 59.9851 20.1478 60.5853 18.7027C61.1855 17.2576 56.3837 10.1943 56.3837 10.1943Z" fill="white"/>
<path d="M43.2643 22.0168C43.2643 22.1643 43.308 22.3084 43.3899 22.4309C43.4718 22.5535 43.5882 22.649 43.7244 22.7054C43.8605 22.7618 44.0104 22.7766 44.155 22.7478C44.2996 22.7191 44.4324 22.6481 44.5366 22.5439C44.6408 22.4396 44.7118 22.3068 44.7406 22.1622C44.7693 22.0177 44.7546 21.8678 44.6981 21.7316C44.6417 21.5954 44.5462 21.479 44.4236 21.3971C44.3011 21.3153 44.157 21.2715 44.0096 21.2715C43.8119 21.2715 43.6223 21.3501 43.4826 21.4898C43.3428 21.6296 43.2643 21.8192 43.2643 22.0168V22.0168Z" fill="#263238"/>
<g opacity="0.6">
<path opacity="0.6" d="M43.255 22.017C43.255 22.1644 43.2987 22.3085 43.3806 22.4311C43.4625 22.5536 43.5789 22.6492 43.7151 22.7056C43.8513 22.762 44.0011 22.7768 44.1457 22.748C44.2903 22.7192 44.4231 22.6483 44.5273 22.544C44.6315 22.4398 44.7025 22.307 44.7313 22.1624C44.76 22.0178 44.7453 21.868 44.6889 21.7318C44.6325 21.5956 44.5369 21.4792 44.4144 21.3973C44.2918 21.3154 44.1477 21.2717 44.0003 21.2717C43.8026 21.2717 43.6131 21.3502 43.4733 21.49C43.3335 21.6298 43.255 21.8193 43.255 22.017V22.017Z" fill="white"/>
</g>
<path d="M46.8462 15.8723C46.8246 15.4123 46.7724 14.9542 46.6897 14.5012C46.4223 12.8114 46.1208 10.8941 48.6469 9.80177C49.4092 9.47179 50.0863 9.47748 50.658 9.82168C51.9524 10.6011 52.2852 12.8541 52.3506 13.4429C52.5758 13.4163 52.8041 13.4419 53.0177 13.5179C53.2314 13.5939 53.4246 13.7181 53.5824 13.881C54.5069 14.8681 54.0859 17.141 54.0659 17.2377C54.0625 17.2559 54.0556 17.2732 54.0454 17.2887C54.0352 17.3042 54.0221 17.3175 54.0067 17.3278C53.9914 17.3381 53.9741 17.3453 53.9559 17.3489C53.9378 17.3524 53.9191 17.3524 53.901 17.3487C53.8641 17.3417 53.8314 17.3205 53.8101 17.2896C53.7888 17.2587 53.7805 17.2206 53.7872 17.1837C53.7872 17.1609 54.2025 14.9591 53.3775 14.0773C53.2314 13.93 53.0508 13.8215 52.852 13.7619C52.6533 13.7023 52.4428 13.6934 52.2397 13.7359C52.0262 13.7497 51.8192 13.8142 51.6356 13.9241C51.4521 14.0339 51.2974 14.1859 51.1843 14.3675C50.4703 15.5252 51.281 17.8323 51.2896 17.855C51.3015 17.8909 51.2989 17.9299 51.2824 17.9639C51.266 17.9979 51.2369 18.0242 51.2014 18.0371C51.1854 18.04 51.169 18.04 51.153 18.0371C51.124 18.0363 51.0958 18.027 51.072 18.0103C51.0483 17.9936 51.0299 17.9702 51.0193 17.9432C50.9852 17.8436 50.1659 15.4854 50.9425 14.211C51.0662 14.0114 51.2322 13.8414 51.4288 13.7131C51.6254 13.5848 51.8479 13.5013 52.0804 13.4685C52.0149 12.9195 51.6907 10.7604 50.5243 10.0549C50.0351 9.77048 49.4462 9.77048 48.772 10.0549C46.4479 11.0591 46.7182 12.783 46.9827 14.4471C47.0673 14.9172 47.1205 15.3923 47.142 15.8694C47.1762 18.1452 46.4451 21.8176 44.3287 21.8944V21.61C46.2915 21.5332 46.8746 17.7128 46.8462 15.8723Z" fill="#263238"/>
<path opacity="0.2" d="M46.8462 15.8723C46.8246 15.4123 46.7724 14.9542 46.6897 14.5012C46.4223 12.8114 46.1208 10.8941 48.6469 9.80177C49.4092 9.47179 50.0863 9.47748 50.658 9.82168C51.9524 10.6011 52.2852 12.8541 52.3506 13.4429C52.5758 13.4163 52.8041 13.4419 53.0177 13.5179C53.2314 13.5939 53.4246 13.7181 53.5824 13.881C54.5069 14.8681 54.0859 17.141 54.0659 17.2377C54.0625 17.2559 54.0556 17.2732 54.0454 17.2887C54.0352 17.3042 54.0221 17.3175 54.0067 17.3278C53.9914 17.3381 53.9741 17.3453 53.9559 17.3489C53.9378 17.3524 53.9191 17.3524 53.901 17.3487C53.8641 17.3417 53.8314 17.3205 53.8101 17.2896C53.7888 17.2587 53.7805 17.2206 53.7872 17.1837C53.7872 17.1609 54.2025 14.9591 53.3775 14.0773C53.2314 13.93 53.0508 13.8215 52.852 13.7619C52.6533 13.7023 52.4428 13.6934 52.2397 13.7359C52.0262 13.7497 51.8192 13.8142 51.6356 13.9241C51.4521 14.0339 51.2974 14.1859 51.1843 14.3675C50.4703 15.5252 51.281 17.8323 51.2896 17.855C51.3015 17.8909 51.2989 17.9299 51.2824 17.9639C51.266 17.9979 51.2369 18.0242 51.2014 18.0371C51.1854 18.04 51.169 18.04 51.153 18.0371C51.124 18.0363 51.0958 18.027 51.072 18.0103C51.0483 17.9936 51.0299 17.9702 51.0193 17.9432C50.9852 17.8436 50.1659 15.4854 50.9425 14.211C51.0662 14.0114 51.2322 13.8414 51.4288 13.7131C51.6254 13.5848 51.8479 13.5013 52.0804 13.4685C52.0149 12.9195 51.6907 10.7604 50.5243 10.0549C50.0351 9.77048 49.4462 9.77048 48.772 10.0549C46.4479 11.0591 46.7182 12.783 46.9827 14.4471C47.0673 14.9172 47.1205 15.3923 47.142 15.8694C47.1762 18.1452 46.4451 21.8176 44.3287 21.8944V21.61C46.2915 21.5332 46.8746 17.7128 46.8462 15.8723Z" fill="white"/>
<path d="M50.9995 17.6843L51.392 17.6047C51.392 17.6047 51.6765 18.2305 51.4461 18.3415C51.2157 18.4524 50.8686 18.0115 50.9995 17.6843Z" fill="#263238"/>
<g opacity="0.6">
<path opacity="0.6" d="M51.0004 17.6843L51.393 17.6047C51.393 17.6047 51.6775 18.2305 51.4471 18.3414C51.2166 18.4524 50.8696 18.0114 51.0004 17.6843Z" fill="white"/>
</g>
<path d="M53.99 16.9818H53.5917C53.5917 16.9818 53.4211 17.656 53.6856 17.7128C53.9502 17.7697 54.1863 17.2662 53.99 16.9818Z" fill="#263238"/>
<g opacity="0.6">
<path opacity="0.6" d="M53.9822 16.9818H53.5839C53.5839 16.9818 53.4132 17.656 53.6778 17.7128C53.9423 17.7697 54.1785 17.2662 53.9822 16.9818Z" fill="white"/>
</g>
<path d="M44.1722 22.1079C43.9412 22.1079 43.754 21.9207 43.754 21.6897C43.754 21.4588 43.9412 21.2715 44.1722 21.2715C44.4031 21.2715 44.5903 21.4588 44.5903 21.6897C44.5903 21.9207 44.4031 22.1079 44.1722 22.1079Z" fill="#263238"/>
<g opacity="0.7">
<path opacity="0.7" d="M44.1722 22.108C43.9412 22.108 43.754 21.9208 43.754 21.6898C43.754 21.4589 43.9412 21.2717 44.1722 21.2717C44.4031 21.2717 44.5903 21.4589 44.5903 21.6898C44.5903 21.9208 44.4031 22.108 44.1722 22.108Z" fill="white"/>
</g>
<path d="M49.7741 13.5682C51.2818 11.8614 51.1509 10.6809 51.1509 10.6809C49.1796 10.6155 48.5225 8.0638 48.5225 8.0638L46.8157 10.2457C47.1138 10.489 47.3943 10.7533 47.6549 11.0365C48.7614 12.2625 48.2238 12.7689 48.2238 12.7689C48.4457 13.7674 49.7741 13.5682 49.7741 13.5682Z" fill="#B97964"/>
<path opacity="0.2" d="M46.8079 10.2569C47.106 10.5003 47.3864 10.7645 47.647 11.0477C48.4293 9.95253 48.5146 8.07505 48.5146 8.07505L46.8079 10.2569Z" fill="black"/>
<path d="M44.9479 2.20643C42.6465 2.77536 42.2028 4.18063 42.6124 6.59575C43.1245 9.61393 44.2965 11.5625 47.0216 10.2284C50.7254 8.41348 48.774 1.27622 44.9479 2.20643Z" fill="#B97964"/>
<path d="M44.0758 6.10657C43.9745 6.49522 43.8274 6.87049 43.6377 7.22452C43.7285 7.30309 43.8393 7.35503 43.9578 7.37461C44.0762 7.39419 44.1978 7.38064 44.3091 7.33546L44.0758 6.10657Z" fill="#A24E3F"/>
<path d="M45.44 5.57466C45.4827 5.76525 45.6193 5.89611 45.7473 5.85913C45.8753 5.82215 45.9435 5.65431 45.9009 5.46372C45.8582 5.27313 45.7217 5.14227 45.5965 5.17925C45.4713 5.21623 45.386 5.38407 45.44 5.57466Z" fill="#263238"/>
<path d="M45.6509 5.17628L45.2014 5.10516C45.2014 5.10516 45.483 5.4067 45.6509 5.17628Z" fill="#263238"/>
<path d="M43.0625 6.05246C43.1023 6.24305 43.2389 6.37391 43.3669 6.33693C43.4949 6.29995 43.5632 6.13211 43.5205 5.94152C43.4778 5.75093 43.3413 5.62007 43.2161 5.65705C43.091 5.69403 43.0198 5.86187 43.0625 6.05246Z" fill="#263238"/>
<path d="M43.2783 5.65444L42.8289 5.58332C42.8289 5.58332 43.1133 5.8877 43.2783 5.65444Z" fill="#263238"/>
<path d="M46.1593 4.18079C46.1755 4.18092 46.1915 4.1771 46.2059 4.16966C46.2202 4.16223 46.2326 4.1514 46.2418 4.13812C46.258 4.11609 46.2649 4.08862 46.2612 4.06155C46.2575 4.03447 46.2434 4.00991 46.2219 3.99304C46.0474 3.8828 45.8495 3.81484 45.644 3.79459C45.4386 3.77434 45.2312 3.80236 45.0385 3.87641C45.0148 3.8873 44.9962 3.90683 44.9864 3.93101C44.9766 3.95519 44.9764 3.98219 44.9858 4.00651C44.9953 4.03083 45.0136 4.05063 45.0372 4.06187C45.0607 4.07312 45.0876 4.07495 45.1125 4.06701C45.2728 4.00718 45.4446 3.9843 45.615 4.00006C45.7854 4.01582 45.9501 4.06982 46.0967 4.15803C46.1149 4.17169 46.1367 4.17961 46.1593 4.18079V4.18079Z" fill="#263238"/>
<path d="M42.5034 4.80379C42.5175 4.80383 42.5314 4.80079 42.5442 4.79489C42.557 4.789 42.5683 4.78039 42.5774 4.76966C42.6714 4.65166 42.7909 4.55637 42.9268 4.49087C43.0627 4.42537 43.2116 4.39134 43.3625 4.39132C43.3894 4.39307 43.416 4.3847 43.4371 4.36786C43.4581 4.35102 43.4721 4.32692 43.4763 4.30029C43.4795 4.27353 43.4721 4.24659 43.4556 4.22529C43.4391 4.20399 43.4148 4.19005 43.3881 4.1865C43.2046 4.18181 43.0224 4.21939 42.8557 4.29634C42.6889 4.37328 42.5422 4.48754 42.4266 4.63027C42.408 4.64984 42.3976 4.67581 42.3976 4.70281C42.3976 4.72981 42.408 4.75578 42.4266 4.77535C42.4367 4.78526 42.4487 4.79293 42.462 4.79783C42.4752 4.80274 42.4894 4.80477 42.5034 4.80379V4.80379Z" fill="#263238"/>
<path d="M48.4169 5.47499C48.4169 5.47499 46.8779 3.84499 46.6845 2.34586C46.6845 2.34586 41.6665 1.59202 42.5683 6.28003C42.5683 6.28003 41.1203 2.27474 45.0602 1.21937C49.0001 0.163998 50.3911 5.95858 48.7583 8.18311C48.7668 8.18311 49.367 6.49622 48.4169 5.47499Z" fill="#263238"/>
<path d="M48.1637 6.0554C48.1209 5.78479 48.1864 5.5082 48.3462 5.28561C48.5059 5.06302 48.747 4.91238 49.0171 4.86634C49.751 4.76962 50.4394 6.15212 48.7582 6.93725C48.5193 7.05104 48.3201 6.83484 48.1637 6.0554Z" fill="#B97964"/>
<path d="M41.1817 7.30986C41.7791 6.74093 41.6881 5.77374 41.2187 4.79233C40.7493 3.81092 41.964 3.08554 41.964 3.08554C41.964 3.08554 42.0607 1.85096 43.0108 1.35598C43.1815 1.26495 43.9723 1.35598 43.9723 1.35598C45.0078 0.218118 46.6719 -0.717777 47.9776 0.764293C48.7485 1.64045 49.5137 0.744381 50.7341 2.56497C51.6159 3.88205 51.0015 5.03982 51.2575 5.46368C52.4409 7.40943 50.9019 7.93569 50.5321 8.61272C50.5321 8.61272 49.7185 8.22584 49.7868 7.99258C50.3557 6.12933 49.3743 4.92035 48.6233 5.21619C47.8724 5.51204 47.3376 5.43523 46.7942 4.74967C46.2509 4.0641 46.6292 3.32733 45.3719 3.15665C44.1146 2.98597 43.9865 2.26628 43.9865 2.26628C43.9664 2.58627 43.8597 2.89477 43.6778 3.15882C43.4959 3.42287 43.2457 3.63254 42.9539 3.76541C41.9042 4.31443 42.3167 4.97724 42.4646 5.91313C42.6126 6.84903 42.1489 7.2103 41.3268 7.88733C40.5047 8.56436 41.3723 9.05933 41.3723 9.05933C41.2163 8.98044 41.0825 8.86384 40.983 8.72011C40.8835 8.57638 40.8214 8.41008 40.8025 8.23629C40.7835 8.06251 40.8083 7.88675 40.8745 7.72496C40.9408 7.56318 41.0463 7.42049 41.1817 7.30986V7.30986Z" fill="#263238"/>
<path d="M44.4847 8.37939C44.6885 8.56358 44.8786 8.76228 45.0537 8.97393L45.1788 8.89996C45.7478 8.56145 45.89 8.22009 45.8872 7.94131C45.88 7.80652 45.842 7.67515 45.7762 7.55728C45.7401 7.48907 45.6952 7.42594 45.6425 7.36954C45.3875 7.73285 45.0577 8.0374 44.6753 8.26276L44.4847 8.37939Z" fill="#263238"/>
<path d="M44.674 8.26276L44.8447 8.43344C45.3738 8.11199 45.6981 7.81615 45.7749 7.55728C45.7388 7.48907 45.6939 7.42594 45.6412 7.36954C45.3862 7.73285 45.0564 8.0374 44.674 8.26276V8.26276Z" fill="white"/>
<path d="M45.1788 8.90004C45.7478 8.56153 45.89 8.22017 45.8872 7.94139C45.675 8.07433 45.4882 8.24384 45.3353 8.44205C45.2362 8.57443 45.1815 8.73471 45.1788 8.90004V8.90004Z" fill="#DE5753"/>
</svg>
