<svg width="225" height="168" viewBox="0 0 225 168" fill="none" xmlns="http://www.w3.org/2000/svg">
<path d="M112.429 167.549C160.587 167.549 199.626 165.27 199.626 162.458C199.626 159.646 160.587 157.367 112.429 157.367C64.272 157.367 25.2327 159.646 25.2327 162.458C25.2327 165.27 64.272 167.549 112.429 167.549Z" fill="#F5F5F5"/>
<path d="M33.9767 73.0756H101.093C99.1013 73.051 97.1914 72.2778 95.7433 70.9096C94.2952 69.5415 93.4148 67.6786 93.2772 65.6911L92.0899 45.6875H24.9778L26.1606 65.6911C26.2982 67.6786 27.1785 69.5415 28.6267 70.9096C30.0748 72.2778 31.9847 73.051 33.9767 73.0756Z" fill="#F7C06E"/>
<path opacity="0.6" d="M33.9767 73.0756H101.093C99.1013 73.051 97.1914 72.2778 95.7433 70.9096C94.2952 69.5415 93.4148 67.6786 93.2772 65.6911L92.0899 45.6875H24.9778L26.1606 65.6911C26.2982 67.6786 27.1785 69.5415 28.6267 70.9096C30.0748 72.2778 31.9847 73.051 33.9767 73.0756Z" fill="white"/>
<path d="M106.067 32.3802H46.3214C45.3689 32.369 44.4245 32.5556 43.5479 32.9283C42.6713 33.301 41.8817 33.8517 41.2289 34.5454C40.5762 35.2391 40.0746 36.0608 39.756 36.9585C39.4373 37.8561 39.3085 38.8101 39.3776 39.7601L40.9247 65.6957C40.9952 66.646 40.8674 67.6006 40.5492 68.4988C40.231 69.3971 39.7295 70.2193 39.0765 70.9134C38.4235 71.6074 37.6333 72.158 36.7561 72.5302C35.8789 72.9025 34.9338 73.0882 33.981 73.0756H101.093C102.046 73.0882 102.991 72.9025 103.868 72.5302C104.745 72.158 105.536 71.6074 106.189 70.9134C106.842 70.2193 107.343 69.3971 107.661 68.4988C107.979 67.6006 108.107 66.646 108.037 65.6957L108.203 68.5019L106.503 39.7781C106.43 38.8264 106.556 37.8698 106.873 36.9694C107.19 36.069 107.691 35.2445 108.344 34.5485C108.998 33.8525 109.789 33.3002 110.667 32.9269C111.546 32.5536 112.492 32.3674 113.447 32.3802H106.067Z" fill="#F7C06E"/>
<path d="M113.448 32.3801H46.3223C48.3142 32.4026 50.2247 33.1744 51.6731 34.5421C53.1216 35.9097 54.0018 37.7727 54.1384 39.7601L59.9174 137.21H127.029L121.264 39.778C121.13 37.7882 120.251 35.922 118.802 34.551C117.354 33.1801 115.442 32.405 113.448 32.3801Z" fill="#F7C06E"/>
<path opacity="0.8" d="M113.448 32.3801H46.3223C48.3142 32.4026 50.2247 33.1744 51.6731 34.5421C53.1216 35.9097 54.0018 37.7727 54.1384 39.7601L59.9174 137.21H127.029L121.264 39.778C121.13 37.7882 120.251 35.922 118.802 34.551C117.354 33.1801 115.442 32.405 113.448 32.3801Z" fill="white"/>
<path d="M76.7504 60.1191H64.3111L63.5601 47.6708H76.0039L76.7504 60.1191ZM65.6603 58.653H75.1809L74.6547 49.1324H65.1161L65.6603 58.653Z" fill="#F7A46B"/>
<path d="M78.4858 89.4002H66.033L65.2954 76.9474H77.7482L78.4858 89.4002ZM67.4091 87.9342H76.9297L76.3676 78.4135H66.847L67.4091 87.9342Z" fill="#F7A46B"/>
<path d="M80.2174 118.682H67.7646L67.009 106.229H79.4619L80.2174 118.682ZM69.1452 117.216H78.6658L78.0992 107.695H68.5786L69.1452 117.216Z" fill="#F7A46B"/>
<path d="M111.459 47.6665H82.8293V49.1326H111.459V47.6665Z" fill="#F7A46B"/>
<path d="M108.42 53.1616H83.1545V54.6277H108.42V53.1616Z" fill="#F7A46B"/>
<path d="M112.108 58.653H83.4785V60.1191H112.108V58.653Z" fill="#F7A46B"/>
<path d="M113.191 76.9474H84.5613V78.4135H113.191V76.9474Z" fill="#F7A46B"/>
<path d="M101.692 82.4431H84.8855V83.9092H101.692V82.4431Z" fill="#F7A46B"/>
<path d="M93.8888 87.9345H85.2136V89.4006H93.8888V87.9345Z" fill="#F7A46B"/>
<path d="M113.843 87.9345H99.5278V89.4006H113.843V87.9345Z" fill="#F7A46B"/>
<path d="M114.922 106.229H86.2922V107.695H114.922V106.229Z" fill="#F7A46B"/>
<path d="M115.251 111.725H86.6216V113.191H115.251V111.725Z" fill="#F7A46B"/>
<path d="M102.78 117.216H86.9456V118.682H102.78V117.216Z" fill="#F7A46B"/>
<path d="M71.3403 57.187C71.0291 57.1873 70.7297 57.0682 70.5038 56.8542L67.4591 53.967C67.3428 53.8568 67.2493 53.7248 67.1839 53.5785C67.1186 53.4323 67.0827 53.2745 67.0783 53.1144C67.0695 52.791 67.1895 52.4772 67.4119 52.2423C67.6344 52.0073 67.941 51.8703 68.2645 51.8615C68.5879 51.8526 68.9016 51.9726 69.1366 52.195L71.3043 54.2413L76.1838 49.056C76.4056 48.8204 76.712 48.6826 77.0354 48.6729C77.3588 48.6632 77.6729 48.7824 77.9085 49.0043C78.144 49.2261 78.2818 49.5325 78.2915 49.8559C78.3012 50.1793 78.182 50.4934 77.9602 50.729L72.2442 56.8047C72.1346 56.9224 72.0025 57.0169 71.8557 57.0825C71.709 57.1482 71.5505 57.1837 71.3897 57.187H71.3403Z" fill="#F7C06E"/>
<path d="M73.0763 86.4685C72.7649 86.4698 72.4652 86.3505 72.2398 86.1357L69.1817 83.2485C69.0612 83.1397 68.9637 83.0079 68.8948 82.8609C68.826 82.7139 68.7872 82.5547 68.7807 82.3925C68.7743 82.2303 68.8003 82.0684 68.8572 81.9164C68.9142 81.7644 69.0009 81.6253 69.1124 81.5073C69.2238 81.3893 69.3577 81.2947 69.5062 81.2291C69.6547 81.1636 69.8147 81.1283 69.977 81.1254C70.1393 81.1226 70.3006 81.1522 70.4513 81.2125C70.602 81.2728 70.7391 81.3626 70.8546 81.4766L73.0268 83.5228L77.9018 78.3375C78.1236 78.1019 78.43 77.9642 78.7534 77.9545C79.0769 77.9448 79.3909 78.0639 79.6265 78.2858C79.862 78.5076 79.9998 78.814 80.0095 79.1374C80.0192 79.4609 79.9 79.7749 79.6782 80.0105L73.9622 86.0862C73.8533 86.2036 73.722 86.2979 73.576 86.3635C73.43 86.4292 73.2723 86.4649 73.1122 86.4685H73.0763Z" fill="#F7C06E"/>
<path d="M139.304 46.8265L130.57 48.9735L156.636 155.014L165.37 152.867L139.304 46.8265Z" fill="#F7C06E"/>
<path opacity="0.2" d="M139.299 46.8257L136.64 47.4794L162.705 153.52L165.365 152.866L139.299 46.8257Z" fill="black"/>
<path d="M164.71 154.444L157.941 156.108C157.398 156.242 157.067 156.79 157.2 157.332L158.334 161.944C158.467 162.487 159.015 162.819 159.558 162.685L166.327 161.021C166.87 160.888 167.201 160.34 167.068 159.797L165.934 155.185C165.801 154.643 165.253 154.311 164.71 154.444Z" fill="#F7C06E"/>
<path opacity="0.7" d="M164.71 154.444L157.941 156.108C157.398 156.242 157.067 156.79 157.2 157.332L158.334 161.944C158.467 162.487 159.015 162.819 159.558 162.685L166.327 161.021C166.87 160.888 167.201 160.34 167.068 159.797L165.934 155.185C165.801 154.643 165.253 154.311 164.71 154.444Z" fill="white"/>
<path d="M164.762 151.341L156.46 153.382C155.958 153.505 155.651 154.012 155.775 154.514L156.518 157.536C156.641 158.038 157.148 158.344 157.649 158.221L165.951 156.18C166.453 156.057 166.76 155.55 166.637 155.049L165.894 152.027C165.77 151.525 165.264 151.218 164.762 151.341Z" fill="#E0E0E0"/>
<path d="M139.305 46.8163L130.572 48.966L131.597 41.658L132.254 36.9719L135.011 40.817L139.305 46.8163Z" fill="#E0E0E0"/>
<path d="M135.011 40.817L131.598 41.658L132.254 36.9719L135.011 40.817Z" fill="#F7C06E"/>
<path d="M161.863 39.8815C161.818 42.5798 161.297 47.6662 162.718 49.3257C159.451 50.3999 156.523 52.31 154.223 54.8663C152.275 51.6822 154.816 49.9688 154.816 49.9688C157.618 49.0693 157.447 46.9601 156.858 45.0218L161.863 39.8815Z" fill="#FFB573"/>
<path d="M153.396 52.1183C154.138 49.3615 152.046 48.9702 155.532 47.621C158.257 46.5417 163.406 46.3888 164.616 47.2568C165.286 47.7425 164.364 49.4424 164.364 49.4424L153.396 52.1183Z" fill="#263238"/>
<path d="M168.501 51.5249C168.703 51.8487 168.847 52.096 169.009 52.3793C169.171 52.6627 169.306 52.9235 169.459 53.1978C169.746 53.7465 170.016 54.2951 170.277 54.8528C170.799 55.9636 171.253 57.1014 171.671 58.2527C172.511 60.5847 173.114 62.9954 173.47 65.4483L173.587 66.3747C173.609 66.5051 173.627 66.739 173.641 66.9414C173.654 67.1437 173.641 67.3281 173.641 67.508C173.631 68.1714 173.581 68.8337 173.493 69.4913C173.335 70.7325 173.097 71.9063 172.836 73.0891C172.305 75.3959 171.633 77.6682 170.826 79.8934C170.718 80.195 170.505 80.4473 170.225 80.6031C169.945 80.7588 169.618 80.8073 169.305 80.7395C168.992 80.6718 168.715 80.4923 168.524 80.2348C168.334 79.9773 168.244 79.6593 168.271 79.3402C168.451 77.0556 168.662 74.753 168.829 72.5044C168.91 71.3801 168.973 70.2558 168.991 69.1945C168.991 68.6683 168.991 68.1466 168.941 67.7104L168.901 67.4091L168.842 67.1167L168.676 66.3342C168.196 64.2267 167.549 62.1605 166.742 60.155C166.337 59.1476 165.901 58.1493 165.442 57.1644C165.215 56.6697 164.976 56.184 164.727 55.7073L164.35 54.9967L163.994 54.3446L163.931 54.2277C163.604 53.6238 163.524 52.916 163.71 52.2545C163.896 51.5931 164.332 51.0302 164.927 50.6854C165.521 50.3405 166.226 50.2409 166.893 50.4078C167.559 50.5746 168.134 50.9947 168.496 51.5788L168.501 51.5249Z" fill="#FFB573"/>
<path d="M167.296 80.8015L167.669 80.1809L168.722 78.409L170.651 79.5018C171.051 81.3007 169.828 82.8927 169.828 82.8927L169.284 83.3424C169.099 83.5038 168.859 83.5885 168.613 83.5793C168.368 83.5701 168.135 83.4677 167.962 83.293L167.544 82.9062C167.28 82.6293 167.114 82.2745 167.069 81.895C167.025 81.5156 167.104 81.1319 167.296 80.8015Z" fill="#FFB573"/>
<path d="M141.662 79.8843L141.351 78.76C141.279 78.4956 141.105 78.2702 140.868 78.1323C140.631 77.9944 140.349 77.955 140.083 78.0225L138.734 78.3688L137.902 78.5756C137.464 78.6898 137.076 78.9433 136.795 79.2979C136.514 79.6525 136.357 80.0888 136.346 80.5409V81.211C136.344 81.5029 136.453 81.7846 136.651 81.9992C136.849 82.2137 137.121 82.3451 137.412 82.3668L138.244 82.4477C139.492 82.2489 140.636 81.634 141.491 80.7028C141.583 80.5904 141.647 80.4572 141.677 80.3146C141.707 80.1721 141.702 80.0244 141.662 79.8843Z" fill="#FFB573"/>
<path d="M166.254 49.5456C168.615 50.5934 170.778 53.0894 172.55 57.7081C171.983 59.6104 166.132 62.727 166.132 62.727C166.132 62.727 158.833 47.252 166.254 49.5456Z" fill="#F7C06E"/>
<path d="M146.721 55.4596C146.744 57.1731 143.906 61.1441 147.171 63.4467C147.454 66.914 147.836 70.3274 148.578 76.0164H166.041C164.382 69.7203 165.816 65.4929 168.479 54.4297C168.631 53.8352 168.652 53.2149 168.542 52.6112C168.432 52.0076 168.193 51.4348 167.841 50.9321C167.489 50.4294 167.033 50.0087 166.503 49.6988C165.974 49.3889 165.384 49.1971 164.773 49.1365C164.076 49.069 163.338 49.0106 162.587 48.9701C159.946 48.7809 157.295 48.7809 154.654 48.9701C153.795 49.0466 152.909 49.1545 152.059 49.2714C150.574 49.4879 149.216 50.2328 148.236 51.3695C147.255 52.5062 146.717 53.9584 146.721 55.4596Z" fill="#F7C06E"/>
<path d="M152.505 53.7911C152.545 55.0773 152.505 56.3095 152.505 57.5687C152.505 58.828 152.424 60.0737 152.343 61.3329C152.203 63.8858 151.903 66.4272 151.443 68.9422C151.389 69.2615 151.304 69.5943 151.227 69.9181C151.151 70.2419 151.083 70.5657 150.98 70.9075L150.836 71.4067L150.76 71.6585C150.731 71.7716 150.695 71.8828 150.652 71.9913C150.464 72.4757 150.206 72.9302 149.887 73.3405C149.449 73.9097 148.969 74.4463 148.453 74.946C147.98 75.4182 147.499 75.8455 147.013 76.2952C145.101 77.9428 143.069 79.446 140.933 80.7924C140.665 80.9608 140.345 81.0275 140.032 80.9802C139.719 80.9328 139.434 80.7747 139.227 80.5346C139.021 80.2944 138.907 79.9882 138.908 79.6716C138.908 79.3549 139.022 79.0489 139.229 78.8091C140.834 76.9788 142.489 75.1619 144.032 73.363C144.41 72.9133 144.778 72.4635 145.129 72.0138C145.458 71.6144 145.759 71.1921 146.029 70.7501C146.137 70.5837 146.204 70.3813 146.146 70.4938C146.087 70.6062 146.146 70.4353 146.146 70.3858L146.186 70.188L146.271 69.7967C146.334 69.5448 146.37 69.2615 146.415 68.9872C146.46 68.7129 146.514 68.4385 146.541 68.1507C146.847 65.8796 146.991 63.4871 147.076 61.0946C147.162 58.702 147.216 56.2645 147.229 53.899C147.226 53.5523 147.29 53.2083 147.419 52.8865C147.548 52.5648 147.739 52.2716 147.982 52.0238C148.471 51.5232 149.14 51.2376 149.84 51.2299C150.54 51.2221 151.215 51.4928 151.715 51.9824C152.216 52.472 152.501 53.1404 152.509 53.8405L152.505 53.7911Z" fill="#FFB573"/>
<path d="M150.579 49.6715C148.425 50.7418 146.289 52.8196 145.403 57.5776C145.965 59.462 153.664 63.0912 153.664 63.0912C153.664 63.0912 157.95 46.9192 150.579 49.6715Z" fill="#F7C06E"/>
<path d="M151.053 38.1634C151.111 38.5007 150.976 38.8155 150.751 38.856C150.526 38.8964 150.302 38.6626 150.243 38.3208C150.185 37.979 150.324 37.6687 150.544 37.6282C150.765 37.5877 150.999 37.8216 151.053 38.1634Z" fill="#263238"/>
<path d="M150.657 37.6241L149.798 37.5521C149.798 37.5521 150.315 38.1053 150.657 37.6241Z" fill="#263238"/>
<path d="M150.971 38.5413C150.795 39.3798 150.506 40.1906 150.112 40.9519C150.309 41.0439 150.524 41.0916 150.742 41.0916C150.959 41.0916 151.174 41.0439 151.372 40.9519L150.971 38.5413Z" fill="#ED893E"/>
<path d="M150.162 35.8427C150.111 35.8423 150.061 35.8231 150.023 35.7887C150.004 35.7699 149.989 35.7475 149.978 35.7228C149.968 35.6981 149.963 35.6716 149.963 35.6448C149.963 35.618 149.968 35.5915 149.978 35.5668C149.989 35.5421 150.004 35.5197 150.023 35.5009C150.242 35.2589 150.516 35.0725 150.822 34.9568C151.128 34.8411 151.456 34.7995 151.781 34.8353C151.807 34.8401 151.831 34.85 151.853 34.8645C151.875 34.8789 151.894 34.8975 151.909 34.9193C151.923 34.941 151.934 34.9655 151.939 34.9912C151.944 35.017 151.944 35.0434 151.939 35.0691C151.928 35.123 151.896 35.1705 151.851 35.2016C151.806 35.2326 151.75 35.2448 151.696 35.2355C151.438 35.2122 151.179 35.2492 150.939 35.3436C150.698 35.4381 150.483 35.5874 150.311 35.7797C150.271 35.8195 150.218 35.8421 150.162 35.8427Z" fill="#263238"/>
<path d="M162.183 34.813C162.633 39.0404 162.903 40.8213 161.18 43.3577C158.585 47.2029 153.369 46.9555 151.691 42.9845C150.18 39.3867 149.708 33.0906 153.468 30.6351C154.276 30.0835 155.216 29.7542 156.192 29.6801C157.168 29.606 158.146 29.7897 159.029 30.2128C159.912 30.636 160.668 31.2837 161.221 32.0911C161.775 32.8984 162.107 33.8371 162.183 34.813Z" fill="#FFB573"/>
<path d="M154.493 37.9025C151.794 37.4258 151.142 34.3272 152.141 32.9781C147.594 33.1804 144.531 28.0941 149.442 25.1934C154.353 22.2927 158.689 26.7854 158.338 28.4808C164.387 27.9322 167.93 32.9106 164.634 36.6118C168.983 37.3179 175.495 42.2199 170.714 47.3692C177.177 48.3181 177.878 68.5556 160.285 64.9579C141.739 61.1622 157.852 45.0216 157.852 45.0216C157.852 45.0216 153.153 43.6995 154.493 37.9025Z" fill="#263238"/>
<path d="M171.721 48.6867L171.339 48.4528C172.972 45.7994 173.242 43.3844 172.14 41.2572C170.723 38.5589 167.287 36.9669 164.62 36.814L164.647 36.3643C167.436 36.5217 171.047 38.1632 172.54 41.0459C173.7 43.2945 173.417 45.9299 171.721 48.6867Z" fill="#263238"/>
<path d="M166.608 37.0661C168.16 36.8098 167.427 34.2779 166.284 33.6078C165.142 32.9377 159.669 34.026 160.272 35.7709C160.874 37.5159 164.526 37.4124 166.608 37.0661Z" fill="white"/>
<path d="M166.887 36.4272C168.434 36.1303 167.814 34.0796 166.654 33.4365C165.493 32.7934 160.713 33.2701 161.365 34.9925C162.017 36.715 164.819 36.8364 166.887 36.4272Z" fill="#F7C06E"/>
<path d="M150.679 33.4905C149.643 33.4766 148.641 33.1173 147.832 32.4696C146.542 31.4668 145.831 29.9647 146.033 28.6425C146.155 27.8015 146.681 26.6457 148.516 25.9127L148.682 26.3309C147.387 26.8481 146.627 27.6801 146.479 28.7055C146.317 29.8747 146.96 31.2104 148.125 32.1144C148.665 32.5649 149.316 32.8633 150.01 32.9787C150.704 33.0941 151.416 33.0224 152.073 32.771L152.244 33.1892C151.747 33.3924 151.216 33.4948 150.679 33.4905Z" fill="#263238"/>
<path d="M155.559 38.3971C155.357 39.5034 155.294 39.9756 154.718 40.4928C154.555 40.6758 154.34 40.8051 154.101 40.8639C153.863 40.9226 153.612 40.908 153.383 40.8219C153.153 40.7359 152.954 40.5825 152.813 40.3817C152.672 40.181 152.594 39.9423 152.591 39.6968C152.501 38.6804 152.847 37.0435 153.877 36.7017C154.907 36.3599 155.762 37.2953 155.559 38.3971Z" fill="#FFB573"/>
<path d="M153.076 41.9182L152.712 41.2661C152.696 41.2394 152.688 41.2092 152.688 41.1784C152.688 41.1476 152.696 41.1173 152.712 41.0907L153.076 40.4431C153.092 40.415 153.114 40.3915 153.142 40.3752C153.17 40.3589 153.201 40.3503 153.233 40.3503C153.266 40.3503 153.297 40.3589 153.325 40.3752C153.352 40.3915 153.375 40.415 153.391 40.4431L153.755 41.0907C153.77 41.1173 153.779 41.1476 153.779 41.1784C153.779 41.2092 153.77 41.2394 153.755 41.2661L153.391 41.9182C153.375 41.9463 153.352 41.9697 153.325 41.986C153.297 42.0024 153.266 42.011 153.233 42.011C153.201 42.011 153.17 42.0024 153.142 41.986C153.114 41.9697 153.092 41.9463 153.076 41.9182Z" fill="white"/>
<path d="M148.588 76.0032C148.588 76.0032 147.972 98.5523 147.149 113.384C146.276 126.997 145.156 158.833 145.156 158.833L148.597 159.013C148.597 159.013 156.206 132.223 155.887 116.037C164.818 93.3984 161.607 76.6823 161.607 76.6823L148.588 76.0032Z" fill="#FFB573"/>
<path d="M145.413 157.403C145.337 157.348 145.245 157.318 145.15 157.318C145.056 157.318 144.964 157.348 144.887 157.403C143.236 158.629 141.236 159.294 139.18 159.301C136.896 159.4 137.458 160.65 140.727 161.068C144.572 161.545 145.395 162.337 146.637 162.647C147.878 162.957 148.863 162.013 148.84 159.404C148.838 159.315 148.81 159.229 148.758 159.156C148.707 159.083 148.635 159.027 148.552 158.995C147.447 158.59 146.393 158.055 145.413 157.403Z" fill="#263238"/>
<path d="M153.152 76.0032C153.152 76.0032 159.448 102.69 163.095 115.129C166.932 128.171 169.972 157.934 169.949 158.919H172.926C172.926 158.919 176.772 134.795 172.027 115.116C171.577 83.1852 166.073 76.0257 166.073 76.0257L153.152 76.0032Z" fill="#FFB573"/>
<path d="M169.873 157.853C169.795 157.821 169.709 157.815 169.628 157.836C169.547 157.857 169.475 157.904 169.423 157.969C168.654 158.968 168.096 160.074 165.825 161.046C163.945 161.846 164.984 162.943 167.925 162.543C171.384 162.066 171.433 162.629 172.598 162.629C173.763 162.629 174.311 161.468 173.461 158.945C173.434 158.862 173.385 158.787 173.318 158.73C173.251 158.673 173.17 158.635 173.084 158.622C171.986 158.496 170.908 158.238 169.873 157.853Z" fill="#263238"/>
<path d="M148.588 76.0028C148.588 76.0028 145.619 95.7636 146.038 122.774C155.427 122.721 164.758 121.281 173.727 118.502C173.727 118.502 173.862 83.5042 166.05 76.0163C161.54 74.8021 148.691 75.6071 148.588 76.0028Z" fill="#263238"/>
<path opacity="0.2" d="M148.934 118.938C148.905 118.938 148.877 118.927 148.856 118.907C148.835 118.887 148.822 118.86 148.821 118.83C147.98 101.584 150.022 77.2356 150.04 77.0063C150.04 76.9913 150.044 76.9765 150.051 76.963C150.057 76.9495 150.066 76.9375 150.078 76.9277C150.089 76.918 150.103 76.9108 150.117 76.9065C150.131 76.9022 150.147 76.9009 150.161 76.9028C150.176 76.904 150.191 76.908 150.204 76.9147C150.217 76.9215 150.229 76.9307 150.238 76.942C150.248 76.9533 150.255 76.9664 150.26 76.9805C150.264 76.9946 150.266 77.0095 150.265 77.0243C150.242 77.2716 148.205 101.602 149.046 118.848C149.047 118.863 149.045 118.878 149.041 118.893C149.036 118.907 149.028 118.92 149.018 118.931C149.008 118.942 148.995 118.95 148.982 118.956C148.968 118.962 148.953 118.965 148.938 118.965L148.934 118.938Z" fill="white"/>
<path opacity="0.2" d="M160.685 101.691L163.244 88.1367L164.274 91.3792L160.685 101.691Z" fill="black"/>
</svg>
