<svg width="21" height="72" viewBox="0 0 21 72" fill="none" xmlns="http://www.w3.org/2000/svg">
<path d="M8.66834 5.82456C7.89346 3.78296 7.63594 0.896881 11.1507 1.18456C14.1087 -0.548479 17.3266 1.99192 16.3893 4.57872C15.974 5.72016 15.5332 6.3744 16.6352 7.60632C17.7372 8.83824 15.7258 9.08416 16.3893 10.1421C17.4472 11.8357 15.8441 13.7845 12.7423 12.8217C10.7563 12.2046 7.99554 13.3228 7.75194 11.316C7.50834 9.3092 9.2321 7.314 8.66834 5.82456Z" fill="#263238"/>
<path d="M15.7275 71.8053C17.4235 71.8053 17.3005 71.7798 18.254 71.7473C19.0683 71.7172 19.2632 71.8192 19.9198 71.8053C20.4673 71.7937 20.4464 71.2694 20.2771 70.6662C20.1935 70.3623 20.0636 69.9934 19.9453 69.5062H17.3771C17.173 69.8681 16.8842 70.1751 16.5355 70.4009C16.1868 70.6268 15.7886 70.7648 15.3749 70.8031C14.4562 70.9214 15.0571 71.8053 15.7275 71.8053Z" fill="#F7C06E"/>
<path d="M1.7418 71.8053C3.40756 71.8053 3.969 71.6963 4.90628 71.6638C5.71132 71.6337 5.83428 71.8053 6.6486 71.8053C7.18916 71.8053 7.29124 71.1975 7.1126 70.7428C6.92067 70.3448 6.76536 69.9301 6.6486 69.5039H4.3518C3.90172 70.2324 2.74636 70.7706 1.47964 70.8611C0.572521 70.9284 1.07364 71.8053 1.7418 71.8053Z" fill="#F7C06E"/>
<path d="M5.81505 26.3774C5.81505 26.3774 4.92185 38.3695 5.27681 45.9837C4.89633 53.1316 4.34881 69.5039 4.34881 69.5039C4.38593 69.8681 6.31153 69.7219 6.64561 69.5039C6.64561 69.5039 10.7961 57.5791 9.74281 45.9837C14.2993 33.8895 13.7912 26.3774 13.7912 26.3774H5.81505Z" fill="#263238"/>
<path d="M8.20988 26.3774C8.20988 26.3774 12.1075 39.9123 13.6874 46.5614C15.3462 53.5399 17.6314 64.8685 17.3669 69.5062C17.7636 69.7382 19.1603 69.7498 19.9421 69.5062C19.9421 69.5062 22.5637 53.5887 18.5501 46.8699C19.4572 30.3353 14.9704 26.3797 14.9704 26.3797L8.20988 26.3774Z" fill="#263238"/>
<path d="M17.1727 68.5388C17.1663 68.8576 17.1368 69.1755 17.0846 69.49C17.0796 69.5161 17.0799 69.543 17.0856 69.5689C17.0912 69.5949 17.1021 69.6195 17.1175 69.6411C17.1329 69.6628 17.1525 69.6811 17.1751 69.695C17.1978 69.7089 17.223 69.7181 17.2493 69.722C18.1935 69.8728 19.5577 69.6547 19.9892 69.5759C20.0294 69.5687 20.0664 69.5492 20.0951 69.5201C20.1238 69.4911 20.1427 69.4538 20.1493 69.4135L20.2908 68.5226C20.2955 68.4938 20.2939 68.4643 20.2861 68.4362C20.2782 68.4081 20.2642 68.3821 20.2452 68.36C20.2262 68.3379 20.2025 68.3202 20.1759 68.3082C20.1493 68.2962 20.1204 68.2902 20.0913 68.2906L17.3676 68.3416C17.3159 68.3428 17.2667 68.3641 17.2303 68.4008C17.1939 68.4376 17.1733 68.4871 17.1727 68.5388Z" fill="#263238"/>
<path opacity="0.1" d="M17.1727 68.5388C17.1663 68.8576 17.1368 69.1755 17.0846 69.49C17.0796 69.5161 17.0799 69.543 17.0856 69.5689C17.0912 69.5949 17.1021 69.6195 17.1175 69.6411C17.1329 69.6628 17.1525 69.6811 17.1751 69.695C17.1978 69.7089 17.223 69.7181 17.2493 69.722C18.1935 69.8728 19.5577 69.6547 19.9892 69.5759C20.0294 69.5687 20.0664 69.5492 20.0951 69.5201C20.1238 69.4911 20.1427 69.4538 20.1493 69.4135L20.2908 68.5226C20.2955 68.4938 20.2939 68.4643 20.2861 68.4362C20.2782 68.4081 20.2642 68.3821 20.2452 68.36C20.2262 68.3379 20.2025 68.3202 20.1759 68.3082C20.1493 68.2962 20.1204 68.2902 20.0913 68.2906L17.3676 68.3416C17.3159 68.3428 17.2667 68.3641 17.2303 68.4008C17.1939 68.4376 17.1733 68.4871 17.1727 68.5388Z" fill="white"/>
<path d="M4.13796 68.5039C4.1194 68.7521 4.0846 69.1999 4.04516 69.5224C4.04193 69.548 4.04382 69.574 4.05073 69.5989C4.05763 69.6238 4.06941 69.647 4.08538 69.6673C4.10136 69.6876 4.1212 69.7045 4.14377 69.7171C4.16634 69.7296 4.19118 69.7376 4.21684 69.7405C5.06109 69.8108 5.9101 69.8015 6.7526 69.7126C6.79398 69.7096 6.83327 69.6933 6.86463 69.6661C6.89598 69.6389 6.91772 69.6023 6.9266 69.5618L7.14004 68.6709C7.14653 68.6425 7.14668 68.6129 7.14048 68.5844C7.13429 68.5558 7.12191 68.529 7.1042 68.5057C7.0865 68.4825 7.06392 68.4634 7.03804 68.4499C7.01216 68.4364 6.98362 68.4286 6.95444 68.4273L4.34212 68.3229C4.29118 68.3204 4.24127 68.3379 4.2031 68.3717C4.16493 68.4056 4.14154 68.453 4.13796 68.5039Z" fill="#263238"/>
<path opacity="0.1" d="M4.13796 68.5039C4.1194 68.7521 4.0846 69.1999 4.04516 69.5224C4.04193 69.548 4.04382 69.574 4.05073 69.5989C4.05763 69.6238 4.06941 69.647 4.08538 69.6673C4.10136 69.6876 4.1212 69.7045 4.14377 69.7171C4.16634 69.7296 4.19118 69.7376 4.21684 69.7405C5.06109 69.8108 5.9101 69.8015 6.7526 69.7126C6.79398 69.7096 6.83327 69.6933 6.86463 69.6661C6.89598 69.6389 6.91772 69.6023 6.9266 69.5618L7.14004 68.6709C7.14653 68.6425 7.14668 68.6129 7.14048 68.5844C7.13429 68.5558 7.12191 68.529 7.1042 68.5057C7.0865 68.4825 7.06392 68.4634 7.03804 68.4499C7.01216 68.4364 6.98362 68.4286 6.95444 68.4273L4.34212 68.3229C4.29118 68.3204 4.24127 68.3379 4.2031 68.3717C4.16493 68.4056 4.14154 68.453 4.13796 68.5039Z" fill="white"/>
<path d="M6.12251 14.1602L4.65859 16.4802L3.19235 18.8002L2.45459 19.9602L2.08339 20.5402C1.9085 20.7997 1.76226 21.0774 1.64723 21.3685C1.49114 21.755 1.41688 22.1698 1.42915 22.5865C1.43793 22.8139 1.47614 23.0393 1.54283 23.2569C1.60941 23.4651 1.70384 23.6634 1.82355 23.8462C2.03043 24.1614 2.30457 24.4268 2.62627 24.6234C2.76592 24.7085 2.91262 24.7815 3.06475 24.8415C3.13899 24.8717 3.21323 24.8972 3.29675 24.9204L3.55427 24.99C3.7459 25.0646 3.95884 25.0628 4.14919 24.985C4.33953 24.9072 4.49276 24.7593 4.57726 24.5718C4.66177 24.3844 4.67111 24.1716 4.60337 23.9775C4.53562 23.7833 4.39594 23.6226 4.21315 23.5284C4.21315 23.5121 4.18067 23.4681 4.16211 23.4333C4.14355 23.3985 4.11339 23.3637 4.09251 23.3265C4.05012 23.2607 4.01289 23.1917 3.98115 23.1201C3.92934 23.0227 3.90983 22.9114 3.92547 22.8022C3.93409 22.7789 3.94871 22.7582 3.96785 22.7424C3.98699 22.7265 4.00999 22.7159 4.03451 22.7117C4.07859 22.7117 4.11339 22.6607 4.18299 22.5957C4.29837 22.4906 4.40184 22.3732 4.49155 22.2454L4.92771 21.6863C5.21539 21.3128 5.49379 20.93 5.77451 20.5495C6.05523 20.169 6.32667 19.7862 6.59579 19.3895C6.86491 18.9928 7.13403 18.6146 7.39387 18.2295C7.91819 17.4407 8.41931 16.6565 8.90187 15.819C9.08259 15.4544 9.11984 15.0353 9.00625 14.6445C8.89266 14.2537 8.63651 13.9199 8.28849 13.709C7.94048 13.4981 7.52597 13.4255 7.12701 13.5056C6.72804 13.5857 6.3737 13.8127 6.13411 14.1417L6.12251 14.1602Z" fill="#7F3E3B"/>
<path d="M7.97776 12.4064C6.2888 12.7242 5.39328 14.158 3.72984 17.1508C4.11496 18.269 6.74584 19.3362 6.74584 19.3362C6.74584 19.3362 10.7641 14.5872 7.97776 12.4064Z" fill="#F7C06E"/>
<path d="M5.30871 15.6079C5.25768 17.0039 5.27781 18.4016 5.36902 19.7955C5.43862 21.6144 5.5639 23.4031 5.83302 26.3843H14.9715C14.7859 23.8068 15.0875 20.8673 16.7301 15.0673C16.8288 14.7634 16.858 14.4412 16.8156 14.1245C16.7731 13.8078 16.6601 13.5046 16.4849 13.2374C16.3096 12.9702 16.0766 12.7458 15.803 12.5806C15.5295 12.4155 15.2223 12.3139 14.9042 12.2833C14.5423 12.2462 14.1572 12.2161 13.7628 12.1952C12.3795 12.0965 10.9909 12.0965 9.60767 12.1952C9.15527 12.2369 8.67967 12.2926 8.23887 12.3553C7.44918 12.4738 6.72521 12.863 6.19074 13.4563C5.65627 14.0496 5.34449 14.8102 5.30871 15.6079Z" fill="#F7C06E"/>
<path d="M18.5722 46.464C16.8647 46.399 15.1687 46.2761 13.5842 46.1276C13.2362 44.6985 12.8 42.9909 12.3198 41.186L18.6418 40.722C18.6951 42.4365 18.6789 44.3458 18.5722 46.464Z" fill="black"/>
<path d="M11.3442 41.2602C10.922 42.6615 10.4201 44.1479 9.83856 45.7193C7.53248 45.4246 5.82264 45.1393 5.23104 45.0372C5.19856 43.9862 5.18464 42.8657 5.18696 41.7219L11.3442 41.2602Z" fill="black"/>
<path d="M5.27461 26.5769C5.16557 24.1479 5.27461 19.6564 5.27461 19.6564C5.27461 19.6564 5.52517 13.926 7.36261 12.5247C7.37901 12.5111 7.39793 12.5008 7.41829 12.4945C7.72221 12.4017 7.97509 12.3066 8.07485 12.3832C8.17461 12.4597 6.55061 13.7264 6.40677 17.1925C9.39261 17.4593 13.4573 17.0835 13.4573 17.0835C13.4573 17.0835 13.4294 13.796 14.1115 12.2115C14.1244 12.1823 14.1468 12.1582 14.1749 12.1431C14.203 12.128 14.2354 12.1226 14.2669 12.128L14.659 12.186C14.6842 12.1894 14.708 12.1994 14.7282 12.2148C14.7483 12.2303 14.7641 12.2507 14.7739 12.2742C14.7837 12.2976 14.7873 12.3232 14.7842 12.3484C14.7812 12.3736 14.7716 12.3976 14.7565 12.418C14.021 13.6754 14.4757 18.3572 15.645 20.2619C15.5476 21.3778 15.3782 26.0619 15.3782 26.0619C15.3782 26.0619 19.6261 31.0383 19.2874 43.3737C14.0419 46.1415 4.76653 44.1022 4.76653 44.1022C4.76653 44.1022 5.38365 29.0036 5.27461 26.5769Z" fill="#263238"/>
<path d="M13.4721 7.51807C13.1102 8.85439 12.6671 11.3066 13.5371 12.1975C13.5371 12.1975 12.2704 12.0073 9.57919 13.6707C8.80199 12.5548 9.37967 12.1975 9.37967 12.1975C10.8969 11.8425 10.941 10.7359 10.7717 9.69655L13.4721 7.51807Z" fill="#7F3E3B"/>
<path d="M10.1469 13.3368C11.0332 13.462 11.3069 14.8007 11.3069 14.8007C11.3069 14.8007 13.4321 13.288 14.1118 12.2348C13.8446 12.0832 13.5852 11.9183 13.3346 11.7406C13.3346 11.7406 10.6643 12.824 10.1469 13.3368Z" fill="white"/>
<path d="M9.30419 13.1929C9.30419 13.1929 8.53859 13.3993 8.26251 14.4758C8.06067 12.527 8.97011 12.1953 8.97011 12.1953C9.21338 12.0589 9.49854 12.0176 9.77051 12.0793C9.5756 12.1819 9.42248 12.3491 9.3374 12.5523C9.25232 12.7555 9.24058 12.982 9.30419 13.1929Z" fill="white"/>
<path opacity="0.2" d="M12.3647 8.41586L10.7593 9.70578C10.8057 9.94904 10.8305 10.1959 10.8335 10.4435C11.4089 10.36 12.2371 9.73362 12.3438 9.13738C12.3948 8.90018 12.4019 8.65562 12.3647 8.41586Z" fill="black"/>
<path d="M14.615 4.83386C14.209 6.99378 14.0814 7.9125 12.8495 8.94954C10.9935 10.5063 8.44152 9.68266 8.20952 7.48098C7.97752 5.4997 8.68976 2.30274 10.9146 1.58818C11.3873 1.41939 11.8966 1.38 12.3896 1.47407C12.8827 1.56815 13.3416 1.79227 13.7189 2.12325C14.0963 2.45423 14.3783 2.88004 14.5359 3.3566C14.6934 3.83317 14.7208 4.34318 14.615 4.83386Z" fill="#7F3E3B"/>
<path d="M9.99863 1.70197C12.365 0.541966 17.0259 1.98733 16.0886 4.57413L14.1955 5.88957C13.0146 5.84085 9.82231 4.45349 9.99863 1.70197Z" fill="#263238"/>
<path d="M11.193 5.19349C11.1675 5.37677 11.0515 5.51829 10.9332 5.50901C10.8148 5.49973 10.7429 5.34429 10.7708 5.16333C10.7986 4.98237 10.9123 4.83853 11.0283 4.84781C11.1443 4.85709 11.2208 5.01021 11.193 5.19349Z" fill="#263238"/>
<path d="M8.9907 5.06351C8.96286 5.24679 8.84686 5.38831 8.73086 5.37903C8.61486 5.36975 8.54062 5.21431 8.56614 5.03335C8.59166 4.85239 8.70766 4.70855 8.82598 4.71783C8.9443 4.72711 9.02318 4.88023 8.9907 5.06351Z" fill="#263238"/>
<path d="M8.87256 4.7318L8.46192 4.57404C8.46192 4.57404 8.6336 4.93596 8.87256 4.7318Z" fill="#263238"/>
<path d="M9.56006 5.39999C9.34079 5.80573 9.07022 6.18157 8.75502 6.51824C8.83891 6.59196 8.93854 6.64554 9.04629 6.67489C9.15405 6.70424 9.26709 6.70859 9.37678 6.68759L9.56006 5.39999Z" fill="#630F0F"/>
<path d="M10.3061 7.44849C10.2049 7.4567 10.1033 7.4567 10.0022 7.44849C9.99511 7.44828 9.98817 7.44654 9.98185 7.44339C9.97553 7.44023 9.96997 7.43574 9.96555 7.43023C9.96114 7.42471 9.95798 7.41829 9.95629 7.41143C9.9546 7.40457 9.95442 7.39743 9.95577 7.39049C9.958 7.37615 9.96533 7.36309 9.97641 7.35372C9.98749 7.34434 10.0016 7.33928 10.0161 7.33945C10.2452 7.35879 10.4756 7.32558 10.6899 7.24236C10.9042 7.15913 11.0967 7.02809 11.2527 6.85921C11.263 6.84942 11.2767 6.84396 11.2909 6.84396C11.3052 6.84396 11.3189 6.84942 11.3292 6.85921C11.3388 6.86916 11.3442 6.88247 11.3442 6.89633C11.3442 6.91018 11.3388 6.9235 11.3292 6.93345C11.062 7.22369 10.6984 7.40677 10.3061 7.44849Z" fill="#263238"/>
<path d="M14.9348 6.20735C14.8854 6.41178 14.7939 6.60363 14.666 6.77062C14.5382 6.93762 14.3769 7.07607 14.1924 7.17711C13.7284 7.40912 13.399 6.88479 13.45 6.28855C13.4941 5.75031 13.7911 4.98239 14.2968 5.00791C14.8026 5.03343 15.081 5.65983 14.9348 6.20735Z" fill="#7F3E3B"/>
<path d="M11.828 3.77598C11.8141 3.77699 11.8002 3.7748 11.7874 3.76957C11.7745 3.76434 11.763 3.75621 11.7538 3.74582C11.6688 3.64717 11.5609 3.57099 11.4395 3.52404C11.3181 3.4771 11.187 3.46084 11.0578 3.4767C11.0444 3.47972 11.0306 3.47991 11.0173 3.47725C11.0039 3.4746 10.9912 3.46916 10.98 3.46128C10.9689 3.45341 10.9595 3.44327 10.9525 3.43154C10.9455 3.41981 10.9411 3.40674 10.9394 3.39318C10.9353 3.36437 10.9424 3.33508 10.9593 3.31134C10.9761 3.28761 11.0014 3.27123 11.0299 3.26558C11.1938 3.24101 11.3612 3.25833 11.5166 3.31594C11.672 3.37354 11.8102 3.46955 11.9185 3.59502C11.9275 3.60582 11.9343 3.61829 11.9385 3.63173C11.9427 3.64517 11.9442 3.6593 11.9429 3.67332C11.9416 3.68733 11.9376 3.70096 11.931 3.7134C11.9244 3.72584 11.9154 3.73686 11.9046 3.74582C11.8946 3.75589 11.8826 3.76376 11.8695 3.76896C11.8563 3.77415 11.8422 3.77654 11.828 3.77598Z" fill="#263238"/>
<path d="M8.36727 3.98477C8.3543 3.98745 8.34089 3.98718 8.32804 3.98396C8.31518 3.98075 8.30322 3.97468 8.29304 3.96621C8.28225 3.95746 8.27332 3.94664 8.26677 3.9344C8.26022 3.92215 8.25618 3.90872 8.25488 3.89489C8.25359 3.88107 8.25506 3.86712 8.25922 3.85387C8.26339 3.84062 8.27015 3.82833 8.27912 3.81773C8.38131 3.6781 8.51409 3.5637 8.6673 3.48328C8.8205 3.40285 8.99007 3.35854 9.16304 3.35373C9.1768 3.35455 9.19025 3.35822 9.20252 3.3645C9.2148 3.37078 9.22564 3.37954 9.23436 3.39023C9.24308 3.40091 9.24949 3.41328 9.25319 3.42657C9.25688 3.43985 9.25778 3.45376 9.25583 3.46741C9.25189 3.4959 9.2377 3.52197 9.21592 3.54076C9.19415 3.55955 9.16627 3.56976 9.13752 3.56949C9.00046 3.57578 8.86661 3.61309 8.74606 3.67859C8.6255 3.74409 8.52138 3.83608 8.44152 3.94765C8.43234 3.95858 8.42101 3.96752 8.40824 3.97391C8.39547 3.98029 8.38153 3.98399 8.36727 3.98477Z" fill="#263238"/>
<path d="M11.0815 4.86177L10.6709 4.70401C10.6709 4.70401 10.8403 5.06129 11.0815 4.86177Z" fill="#263238"/>
<path d="M8.59424 21.6725C8.6312 21.672 8.6667 21.658 8.69399 21.633L12.5359 18.0347C12.5633 18.0073 12.5786 17.9702 12.5786 17.9315C12.5786 17.8928 12.5633 17.8556 12.5359 17.8282C12.5082 17.8014 12.4712 17.7865 12.4327 17.7865C12.3941 17.7865 12.3571 17.8014 12.3294 17.8282L8.48751 21.4266C8.46611 21.4466 8.45123 21.4726 8.44479 21.5012C8.43835 21.5298 8.44066 21.5596 8.45142 21.5869C8.46218 21.6142 8.48088 21.6376 8.50511 21.6541C8.52933 21.6706 8.55796 21.6794 8.58728 21.6794L8.59424 21.6725Z" fill="#F7C06E"/>
<path d="M10.7953 19.2202L11.4751 19.1553C11.6009 19.1425 11.728 19.1603 11.8456 19.2072C11.9631 19.254 12.0676 19.3285 12.1502 19.4244L12.939 20.3292C13.0941 20.5076 13.2043 20.7205 13.2604 20.9501C13.3165 21.1798 13.3169 21.4195 13.2615 21.6493L13.1919 21.9393C12.0713 22.1249 10.7234 21.5008 10.7234 21.5008L10.3197 21.3662C10.2359 21.3409 10.158 21.2991 10.0904 21.2433C10.0229 21.1876 9.96715 21.119 9.92635 21.0415C9.88556 20.964 9.86056 20.8792 9.85282 20.7919C9.84507 20.7047 9.85473 20.6168 9.88122 20.5334L10.1387 19.7306C10.1869 19.591 10.2746 19.4685 10.3911 19.3778C10.5077 19.2872 10.6481 19.2324 10.7953 19.2202Z" fill="#7F3E3B"/>
<path d="M14.6644 15.9792L14.785 16.2993L14.9172 16.6543C15.0008 16.8863 15.0866 17.1345 15.1678 17.3781C15.3302 17.8653 15.4694 18.3595 15.6016 18.8536C15.7339 19.3478 15.8336 19.8443 15.9241 20.3384C16.0146 20.8326 16.0656 21.3268 16.1074 21.8163L16.1399 21.51C16.1709 21.4259 16.2155 21.3475 16.2721 21.278C16.342 21.1908 16.433 21.1229 16.5366 21.0808C16.6897 21.0344 16.6572 21.0924 16.5575 21.1017C16.4163 21.1165 16.2741 21.1165 16.1329 21.1017C15.9612 21.0878 15.7756 21.0576 15.5854 21.0228C15.198 20.9532 14.792 20.8488 14.3813 20.7375C13.9707 20.6261 13.5438 20.4916 13.1424 20.3779L13.096 20.364C12.9167 20.3123 12.7251 20.3238 12.5532 20.3965C12.3814 20.4692 12.2397 20.5987 12.1519 20.7634C12.0642 20.9281 12.0356 21.1179 12.0711 21.3011C12.1065 21.4844 12.2038 21.6498 12.3467 21.7699C12.7138 22.0808 13.1014 22.3668 13.5067 22.626C13.9243 22.8945 14.3609 23.1326 14.8128 23.3382C15.0577 23.447 15.3087 23.5415 15.5645 23.6212C15.8604 23.7175 16.1663 23.7797 16.4763 23.8068C16.9339 23.8543 17.396 23.779 17.8149 23.5888C18.1202 23.4449 18.3861 23.2292 18.5898 22.96C18.7785 22.7087 18.9136 22.4213 18.9865 22.1156C19.0033 22.0448 19.0134 21.9725 19.0167 21.8998V21.807C19.0451 21.1882 19.0319 20.5681 18.9772 19.951C18.954 19.6424 18.9123 19.3408 18.8728 19.0369C18.8334 18.733 18.7754 18.4337 18.7128 18.1368C18.5937 17.5439 18.4434 16.9576 18.2627 16.3805C18.1699 16.0928 18.0771 15.8052 17.9657 15.5198C17.9124 15.3783 17.859 15.2344 17.7987 15.0929C17.7384 14.9514 17.6804 14.8168 17.5992 14.6405C17.4091 14.2832 17.0925 14.0097 16.7113 13.8737C16.3302 13.7376 15.912 13.7488 15.5386 13.905C15.1652 14.0612 14.8637 14.3511 14.6929 14.7181C14.5222 15.085 14.4946 15.5025 14.6156 15.8887L14.6644 15.9792Z" fill="#7F3E3B"/>
<path d="M14.9933 12.295C16.4828 12.527 17.0813 12.9794 18.2993 15.9745C17.7448 17.0904 15.158 18.1599 15.158 18.1599C15.158 18.1599 13.7591 14.2902 14.9933 12.295Z" fill="#F7C06E"/>
<path d="M12.5176 26.7068C11.8616 25.5558 11.2639 24.3727 10.7265 23.1618C9.9099 21.2919 9.23014 19.0647 9.23014 19.0647C9.23014 19.0647 3.53918 19.0485 2.50214 19.7282C3.19814 22.1178 6.09582 27.8482 6.09582 27.8482C6.09582 27.8482 10.3901 27.6116 12.5176 26.7068Z" fill="white"/>
<path d="M6.71958 28.1963L11.8816 27.8599C12.4013 27.8251 12.6541 27.4376 12.443 26.9945L8.92127 19.5984C8.78849 19.3656 8.59476 19.1735 8.36093 19.0427C8.1271 18.9119 7.86202 18.8473 7.59423 18.856L2.43455 19.1924C1.91487 19.2272 1.66199 19.6146 1.87311 20.0577L5.39254 27.4539C5.52532 27.6866 5.71905 27.8787 5.95288 28.0095C6.18671 28.1403 6.45179 28.2049 6.71958 28.1963Z" fill="#F7C06E"/>
<path d="M4.41239 22.9275L4.66759 23.7813C4.72607 23.951 4.71673 24.1367 4.64151 24.2997C4.56628 24.4627 4.431 24.5903 4.26391 24.6559L3.88575 24.7951L2.75823 22.257L3.78598 22.38C3.93227 22.4006 4.0694 22.4633 4.18063 22.5606C4.29187 22.6578 4.37239 22.7853 4.41239 22.9275Z" fill="#7F3E3B"/>
</svg>
