<?xml version="1.0" encoding="UTF-8"?>
<svg width="24px" height="24px" viewBox="0 0 24 24" version="1.1" xmlns="http://www.w3.org/2000/svg" xmlns:xlink="http://www.w3.org/1999/xlink">
    <title>Icons/Hubs/Competencies</title>
    <g id="Icons/Hubs/Competencies" stroke="none" stroke-width="1" fill="none" fill-rule="evenodd">
        <rect id="Size" fill="#D8D8D8" opacity="0" x="0" y="0" width="24" height="24"></rect>
        <path d="M19.7380952,11.047619 L18.3809524,11.047619 L18.3809524,7.42857143 C18.3809524,6.43333333 17.5666667,5.61904762 16.5714286,5.61904762 L12.952381,5.61904762 L12.952381,4.26190476 C12.952381,3.01333333 11.9390476,2 10.6904762,2 C9.44190476,2 8.42857143,3.01333333 8.42857143,4.26190476 L8.42857143,5.61904762 L4.80952381,5.61904762 C3.81428571,5.61904762 3.00904762,6.43333333 3.00904762,7.42857143 L3.00904762,10.8666667 L4.35714286,10.8666667 C5.7052381,10.8666667 6.8,11.9614286 6.8,13.3095238 C6.8,14.657619 5.7052381,15.752381 4.35714286,15.752381 L3,15.752381 L3,19.1904762 C3,20.1857143 3.81428571,21 4.80952381,21 L8.24761905,21 L8.24761905,19.6428571 C8.24761905,18.2947619 9.34238095,17.2 10.6904762,17.2 C12.0385714,17.2 13.1333333,18.2947619 13.1333333,19.6428571 L13.1333333,21 L16.5714286,21 C17.5666667,21 18.3809524,20.1857143 18.3809524,19.1904762 L18.3809524,15.5714286 L19.7380952,15.5714286 C20.9866667,15.5714286 22,14.5580952 22,13.3095238 C22,12.0609524 20.9866667,11.047619 19.7380952,11.047619 Z" id="Path" fill="#0074B6"></path>
    </g>
</svg>