<?xml version="1.0" encoding="UTF-8"?>
<svg width="24px" height="24px" viewBox="0 0 24 24" version="1.1" xmlns="http://www.w3.org/2000/svg" xmlns:xlink="http://www.w3.org/1999/xlink">
    <title>Icons/Hubs/Discuss</title>
    <g id="Icons/Hubs/Discuss" stroke="none" stroke-width="1" fill="none" fill-rule="evenodd">
        <rect id="Size" fill="#D8D8D8" opacity="0" x="0" y="0" width="24" height="24"></rect>
        <path d="M20,6 L19,6 L19,14 C19,14.55 18.55,15 18,15 L6,15 L6,16 C6,17.1 6.9,18 8,18 L18,18 L22,22 L22,8 C22,6.9 21.1,6 20,6 Z" id="Path" fill="#0074B6" opacity="0.5"></path>
        <path d="M17,11 L17,4 C17,2.9 16.1,2 15,2 L4,2 C2.9,2 2,2.9 2,4 L2,17 L6,13 L15,13 C16.1,13 17,12.1 17,11 Z" id="Path" fill="#0074B6"></path>
    </g>
</svg>