<?xml version="1.0" encoding="UTF-8"?>
<svg width="24px" height="24px" viewBox="0 0 24 24" version="1.1" xmlns="http://www.w3.org/2000/svg" xmlns:xlink="http://www.w3.org/1999/xlink">
    <title>Icons/Hubs/Network</title>
    <g id="Icons/Hubs/Network" stroke="none" stroke-width="1" fill="none" fill-rule="evenodd">
        <rect id="Size" fill="#D8D8D8" opacity="0" x="0" y="0" width="24" height="24"></rect>
        <path d="M16,13 C18.33,13 23,14.17 23,16.5 L23,16.5 L23,18 C23,18.55 22.55,19 22,19 L22,19 L16.82,19 C16.93,18.69 17,18.35 17,18 L17,18 L17,16.5 C17,15.03 16.21,13.92 15.07,13.09 C15.06,13.08 15.05,13.06 15.03,13.05 C15.38,13.02 15.71,13 16,13 Z M16,5 C17.66,5 18.99,6.34 18.99,8 C18.99,9.66 17.66,11 16,11 C14.34,11 13,9.66 13,8 C13,6.34 14.34,5 16,5 Z" id="Combined-Shape" fill="#0074B6" opacity="0.5"></path>
        <path d="M8,13 C10.33,13 15,14.17 15,16.5 L15,16.5 L15,18 C15,18.55 14.55,19 14,19 L14,19 L2,19 C1.45,19 1,18.55 1,18 L1,18 L1,16.5 C1,14.17 5.67,13 8,13 Z M8,5 C9.66,5 10.99,6.34 10.99,8 C10.99,9.66 9.66,11 8,11 C6.34,11 5,9.66 5,8 C5,6.34 6.34,5 8,5 Z" id="Combined-Shape" fill="#0074B6"></path>
    </g>
</svg>