<?xml version="1.0" encoding="UTF-8"?>
<svg width="24px" height="24px" viewBox="0 0 24 24" version="1.1" xmlns="http://www.w3.org/2000/svg" xmlns:xlink="http://www.w3.org/1999/xlink">
    <title>Icons/Hubs/News</title>
    <g id="Icons/Hubs/News" stroke="none" stroke-width="1" fill="none" fill-rule="evenodd">
        <path d="M17.09,4.56 C16.39,3.53 15.59,2.57 14.69,1.71 C14.34,1.37 13.75,1.69 13.85,2.17 C14.04,3.11 14.24,4.35 14.24,5.46 C14.24,7.52 12.89,9.19 10.83,9.19 C9.29,9.19 8.03,8.26 7.48,6.93 C7.38,6.73 7.34,6.61 7.28,6.39 C7.17,5.97 6.62,5.84 6.38,6.21 C6.2,6.48 6.03,6.75 5.87,7.04 C4.68,9.08 4,11.46 4,14 C4,18.42 7.58,22 12,22 C16.42,22 20,18.42 20,14 C20,10.51 18.92,7.27 17.09,4.56 Z M11.71,19 C9.93,19 8.49,17.6 8.49,15.86 C8.49,14.24 9.54,13.1 11.3,12.74 C12.77,12.44 14.28,11.81 15.33,10.82 C15.61,10.56 16.07,10.68 16.15,11.05 C16.38,12.07 16.5000347,13.13 16.5000347,14.2 C16.51,16.85 14.36,19 11.71,19 L11.71,19 Z" id="Shape" fill="#0074B6"></path>
        <rect id="Size" fill="#D8D8D8" opacity="0" x="0" y="0" width="24" height="24"></rect>
        <path d="M12.1030004,16.8404275 C11.2141154,16.8404275 10.4950174,16.1672814 10.4950174,15.330657 C10.4950174,14.5517308 11.0193597,14.0035975 11.8982572,13.8305028 C12.6323364,13.6862572 13.3863906,13.3833415 13.9107329,12.907331 C14.0505575,12.7823182 14.2802694,12.8400164 14.3202193,13.0179193 C14.4350752,13.5083543 14.4950174,14.0180221 14.4950174,14.532498 C14.4999938,15.8066674 13.4263405,16.8404275 12.1030004,16.8404275 L12.1030004,16.8404275 Z" id="Path" fill="#0074B6" opacity="0.5"></path>
    </g>
</svg>