<svg xmlns="http://www.w3.org/2000/svg" width="14.783" height="19.219" viewBox="0 0 14.783 19.219"><defs><style>.a{fill:#ededed;}</style></defs><path class="a" d="M75.617,3.919,71.826.165a.571.571,0,0,0-.4-.165H63.085A2.077,2.077,0,0,0,61,2.065v15.09a2.077,2.077,0,0,0,2.085,2.065H73.7a2.077,2.077,0,0,0,2.085-2.065V4.317A.56.56,0,0,0,75.617,3.919Zm-3.624-2,1.849,1.831H71.993ZM73.7,18.093H63.085a.944.944,0,0,1-.948-.938V2.065a.944.944,0,0,1,.948-.938h7.771V4.317a.566.566,0,0,0,.569.563h3.222V17.154A.944.944,0,0,1,73.7,18.093Z" transform="translate(-61 0)"/></svg>