<svg xmlns="http://www.w3.org/2000/svg" xmlns:xlink="http://www.w3.org/1999/xlink" width="306" height="245" viewBox="0 0 306 245">
  <defs>
    <style>
      .cls-1 {
        clip-path: url(#clip-featureDisabled-lite);
      }

      .cls-2 {
        fill: #959595;
      }

      .cls-3 {
        fill: #3f3d56;
      }

      .cls-4 {
        fill: #f2f2f2;
      }

      .cls-5 {
        opacity: 0.1;
      }

      .cls-6 {
        fill: #a0616a;
      }

      .cls-7 {
        fill: #2f2e41;
      }

      .cls-8 {
        fill: #ff6584;
      }

      .cls-9 {
        fill: rgba(255,255,255,0);
      }
    </style>
    <clipPath id="clip-featureDisabled-lite">
      <rect width="306" height="245"/>
    </clipPath>
  </defs>
  <g id="featureDisabled-lite" class="cls-1">
    <rect class="cls-9" width="306" height="245"/>
    <g id="Group_76" data-name="Group 76" transform="translate(0.044 30.824)">
      <path id="Path_355" data-name="Path 355" class="cls-2" d="M702.033,476.091c0,18.675-11.1,25.2-24.8,25.2s-24.8-6.521-24.8-25.2,24.8-42.432,24.8-42.432S702.033,457.416,702.033,476.091Z" transform="translate(-488.995 -334.99)"/>
      <path id="Path_356" data-name="Path 356" class="cls-3" d="M653.168,406.8l10.569-19.335L653.208,404.35l.114-7.027,7.284-13.989-7.254,12.129.205-12.639,7.8-11.137-7.768,9.149.128-23.176-.772,29.366-7.9-12.09,7.8,14.568-.739,14.116-.022-.375-9.142-12.774,9.114,14.1-.092,1.765-.017.027.008.145-1.875,18.837h2.5l.3-1.522,9.092-14.063-9.069,12.673Z" transform="translate(-465.576 -258.991)"/>
      <path id="Path_357" data-name="Path 357" class="cls-4" d="M891.353,157.054c0,35.673-21.207,48.129-47.368,48.129s-47.368-12.456-47.368-48.129S843.987,76,843.987,76,891.353,121.381,891.353,157.054Z" transform="translate(-593.398 -75.999)"/>
      <path id="Path_358" data-name="Path 358" class="cls-3" d="M852.122,123.727l.485-29.855L872.8,56.937,852.683,89.189l.218-13.424,13.914-26.722-13.857,23.17h0l.392-24.144,14.9-21.274L853.412,44.272,853.658,0l-1.54,58.608.127-2.418L837.1,33,852,60.831,850.59,87.8l-.042-.716-17.464-24.4,17.411,26.93-.177,3.372-.032.051.015.277L846.72,161.72H851.5l.574-35.336L869.447,99.52Z" transform="translate(-603.258 0)"/>
      <path id="Path_359" data-name="Path 359" class="cls-3" d="M355.989,634.852c0,10.647-69.07,50.607-149.814,50.607s-146.2-20.681-146.2-31.328,63.849,2.008,144.592,2.008S355.989,624.2,355.989,634.852Z" transform="translate(-59.976 -479.106)"/>
      <path id="Path_360" data-name="Path 360" class="cls-5" d="M355.989,634.852c0,10.647-69.07,50.607-149.814,50.607s-146.2-20.681-146.2-31.328,63.849,2.008,144.592,2.008S355.989,624.2,355.989,634.852Z" transform="translate(-59.976 -479.106)"/>
      <path id="Path_361" data-name="Path 361" class="cls-3" d="M355.989,632.327c0,10.647-69.07,38.558-149.814,38.558s-146.2-8.631-146.2-19.279,63.849-10.041,144.592-10.041S355.989,621.68,355.989,632.327Z" transform="translate(-59.976 -476.581)"/>
      <ellipse id="Ellipse_98" data-name="Ellipse 98" class="cls-5" cx="62.084" cy="4.802" rx="62.084" ry="4.802" transform="translate(85.751 172.246)"/>
      <path id="Path_362" data-name="Path 362" class="cls-6" d="M414.482,368.965s18.175.337,14.81,3.534-15.988,0-15.988,0Z" transform="translate(-315.83 -288.143)"/>
      <path id="Path_363" data-name="Path 363" class="cls-2" d="M268.838,227.858s7.338-1.31,9.89,4.614,7.792,22.819,7.792,22.819,14.023,9.283,16.574,8.978,6.911.317,6.111,3.1-.445,5.938-2.286,6.325-4.77-3.3-7.011-1.527-22.216-4.716-23.5-6.062-11.939-30.484-11.939-30.484S264.9,227.763,268.838,227.858Z" transform="translate(-208.055 -185.875)"/>
      <path id="Path_364" data-name="Path 364" class="cls-6" d="M250.433,605.607l.841,7.068-7.068,1.851-4.039-1.851v-6.227Z" transform="translate(-173.911 -438.536)"/>
      <path id="Path_365" data-name="Path 365" class="cls-6" d="M181.5,622.078l.841,7.068L175.272,631l-4.039-1.851v-6.227Z" transform="translate(-123.994 -450.463)"/>
      <path id="Path_366" data-name="Path 366" class="cls-7" d="M260.87,396.742l3.2,11.612,4.712,23.561a23.2,23.2,0,0,1-1.346,12.622c-2.693,6.9-7.573,29.451-6.563,30.8s-11.444,2.356-11.276,1.01,1.851-19.858,1.851-19.858,2.356-16.324,3.534-18.344-5.385-7.068-5.385-7.068-1.683,19.354-4.207,21.036-2.188,27.768-3.366,28.1-9.761,1.683-10.771,0,0-29.788,0-29.788,5.722-21.373,4.544-24.4-.5-15.988-.5-15.988-4.376-9.929-2.02-15.146Z" transform="translate(-183.676 -306.917)"/>
      <path id="Path_367" data-name="Path 367" class="cls-6" d="M291.14,145.665s-7.068,8.751-6.732,12.622-11.107-7.068-11.107-7.068,8.246-11.107,8.246-13.463S291.14,145.665,291.14,145.665Z" transform="translate(-214.451 -120.464)"/>
      <circle id="Ellipse_99" data-name="Ellipse 99" class="cls-6" cx="11.107" cy="11.107" r="11.107" transform="translate(65.498 6.268)"/>
      <path id="Path_368" data-name="Path 368" class="cls-2" d="M233.313,234.07a20.4,20.4,0,0,0-1.038,5.791c.057,1.16,3.135,1.92,7.391,2.418,3.946.463,8.906.7,13.415.82,4.734.128,8.967.128,11,.128,6.058,0,1.178-3.871-1.178-5.722s-1.851-28.1-1.683-31.471-1.515-13.127-1.515-14.978-3.96-6.683-3.96-6.683-.921,2.644-4.623-.89a19.677,19.677,0,0,0-8.583-4.544c-3.7,1.346-9.929,16.156-10.266,18.68-.136,1.025-.024,6.274.205,12.267.332,8.76.91,19.115,1.309,20.213C234.1,230.967,233.755,232.421,233.313,234.07Z" transform="translate(-184.699 -150.541)"/>
      <path id="Path_369" data-name="Path 369" class="cls-6" d="M228.576,338.413l1.178,4.207-4.544,4.712-1.515-6.564Z" transform="translate(-161.984 -245.054)"/>
      <path id="Path_370" data-name="Path 370" class="cls-7" d="M296.528,692.566s3.534,4.039,6.227,1.346,2.524-4.376,3.029-4.376,8.078,6.732,8.078,6.732,12.958,3.029,5.89,5.217-27.095.673-27.095,0-.5-9.593,1.346-9.593Z" transform="translate(-228.421 -520.278)"/>
      <path id="Path_371" data-name="Path 371" class="cls-7" d="M227.594,709.037s3.534,4.039,6.227,1.346,2.524-4.376,3.029-4.376,8.078,6.732,8.078,6.732,12.958,3.029,5.89,5.217-27.095.673-27.095,0-.5-9.593,1.346-9.593Z" transform="translate(-178.504 -532.205)"/>
      <path id="Path_372" data-name="Path 372" class="cls-7" d="M281.015,104.408c-.359.232-.826.467-1.185.236a53.7,53.7,0,0,1-2.98-10.319,5.055,5.055,0,0,1,.3-3.674,9.017,9.017,0,0,0,.862-1.213,8.2,8.2,0,0,0,.2-2.235c.21-1.563,1.688-2.654,3.174-3.183a41.78,41.78,0,0,0,4.517-1.387,34.34,34.34,0,0,0,3.67-2.581,4.723,4.723,0,0,1,4.234-.836c1.229.5,1.994,1.748,3.156,2.386a9.206,9.206,0,0,0,2.583.739,16.531,16.531,0,0,1,6.715,3.12,4.875,4.875,0,0,1,1.222,1.26c1.491,2.454-1.178,5.79,0,8.409l-2.545-2.008a8.863,8.863,0,0,0-2.273-1.445,3,3,0,0,0-2.607.118c-1.075.668-1.366,2.062-1.742,3.271s-1.206,2.548-2.471,2.517c-1.72-.042-2.322-2.443-3.866-3.2a2.979,2.979,0,0,0-3.131.553,6.42,6.42,0,0,0-1.75,2.827,7.71,7.71,0,0,1-.876,1.976c-.462.631-1.053.682-1.547,1.153C283.394,102.115,282.6,103.381,281.015,104.408Z" transform="translate(-216.88 -78.166)"/>
      <path id="Path_373" data-name="Path 373" class="cls-5" d="M234.006,262.9a78.433,78.433,0,0,0,6.353,8.209c3.946.463,8.906.7,13.415.82a10.628,10.628,0,0,0-2.967-2.733c-2.188-1.346-7.4-17.334-7.4-17.334s6.4-16.493,8.078-22.719-4.88-9.761-4.88-9.761c-3.029-2.524-8.246,3.366-8.246,3.366s-2.662,8.031-5.18,15.969c.332,8.76.91,19.115,1.309,20.213C234.8,259.8,234.449,261.25,234.006,262.9Z" transform="translate(-185.393 -179.37)"/>
      <path id="Path_374" data-name="Path 374" class="cls-2" d="M233.181,214.5s6.563,3.534,4.88,9.761-8.078,22.719-8.078,22.719,5.217,15.988,7.4,17.334,5.217,4.544,2.861,6.227-4.039,4.376-5.722,3.534-1.683-5.554-4.544-5.554-14.473-17.5-14.641-19.354,9.593-31.3,9.593-31.3S230.152,211.977,233.181,214.5Z" transform="translate(-172.479 -175.837)"/>
      <path id="Path_375" data-name="Path 375" class="cls-8" d="M523.753,373.394,521.86,371.5a5.889,5.889,0,0,0-8.328,0L476.81,408.224,440.087,371.5a5.889,5.889,0,0,0-8.328,0l-1.893,1.893a5.888,5.888,0,0,0,0,8.328l36.723,36.723-36.723,36.723a5.888,5.888,0,0,0,0,8.328l1.893,1.893a5.888,5.888,0,0,0,8.328,0l36.723-36.723,36.723,36.723a5.889,5.889,0,0,0,8.328,0l1.893-1.893a5.889,5.889,0,0,0,0-8.328L487.03,418.445l36.723-36.723A5.889,5.889,0,0,0,523.753,373.394Z" transform="translate(-326.574 -288.731)"/>
      <path id="Path_376" data-name="Path 376" class="cls-5" d="M429.643,592.114l35.632-35.633-.343-.343-33.979,33.979A5.866,5.866,0,0,0,429.643,592.114Z" transform="translate(-327.662 -423.681)"/>
      <path id="Path_377" data-name="Path 377" class="cls-5" d="M430.445,374.588a5.888,5.888,0,0,1,8.328,0L475.5,411.311l36.723-36.723a5.888,5.888,0,0,1,8.328,0l1.893,1.893a5.888,5.888,0,0,1,1.31,6.331l1.09-1.09a5.888,5.888,0,0,0,0-8.328l-1.893-1.893a5.888,5.888,0,0,0-8.328,0L477.9,408.224,441.174,371.5a5.889,5.889,0,0,0-8.328,0l-1.893,1.893a5.866,5.866,0,0,0-1.311,2Z" transform="translate(-327.661 -288.731)"/>
      <path id="Path_378" data-name="Path 378" class="cls-5" d="M635.647,547.436,632.9,550.18,669.626,586.9a5.888,5.888,0,0,1,1.311,6.331l1.09-1.091a5.888,5.888,0,0,0,0-8.328Z" transform="translate(-474.848 -417.379)"/>
      <path id="Path_379" data-name="Path 379" class="cls-2" d="M106.861,543.688c0,15.51-9.22,20.926-20.594,20.926S65.672,559.2,65.672,543.688s20.594-35.241,20.594-35.241S106.861,528.178,106.861,543.688Z" transform="translate(-64.1 -389.146)"/>
      <path id="Path_380" data-name="Path 380" class="cls-3" d="M56.113,473.262,64.891,457.2l-8.745,14.023.095-5.837,6.05-11.618-6.025,10.074.17-10.5,6.478-9.25-6.451,7.6.106-19.249-.641,24.39L49.369,446.8l6.481,12.1-.614,11.724-.018-.311L47.625,459.7l7.57,11.709-.077,1.466-.014.022.006.12-1.557,15.645h2.08l.25-1.264,7.551-11.68L55.9,486.242Z" transform="translate(-34.487 -313.147)"/>
    </g>
  </g>
</svg>
