<svg xmlns="http://www.w3.org/2000/svg" xmlns:xlink="http://www.w3.org/1999/xlink" width="364" height="328" viewBox="0 0 364 328">
  <defs>
    <style>
      .cls-1 {
        clip-path: url(#clip-ContentUnavailable-lite);
      }

      .cls-2 {
        fill: #3d3d3d;
      }

      .cls-11, .cls-19, .cls-2, .cls-20, .cls-7, .cls-8 {
        opacity: 0.1;
      }

      .cls-3 {
        fill: none;
        stroke: #535461;
        stroke-miterlimit: 10;
        stroke-width: 2px;
      }

      .cls-20, .cls-4 {
        fill: #3f51b5;
      }

      .cls-5 {
        fill: #303030;
      }

      .cls-6, .cls-7 {
        fill: #707070;
      }

      .cls-8 {
        fill: #1d1d1d;
      }

      .cls-9 {
        fill: #b77b7f;
      }

      .cls-10 {
        fill: #dda2a6;
      }

      .cls-12 {
        fill: #fff;
      }

      .cls-13 {
        fill: url(#linear-gradient);
      }

      .cls-14 {
        fill: #67647e;
      }

      .cls-15 {
        fill: #444053;
      }

      .cls-16 {
        fill: #efb7b9;
      }

      .cls-17 {
        fill: #a36468;
      }

      .cls-18 {
        fill: #e3787d;
      }

      .cls-21 {
        fill: #ffd037;
      }

      .cls-22 {
        fill: #414141;
      }

      .cls-23 {
        fill: #9d9cb5;
      }

      .cls-24 {
        fill: rgba(255,255,255,0);
      }
    </style>
    <linearGradient id="linear-gradient" x1="0.5" y1="1" x2="0.5" gradientUnits="objectBoundingBox">
      <stop offset="0" stop-color="gray" stop-opacity="0.251"/>
      <stop offset="0.54" stop-color="gray" stop-opacity="0.122"/>
      <stop offset="1" stop-color="gray" stop-opacity="0.102"/>
    </linearGradient>
    <clipPath id="clip-ContentUnavailable-lite">
      <rect width="364" height="328"/>
    </clipPath>
  </defs>
  <g id="ContentUnavailable-lite" class="cls-1">
    <rect class="cls-24" width="364" height="328"/>
    <g id="Group_79" data-name="Group 79" transform="translate(-3314.469 1294.315)">
      <g id="Group_78" data-name="Group 78" transform="translate(3336.469 -1269.298)">
        <path id="Path_381" data-name="Path 381" class="cls-2" d="M243.924,42.537c9.385-8.353,24.116-10.066,37.526-9.4,42.118,2.095,80.135,22.426,113.022,45.427,11.907,8.325,23.627,17.3,31.354,28.765,15.743,23.342,11.065,55.676-10.808,74.9-7.444,6.541-16.466,11.566-25.729,16-16.469,7.9-34.24,14.249-52.932,16.064-13.327,1.285-26.821.241-40.074-1.555-37.022-5.031-73.356-16.135-103.824-35.13C179.1,169.285,166.51,158.927,161,145.455s-1.982-30.564,11.66-38.554c5.642-3.3,12.389-4.79,18.991-6.191,9.722-2.059,19.6-4.09,28.37-8.276,9.064-4.325,19.791-12.688,17.992-22.262C236.1,59.912,234.552,50.89,243.924,42.537Z" transform="translate(-139.882 -33.007)"/>
        <path id="Path_382" data-name="Path 382" class="cls-3" d="M785.47,629.142s8.052-14.262,20.174-18.371a24.816,24.816,0,0,0,12.569-9.4,41.618,41.618,0,0,0,3.708-6.67" transform="translate(-565.404 -414.235)"/>
        <path id="Path_383" data-name="Path 383" class="cls-4" d="M906.147,573.841c-1.382,1.343-7.817,2.728-7.817,2.728s1.578-6.39,2.959-7.73a3.487,3.487,0,0,1,4.858,5Z" transform="translate(-642.004 -396.014)"/>
        <path id="Path_384" data-name="Path 384" class="cls-4" d="M894.362,607.888c-1.889.376-8.032-1.957-8.032-1.957s4.8-4.5,6.686-4.883a3.487,3.487,0,1,1,1.359,6.84Z" transform="translate(-633.859 -418.497)"/>
        <path id="Path_385" data-name="Path 385" class="cls-4" d="M857.5,647.174c-1.822-.643-5.957-5.751-5.957-5.751s6.426-1.465,8.238-.835a3.486,3.486,0,1,1-2.281,6.586Z" transform="translate(-610.247 -445.273)"/>
        <path id="Path_386" data-name="Path 386" class="cls-4" d="M817.78,669.271c-1.9-.321-6.84-4.662-6.84-4.662s6.076-2.532,7.974-2.217a3.486,3.486,0,1,1-1.134,6.879Z" transform="translate(-582.691 -460.16)"/>
        <path id="Path_387" data-name="Path 387" class="cls-4" d="M869.59,593.493c0,1.928,3.483,7.509,3.483,7.509s3.489-5.581,3.489-7.505a3.486,3.486,0,0,0-6.972,0Z" transform="translate(-622.498 -411.052)"/>
        <path id="Path_388" data-name="Path 388" class="cls-4" d="M825.321,618.081c.578,1.838,5.571,6.124,5.571,6.124s1.658-6.371,1.083-8.209a3.486,3.486,0,0,0-6.654,2.085Z" transform="translate(-592.343 -427.029)"/>
        <path id="Path_389" data-name="Path 389" class="cls-4" d="M786.474,651.2c.257,1.909,4.456,6.978,4.456,6.978s2.712-6,2.455-7.907a3.486,3.486,0,0,0-6.911.929Z" transform="translate(-566.064 -449.903)"/>
        <path id="Path_390" data-name="Path 390" class="cls-5" d="M906.147,573.841c-1.382,1.343-7.817,2.728-7.817,2.728s1.578-6.39,2.959-7.73a3.487,3.487,0,0,1,4.858,5Z" transform="translate(-642.004 -396.014)"/>
        <path id="Path_391" data-name="Path 391" class="cls-5" d="M894.362,607.888c-1.889.376-8.032-1.957-8.032-1.957s4.8-4.5,6.686-4.883a3.487,3.487,0,1,1,1.359,6.84Z" transform="translate(-633.859 -418.497)"/>
        <path id="Path_392" data-name="Path 392" class="cls-5" d="M857.5,647.174c-1.822-.643-5.957-5.751-5.957-5.751s6.426-1.465,8.238-.835a3.486,3.486,0,1,1-2.281,6.586Z" transform="translate(-610.247 -445.273)"/>
        <path id="Path_393" data-name="Path 393" class="cls-5" d="M817.78,669.271c-1.9-.321-6.84-4.662-6.84-4.662s6.076-2.532,7.974-2.217a3.486,3.486,0,1,1-1.134,6.879Z" transform="translate(-582.691 -460.16)"/>
        <path id="Path_394" data-name="Path 394" class="cls-5" d="M869.59,593.493c0,1.928,3.483,7.509,3.483,7.509s3.489-5.581,3.489-7.505a3.486,3.486,0,0,0-6.972,0Z" transform="translate(-622.498 -411.052)"/>
        <path id="Path_395" data-name="Path 395" class="cls-5" d="M825.321,618.081c.578,1.838,5.571,6.124,5.571,6.124s1.658-6.371,1.083-8.209a3.486,3.486,0,0,0-6.654,2.085Z" transform="translate(-592.343 -427.029)"/>
        <path id="Path_396" data-name="Path 396" class="cls-5" d="M786.474,651.2c.257,1.909,4.456,6.978,4.456,6.978s2.712-6,2.455-7.907a3.486,3.486,0,0,0-6.911.929Z" transform="translate(-566.064 -449.903)"/>
        <path id="Path_397" data-name="Path 397" class="cls-3" d="M786.91,603.265s1.581-16.3,11-24.97a24.816,24.816,0,0,0,7.679-13.69,41.479,41.479,0,0,0,.688-7.6" transform="translate(-566.382 -388.648)"/>
        <path id="Path_398" data-name="Path 398" class="cls-6" d="M851.4,529.63c-.72,1.786-6.04,5.661-6.04,5.661s-1.144-6.484-.424-8.267a3.486,3.486,0,1,1,6.464,2.606Z" transform="translate(-605.604 -366.765)"/>
        <path id="Path_399" data-name="Path 399" class="cls-6" d="M852.578,564.02c-1.574,1.108-8.148,1.468-8.148,1.468s2.57-6.063,4.135-7.171a3.487,3.487,0,1,1,4.013,5.7Z" transform="translate(-605.421 -389.11)"/>
        <path id="Path_400" data-name="Path 400" class="cls-6" d="M831.435,615.023c-1.928.161-7.775-2.847-7.775-2.847s5.272-3.939,7.178-4.1a3.487,3.487,0,0,1,.585,6.949Z" transform="translate(-591.324 -423.303)"/>
        <path id="Path_401" data-name="Path 401" class="cls-6" d="M805.151,651.082c-1.863.482-8.141-1.491-8.141-1.491s4.527-4.777,6.39-5.259a3.486,3.486,0,1,1,1.751,6.748Z" transform="translate(-573.236 -447.844)"/>
        <path id="Path_402" data-name="Path 402" class="cls-6" d="M822.237,564.208c.778,1.761,6.227,5.462,6.227,5.462s.929-6.516.148-8.276a3.486,3.486,0,1,0-6.375,2.821Z" transform="translate(-590.155 -390.22)"/>
        <path id="Path_403" data-name="Path 403" class="cls-6" d="M791.737,604.626c1.269,1.446,7.573,3.341,7.573,3.341s-1.063-6.5-2.336-7.942a3.486,3.486,0,1,0-5.237,4.6Z" transform="translate(-569.069 -417.045)"/>
        <path id="Path_404" data-name="Path 404" class="cls-6" d="M769.633,650.65c1.009,1.642,6.9,4.572,6.9,4.572s.048-6.58-.964-8.222a3.486,3.486,0,1,0-5.941,3.65Z" transform="translate(-554.303 -448.604)"/>
        <ellipse id="Ellipse_100" data-name="Ellipse 100" class="cls-7" cx="38.195" cy="6.403" rx="38.195" ry="6.403" transform="translate(82.021 255.142)"/>
        <ellipse id="Ellipse_101" data-name="Ellipse 101" class="cls-8" cx="38.195" cy="6.403" rx="38.195" ry="6.403" transform="translate(157.199 205.988)"/>
        <path id="Path_405" data-name="Path 405" class="cls-9" d="M603.677,397.623l-.035,1.25-2.172,76.633h-3.65l1.79-76.633.035-1.443Z" transform="translate(-405.748 -269.74)"/>
        <path id="Path_406" data-name="Path 406" class="cls-10" d="M585.653,592.38l-2.734-.006-40.624-.087-2.165,0,1.153-3.553h44.081Z" transform="translate(-366.593 -399.577)"/>
        <path id="Path_407" data-name="Path 407" class="cls-11" d="M607.458,397.623l-.035,1.25H603.39l.035-1.443Z" transform="translate(-409.528 -269.74)"/>
        <rect id="Rectangle_72" data-name="Rectangle 72" class="cls-9" width="6.77" height="2.548" transform="translate(192.699 126.01)"/>
        <path id="Path_408" data-name="Path 408" class="cls-11" d="M542.655,588.73l-.36,3.557-2.165,0,1.153-3.553Z" transform="translate(-366.593 -399.577)"/>
        <path id="Path_409" data-name="Path 409" class="cls-10" d="M538.143,392.05l-.112,1.105-9.012,88.881-4.129-.2,9.5-88.685.106-1.009Z" transform="translate(-356.249 -266.088)"/>
        <path id="Path_410" data-name="Path 410" class="cls-11" d="M675.264,592.38l-2.734-.006-.37-3.643h2.815Z" transform="translate(-456.203 -399.577)"/>
        <path id="Path_411" data-name="Path 411" class="cls-10" d="M667.273,481.84l-4.132.2-9.009-88.881-.112-1.105,3.647.1.106,1.009Z" transform="translate(-443.892 -266.088)"/>
        <rect id="Rectangle_73" data-name="Rectangle 73" class="cls-12" width="91.04" height="87.294" transform="translate(149.913 38.331)"/>
        <path id="Path_412" data-name="Path 412" class="cls-10" d="M706.827,57.527v21.08h-3.55V57.527a1.777,1.777,0,1,1,3.55,0Z" transform="translate(-509.617 -48.392)"/>
        <rect id="Rectangle_74" data-name="Rectangle 74" class="cls-11" width="3.553" height="1.918" transform="translate(193.656 28.297)"/>
        <path id="Path_413" data-name="Path 413" class="cls-10" d="M705.32,123.734v6.959H699v-6.959a.861.861,0,0,1,.864-.864h4.6A.864.864,0,0,1,705.32,123.734Z" transform="translate(-506.716 -93.998)"/>
        <circle id="Ellipse_102" data-name="Ellipse 102" class="cls-11" cx="1.343" cy="1.343" r="1.343" transform="translate(194.09 31.947)"/>
        <circle id="Ellipse_103" data-name="Ellipse 103" class="cls-9" cx="1.343" cy="1.343" r="1.343" transform="translate(194.09 31.658)"/>
        <rect id="Rectangle_75" data-name="Rectangle 75" class="cls-11" width="6.339" height="0.864" transform="translate(192.265 35.834)"/>
        <rect id="Rectangle_76" data-name="Rectangle 76" class="cls-11" width="11.525" height="1.921" transform="translate(189.672 36.988)"/>
        <rect id="Rectangle_77" data-name="Rectangle 77" class="cls-10" width="11.525" height="1.921" transform="translate(189.672 36.409)"/>
        <path id="Path_414" data-name="Path 414" class="cls-11" d="M531.308,384h48.4a2.088,2.088,0,0,1,2.088,2.088v.456H529.22v-.456A2.088,2.088,0,0,1,531.308,384Z" transform="translate(-359.188 -260.625)"/>
        <path id="Path_415" data-name="Path 415" class="cls-11" d="M554.556,392.146l3.65-.1-.112,1.105H554.45Z" transform="translate(-376.312 -266.088)"/>
        <rect id="Rectangle_78" data-name="Rectangle 78" class="cls-11" width="6.77" height="1.057" transform="translate(192.699 126.01)"/>
        <path id="Path_416" data-name="Path 416" class="cls-11" d="M657.773,393.155h-3.64l-.112-1.105,3.647.1Z" transform="translate(-443.892 -266.088)"/>
        <path id="Path_417" data-name="Path 417" class="cls-10" d="M531.308,385.77h48.4a2.088,2.088,0,0,1,2.088,2.088v.456H529.22v-.456A2.088,2.088,0,0,1,531.308,385.77Z" transform="translate(-359.188 -261.826)"/>
        <path id="Path_418" data-name="Path 418" class="cls-13" d="M455.347,210.367c-.729-.386-8.675-6.387-8.675-6.387l-12.823-8.132s-.067-.193-.19-.524c3.518-3.994,2.75-9.79-.829-13.864-4.337-4.941-23.936-15.579-29.841-6.48a9.974,9.974,0,0,0-1.07,4.157,17.268,17.268,0,0,1-4.681,9.189c-1.966,2.079-4.546,3.994-5.677,6.345a.381.381,0,0,0-.032-.09,5.9,5.9,0,0,0-.588,1.606c-.562,2.869,1.365,5.619,2.39,8.411a15.264,15.264,0,0,1,.745,2.917c.026-.2.048-.4.071-.594a18.651,18.651,0,0,1,.254,4.292c-7.116,1.449-7.12,13.623-7.12,13.623a41.576,41.576,0,0,0-.729,6.583c.148,1.745.145,5.516.145,6.426s-.877,6.58-.964,7.261a.176.176,0,0,1,0,.029c-.129.745-1.462,4.337,1.761,5.141.225.058.463.106.71.151.138,2.908.389,9,.167,10.352,0,0,1.173,8.18,2.146,10.259a23.593,23.593,0,0,0,2.153,3.476,3.83,3.83,0,0,1-.495,1.41c-.5.716-.241,1.3.591,1.558-.029.247-.061.527-.1.842-.357,3.155-.89,9.427.016,12.6A32.168,32.168,0,0,1,394,296.739a4.236,4.236,0,0,0,.514,2.031c.514.726,1.462,7.48,1.462,8.569s2.487,10.888,1.754,13.211a14.132,14.132,0,0,0-.145,5.59s-.44,5.735-.964,6.969-.733,21.125.071,26.278,1.317,9.436,1.317,9.436-.511,4.72-.074,5.372,1.243,4.575.659,4.79-.877,1.815-.877,1.815a16.173,16.173,0,0,0,1,1.359,5.458,5.458,0,0,1-.659-.28c.231.321.578.778,1.006,1.285l-.4,5.221a.874.874,0,0,0,.643.916,7.348,7.348,0,0,0,7.268-2.043c3.656-3.7,4.9-3.194,5.558-5.443.071-.241.132-.479.183-.7a2.371,2.371,0,0,0-3.364-2.641,17.014,17.014,0,0,0,.241-4.408,65.075,65.075,0,0,1-.292-7.621l-.511-26.426s.948-5.227,2.047-7.258.964-9.147.964-9.147l1.243-23.377,1.169-11.4s1.17-3.92,2.631.437c0,0-.8,8.781-.437,10.888s.877,12.341.511,14.59-1.973,14.593-.964,17.713,2.133,6.9,1.908,8.138-.964,28.019-.964,28.019,1.976,5.141.514,6.824-.074,8.353-.074,8.353.177.125.479.3l-.042.556-.459,6a.88.88,0,0,0,.643.919,7.345,7.345,0,0,0,7.268-2.043c3.656-3.7,4.9-3.194,5.558-5.446.071-.241.132-.475.186-.7a2.376,2.376,0,0,0-3.83-2.345l-.087.074a3.021,3.021,0,0,1-.286.215,1.378,1.378,0,0,1-.145.093c.366-1.658.9-4.5.643-5.828-.366-1.96.363-7.91.363-7.91s2.12-7.117,2.194-9.96l.585-22.648s-.071-9.221.222-11.47,2.631-21.706,4.97-27.515c1.8-4.447,2.6-15.794,2.124-21.549-.026-.283-.051-.556-.084-.81A8.485,8.485,0,0,0,440.4,268.1s-2.635-5.031-5.17-7.161-3.081-5.793-2.991-7.351a3.817,3.817,0,0,0-.877-2.612s-1.169-3.775-1.95-4.161a.611.611,0,0,1-.17-.129c-.53-.569-.122-2.194-.122-2.194v-.051A13.91,13.91,0,0,0,429.6,241a23.151,23.151,0,0,1,.1-3.872s1.854-5.516,1.561-9.873a3.407,3.407,0,0,1,3.8-3.968l12.649-.132h1.439a10.132,10.132,0,0,0,1.385-1.433c2.41-.286,7.284-1.2,7.83-3.855C459.1,214.339,456.08,210.756,455.347,210.367Zm-58.6,40.277.087-2.214c.3.257.5.421.5.421a3.463,3.463,0,0,1,.022,1.773,1.892,1.892,0,0,1-1.1,1.227,1.329,1.329,0,0,0-.177.093l-.122-1.25Zm45.88-38.876a13.523,13.523,0,0,0-3.271-.193,7.276,7.276,0,0,1-2.435-.774c-.321-.627-2.1-1-3.679-1.211-1.2-2.962-2.892-5.851-3.12-8.938a2.374,2.374,0,0,0-.016-.337l.183.321s7.364,4.7,8.193,6.1c.643,1.073,3.737,3.47,5.17,4.543a1.475,1.475,0,0,1-.787.527.434.434,0,0,1-.238-.042Z" transform="translate(-293.839 -126.951)"/>
        <path id="Path_419" data-name="Path 419" class="cls-14" d="M497.356,825.183c-.055.225-.112.459-.183.7-.643,2.249-1.873,1.729-5.462,5.4a7.19,7.19,0,0,1-7.155,2.03.867.867,0,0,1-.643-.912l.453-5.957.215-2.866s5.732,1.606,8.649-.434a3.459,3.459,0,0,0,.283-.215.9.9,0,0,0,.064-.064,2.342,2.342,0,0,1,3.778,2.32Z" transform="translate(-360.732 -568.727)"/>
        <path id="Path_420" data-name="Path 420" class="cls-14" d="M441.356,818.183c-.055.225-.112.459-.183.7-.643,2.249-1.873,1.729-5.462,5.4a7.19,7.19,0,0,1-7.155,2.031.868.868,0,0,1-.643-.912l.453-5.957.215-2.866s5.732,1.606,8.649-.434a3.432,3.432,0,0,0,.283-.215.9.9,0,0,0,.064-.064,2.342,2.342,0,0,1,3.778,2.32Z" transform="translate(-322.724 -563.976)"/>
        <path id="Path_421" data-name="Path 421" class="cls-11" d="M434.172,826.756l.231,3.1c-3.29,3.287-7.206-1.606-8.353-3.213C429.067,828.2,434.172,826.756,434.172,826.756Z" transform="translate(-321.461 -571.656)"/>
        <path id="Path_422" data-name="Path 422" class="cls-11" d="M493.717,826.814l.431-.286c-3,4.569-7.467,2.461-8.858,1.642l.215-2.866s5.732,1.606,8.649-.434C493.926,825.988,493.717,826.814,493.717,826.814Z" transform="translate(-361.668 -570.454)"/>
        <path id="Path_423" data-name="Path 423" class="cls-15" d="M450.469,509.027c-2.307,5.761-4.61,25.06-4.9,27.309s-.215,11.38-.215,11.38l-.578,22.455c-.074,2.811-2.162,9.87-2.162,9.87s-.72,5.905-.36,7.849-.935,7.068-.935,7.068l.431-.289c-3.6,5.462-9.292,1.369-9.292,1.369s-1.369-6.625.074-8.283-.5-6.769-.5-6.769.72-26.577.935-27.8-.864-4.97-1.873-8.068.578-15.341.938-17.574-.145-12.389-.5-14.477.431-10.8.431-10.8c-1.439-4.321-2.593-.431-2.593-.431l-1.153,11.306-1.224,23.194s.145,7.068-.935,9.076-2.018,7.2-2.018,7.2l.5,26.22a65.355,65.355,0,0,0,.289,7.56c.36,2.1-.794,7.492-.794,7.492-4.032,9.5-10.509-.8-10.509-.8s.289-1.584.864-1.8-.215-4.106-.643-4.755.071-5.33.071-5.33-.5-4.247-1.285-9.362-.575-24.848-.071-26.073.935-6.914.935-6.914a14.188,14.188,0,0,1,.145-5.549c.72-2.307-1.729-12.026-1.729-13.109s-.935-7.778-1.439-8.5a4.249,4.249,0,0,1-.5-2.018,32.188,32.188,0,0,0-1.285-5.761c-.893-3.155-.366-9.375-.016-12.508.125-1.16.234-1.9.234-1.9s41.308-6.7,42.956-5.186c.386.357.643,1.581.794,3.325C453.039,493.351,452.23,504.628,450.469,509.027Z" transform="translate(-309.27 -339.168)"/>
        <path id="Path_424" data-name="Path 424" class="cls-11" d="M491.34,662.246a38.4,38.4,0,0,0,6.426.048C499.436,661.957,491.34,662.246,491.34,662.246Z" transform="translate(-365.775 -460.001)"/>
        <path id="Path_425" data-name="Path 425" class="cls-11" d="M492.39,670.858s6.3,1.105,6.622.53S492.39,670.858,492.39,670.858Z" transform="translate(-366.487 -465.924)"/>
        <path id="Path_426" data-name="Path 426" class="cls-11" d="M432.46,667.27a17.306,17.306,0,0,1,5.041.964C439.278,669.053,432.46,667.27,432.46,667.27Z" transform="translate(-325.812 -463.489)"/>
        <path id="Path_427" data-name="Path 427" class="cls-16" d="M395.54,415.7s.527,10.034.241,11.811c0,0,1.15,8.116,2.111,10.178a29.419,29.419,0,0,0,3.027,4.659l2.834-19.92-.675-6.824Z" transform="translate(-300.754 -292.678)"/>
        <circle id="Ellipse_104" data-name="Ellipse 104" class="cls-16" cx="11.091" cy="11.091" r="11.091" transform="translate(113.466 55.124)"/>
        <path id="Path_428" data-name="Path 428" class="cls-16" d="M454.95,254.417s-3.457,6.773-6.914,9.941,20.742,6.77,21.317,6.77-4.321-14.4-3.457-16.141S454.95,254.417,454.95,254.417Z" transform="translate(-336.154 -183.019)"/>
        <path id="Path_429" data-name="Path 429" class="cls-11" d="M453.459,487.645a7.207,7.207,0,0,1-1.78,1c-4.414,1.729-9.218,4.129-12.482,3.171s-10.178,0-10.178,0-13.928-1.153-16.707-.482a5.445,5.445,0,0,1-2.892.074c.125-1.16.235-1.9.235-1.9s41.356-6.7,43-5.186C453.051,484.676,453.3,485.9,453.459,487.645Z" transform="translate(-310.174 -339.168)"/>
        <path id="Path_430" data-name="Path 430" class="cls-17" d="M445.338,342.545s-.382,4.8-4.8,6.532-9.218,4.129-12.482,3.171-10.178,0-10.178,0-13.928-1.153-16.707-.482-4.228-.19-3.364-1.439.771-5.378.771-7.107-.964-8.739-.1-9.989,1.632-6.05,3.361-6.821a1.883,1.883,0,0,0,1.08-1.218,3.482,3.482,0,0,0-.022-1.757s-.292-.241-.694-.6c-1.018-.909-2.741-2.6-2.188-3.149.768-.771,0-5.764,0-5.764s-1.825-3.839-1.15-5.279-5.86-9.028-5.86-9.028,0-13.057,7.875-13.635c0,0,5.571.193,6.243-2.3s5.089-3.939,5.089-3.939l10.085,2.21s8.929,1.928,10.564.768,2.892,1.536,2.892,1.536,5.568.289,6.143,1.443-1.822,12.386-1.822,12.386a3.367,3.367,0,0,0-3.746,3.939c.289,4.321-1.555,9.8-1.555,9.8a23.106,23.106,0,0,0-.1,3.839,13.137,13.137,0,0,1-.469,3.409v.048s-.4,1.606.119,2.178a.642.642,0,0,0,.167.128c.771.382,1.928,4.129,1.928,4.129a3.8,3.8,0,0,1,.864,2.593,9.731,9.731,0,0,0,2.978,7.3C442.755,337.556,445.338,342.545,445.338,342.545Z" transform="translate(-299.03 -200.468)"/>
        <path id="Path_431" data-name="Path 431" class="cls-17" d="M398.457,360.682v.408l-.173,4.5s-5.908.479-9.125-.321-1.863-4.37-1.735-5.108a.12.12,0,0,0,0-.029c.093-.675.964-6.291.964-7.2s0-4.659-.145-6.387a42.273,42.273,0,0,1,.707-6.545l.623-.765,6.766,2.593Z" transform="translate(-294.98 -240.844)"/>
        <path id="Path_432" data-name="Path 432" class="cls-11" d="M398.407,405.332l-.173,4.5s-5.908.479-9.125-.321-1.863-4.369-1.735-5.108Z" transform="translate(-294.946 -285.076)"/>
        <path id="Path_433" data-name="Path 433" class="cls-11" d="M422.346,408.27a3.482,3.482,0,0,0-.023-1.757s-.292-.241-.694-.6c5.086-.71,25.227-3.473,32.01-3.775v.048s-.4,1.606.119,2.178Z" transform="translate(-318.461 -283.542)"/>
        <path id="Path_434" data-name="Path 434" class="cls-11" d="M516.419,432s1.25,7.068-3.409,9.555A21.348,21.348,0,0,0,516.419,432Z" transform="translate(-380.482 -303.808)"/>
        <path id="Path_435" data-name="Path 435" class="cls-11" d="M428.72,460.257s11.245-1.928,13.446-.431S428.72,460.257,428.72,460.257Z" transform="translate(-323.273 -322.308)"/>
        <path id="Path_436" data-name="Path 436" class="cls-11" d="M509.587,326.22s-1.729,7.107-.434,8.739S509.587,326.22,509.587,326.22Z" transform="translate(-377.538 -232.014)"/>
        <path id="Path_437" data-name="Path 437" class="cls-11" d="M410.069,308.14a7,7,0,0,1,.623,5.378C409.731,316.256,410.069,308.14,410.069,308.14Z" transform="translate(-310.576 -219.743)"/>
        <path id="Path_438" data-name="Path 438" class="cls-11" d="M400,380.18s2.018,1.2,1.346,3.072S400,380.18,400,380.18Z" transform="translate(-303.781 -268.638)"/>
        <path id="Path_439" data-name="Path 439" class="cls-11" d="M399.43,363.14s1.87,1.009,2.111,2.5S399.43,363.14,399.43,363.14Z" transform="translate(-303.394 -257.072)"/>
        <path id="Path_440" data-name="Path 440" class="cls-11" d="M485.81,538.534s11.766,1.2,14.117-1.584C499.927,536.966,489.315,539.064,485.81,538.534Z" transform="translate(-362.021 -375.039)"/>
        <path id="Path_441" data-name="Path 441" class="cls-11" d="M422.59,539.79s12.63,2.978,15.126.623C437.716,540.413,426.863,541.229,422.59,539.79Z" transform="translate(-319.113 -376.967)"/>
        <path id="Path_442" data-name="Path 442" class="cls-11" d="M488.65,554s5.282,0,7.73.145S488.65,554,488.65,554Z" transform="translate(-363.949 -386.611)"/>
        <path id="Path_443" data-name="Path 443" class="cls-11" d="M425.28,561s2.593,2.93,5.523,2.4S425.28,561,425.28,561Z" transform="translate(-320.939 -391.362)"/>
        <path id="Path_444" data-name="Path 444" class="cls-18" d="M416.155,180.193a9.921,9.921,0,0,0-1.054,4.125,17.191,17.191,0,0,1-4.607,9.118c-2.3,2.448-5.462,4.668-6.06,7.659-.565,2.84,1.353,5.574,2.358,8.353,2.651,7.29-1.051,14.937-2.13,22.461-.3,2.079.061,4.736,2.622,5.427a14.541,14.541,0,0,1,2.435.537,2.927,2.927,0,0,1,1.436,2.288,34.961,34.961,0,0,1,.662,9.407c-.116,1.767-.244,3.8,1.427,5.015a8.435,8.435,0,0,0,2.766,1.105c2.631.71,6.034,1.285,7.807-.382.745-.7,1.025-1.68,1.953-2.233,1.391-.826,3.364-.267,5.115-.18a9.288,9.288,0,0,0,8.315-4.469c1.417-2.541,1.285-5.462.771-8.2s-1.433-5.462-1.5-8.244a4.787,4.787,0,0,1,.617-2.8c1.07-1.655,3.56-2.406,5.263-3.708,3.19-2.442,3.181-6.442,2.021-9.79s-3.242-6.557-3.5-10.018a3.814,3.814,0,0,1,.472-2.419,9.818,9.818,0,0,1,1.928-1.812c4.655-3.933,4.106-10.39.257-14.811C441.273,181.722,421.97,171.168,416.155,180.193Z" transform="translate(-306.721 -130.508)"/>
        <g id="Group_77" data-name="Group 77" class="cls-19" transform="translate(97.466 61.039)">
          <path id="Path_445" data-name="Path 445" d="M407.078,261.015a18.3,18.3,0,0,0-.736-8.659c-.508-1.394-1.243-2.779-1.78-4.177a6.027,6.027,0,0,0-.578,1.606c-.565,2.84,1.353,5.574,2.358,8.353A15.2,15.2,0,0,1,407.078,261.015Z" transform="translate(-403.882 -240.087)"/>
          <path id="Path_446" data-name="Path 446" d="M411.858,356.3a35.09,35.09,0,0,0-.659-9.407,2.933,2.933,0,0,0-1.439-2.284,14.228,14.228,0,0,0-2.435-.537,3.319,3.319,0,0,1-2.249-1.857c-.148.733-.276,1.462-.382,2.194-.3,2.079.061,4.736,2.622,5.427a14.227,14.227,0,0,1,2.435.533,2.938,2.938,0,0,1,1.439,2.288,35.61,35.61,0,0,1,.617,4.344C411.829,356.758,411.842,356.527,411.858,356.3Z" transform="translate(-404.372 -303.906)"/>
          <path id="Path_447" data-name="Path 447" d="M454.438,377.987a9.278,9.278,0,0,1-8.318,4.469c-1.751-.09-3.724-.643-5.112.18-.929.549-1.211,1.536-1.957,2.233-1.774,1.655-5.176,1.092-7.807.382a8.535,8.535,0,0,1-2.766-1.105,3.47,3.47,0,0,1-1.365-2.217c.019.986,0,1.976-.061,2.962-.116,1.767-.244,3.8,1.427,5.018a8.531,8.531,0,0,0,2.766,1.1c2.631.71,6.034,1.285,7.807-.382.745-.7,1.028-1.68,1.957-2.249,1.388-.826,3.361-.267,5.112-.18a9.3,9.3,0,0,0,8.318-4.469c1.362-2.455,1.3-5.23.826-7.881A8.632,8.632,0,0,1,454.438,377.987Z" transform="translate(-419.566 -326.738)"/>
          <path id="Path_448" data-name="Path 448" d="M526.215,227.26a9.064,9.064,0,0,0-1.928,1.812,3.814,3.814,0,0,0-.472,2.419,12.871,12.871,0,0,0,.662,3.084,12.827,12.827,0,0,1,1.751-1.555,9.328,9.328,0,0,0,2.892-10.031A9.17,9.17,0,0,1,526.215,227.26Z" transform="translate(-485.258 -222.99)"/>
          <path id="Path_449" data-name="Path 449" d="M516.023,304.419c-1.7,1.3-4.193,2.056-5.26,3.711a4.772,4.772,0,0,0-.62,2.8,19.3,19.3,0,0,0,.411,3.341,3.1,3.1,0,0,1,.209-.376c1.067-1.655,3.56-2.406,5.26-3.708,2.914-2.23,3.158-5.757,2.3-8.9a6.67,6.67,0,0,1-2.3,3.139Z" transform="translate(-476.001 -276.126)"/>
        </g>
        <path id="Path_450" data-name="Path 450" class="cls-16" d="M534.759,252.062s8.308-.431,9.028-3.936-2.249-7.068-2.975-7.444-8.559-6.339-8.559-6.339l-12.627-8.064s-6.05-17.35-7.39-10.709,3.891,15.46,3.891,15.46,7.248,4.659,8.064,6.05S530,242.122,530,242.122Z" transform="translate(-379.808 -155.887)"/>
        <path id="Path_451" data-name="Path 451" class="cls-17" d="M554.823,303.45c-1.966,5-4.514,6.965-4.514,6.965h-1.417l-12.456.129L535,306.621l2.018-8.5,1.247.051a7.191,7.191,0,0,0,2.4.768,13.218,13.218,0,0,1,3.213.19.4.4,0,0,0,.234.035c.472-.048.964-.755.964-.755S556.793,298.457,554.823,303.45Z" transform="translate(-395.407 -212.942)"/>
        <path id="Path_452" data-name="Path 452" class="cls-11" d="M574.038,304.034c-1.966,5-4.514,6.966-4.514,6.966h-1.417A71.1,71.1,0,0,1,571,304.021c.582-.887-4.636-3.094-7.688-4.286.472-.048.964-.755.964-.755S576.007,299.041,574.038,304.034Z" transform="translate(-414.621 -213.526)"/>
        <ellipse id="Ellipse_105" data-name="Ellipse 105" class="cls-20" cx="14.194" cy="2.776" rx="14.194" ry="2.776" transform="translate(14.985 242.412)"/>
        <ellipse id="Ellipse_106" data-name="Ellipse 106" class="cls-20" cx="10.339" cy="2.021" rx="10.339" ry="2.021" transform="translate(255.456 224.857)"/>
        <ellipse id="Ellipse_107" data-name="Ellipse 107" class="cls-20" cx="10.339" cy="2.021" rx="10.339" ry="2.021" transform="translate(300.272 233.047)"/>
        <ellipse id="Ellipse_108" data-name="Ellipse 108" class="cls-20" cx="10.339" cy="2.021" rx="10.339" ry="2.021" transform="translate(230.877 249.914)"/>
        <path id="Path_453" data-name="Path 453" class="cls-6" d="M219.589,556.31s2.326,3.043-1.073,7.631-6.2,8.463-5.06,11.325c0,0,5.125-8.524,9.3-8.643S224.18,561.438,219.589,556.31Z" transform="translate(-176.996 -388.179)"/>
        <path id="Path_454" data-name="Path 454" class="cls-11" d="M219.862,556.31a3.787,3.787,0,0,1,.475.964c4.071,4.784,6.239,9.247,2.326,9.359-3.643.1-8.016,6.622-9.064,8.267a3.037,3.037,0,0,0,.125.376s5.125-8.524,9.3-8.643S224.453,561.438,219.862,556.31Z" transform="translate(-177.269 -388.179)"/>
        <path id="Path_455" data-name="Path 455" class="cls-21" d="M245.407,566.915c0,1.07-.119,1.928-.267,1.928s-.27-.867-.27-1.928.151-.565.3-.565S245.407,565.832,245.407,566.915Z" transform="translate(-198.492 -394.909)"/>
        <path id="Path_456" data-name="Path 456" class="cls-21" d="M247.288,570.792c-.938.511-1.757.823-1.828.691s.643-.643,1.571-1.163.569-.138.643,0S248.226,570.278,247.288,570.792Z" transform="translate(-198.889 -397.508)"/>
        <path id="Path_457" data-name="Path 457" class="cls-6" d="M183.832,556.31s-2.326,3.043,1.073,7.631,6.2,8.463,5.07,11.325c0,0-5.141-8.524-9.317-8.643S179.241,561.438,183.832,556.31Z" transform="translate(-153.515 -388.179)"/>
        <path id="Path_458" data-name="Path 458" class="cls-11" d="M183.827,556.31a3.786,3.786,0,0,0-.475.964c-4.071,4.784-6.239,9.247-2.326,9.359,3.643.1,8.032,6.622,9.064,8.267a3.684,3.684,0,0,1-.122.376s-5.141-8.524-9.317-8.643S179.236,561.438,183.827,556.31Z" transform="translate(-153.51 -388.179)"/>
        <path id="Path_459" data-name="Path 459" class="cls-21" d="M181.43,566.915c0,1.07.119,1.928.267,1.928s.27-.867.27-1.928-.151-.565-.3-.565S181.43,565.832,181.43,566.915Z" transform="translate(-155.435 -394.909)"/>
        <path id="Path_460" data-name="Path 460" class="cls-21" d="M175.6,570.792c.941.511,1.757.823,1.831.691s-.643-.643-1.574-1.163-.569-.138-.643,0S174.661,570.278,175.6,570.792Z" transform="translate(-151.088 -397.508)"/>
        <ellipse id="Ellipse_109" data-name="Ellipse 109" class="cls-20" cx="24.305" cy="3.73" rx="24.305" ry="3.73" transform="translate(12.148 202.881)"/>
        <path id="Path_461" data-name="Path 461" class="cls-22" d="M200.092,599.553l-.116.964-.164,1.34-.067.559-.164,1.343-.071.559-.164,1.34L197.489,620.9c-.167,1.362-2.39,2.423-5.076,2.423h-9.645c-2.686,0-4.906-1.06-5.073-2.423l-1.86-15.245-.164-1.34-.067-.559-.167-1.343-.067-.559-.164-1.34-.116-.964c-.093-.771,1.108-1.42,2.628-1.42h19.766C198.983,598.133,200.188,598.782,200.092,599.553Z" transform="translate(-151.128 -416.563)"/>
        <path id="Path_462" data-name="Path 462" class="cls-23" d="M99.674,572.5l-.161,1.343H75.051L74.89,572.5Z" transform="translate(-50.829 -388.562)"/>
        <path id="Path_463" data-name="Path 463" class="cls-23" d="M99.931,578.42l-.161,1.34h-24l-.164-1.34Z" transform="translate(-51.317 -392.58)"/>
        <path id="Path_464" data-name="Path 464" class="cls-23" d="M100.189,584.33l-.164,1.34H76.494l-.164-1.34Z" transform="translate(-51.806 -396.591)"/>
        <circle id="Ellipse_110" data-name="Ellipse 110" class="cls-7" cx="10.121" cy="10.121" r="10.121" transform="translate(47.708 29.887)"/>
        <circle id="Ellipse_111" data-name="Ellipse 111" class="cls-7" cx="6.265" cy="6.265" r="6.265" transform="translate(30.358 9.646)"/>
        <circle id="Ellipse_112" data-name="Ellipse 112" class="cls-7" cx="3.855" cy="3.855" r="3.855" transform="translate(0 26.032)"/>
      </g>
    </g>
  </g>
</svg>
