<svg xmlns="http://www.w3.org/2000/svg" xmlns:xlink="http://www.w3.org/1999/xlink" width="259" height="111" viewBox="0 0 259 111">
  <defs>
    <style>
      .cls-1 {
        clip-path: url(#clip-_404-lite);
      }

      .cls-2 {
        fill: #f2f2f2;
      }

      .cls-3 {
        fill: #2f2e41;
      }

      .cls-10, .cls-4 {
        fill: #959595;
      }

      .cls-5 {
        fill: none;
        stroke: #3f3d56;
        stroke-miterlimit: 10;
      }

      .cls-6 {
        opacity: 0.1;
      }

      .cls-7 {
        fill: #fbbebe;
      }

      .cls-8 {
        fill: #57b894;
      }

      .cls-9 {
        fill: #fff;
      }

      .cls-10 {
        opacity: 0.3;
      }

      .cls-11 {
        fill: rgba(255,255,255,0);
      }
    </style>
    <clipPath id="clip-_404-lite">
      <rect width="259" height="111"/>
    </clipPath>
  </defs>
  <g id="_404-lite" data-name="404-lite" class="cls-1">
    <rect class="cls-11" width="259" height="111"/>
    <g id="Group_66" data-name="Group 66" transform="translate(3 -31.806)">
      <ellipse id="Ellipse_31" data-name="Ellipse 31" class="cls-2" cx="124.458" cy="8.239" rx="124.458" ry="8.239" transform="translate(3.101 121.364)"/>
      <path id="Path_189" data-name="Path 189" class="cls-3" d="M470.666,324.894c-20.278,0-34.837,13.01-34.837,43.365,0,34.4,14.559,43.51,34.837,43.51s35.7-9.974,35.7-43.51C506.37,332.411,490.943,324.894,470.666,324.894Zm.133,75.455c-14.045,0-21.382-8.24-21.382-32.068,0-21.025,7.638-32.113,21.683-32.113s21.683,7.283,21.683,32.113c0,23.228-7.938,32.068-21.983,32.068Z" transform="translate(-347.876 -285.49)"/>
      <path id="Path_190" data-name="Path 190" class="cls-4" d="M180.738,398.828h-8.384V374.14a4.944,4.944,0,0,0-4.944-4.944h-1.965a4.944,4.944,0,0,0-4.944,4.944v24.689H136.852a2.823,2.823,0,0,1-2.5-4.141l25.029-47.372a4.944,4.944,0,0,0-2.26-6.781l-1.478-.7a4.944,4.944,0,0,0-6.472,2.14L118.65,399.082a6.7,6.7,0,0,0-.792,3.161h0a6.7,6.7,0,0,0,6.7,6.7H160.5v15.612a5.927,5.927,0,0,0,5.927,5.927h0a5.927,5.927,0,0,0,5.927-5.927V408.947h8.384a5.059,5.059,0,0,0,5.059-5.059h0a5.059,5.059,0,0,0-5.059-5.059Z" transform="translate(-104.927 -296.545)"/>
      <path id="Path_191" data-name="Path 191" class="cls-4" d="M838.734,398.828H830.35V374.14a4.944,4.944,0,0,0-4.944-4.944h-1.964a4.944,4.944,0,0,0-4.944,4.944v24.689H794.849a2.823,2.823,0,0,1-2.5-4.141l25.029-47.372a4.944,4.944,0,0,0-2.26-6.781l-1.478-.7a4.944,4.944,0,0,0-6.472,2.14l-30.526,57.105a6.7,6.7,0,0,0-.792,3.161h0a6.7,6.7,0,0,0,6.7,6.7H818.5v15.612a5.927,5.927,0,0,0,5.927,5.927h0a5.927,5.927,0,0,0,5.927-5.927V408.947h8.384a5.059,5.059,0,0,0,5.059-5.059h0a5.059,5.059,0,0,0-5.06-5.059Z" transform="translate(-607.677 -296.545)"/>
      <path id="Path_192" data-name="Path 192" class="cls-5" d="M190.541,386.575h-8.384V361.887a4.944,4.944,0,0,0-4.944-4.944h-1.965a4.944,4.944,0,0,0-4.944,4.944v24.688H146.655a2.823,2.823,0,0,1-2.5-4.141l25.029-47.372a4.944,4.944,0,0,0-2.26-6.781l-1.478-.7a4.944,4.944,0,0,0-6.472,2.14l-30.526,57.105a6.7,6.7,0,0,0-.792,3.161h0a6.7,6.7,0,0,0,6.7,6.7H170.3v15.612a5.927,5.927,0,0,0,5.927,5.927h0a5.927,5.927,0,0,0,5.927-5.927V396.694h8.384a5.059,5.059,0,0,0,5.059-5.059h0a5.059,5.059,0,0,0-5.059-5.059Z" transform="translate(-112.417 -287.183)"/>
      <path id="Path_193" data-name="Path 193" class="cls-5" d="M857.114,386.575H848.73V361.887a4.944,4.944,0,0,0-4.944-4.944h-1.964a4.944,4.944,0,0,0-4.944,4.944v24.689H813.228a2.823,2.823,0,0,1-2.5-4.141l25.029-47.372a4.944,4.944,0,0,0-2.26-6.781l-1.477-.7a4.944,4.944,0,0,0-6.472,2.14l-30.526,57.105a6.7,6.7,0,0,0-.792,3.161h0a6.7,6.7,0,0,0,6.7,6.7h35.938v15.612a5.927,5.927,0,0,0,5.927,5.927h0a5.927,5.927,0,0,0,5.927-5.927V396.694h8.384a5.059,5.059,0,0,0,5.059-5.059h0A5.059,5.059,0,0,0,857.114,386.575Z" transform="translate(-621.719 -287.183)"/>
      <path id="Path_194" data-name="Path 194" class="cls-5" d="M490.271,313.866c-20.278,0-34.837,13.01-34.837,43.365,0,34.4,14.559,43.51,34.837,43.51s35.7-9.974,35.7-43.51C525.975,321.383,510.548,313.866,490.271,313.866Zm.133,75.455c-14.045,0-21.382-8.24-21.382-32.068,0-21.025,7.638-32.113,21.683-32.113s21.683,7.283,21.683,32.113c0,23.228-7.938,32.068-21.983,32.068Z" transform="translate(-362.856 -277.064)"/>
      <path id="Path_206" data-name="Path 206" class="cls-6" d="M595.193,163.234l-.111,0a3.043,3.043,0,0,1,0,6.082l.111,0a3.044,3.044,0,1,0,0-6.088Z" transform="translate(-469.555 -161.972)"/>
      <path id="Path_207" data-name="Path 207" class="cls-6" d="M524.338,163.234l.111,0a3.043,3.043,0,0,0,0,6.082l-.111,0a3.044,3.044,0,0,1,0-6.088Z" transform="translate(-413.176 -161.972)"/>
      <path id="Path_209" data-name="Path 209" class="cls-7" d="M674.14,287.535s.767,2.211,1.47,1.622l-.56-2.89Z" transform="translate(-529.96 -255.976)"/>
      <path id="Path_210" data-name="Path 210" class="cls-8" d="M1059.446,546.586a4.911,4.911,0,1,0,.654-9.418l.123,2.527-1.2-2.166a4.892,4.892,0,0,0-2.521,2.766,4.821,4.821,0,0,0-.282,1.328,4.91,4.91,0,0,0,3.222,4.962Z" transform="translate(-821.886 -447.598)"/>
      <path id="Path_211" data-name="Path 211" class="cls-5" d="M1092,562.233c-.422-2.149,1.407-4.055,3.214-5.294s3.918-2.456,4.534-4.558c.886-3.021-1.753-5.788-3.807-8.173a29.567,29.567,0,0,1-3.9-5.794,7.977,7.977,0,0,1-.932-2.635,9.092,9.092,0,0,1,.7-3.949q2.166-6.383,4.631-12.658" transform="translate(-848.527 -433.93)"/>
      <path id="Path_212" data-name="Path 212" class="cls-5" d="M1060.3,543.828a4.911,4.911,0,1,0,.654-9.418l.123,2.527-1.2-2.166a4.892,4.892,0,0,0-2.521,2.766,4.811,4.811,0,0,0-.282,1.328A4.909,4.909,0,0,0,1060.3,543.828Z" transform="translate(-822.535 -445.49)"/>
      <path id="Path_213" data-name="Path 213" class="cls-8" d="M1091.5,505a4.9,4.9,0,0,1,3.534-3.114l.4,2.4.75-2.524A4.91,4.91,0,1,1,1091.5,505Z" transform="translate(-848.619 -420.629)"/>
      <path id="Path_214" data-name="Path 214" class="cls-5" d="M1092.635,501.32a4.9,4.9,0,0,1,3.534-3.114l.4,2.4.75-2.524a4.91,4.91,0,1,1-4.688,3.235Z" transform="translate(-849.49 -417.819)"/>
      <path id="Path_215" data-name="Path 215" class="cls-8" d="M1097.557,594.636a4.91,4.91,0,0,0,4.346-8.735l-.576,1.939-.408-2.431-.012,0a4.91,4.91,0,0,0-3.349,9.232Z" transform="translate(-851.003 -484.309)"/>
      <path id="Path_216" data-name="Path 216" class="cls-5" d="M1098.557,590.911a4.91,4.91,0,0,0,4.346-8.735l-.576,1.939-.408-2.431-.012,0a4.91,4.91,0,1,0-3.349,9.232Z" transform="translate(-851.767 -481.463)"/>
      <path id="Path_217" data-name="Path 217" class="cls-8" d="M1086.136,641.405a4.908,4.908,0,1,0,.946-3.845l2.188,3.293-2.989-1.748A4.864,4.864,0,0,0,1086.136,641.405Z" transform="translate(-844.692 -522.924)"/>
      <path id="Path_218" data-name="Path 218" class="cls-5" d="M1086.986,638.648a4.908,4.908,0,1,0,.946-3.845l2.188,3.293-2.989-1.748A4.864,4.864,0,0,0,1086.986,638.648Z" transform="translate(-845.341 -520.818)"/>
      <path id="Path_219" data-name="Path 219" class="cls-8" d="M65.18,607.865a3.226,3.226,0,1,0,.43-6.187l.081,1.661-.786-1.423a3.214,3.214,0,0,0-1.656,1.817,3.163,3.163,0,0,0-.186.873A3.226,3.226,0,0,0,65.18,607.865Z" transform="translate(-63.054 -496.915)"/>
      <path id="Path_220" data-name="Path 220" class="cls-5" d="M86.57,618.145c-.277-1.412.924-2.664,2.111-3.478s2.574-1.613,2.979-2.994c.582-1.985-1.152-3.8-2.5-5.37A19.424,19.424,0,0,1,86.6,602.5a5.241,5.241,0,0,1-.613-1.731,5.974,5.974,0,0,1,.461-2.594q1.423-4.193,3.043-8.317" transform="translate(-80.556 -487.935)"/>
      <path id="Path_221" data-name="Path 221" class="cls-5" d="M65.743,606.053a3.226,3.226,0,1,0,.43-6.187l.081,1.661-.786-1.423a3.214,3.214,0,0,0-1.656,1.817,3.164,3.164,0,0,0-.186.873A3.226,3.226,0,0,0,65.743,606.053Z" transform="translate(-63.484 -495.531)"/>
      <path id="Path_222" data-name="Path 222" class="cls-8" d="M86.239,580.541a3.223,3.223,0,0,1,2.322-2.046l.266,1.579.492-1.658a3.226,3.226,0,1,1-3.08,2.125Z" transform="translate(-80.621 -479.196)"/>
      <path id="Path_223" data-name="Path 223" class="cls-5" d="M86.99,578.125a3.223,3.223,0,0,1,2.322-2.046l.266,1.579L90.071,576a3.226,3.226,0,1,1-3.08,2.125Z" transform="translate(-81.195 -477.35)"/>
      <path id="Path_224" data-name="Path 224" class="cls-8" d="M90.224,639.435a3.226,3.226,0,0,0,2.855-5.739L92.7,634.97l-.268-1.6-.008,0a3.226,3.226,0,1,0-2.2,6.065Z" transform="translate(-82.188 -521.035)"/>
      <path id="Path_225" data-name="Path 225" class="cls-5" d="M90.875,636.988a3.226,3.226,0,0,0,2.855-5.739l-.378,1.274-.268-1.6-.008,0a3.226,3.226,0,1,0-2.2,6.065Z" transform="translate(-82.685 -519.166)"/>
      <path id="Path_226" data-name="Path 226" class="cls-8" d="M82.715,670.163a3.225,3.225,0,1,0,.622-2.526l1.437,2.163-1.964-1.148A3.2,3.2,0,0,0,82.715,670.163Z" transform="translate(-78.038 -546.406)"/>
      <path id="Path_227" data-name="Path 227" class="cls-5" d="M83.279,668.351a3.225,3.225,0,1,0,.622-2.526l1.437,2.164-1.964-1.148A3.2,3.2,0,0,0,83.279,668.351Z" transform="translate(-78.469 -545.022)"/>
      <ellipse id="Ellipse_36" data-name="Ellipse 36" class="cls-3" cx="4.011" cy="5.191" rx="4.011" ry="5.191" transform="translate(109.464 70.101)"/>
      <ellipse id="Ellipse_37" data-name="Ellipse 37" class="cls-3" cx="4.011" cy="5.191" rx="4.011" ry="5.191" transform="translate(131.288 70.219)"/>
      <path id="Path_228" data-name="Path 228" class="cls-3" d="M576.128,528.747c0,2.345-3.275,4.247-7.314,4.247s-7.314-1.9-7.314-4.247c0-2.031,2.456-3.73,5.738-4.145a11.825,11.825,0,0,1,1.576-.1,11.959,11.959,0,0,1,2.626.283C574.182,525.394,576.128,526.939,576.128,528.747Z" transform="translate(-443.896 -438.001)"/>
      <ellipse id="Ellipse_38" data-name="Ellipse 38" class="cls-5" cx="4.011" cy="5.191" rx="4.011" ry="5.191" transform="translate(110.407 68.922)"/>
      <ellipse id="Ellipse_39" data-name="Ellipse 39" class="cls-5" cx="4.011" cy="5.191" rx="4.011" ry="5.191" transform="translate(132.232 69.04)"/>
      <ellipse id="Ellipse_40" data-name="Ellipse 40" class="cls-5" cx="7.314" cy="4.247" rx="7.314" ry="4.247" transform="translate(118.547 85.32)"/>
      <path id="Path_229" data-name="Path 229" class="cls-9" d="M589.481,524.755a1.164,1.164,0,0,1-.311.8,1.024,1.024,0,0,1-.75.332H586.06A1.1,1.1,0,0,1,585,524.755a1.157,1.157,0,0,1,.193-.647,11.087,11.087,0,0,1,1.576-.108,11.245,11.245,0,0,1,2.626.3A1.2,1.2,0,0,1,589.481,524.755Z" transform="translate(-461.85 -437.619)"/>
      <circle id="Ellipse_41" data-name="Ellipse 41" class="cls-9" cx="1.18" cy="1.18" r="1.18" transform="translate(113.239 71.517)"/>
      <circle id="Ellipse_42" data-name="Ellipse 42" class="cls-9" cx="1.18" cy="1.18" r="1.18" transform="translate(135.181 71.517)"/>
      <circle id="Ellipse_43" data-name="Ellipse 43" class="cls-10" cx="1.18" cy="1.18" r="1.18" transform="translate(136.361 82.606)"/>
      <circle id="Ellipse_44" data-name="Ellipse 44" class="cls-10" cx="1.18" cy="1.18" r="1.18" transform="translate(107.576 82.606)"/>
    </g>
  </g>
</svg>
