<svg xmlns="http://www.w3.org/2000/svg" xmlns:xlink="http://www.w3.org/1999/xlink" width="291" height="198" viewBox="0 0 291 198">
  <defs>
    <style>
      .cls-1 {
        clip-path: url(#clip-accessForbidden-dark);
      }

      .cls-2, .cls-7 {
        fill: #fff;
      }

      .cls-2 {
        opacity: 0.53;
      }

      .cls-3 {
        fill: #3f51b5;
      }

      .cls-4 {
        fill: #303030;
      }

      .cls-5 {
        fill: #444053;
      }

      .cls-6 {
        fill: #3f3d56;
      }

      .cls-8 {
        fill: #fa5959;
      }

      .cls-10, .cls-8, .cls-9 {
        opacity: 0.8;
      }

      .cls-9 {
        fill: #fed253;
      }

      .cls-10 {
        fill: #8ccf4d;
      }

      .cls-11 {
        opacity: 0.05;
      }

      .cls-12 {
        fill: #505050;
      }

      .cls-13 {
        fill: #878787;
      }

      .cls-14 {
        fill: #959595;
      }

      .cls-15 {
        fill: url(#linear-gradient);
      }

      .cls-16 {
        fill: #fbbebe;
      }

      .cls-17, .cls-20 {
        opacity: 0.1;
      }

      .cls-18 {
        fill: #c5c5c5;
      }

      .cls-19 {
        fill: #33313f;
      }

      .cls-21 {
        fill: rgba(255,255,255,0);
      }
    </style>
    <linearGradient id="linear-gradient" y1="0.5" x2="1" y2="0.5" gradientUnits="objectBoundingBox">
      <stop offset="0" stop-color="gray" stop-opacity="0.251"/>
      <stop offset="0.54" stop-color="gray" stop-opacity="0.122"/>
      <stop offset="1" stop-color="gray" stop-opacity="0.102"/>
    </linearGradient>
    <clipPath id="clip-accessForbidden-dark">
      <rect width="291" height="198"/>
    </clipPath>
  </defs>
  <g id="accessForbidden-dark" class="cls-1">
    <rect class="cls-21" width="291" height="198"/>
    <g id="Group_65" data-name="Group 65" transform="translate(6 4.511)">
      <path id="Path_116" data-name="Path 116" class="cls-2" d="M174.253,73.6c-17.831.024-34.993-5.031-51.409-10.646s-32.706-11.9-50.2-14.567c-11.254-1.713-24.052-1.555-32.849,4.663-8.468,5.982-10.92,15.884-12.1,25.032-.89,6.882-1.3,14.1,2.032,20.4,2.314,4.37,6.274,7.972,9.064,12.137,9.742,14.489,3.883,33-5.584,47.822-4.439,6.956-9.639,13.623-13,20.977s-4.733,15.693-1.31,22.952c3.392,7.194,11.054,12.416,19.276,15.982,16.7,7.256,36.138,8.812,55.057,9.41,41.877,1.329,83.836-1.381,125.682-4.091,15.486-1,31.041-2.011,46.207-4.914,8.42-1.61,17.091-4,23.062-9.238,7.578-6.65,9.129-17.509,3.614-25.313-9.248-13.091-33.634-15.56-40.265-29.724-3.657-7.8-.5-16.74,4.141-24.257,9.961-16.127,27.107-30.573,27.4-48.611.2-12.387-8.719-24.471-22.036-29.855-13.959-5.639-32.992-4.189-42.772,6.321C208.2,68.907,190,73.585,174.253,73.6Z" transform="translate(-16.91 -47.46)"/>
      <path id="Path_117" data-name="Path 117" class="cls-3" d="M990.807,689.46s-2.932-1.935-5.837-.558c0,0,.895,1.722,4.573,1.56Z" transform="translate(-754.052 -535.523)"/>
      <path id="Path_118" data-name="Path 118" class="cls-3" d="M1004.8,693.25s.892,3.4-1.345,5.708c0,0-1.345-1.4,0-4.83Z" transform="translate(-767.67 -539.21)"/>
      <path id="Path_119" data-name="Path 119" class="cls-3" d="M1004.761,672.8s-.217-2.889-6.741-1.93a3.112,3.112,0,0,0,2.259,2.746A3.768,3.768,0,0,0,1004.761,672.8Z" transform="translate(-763.99 -522.018)"/>
      <path id="Path_120" data-name="Path 120" class="cls-3" d="M1021.894,679.5s2.757.885.3,7a3.12,3.12,0,0,1-2.147-2.841A3.74,3.74,0,0,1,1021.894,679.5Z" transform="translate(-780.712 -528.74)"/>
      <path id="Path_121" data-name="Path 121" class="cls-3" d="M1023.32,648.586s.375-4.754-6.293-4.267c0,0-.477,4.294,5.117,5.41Z" transform="translate(-778.455 -501.924)"/>
      <path id="Path_122" data-name="Path 122" class="cls-3" d="M1037.718,626.79s-.914-5.389-7.578-3.783c0,0-.024,4.659,6.49,5.066Z" transform="translate(-788.448 -485.495)"/>
      <path id="Path_123" data-name="Path 123" class="cls-4" d="M1049.444,603.883s-1.531-5.248-8.134-3.678c0,0,1.572,4.721,7.7,4.647Z" transform="translate(-796.953 -468.136)"/>
      <path id="Path_124" data-name="Path 124" class="cls-4" d="M1063.1,580.686s-1.5-5.446-7.872-3.817c0,0,2.128,5.174,7.449,4.737Z" transform="translate(-807.553 -450.359)"/>
      <path id="Path_125" data-name="Path 125" class="cls-4" d="M1073.844,555.026s-1.15-6.66-7.094-5.186c0,0,1.727,6.059,6.658,6.157Z" transform="translate(-816.325 -429.846)"/>
      <path id="Path_126" data-name="Path 126" class="cls-4" d="M1080.635,529.835s-1.381-6.712-7.395-4.771c0,0,2.357,6.345,6.968,5.689Z" transform="translate(-821.267 -410.875)"/>
      <path id="Path_127" data-name="Path 127" class="cls-4" d="M1087.161,501.062s-2.192-6.715-6.841-6.534c0,0,2.24,7.092,6.452,7.872Z" transform="translate(-826.658 -387.888)"/>
      <path id="Path_128" data-name="Path 128" class="cls-4" d="M1092.389,474.33s-2.385-8.082-6.169-7.459c0,0,1.651,6.178,6.035,8.718Z" transform="translate(-831.151 -366.805)"/>
      <path id="Path_129" data-name="Path 129" class="cls-4" d="M1094.783,447.643s-2.237-6.734-5.963-7c0,0,1.522,6.627,5.889,8.754Z" transform="translate(-833.13 -346.857)"/>
      <path id="Path_130" data-name="Path 130" class="cls-4" d="M1098.958,421.634s-2.789-6.741-5.248-6.894c0,0,1.212,6.638,5.009,8Z" transform="translate(-836.854 -327.135)"/>
      <path id="Path_131" data-name="Path 131" class="cls-4" d="M1103.659,393.809s-1.715-7.321-4.179-7.929c0,0,.336,5.99,3.931,8.478Z" transform="translate(-841.247 -305.159)"/>
      <path id="Path_132" data-name="Path 132" class="cls-4" d="M1108.77,365.527s-1.8-5.837-3.8-6.727c0,0,.393,6.882,3.339,8.153Z" transform="translate(-845.428 -284.539)"/>
      <path id="Path_133" data-name="Path 133" class="cls-4" d="M1119.338,333.15l.363-10.29s-3.733,7.757-.632,12.1Z" transform="translate(-855.226 -257.172)"/>
      <path id="Path_134" data-name="Path 134" class="cls-4" d="M1131.574,297.764s2.688-7.514,3.34-7.934c0,0-5.272,4.876-4.756,11.147Z" transform="translate(-864.58 -232.02)"/>
      <path id="Path_135" data-name="Path 135" class="cls-3" d="M1040.75,662.122s4.728-.618,4.587,6.064c0,0-4.272.7-5.668-4.83Z" transform="translate(-795.704 -515.496)"/>
      <path id="Path_136" data-name="Path 136" class="cls-4" d="M1059.37,639.06s5.463-.017,5.009,6.822c0,0-4.587.82-6.1-5.529Z" transform="translate(-809.875 -497.946)"/>
      <path id="Path_137" data-name="Path 137" class="cls-4" d="M1074.229,617s4.959-2.326,8.132,3.678c0,0-4.58,1.937-8.571-2.707Z" transform="translate(-821.686 -480.807)"/>
      <path id="Path_138" data-name="Path 138" class="cls-4" d="M1087.35,592.4s5.079-2.474,8.06,3.39c0,0-5.291,1.822-8.48-2.462Z" transform="translate(-831.691 -462.019)"/>
      <path id="Path_139" data-name="Path 139" class="cls-4" d="M1095.5,566.3s4.888-4.668,8.788.052c0,0-4.993,3.843-9.012.988Z" transform="translate(-838.049 -440.971)"/>
      <path id="Path_140" data-name="Path 140" class="cls-4" d="M1102.516,538.954s4.916-4.771,8.785.219c0,0-5.517,3.919-8.962.782Z" transform="translate(-843.425 -420.154)"/>
      <path id="Path_141" data-name="Path 141" class="cls-4" d="M1106.93,505.724s3.788-5.963,8.248-4.632c0,0-3.931,6.314-8.206,6.033Z" transform="translate(-846.921 -392.741)"/>
      <path id="Path_142" data-name="Path 142" class="cls-4" d="M1111.3,477.8s3.817-7.509,7.428-6.2c0,0-2.753,5.773-7.526,7.469Z" transform="translate(-850.172 -370.317)"/>
      <path id="Path_143" data-name="Path 143" class="cls-4" d="M1111.5,451.6s3.924-5.911,7.6-5.188c0,0-3.208,5.994-7.981,6.9Z" transform="translate(-850.111 -351.207)"/>
      <path id="Path_144" data-name="Path 144" class="cls-4" d="M1114,421.769s3.041-6.634,5.513-6.679c0,0-1.46,6.586-5.307,7.8Z" transform="translate(-852.304 -327.401)"/>
      <path id="Path_145" data-name="Path 145" class="cls-4" d="M1116.5,397.031s3.38-6.717,5.92-6.731c0,0-1.729,5.744-5.808,7.321Z" transform="translate(-854.208 -308.525)"/>
      <path id="Path_146" data-name="Path 146" class="cls-4" d="M1118.63,369.008s2.528-5.558,4.623-6.188c0,0-1.264,6.774-4.344,7.662Z" transform="translate(-855.83 -287.6)"/>
      <path id="Path_147" data-name="Path 147" class="cls-4" d="M1122.755,337.669l5.651-8.609s-1.448,8.492-6.476,10.257Z" transform="translate(-858.342 -261.893)"/>
      <path id="Path_148" data-name="Path 148" class="cls-4" d="M1132.916,309.194s6.567-4.532,6.805-5.265c0,0-3.34,6.347-9.541,7.469Z" transform="translate(-864.625 -242.757)"/>
      <path id="Path_149" data-name="Path 149" class="cls-4" d="M1142.721,294.332s7.54-7.249,9.465-7.242a12.308,12.308,0,0,0-9.646,6.855Z" transform="translate(-874.036 -229.934)"/>
      <path id="Path_150" data-name="Path 150" class="cls-5" d="M1118.94,333.632l.274.036c1.417-11.09,3.483-17.652,5.816-18.456l-.091-.262C1122.466,315.809,1120.385,322.271,1118.94,333.632Z" transform="translate(-856.066 -251.148)"/>
      <path id="Path_151" data-name="Path 151" class="cls-5" d="M1110.2,417.163l.415.033c.088-1.035.155-2.094.2-3.151.4-9.179,1.009-17.609,1.815-23.928l-.238-.3c-.809,6.333-1.6,15.016-1.992,24.209C1110.355,415.079,1110.288,416.133,1110.2,417.163Z" transform="translate(-849.411 -308.159)"/>
      <path id="Path_152" data-name="Path 152" class="cls-5" d="M976.284,552.146a54.036,54.036,0,0,0,14.961-11.075,60.17,60.17,0,0,0,10.937-15.5,70.238,70.238,0,0,0,6.359-24.436l-.432.2c-1.61,19.131-10.319,32.2-17.244,39.323a53.468,53.468,0,0,1-14.806,10.973Z" transform="translate(-747.268 -392.918)"/>
      <path id="Path_153" data-name="Path 153" class="cls-6" d="M318.117,132.69H88.912a2.042,2.042,0,0,0-2.042,2.042v5.949H320.159v-5.949A2.042,2.042,0,0,0,318.117,132.69Z" transform="translate(-70.182 -112.364)"/>
      <path id="Path_154" data-name="Path 154" class="cls-7" d="M86.87,166.19V300.066a4.117,4.117,0,0,0,4.117,4.117H316.041a4.117,4.117,0,0,0,4.117-4.117V166.19Z" transform="translate(-70.182 -137.873)"/>
      <circle id="Ellipse_26" data-name="Ellipse 26" class="cls-8" cx="0.954" cy="0.954" r="0.954" transform="translate(19.429 23.308)"/>
      <circle id="Ellipse_27" data-name="Ellipse 27" class="cls-9" cx="0.954" cy="0.954" r="0.954" transform="translate(22.053 23.308)"/>
      <circle id="Ellipse_28" data-name="Ellipse 28" class="cls-10" cx="0.954" cy="0.954" r="0.954" transform="translate(24.677 23.308)"/>
      <rect id="Rectangle_47" data-name="Rectangle 47" class="cls-11" width="187.49" height="82.443" transform="translate(38.373 50.639)"/>
      <rect id="Rectangle_48" data-name="Rectangle 48" class="cls-12" width="184.627" height="80.625" transform="translate(39.805 51.264)"/>
      <path id="Path_155" data-name="Path 155" class="cls-3" d="M336.147,349.38a18.367,18.367,0,1,0,18.367,18.367A18.367,18.367,0,0,0,336.147,349.38Zm3.294,18.809v8.7h-6.493v-8.7a5.379,5.379,0,1,1,6.493,0Z" transform="translate(-246.012 -277.366)"/>
      <path id="Path_156" data-name="Path 156" class="cls-13" d="M336.147,349.38a18.367,18.367,0,1,0,18.367,18.367A18.367,18.367,0,0,0,336.147,349.38Zm3.294,18.809v8.7h-6.493v-8.7a5.379,5.379,0,1,1,6.493,0Z" transform="translate(-246.012 -277.366)"/>
      <path id="Path_157" data-name="Path 157" class="cls-14" d="M319.4,327.38A23.615,23.615,0,1,0,343.01,351,23.615,23.615,0,0,0,319.4,327.38Zm4.234,24.183v11.18H315.28v-11.18a6.918,6.918,0,1,1,8.349,0Z" transform="translate(-229.259 -261.613)"/>
      <rect id="Rectangle_49" data-name="Rectangle 49" class="cls-7" width="76.332" height="8.11" transform="translate(123.531 87.283)"/>
      <rect id="Rectangle_50" data-name="Rectangle 50" class="cls-14" width="16.459" height="8.11" transform="translate(183.403 102.072)"/>
      <path id="Path_158" data-name="Path 158" class="cls-14" d="M555.239,424.55h-1.381l1.229-1.226a.122.122,0,0,0,0-.169.119.119,0,0,0-.169,0l-1.228,1.228V423a.119.119,0,0,0-.119-.119.122.122,0,0,0-.119.119v1.383l-1.226-1.236a.119.119,0,0,0-.169,0,.122.122,0,0,0,0,.169l1.228,1.226H551.9a.122.122,0,0,0-.119.119.119.119,0,0,0,.119.119h1.383l-1.228,1.229a.122.122,0,0,0,0,.169.124.124,0,0,0,.169,0l1.226-1.229v1.381a.119.119,0,1,0,.239,0V424.95l1.228,1.229a.124.124,0,0,0,.169,0,.122.122,0,0,0,0-.169l-1.229-1.229h1.381a.116.116,0,1,0,0-.231Z" transform="translate(-424.194 -333.333)"/>
      <path id="Path_159" data-name="Path 159" class="cls-14" d="M576.239,424.55h-1.381l1.229-1.226a.122.122,0,0,0,0-.169.119.119,0,0,0-.169,0l-1.228,1.228V423a.119.119,0,0,0-.119-.119.122.122,0,0,0-.119.119v1.383l-1.226-1.236a.119.119,0,0,0-.169,0,.122.122,0,0,0,0,.169l1.228,1.226H572.9a.122.122,0,0,0-.119.119.119.119,0,0,0,.119.119h1.383l-1.228,1.229a.122.122,0,0,0,0,.169.124.124,0,0,0,.169,0l1.226-1.229v1.381a.119.119,0,1,0,.239,0V424.95l1.228,1.229a.124.124,0,0,0,.169,0,.122.122,0,0,0,0-.169l-1.229-1.229h1.381a.116.116,0,1,0,0-.231Z" transform="translate(-440.185 -333.333)"/>
      <path id="Path_160" data-name="Path 160" class="cls-14" d="M597.239,424.55h-1.381l1.229-1.226a.122.122,0,0,0,0-.169.119.119,0,0,0-.169,0l-1.228,1.228V423a.119.119,0,0,0-.119-.119.122.122,0,0,0-.119.119v1.383l-1.226-1.236a.119.119,0,0,0-.169,0,.122.122,0,0,0,0,.169l1.229,1.226H593.9a.122.122,0,0,0-.119.119.119.119,0,0,0,.119.119h1.384l-1.229,1.229a.122.122,0,0,0,0,.169.124.124,0,0,0,.169,0l1.226-1.229v1.381a.119.119,0,1,0,.239,0V424.95l1.228,1.229a.124.124,0,0,0,.169,0,.122.122,0,0,0,0-.169l-1.229-1.229h1.381a.116.116,0,1,0,0-.231Z" transform="translate(-456.175 -333.333)"/>
      <path id="Path_161" data-name="Path 161" class="cls-14" d="M618.239,424.55h-1.381l1.228-1.226a.122.122,0,0,0,0-.169.119.119,0,0,0-.169,0l-1.228,1.228V423a.119.119,0,0,0-.119-.119.121.121,0,0,0-.119.119v1.383l-1.226-1.236a.119.119,0,0,0-.169,0,.122.122,0,0,0,0,.169l1.228,1.226H614.9a.122.122,0,0,0-.119.119.119.119,0,0,0,.119.119h1.383l-1.228,1.229a.122.122,0,0,0,0,.169.124.124,0,0,0,.169,0l1.226-1.229v1.381a.119.119,0,1,0,.238,0V424.95l1.229,1.229a.124.124,0,0,0,.169,0,.122.122,0,0,0,0-.169l-1.228-1.229h1.381a.116.116,0,1,0,0-.231Z" transform="translate(-472.166 -333.333)"/>
      <path id="Path_162" data-name="Path 162" class="cls-14" d="M639.239,424.55h-1.381l1.228-1.226a.122.122,0,0,0,0-.169.119.119,0,0,0-.169,0l-1.228,1.228V423a.119.119,0,0,0-.119-.119.122.122,0,0,0-.119.119v1.383l-1.226-1.236a.119.119,0,0,0-.169,0,.122.122,0,0,0,0,.169l1.229,1.226H635.9a.122.122,0,0,0-.119.119.119.119,0,0,0,.119.119h1.384l-1.229,1.229a.122.122,0,0,0,0,.169.124.124,0,0,0,.169,0l1.226-1.229v1.381a.119.119,0,1,0,.239,0V424.95l1.228,1.229a.124.124,0,0,0,.169,0,.122.122,0,0,0,0-.169l-1.228-1.229h1.381a.116.116,0,1,0,0-.231Z" transform="translate(-488.157 -333.333)"/>
      <path id="Path_163" data-name="Path 163" class="cls-14" d="M660.239,424.55h-1.381l1.229-1.226a.122.122,0,0,0,0-.169.119.119,0,0,0-.169,0l-1.229,1.228V423a.119.119,0,0,0-.119-.119.122.122,0,0,0-.119.119v1.383l-1.226-1.236a.119.119,0,0,0-.169,0,.122.122,0,0,0,0,.169l1.228,1.226H656.9a.122.122,0,0,0-.119.119.119.119,0,0,0,.119.119h1.383l-1.228,1.229a.122.122,0,0,0,0,.169.124.124,0,0,0,.169,0l1.226-1.229v1.381a.119.119,0,1,0,.239,0V424.95l1.229,1.229a.124.124,0,0,0,.169,0,.122.122,0,0,0,0-.169l-1.229-1.229h1.381a.116.116,0,1,0,0-.231Z" transform="translate(-504.148 -333.333)"/>
      <path id="Path_164" data-name="Path 164" class="cls-14" d="M681.239,424.55h-1.381l1.228-1.226a.122.122,0,0,0,0-.169.119.119,0,0,0-.169,0l-1.228,1.228V423a.119.119,0,0,0-.119-.119.122.122,0,0,0-.119.119v1.383l-1.226-1.236a.119.119,0,0,0-.169,0,.122.122,0,0,0,0,.169l1.228,1.226H677.9a.122.122,0,0,0-.119.119.119.119,0,0,0,.119.119h1.383l-1.228,1.229a.122.122,0,0,0,0,.169.124.124,0,0,0,.169,0l1.226-1.229v1.381a.119.119,0,1,0,.239,0V424.95l1.228,1.229a.124.124,0,0,0,.169,0,.122.122,0,0,0,0-.169l-1.228-1.229h1.381a.116.116,0,1,0,0-.231Z" transform="translate(-520.138 -333.333)"/>
      <path id="Path_165" data-name="Path 165" class="cls-14" d="M702.239,424.55h-1.381l1.229-1.226a.122.122,0,0,0,0-.169.119.119,0,0,0-.169,0l-1.228,1.228V423a.119.119,0,0,0-.119-.119.122.122,0,0,0-.119.119v1.383l-1.226-1.236a.12.12,0,0,0-.169,0,.122.122,0,0,0,0,.169l1.229,1.226H698.9a.122.122,0,0,0-.119.119.119.119,0,0,0,.119.119h1.384l-1.229,1.229a.122.122,0,0,0,0,.169.124.124,0,0,0,.169,0l1.226-1.229v1.381a.119.119,0,1,0,.239,0V424.95l1.228,1.229a.124.124,0,0,0,.169,0,.122.122,0,0,0,0-.169l-1.229-1.229h1.381a.116.116,0,1,0,0-.231Z" transform="translate(-536.129 -333.333)"/>
      <path id="Path_166" data-name="Path 166" class="cls-14" d="M723.239,424.55h-1.381l1.228-1.226a.122.122,0,0,0,0-.169.119.119,0,0,0-.169,0l-1.228,1.228V423a.119.119,0,0,0-.119-.119.122.122,0,0,0-.119.119v1.383l-1.226-1.236a.119.119,0,0,0-.169,0,.122.122,0,0,0,0,.169l1.228,1.226H719.9a.122.122,0,0,0-.119.119.119.119,0,0,0,.119.119h1.383l-1.228,1.229a.122.122,0,0,0,0,.169.124.124,0,0,0,.169,0l1.226-1.229v1.381a.119.119,0,1,0,.239,0V424.95l1.228,1.229a.124.124,0,0,0,.169,0,.122.122,0,0,0,0-.169l-1.228-1.229h1.381a.116.116,0,1,0,0-.231Z" transform="translate(-552.12 -333.333)"/>
      <path id="Path_167" data-name="Path 167" class="cls-14" d="M744.239,424.55h-1.381l1.228-1.226a.122.122,0,0,0,0-.169.119.119,0,0,0-.169,0l-1.228,1.228V423a.119.119,0,0,0-.119-.119.122.122,0,0,0-.119.119v1.383l-1.226-1.236a.119.119,0,0,0-.169,0,.122.122,0,0,0,0,.169l1.229,1.226H740.9a.122.122,0,0,0-.119.119.119.119,0,0,0,.119.119h1.384l-1.229,1.229a.122.122,0,0,0,0,.169.124.124,0,0,0,.169,0l1.226-1.229v1.381a.119.119,0,1,0,.239,0V424.95l1.228,1.229a.124.124,0,0,0,.169,0,.122.122,0,0,0,0-.169l-1.228-1.229h1.381a.116.116,0,1,0,0-.231Z" transform="translate(-568.111 -333.333)"/>
      <path id="Path_168" data-name="Path 168" class="cls-14" d="M765.239,424.55h-1.381l1.229-1.226a.122.122,0,0,0,0-.169.119.119,0,0,0-.169,0l-1.228,1.228V423a.119.119,0,0,0-.119-.119.122.122,0,0,0-.119.119v1.383l-1.226-1.236a.12.12,0,0,0-.169,0,.122.122,0,0,0,0,.169l1.229,1.226H761.9a.122.122,0,0,0-.119.119.119.119,0,0,0,.119.119h1.384l-1.229,1.229a.122.122,0,0,0,0,.169.124.124,0,0,0,.169,0l1.226-1.229v1.381a.119.119,0,1,0,.239,0V424.95l1.228,1.229a.124.124,0,0,0,.169,0,.122.122,0,0,0,0-.169l-1.229-1.229h1.381a.116.116,0,1,0,0-.231Z" transform="translate(-584.101 -333.333)"/>
      <path id="Path_169" data-name="Path 169" class="cls-15" d="M821.661,487.433a4.273,4.273,0,0,0-.107-.856,2.781,2.781,0,0,0-1.5-2.025,12.547,12.547,0,0,1-2.371-1c-.143-2.557.444-5.174-.2-7.652a19.465,19.465,0,0,1-.737-2.7c-.131-1.155.184-2.385-.277-3.449A3.4,3.4,0,0,0,814.461,468a10.742,10.742,0,0,0-2.688-.477c-1.145-.093-4.852-.532-6.145.491h0a1.346,1.346,0,0,0-.238.239h0a.946.946,0,0,0-.076.124l-.012.019a.975.975,0,0,0-.064.155h0a1.2,1.2,0,0,0-.04.179v.429c.017.215.048.429.048.642a1.381,1.381,0,0,1-.029.315,2.2,2.2,0,0,1-.4.773h0l-.043.062c-.026.038-.053.074-.076.112s-.043.067-.062.1-.038.055-.055.086a1.166,1.166,0,0,0-.062.122c0,.024-.026.045-.036.069a1.172,1.172,0,0,0-.072.2,1.331,1.331,0,0,0-.014.634,2.359,2.359,0,0,0,.327.751c.06.1.124.193.191.289l.167.227a5.149,5.149,0,0,0-.05.668,4.935,4.935,0,0,0,1.884,3.878,14.613,14.613,0,0,1-.03,3.028c-.022.21-.048.422-.076.632s-.05.348-.079.522a2.42,2.42,0,0,1-1.042-.079,4.911,4.911,0,0,0-.477-.184c-.694-.174-1.4.518-2.09.308a.28.28,0,0,1-.031.1.936.936,0,0,0-.477-.141,1.74,1.74,0,0,1-1.035-.594l-.909-.856a1.007,1.007,0,0,1-.157-.177,1.237,1.237,0,0,1-.11-.293,3.381,3.381,0,0,0-.88-1.262.6.6,0,0,0-.26-.188.4.4,0,0,0-.119,0,1.049,1.049,0,0,0-.079-.1,2.239,2.239,0,0,0-.2-.2c-.434-.4-.477-.744-.854-1.193a11.448,11.448,0,0,1-.892-1.348c-.031-.25-.074-.508-.126-.768a9.882,9.882,0,0,0-.522-1.741L796,472.5l-.055.055c-.346-.515-.716-.8-1.047-.73-.556.114-.83,1.193-.742,2.6l.191,1.431a.442.442,0,0,0,.026.107,2.637,2.637,0,0,0-.052.515c0,.2.186.348.284.527a1.491,1.491,0,0,1,.239.813c-.012.1-.043.2-.048.3a1.157,1.157,0,0,0,.224.62l1.193,2,.239.42.014.019a1.018,1.018,0,0,0,.32.367,4.368,4.368,0,0,0,.394,1.448c.041.091.086.177.134.262a8.437,8.437,0,0,0,1.126,1.462l.568.637c.561.625,1.121,1.252,1.729,1.83a2.318,2.318,0,0,0,.773.541.875.875,0,0,0,.868-.126v.887a.5.5,0,0,1,.377.785,19.672,19.672,0,0,1-1.765,3.736,7.95,7.95,0,0,1,1.479,1.128,6.653,6.653,0,0,1,.77,1.042c.021.177.038.351.048.525.176,2.843-.923,5.665-1.908,8.375a6.526,6.526,0,0,0-.57,2.371,4.655,4.655,0,0,0-.534.384,3.536,3.536,0,0,1,.1,1.512,2.679,2.679,0,0,1-.2.954,6.757,6.757,0,0,1-.343.613,9.1,9.1,0,0,0-.878,3.63c-.074.751.217,1.67-.124,2.342a9.582,9.582,0,0,0-1.193,3.669,3.68,3.68,0,0,1-.11.856c-.074.239-.205.441-.272.675a2.886,2.886,0,0,0-.048.954,9.13,9.13,0,0,1-.5,3.366,4.576,4.576,0,0,0-.394,2.638,3.719,3.719,0,0,0-1.009,2.216,3.5,3.5,0,0,1-.076.632,3.081,3.081,0,0,1-.286.608,5.323,5.323,0,0,0-.649,2.863A7.963,7.963,0,0,0,793,537.728c-.212,1.19-.305,2.4-.577,3.578a33.353,33.353,0,0,0-1.147,4.721,3.325,3.325,0,0,0-1.255,2.354,10.473,10.473,0,0,1-.551,2.688c-.2.434-.477.823-.663,1.267a5.816,5.816,0,0,0-.286,1.09,4.253,4.253,0,0,0-.074,1.789,2.693,2.693,0,0,1-.7.532c.038-.148.069-.3.1-.446-.615.558-1.732.363-2.223,1.033a1.007,1.007,0,0,0,.239,1.381,1.912,1.912,0,0,0,.494.212,7.891,7.891,0,0,0,3.645.563,1.086,1.086,0,0,0,.413-.131,1.327,1.327,0,0,0,.384-.444c.184-.291.367-.582.549-.873a11.333,11.333,0,0,0,1.338.313c.045.382.079.763.1,1.145.239.048.558.062.67-.16a.581.581,0,0,0,.041-.265c0-.169.024-.394.038-.623h.048a4.533,4.533,0,0,0,2.111-.427c-.255-2.113.587-4.179,1.317-6.178.771-2.1,1.431-4.246,2.1-6.388.477-1.508,1-2.967,1.472-4.477q.883-2.862,1.772-5.725c.258-.84.518-1.67.813-2.5a39.021,39.021,0,0,1,2.211-4.921c.239-.451.477-.9.673-1.364.238-.57.408-1.166.6-1.756a27.2,27.2,0,0,1,1.5-3.526c.017-.031.029-.06.045-.088.193.79.386,1.591.515,2.385a9.064,9.064,0,0,1,.041,2.948,9.718,9.718,0,0,0-.305,2,12.342,12.342,0,0,0,.78,2.679,10.191,10.191,0,0,1,.267,2.051c.067,1.073.649,2.278.239,3.273-1.276,3.151-.658,6.71-1.386,10.018-.374,1.7-1.522,3.294-1.431,5.031q.1,1.849.324,3.688a3.509,3.509,0,0,0,.3,1.119,4.092,4.092,0,0,0,.327.534c-.1.041-.193.148-.27.375a1.472,1.472,0,0,0,.53,1.67,2.317,2.317,0,0,0,.689.238,3.629,3.629,0,0,0,1,.138,2.338,2.338,0,0,0,.313-.038,11.4,11.4,0,0,0,1.128.406,2.467,2.467,0,0,0,.031.293.366.366,0,0,0,.124.27.373.373,0,0,0,.191.033h1.3v-.324a1.066,1.066,0,0,0,.823-.267,1.273,1.273,0,0,0,.239-.5q.53-1.8,1.052-3.595a11.493,11.493,0,0,0,.513-4.1c-.46-4.4.551-8.807.222-13.215a31.651,31.651,0,0,1,.406-7.929c.107-.592.238-1.193.286-1.782.1-1.112-.024-2.235.055-3.34.026-.386.079-.771.126-1.155a55.457,55.457,0,0,0,.513-7.192,22.643,22.643,0,0,0-.148-2.385,1.362,1.362,0,0,0,.651-.382,1.623,1.623,0,0,0,.155-1.019,7.384,7.384,0,0,1,.642-2.438,28.967,28.967,0,0,0,.9-3.354,11.711,11.711,0,0,0,.4-2.8q0-.143-.014-.286a.74.74,0,0,0,.22-.239,1.385,1.385,0,0,0,.114-.441c.086-.608.174-1.219.26-1.83q.1-.656.188-1.31l.759-5.293c.064-.46.131-.918.2-1.376l.2-1.369c.021-.162.045-.324.062-.477C822.278,489.837,821.722,488.54,821.661,487.433Zm-6.328,19.818a4.359,4.359,0,0,1-.477-2.073h-.026a1.064,1.064,0,0,0-.031-.673c-.074-.174-.2-.322-.281-.5a1.818,1.818,0,0,1-.129-.668,18.216,18.216,0,0,1,.341-4.327c.031-.167.064-.336.1-.5a1.245,1.245,0,0,0,.272-.212,1.932,1.932,0,0,0,.308-.477c.27-.541.515-1.092.742-1.653.074-.181.181-.391.365-.437a10.473,10.473,0,0,1-.463,4.079,2.583,2.583,0,0,0-.239.644c-.052.355.1.716.043,1.069-.026.184-.1.353-.136.534a.522.522,0,0,0,.138.506.418.418,0,0,0,.1.052c-.014.1-.026.193-.036.286-.019.2-.029.379-.041.494a15.4,15.4,0,0,0-.065,1.756c0,.632.024,1.264.014,1.908a1.3,1.3,0,0,1-.091.541.94.94,0,0,1-.181.239A6.2,6.2,0,0,0,815.332,507.251Z" transform="translate(-602.121 -367.199)"/>
      <ellipse id="Ellipse_29" data-name="Ellipse 29" class="cls-16" cx="1.345" cy="3.809" rx="1.345" ry="3.809" transform="matrix(0.98, -0.201, 0.201, 0.98, 191.536, 105.181)"/>
      <path id="Path_170" data-name="Path 170" class="cls-6" d="M878.163,836.656a1.444,1.444,0,0,0,.529,1.653,2.356,2.356,0,0,0,.685.239,3.615,3.615,0,0,0,.995.136c.413-.019.809-.181,1.221-.239a.19.19,0,0,1,.141.019.2.2,0,0,1,.052.167,6.315,6.315,0,0,0,.052.7.36.36,0,0,0,.124.27.372.372,0,0,0,.191.033h1.293a12.606,12.606,0,0,0-.37-3.373.752.752,0,0,0-.1-.239.79.79,0,0,0-.413-.239,2.307,2.307,0,0,0-1-.174,2.93,2.93,0,0,0-1.121.549,1.708,1.708,0,0,1-1.271.308C878.745,836.353,878.385,835.993,878.163,836.656Z" transform="translate(-672.666 -647.611)"/>
      <path id="Path_171" data-name="Path 171" class="cls-16" d="M793.708,834.045a3.577,3.577,0,0,1-1.3.887l-.219.1a.153.153,0,0,0-.074.06.129.129,0,0,0,.024.107,1.543,1.543,0,0,0,1.751.637.928.928,0,0,0,.384-.2,1.26,1.26,0,0,0,.3-.768,1.572,1.572,0,0,0-.036-.88C794.2,833.246,794.075,833.584,793.708,834.045Z" transform="translate(-607.194 -646.047)"/>
      <path id="Path_172" data-name="Path 172" class="cls-6" d="M794,837.423a.581.581,0,0,1-.04.265c-.112.219-.425.208-.668.16a16.07,16.07,0,0,0-.293-2.409c-.463-.021-.8.417-1.045.811l-.639,1.014a1.322,1.322,0,0,1-.382.444,1.13,1.13,0,0,1-.413.131,7.823,7.823,0,0,1-3.633-.563,1.923,1.923,0,0,1-.494-.21,1.009,1.009,0,0,1-.239-1.379c.494-.668,1.6-.477,2.218-1.03a5.556,5.556,0,0,1-.315,1.138c.823-.124,1.376-.878,2.039-1.381a1.253,1.253,0,0,1,.582-.277,1.281,1.281,0,0,1,.477.05,5.6,5.6,0,0,1,2.1,1.033,2.262,2.262,0,0,1,.751.782A5.791,5.791,0,0,1,794,837.423Z" transform="translate(-602.531 -646.486)"/>
      <circle id="Ellipse_30" data-name="Ellipse 30" class="cls-16" cx="4.928" cy="4.928" r="4.928" transform="translate(202.952 102.378)"/>
      <path id="Path_173" data-name="Path 173" class="cls-6" d="M912.777,614.352a11.684,11.684,0,0,1-.4,2.789,28.782,28.782,0,0,1-.9,3.34,7.349,7.349,0,0,0-.637,2.433,1.618,1.618,0,0,1-.157,1.016,1.484,1.484,0,0,1-.7.4.871.871,0,0,0-.587.522,3.683,3.683,0,0,1-.5-1.093q-.642-1.965-1.193-3.952a.513.513,0,0,1,.033-.477.592.592,0,0,1,.207-.117,2.149,2.149,0,0,0,.661-.425.966.966,0,0,0,.219-.284,1.285,1.285,0,0,0,.093-.539c0-.632,0-1.262-.017-1.894a15.835,15.835,0,0,1,.067-1.748c0-.114.021-.3.041-.494.036-.374.107-.809.31-.954.3-.2,1.209.069,1.553.117.592.081,1.193.176,1.77.289A4.723,4.723,0,0,1,912.777,614.352Z" transform="translate(-695.189 -477.95)"/>
      <path id="Path_174" data-name="Path 174" class="cls-6" d="M828.442,504.7c-.191.382-.649.565-1,.806l-1.209.83a.807.807,0,0,1-.6.205.787.787,0,0,1-.446-.417.083.083,0,0,0,0-.019l-.25-.42-1.193-2a1.137,1.137,0,0,1-.222-.615c0-.1.036-.2.045-.3a1.443,1.443,0,0,0-.239-.811c-.1-.179-.286-.327-.281-.527a1.907,1.907,0,0,1,.134-.771,1.56,1.56,0,0,1,.522-.558c.112-.081.227-.157.346-.239a.683.683,0,0,1,.208-.1c.2-.041.394.124.594.131.861.577,1.193,1.67,1.87,2.457.382.448.42.792.852,1.193.069.062.136.129.2.2a1.383,1.383,0,0,1,.215.31C828.065,504.263,828.54,504.5,828.442,504.7Z" transform="translate(-630.753 -391.877)"/>
      <path id="Path_175" data-name="Path 175" class="cls-16" d="M874.038,506.423a4.441,4.441,0,0,1,.53,2.4,1.5,1.5,0,0,1-.208.632,2.043,2.043,0,0,1-1.691.654,1,1,0,0,0-.735.239.668.668,0,0,0,.045.816,1.841,1.841,0,0,0,.73.477,6.462,6.462,0,0,0,3.142.7c.5-.048.988-.193,1.486-.267a15.592,15.592,0,0,1,1.636-.091c.649-.024,1.3-.088,1.942-.153l1.713-.169a.381.381,0,0,0,.255-.093c.126-.148-.036-.365-.193-.477-.909-.673-2.066-1.135-2.583-2.147a12.639,12.639,0,0,1-.489-1.56,13.137,13.137,0,0,1-.568-1.505,10,10,0,0,1-.079-1.388,1.863,1.863,0,0,0-.477-1.269,1.989,1.989,0,0,0-1.3-.417,4.2,4.2,0,0,0-3.163,1.026c-.217.217-.4.477-.627.673s-.53.253-.382.51.439.417.6.644A5.486,5.486,0,0,1,874.038,506.423Z" transform="translate(-667.89 -394.186)"/>
      <path id="Path_176" data-name="Path 176" class="cls-6" d="M867.268,527.515a27.122,27.122,0,0,1-1.46,5.374,20.223,20.223,0,0,0-.859,2.409c-.184.739-.148,1.531-.317,2.273-.21.923-.42,1.849-.589,2.779a18.221,18.221,0,0,0-.339,4.317,1.806,1.806,0,0,0,.129.665c.079.172.205.32.279.5a1.192,1.192,0,0,1-.067.954,2.764,2.764,0,0,1-.491.744c-2.223.663-4.6.446-6.918.587-2.135.129-4.294.568-6.4.2a5.072,5.072,0,0,1,.5-2.884c.99-2.7,2.085-5.517,1.908-8.349a8.667,8.667,0,0,0-.112-.985,13.06,13.06,0,0,1,.635-6.028,10.346,10.346,0,0,0,.272-3.764,6.879,6.879,0,0,1-.017-1.233,2.169,2.169,0,0,1,.448-1.152c0-.017.021-.033.033-.05a.327.327,0,0,1,.179,0h0a.154.154,0,0,0,.119,0l.026-.017a.06.06,0,0,1,.069,0c.055.033.086.148.205.169a4.753,4.753,0,0,0,.532.05,2.857,2.857,0,0,1,.635.091h.029a1.862,1.862,0,0,0,.926-.079,2.459,2.459,0,0,0,.568-.219c.052-.057.382-.11.448-.15.217-.131.169-.747.215-1a2.746,2.746,0,0,1,.179-.739,1.26,1.26,0,0,1,1.021-.594,5.438,5.438,0,0,1,1.224.11c.89.126,1.8.1,2.674.31a1.993,1.993,0,0,0,1.322.057c.11.026.126.122.126.239a1.524,1.524,0,0,1-.067.327c-.153.658.365,1.264.842,1.741a2.7,2.7,0,0,0,.7.561c.238.11.477.155.716.274a1.3,1.3,0,0,1,.477.437,1.822,1.822,0,0,1,.272.694,4.154,4.154,0,0,1-.079,1.381Z" transform="translate(-651.404 -408.34)"/>
      <path id="Path_177" data-name="Path 177" class="cls-17" d="M874.434,535.371a27.107,27.107,0,0,1-1.46,5.374,20.226,20.226,0,0,0-.859,2.409c-.184.739-.148,1.531-.317,2.273-.21.923-.42,1.849-.589,2.779-.05.029-.1.055-.155.079a3.663,3.663,0,0,1-.935.3,5.725,5.725,0,0,1-1.746-.057l-3.4-.456a6.858,6.858,0,0,1-3.817-1.326,8.144,8.144,0,0,1-1.331-1.818,8.657,8.657,0,0,0-.112-.985,13.06,13.06,0,0,1,.634-6.028,10.345,10.345,0,0,0,.272-3.764,6.879,6.879,0,0,1-.017-1.233,2.168,2.168,0,0,1,.449-1.152,1.705,1.705,0,0,1,.212-.048h0a1.051,1.051,0,0,1,.145-.019h.069a1.047,1.047,0,0,1,.239.029,4.331,4.331,0,0,1,.477.184h.029a1.825,1.825,0,0,0,.634.091c.315,0,.639-.05.954-.072a1.761,1.761,0,0,1,1.131.2,6.79,6.79,0,0,1,.63.575,2.7,2.7,0,0,0,.794.432,8.441,8.441,0,0,0,6.35-.134,1.242,1.242,0,0,1,.637-.162,1.191,1.191,0,0,1,.458.2c.143.083.284.165.429.238a1.821,1.821,0,0,1,.272.694A4.151,4.151,0,0,1,874.434,535.371Z" transform="translate(-658.57 -416.196)"/>
      <path id="Path_178" data-name="Path 178" class="cls-14" d="M869.935,532.331a12.728,12.728,0,0,1-2.719-1.193,1.22,1.22,0,0,0-.458-.2,1.281,1.281,0,0,0-.639.162,8.437,8.437,0,0,1-6.347.134,2.758,2.758,0,0,1-.794-.432,7.133,7.133,0,0,0-.63-.575c-.785-.508-1.87.088-2.748-.239a4.855,4.855,0,0,0-.477-.184c-.694-.174-1.4.518-2.082.308a11.617,11.617,0,0,0-.561,2.128,23.2,23.2,0,0,0-.155,2.509c0,.5-.024,1.007,0,1.51a.5.5,0,0,1,.377.782,19.552,19.552,0,0,1-1.76,3.724,8.091,8.091,0,0,1,1.474,1.126c.835.883,1.245,2.121,2.147,2.936a6.894,6.894,0,0,0,3.817,1.324l3.4.456a5.818,5.818,0,0,0,1.749.06,3.682,3.682,0,0,0,.933-.3,1.67,1.67,0,0,0,.52-.344,1.909,1.909,0,0,0,.308-.477c.27-.539.515-1.09.742-1.648.079-.2.2-.429.413-.446,1.264-1.14,2.457-2.309,3.721-3.449a8.251,8.251,0,0,0,1.357-1.431c.627-.928.057-2.242,0-3.363a4.249,4.249,0,0,0-.107-.852A2.733,2.733,0,0,0,869.935,532.331Z" transform="translate(-651.993 -414.734)"/>
      <path id="Path_179" data-name="Path 179" class="cls-17" d="M835.27,517.282c-.191.382-.649.565-1,.806l-1.209.83a.807.807,0,0,1-.6.205.787.787,0,0,1-.446-.417v-.172a1.6,1.6,0,0,1,.076-.57,1.776,1.776,0,0,1,.534-.687,4.375,4.375,0,0,1,1.567-.954.537.537,0,0,1,.286-.029.377.377,0,0,1,.1.045,1.38,1.38,0,0,1,.215.31C834.893,516.846,835.368,517.087,835.27,517.282Z" transform="translate(-637.581 -404.459)"/>
      <path id="Path_180" data-name="Path 180" class="cls-14" d="M839.062,520.289a1.738,1.738,0,0,1-1.033-.592l-.9-.84a.845.845,0,0,1-.157-.176,1.242,1.242,0,0,1-.11-.293,3.365,3.365,0,0,0-.878-1.259.572.572,0,0,0-.26-.186.523.523,0,0,0-.289.029,4.363,4.363,0,0,0-1.567.954,1.782,1.782,0,0,0-.534.687,1.589,1.589,0,0,0-.076.57,4.379,4.379,0,0,0,.415,1.822c.041.088.086.176.134.262a8.267,8.267,0,0,0,1.121,1.457l.568.634c.558.625,1.116,1.25,1.722,1.825a2.274,2.274,0,0,0,.773.539.863.863,0,0,0,.887-.143,1.283,1.283,0,0,0,.253-.453,8.922,8.922,0,0,0,.737-2.975,11.225,11.225,0,0,0-.052-1.233C839.775,520.485,839.468,520.315,839.062,520.289Z" transform="translate(-638.525 -404.952)"/>
      <path id="Path_181" data-name="Path 181" class="cls-18" d="M826.8,635.911a55.109,55.109,0,0,1-.511,7.173c-.048.384-.1.768-.126,1.152-.079,1.114.05,2.233-.055,3.339-.055.6-.179,1.193-.284,1.777a31.6,31.6,0,0,0-.406,7.908c.329,4.4-.68,8.795-.222,13.179a10.655,10.655,0,0,1-.141,2.55,10.817,10.817,0,0,1-.37,1.541q-.522,1.792-1.05,3.578a1.24,1.24,0,0,1-.239.5,1.13,1.13,0,0,1-.894.265,10.319,10.319,0,0,1-3.922-1.216,1.365,1.365,0,0,1-.393-.239c-.26-.27-.239-.694-.353-1.05a9.987,9.987,0,0,0-.6-1.054,3.443,3.443,0,0,1-.26-1.085q-.239-1.832-.324-3.678c-.091-1.732,1.054-3.325,1.431-5.009.716-3.311.11-6.86,1.381-10,.4-.992-.181-2.195-.239-3.263a10.354,10.354,0,0,0-.267-2.047,12.689,12.689,0,0,1-.778-2.672,9.827,9.827,0,0,1,.3-1.992,8.952,8.952,0,0,0-.04-2.941c-.126-.8-.32-1.6-.513-2.385l-.043.088a26.961,26.961,0,0,0-1.5,3.518c-.191.584-.358,1.181-.6,1.748-.2.477-.437.914-.673,1.362a39.107,39.107,0,0,0-2.206,4.9c-.3.825-.556,1.67-.813,2.5l-1.768,5.725c-.477,1.505-1,2.96-1.467,4.463-.661,2.147-1.322,4.275-2.09,6.374-.716,1.992-1.567,4.055-1.312,6.159a4.533,4.533,0,0,1-2.106.427,12.331,12.331,0,0,1-3.578-.868,2.781,2.781,0,0,1-1.236-.735,2.923,2.923,0,0,1-.239-2.416,5.831,5.831,0,0,1,.286-1.088c.181-.439.477-.828.663-1.262a10.588,10.588,0,0,0,.546-2.679,3.306,3.306,0,0,1,1.25-2.35,33.94,33.94,0,0,1,1.145-4.709c.272-1.176.363-2.385.577-3.578a7.858,7.858,0,0,1,1.281-3.351,5.311,5.311,0,0,1,.649-2.862,3.132,3.132,0,0,0,.284-.608,3.492,3.492,0,0,0,.076-.63,3.724,3.724,0,0,1,1.007-2.211,4.487,4.487,0,0,1,.391-2.624,9.115,9.115,0,0,0,.5-3.356,2.943,2.943,0,0,1,.045-.954c.067-.239.2-.441.274-.67a3.813,3.813,0,0,0,.107-.856,9.9,9.9,0,0,1,1.193-3.659c.344-.673.052-1.586.124-2.335a9.026,9.026,0,0,1,.878-3.619c.115-.205.239-.4.341-.613a2.654,2.654,0,0,0,.2-.954,3.513,3.513,0,0,0-.1-1.508,7.73,7.73,0,0,1,4.678-1.431,29.161,29.161,0,0,0,4.964-.274c.477-.107.954-.255,1.457-.327a9.432,9.432,0,0,1,3.43.351,4.086,4.086,0,0,0,.477,2.068,22.2,22.2,0,0,1,1.768,8.521Z" transform="translate(-611.811 -487.178)"/>
      <path id="Path_182" data-name="Path 182" class="cls-17" d="M884.136,673.29l-2.741,6.164c-.126-.8-.32-1.6-.513-2.385l-.043.088v-.129l1.493-3.285Z" transform="translate(-674.761 -524.011)"/>
      <path id="Path_183" data-name="Path 183" class="cls-17" d="M917.028,614.352a1.03,1.03,0,0,1-.544.2,2.645,2.645,0,0,1-.892-.122l-2.147-.537a1.062,1.062,0,0,1-.2-.069c.036-.375.107-.809.31-.954.3-.2,1.209.069,1.553.117.592.081,1.193.176,1.77.289A4.725,4.725,0,0,1,917.028,614.352Z" transform="translate(-699.44 -477.95)"/>
      <path id="Path_184" data-name="Path 184" class="cls-14" d="M918.133,557.379c.045.2.11.394.148.594a4.532,4.532,0,0,1-.05,1.476l-.2,1.364-.2,1.372-.756,5.279-.186,1.307-.262,1.825a1.313,1.313,0,0,1-.114.439.914.914,0,0,1-.747.441,2.7,2.7,0,0,1-.892-.122l-2.147-.539a.673.673,0,0,1-.262-.107.518.518,0,0,1-.138-.5c.031-.181.11-.351.136-.532.052-.353-.1-.716-.043-1.066a2.654,2.654,0,0,1,.239-.642c.716-1.581.3-3.428.544-5.145a7.8,7.8,0,0,1,1.655-3.683,10.575,10.575,0,0,1,1.827-1.794,3.678,3.678,0,0,1,1.028-.716C918.152,556.537,918.062,557.079,918.133,557.379Z" transform="translate(-698.73 -435.17)"/>
      <path id="Path_185" data-name="Path 185" class="cls-19" d="M861.486,469.8c-.157.5.088,1.052-.024,1.562-.122.563-.651.954-.8,1.519-.239.861.491,1.646,1.026,2.362,1.98,2.657,1.72,6.336,1.042,9.577a49.455,49.455,0,0,1-2.254,7.633,5.849,5.849,0,0,1-1.214,2.13,6.278,6.278,0,0,1,3.363-.327c1.393.386,2.6,1.739,4.007,1.431.849-.188,1.446-.942,2.209-1.36,1.431-.77,3.156-.286,4.752-.038a1.866,1.866,0,0,0,1.038-.052,1.724,1.724,0,0,0,.63-.58,5.882,5.882,0,0,0,1.226-3.172,4.07,4.07,0,0,0-1.171-3.132,6.7,6.7,0,0,1-1-.954,2.961,2.961,0,0,1-.394-1.446c-.188-2.624.451-5.3-.208-7.841a19.361,19.361,0,0,1-.732-2.7c-.131-1.152.181-2.385-.277-3.44a3.373,3.373,0,0,0-2.011-1.737,11.017,11.017,0,0,0-2.681-.477C866.7,468.66,862.032,468.1,861.486,469.8Z" transform="translate(-658.329 -368.143)"/>
      <g id="Group_64" data-name="Group 64" class="cls-20" transform="translate(200.931 101.116)">
        <path id="Path_186" data-name="Path 186" d="M866.642,496.145a49.339,49.339,0,0,1-2.242,7.6c.165-.327.3-.67.434-1.011a49.187,49.187,0,0,0,2.254-7.633c.68-3.244.94-6.918-1.04-9.577a3.742,3.742,0,0,1-1.069-2.066,2.541,2.541,0,0,0-.406.749c-.239.861.491,1.646,1.026,2.362C867.58,489.225,867.32,492.9,866.642,496.145Z" transform="translate(-863.174 -480.578)"/>
        <path id="Path_187" data-name="Path 187" d="M868.41,473.248a2.32,2.32,0,0,0,.42-.8,4.083,4.083,0,0,0-.029-1.064,1.148,1.148,0,0,0-.4.546A4.719,4.719,0,0,0,868.41,473.248Z" transform="translate(-866.18 -471.38)"/>
        <path id="Path_188" data-name="Path 188" d="M875.707,566.617a1.718,1.718,0,0,1-.63.577,1.822,1.822,0,0,1-1.038.052c-1.6-.239-3.34-.73-4.752.041-.766.415-1.36,1.169-2.211,1.36-1.41.315-2.612-1.038-4.005-1.431a5.592,5.592,0,0,0-3.022.239,4.168,4.168,0,0,1-.79,1.14,6.279,6.279,0,0,1,3.363-.327c1.393.386,2.6,1.739,4.007,1.431.849-.188,1.446-.942,2.209-1.36,1.431-.77,3.156-.286,4.752-.038a1.866,1.866,0,0,0,1.038-.052,1.725,1.725,0,0,0,.63-.58,6.411,6.411,0,0,0,.988-1.889A6.934,6.934,0,0,1,875.707,566.617Z" transform="translate(-859.26 -543.262)"/>
      </g>
    </g>
  </g>
</svg>
