<?xml version="1.0" encoding="UTF-8"?>
<svg width="271px" height="181px" viewBox="0 0 271 181" version="1.1" xmlns="http://www.w3.org/2000/svg" xmlns:xlink="http://www.w3.org/1999/xlink">
    <title>Coming soon</title>
    <g id="WAT---3" stroke="none" stroke-width="1" fill="none" fill-rule="evenodd">
        <g id="MDO---Coming-soon" transform="translate(-705.000000, -267.000000)">
            <g id="Coming-soon" transform="translate(705.000000, 267.000000)">
                <g id="Group" transform="translate(16.558003, 8.121728)">
                    <polygon id="Path-2" fill="#EBEBEB" points="0 -1.73598509e-15 41.6674077 15.6363636 120.592755 0 203.675967 15.6363636 240 0 240 156.363636 208.906649 172 120 156.363636 41.6674077 172 0 156.363636"></polygon>
                    <polygon id="Path-3" fill="#DADADA" points="42 15.6363636 42 172 0 156.363636 0 0"></polygon>
                    <polygon id="Path-3-Copy" fill="#DADADA" points="204 15.6363636 204 172 120.576397 155.913729 120 0"></polygon>
                </g>
                <g id="Group2-02" transform="translate(75.558003, 84.121728)" fill-rule="nonzero">
                    <path d="M108.563556,16.678146 L110.563556,17.7477205 L110.563556,20.2374402 L108.563556,19.4785204 L108.563556,16.678146 Z M96.0402701,4.68049961 L97.1402701,4.85049961 L97.3602701,4.85049961 L97.5302701,4.93049961 C97.5841348,4.96936566 97.631404,5.01663489 97.6702701,5.07049961 C97.7242538,5.13408331 97.7743452,5.20087175 97.8202701,5.27049961 L102.65027,13.0204996 C102.640585,12.8339586 102.640585,12.6470406 102.65027,12.4604996 L102.65027,11.9504996 L102.84027,5.68049961 L104.69027,6.04049961 L104.35027,17.0404996 L103.28027,16.8804996 C103.137689,16.8598958 103.001242,16.8087284 102.88027,16.7304996 C102.736944,16.6271493 102.617569,16.494131 102.53027,16.3404996 L97.7402701,8.62049961 L97.7402701,9.62049961 L97.5402701,15.9604996 L95.7102701,15.6804996 L96.0402701,4.68049961 Z M108.563556,6.69569958 L110.913867,7.46639774 L110.563556,16.7186101 L108.563556,15.8295476 L108.563556,6.69569958 Z M89.4102701,3.57049961 C90.1617098,3.68126692 90.8828982,3.94320799 91.5302701,4.34049961 C92.1430857,4.71615475 92.6819655,5.20080764 93.1202701,5.77049961 C93.5612224,6.3557684 93.899381,7.01179612 94.1202701,7.71049961 C94.339318,8.43932391 94.4306642,9.20054227 94.3902701,9.96049961 C94.3794937,10.7048656 94.230287,11.4407261 93.9502701,12.1304996 C93.7113482,12.7445349 93.339054,13.2978529 92.8602701,13.7504996 C92.3825614,14.1772525 91.8153493,14.491611 91.2002701,14.6704996 C90.5098638,14.8612661 89.7855677,14.895431 89.0802701,14.7704996 C88.3406568,14.6619859 87.6301238,14.4070099 86.9902701,14.0204996 C86.3736405,13.6541529 85.8337181,13.1719581 85.4002701,12.6004996 C84.9559076,12.0173792 84.6174309,11.3607343 84.4002701,10.6604996 C84.1777325,9.9217018 84.0764188,9.15171702 84.1002701,8.38049961 C84.1078658,7.63676673 84.253677,6.90092886 84.5302701,6.21049961 C84.7719114,5.5983188 85.1478072,5.04814398 85.6302701,4.60049961 C86.1017846,4.16510184 86.6711433,3.84955364 87.2902701,3.68049961 C87.9798703,3.48606853 88.7042503,3.44848278 89.4102701,3.57049961 Z M78.1902701,1.89049961 C78.9321513,1.98982356 79.644509,2.2454543 80.2802701,2.64049961 C80.8968997,3.00684633 81.436822,3.48904115 81.8702701,4.06049961 C82.3194054,4.6405912 82.6583453,5.29813457 82.8702701,6.00049961 C83.0925062,6.72221507 83.1938734,7.47571158 83.1702701,8.23049961 C83.1558722,8.97447123 83.0067979,9.70967878 82.7302701,10.4004996 C82.4841206,11.0131884 82.1089549,11.5657052 81.6302701,12.0204996 C81.1587555,12.4558974 80.5893968,12.7714456 79.9702701,12.9404996 C79.279623,13.1284878 78.5566642,13.1659998 77.8502701,13.0504996 C77.1135194,12.954316 76.4031539,12.7129956 75.7602701,12.3404996 C75.1489164,11.9628892 74.6103645,11.4785311 74.1702701,10.9104996 C73.7241196,10.3285109 73.3854718,9.67153414 73.1702701,8.97049961 C72.9477325,8.2317018 72.8464188,7.46171702 72.8702701,6.69049961 C72.8857601,5.9466487 73.0347952,5.21163469 73.3102701,4.52049961 C73.5554339,3.91019392 73.9308345,3.3607439 74.4102701,2.91049961 C74.8853227,2.48002136 75.4534396,2.16516137 76.0702701,1.99049961 C76.7606763,1.7997331 77.4849724,1.76556819 78.1902701,1.89049961 Z M88.0802701,5.48049961 C87.7017868,5.58799406 87.3573836,5.79119198 87.0802701,6.07049961 C86.8175691,6.39932976 86.6298614,6.78157095 86.5302701,7.19049961 C86.3699434,7.67833941 86.2823368,8.18713161 86.2702701,8.70049961 C86.2309328,9.25009276 86.2713519,9.80248613 86.3902701,10.3404996 C86.4988297,10.7879385 86.6886452,11.2116339 86.9502701,11.5904996 C87.194436,11.9437135 87.5115806,12.2403971 87.8802701,12.4604996 C88.2647663,12.6957379 88.6937442,12.8489443 89.1402701,12.9104996 C89.5622589,12.9930545 89.9979439,12.972471 90.4102701,12.8504996 C90.7893468,12.7497668 91.1346001,12.5495199 91.4102701,12.2704996 C91.6974312,11.9652735 91.9126858,11.5996822 92.0402701,11.2004996 C92.2022515,10.6932593 92.2799493,10.1628876 92.2702701,9.63049961 C92.2915842,9.10222907 92.2377122,8.57361029 92.1102701,8.06049961 C91.9917896,7.60992756 91.7955057,7.18351772 91.5302701,6.80049961 C91.2854314,6.4486853 90.9726134,6.14946816 90.6102701,5.92049961 C90.2231306,5.69274831 89.7950281,5.54325219 89.3502701,5.48049961 C88.9324838,5.3835818 88.4980563,5.3835818 88.0802701,5.48049961 Z M68.9702701,0.480499614 C69.5556891,0.566872212 70.1211277,0.756480355 70.6402701,1.04049961 C71.1254263,1.29130966 71.5595221,1.63044702 71.9202701,2.04049961 L71.3702701,3.03049961 C71.322434,3.11896912 71.2537937,3.19447336 71.1702701,3.25049961 C71.0864571,3.28195273 70.994083,3.28195273 70.9102701,3.25049961 C70.7876128,3.22279176 70.6740393,3.16428425 70.5802701,3.08049961 L70.1802701,2.77049961 C70.0119501,2.64465415 69.83483,2.53102993 69.6502701,2.43049961 C69.4290666,2.31245036 69.1886757,2.23457725 68.9402701,2.20049961 C68.5663829,2.10777448 68.1707334,2.17674091 67.8502701,2.39049961 C67.5939648,2.60119518 67.4499025,2.91887103 67.4602701,3.25049961 C67.4478183,3.4747548 67.5112234,3.69667254 67.6402701,3.88049961 C67.7768319,4.07195915 67.9460911,4.23783309 68.1402701,4.37049961 C68.3692173,4.52864156 68.6099186,4.66905061 68.8602701,4.79049961 L69.6902701,5.22049961 C69.9782712,5.37132385 70.2555886,5.54172371 70.5202701,5.73049961 C70.7873265,5.91926001 71.0263581,6.14482499 71.2302701,6.40049961 C71.4489618,6.6647804 71.6183258,6.96624834 71.7302701,7.29049961 C71.854408,7.6743904 71.9086013,8.07745332 71.8902701,8.48049961 C71.8781007,8.95006427 71.7833194,9.41381552 71.6102701,9.85049961 C71.4434408,10.2334628 71.1941851,10.574909 70.8802701,10.8504996 C70.5577961,11.1391234 70.1699965,11.3450347 69.7502701,11.4504996 C69.2554668,11.5688842 68.7418209,11.5858923 68.2402701,11.5004996 C67.9168364,11.44541 67.5989248,11.3617491 67.2902701,11.2504996 C66.9789626,11.1281906 66.6779929,10.9810499 66.3902701,10.8104996 C66.0908356,10.6784196 65.8031385,10.5211898 65.5302701,10.3404996 C65.2900329,10.1307472 65.0691435,9.89981731 64.8702701,9.65049961 L65.5202701,8.65049961 C65.569439,8.57598894 65.6388114,8.51702236 65.7202701,8.48049961 C65.8079358,8.45151094 65.9026044,8.45151094 65.9902701,8.48049961 C66.1367171,8.51434608 66.2713999,8.58686755 66.3802701,8.69049961 L66.8502701,9.10049961 C67.0408792,9.2610825 67.244967,9.40494763 67.4602701,9.53049961 C67.7251291,9.67263574 68.0127891,9.76739433 68.3102701,9.81049961 C68.7339652,9.90655129 69.1785031,9.81545746 69.5302701,9.56049961 C69.8213275,9.31218283 69.980262,8.94256761 69.9602701,8.56049961 C69.978523,8.31375257 69.9152869,8.06783443 69.7802701,7.86049961 C69.6481135,7.65979655 69.4783171,7.48660423 69.2802701,7.35049961 C69.0546936,7.18992877 68.8134681,7.05256428 68.5602701,6.94049961 L67.7302701,6.53049961 C67.4458358,6.38650418 67.1718325,6.2227705 66.9102701,6.04049961 C66.6195727,5.85498643 66.3653669,5.61772768 66.1602701,5.34049961 C65.9424347,5.0587359 65.7765117,4.74043455 65.6702701,4.40049961 C65.5468,3.97891326 65.4993933,3.53870793 65.5302701,3.10049961 C65.5400154,2.70374198 65.6283884,2.31286122 65.7902701,1.95049961 C65.9449349,1.59663724 66.1773595,1.28218042 66.4702701,1.03049961 C66.7767557,0.768312036 67.1394377,0.580127993 67.5302701,0.480499614 C68.0042694,0.373162035 68.4962708,0.373162035 68.9702701,0.480499614 Z M76.8602701,3.82049961 C76.4800405,3.91843388 76.1340834,4.11908904 75.8602701,4.40049961 C75.5686764,4.7041104 75.34984,5.06997743 75.2202701,5.47049961 C75.0578063,5.96093679 74.9734434,6.47386335 74.9702701,6.99049961 C74.9439483,7.52221298 74.997887,8.05485763 75.1302701,8.57049961 C75.2388297,9.01793855 75.4286452,9.44163391 75.6902701,9.82049961 C75.9361021,10.17497 76.2527688,10.4746116 76.6202701,10.7004996 C77.0087598,10.9272744 77.4360157,11.0798658 77.8802701,11.1504996 C78.3030281,11.2214651 78.7360855,11.2010057 79.1502701,11.0904996 C79.5294802,10.9847067 79.8742944,10.7812663 80.1502701,10.5004996 C80.437246,10.1989895 80.6525809,9.83668015 80.7802701,9.44049961 C80.9473331,8.94746607 81.0350913,8.4310429 81.0402701,7.91049961 C81.0606468,7.3822582 81.0067882,6.85377086 80.8802701,6.34049961 C80.7679455,5.89125049 80.5784643,5.46491776 80.3202701,5.08049961 C80.0740407,4.72907143 79.7573152,4.43277985 79.3902701,4.21049961 C79.0057738,3.97526132 78.5767959,3.82205492 78.1302701,3.76049961 C77.707512,3.68953414 77.2744547,3.70999354 76.8602701,3.82049961 Z" id="Combined-Shape" fill="#A4A4A4"></path>
                    <path d="M6.12027007,9.42049961 C6.43350776,9.42062592 6.74564642,9.45754554 7.05027007,9.53049961 C7.33144583,9.59725217 7.60344747,9.69799352 7.86027007,9.83049961 C8.09561492,9.96054948 8.31680356,10.1147113 8.52027007,10.2904996 L7.82027007,11.4604996 C7.77573001,11.5337489 7.72195572,11.6009668 7.66027007,11.6604996 C7.58347564,11.7271387 7.49025392,11.7720232 7.39027007,11.7904996 C7.27217267,11.8103991 7.15090214,11.7854317 7.05027007,11.7204996 C6.91400822,11.6462508 6.77380021,11.5794851 6.63027007,11.5204996 C6.43188417,11.4349745 6.2236123,11.3745085 6.01027007,11.3404996 C5.67592991,11.3043094 5.33788437,11.3245921 5.01027007,11.4004996 C4.59273301,11.4772417 4.19486405,11.6370694 3.84027007,11.8704996 C3.48284541,12.1062829 3.17393695,12.4084022 2.93027007,12.7604996 C2.66666458,13.145776 2.46740231,13.5713191 2.34027007,14.0204996 C2.2042392,14.542853 2.13700406,15.0807341 2.14027007,15.6204996 C2.13169889,16.136443 2.20943688,16.6501898 2.37027007,17.1404996 C2.51188138,17.512311 2.72603669,17.8522401 3.00027007,18.1404996 C3.26057003,18.3949982 3.58020667,18.5805936 3.93027007,18.6804996 C4.30262291,18.7611191 4.68791723,18.7611191 5.06027007,18.6804996 C5.28043784,18.6381817 5.49757556,18.5813918 5.71027007,18.5104996 C5.90911757,18.4746996 6.10355952,18.417708 6.29027007,18.3404996 C6.45671456,18.2489536 6.61408788,18.1418058 6.76027007,18.0204996 C6.921792,17.8894812 7.06925168,17.7420215 7.20027007,17.5804996 L7.36027007,17.4304996 C7.41207911,17.3921066 7.46939296,17.361764 7.53027007,17.3404996 C7.63411739,17.320624 7.74130092,17.3501919 7.82027007,17.4204996 L8.66027007,18.2204996 C8.26439227,18.84131 7.74327724,19.372643 7.13027007,19.7804996 C6.47319732,20.2102605 5.73442455,20.4996415 4.96027007,20.6304996 C4.2858738,20.7867941 3.58466634,20.7867941 2.91027007,20.6304996 C2.32803169,20.4824311 1.79404205,20.186153 1.36027007,19.7704996 C0.906789755,19.3302348 0.564093668,18.788775 0.360270069,18.1904996 C0.115299561,17.4969836 -0.00653466308,16.7659782 0.000270068983,16.0304996 C-0.00626517642,14.9969954 0.208549161,13.97407 0.630270069,13.0304996 C0.851192662,12.5737623 1.11932045,12.1414062 1.43027007,11.7404996 C1.72624152,11.3717885 2.061559,11.0364711 2.43027007,10.7404996 C2.80274646,10.433285 3.21268425,10.1745538 3.65027007,9.97049961 C4.09798286,9.75799693 4.57222941,9.60664165 5.06027007,9.52049961 C5.40820686,9.44408693 5.76418159,9.41050441 6.12027007,9.42049961 Z M16.3402701,7.75049961 C16.9502342,7.89556002 17.5140924,8.19124175 17.9802701,8.61049961 C18.451732,9.04166567 18.8178174,9.57539774 19.0502701,10.1704996 C19.3161038,10.8624449 19.4451552,11.5993962 19.4302701,12.3404996 C19.4334934,13.1149012 19.3119359,13.8847648 19.0702701,14.6204996 C18.8347444,15.3412643 18.4798048,16.0173397 18.0202701,16.6204996 C17.562781,17.2044731 17.007979,17.7051481 16.3802701,18.1004996 C15.727958,18.5070073 15.0056428,18.7884728 14.2502701,18.9304996 C13.5522136,19.0865065 12.8283265,19.0865065 12.1302701,18.9304996 C11.5277809,18.7534407 10.9782332,18.4305815 10.5302701,17.9904996 C10.055746,17.5620041 9.68912862,17.0274965 9.46027007,16.4304996 C9.18779643,15.7667623 9.04195241,15.0578925 9.03027007,14.3404996 C9.02120524,13.565663 9.14291279,12.7948485 9.39027007,12.0604996 C9.62410273,11.3370493 9.9828579,10.6601528 10.4502701,10.0604996 C10.9012749,9.47416577 11.4532535,8.97298275 12.0802701,8.58049961 C12.7284193,8.16574412 13.4523821,7.88363653 14.2102701,7.75049961 C14.9117523,7.59496681 15.6387878,7.59496681 16.3402701,7.75049961 Z M32.1402701,4.42049961 L32.1402701,15.3104996 L30.2802701,15.6604996 L30.2802701,8.03049961 L30.2802701,8.03049961 L27.4002701,14.4904996 C27.2809409,14.8116972 27.0054673,15.0494347 26.6702701,15.1204996 L26.3702701,15.1804996 C26.2252842,15.2103914 26.0745287,15.1928617 25.9402701,15.1304996 C25.8041728,15.0746456 25.6961241,14.9665969 25.6402701,14.8304996 L22.7002701,9.46049961 L22.7002701,17.1004996 L20.8402701,17.4504996 L20.8402701,6.57049961 L22.5302701,6.26049961 L22.7702701,6.26049961 C22.8331875,6.25023491 22.8973526,6.25023491 22.9602701,6.26049961 C23.0113947,6.27358207 23.0591293,6.2974494 23.1002701,6.33049961 C23.1560572,6.38044047 23.2004013,6.44183997 23.2302701,6.51049961 L26.1002701,11.7704996 C26.1902701,11.9304996 26.2702701,12.0904996 26.3502701,12.2704996 C26.4302701,12.4504996 26.5002701,12.6104996 26.5702701,12.7904996 C26.6402701,12.5804996 26.7102701,12.3704996 26.7902701,12.1604996 L27.0302701,11.5704996 L29.8302701,5.25049961 C29.8647806,5.16917062 29.9083919,5.09201216 29.9602701,5.02049961 C30.0051468,4.97158565 30.0554743,4.9279685 30.1102701,4.89049961 L30.3002701,4.81049961 L30.5302701,4.73049961 L32.1402701,4.42049961 Z M14.1802701,9.71049961 C13.7260948,9.79011549 13.2915096,9.95648013 12.9002701,10.2004996 C12.5104932,10.4353294 12.1707109,10.7445313 11.9002701,11.1104996 C11.6332521,11.4987992 11.4306475,11.9276455 11.3002701,12.3804996 C11.1558284,12.8945697 11.0851225,13.4265474 11.0902701,13.9604996 C11.0892043,14.4686148 11.1633408,14.9740904 11.3102701,15.4604996 C11.4367717,15.8350184 11.6451571,16.1766337 11.9202701,16.4604996 C12.1994248,16.7265365 12.5447102,16.9129906 12.9202701,17.0004996 C13.3421658,17.0907349 13.7783743,17.0907349 14.2002701,17.0004996 C14.6750743,16.9162632 15.1276624,16.7359086 15.5302701,16.4704996 C15.9200469,16.2356698 16.2598292,15.9264679 16.5302701,15.5604996 C16.7991635,15.1732814 17.0019189,14.7441157 17.1302701,14.2904996 C17.2543607,13.7735138 17.3048588,13.2416006 17.2802701,12.7104996 L17.2802701,12.7504996 C17.2900536,12.2458195 17.2191605,11.7428163 17.0702701,11.2604996 C16.9425644,10.8865441 16.7343313,10.5451783 16.4602701,10.2604996 C16.183788,9.98878768 15.8377974,9.79849288 15.4602701,9.71049961 C15.038929,9.61516339 14.6016112,9.61516339 14.1802701,9.71049961 Z M36.3802701,3.61049961 L36.4202701,14.5004996 L34.3102701,14.9004996 L34.2602701,4.02049961 L36.3802701,3.61049961 Z M47.2002701,1.54049961 L47.2002701,12.4304996 L46.1202701,12.6304996 C45.9824742,12.6656324 45.8380659,12.6656324 45.7002701,12.6304996 C45.5726093,12.5781318 45.4594236,12.4958149 45.3702701,12.3904996 L40.3302701,6.46049961 L40.3302701,13.7404996 L38.5302701,14.0904996 L38.5302701,3.21049961 L39.6402701,3.00049961 L39.8602701,3.00049961 C39.9198139,2.99003604 39.9807263,2.99003604 40.0402701,3.00049961 L40.1802701,3.08049961 L40.3402701,3.23049961 L45.4602701,9.23049961 L45.4602701,8.69049961 L45.4602701,8.69049961 C45.4506717,8.5206351 45.4506717,8.35036413 45.4602701,8.18049961 L45.4602701,1.96049961 L47.2002701,1.54049961 Z M55.2202701,0.000499614379 C55.5562733,-0.00319498365 55.8916519,0.0303428754 56.2202701,0.100499614 C56.5130506,0.166873973 56.7979744,0.264083267 57.0702701,0.390499614 C57.3193339,0.51449136 57.554067,0.665391215 57.7702701,0.840499614 L57.1702701,1.96049961 C57.0934226,2.12050227 56.9623177,2.24806381 56.8002701,2.32049961 C56.6452701,2.39428617 56.4652701,2.39428617 56.3102701,2.32049961 C56.1506643,2.24210337 55.9871127,2.17200985 55.8202701,2.11049961 C55.6534789,2.05543153 55.4830702,2.01199404 55.3102701,1.98049961 C55.1107934,1.96003805 54.9097467,1.96003805 54.7102701,1.98049961 C54.4611586,1.98488308 54.2131701,2.01504384 53.9702701,2.07049961 C53.5140991,2.15426292 53.0790516,2.32760213 52.6902701,2.58049961 C52.2984279,2.8167547 51.9583032,3.12966947 51.6902701,3.50049961 C51.4128415,3.88911548 51.2032124,4.32189824 51.0702701,4.78049961 C50.9265145,5.28446684 50.8557943,5.80644944 50.8602701,6.33049961 C50.8491881,6.8604835 50.930399,7.38835466 51.1002701,7.89049961 C51.2388003,8.29608137 51.4718922,8.66285839 51.7802701,8.96049961 C52.0608304,9.22459522 52.4055626,9.41075056 52.7802701,9.50049961 C53.2252467,9.59558964 53.6852935,9.59558964 54.1302701,9.50049961 C54.4410843,9.44634694 54.7435922,9.35223339 55.0302701,9.22049961 C55.3007049,9.09540765 55.558547,8.94472067 55.8002701,8.77049961 L55.8002701,6.89049961 L54.6602701,7.11049961 C54.5591191,7.15901089 54.4414211,7.15901089 54.3402701,7.11049961 C54.2583566,7.04130965 54.2138811,6.93753348 54.2202701,6.83049961 L54.2902701,5.53049961 L57.7702701,4.86049961 L57.7702701,9.36049961 C57.2811813,9.83817111 56.7253957,10.2423788 56.1202701,10.5604996 C55.5343986,10.8624626 54.907903,11.078031 54.2602701,11.2004996 C53.5115091,11.3551858 52.7390311,11.3551858 51.9902701,11.2004996 C50.6939158,10.9458174 49.6162375,10.0490081 49.1302701,8.82049961 C48.8618109,8.1356807 48.7260651,7.40604675 48.7302701,6.67049961 C48.7290506,5.87748774 48.8608802,5.08989019 49.1202701,4.34049961 C49.3521653,3.61623178 49.7110937,2.93900842 50.1802701,2.34049961 C50.6553854,1.78438898 51.2197669,1.3112548 51.8502701,0.940499614 C52.5301071,0.538731944 53.2744689,0.257904533 54.0502701,0.110499614 C54.4352111,0.0320776933 54.8274577,-0.00480019026 55.2202701,0.000499614379 Z" id="Combined-Shape" fill="#B8B8B8"></path>
                </g>
                <polygon id="Path-4" fill="#EBEBEB" points="256.558003 8.1217283 270.455392 0 260.346357 32.1861164 270.455392 35.6440707 260.346357 69.6213536 270.455392 72.2595971 260.346357 104.121728 270.455392 104.869449 260.346357 133.68469 270.455392 133.68469 260.346357 162.293544 256.558003 164.485365"></polygon>
                <polygon id="Path-7" fill="#DADADA" points="16.5580029 8.1217283 0 0 11.1673754 25.4158677 3.1313101 30.2181628 11.1673754 58.4742393 3.1313101 58.4742393 8.27900145 84.5217247 3.1313101 85.6622279 11.1673754 112.375247 3.1313101 109.973741 11.1673754 136.99406 3.1313101 131.533432 11.1673754 160.989117 16.5580029 164.485365"></polygon>
            </g>
        </g>
    </g>
</svg>