<svg xmlns="http://www.w3.org/2000/svg" xmlns:xlink="http://www.w3.org/1999/xlink" width="364" height="241" viewBox="0 0 364 241">
  <defs>
    <style>
      .cls-1 {
        clip-path: url(#clip-GeneralErrors-lite);
      }

      .cls-2, .cls-5 {
        fill: #3f51b5;
      }

      .cls-10, .cls-19, .cls-2, .cls-3, .cls-6 {
        opacity: 0.1;
      }

      .cls-4 {
        fill: #3f3d56;
      }

      .cls-7 {
        fill: #d0d2d5;
      }

      .cls-8 {
        fill: #fff;
      }

      .cls-19, .cls-9 {
        fill: #878787;
      }

      .cls-10 {
        fill: #444053;
      }

      .cls-11, .cls-17 {
        fill: #707070;
      }

      .cls-11 {
        opacity: 0.3;
      }

      .cls-12 {
        fill: #fa5959;
      }

      .cls-12, .cls-13, .cls-14 {
        opacity: 0.8;
      }

      .cls-13 {
        fill: #fed253;
      }

      .cls-14 {
        fill: #8ccf4d;
      }

      .cls-15 {
        fill: url(#linear-gradient);
      }

      .cls-16 {
        fill: #2f2e41;
      }

      .cls-18 {
        fill: #fbbebe;
      }

      .cls-20 {
        fill: rgba(255,255,255,0);
      }
    </style>
    <linearGradient id="linear-gradient" x1="0.459" y1="0.999" x2="0.459" y2="-0.006" gradientUnits="objectBoundingBox">
      <stop offset="0" stop-color="gray" stop-opacity="0.251"/>
      <stop offset="0.54" stop-color="gray" stop-opacity="0.122"/>
      <stop offset="1" stop-color="gray" stop-opacity="0.102"/>
    </linearGradient>
    <clipPath id="clip-GeneralErrors-lite">
      <rect width="364" height="241"/>
    </clipPath>
  </defs>
  <g id="GeneralErrors-lite" class="cls-1">
    <rect class="cls-20" width="364" height="241"/>
    <g id="Group_75" data-name="Group 75" transform="translate(33 6.687)">
      <ellipse id="Ellipse_60" data-name="Ellipse 60" class="cls-2" cx="123.548" cy="9.593" rx="123.548" ry="9.593" transform="translate(12.683 182.525)"/>
      <g id="Group_70" data-name="Group 70" class="cls-3" transform="translate(197.631 26.753)">
        <path id="Path_248" data-name="Path 248" class="cls-4" d="M856.21,465.227c-.738-2.241-3.733-3.273-6.686-2.3a7.2,7.2,0,0,0-1.23.532c-.189-.052-.384-.1-.581-.134a6.518,6.518,0,0,0,.183-1.974,7.152,7.152,0,0,0,3.169-6.241,7.16,7.16,0,0,0,3.157-6.241,6.907,6.907,0,0,0,2.392-2.709c1.424-2.82.834-5.988-1.32-7.079s-5.058.314-6.483,3.134a6.886,6.886,0,0,0-.765,3.532,7.16,7.16,0,0,0-3.157,6.241,7.16,7.16,0,0,0-3.157,6.241,7.163,7.163,0,0,0-3.169,6.244,6.907,6.907,0,0,0-2.392,2.709,7.4,7.4,0,0,0-.6,1.669,6.158,6.158,0,0,0-1.291-1.375,7.392,7.392,0,0,0-.291-1.308c-.971-2.956-3.576-4.759-5.814-4.02s-3.273,3.73-2.3,6.686a6.706,6.706,0,0,0,2.2,3.221,7.391,7.391,0,0,0,.291,1.308,6.4,6.4,0,0,0,2.951,3.706,6.745,6.745,0,0,0-.241,1.134,17857.846,17857.846,0,0,0-4.384,8.672,7.158,7.158,0,0,0-1.453,1.98c-1.427,2.82-.837,5.991,1.317,7.079s5.058-.311,6.485-3.134a7.155,7.155,0,0,0,.727-2.352,18237.494,18237.494,0,0,0,4.384-8.672,956.7,956.7,0,0,1,4.364-8.677,7.017,7.017,0,0,0,.985-1.163,6.82,6.82,0,0,0,3.567-.224,7.2,7.2,0,0,0,1.23-.532,6.744,6.744,0,0,0,3.9-.14C855.134,470.076,856.945,467.471,856.21,465.227Z" transform="translate(-808.184 -354.525)"/>
        <g id="Group_68" data-name="Group 68" class="cls-3" transform="translate(16.578 92.019)">
          <path id="Path_249" data-name="Path 249" d="M912.543,499.53a6.261,6.261,0,0,1-1,.8,6.684,6.684,0,0,1-.323,2.451,7.609,7.609,0,0,0,.61-1,7.168,7.168,0,0,0,.712-2.253Z" transform="translate(-886.307 -489.684)"/>
          <path id="Path_250" data-name="Path 250" d="M923.4,478.06a6.258,6.258,0,0,1-1,.8,6.687,6.687,0,0,1-.323,2.451,7.465,7.465,0,0,0,.61-1,7.226,7.226,0,0,0,.712-2.25Z" transform="translate(-894.01 -474.455)"/>
          <path id="Path_251" data-name="Path 251" d="M897.652,466.942a6.373,6.373,0,0,1,.049-1.282,7.248,7.248,0,0,0-1.389,1.91,7.459,7.459,0,0,0-.442,1.084A6.614,6.614,0,0,1,897.652,466.942Z" transform="translate(-875.419 -465.66)"/>
          <path id="Path_252" data-name="Path 252" d="M833.07,594.765a6.86,6.86,0,0,1,.858-.983,6.666,6.666,0,0,1,.253-1.163,7.277,7.277,0,0,0-.666,1.078,7.44,7.44,0,0,0-.445,1.067Z" transform="translate(-830.875 -555.713)"/>
          <path id="Path_253" data-name="Path 253" d="M840.61,579.936a6.853,6.853,0,0,1,.858-.983,6.68,6.68,0,0,1,.241-1.134h0a7.467,7.467,0,0,0-.64,1.044,7.771,7.771,0,0,0-.459,1.073Z" transform="translate(-836.223 -545.215)"/>
          <path id="Path_254" data-name="Path 254" d="M902.02,520.832a6.062,6.062,0,0,1-1,.8,6.525,6.525,0,0,1-.183,1.974,5.456,5.456,0,0,1,.581.134,7.2,7.2,0,0,1,1.23-.532c2.959-.971,5.951.061,6.686,2.3a3.4,3.4,0,0,1,.093,1.744,3.992,3.992,0,0,0,.959-3.82c-.738-2.241-3.733-3.273-6.686-2.3a7.2,7.2,0,0,0-1.23.532c-.189-.052-.384-.1-.581-.134C901.948,521.295,901.988,521.065,902.02,520.832Z" transform="translate(-878.944 -504.745)"/>
          <path id="Path_255" data-name="Path 255" d="M826.633,607.49a7.291,7.291,0,0,0-.666,1.078,7.749,7.749,0,0,0-.448,1.087,7.12,7.12,0,0,1,.872-.988A6.653,6.653,0,0,1,826.633,607.49Z" transform="translate(-825.52 -566.26)"/>
          <path id="Path_256" data-name="Path 256" d="M886.742,488.412a6.4,6.4,0,0,1,.049-1.282,7.247,7.247,0,0,0-1.39,1.91,7.45,7.45,0,0,0-.442,1.084A6.615,6.615,0,0,1,886.742,488.412Z" transform="translate(-867.681 -480.889)"/>
          <path id="Path_257" data-name="Path 257" d="M874.691,576.93a7.065,7.065,0,0,1-.291,1.273,7.761,7.761,0,0,0,.608-1,7.408,7.408,0,0,0,.474-1.163A7.045,7.045,0,0,1,874.691,576.93Z" transform="translate(-860.191 -543.952)"/>
          <path id="Path_258" data-name="Path 258" d="M859.611,606.75a7.029,7.029,0,0,1-.291,1.273,7.459,7.459,0,0,0,.61-1,7.691,7.691,0,0,0,.474-1.163A6.866,6.866,0,0,1,859.611,606.75Z" transform="translate(-849.494 -565.104)"/>
          <path id="Path_259" data-name="Path 259" d="M867.151,591.872a7.006,7.006,0,0,1-.291,1.273,7.764,7.764,0,0,0,.622-.983,7.407,7.407,0,0,0,.474-1.163A7.05,7.05,0,0,1,867.151,591.872Z" transform="translate(-854.842 -554.564)"/>
          <path id="Path_260" data-name="Path 260" d="M882.231,561.97a6.978,6.978,0,0,1-.291,1.27,7.514,7.514,0,0,0,.607-1,7.4,7.4,0,0,0,.477-1.183A6.752,6.752,0,0,1,882.231,561.97Z" transform="translate(-865.539 -533.327)"/>
          <path id="Path_261" data-name="Path 261" d="M830.038,520.976c2.244-.735,4.849,1.064,5.814,4.02a7.469,7.469,0,0,1,.291,1.311,6.157,6.157,0,0,1,1.291,1.375,7.421,7.421,0,0,1,.6-1.672c.1-.2.212-.387.326-.581a6.128,6.128,0,0,0-1.163-1.215,7.368,7.368,0,0,0-.291-1.308c-.971-2.956-3.576-4.759-5.814-4.02a3.98,3.98,0,0,0-2.506,3.032A3.4,3.4,0,0,1,830.038,520.976Z" transform="translate(-827.698 -503.296)"/>
          <path id="Path_262" data-name="Path 262" d="M865.022,531.359a6.344,6.344,0,0,1,.052-1.279,7.189,7.189,0,0,0-1.392,1.91,7.284,7.284,0,0,0-.442,1.081A6.686,6.686,0,0,1,865.022,531.359Z" transform="translate(-852.275 -511.353)"/>
          <path id="Path_263" data-name="Path 263" d="M875.882,509.879a6.34,6.34,0,0,1,.052-1.279,7.128,7.128,0,0,0-1.393,1.907,7.437,7.437,0,0,0-.442,1.084A6.613,6.613,0,0,1,875.882,509.879Z" transform="translate(-859.978 -496.117)"/>
          <path id="Path_264" data-name="Path 264" d="M852.071,621.631a7.053,7.053,0,0,1-.291,1.276,7.482,7.482,0,0,0,1.084-2.177A6.853,6.853,0,0,1,852.071,621.631Z" transform="translate(-844.146 -575.651)"/>
        </g>
        <path id="Path_265" data-name="Path 265" class="cls-4" d="M918.85,405.919a6.885,6.885,0,0,0,2.392-2.709c1.427-2.82.837-5.991-1.317-7.081s-5.058.314-6.486,3.137a6.884,6.884,0,0,0-.762,3.541,7.16,7.16,0,0,0-3.157,6.241,6.862,6.862,0,0,0-2.392,2.709,7.161,7.161,0,0,0-.439,1.073,6.061,6.061,0,0,1,3.131-2.326,3.558,3.558,0,0,0,4.517,2.279,6.062,6.062,0,0,1,0,3.9,7.418,7.418,0,0,0,.6-.988,6.885,6.885,0,0,0,.762-3.532,7.143,7.143,0,0,0,3.157-6.241Z" transform="translate(-866.516 -324.061)"/>
        <path id="Path_266" data-name="Path 266" class="cls-5" d="M938.212,196.292a20.939,20.939,0,0,0,2.535-1.4l-9.4-6.866,11.047,5.689a20.969,20.969,0,0,0,7.849-14.625l-18.773.192,18.814-3.145a20.93,20.93,0,1,0-41.448,5.314,20.959,20.959,0,0,0-3.855,2.326l9.811,13.643-11.779-11.942a20.953,20.953,0,0,0-5.863,19.073A20.93,20.93,0,1,0,926.526,219.4,20.93,20.93,0,0,0,938.212,196.292Z" transform="translate(-851.18 -154.446)"/>
        <path id="Path_267" data-name="Path 267" class="cls-6" d="M899.016,274.482a20.863,20.863,0,0,0-1.846,13.579,20.93,20.93,0,1,0,29.375,14.855C930.654,301.009,900.069,272.386,899.016,274.482Z" transform="translate(-851.194 -237.962)"/>
        <circle id="Ellipse_61" data-name="Ellipse 61" class="cls-5" cx="3.108" cy="3.108" r="3.108" transform="translate(68.302)"/>
        <circle id="Ellipse_62" data-name="Ellipse 62" class="cls-5" cx="3.108" cy="3.108" r="3.108" transform="translate(86.453 1.994)"/>
        <circle id="Ellipse_63" data-name="Ellipse 63" class="cls-5" cx="3.108" cy="3.108" r="3.108" transform="translate(93.454 29.919)"/>
        <circle id="Ellipse_64" data-name="Ellipse 64" class="cls-5" cx="3.108" cy="3.108" r="3.108" transform="translate(84.006 43.864)"/>
        <circle id="Ellipse_65" data-name="Ellipse 65" class="cls-5" cx="3.108" cy="3.108" r="3.108" transform="translate(71.099 72.826)"/>
        <circle id="Ellipse_66" data-name="Ellipse 66" class="cls-6" cx="3.108" cy="3.108" r="3.108" transform="translate(71.099 72.826)"/>
        <circle id="Ellipse_67" data-name="Ellipse 67" class="cls-5" cx="3.108" cy="3.108" r="3.108" transform="translate(42.401 40.024)"/>
        <circle id="Ellipse_68" data-name="Ellipse 68" class="cls-6" cx="3.108" cy="3.108" r="3.108" transform="translate(42.401 40.024)"/>
        <path id="Path_268" data-name="Path 268" class="cls-6" d="M907.668,456.907c-2.067-1.044-2.692-4-1.485-6.727-.064.11-.125.224-.183.343-1.427,2.82-.837,5.988,1.317,7.079s5.058-.314,6.483-3.134c.061-.116.113-.235.166-.352C912.485,456.706,909.732,457.953,907.668,456.907Z" transform="translate(-865.474 -362.662)"/>
        <path id="Path_269" data-name="Path 269" class="cls-6" d="M897.109,477.78c-2.064-1.044-2.692-4-1.483-6.73-.064.113-.128.227-.186.343-1.427,2.82-.837,5.991,1.317,7.079s5.058-.311,6.486-3.134c.058-.116.113-.233.166-.352C901.925,477.576,899.175,478.823,897.109,477.78Z" transform="translate(-857.984 -377.465)"/>
        <path id="Path_270" data-name="Path 270" class="cls-6" d="M886.551,498.657c-2.064-1.044-2.692-4-1.483-6.727-.064.11-.128.224-.186.343-1.427,2.82-.834,5.988,1.32,7.079s5.055-.314,6.483-3.134c.058-.116.113-.236.166-.352C891.37,498.456,888.618,499.7,886.551,498.657Z" transform="translate(-850.496 -392.275)"/>
        <path id="Path_271" data-name="Path 271" class="cls-6" d="M876.027,519.587c-2.067-1.044-2.692-4-1.486-6.727-.064.11-.125.224-.186.34-1.424,2.82-.834,5.991,1.32,7.081s5.058-.314,6.483-3.137c.061-.116.113-.233.166-.352C880.835,519.369,878.082,520.616,876.027,519.587Z" transform="translate(-843.03 -407.12)"/>
        <path id="Path_272" data-name="Path 272" class="cls-6" d="M865.438,540.407c-2.067-1.044-2.692-4-1.485-6.727-.064.11-.125.224-.183.343-1.427,2.82-.837,5.988,1.317,7.079s5.058-.314,6.486-3.134c.058-.116.113-.235.166-.352C870.261,540.206,867.5,541.453,865.438,540.407Z" transform="translate(-835.521 -421.888)"/>
        <path id="Path_273" data-name="Path 273" class="cls-6" d="M854.879,561.287c-2.064-1.044-2.692-4-1.483-6.727-.064.11-.128.224-.186.34-1.427,2.82-.837,5.991,1.32,7.081s5.044-.317,6.5-3.137c.058-.116.113-.233.166-.352C859.7,561.083,856.957,562.33,854.879,561.287Z" transform="translate(-828.031 -436.698)"/>
        <path id="Path_274" data-name="Path 274" class="cls-6" d="M844.324,582.157c-2.064-1.044-2.692-4-1.483-6.727-.064.113-.125.224-.186.343-1.424,2.82-.834,5.989,1.32,7.079s5.058-.314,6.483-3.134c.061-.116.113-.235.166-.352C849.144,581.956,846.391,583.2,844.324,582.157Z" transform="translate(-820.545 -451.501)"/>
        <path id="Path_275" data-name="Path 275" class="cls-6" d="M833.768,603.037c-2.067-1.044-2.692-4-1.486-6.727q-.1.166-.183.34c-1.427,2.82-.837,5.991,1.317,7.081s5.058-.314,6.486-3.137c.058-.116.11-.233.163-.352C838.585,602.833,835.832,604.069,833.768,603.037Z" transform="translate(-813.057 -466.311)"/>
        <path id="Path_276" data-name="Path 276" class="cls-6" d="M826.828,616.75c-2.064-1.047-2.692-4-1.482-6.73-.064.113-.128.227-.186.343-1.427,2.82-.837,5.991,1.317,7.079s5.058-.311,6.486-3.134c.058-.116.113-.233.166-.352C831.645,616.546,828.892,617.793,826.828,616.75Z" transform="translate(-808.134 -476.036)"/>
        <path id="Path_277" data-name="Path 277" class="cls-5" d="M949,502.33a10.875,10.875,0,0,0,.581-2.846,1.552,1.552,0,1,0-.235-3.087,10.846,10.846,0,0,0-5.709-7.358,1.554,1.554,0,0,0-2.773-1.4,1.455,1.455,0,0,0-.14.416,20.175,20.175,0,0,1-12.41,2.779l-1.259,5.73-.076-5.523a10.878,10.878,0,1,0,5.814,20.93,1.536,1.536,0,0,0,.654.628,1.552,1.552,0,0,0,2.128-2,33.722,33.722,0,0,1,12.823-6.9l-5.858-.985Z" transform="translate(-874.844 -388.625)"/>
        <g id="Group_69" data-name="Group 69" class="cls-3" transform="translate(43.573 101.789)">
          <path id="Path_278" data-name="Path 278" d="M939.916,513.968c-2.163-2.855-3.488-6.236-5.015-9.48a39.621,39.621,0,0,0-2.055-3.884L931.7,499.27c-.192.163-.384.331-.581.509a10.939,10.939,0,0,0-2.855-.084l-1.259,5.73-.076-5.523a10.878,10.878,0,1,0,5.814,20.93,1.534,1.534,0,0,0,.654.628,1.552,1.552,0,0,0,2.128-2,8,8,0,0,1,7.919-2.1A15.327,15.327,0,0,1,939.916,513.968Z" transform="translate(-918.381 -499.27)"/>
        </g>
        <path id="Path_279" data-name="Path 279" class="cls-5" d="M795.3,454.179a1.552,1.552,0,0,0-1.39-2.253,10.864,10.864,0,0,0-3.4-6.055,10.905,10.905,0,0,0,.32-3.4l-5.712-.974,5.547-.349a11.031,11.031,0,0,0-.41-1.535,1.586,1.586,0,0,0,.512-.581,1.555,1.555,0,0,0-1.916-2.163,10.878,10.878,0,0,0-19.416,8.988,1.527,1.527,0,0,0-.773.727,1.552,1.552,0,0,0,1.962,2.142,10.908,10.908,0,0,0,2.061,2.515,10.872,10.872,0,0,0,.506,6.907l7.66-1.988-6.831,3.593a10.878,10.878,0,0,0,20.032-4.727,1.549,1.549,0,0,0,1.25-.846Z" transform="translate(-768.494 -349.96)"/>
        <path id="Path_280" data-name="Path 280" class="cls-6" d="M804.695,486.025a1.552,1.552,0,0,0-1.39-2.253,10.864,10.864,0,0,0-3.4-6.055c.047-.183.087-.363.122-.547a3.833,3.833,0,0,0-.561.5c-1.032,1.131-1.561,2.651-2.581,3.794a7.436,7.436,0,0,1-4.805,2.241,18.3,18.3,0,0,1-5.387-.433,15.539,15.539,0,0,0-4.454-.485,2.487,2.487,0,0,0-.424.055c.087.084.174.169.265.25a10.873,10.873,0,0,0,.506,6.907l7.66-1.991-6.831,3.593a10.878,10.878,0,0,0,20.032-4.727,1.549,1.549,0,0,0,1.25-.846Z" transform="translate(-777.888 -381.805)"/>
      </g>
      <g id="Group_73" data-name="Group 73" class="cls-3" transform="translate(0 92.847)">
        <path id="Path_281" data-name="Path 281" class="cls-4" d="M176.7,535.721c.372-1.131,1.881-1.651,3.369-1.163a3.711,3.711,0,0,1,.619.267c.1-.026.195-.049.291-.067a3.273,3.273,0,0,1-.093-.994,3.622,3.622,0,0,1-1.59-3.145,10.567,10.567,0,0,0-2.794-4.509c-.715-1.419-.424-3.015.666-3.567s2.549.16,3.267,1.579a3.488,3.488,0,0,1,.384,1.782,9387.453,9387.453,0,0,1,3.18,6.288,3.6,3.6,0,0,1,1.59,3.142A3.488,3.488,0,0,1,186.8,536.7a3.683,3.683,0,0,1,.291.843,3.1,3.1,0,0,1,.648-.695,3.655,3.655,0,0,1,.151-.66c.491-1.488,1.8-2.4,2.933-2.035s1.648,1.881,1.163,3.369a3.393,3.393,0,0,1-1.108,1.625,3.685,3.685,0,0,1-.151.657,3.227,3.227,0,0,1-1.485,1.866,3.733,3.733,0,0,1,.122.581,3.654,3.654,0,0,1,.735,1,3.582,3.582,0,0,1,.366,1.186,3.648,3.648,0,0,1,.738,1,3.709,3.709,0,0,0,1.1,2.186c.718,1.419.422,3.018-.663,3.564s-2.549-.157-3.267-1.578a3.628,3.628,0,0,1-.366-1.186,87104.086,87104.086,0,0,1-2.209-4.366,3.662,3.662,0,0,1-.738-1,3.7,3.7,0,0,1-.366-1.186,3.655,3.655,0,0,1-.735-1,3.581,3.581,0,0,1-.366-1.186,3.38,3.38,0,0,1-.5-.581,3.458,3.458,0,0,1-1.8-.11,3.856,3.856,0,0,1-.622-.27,3.374,3.374,0,0,1-1.962-.07C177.244,538.162,176.334,536.852,176.7,535.721Z" transform="translate(-150.688 -479.95)"/>
        <g id="Group_71" data-name="Group 71" class="cls-3" transform="translate(25.946 46.358)">
          <path id="Path_282" data-name="Path 282" d="M187.17,553a3.118,3.118,0,0,0,.506.4,3.289,3.289,0,0,0,.163,1.233,3.47,3.47,0,0,1-.308-.5A3.622,3.622,0,0,1,187.17,553Z" transform="translate(-184.476 -548.044)"/>
          <path id="Path_283" data-name="Path 283" d="M181.7,542.2a3.254,3.254,0,0,0,.506.4,3.311,3.311,0,0,0,.163,1.236A3.692,3.692,0,0,1,181.7,542.2Z" transform="translate(-180.596 -540.383)"/>
          <path id="Path_284" data-name="Path 284" d="M194.073,536.6a3.229,3.229,0,0,0-.023-.645,3.68,3.68,0,0,1,.7.962,3.777,3.777,0,0,1,.221.547A3.32,3.32,0,0,0,194.073,536.6Z" transform="translate(-189.356 -535.95)"/>
          <path id="Path_285" data-name="Path 285" d="M227.468,601.006a3.389,3.389,0,0,0-.43-.494,3.6,3.6,0,0,0-.128-.581,3.841,3.841,0,0,1,.334.541A3.778,3.778,0,0,1,227.468,601.006Z" transform="translate(-212.663 -581.331)"/>
          <path id="Path_286" data-name="Path 286" d="M223.652,593.5a1.24,1.24,0,0,1-.552-1.076h0a3.683,3.683,0,0,1,.547,1.07Z" transform="translate(-209.961 -576.004)"/>
          <path id="Path_287" data-name="Path 287" d="M182.19,563.74a2.95,2.95,0,0,0,.5.4,3.169,3.169,0,0,0,.093.994,2.892,2.892,0,0,0-.291.067,3.844,3.844,0,0,0-.622-.267c-1.488-.488-3,.032-3.366,1.163a1.692,1.692,0,0,0-.049.872,2.015,2.015,0,0,1-.483-1.922c.372-1.131,1.881-1.651,3.369-1.163a3.716,3.716,0,0,1,.619.268c.1-.026.195-.049.291-.067A3.006,3.006,0,0,1,182.19,563.74Z" transform="translate(-177.902 -555.632)"/>
          <path id="Path_288" data-name="Path 288" d="M230.71,607.4a3.714,3.714,0,0,1,.334.544,3.774,3.774,0,0,1,.224.547,3.414,3.414,0,0,0-.43-.5A3.6,3.6,0,0,0,230.71,607.4Z" transform="translate(-215.359 -586.629)"/>
          <path id="Path_289" data-name="Path 289" d="M199.543,547.425a3.22,3.22,0,0,0-.023-.645,3.631,3.631,0,0,1,.7.962,3.736,3.736,0,0,1,.221.544A3.308,3.308,0,0,0,199.543,547.425Z" transform="translate(-193.236 -543.632)"/>
          <path id="Path_290" data-name="Path 290" d="M206.524,591.986a3.469,3.469,0,0,0,.142.64,3.671,3.671,0,0,1-.547-1.1,3.406,3.406,0,0,0,.4.456Z" transform="translate(-197.917 -575.373)"/>
          <path id="Path_291" data-name="Path 291" d="M214.121,607.035a3.685,3.685,0,0,0,.145.64,3.474,3.474,0,0,1-.308-.5,3.745,3.745,0,0,1-.238-.581A3.781,3.781,0,0,0,214.121,607.035Z" transform="translate(-203.308 -586.055)"/>
          <path id="Path_292" data-name="Path 292" d="M210.324,599.525a3.471,3.471,0,0,0,.142.64,3.743,3.743,0,0,1-.308-.5,3.663,3.663,0,0,1-.238-.581,3.412,3.412,0,0,0,.4.445Z" transform="translate(-200.612 -580.728)"/>
          <path id="Path_293" data-name="Path 293" d="M202.76,584.5a3.446,3.446,0,0,0,.142.642,3.617,3.617,0,0,1-.291-.5,3.555,3.555,0,0,1-.241-.581A3.236,3.236,0,0,0,202.76,584.5Z" transform="translate(-195.257 -570.074)"/>
          <path id="Path_294" data-name="Path 294" d="M218.331,563.83c-1.131-.372-2.442.535-2.93,2.035a3.657,3.657,0,0,0-.151.66,3.09,3.09,0,0,0-.651.692,3.73,3.73,0,0,0-.305-.843c-.049-.1-.1-.195-.163-.291a3.092,3.092,0,0,1,.581-.61,3.658,3.658,0,0,1,.151-.66c.491-1.488,1.8-2.4,2.933-2.035a2.015,2.015,0,0,1,1.262,1.529A1.724,1.724,0,0,0,218.331,563.83Z" transform="translate(-203.599 -554.923)"/>
          <path id="Path_295" data-name="Path 295" d="M210.483,569.045a3.231,3.231,0,0,0-.023-.645,3.63,3.63,0,0,1,.7.962,3.778,3.778,0,0,1,.221.547A3.279,3.279,0,0,0,210.483,569.045Z" transform="translate(-200.995 -558.967)"/>
          <path id="Path_296" data-name="Path 296" d="M205.013,558.225a3.237,3.237,0,0,0-.023-.645,3.731,3.731,0,0,1,.7.962,3.784,3.784,0,0,1,.221.547A3.319,3.319,0,0,0,205.013,558.225Z" transform="translate(-197.116 -551.292)"/>
          <path id="Path_297" data-name="Path 297" d="M217.921,614.545a3.457,3.457,0,0,0,.145.642,3.664,3.664,0,0,1-.308-.506,3.746,3.746,0,0,1-.238-.581A3.787,3.787,0,0,0,217.921,614.545Z" transform="translate(-206.003 -591.382)"/>
        </g>
        <path id="Path_298" data-name="Path 298" class="cls-4" d="M166.777,505.856a3.465,3.465,0,0,1-1.2-1.363c-.718-1.422-.422-3.018.663-3.567s2.549.157,3.267,1.578a3.468,3.468,0,0,1,.384,1.779,3.6,3.6,0,0,1,1.59,3.145,3.488,3.488,0,0,1,1.206,1.363,3.847,3.847,0,0,1,.221.541,3.073,3.073,0,0,0-1.578-1.163,1.791,1.791,0,0,1-2.276,1.163,3.058,3.058,0,0,0,0,1.962,3.837,3.837,0,0,1-.291-.5,3.488,3.488,0,0,1-.387-1.779,3.614,3.614,0,0,1-1.59-3.145Z" transform="translate(-142.934 -464.617)"/>
        <path id="Path_299" data-name="Path 299" class="cls-5" d="M95.719,399.927a10.7,10.7,0,0,1-1.276-.706l4.733-3.459-5.564,2.863a10.564,10.564,0,0,1-3.951-7.366l9.459.1-9.48-1.587a10.55,10.55,0,1,1,20.875,2.674,10.678,10.678,0,0,1,1.942,1.163l-4.942,6.872,5.933-6.012a10.558,10.558,0,0,1,2.954,9.608,10.55,10.55,0,1,1-14.8,7.483,10.547,10.547,0,0,1-5.887-11.628Z" transform="translate(-89.352 -378.845)"/>
        <path id="Path_300" data-name="Path 300" class="cls-6" d="M144.157,439.645a10.5,10.5,0,0,1,.93,6.84,10.55,10.55,0,1,1-14.8,7.483C128.218,453.006,143.625,438.59,144.157,439.645Z" transform="translate(-118.038 -421.244)"/>
        <circle id="Ellipse_69" data-name="Ellipse 69" class="cls-5" cx="1.567" cy="1.567" r="1.567" transform="translate(12.669)"/>
        <circle id="Ellipse_70" data-name="Ellipse 70" class="cls-5" cx="1.567" cy="1.567" r="1.567" transform="translate(3.523 1.006)"/>
        <circle id="Ellipse_71" data-name="Ellipse 71" class="cls-5" cx="1.567" cy="1.567" r="1.567" transform="translate(0 15.073)"/>
        <circle id="Ellipse_72" data-name="Ellipse 72" class="cls-5" cx="1.567" cy="1.567" r="1.567" transform="translate(4.759 22.099)"/>
        <circle id="Ellipse_73" data-name="Ellipse 73" class="cls-5" cx="1.567" cy="1.567" r="1.567" transform="translate(11.259 36.689)"/>
        <circle id="Ellipse_74" data-name="Ellipse 74" class="cls-6" cx="1.567" cy="1.567" r="1.567" transform="translate(11.259 36.689)"/>
        <circle id="Ellipse_75" data-name="Ellipse 75" class="cls-5" cx="1.567" cy="1.567" r="1.567" transform="translate(25.715 20.163)"/>
        <circle id="Ellipse_76" data-name="Ellipse 76" class="cls-6" cx="1.567" cy="1.567" r="1.567" transform="translate(25.715 20.163)"/>
        <path id="Path_301" data-name="Path 301" class="cls-6" d="M180.5,531.54c1.041-.526,1.355-2.015.747-3.39.032.058.064.113.093.172.718,1.422.422,3.017-.666,3.567s-2.547-.157-3.265-1.578c-.029-.058-.058-.116-.084-.177C178.077,531.438,179.464,532.066,180.5,531.54Z" transform="translate(-151.551 -484.059)"/>
        <path id="Path_302" data-name="Path 302" class="cls-6" d="M185.822,542.06c1.041-.526,1.358-2.017.75-3.39.032.055.064.113.093.172.718,1.422.422,3.017-.666,3.567s-2.547-.157-3.265-1.578c-.032-.058-.058-.119-.084-.177C183.4,541.964,184.787,542.586,185.822,542.06Z" transform="translate(-155.324 -491.521)"/>
        <path id="Path_303" data-name="Path 303" class="cls-6" d="M191.142,552.57c1.041-.526,1.358-2.015.747-3.39.035.058.064.113.1.174.718,1.419.419,3.017-.666,3.564s-2.547-.157-3.265-1.579c-.032-.058-.058-.116-.084-.177C188.714,552.468,190.1,553.1,191.142,552.57Z" transform="translate(-159.098 -498.976)"/>
        <path id="Path_304" data-name="Path 304" class="cls-6" d="M196.462,563.09c1.041-.526,1.358-2.015.747-3.39.032.055.064.113.093.172.721,1.422.422,3.017-.663,3.567s-2.549-.157-3.267-1.578c-.029-.058-.055-.119-.081-.177C194.034,562.985,195.421,563.616,196.462,563.09Z" transform="translate(-162.871 -506.438)"/>
        <path id="Path_305" data-name="Path 305" class="cls-6" d="M201.774,573.607c1.041-.526,1.355-2.015.747-3.387.032.055.064.113.093.172.718,1.422.422,3.018-.663,3.567s-2.549-.16-3.267-1.578c-.029-.061-.055-.119-.084-.177C199.347,573.5,200.734,574.133,201.774,573.607Z" transform="translate(-166.637 -513.9)"/>
        <path id="Path_306" data-name="Path 306" class="cls-6" d="M207.094,584.12c1.041-.526,1.355-2.015.747-3.39.032.058.064.113.093.172.718,1.422.422,3.018-.663,3.567s-2.549-.157-3.267-1.578c-.029-.058-.058-.116-.084-.177C204.667,584.006,206.054,584.646,207.094,584.12Z" transform="translate(-170.411 -521.354)"/>
        <path id="Path_307" data-name="Path 307" class="cls-6" d="M212.414,594.64a2.563,2.563,0,0,0,.747-3.39c.032.055.064.113.093.172.718,1.422.422,3.017-.666,3.567s-2.547-.16-3.265-1.578c-.029-.061-.058-.119-.084-.177C209.987,594.535,211.374,595.166,212.414,594.64Z" transform="translate(-174.184 -528.816)"/>
        <path id="Path_308" data-name="Path 308" class="cls-6" d="M217.732,605.15c1.041-.526,1.358-2.015.747-3.39.035.058.064.113.1.174.718,1.419.419,3.017-.666,3.564s-2.547-.157-3.265-1.578c-.032-.058-.058-.116-.084-.177C215.307,605.048,216.691,605.676,217.732,605.15Z" transform="translate(-177.958 -536.271)"/>
        <path id="Path_309" data-name="Path 309" class="cls-6" d="M221.254,612.06c1.041-.526,1.355-2.015.747-3.39.032.058.064.113.093.174.718,1.419.422,3.017-.663,3.564s-2.549-.157-3.267-1.578c-.029-.058-.058-.116-.084-.177A2.548,2.548,0,0,0,221.254,612.06Z" transform="translate(-180.455 -541.172)"/>
        <path id="Path_310" data-name="Path 310" class="cls-5" d="M130.249,554.421a5.4,5.4,0,0,1-.291-1.433.782.782,0,1,1,.119-1.555,5.471,5.471,0,0,1,2.875-3.706.783.783,0,1,1,1.4-.706.71.71,0,0,1,.07.209,5.5,5.5,0,0,1,4.814,1.453,5.433,5.433,0,0,1,1.453-.041l.634,2.884.015-2.782a5.48,5.48,0,1,1-2.93,10.549.8.8,0,0,1-.328.317A.785.785,0,0,1,137,558.6a5.479,5.479,0,0,1-.7-.581,5.486,5.486,0,0,1-5.756-2.907l2.951-.5Z" transform="translate(-117.397 -497.139)"/>
        <g id="Group_72" data-name="Group 72" class="cls-3" transform="translate(15.616 51.28)">
          <path id="Path_311" data-name="Path 311" d="M144.164,560.284a26.38,26.38,0,0,0,2.526-4.773,19.384,19.384,0,0,1,1.035-1.959l.581-.672c.1.084.195.169.291.256a5.428,5.428,0,0,1,1.454-.041l.634,2.884.009-2.773a5.48,5.48,0,1,1-2.93,10.55.8.8,0,0,1-.329.317.785.785,0,0,1-1.076-1.009,5.472,5.472,0,0,1-.7-.581A5.523,5.523,0,0,1,142.37,562a7.729,7.729,0,0,0,1.794-1.712Z" transform="translate(-142.37 -552.88)"/>
        </g>
        <path id="Path_312" data-name="Path 312" class="cls-5" d="M214.7,530.18a.779.779,0,0,1,.346-1.049.767.767,0,0,1,.355-.084,5.48,5.48,0,0,1,1.712-3.052,5.439,5.439,0,0,1-.16-1.712l2.875-.483-2.794-.177a5.42,5.42,0,0,1,.209-.773.768.768,0,0,1-.259-.291.785.785,0,0,1,.965-1.09,5.417,5.417,0,0,1,2-1.724,5.477,5.477,0,0,1,7.782,6.25.782.782,0,0,1-.6,1.445A5.451,5.451,0,0,1,226.1,528.7a5.494,5.494,0,0,1-.253,3.488L222,531.177l3.439,1.811a5.483,5.483,0,0,1-9.544-.448,5.556,5.556,0,0,1-.564-1.933A.776.776,0,0,1,214.7,530.18Z" transform="translate(-178 -477.676)"/>
        <path id="Path_313" data-name="Path 313" class="cls-6" d="M214.7,546.209a.779.779,0,0,1,.346-1.049.769.769,0,0,1,.355-.084,5.479,5.479,0,0,1,1.712-3.052c-.023-.09-.044-.183-.061-.273a2.118,2.118,0,0,1,.291.25c.52.581.788,1.334,1.3,1.91a3.753,3.753,0,0,0,2.422,1.131,9.167,9.167,0,0,0,2.712-.218,7.949,7.949,0,0,1,2.244-.247l.215.029-.134.125a5.494,5.494,0,0,1-.253,3.488L222,547.206l3.439,1.811a5.483,5.483,0,0,1-9.544-.448,5.556,5.556,0,0,1-.564-1.933A.776.776,0,0,1,214.7,546.209Z" transform="translate(-178 -493.706)"/>
      </g>
      <path id="Path_314" data-name="Path 314" class="cls-2" d="M391.974,89.884a5.881,5.881,0,0,0-3.413.372,5.035,5.035,0,0,1-4.1,0,5.744,5.744,0,0,0-4.82.1,2.988,2.988,0,0,1-1.387.346c-1.953,0-3.578-1.968-3.916-4.564a3.8,3.8,0,0,0,.977-1.052,5.492,5.492,0,0,1,9.8-.035,3.779,3.779,0,0,0,3.244,1.785h.052C389.956,86.823,391.3,88.07,391.974,89.884Z" transform="translate(-291.29 -74.794)"/>
      <path id="Path_315" data-name="Path 315" class="cls-2" d="M397.882,64.041l-3.157,2,1.916-3.488a3.122,3.122,0,0,0-1.91-.68h-.049a3.746,3.746,0,0,1-.654-.049l-1.073.68.459-.834a3.834,3.834,0,0,1-1.872-1.41l-1.922,1.2,1.209-2.2a5.6,5.6,0,0,0-4.291-2.172,5.871,5.871,0,0,0-4.913,3.032,3.669,3.669,0,0,1-3.247,1.744h-.1c-2.2,0-3.983,2.491-3.983,5.57S376.085,73,378.283,73a2.988,2.988,0,0,0,1.387-.346,5.733,5.733,0,0,1,4.82-.093,5.049,5.049,0,0,0,4.1,0,5.741,5.741,0,0,1,4.776.093,3.009,3.009,0,0,0,1.372.337c2.2,0,3.983-2.491,3.983-5.567A7.081,7.081,0,0,0,397.882,64.041Z" transform="translate(-291.261 -57.09)"/>
      <path id="Path_316" data-name="Path 316" class="cls-2" d="M147.532,220.189a8.43,8.43,0,0,0-4.875.529,7.183,7.183,0,0,1-5.855-.015,8.2,8.2,0,0,0-6.884.137,4.288,4.288,0,0,1-1.983.494c-2.791,0-5.113-2.811-5.6-6.52a5.352,5.352,0,0,0,1.4-1.5,7.838,7.838,0,0,1,13.994-.049,5.384,5.384,0,0,0,4.651,2.549h.073C144.657,215.809,146.582,217.591,147.532,220.189Z" transform="translate(-112.546 -164.825)"/>
      <path id="Path_317" data-name="Path 317" class="cls-2" d="M155.95,183.267l-4.512,2.861,2.738-4.98a4.459,4.459,0,0,0-2.73-.974h-.073a5.279,5.279,0,0,1-.936-.07l-1.523.985.657-1.192a5.436,5.436,0,0,1-2.674-2.035l-2.738,1.744,1.724-3.169a8.011,8.011,0,0,0-6.131-3.1,8.4,8.4,0,0,0-7.018,4.329,5.247,5.247,0,0,1-4.651,2.5h-.154c-3.142,0-5.689,3.561-5.689,7.956s2.547,7.956,5.689,7.956a4.247,4.247,0,0,0,1.983-.5,8.2,8.2,0,0,1,6.884-.134,7.183,7.183,0,0,0,5.855.015,8.212,8.212,0,0,1,6.826.131,4.259,4.259,0,0,0,1.959.485c3.142,0,5.689-3.564,5.689-7.956a10.1,10.1,0,0,0-1.174-4.861Z" transform="translate(-112.475 -139.546)"/>
      <path id="Path_318" data-name="Path 318" class="cls-2" d="M836.62,128.849a5.884,5.884,0,0,1,3.413.372,5.026,5.026,0,0,0,4.1,0,5.744,5.744,0,0,1,4.82.1,3,3,0,0,0,1.387.346c1.953,0,3.581-1.968,3.919-4.564a3.76,3.76,0,0,1-.977-1.052,5.491,5.491,0,0,0-9.808-.049,3.779,3.779,0,0,1-3.25,1.794h-.049C838.623,125.788,837.274,127.035,836.62,128.849Z" transform="translate(-619.184 -102.421)"/>
      <path id="Path_319" data-name="Path 319" class="cls-2" d="M814.138,103.076l3.157,2-1.919-3.488a3.128,3.128,0,0,1,1.91-.68h.052a3.778,3.778,0,0,0,.654-.049l1.07.68-.459-.834a3.84,3.84,0,0,0,1.89-1.4l1.916,1.215-1.212-2.2a5.587,5.587,0,0,1,4.294-2.172,5.871,5.871,0,0,1,4.913,3.032,3.666,3.666,0,0,0,3.247,1.744h.1c2.2,0,3.983,2.491,3.983,5.57s-1.782,5.567-3.983,5.567a3.006,3.006,0,0,1-1.387-.346,5.733,5.733,0,0,0-4.82-.093,5.044,5.044,0,0,1-4.1,0,5.747,5.747,0,0,0-4.779.093,3,3,0,0,1-1.372.337c-2.2,0-3.983-2.491-3.983-5.567a7.082,7.082,0,0,1,.82-3.4Z" transform="translate(-602.656 -84.788)"/>
      <ellipse id="Ellipse_77" data-name="Ellipse 77" class="cls-2" cx="33.431" cy="5.814" rx="33.431" ry="5.814" transform="translate(145.534 214.212)"/>
      <path id="Path_320" data-name="Path 320" class="cls-7" d="M429.05,603.54l-51.8-.666.154-1.329,2.5-21.916H425.4l3.346,21.916.256,1.663Z" transform="translate(-267.583 -411.131)"/>
      <path id="Path_321" data-name="Path 321" class="cls-6" d="M429,656.683H403.151l-25.9-.334.154-1.328h51.341Z" transform="translate(-267.583 -464.605)"/>
      <rect id="Rectangle_68" data-name="Rectangle 68" class="cls-7" width="68.736" height="1.66" transform="translate(101.033 190.749)"/>
      <path id="Path_322" data-name="Path 322" class="cls-4" d="M408.88,173.337a4.323,4.323,0,0,0-4.3-4.337H212.622a4.323,4.323,0,0,0-4.3,4.343V289.7H408.88Z" transform="translate(-173.532 -136.468)"/>
      <path id="Path_323" data-name="Path 323" class="cls-7" d="M208.32,580.19v13.628a4.3,4.3,0,0,0,4.3,4.3H404.578a4.3,4.3,0,0,0,4.3-4.3V580.19Z" transform="translate(-173.532 -428.124)"/>
      <rect id="Rectangle_69" data-name="Rectangle 69" class="cls-8" width="184.953" height="104.597" transform="translate(43.091 39.829)"/>
      <path id="Path_324" data-name="Path 324" class="cls-9" d="M545.788,602.194a4.477,4.477,0,0,0,3.526-1.712h0a4.663,4.663,0,0,0,.349-.512l-2.462-.416,2.66.017a4.482,4.482,0,0,0,.084-3.549l-3.567,1.849,3.291-2.419a4.483,4.483,0,1,0-7.4,5.018h0A4.477,4.477,0,0,0,545.788,602.194Z" transform="translate(-409.722 -437.369)"/>
      <path id="Path_325" data-name="Path 325" class="cls-6" d="M483.48,584.77l20.666,20.756-3.172-20.756Z" transform="translate(-342.932 -414.777)"/>
      <rect id="Rectangle_70" data-name="Rectangle 70" class="cls-10" width="185.153" height="6.111" transform="translate(42.945 39.841)"/>
      <rect id="Rectangle_71" data-name="Rectangle 71" class="cls-11" width="55.786" height="3.718" rx="0.58" transform="translate(107.231 40.905)"/>
      <path id="Path_326" data-name="Path 326" class="cls-4" d="M638.542,200.988h-.137l-.049-.044a1.131,1.131,0,0,0,.262-.724,1.1,1.1,0,1,0-1.1,1.108,1.133,1.133,0,0,0,.724-.265l.049.044v.137l.852.852.253-.256Zm-1.02,0a.762.762,0,1,1,.543-.224A.767.767,0,0,1,637.522,200.988Z" transform="translate(-477.183 -157.839)"/>
      <circle id="Ellipse_78" data-name="Ellipse 78" class="cls-12" cx="1.119" cy="1.119" r="1.119" transform="translate(45.155 41.777)"/>
      <circle id="Ellipse_79" data-name="Ellipse 79" class="cls-13" cx="1.119" cy="1.119" r="1.119" transform="translate(48.233 41.777)"/>
      <circle id="Ellipse_80" data-name="Ellipse 80" class="cls-14" cx="1.119" cy="1.119" r="1.119" transform="translate(51.315 41.777)"/>
      <path id="Path_327" data-name="Path 327" class="cls-9" d="M538.4,335.07a12.41,12.41,0,0,0-20.617,0,11.129,11.129,0,0,0,20.617,0Z" transform="translate(-393.031 -250.36)"/>
      <path id="Path_328" data-name="Path 328" class="cls-9" d="M494.1,345.468a2.666,2.666,0,0,1-.512-.291,2.053,2.053,0,0,1-.564-.73,2.087,2.087,0,1,0-3.407.506,2.329,2.329,0,0,0,.494.4,1.436,1.436,0,0,1,.555.581,4.2,4.2,0,0,0,.965,1.267,8.432,8.432,0,0,0,1.323.93,19.277,19.277,0,0,0-1.087,5.686,7.866,7.866,0,0,0-2.215.358,3.573,3.573,0,0,0-1.026.512,2.475,2.475,0,0,0-.253-.017,2.09,2.09,0,1,0,1.956,2.826,1.334,1.334,0,0,1,1.078-.872,4.865,4.865,0,0,1,.538-.035,18.722,18.722,0,0,0,2.485,7.753,6.1,6.1,0,0,0-2.311,3.157.869.869,0,0,0-.166.119,1.978,1.978,0,0,0-.244.227,2.087,2.087,0,1,0,3.5.683,1.369,1.369,0,0,1,.34-1.477,5.853,5.853,0,0,1,.494-.424c2.358,2.753,5.163,4.517,8.666,4.727V352.675A12.893,12.893,0,0,1,494.1,345.468Zm29.021,9.221a2.3,2.3,0,0,0-.253.017,3.941,3.941,0,0,0-1.026-.512,7.806,7.806,0,0,0-2.215-.358,19.694,19.694,0,0,0-1.087-5.683,8.432,8.432,0,0,0,1.323-.93,4.529,4.529,0,0,0,1-1.329,1.227,1.227,0,0,1,.515-.509h0a2.087,2.087,0,1,0-2.907-.922,1.983,1.983,0,0,1-.564.73,5.482,5.482,0,0,1-.512.375,12.8,12.8,0,0,1-10.6,7.119v18.695c3.488-.209,6.311-1.983,8.666-4.727.183.145.337.276.468.4a1.413,1.413,0,0,1,.366,1.52,2.087,2.087,0,1,0,3.512-.677,1.972,1.972,0,0,0-.244-.227c-.1-.076-.166-.119-.166-.119a6.014,6.014,0,0,0-2.326-3.157,18.72,18.72,0,0,0,2.486-7.753,4.626,4.626,0,0,1,.515.035,1.4,1.4,0,0,1,1.119.872,2.087,2.087,0,0,0,4.026-.634,2.119,2.119,0,0,0-2.09-2.227Z" transform="translate(-370.688 -258.784)"/>
      <path id="Path_329" data-name="Path 329" class="cls-15" d="M649.514,584.512a2.778,2.778,0,0,0-.631-.7,8.38,8.38,0,0,1-2.174-4.689,47.825,47.825,0,0,0-.907-5.177,17.072,17.072,0,0,0-1.023-2.52,7.382,7.382,0,0,0-1.189-2.276.785.785,0,0,0-.366-.177,4.319,4.319,0,0,0-1.052-1.4,10.684,10.684,0,0,1-2.4-2.326,5.235,5.235,0,0,0-.561-.956c-.375-.413-.968-.581-1.314-1.017a2.923,2.923,0,0,1-.291-2.09c.058-.718,0-1.579-.622-1.956-.372-.23-.852-.206-1.238-.41a1.792,1.792,0,0,1-.8-1.677c.012-.654.215-1.291.267-1.945.163-2.081-1.209-4.151-.68-6.169a12.541,12.541,0,0,1,1-2.14,4.465,4.465,0,0,0,.291-.738,10.389,10.389,0,0,0,2.831.683c-1.6-3.593-1.195-7.768-1.942-11.628l.1-.131a6.058,6.058,0,0,0,1.227-3.448c0-1.436-.672-2.779-.974-4.186-.259-1.195-.247-2.445-.581-3.619a10.945,10.945,0,0,0-.919-2.1q-.544-1.009-1.142-1.986-.558-1.849-1.119-3.7a17.869,17.869,0,0,0-2.079-4.983c-.372-.547-.485-1.657-1.058-1.988a2.561,2.561,0,0,0-1.512-.265,2.826,2.826,0,0,1-1.619-2,1.94,1.94,0,0,1,.058-.581h.1c1.279-.116,1.927-1.244,2.593-2.233,1.076-1.6.666-3.762,0-5.581a3.779,3.779,0,0,0-.872-1.538c-.933-.872-2.41-.68-3.613-1.1-.4-.14-.782-.352-1.195-.451a3.576,3.576,0,0,0-2.369.445,23.582,23.582,0,0,1-2.183,1.137c-.768.291-1.715.52-1.9,1.308a1.454,1.454,0,0,0,.064.794,2.96,2.96,0,0,0,.9,1.3,5.177,5.177,0,0,0,3.16,7.215q.332.532.616,1.084a3.576,3.576,0,0,1,.506,2.116,6.524,6.524,0,0,0-.581.712,13.7,13.7,0,0,0-1.744,3.887,41.176,41.176,0,0,0-1.4,5.311,39.894,39.894,0,0,0-2.09,4.535,10.233,10.233,0,0,1-2.727-.366l-2.454-.555a5.545,5.545,0,0,1-2.413-.968c-.355-.291-.631-.677-.991-.965s-1.084-.625-1.48-.387a1.161,1.161,0,0,0-.2.154c-.361-.73-.7-1.453-1.122-2.16a4.1,4.1,0,0,0-2.631-2.081,2.678,2.678,0,0,0-1.974.459,1.591,1.591,0,0,0-.581,2.116,3.864,3.864,0,0,0,.4.413,8.483,8.483,0,0,1,.9,1.247,6.369,6.369,0,0,0,3.922,2.547l-.1.291a4.48,4.48,0,0,0-.535,1.962L616,530.592a6.724,6.724,0,0,0,2.2.485,3.548,3.548,0,0,0,.872-.116v.581c.029,3.834-.581,7.643-.695,11.474a2.976,2.976,0,0,0,.442,2,2.239,2.239,0,0,0,2.137.581,4.981,4.981,0,0,0,.541-.122,20.152,20.152,0,0,1,.558,2.939l.721,5.192a7.887,7.887,0,0,1,.113,1.61,11.35,11.35,0,0,1-1.192,3.433,4.064,4.064,0,0,0-.131,3.523c.192.326.456.6.628.939a3.819,3.819,0,0,1,.291,1.651q.067,2.349.128,4.7a.532.532,0,0,0-.366.073c-.6.471-.538,2.712-.581,3.407-.047,1.163,0,2.349-.064,3.523a20.992,20.992,0,0,1-.759,4.677,2.991,2.991,0,0,1-.666,1.34,2.832,2.832,0,0,1-1.183.613,13.517,13.517,0,0,1-4.48.61,4.409,4.409,0,0,0-1.823.154,1.255,1.255,0,0,0-.823,1.453,1.833,1.833,0,0,0,1.2.9,19.04,19.04,0,0,1,3.2,1.471,8.641,8.641,0,0,0,1.235.7,6.376,6.376,0,0,0,1.273.314l5.154.89c1.055.18,2.326.291,3-.581a2.642,2.642,0,0,0,.4-1.709,22.852,22.852,0,0,1-.11-3.509,10.8,10.8,0,0,1,.541-2.015q.77-2.288,1.547-4.573a24.03,24.03,0,0,0,1.241-4.677,1.743,1.743,0,0,0-.378-1.608,1.03,1.03,0,0,0-.384-.2c-.017-1.4-.2-2.805-.122-4.206.02-.349.055-.7.084-1.049a5.119,5.119,0,0,1,.718.849c.5.779.68,1.808,1.439,2.326.645.442,1.6.419,2.055,1.058a2.983,2.983,0,0,1,.326.788,5.615,5.615,0,0,0,1.163,1.846,9.3,9.3,0,0,0,.718,1.843q.642,1.358,1.279,2.706a31.561,31.561,0,0,0,1.454,2.84,8.011,8.011,0,0,1,.974,1.878,4.314,4.314,0,0,1-1.317,4.07,11.32,11.32,0,0,1-3.828,2.233,1.078,1.078,0,0,0-.39.233.753.753,0,0,0-.177.506,1.641,1.641,0,0,0,1.186,1.454,4.437,4.437,0,0,0,1.985.073,29.486,29.486,0,0,0,10.7-3.163,3.779,3.779,0,0,0,1.276-.985A1.491,1.491,0,0,0,649.514,584.512Z" transform="translate(-451.546 -367.875)"/>
      <path id="Path_330" data-name="Path 330" class="cls-16" d="M707.8,570.954q.93,1.427,1.744,2.924a10.756,10.756,0,0,1,.922,2.084c.337,1.163.328,2.4.581,3.59.291,1.4.971,2.727.971,4.157a5.978,5.978,0,0,1-1.227,3.419,16.229,16.229,0,0,1-2.564,2.645A54.538,54.538,0,0,1,704.6,571.98a6.242,6.242,0,0,1,.273-2.5c.189-.494,1.1-1.849,1.68-1.317.212.195.267,1.073.4,1.366A10.5,10.5,0,0,0,707.8,570.954Z" transform="translate(-525.532 -419.507)"/>
      <path id="Path_331" data-name="Path 331" class="cls-6" d="M707.8,570.954q.93,1.427,1.744,2.924a10.756,10.756,0,0,1,.922,2.084c.337,1.163.328,2.4.581,3.59.291,1.4.971,2.727.971,4.157a5.978,5.978,0,0,1-1.227,3.419,16.229,16.229,0,0,1-2.564,2.645A54.538,54.538,0,0,1,704.6,571.98a6.242,6.242,0,0,1,.273-2.5c.189-.494,1.1-1.849,1.68-1.317.212.195.267,1.073.4,1.366A10.5,10.5,0,0,0,707.8,570.954Z" transform="translate(-525.532 -419.507)"/>
      <path id="Path_332" data-name="Path 332" class="cls-7" d="M382.048,421.707c-2.3,2.3-2.576,3.308-3.956,3.765s-6.349,3.029-4.788,5.881l4.2,2.773.122.081.642,1.93-6.349,11.3s-10.465-4.785-11.491,2.294-.375,9.012-.651,12.791.09,4.872-.831,4.872-1.285-2.483-1.285-2.483-.058-.113-.16-.326c-1.369-2.846-10.663-23.739,4.224-38.1,0,0,6.9-.453,8.555-8.361,1.145-5.465,5.151-4.994,7.814-3.881a8.832,8.832,0,0,1,2.39,1.4,11.769,11.769,0,0,1,1.712,2.035C382.952,418.884,383.364,420.387,382.048,421.707Z" transform="translate(-276.421 -309.92)"/>
      <path id="Path_333" data-name="Path 333" class="cls-6" d="M386.1,484.467l.643,1.93L380.4,497.7s-10.465-4.785-11.491,2.294-.375,9.012-.651,12.791.09,4.872-.831,4.872-1.285-2.483-1.285-2.483-.058-.113-.16-.326c-.462-3.535-2.805-24.212,5.689-23.114,0,0,6.893,3.221,7.994,1.936.872-1.017,4.744-6.869,6.32-9.27Z" transform="translate(-284.901 -360.181)"/>
      <path id="Path_334" data-name="Path 334" class="cls-6" d="M421.61,419.356l-4.2,4.77s-4.875,6.523-5.887,6.247a4.717,4.717,0,0,0-.922-.107,1.791,1.791,0,0,1-1.163-3.018c1.663-1.744,4.727-5.055,4.927-5.791a50.776,50.776,0,0,1,3.128-5.538,8.83,8.83,0,0,1,2.39,1.4A11.769,11.769,0,0,1,421.61,419.356Z" transform="translate(-315.839 -311.608)"/>
      <path id="Path_335" data-name="Path 335" class="cls-17" d="M545.748,540.76c-.712,1.424-4.361,6.768-5.956,9.1l-.747,1.1s-.291,1.93-5.055-.462-116.711-49.629-116.711-49.629l-.759-2.279,5.523-8.27,122.7,47.4S546.67,538.919,545.748,540.76Z" transform="translate(-321.208 -364.38)"/>
      <path id="Path_336" data-name="Path 336" class="cls-6" d="M539.792,570.041l-.747,1.1s-.291,1.93-5.055-.462-116.711-49.628-116.711-49.628l-.759-2.279Z" transform="translate(-321.208 -384.559)"/>
      <path id="Path_337" data-name="Path 337" class="cls-18" d="M597.964,588.8a4.079,4.079,0,0,0-3.282.642,2.7,2.7,0,0,0-.942,1.791c-.076.805.392,1.762,1.2,1.823a3.827,3.827,0,0,0,.581-.038,8.686,8.686,0,0,1,1.523.128,6.218,6.218,0,0,0,5.3-2.14c.695-.872-.221-1.25-1.041-1.424C600.182,589.341,599.087,588.977,597.964,588.8Z" transform="translate(-446.905 -434.17)"/>
      <path id="Path_338" data-name="Path 338" class="cls-4" d="M672.457,661.35l.721,5.122a7.806,7.806,0,0,1,.11,1.6,11.287,11.287,0,0,1-1.189,3.4,3.988,3.988,0,0,0-.131,3.488c.189.323.453.6.625.933a3.755,3.755,0,0,1,.291,1.637l.2,7.268a45.723,45.723,0,0,0,6.738-.038.375.375,0,0,0,.244-.076.4.4,0,0,0,.084-.265c.1-1.7-.2-3.4-.1-5.1.035-.622.122-1.241.134-1.866.035-2.532-1.215-5.012-.837-7.515a16.567,16.567,0,0,1,.465-1.869c1.195-4.36.942-8.942.677-13.445a.316.316,0,0,0-.058-.2.308.308,0,0,0-.157-.084,8.27,8.27,0,0,0-7.494,1.424c-.317.256-1.116.5-1.326.808-.291.424.09.849.259,1.3A16.54,16.54,0,0,1,672.457,661.35Z" transform="translate(-501.955 -480.47)"/>
      <path id="Path_339" data-name="Path 339" class="cls-6" d="M672.457,661.35l.721,5.122a7.806,7.806,0,0,1,.11,1.6,11.287,11.287,0,0,1-1.189,3.4,3.988,3.988,0,0,0-.131,3.488c.189.323.453.6.625.933a3.755,3.755,0,0,1,.291,1.637l.2,7.268a45.723,45.723,0,0,0,6.738-.038.375.375,0,0,0,.244-.076.4.4,0,0,0,.084-.265c.1-1.7-.2-3.4-.1-5.1.035-.622.122-1.241.134-1.866.035-2.532-1.215-5.012-.837-7.515a16.567,16.567,0,0,1,.465-1.869c1.195-4.36.942-8.942.677-13.445a.316.316,0,0,0-.058-.2.308.308,0,0,0-.157-.084,8.27,8.27,0,0,0-7.494,1.424c-.317.256-1.116.5-1.326.808-.291.424.09.849.259,1.3A16.54,16.54,0,0,1,672.457,661.35Z" transform="translate(-501.955 -480.47)"/>
      <path id="Path_340" data-name="Path 340" class="cls-4" d="M695.162,655.475a12.6,12.6,0,0,0-1,2.122c-.529,2,.84,4.07.677,6.122-.052.648-.253,1.279-.267,1.927a1.8,1.8,0,0,0,.8,1.669c.387.2.872.177,1.236.4a2,2,0,0,1,.622,1.942,2.846,2.846,0,0,0,.291,2.073c.346.433.939.6,1.311,1.012a4.989,4.989,0,0,1,.561.948,10.942,10.942,0,0,0,2.4,2.326,2.931,2.931,0,0,1,1.163,2.933,3.235,3.235,0,0,1-1.779,1.613,18.881,18.881,0,0,1-4.236,1.5,1.024,1.024,0,0,1-.485.026,1.038,1.038,0,0,1-.424-.291,7.887,7.887,0,0,1-2.14-2.852,2.926,2.926,0,0,0-.326-.779c-.453-.637-1.41-.613-2.055-1.052-.756-.515-.939-1.535-1.433-2.305a25.8,25.8,0,0,0-1.744-1.907c-.89-1.128-1.108-2.634-1.744-3.922-.27-.547-.616-1.058-.831-1.628a8.893,8.893,0,0,1-.4-2.1c-.41-3.4-1.453-6.814-.8-10.175.145-.738.369-1.454.462-2.215.16-1.317-.093-2.666.1-3.98a1.1,1.1,0,0,1,.439-.846,1.162,1.162,0,0,1,.5-.1,34.075,34.075,0,0,1,5.169.116,3.2,3.2,0,0,1,2.372.974,5.2,5.2,0,0,1,.564,2.169,5.351,5.351,0,0,0,1.125,2.125A2.015,2.015,0,0,1,695.162,655.475Z" transform="translate(-511.18 -476.139)"/>
      <path id="Path_341" data-name="Path 341" class="cls-16" d="M656.945,752.313a2.04,2.04,0,0,1,1.323.262,1.746,1.746,0,0,1,.378,1.6,23.958,23.958,0,0,1-1.244,4.651l-1.547,4.538a10.648,10.648,0,0,0-.541,2,22.566,22.566,0,0,0,.11,3.488,2.733,2.733,0,0,1-.4,1.695c-.657.846-1.939.747-2.994.581l-5.148-.872a6.122,6.122,0,0,1-1.273-.311,8.9,8.9,0,0,1-1.235-.695,19.021,19.021,0,0,0-3.2-1.454c-.483-.18-1.023-.41-1.2-.9a1.255,1.255,0,0,1,.823-1.453,4.455,4.455,0,0,1,1.823-.157,13.663,13.663,0,0,0,4.477-.6,2.832,2.832,0,0,0,1.18-.61,2.908,2.908,0,0,0,.68-1.369,20.4,20.4,0,0,0,.779-4.651c.061-1.163.02-2.326.067-3.488.029-.689-.038-2.907.567-3.381.462-.355,2.363.625,2.988.767A14.537,14.537,0,0,0,656.945,752.313Z" transform="translate(-479.67 -549.354)"/>
      <path id="Path_342" data-name="Path 342" class="cls-16" d="M728.38,754.312a49.735,49.735,0,0,1,.907,5.14,8.362,8.362,0,0,0,2.172,4.651,2.868,2.868,0,0,1,.631.7,1.471,1.471,0,0,1-.218,1.52,3.816,3.816,0,0,1-1.276.98,29.6,29.6,0,0,1-10.7,3.143,4.51,4.51,0,0,1-1.983-.073,1.635,1.635,0,0,1-1.183-1.453.742.742,0,0,1,.174-.5,1.084,1.084,0,0,1,.392-.23,11.572,11.572,0,0,0,3.826-2.218,4.239,4.239,0,0,0,1.317-4.029,7.973,7.973,0,0,0-.98-1.863,31.479,31.479,0,0,1-1.453-2.817l-1.279-2.683a7.037,7.037,0,0,1-.817-2.459,11.8,11.8,0,0,0,4.715-.756,7.412,7.412,0,0,0,1.939-1.163c.494-.413.945-1.183,1.61-.645a7.762,7.762,0,0,1,1.186,2.256,16.574,16.574,0,0,1,1.02,2.506Z" transform="translate(-534.145 -548.121)"/>
      <path id="Path_343" data-name="Path 343" class="cls-18" d="M677.945,532.133c.128,1.116,1.209,1.852,2.241,2.294l-6.532,2.084a2.942,2.942,0,0,0-.337-2.616,14.807,14.807,0,0,0-1.163-1.863c-.064-.09-.137-.2-.09-.308a.325.325,0,0,1,.183-.142,16.426,16.426,0,0,1,4.195-1.436c.424-.061,1.227-.23,1.544.2S677.884,531.619,677.945,532.133Z" transform="translate(-502.454 -392.568)"/>
      <path id="Path_344" data-name="Path 344" class="cls-6" d="M677.945,532.133c.128,1.116,1.209,1.852,2.241,2.294l-6.532,2.084a2.942,2.942,0,0,0-.337-2.616,14.807,14.807,0,0,0-1.163-1.863c-.064-.09-.137-.2-.09-.308a.325.325,0,0,1,.183-.142,16.426,16.426,0,0,1,4.195-1.436c.424-.061,1.227-.23,1.544.2S677.884,531.619,677.945,532.133Z" transform="translate(-502.454 -392.568)"/>
      <circle id="Ellipse_81" data-name="Ellipse 81" class="cls-18" cx="5.122" cy="5.122" r="5.122" transform="translate(166.572 130.225)"/>
      <path id="Path_345" data-name="Path 345" class="cls-16" d="M662.93,579.933a2.262,2.262,0,0,0,2.137.581c1.788-.291,3.25-1.608,5-2.081,2.145-.581,4.416.166,6.442,1.081s4.041,2.035,6.256,2.192c-2-4.465-.858-9.837-2.773-14.34a11.493,11.493,0,0,1-1.227-3.355c-.131-1.48.608-2.907.721-4.378a10.653,10.653,0,0,0-.669-3.866l-1.4-4.6a17.629,17.629,0,0,0-2.076-4.942c-.375-.544-.488-1.645-1.058-1.974-1.244-.718-3.131.186-4.48.235a4.677,4.677,0,0,0-3.366,2.093,13.456,13.456,0,0,0-1.744,3.858,36.673,36.673,0,0,0-1.549,6.172c-.044.314-.081.628-.111.945-.291,2.986.134,5.989.157,8.989v.02c.029,3.805-.581,7.587-.695,11.39A3.038,3.038,0,0,0,662.93,579.933Z" transform="translate(-495.676 -402.434)"/>
      <path id="Path_346" data-name="Path 346" class="cls-6" d="M664.292,573.9a6.56,6.56,0,0,0,2.689-1.61,11.247,11.247,0,0,0,1.785-2.035,14.5,14.5,0,0,0,1.538-3.218,37.608,37.608,0,0,0,2.035-9.381,3.583,3.583,0,0,0-.422-2.5,2.1,2.1,0,0,0-2.544-.616,4.214,4.214,0,0,0-1.544,1.66,21.433,21.433,0,0,0-2.166,4.017c-.233.634-.4,1.285-.631,1.922a17.757,17.757,0,0,1-.8,1.84c-.044.314-.081.628-.11.945C663.856,567.9,664.269,570.9,664.292,573.9Z" transform="translate(-496.77 -409.789)"/>
      <path id="Path_347" data-name="Path 347" class="cls-16" d="M638.406,553.207a3.6,3.6,0,0,1,.424,2.5,37.555,37.555,0,0,1-2.035,9.381,14.374,14.374,0,0,1-1.538,3.244,11.354,11.354,0,0,1-1.785,2.035,5.569,5.569,0,0,1-3.532,1.718,6.733,6.733,0,0,1-2.2-.48l-10.916-3.715a4.419,4.419,0,0,1,.535-1.948l.581-1.724a2.192,2.192,0,0,1,.791-1.25c.433-.259,1.119.1,1.48.384s.634.666.988.959a5.584,5.584,0,0,0,2.413.959l2.451.549a10.235,10.235,0,0,0,2.727.363c.683-2.087,1.983-3.924,2.718-5.994.227-.634.4-1.288.634-1.921a21.354,21.354,0,0,1,2.166-4.018,4.212,4.212,0,0,1,1.544-1.66A2.1,2.1,0,0,1,638.406,553.207Z" transform="translate(-463.273 -408.406)"/>
      <path id="Path_348" data-name="Path 348" class="cls-16" d="M667.224,506.173a2.586,2.586,0,0,0-.308-.959.805.805,0,0,0-.872-.384c-.512.16-.683.951-1.218.977-.36.017-.619-.349-.733-.692a2.109,2.109,0,0,0-.445-.977,1.657,1.657,0,0,0-.634-.291,4.23,4.23,0,0,1-2.936-2.352,1.407,1.407,0,0,1-.067-.788c.189-.782,1.163-1.017,1.9-1.3s1.453-.765,2.18-1.131a3.583,3.583,0,0,1,2.369-.439,12.351,12.351,0,0,1,1.195.445c1.2.419,2.677.224,3.61,1.093a3.729,3.729,0,0,1,.872,1.523c.651,1.808,1.064,3.954-.014,5.541-.666.98-1.311,2.1-2.59,2.218C668.049,508.784,667.459,507.435,667.224,506.173Z" transform="translate(-493.896 -369.669)"/>
      <g id="Group_74" data-name="Group 74" class="cls-3" transform="translate(166.099 130.077)">
        <path id="Path_349" data-name="Path 349" d="M664.979,509.3a2.135,2.135,0,0,0-.442-.977,1.657,1.657,0,0,0-.634-.291,4.235,4.235,0,0,1-2.939-2.352,1.432,1.432,0,0,1-.064-.788.983.983,0,0,1,.154-.346,1.523,1.523,0,0,0-1,.962,1.408,1.408,0,0,0,.067.788,4.23,4.23,0,0,0,2.936,2.352,1.657,1.657,0,0,1,.634.291,2.126,2.126,0,0,1,.445.977c.116.346.372.709.733.692s.535-.346.765-.622A.925.925,0,0,1,664.979,509.3Z" transform="translate(-660.023 -504.55)"/>
        <path id="Path_350" data-name="Path 350" d="M685.711,523.694c-1.494.137-2.084-1.224-2.326-2.477a2.529,2.529,0,0,0-.291-.959.808.808,0,0,0-.872-.384,1.547,1.547,0,0,0-.642.581.872.872,0,0,1,.657.407,2.584,2.584,0,0,1,.308.959c.235,1.253.826,2.616,2.326,2.477a2.4,2.4,0,0,0,1.535-.8A2.17,2.17,0,0,1,685.711,523.694Z" transform="translate(-675.313 -515.406)"/>
      </g>
      <ellipse id="Ellipse_82" data-name="Ellipse 82" class="cls-9" cx="9.387" cy="1.805" rx="9.387" ry="1.805" transform="translate(226.985 188.831)"/>
      <ellipse id="Ellipse_83" data-name="Ellipse 83" class="cls-4" cx="1.093" cy="1.43" rx="1.093" ry="1.43" transform="translate(235.122 188.438)"/>
      <ellipse id="Ellipse_84" data-name="Ellipse 84" class="cls-4" cx="1.093" cy="1.43" rx="1.093" ry="1.43" transform="translate(235.122 186.688)"/>
      <ellipse id="Ellipse_85" data-name="Ellipse 85" class="cls-4" cx="1.093" cy="1.43" rx="1.093" ry="1.43" transform="translate(235.122 184.941)"/>
      <ellipse id="Ellipse_86" data-name="Ellipse 86" class="cls-4" cx="1.093" cy="1.43" rx="1.093" ry="1.43" transform="translate(235.122 183.191)"/>
      <ellipse id="Ellipse_87" data-name="Ellipse 87" class="cls-4" cx="1.093" cy="1.43" rx="1.093" ry="1.43" transform="translate(235.122 181.441)"/>
      <ellipse id="Ellipse_88" data-name="Ellipse 88" class="cls-4" cx="1.093" cy="1.43" rx="1.093" ry="1.43" transform="translate(235.122 179.694)"/>
      <ellipse id="Ellipse_89" data-name="Ellipse 89" class="cls-4" cx="1.093" cy="1.43" rx="1.093" ry="1.43" transform="translate(235.122 177.944)"/>
      <path id="Path_351" data-name="Path 351" class="cls-9" d="M892.491,612.346a5.3,5.3,0,0,0,.407-.6l-2.872-.471,3.108.02a5.265,5.265,0,0,0,.1-4.148l-4.169,2.163,3.843-2.826a5.233,5.233,0,1,0-8.64,5.86,5.2,5.2,0,0,0-.6.953l3.73,1.939-3.977-1.334a5.233,5.233,0,0,0,.846,4.907,5.233,5.233,0,1,0,8.23,0,5.233,5.233,0,0,0,0-6.474Z" transform="translate(-652.186 -444.928)"/>
      <path id="Path_352" data-name="Path 352" class="cls-19" d="M883.12,643.912a20.684,20.684,0,0,1,1.693,10.315,5.233,5.233,0,0,0,7.665-7.077C893.172,646.258,883.12,643.325,883.12,643.912Z" transform="translate(-652.167 -473.267)"/>
      <ellipse id="Ellipse_90" data-name="Ellipse 90" class="cls-9" cx="13.515" cy="2.599" rx="13.515" ry="2.599" transform="translate(29.631 223.238)"/>
      <ellipse id="Ellipse_91" data-name="Ellipse 91" class="cls-4" cx="1.573" cy="2.061" rx="1.573" ry="2.061" transform="translate(41.346 222.671)"/>
      <ellipse id="Ellipse_92" data-name="Ellipse 92" class="cls-4" cx="1.573" cy="2.061" rx="1.573" ry="2.061" transform="translate(41.346 220.154)"/>
      <ellipse id="Ellipse_93" data-name="Ellipse 93" class="cls-4" cx="1.573" cy="2.061" rx="1.573" ry="2.061" transform="translate(41.346 217.636)"/>
      <ellipse id="Ellipse_94" data-name="Ellipse 94" class="cls-4" cx="1.573" cy="2.061" rx="1.573" ry="2.061" transform="translate(41.346 215.119)"/>
      <ellipse id="Ellipse_95" data-name="Ellipse 95" class="cls-4" cx="1.573" cy="2.061" rx="1.573" ry="2.061" transform="translate(41.346 212.601)"/>
      <ellipse id="Ellipse_96" data-name="Ellipse 96" class="cls-4" cx="1.573" cy="2.061" rx="1.573" ry="2.061" transform="translate(41.346 210.081)"/>
      <ellipse id="Ellipse_97" data-name="Ellipse 97" class="cls-4" cx="1.573" cy="2.061" rx="1.573" ry="2.061" transform="translate(41.346 207.564)"/>
      <path id="Path_353" data-name="Path 353" class="cls-9" d="M223.655,689.131a7.912,7.912,0,0,0,.581-.872l-4.134-.68,4.471.035a7.558,7.558,0,0,0,.142-5.974l-5.994,3.122,5.523-4.07a7.538,7.538,0,1,0-12.451,8.43,7.51,7.51,0,0,0-.872,1.372l5.369,2.791-5.724-1.922a7.538,7.538,0,0,0,1.238,7.09,7.538,7.538,0,1,0,11.849,0,7.535,7.535,0,0,0,0-9.32Z" transform="translate(-174.847 -496.733)"/>
      <path id="Path_354" data-name="Path 354" class="cls-19" d="M210.238,734.722a7.514,7.514,0,0,0,1.613,4.65,7.538,7.538,0,1,0,11.85,0C224.7,738.088,210.238,733.864,210.238,734.722Z" transform="translate(-174.892 -537.653)"/>
    </g>
  </g>
</svg>
