<?xml version="1.0" encoding="UTF-8"?>
<svg width="24px" height="24px" viewBox="0 0 24 24" version="1.1" xmlns="http://www.w3.org/2000/svg" xmlns:xlink="http://www.w3.org/1999/xlink">
    <title>Icons/content/Assessment</title>
    <g id="Icons/content/Assessment" stroke="none" stroke-width="1" fill="none" fill-rule="evenodd">
        <rect id="Size" fill="#D8D8D8" opacity="0" x="0" y="0" width="24" height="24"></rect>
        <path d="M10,19 C10.5107143,19 10.9352041,19.3880102 10.9932398,19.883801 L11,20 L10.9932398,20.116199 C10.9396684,20.573852 10.573852,20.9396684 10.116199,20.9932398 L10,21 L5,21 C4.48928571,21 4.06479592,20.6119898 4.0067602,20.116199 L4,20 L4.0067602,19.883801 C4.06033163,19.426148 4.42614796,19.0603316 4.88380102,19.0067602 L5,19 L10,19 Z M17.88,15.71 C18.27,15.32 18.9,15.32 19.29,15.71 L19.29,15.71 L19.3730769,15.8040419 C19.6776923,16.195503 19.65,16.76 19.29,17.12 L19.29,17.12 L16.12,20.29 C15.73,20.68 15.1,20.68 14.71,20.29 L14.71,20.29 L13.29,18.87 C12.9,18.48 12.9,17.85 13.29,17.46 L13.29,17.46 L13.3840419,17.3769231 C13.775503,17.0723077 14.34,17.1 14.7,17.46 L14.7,17.46 L15.41,18.17 Z M10,15 C10.5107143,15 10.9352041,15.3880102 10.9932398,15.883801 L11,16 L10.9932398,16.116199 C10.9396684,16.573852 10.573852,16.9396684 10.116199,16.9932398 L10,17 L5,17 C4.48928571,17 4.06479592,16.6119898 4.0067602,16.116199 L4,16 L4.0067602,15.883801 C4.06033163,15.426148 4.42614796,15.0603316 4.88380102,15.0067602 L5,15 L10,15 Z M19,11 C19.5107143,11 19.9352041,11.3880102 19.9932398,11.883801 L20,12 L19.9932398,12.116199 C19.9396684,12.573852 19.573852,12.9396684 19.116199,12.9932398 L19,13 L5,13 C4.48928571,13 4.06479592,12.6119898 4.0067602,12.116199 L4,12 L4.0067602,11.883801 C4.06033163,11.426148 4.42614796,11.0603316 4.88380102,11.0067602 L5,11 L19,11 Z M19,7 C19.5107143,7 19.9352041,7.3880102 19.9932398,7.88380102 L20,8 C20,8.55 19.55,9 19,9 L5,9 C4.48928571,9 4.06479592,8.6119898 4.0067602,8.11619898 L4,8 C4,7.45 4.45,7 5,7 L19,7 Z M19,3 C19.5107143,3 19.9352041,3.3880102 19.9932398,3.88380102 L20,4 L19.9932398,4.11619898 C19.9396684,4.57385204 19.573852,4.93966837 19.116199,4.9932398 L19,5 L5,5 C4.48928571,5 4.06479592,4.6119898 4.0067602,4.11619898 L4,4 L4.0067602,3.88380102 C4.06033163,3.42614796 4.42614796,3.06033163 4.88380102,3.0067602 L5,3 L19,3 Z" id="Combined-Shape" fill-opacity="0.6" fill="#000000"></path>
    </g>
</svg>