<?xml version="1.0" encoding="UTF-8"?>
<svg width="24px" height="24px" viewBox="0 0 24 24" version="1.1" xmlns="http://www.w3.org/2000/svg" xmlns:xlink="http://www.w3.org/1999/xlink">
    <title>Icons/content/goal</title>
    <g id="Icons/content/goal" stroke="none" stroke-width="1" fill="none" fill-rule="evenodd">
        <rect id="Size" fill="#D8D8D8" opacity="0" x="0" y="0" width="24" height="24"></rect>
        <path d="M12,1 C12.55,1 13,1.45 13,2 L13,2 L13,3.06 C17.17,3.52 20.48,6.83 20.94,11 L20.94,11 L22,11 C22.55,11 23,11.45 23,12 C23,12.55 22.55,13 22,13 L22,13 L20.94,13 C20.48,17.17 17.17,20.48 13,20.94 L13,20.94 L13,22 C13,22.55 12.55,23 12,23 C11.45,23 11,22.55 11,22 L11,22 L11,20.94 C6.83,20.48 3.52,17.17 3.06,13 L3.06,13 L2,13 C1.45,13 1,12.55 1,12 C1,11.45 1.45,11 2,11 L2,11 L3.06,11 C3.52,6.83 6.83,3.52 11,3.06 L11,3.06 L11,2 C11,1.45 11.45,1 12,1 Z M12,5 C8.13,5 5,8.13 5,12 C5,15.87 8.13,19 12,19 C15.87,19 19,15.87 19,12 C19,8.13 15.87,5 12,5 Z M12,10 C13.1045695,10 14,10.8954305 14,12 C14,13.1045695 13.1045695,14 12,14 C10.8954305,14 10,13.1045695 10,12 C10,10.8954305 10.8954305,10 12,10 Z" id="Combined-Shape" fill-opacity="0.6" fill="#000000"></path>
    </g>
</svg>