<?xml version="1.0" encoding="UTF-8"?>
<svg width="24px" height="24px" viewBox="0 0 24 24" version="1.1" xmlns="http://www.w3.org/2000/svg" xmlns:xlink="http://www.w3.org/1999/xlink">
    <title>Icons/content/PDF_alternate</title>
    <g id="Icons/content/PDF_alternate" stroke="none" stroke-width="1" fill="none" fill-rule="evenodd">
        <rect id="Size" fill="#D8D8D8" opacity="0" x="0" y="0" width="24" height="24"></rect>
        <path d="M18,4 L6,4 C4.9,4 4,4.9 4,6 L4,18 C4,19.1 4.9,20 6,20 L18,20 C19.1,20 20,19.1 20,18 L20,6 C20,4.9 19.1,4 18,4 Z M9.5,11.5 C9.5,12.33 8.83,13 8,13 L7,13 L7,14.25 C7,14.66 6.66,15 6.25,15 C5.84,15 5.5,14.66 5.5,14.25 L5.5,10 C5.5,9.45 5.95,9 6.5,9 L8,9 C8.83,9 9.5,9.67 9.5,10.5 L9.5,11.5 Z M14.5,13.5 C14.5,14.33 13.83,15 13,15 L11,15 C10.72,15 10.5,14.78 10.5,14.5 L10.5,9.5 C10.5,9.22 10.72,9 11,9 L13,9 C13.83,9 14.5,9.67 14.5,10.5 L14.5,13.5 Z M18.5,9.75 C18.5,10.16 18.16,10.5 17.75,10.5 L17,10.5 L17,11.5 L17.75,11.5 C18.16,11.5 18.5,11.84 18.5,12.25 C18.5,12.66 18.16,13 17.75,13 L17,13 L17,14.25 C17,14.66 16.66,15 16.25,15 C15.84,15 15.5,14.66 15.5,14.25 L15.5,10 C15.5,9.45 15.95,9 16.5,9 L17.75,9 C18.16,9 18.5,9.34 18.5,9.75 Z M7,11.5 L8,11.5 L8,10.5 L7,10.5 L7,11.5 Z M12,13.5 L13,13.5 L13,10.5 L12,10.5 L12,13.5 Z" id="Shape" fill-opacity="0.6" fill="#000000"></path>
    </g>
</svg>