<?xml version="1.0" encoding="UTF-8"?>
<svg width="24px" height="24px" viewBox="0 0 24 24" version="1.1" xmlns="http://www.w3.org/2000/svg" xmlns:xlink="http://www.w3.org/1999/xlink">
    <title>Icons/content/resource</title>
    <g id="Icons/content/resource" stroke="none" stroke-width="1" fill="none" fill-rule="evenodd">
        <rect id="Size" fill="#D8D8D8" fill-rule="nonzero" opacity="0" x="0" y="0" width="24" height="24"></rect>
        <path d="M6,2 C4.9,2 4.01,2.9 4.01,4 L4,20 C4,21.1 4.89,22 5.99,22 L18,22 C19.1,22 20,21.1 20,20 L20,8.83 C20,8.3 19.79,7.79 19.41,7.42 L14.58,2.59 C14.21,2.21 13.7,2 13.17,2 L6,2 Z M13,8 L13,3.5 L18.5,9 L14,9 C13.45,9 13,8.55 13,8 Z" id="Shape" fill-opacity="0.6" fill="#000000"></path>
    </g>
</svg>