<?xml version="1.0" encoding="UTF-8"?>
<svg width="24px" height="24px" viewBox="0 0 24 24" version="1.1" xmlns="http://www.w3.org/2000/svg" xmlns:xlink="http://www.w3.org/1999/xlink">
    <title>Icons/Hubs/CBC portal</title>
    <g id="Icons/Hubs/CBC-portal" stroke="none" stroke-width="1" fill="none" fill-rule="evenodd">
        <rect id="Size" fill="#D8D8D8" opacity="0" x="0" y="0" width="24" height="24"></rect>
        <path d="M18,11 C20.5471258,11 22.7765044,12.3604373 24.0011551,14.3943311 L24.0011551,21.6056689 C23.4106121,22.5864398 22.5864398,23.4106121 21.6056689,24.0011551 L14.3943311,24.0011551 C12.3604373,22.7765044 11,20.5471258 11,18 C11,14.1340068 14.1340068,11 18,11 Z" id="Combined-Shape"></path>
        <path d="M21.8819876,18 C21.8819876,17.78 21.8509317,17.58 21.8198758,17.37 L23,16.36 L21.9648033,14.63 L20.4637681,15.12 C20.1325052,14.85 19.7598344,14.64 19.3457557,14.49 L19.0351967,13 L16.9648033,13 L16.6542443,14.49 C16.2401656,14.64 15.8674948,14.85 15.5362319,15.12 L14.0351967,14.63 L13,16.36 L14.1801242,17.37 C14.1490683,17.58 14.1180124,17.78 14.1180124,18 C14.1180124,18.22 14.1490683,18.42 14.1801242,18.63 L13,19.64 L14.0351967,21.37 L15.5362319,20.88 C15.8674948,21.15 16.2401656,21.36 16.6542443,21.51 L16.9648033,23 L19.0351967,23 L19.3457557,21.51 C19.7598344,21.36 20.1325052,21.15 20.4637681,20.88 L21.9648033,21.37 L23,19.64 L21.8198758,18.63 C21.8509317,18.42 21.8819876,18.22 21.8819876,18 Z M18,20 C16.8612836,20 15.9296066,19.1 15.9296066,18 C15.9296066,16.9 16.8612836,16 18,16 C19.1387164,16 20.0703934,16.9 20.0703934,18 C20.0703934,19.1 19.1387164,20 18,20 Z" id="Shape" fill="#0074B6" opacity="0.5"></path>
        <path d="M10.6904762,2 C11.9390476,2 12.952381,3.01333333 12.952381,4.26190476 L12.952381,4.26190476 L12.952381,5.61904762 L16.5714286,5.61904762 C17.5666667,5.61904762 18.3809524,6.43333333 18.3809524,7.42857143 L18.3809524,7.42857143 L18.3810015,11.0101924 C18.2548592,11.0034264 18.1278297,11 18,11 C14.3955946,11 11.427469,13.7242377 11.042302,17.2260345 C10.928516,17.2086779 10.8105002,17.2 10.6904762,17.2 C9.34238095,17.2 8.24761905,18.2947619 8.24761905,19.6428571 L8.24761905,19.6428571 L8.24761905,21 L4.80952381,21 C3.81428571,21 3,20.1857143 3,19.1904762 L3,19.1904762 L3,15.752381 L4.35714286,15.752381 C5.7052381,15.752381 6.8,14.657619 6.8,13.3095238 C6.8,11.9614286 5.7052381,10.8666667 4.35714286,10.8666667 L4.35714286,10.8666667 L3.00904762,10.8666667 L3.00904762,7.42857143 C3.00904762,6.43333333 3.81428571,5.61904762 4.80952381,5.61904762 L4.80952381,5.61904762 L8.42857143,5.61904762 L8.42857143,4.26190476 C8.42857143,3.01333333 9.44190476,2 10.6904762,2 Z" id="Combined-Shape" fill="#0074B6"></path>
    </g>
</svg>