<?xml version="1.0" encoding="UTF-8"?>
<svg width="24px" height="24px" viewBox="0 0 24 24" version="1.1" xmlns="http://www.w3.org/2000/svg" xmlns:xlink="http://www.w3.org/1999/xlink">
    <title>Icons/Hubs/SPV portal</title>
    <g id="Icons/Hubs/SPV-portal" stroke="none" stroke-width="1" fill="none" fill-rule="evenodd">
        <rect id="Size" fill="#D8D8D8" opacity="0" x="0" y="0" width="24" height="24"></rect>
        <path d="M17,11 C17.34,11 17.67,11.04 18,11.09 L18,7.58 C18,6.78 17.53,6.06 16.8,5.75 L11.3,3.35 C10.79,3.13 10.21,3.13 9.7,3.35 L4.2,5.75 C3.47,6.07 3,6.79 3,7.58 L3,11.18 C3,15.72 6.2,19.97 10.5,21 C11.05,20.87 11.58,20.68 12.1,20.45 C11.41,19.47 11,18.28 11,17 C11,13.69 13.69,11 17,11 Z" id="Path" fill="#0074B6"></path>
        <path d="M17,13 C14.79,13 13,14.79 13,17 C13,19.21 14.79,21 17,21 C19.21,21 21,19.21 21,17 C21,14.79 19.21,13 17,13 Z M15.5,16.5 C15.7767857,16.5 16,16.7276786 16,17 C16,17.2723214 15.7723214,17.5 15.5,17.5 C15.2276786,17.5 15,17.2723214 15,17 C15,16.7276786 15.2232143,16.5 15.5,16.5 Z M17,16.5 C17.2767857,16.5 17.5,16.7276786 17.5,17 C17.5,17.2723214 17.2723214,17.5 17,17.5 C16.7276786,17.5 16.5,17.2723214 16.5,17 C16.5,16.7276786 16.7232143,16.5 17,16.5 Z M18.5,16.5 C18.7767857,16.5 19,16.7276786 19,17 C19,17.2723214 18.7723214,17.5 18.5,17.5 C18.2276786,17.5 18,17.2723214 18,17 C18,16.7276786 18.2232143,16.5 18.5,16.5 Z" id="Shape" fill="#0074B6" opacity="0.5"></path>
    </g>
</svg>